<?xml version="1.0" encoding="UTF-8" standalone="no"?>
<!DOCTYPE svg PUBLIC "-//W3C//DTD SVG 1.1//EN"
 "http://www.w3.org/Graphics/SVG/1.1/DTD/svg11.dtd">
<!-- Generated by graphviz version 14.0.2 (20251019.1705)
 -->
<!-- Title: include/Cellule.hpp Pages: 1 -->
<svg width="999pt" height="252pt"
 viewBox="0.00 0.00 999.00 252.00" xmlns="http://www.w3.org/2000/svg" xmlns:xlink="http://www.w3.org/1999/xlink">
<g id="graph0" class="graph" transform="scale(1 1) rotate(0) translate(4 248)">
<title>include/Cellule.hpp</title>
<!-- Node1 -->
<g id="Node000001" class="node">
<title>Node1</title>
<g id="a_Node000001"><a xlink:title=" ">
<polygon fill="#999999" stroke="#666666" points="818.5,-244 720,-244 720,-224 818.5,-224 818.5,-244"/>
<text xml:space="preserve" text-anchor="middle" x="769.25" y="-230.5" font-family="Helvetica,sans-Serif" font-size="10.00">include/Cellule.hpp</text>
</a>
</g>
</g>
<!-- Node2 -->
<g id="Node000002" class="node">
<title>Node2</title>
<g id="a_Node000002"><a xlink:href="Grille_8hpp.html" target="_top" xlink:title=" ">
<polygon fill="white" stroke="#666666" points="676.75,-188 585.75,-188 585.75,-168 676.75,-168 676.75,-188"/>
<text xml:space="preserve" text-anchor="middle" x="631.25" y="-174.5" font-family="Helvetica,sans-Serif" font-size="10.00">include/Grille.hpp</text>
</a>
</g>
</g>
<!-- Node1&#45;&gt;Node2 -->
<g id="edge1_Node000001_Node000002" class="edge">
<title>Node1&#45;&gt;Node2</title>
<g id="a_edge1_Node000001_Node000002"><a xlink:title=" ">
<path fill="none" stroke="#63b8ff" d="M734.5,-219.4C709.84,-209.75 677.37,-197.05 655.48,-188.48"/>
<polygon fill="#63b8ff" stroke="#63b8ff" points="733.21,-222.66 743.8,-223.04 735.77,-216.14 733.21,-222.66"/>
</a>
</g>
</g>
<!-- Node18 -->
<g id="Node000018" class="node">
<title>Node18</title>
<g id="a_Node000018"><a xlink:href="RegleJeu_8cpp.html" target="_top" xlink:title=" ">
<polygon fill="white" stroke="#666666" points="880.5,-132 788,-132 788,-112 880.5,-112 880.5,-132"/>
<text xml:space="preserve" text-anchor="middle" x="834.25" y="-118.5" font-family="Helvetica,sans-Serif" font-size="10.00">src/RegleJeu.cpp</text>
</a>
</g>
</g>
<!-- Node1&#45;&gt;Node18 -->
<g id="edge24_Node000001_Node000018" class="edge">
<title>Node1&#45;&gt;Node18</title>
<g id="a_edge24_Node000001_Node000018"><a xlink:title=" ">
<path fill="none" stroke="#63b8ff" d="M772.51,-212.25C775.26,-198.91 780.09,-181.6 788.25,-168 796.87,-153.63 811.18,-140.65 821.56,-132.37"/>
<polygon fill="#63b8ff" stroke="#63b8ff" points="769.06,-211.62 770.74,-222.08 775.95,-212.86 769.06,-211.62"/>
</a>
</g>
</g>
<!-- Node19 -->
<g id="Node000019" class="node">
<title>Node19</title>
<g id="a_Node000019"><a xlink:href="Cellule_8cpp.html" target="_top" xlink:title=" ">
<polygon fill="white" stroke="#666666" points="878.88,-188 797.62,-188 797.62,-168 878.88,-168 878.88,-188"/>
<text xml:space="preserve" text-anchor="middle" x="838.25" y="-174.5" font-family="Helvetica,sans-Serif" font-size="10.00">src/Cellule.cpp</text>
</a>
</g>
</g>
<!-- Node1&#45;&gt;Node19 -->
<g id="edge23_Node000001_Node000019" class="edge">
<title>Node1&#45;&gt;Node19</title>
<g id="a_edge23_Node000001_Node000019"><a xlink:title=" ">
<path fill="none" stroke="#63b8ff" d="M790.1,-216.68C801.98,-207.39 816.42,-196.09 826.37,-188.3"/>
<polygon fill="#63b8ff" stroke="#63b8ff" points="788.18,-213.74 782.46,-222.66 792.49,-219.25 788.18,-213.74"/>
</a>
</g>
</g>
<!-- Node3 -->
<g id="Node000003" class="node">
<title>Node3</title>
<g id="a_Node000003"><a xlink:href="GestionnaireFichier_8hpp.html" target="_top" xlink:title=" ">
<polygon fill="white" stroke="#666666" points="152.5,-76 0,-76 0,-56 152.5,-56 152.5,-76"/>
<text xml:space="preserve" text-anchor="middle" x="76.25" y="-62.5" font-family="Helvetica,sans-Serif" font-size="10.00">include/GestionnaireFichier.hpp</text>
</a>
</g>
</g>
<!-- Node2&#45;&gt;Node3 -->
<g id="edge2_Node000002_Node000003" class="edge">
<title>Node2&#45;&gt;Node3</title>
<g id="a_edge2_Node000002_Node000003"><a xlink:title=" ">
<path fill="none" stroke="#63b8ff" d="M584.6,-164.48C556.52,-156.4 520.32,-144.98 489.25,-132 471.64,-124.64 469.47,-117.68 451.25,-112 437.2,-107.62 258.49,-87.26 152.93,-75.48"/>
<polygon fill="#63b8ff" stroke="#63b8ff" points="583.29,-167.75 593.86,-167.11 585.2,-161.02 583.29,-167.75"/>
</a>
</g>
</g>
<!-- Node7 -->
<g id="Node000007" class="node">
<title>Node7</title>
<g id="a_Node000007"><a xlink:href="JeuDeLaVie_8hpp.html" target="_top" xlink:title=" ">
<polygon fill="white" stroke="#666666" points="620.12,-132 498.38,-132 498.38,-112 620.12,-112 620.12,-132"/>
<text xml:space="preserve" text-anchor="middle" x="559.25" y="-118.5" font-family="Helvetica,sans-Serif" font-size="10.00">include/JeuDeLaVie.hpp</text>
</a>
</g>
</g>
<!-- Node2&#45;&gt;Node7 -->
<g id="edge6_Node000002_Node000007" class="edge">
<title>Node2&#45;&gt;Node7</title>
<g id="a_edge6_Node000002_Node000007"><a xlink:title=" ">
<path fill="none" stroke="#63b8ff" d="M609.86,-160.95C597.4,-151.61 582.14,-140.16 571.65,-132.3"/>
<polygon fill="#63b8ff" stroke="#63b8ff" points="607.4,-163.49 617.5,-166.69 611.6,-157.89 607.4,-163.49"/>
</a>
</g>
</g>
<!-- Node15 -->
<g id="Node000015" class="node">
<title>Node15</title>
<g id="a_Node000015"><a xlink:href="TestsUnitaires_8hpp.html" target="_top" xlink:title=" ">
<polygon fill="white" stroke="#666666" points="770,-132 638.5,-132 638.5,-112 770,-112 770,-132"/>
<text xml:space="preserve" text-anchor="middle" x="704.25" y="-118.5" font-family="Helvetica,sans-Serif" font-size="10.00">include/TestsUnitaires.hpp</text>
</a>
</g>
</g>
<!-- Node2&#45;&gt;Node15 -->
<g id="edge18_Node000002_Node000015" class="edge">
<title>Node2&#45;&gt;Node15</title>
<g id="a_edge18_Node000002_Node000015"><a xlink:title=" ">
<path fill="none" stroke="#63b8ff" d="M652.94,-160.95C665.57,-151.61 681.05,-140.16 691.68,-132.3"/>
<polygon fill="#63b8ff" stroke="#63b8ff" points="651.14,-157.93 645.18,-166.69 655.3,-163.56 651.14,-157.93"/>
</a>
</g>
</g>
<!-- Node17 -->
<g id="Node000017" class="node">
<title>Node17</title>
<g id="a_Node000017"><a xlink:href="Grille_8cpp.html" target="_top" xlink:title=" ">
<polygon fill="white" stroke="#666666" points="442.12,-132 368.38,-132 368.38,-112 442.12,-112 442.12,-132"/>
<text xml:space="preserve" text-anchor="middle" x="405.25" y="-118.5" font-family="Helvetica,sans-Serif" font-size="10.00">src/Grille.cpp</text>
</a>
</g>
</g>
<!-- Node2&#45;&gt;Node17 -->
<g id="edge21_Node000002_Node000017" class="edge">
<title>Node2&#45;&gt;Node17</title>
<g id="a_edge21_Node000002_Node000017"><a xlink:title=" ">
<path fill="none" stroke="#63b8ff" d="M580.56,-164.89C538.7,-154.89 480.25,-140.92 442.58,-131.92"/>
<polygon fill="#63b8ff" stroke="#63b8ff" points="579.61,-168.26 590.15,-167.18 581.24,-161.45 579.61,-168.26"/>
</a>
</g>
</g>
<!-- Node2&#45;&gt;Node18 -->
<g id="edge22_Node000002_Node000018" class="edge">
<title>Node2&#45;&gt;Node18</title>
<g id="a_edge22_Node000002_Node000018"><a xlink:title=" ">
<path fill="none" stroke="#63b8ff" d="M677.54,-164.69C714.3,-154.91 764.96,-141.43 798.61,-132.48"/>
<polygon fill="#63b8ff" stroke="#63b8ff" points="676.84,-161.25 668.07,-167.2 678.64,-168.02 676.84,-161.25"/>
</a>
</g>
</g>
<!-- Node4 -->
<g id="Node000004" class="node">
<title>Node4</title>
<g id="a_Node000004"><a xlink:href="GestionnaireFichier_8cpp.html" target="_top" xlink:title=" ">
<polygon fill="white" stroke="#666666" points="135.88,-20 0.62,-20 0.62,0 135.88,0 135.88,-20"/>
<text xml:space="preserve" text-anchor="middle" x="68.25" y="-6.5" font-family="Helvetica,sans-Serif" font-size="10.00">src/GestionnaireFichier.cpp</text>
</a>
</g>
</g>
<!-- Node3&#45;&gt;Node4 -->
<g id="edge3_Node000003_Node000004" class="edge">
<title>Node3&#45;&gt;Node4</title>
<g id="a_edge3_Node000003_Node000004"><a xlink:title=" ">
<path fill="none" stroke="#63b8ff" d="M73.2,-44.43C71.97,-36.11 70.61,-26.93 69.63,-20.3"/>
<polygon fill="#63b8ff" stroke="#63b8ff" points="69.71,-44.72 74.63,-54.1 76.63,-43.69 69.71,-44.72"/>
</a>
</g>
</g>
<!-- Node5 -->
<g id="Node000005" class="node">
<title>Node5</title>
<g id="a_Node000005"><a xlink:href="ModeConsole_8cpp.html" target="_top" xlink:title=" ">
<polygon fill="white" stroke="#666666" points="264.88,-20 153.62,-20 153.62,0 264.88,0 264.88,-20"/>
<text xml:space="preserve" text-anchor="middle" x="209.25" y="-6.5" font-family="Helvetica,sans-Serif" font-size="10.00">src/ModeConsole.cpp</text>
</a>
</g>
</g>
<!-- Node3&#45;&gt;Node5 -->
<g id="edge4_Node000003_Node000005" class="edge">
<title>Node3&#45;&gt;Node5</title>
<g id="a_edge4_Node000003_Node000005"><a xlink:title=" ">
<path fill="none" stroke="#63b8ff" d="M110.06,-51.27C133.79,-41.64 164.9,-29.01 185.9,-20.48"/>
<polygon fill="#63b8ff" stroke="#63b8ff" points="108.77,-48.02 100.82,-55.02 111.4,-54.51 108.77,-48.02"/>
</a>
</g>
</g>
<!-- Node6 -->
<g id="Node000006" class="node">
<title>Node6</title>
<g id="a_Node000006"><a xlink:href="main_8cpp.html" target="_top" xlink:title=" ">
<polygon fill="white" stroke="#666666" points="355.38,-20 283.12,-20 283.12,0 355.38,0 355.38,-20"/>
<text xml:space="preserve" text-anchor="middle" x="319.25" y="-6.5" font-family="Helvetica,sans-Serif" font-size="10.00">src/main.cpp</text>
</a>
</g>
</g>
<!-- Node3&#45;&gt;Node6 -->
<g id="edge5_Node000003_Node000006" class="edge">
<title>Node3&#45;&gt;Node6</title>
<g id="a_edge5_Node000003_Node000006"><a xlink:title=" ">
<path fill="none" stroke="#63b8ff" d="M129.91,-53.08C176.29,-42.77 242.09,-28.15 282.65,-19.13"/>
<polygon fill="#63b8ff" stroke="#63b8ff" points="129.34,-49.62 120.33,-55.2 130.85,-56.45 129.34,-49.62"/>
</a>
</g>
</g>
<!-- Node7&#45;&gt;Node6 -->
<g id="edge17_Node000007_Node000006" class="edge">
<title>Node7&#45;&gt;Node6</title>
<g id="a_edge17_Node000007_Node000006"><a xlink:title=" ">
<path fill="none" stroke="#63b8ff" d="M489.54,-109.59C431.78,-99.6 357.41,-85.26 346.25,-76 328.95,-61.64 322.57,-34.34 320.35,-20.13"/>
<polygon fill="#63b8ff" stroke="#63b8ff" points="488.91,-113.03 499.35,-111.27 490.09,-106.14 488.91,-113.03"/>
</a>
</g>
</g>
<!-- Node8 -->
<g id="Node000008" class="node">
<title>Node8</title>
<g id="a_Node000008"><a xlink:href="InterfaceQt_8hpp.html" target="_top" xlink:title=" ">
<polygon fill="white" stroke="#666666" points="746.88,-76 629.62,-76 629.62,-56 746.88,-56 746.88,-76"/>
<text xml:space="preserve" text-anchor="middle" x="688.25" y="-62.5" font-family="Helvetica,sans-Serif" font-size="10.00">include/InterfaceQt.hpp</text>
</a>
</g>
</g>
<!-- Node7&#45;&gt;Node8 -->
<g id="edge7_Node000007_Node000008" class="edge">
<title>Node7&#45;&gt;Node8</title>
<g id="a_edge7_Node000007_Node000008"><a xlink:title=" ">
<path fill="none" stroke="#63b8ff" d="M592.05,-107.27C615.06,-97.64 645.23,-85.01 665.6,-76.48"/>
<polygon fill="#63b8ff" stroke="#63b8ff" points="590.99,-103.92 583.12,-111.01 593.69,-110.38 590.99,-103.92"/>
</a>
</g>
</g>
<!-- Node10 -->
<g id="Node000010" class="node">
<title>Node10</title>
<g id="a_Node000010"><a xlink:href="InterfaceSFML_8hpp.html" target="_top" xlink:title=" ">
<polygon fill="white" stroke="#666666" points="488.75,-76 355.75,-76 355.75,-56 488.75,-56 488.75,-76"/>
<text xml:space="preserve" text-anchor="middle" x="422.25" y="-62.5" font-family="Helvetica,sans-Serif" font-size="10.00">include/InterfaceSFML.hpp</text>
</a>
</g>
</g>
<!-- Node7&#45;&gt;Node10 -->
<g id="edge9_Node000007_Node000010" class="edge">
<title>Node7&#45;&gt;Node10</title>
<g id="a_edge9_Node000007_Node000010"><a xlink:title=" ">
<path fill="none" stroke="#63b8ff" d="M524.75,-107.4C500.27,-97.75 468.03,-85.05 446.3,-76.48"/>
<polygon fill="#63b8ff" stroke="#63b8ff" points="523.39,-110.63 533.98,-111.04 525.96,-104.12 523.39,-110.63"/>
</a>
</g>
</g>
<!-- Node12 -->
<g id="Node000012" class="node">
<title>Node12</title>
<g id="a_Node000012"><a xlink:href="ModeConsole_8hpp.html" target="_top" xlink:title=" ">
<polygon fill="white" stroke="#666666" points="299.5,-76 171,-76 171,-56 299.5,-56 299.5,-76"/>
<text xml:space="preserve" text-anchor="middle" x="235.25" y="-62.5" font-family="Helvetica,sans-Serif" font-size="10.00">include/ModeConsole.hpp</text>
</a>
</g>
</g>
<!-- Node7&#45;&gt;Node12 -->
<g id="edge12_Node000007_Node000012" class="edge">
<title>Node7&#45;&gt;Node12</title>
<g id="a_edge12_Node000007_Node000012"><a xlink:title=" ">
<path fill="none" stroke="#63b8ff" d="M491.35,-109.68C432.24,-99.83 347.55,-85.72 291.99,-76.46"/>
<polygon fill="#63b8ff" stroke="#63b8ff" points="490.51,-113.09 500.95,-111.28 491.66,-106.19 490.51,-113.09"/>
</a>
</g>
</g>
<!-- Node13 -->
<g id="Node000013" class="node">
<title>Node13</title>
<g id="a_Node000013"><a xlink:href="JeuDeLaVie_8cpp.html" target="_top" xlink:title=" ">
<polygon fill="white" stroke="#666666" points="611.5,-76 507,-76 507,-56 611.5,-56 611.5,-76"/>
<text xml:space="preserve" text-anchor="middle" x="559.25" y="-62.5" font-family="Helvetica,sans-Serif" font-size="10.00">src/JeuDeLaVie.cpp</text>
</a>
</g>
</g>
<!-- Node7&#45;&gt;Node13 -->
<g id="edge15_Node000007_Node000013" class="edge">
<title>Node7&#45;&gt;Node13</title>
<g id="a_edge15_Node000007_Node000013"><a xlink:title=" ">
<path fill="none" stroke="#63b8ff" d="M559.25,-100.13C559.25,-91.9 559.25,-82.85 559.25,-76.3"/>
<polygon fill="#63b8ff" stroke="#63b8ff" points="555.75,-100.08 559.25,-110.08 562.75,-100.08 555.75,-100.08"/>
</a>
</g>
</g>
<!-- Node14 -->
<g id="Node000014" class="node">
<title>Node14</title>
<g id="a_Node000014"><a xlink:href="TestsUnitaires_8cpp.html" target="_top" xlink:title=" ">
<polygon fill="white" stroke="#666666" points="879.38,-76 765.12,-76 765.12,-56 879.38,-56 879.38,-76"/>
<text xml:space="preserve" text-anchor="middle" x="822.25" y="-62.5" font-family="Helvetica,sans-Serif" font-size="10.00">src/TestsUnitaires.cpp</text>
</a>
</g>
</g>
<!-- Node7&#45;&gt;Node14 -->
<g id="edge16_Node000007_Node000014" class="edge">
<title>Node7&#45;&gt;Node14</title>
<g id="a_edge16_Node000007_Node000014"><a xlink:title=" ">
<path fill="none" stroke="#63b8ff" d="M616.48,-109.25C664.34,-99.42 731.75,-85.58 776.19,-76.46"/>
<polygon fill="#63b8ff" stroke="#63b8ff" points="615.94,-105.79 606.84,-111.23 617.34,-112.64 615.94,-105.79"/>
</a>
</g>
</g>
<!-- Node9 -->
<g id="Node000009" class="node">
<title>Node9</title>
<g id="a_Node000009"><a xlink:href="InterfaceQt_8cpp.html" target="_top" xlink:title=" ">
<polygon fill="white" stroke="#666666" points="738.25,-20 638.25,-20 638.25,0 738.25,0 738.25,-20"/>
<text xml:space="preserve" text-anchor="middle" x="688.25" y="-6.5" font-family="Helvetica,sans-Serif" font-size="10.00">src/InterfaceQt.cpp</text>
</a>
</g>
</g>
<!-- Node8&#45;&gt;Node9 -->
<g id="edge8_Node000008_Node000009" class="edge">
<title>Node8&#45;&gt;Node9</title>
<g id="a_edge8_Node000008_Node000009"><a xlink:title=" ">
<path fill="none" stroke="#63b8ff" d="M688.25,-44.13C688.25,-35.9 688.25,-26.85 688.25,-20.3"/>
<polygon fill="#63b8ff" stroke="#63b8ff" points="684.75,-44.08 688.25,-54.08 691.75,-44.08 684.75,-44.08"/>
</a>
</g>
</g>
<!-- Node10&#45;&gt;Node6 -->
<g id="edge11_Node000010_Node000006" class="edge">
<title>Node10&#45;&gt;Node6</title>
<g id="a_edge11_Node000010_Node000006"><a xlink:title=" ">
<path fill="none" stroke="#63b8ff" d="M394.3,-50.35C376.17,-40.84 353.08,-28.74 337.33,-20.48"/>
<polygon fill="#63b8ff" stroke="#63b8ff" points="392.49,-53.35 402.97,-54.89 395.74,-47.15 392.49,-53.35"/>
</a>
</g>
</g>
<!-- Node11 -->
<g id="Node000011" class="node">
<title>Node11</title>
<g id="a_Node000011"><a xlink:href="InterfaceSFML_8cpp.html" target="_top" xlink:title=" ">
<polygon fill="white" stroke="#666666" points="489.12,-20 373.38,-20 373.38,0 489.12,0 489.12,-20"/>
<text xml:space="preserve" text-anchor="middle" x="431.25" y="-6.5" font-family="Helvetica,sans-Serif" font-size="10.00">src/InterfaceSFML.cpp</text>
</a>
</g>
</g>
<!-- Node10&#45;&gt;Node11 -->
<g id="edge10_Node000010_Node000011" class="edge">
<title>Node10&#45;&gt;Node11</title>
<g id="a_edge10_Node000010_Node000011"><a xlink:title=" ">
<path fill="none" stroke="#63b8ff" d="M425.68,-44.43C427.07,-36.11 428.59,-26.93 429.7,-20.3"/>
<polygon fill="#63b8ff" stroke="#63b8ff" points="422.26,-43.66 424.07,-54.1 429.16,-44.81 422.26,-43.66"/>
</a>
</g>
</g>
<!-- Node12&#45;&gt;Node5 -->
<g id="edge13_Node000012_Node000005" class="edge">
<title>Node12&#45;&gt;Node5</title>
<g id="a_edge13_Node000012_Node000005"><a xlink:title=" ">
<path fill="none" stroke="#63b8ff" d="M225.76,-45.29C221.65,-36.75 217.03,-27.16 213.73,-20.3"/>
<polygon fill="#63b8ff" stroke="#63b8ff" points="222.57,-46.74 230.06,-54.23 228.88,-43.7 222.57,-46.74"/>
</a>
</g>
</g>
<!-- Node12&#45;&gt;Node6 -->
<g id="edge14_Node000012_Node000006" class="edge">
<title>Node12&#45;&gt;Node6</title>
<g id="a_edge14_Node000012_Node000006"><a xlink:title=" ">
<path fill="none" stroke="#63b8ff" d="M259.3,-49.54C273.88,-40.17 292.02,-28.51 304.5,-20.48"/>
<polygon fill="#63b8ff" stroke="#63b8ff" points="257.67,-46.42 251.15,-54.78 261.46,-52.31 257.67,-46.42"/>
</a>
</g>
</g>
<!-- Node15&#45;&gt;Node14 -->
<g id="edge19_Node000015_Node000014" class="edge">
<title>Node15&#45;&gt;Node14</title>
<g id="a_edge19_Node000015_Node000014"><a xlink:title=" ">
<path fill="none" stroke="#63b8ff" d="M735.11,-106.88C756.05,-97.3 783.15,-84.89 801.54,-76.48"/>
<polygon fill="#63b8ff" stroke="#63b8ff" points="733.82,-103.62 726.18,-110.96 736.73,-109.99 733.82,-103.62"/>
</a>
</g>
</g>
<!-- Node16 -->
<g id="Node000016" class="node">
<title>Node16</title>
<g id="a_Node000016"><a xlink:href="test__main_8cpp.html" target="_top" xlink:title=" ">
<polygon fill="white" stroke="#666666" points="991.25,-76 897.25,-76 897.25,-56 991.25,-56 991.25,-76"/>
<text xml:space="preserve" text-anchor="middle" x="944.25" y="-62.5" font-family="Helvetica,sans-Serif" font-size="10.00">src/test_main.cpp</text>
</a>
</g>
</g>
<!-- Node15&#45;&gt;Node16 -->
<g id="edge20_Node000015_Node000016" class="edge">
<title>Node15&#45;&gt;Node16</title>
<g id="a_edge20_Node000015_Node000016"><a xlink:title=" ">
<path fill="none" stroke="#63b8ff" d="M757.3,-109.06C800.93,-99.25 861.92,-85.52 902.22,-76.46"/>
<polygon fill="#63b8ff" stroke="#63b8ff" points="756.79,-105.59 747.81,-111.2 758.33,-112.42 756.79,-105.59"/>
</a>
</g>
</g>
</g>
</svg>
