<?xml version="1.0" encoding="UTF-8" standalone="no"?>
<!DOCTYPE svg PUBLIC "-//W3C//DTD SVG 1.1//EN"
 "http://www.w3.org/Graphics/SVG/1.1/DTD/svg11.dtd">
<!-- Generated by graphviz version 14.0.2 (20251019.1705)
 -->
<!-- Title: InterfaceQt::calculerTailleCellule Pages: 1 -->
<svg width="299pt" height="66pt"
 viewBox="0.00 0.00 299.00 66.00" xmlns="http://www.w3.org/2000/svg" xmlns:xlink="http://www.w3.org/1999/xlink">
<g id="graph0" class="graph" transform="scale(1 1) rotate(0) translate(4 62)">
<title>InterfaceQt::calculerTailleCellule</title>
<!-- Node1 -->
<g id="Node000001" class="node">
<title>Node1</title>
<g id="a_Node000001"><a xlink:title="Calcule la taille des cellules.">
<polygon fill="#999999" stroke="#666666" points="127,-45 0,-45 0,-13 127,-13 127,-45"/>
<text xml:space="preserve" text-anchor="start" x="8" y="-31.5" font-family="Helvetica,sans-Serif" font-size="10.00">InterfaceQt::calculerTaille</text>
<text xml:space="preserve" text-anchor="middle" x="63.5" y="-19.5" font-family="Helvetica,sans-Serif" font-size="10.00">Cellule</text>
</a>
</g>
</g>
<!-- Node2 -->
<g id="Node000002" class="node">
<title>Node2</title>
<g id="a_Node000002"><a xlink:href="classGrille.html#a1ab5c8e0ea0d1dc21549c38d0f0f5cf9" target="_top" xlink:title="Obtient le nombre de colonnes.">
<polygon fill="white" stroke="#666666" points="290.75,-58 163,-58 163,-38 290.75,-38 290.75,-58"/>
<text xml:space="preserve" text-anchor="middle" x="226.88" y="-44.5" font-family="Helvetica,sans-Serif" font-size="10.00">Grille::obtenirNbColonnes</text>
</a>
</g>
</g>
<!-- Node1&#45;&gt;Node2 -->
<g id="edge1_Node000001_Node000002" class="edge">
<title>Node1&#45;&gt;Node2</title>
<g id="a_edge1_Node000001_Node000002"><a xlink:title=" ">
<path fill="none" stroke="#63b8ff" d="M127.35,-36.4C135.23,-37.33 143.35,-38.28 151.39,-39.23"/>
<polygon fill="#63b8ff" stroke="#63b8ff" points="150.82,-42.69 161.16,-40.38 151.64,-35.73 150.82,-42.69"/>
</a>
</g>
</g>
<!-- Node3 -->
<g id="Node000003" class="node">
<title>Node3</title>
<g id="a_Node000003"><a xlink:href="classGrille.html#a96b5f98d212a0ee9e2f71d73ebe5bb91" target="_top" xlink:title="Obtient le nombre de lignes.">
<polygon fill="white" stroke="#666666" points="284.38,-20 169.38,-20 169.38,0 284.38,0 284.38,-20"/>
<text xml:space="preserve" text-anchor="middle" x="226.88" y="-6.5" font-family="Helvetica,sans-Serif" font-size="10.00">Grille::obtenirNbLignes</text>
</a>
</g>
</g>
<!-- Node1&#45;&gt;Node3 -->
<g id="edge2_Node000001_Node000003" class="edge">
<title>Node1&#45;&gt;Node3</title>
<g id="a_edge2_Node000001_Node000003"><a xlink:title=" ">
<path fill="none" stroke="#63b8ff" d="M127.35,-21.6C137.32,-20.43 147.67,-19.21 157.75,-18.02"/>
<polygon fill="#63b8ff" stroke="#63b8ff" points="157.96,-21.52 167.48,-16.88 157.14,-14.57 157.96,-21.52"/>
</a>
</g>
</g>
</g>
</svg>
