<?xml version="1.0" encoding="UTF-8" standalone="no"?>
<!DOCTYPE svg PUBLIC "-//W3C//DTD SVG 1.1//EN"
 "http://www.w3.org/Graphics/SVG/1.1/DTD/svg11.dtd">
<!-- Generated by graphviz version 14.0.2 (20251019.1705)
 -->
<!-- Title: InterfaceSFML::executer Pages: 1 -->
<svg width="864pt" height="186pt"
 viewBox="0.00 0.00 864.00 186.00" xmlns="http://www.w3.org/2000/svg" xmlns:xlink="http://www.w3.org/1999/xlink">
<g id="graph0" class="graph" transform="scale(1 1) rotate(0) translate(4 182)">
<title>InterfaceSFML::executer</title>
<!-- Node1 -->
<g id="Node000001" class="node">
<title>Node1</title>
<g id="a_Node000001"><a xlink:title="Lance la boucle principale de l&#39;interface graphique.">
<polygon fill="#999999" stroke="#666666" points="124,-48 0,-48 0,-28 124,-28 124,-48"/>
<text xml:space="preserve" text-anchor="middle" x="62" y="-34.5" font-family="Helvetica,sans-Serif" font-size="10.00">InterfaceSFML::executer</text>
</a>
</g>
</g>
<!-- Node2 -->
<g id="Node000002" class="node">
<title>Node2</title>
<g id="a_Node000002"><a xlink:href="classInterfaceSFML.html#aa50033cc2b996da556fdebca5db2c7ef" target="_top" xlink:title="Met à jour l&#39;affichage.">
<polygon fill="white" stroke="#666666" points="300.5,-70 182.5,-70 182.5,-50 300.5,-50 300.5,-70"/>
<text xml:space="preserve" text-anchor="middle" x="241.5" y="-56.5" font-family="Helvetica,sans-Serif" font-size="10.00">InterfaceSFML::afficher</text>
</a>
</g>
</g>
<!-- Node1&#45;&gt;Node2 -->
<g id="edge1_Node000001_Node000002" class="edge">
<title>Node1&#45;&gt;Node2</title>
<g id="a_edge1_Node000001_Node000002"><a xlink:title=" ">
<path fill="none" stroke="#63b8ff" d="M124.09,-45.57C139.26,-47.45 155.63,-49.48 171.16,-51.41"/>
<polygon fill="#63b8ff" stroke="#63b8ff" points="170.44,-54.84 180.79,-52.6 171.3,-47.9 170.44,-54.84"/>
</a>
</g>
</g>
<!-- Node11 -->
<g id="Node000011" class="node">
<title>Node11</title>
<g id="a_Node000011"><a xlink:href="classInterfaceSFML.html#a20bcd606ad56b9f175bba4a49a4f061a" target="_top" xlink:title="Gère les événements (clavier, souris, fermeture).">
<polygon fill="white" stroke="#666666" points="323,-29 160,-29 160,-9 323,-9 323,-29"/>
<text xml:space="preserve" text-anchor="middle" x="241.5" y="-15.5" font-family="Helvetica,sans-Serif" font-size="10.00">InterfaceSFML::gererEvenements</text>
</a>
</g>
</g>
<!-- Node1&#45;&gt;Node11 -->
<g id="edge14_Node000001_Node000011" class="edge">
<title>Node1&#45;&gt;Node11</title>
<g id="a_edge14_Node000001_Node000011"><a xlink:title=" ">
<path fill="none" stroke="#63b8ff" d="M124.09,-31.46C131.95,-30.62 140.13,-29.74 148.35,-28.86"/>
<polygon fill="#63b8ff" stroke="#63b8ff" points="148.48,-32.37 158.05,-27.83 147.73,-25.41 148.48,-32.37"/>
</a>
</g>
</g>
<!-- Node3 -->
<g id="Node000003" class="node">
<title>Node3</title>
<g id="a_Node000003"><a xlink:href="classInterfaceSFML.html#a6be07281be6cedd2ea9dde170234630c" target="_top" xlink:title="Dessine la grille.">
<polygon fill="white" stroke="#666666" points="520.5,-108 374.75,-108 374.75,-88 520.5,-88 520.5,-108"/>
<text xml:space="preserve" text-anchor="middle" x="447.62" y="-94.5" font-family="Helvetica,sans-Serif" font-size="10.00">InterfaceSFML::dessinerGrille</text>
</a>
</g>
</g>
<!-- Node2&#45;&gt;Node3 -->
<g id="edge2_Node000002_Node000003" class="edge">
<title>Node2&#45;&gt;Node3</title>
<g id="a_edge2_Node000002_Node000003"><a xlink:title=" ">
<path fill="none" stroke="#63b8ff" d="M298.82,-70.48C323.69,-75.12 353.14,-80.6 379.18,-85.44"/>
<polygon fill="#63b8ff" stroke="#63b8ff" points="378.53,-88.88 389,-87.27 379.81,-82 378.53,-88.88"/>
</a>
</g>
</g>
<!-- Node10 -->
<g id="Node000010" class="node">
<title>Node10</title>
<g id="a_Node000010"><a xlink:href="classInterfaceSFML.html#a9b5a8e272d8dc3c033e09fde93ac4845" target="_top" xlink:title="Dessine les informations à l&#39;écran.">
<polygon fill="white" stroke="#666666" points="536.25,-70 359,-70 359,-50 536.25,-50 536.25,-70"/>
<text xml:space="preserve" text-anchor="middle" x="447.62" y="-56.5" font-family="Helvetica,sans-Serif" font-size="10.00">InterfaceSFML::dessinerInformations</text>
</a>
</g>
</g>
<!-- Node2&#45;&gt;Node10 -->
<g id="edge9_Node000002_Node000010" class="edge">
<title>Node2&#45;&gt;Node10</title>
<g id="a_edge9_Node000002_Node000010"><a xlink:title=" ">
<path fill="none" stroke="#63b8ff" d="M300.99,-60C315.5,-60 331.45,-60 347.31,-60"/>
<polygon fill="#63b8ff" stroke="#63b8ff" points="347.31,-63.5 357.31,-60 347.31,-56.5 347.31,-63.5"/>
</a>
</g>
</g>
<!-- Node4 -->
<g id="Node000004" class="node">
<title>Node4</title>
<g id="a_Node000004"><a xlink:href="classCellule.html#a4e34ac281afdba1d793fbd0239022a5e" target="_top" xlink:title="Vérifie si la cellule est un obstacle.">
<polygon fill="white" stroke="#666666" points="688.38,-178 583.88,-178 583.88,-158 688.38,-158 688.38,-178"/>
<text xml:space="preserve" text-anchor="middle" x="636.12" y="-164.5" font-family="Helvetica,sans-Serif" font-size="10.00">Cellule::estObstacle</text>
</a>
</g>
</g>
<!-- Node3&#45;&gt;Node4 -->
<g id="edge3_Node000003_Node000004" class="edge">
<title>Node3&#45;&gt;Node4</title>
<g id="a_edge3_Node000003_Node000004"><a xlink:title=" ">
<path fill="none" stroke="#63b8ff" d="M472.06,-108.47C496.73,-119.3 536.82,-136.37 572.25,-149 577.22,-150.77 582.46,-152.53 587.69,-154.21"/>
<polygon fill="#63b8ff" stroke="#63b8ff" points="586.32,-157.45 596.91,-157.1 588.41,-150.77 586.32,-157.45"/>
</a>
</g>
</g>
<!-- Node5 -->
<g id="Node000005" class="node">
<title>Node5</title>
<g id="a_Node000005"><a xlink:href="classCellule.html#a70d2731234961e330fe0a31486d1dec7" target="_top" xlink:title="Vérifie si la cellule est vivante.">
<polygon fill="white" stroke="#666666" points="685.38,-102 586.88,-102 586.88,-82 685.38,-82 685.38,-102"/>
<text xml:space="preserve" text-anchor="middle" x="636.12" y="-88.5" font-family="Helvetica,sans-Serif" font-size="10.00">Cellule::estVivante</text>
</a>
</g>
</g>
<!-- Node3&#45;&gt;Node5 -->
<g id="edge4_Node000003_Node000005" class="edge">
<title>Node3&#45;&gt;Node5</title>
<g id="a_edge4_Node000003_Node000005"><a xlink:title=" ">
<path fill="none" stroke="#63b8ff" d="M521,-95.67C538.97,-95.09 558.04,-94.48 575.33,-93.92"/>
<polygon fill="#63b8ff" stroke="#63b8ff" points="575.02,-97.44 584.9,-93.62 574.79,-90.44 575.02,-97.44"/>
</a>
</g>
</g>
<!-- Node6 -->
<g id="Node000006" class="node">
<title>Node6</title>
<g id="a_Node000006"><a xlink:href="classGrille.html#aab75610fe73ae48bd035a048c55832f0" target="_top" xlink:title="Obtient une cellule à une position donnée.">
<polygon fill="white" stroke="#666666" points="688,-140 584.25,-140 584.25,-120 688,-120 688,-140"/>
<text xml:space="preserve" text-anchor="middle" x="636.12" y="-126.5" font-family="Helvetica,sans-Serif" font-size="10.00">Grille::obtenirCellule</text>
</a>
</g>
</g>
<!-- Node3&#45;&gt;Node6 -->
<g id="edge5_Node000003_Node000006" class="edge">
<title>Node3&#45;&gt;Node6</title>
<g id="a_edge5_Node000003_Node000006"><a xlink:title=" ">
<path fill="none" stroke="#63b8ff" d="M509.69,-108.48C529.86,-111.94 552.31,-115.79 572.58,-119.27"/>
<polygon fill="#63b8ff" stroke="#63b8ff" points="571.97,-122.71 582.42,-120.96 573.15,-115.82 571.97,-122.71"/>
</a>
</g>
</g>
<!-- Node8 -->
<g id="Node000008" class="node">
<title>Node8</title>
<g id="a_Node000008"><a xlink:href="classGrille.html#a1ab5c8e0ea0d1dc21549c38d0f0f5cf9" target="_top" xlink:title="Obtient le nombre de colonnes.">
<polygon fill="white" stroke="#666666" points="700,-64 572.25,-64 572.25,-44 700,-44 700,-64"/>
<text xml:space="preserve" text-anchor="middle" x="636.12" y="-50.5" font-family="Helvetica,sans-Serif" font-size="10.00">Grille::obtenirNbColonnes</text>
</a>
</g>
</g>
<!-- Node3&#45;&gt;Node8 -->
<g id="edge7_Node000003_Node000008" class="edge">
<title>Node3&#45;&gt;Node8</title>
<g id="a_edge7_Node000003_Node000008"><a xlink:title=" ">
<path fill="none" stroke="#63b8ff" d="M498.28,-87.54C510.7,-84.84 523.98,-81.88 536.25,-79 551.92,-75.32 568.94,-71.1 584.36,-67.19"/>
<polygon fill="#63b8ff" stroke="#63b8ff" points="584.98,-70.64 593.8,-64.78 583.25,-63.86 584.98,-70.64"/>
</a>
</g>
</g>
<!-- Node9 -->
<g id="Node000009" class="node">
<title>Node9</title>
<g id="a_Node000009"><a xlink:href="classGrille.html#a96b5f98d212a0ee9e2f71d73ebe5bb91" target="_top" xlink:title="Obtient le nombre de lignes.">
<polygon fill="white" stroke="#666666" points="693.62,-26 578.62,-26 578.62,-6 693.62,-6 693.62,-26"/>
<text xml:space="preserve" text-anchor="middle" x="636.12" y="-12.5" font-family="Helvetica,sans-Serif" font-size="10.00">Grille::obtenirNbLignes</text>
</a>
</g>
</g>
<!-- Node3&#45;&gt;Node9 -->
<g id="edge8_Node000003_Node000009" class="edge">
<title>Node3&#45;&gt;Node9</title>
<g id="a_edge8_Node000003_Node000009"><a xlink:title=" ">
<path fill="none" stroke="#63b8ff" d="M518.26,-87.52C524.57,-85.22 530.67,-82.41 536.25,-79 557.8,-65.81 551.24,-49.04 572.25,-35 574.33,-33.61 576.51,-32.32 578.77,-31.12"/>
<polygon fill="#63b8ff" stroke="#63b8ff" points="580.01,-34.4 587.65,-27.06 577.1,-28.04 580.01,-34.4"/>
</a>
</g>
</g>
<!-- Node7 -->
<g id="Node000007" class="node">
<title>Node7</title>
<g id="a_Node000007"><a xlink:href="classGrille.html#aa4c9ce36bb4f2c59a83aeb39d73fc285" target="_top" xlink:title="Vérifie si une position est valide dans la grille.">
<polygon fill="white" stroke="#666666" points="855.5,-140 736,-140 736,-120 855.5,-120 855.5,-140"/>
<text xml:space="preserve" text-anchor="middle" x="795.75" y="-126.5" font-family="Helvetica,sans-Serif" font-size="10.00">Grille::estPositionValide</text>
</a>
</g>
</g>
<!-- Node6&#45;&gt;Node7 -->
<g id="edge6_Node000006_Node000007" class="edge">
<title>Node6&#45;&gt;Node7</title>
<g id="a_edge6_Node000006_Node000007"><a xlink:title=" ">
<path fill="none" stroke="#63b8ff" d="M688.3,-130C699.75,-130 712.08,-130 724.16,-130"/>
<polygon fill="#63b8ff" stroke="#63b8ff" points="724.1,-133.5 734.1,-130 724.1,-126.5 724.1,-133.5"/>
</a>
</g>
</g>
<!-- Node10&#45;&gt;Node5 -->
<g id="edge10_Node000010_Node000005" class="edge">
<title>Node10&#45;&gt;Node5</title>
<g id="a_edge10_Node000010_Node000005"><a xlink:title=" ">
<path fill="none" stroke="#63b8ff" d="M509.69,-70.48C530.85,-74.11 554.54,-78.17 575.57,-81.78"/>
<polygon fill="#63b8ff" stroke="#63b8ff" points="574.69,-85.18 585.14,-83.42 575.87,-78.28 574.69,-85.18"/>
</a>
</g>
</g>
<!-- Node10&#45;&gt;Node6 -->
<g id="edge11_Node000010_Node000006" class="edge">
<title>Node10&#45;&gt;Node6</title>
<g id="a_edge11_Node000010_Node000006"><a xlink:title=" ">
<path fill="none" stroke="#63b8ff" d="M514.51,-70.4C522.04,-72.72 529.45,-75.55 536.25,-79 555.34,-88.7 553.57,-100.55 572.25,-111 575.05,-112.57 577.99,-114.02 581.01,-115.36"/>
<polygon fill="#63b8ff" stroke="#63b8ff" points="579.5,-118.52 590.09,-118.96 582.08,-112.02 579.5,-118.52"/>
</a>
</g>
</g>
<!-- Node10&#45;&gt;Node8 -->
<g id="edge12_Node000010_Node000008" class="edge">
<title>Node10&#45;&gt;Node8</title>
<g id="a_edge12_Node000010_Node000008"><a xlink:title=" ">
<path fill="none" stroke="#63b8ff" d="M536.69,-57.17C544.67,-56.91 552.71,-56.65 560.56,-56.4"/>
<polygon fill="#63b8ff" stroke="#63b8ff" points="560.51,-59.9 570.39,-56.08 560.28,-52.91 560.51,-59.9"/>
</a>
</g>
</g>
<!-- Node10&#45;&gt;Node9 -->
<g id="edge13_Node000010_Node000009" class="edge">
<title>Node10&#45;&gt;Node9</title>
<g id="a_edge13_Node000010_Node000009"><a xlink:title=" ">
<path fill="none" stroke="#63b8ff" d="M498.28,-49.54C510.7,-46.84 523.98,-43.88 536.25,-41 551.92,-37.32 568.94,-33.1 584.36,-29.19"/>
<polygon fill="#63b8ff" stroke="#63b8ff" points="584.98,-32.64 593.8,-26.78 583.25,-25.86 584.98,-32.64"/>
</a>
</g>
</g>
<!-- Node12 -->
<g id="Node000012" class="node">
<title>Node12</title>
<g id="a_Node000012"><a xlink:href="classInterfaceSFML.html#af660192fb32e44dfbf073a9d4ec927be" target="_top" xlink:title="Gère les entrées clavier pour placer des motifs.">
<polygon fill="white" stroke="#666666" points="525,-32 370.25,-32 370.25,0 525,0 525,-32"/>
<text xml:space="preserve" text-anchor="start" x="378.25" y="-18.5" font-family="Helvetica,sans-Serif" font-size="10.00">InterfaceSFML::gererPlacement</text>
<text xml:space="preserve" text-anchor="middle" x="447.62" y="-6.5" font-family="Helvetica,sans-Serif" font-size="10.00">Motif</text>
</a>
</g>
</g>
<!-- Node11&#45;&gt;Node12 -->
<g id="edge15_Node000011_Node000012" class="edge">
<title>Node11&#45;&gt;Node12</title>
<g id="a_edge15_Node000011_Node000012"><a xlink:title=" ">
<path fill="none" stroke="#63b8ff" d="M323.47,-17.81C335.11,-17.64 347.13,-17.46 358.9,-17.29"/>
<polygon fill="#63b8ff" stroke="#63b8ff" points="358.61,-20.79 368.56,-17.15 358.51,-13.79 358.61,-20.79"/>
</a>
</g>
</g>
<!-- Node12&#45;&gt;Node8 -->
<g id="edge16_Node000012_Node000008" class="edge">
<title>Node12&#45;&gt;Node8</title>
<g id="a_edge16_Node000012_Node000008"><a xlink:title=" ">
<path fill="none" stroke="#63b8ff" d="M525.29,-31.62C541.13,-34.85 557.64,-38.21 572.9,-41.32"/>
<polygon fill="#63b8ff" stroke="#63b8ff" points="571.78,-44.66 582.27,-43.23 573.17,-37.81 571.78,-44.66"/>
</a>
</g>
</g>
<!-- Node12&#45;&gt;Node9 -->
<g id="edge17_Node000012_Node000009" class="edge">
<title>Node12&#45;&gt;Node9</title>
<g id="a_edge17_Node000012_Node000009"><a xlink:title=" ">
<path fill="none" stroke="#63b8ff" d="M525.29,-16C539.1,-16 553.42,-16 566.97,-16"/>
<polygon fill="#63b8ff" stroke="#63b8ff" points="566.63,-19.5 576.63,-16 566.63,-12.5 566.63,-19.5"/>
</a>
</g>
</g>
</g>
</svg>
