<?xml version="1.0" encoding="UTF-8" standalone="no"?>
<!DOCTYPE svg PUBLIC "-//W3C//DTD SVG 1.1//EN"
 "http://www.w3.org/Graphics/SVG/1.1/DTD/svg11.dtd">
<!-- Generated by graphviz version 14.0.2 (20251019.1705)
 -->
<!-- Title: Grille::obtenirNbLignes Pages: 1 -->
<svg width="1031pt" height="630pt"
 viewBox="0.00 0.00 1031.00 630.00" xmlns="http://www.w3.org/2000/svg" xmlns:xlink="http://www.w3.org/1999/xlink">
<g id="graph0" class="graph" transform="scale(1 1) rotate(0) translate(4 626.41)">
<title>Grille::obtenirNbLignes</title>
<!-- Node1 -->
<g id="Node000001" class="node">
<title>Node1</title>
<g id="a_Node000001"><a xlink:title="Obtient le nombre de lignes.">
<polygon fill="#999999" stroke="#666666" points="1023,-330 908,-330 908,-310 1023,-310 1023,-330"/>
<text xml:space="preserve" text-anchor="middle" x="965.5" y="-316.5" font-family="Helvetica,sans-Serif" font-size="10.00">Grille::obtenirNbLignes</text>
</a>
</g>
</g>
<!-- Node2 -->
<g id="Node000002" class="node">
<title>Node2</title>
<g id="a_Node000002"><a xlink:href="classModeConsole.html#ae77e7a8e7b14d611164441ecf12d3433" target="_top" xlink:title="Affiche la grille dans la console.">
<polygon fill="white" stroke="#666666" points="645.25,-610 509.25,-610 509.25,-590 645.25,-590 645.25,-610"/>
<text xml:space="preserve" text-anchor="middle" x="577.25" y="-596.5" font-family="Helvetica,sans-Serif" font-size="10.00">ModeConsole::afficherGrille</text>
</a>
</g>
</g>
<!-- Node1&#45;&gt;Node2 -->
<g id="edge1_Node000001_Node000002" class="edge">
<title>Node1&#45;&gt;Node2</title>
<g id="a_edge1_Node000001_Node000002"><a xlink:title=" ">
<path fill="none" stroke="#63b8ff" d="M964.25,-341.5C962.37,-392.75 949.77,-522.2 872,-581 798.32,-636.71 682.25,-623.22 620.37,-610.48"/>
<polygon fill="#63b8ff" stroke="#63b8ff" points="967.74,-341.85 964.49,-331.76 960.75,-341.67 967.74,-341.85"/>
</a>
</g>
</g>
<!-- Node5 -->
<g id="Node000005" class="node">
<title>Node5</title>
<g id="a_Node000005"><a xlink:href="classInterfaceQt.html#a21cb684077b7b7c71a3099520e43406f" target="_top" xlink:title="Calcule la taille des cellules.">
<polygon fill="white" stroke="#666666" points="846.88,-358 719.88,-358 719.88,-326 846.88,-326 846.88,-358"/>
<text xml:space="preserve" text-anchor="start" x="727.88" y="-344.5" font-family="Helvetica,sans-Serif" font-size="10.00">InterfaceQt::calculerTaille</text>
<text xml:space="preserve" text-anchor="middle" x="783.38" y="-332.5" font-family="Helvetica,sans-Serif" font-size="10.00">Cellule</text>
</a>
</g>
</g>
<!-- Node1&#45;&gt;Node5 -->
<g id="edge4_Node000001_Node000005" class="edge">
<title>Node1&#45;&gt;Node5</title>
<g id="a_edge4_Node000001_Node000005"><a xlink:title=" ">
<path fill="none" stroke="#63b8ff" d="M896.51,-328.3C880.34,-330.28 863.17,-332.38 847.25,-334.32"/>
<polygon fill="#63b8ff" stroke="#63b8ff" points="896.5,-331.83 906,-327.14 895.65,-324.88 896.5,-331.83"/>
</a>
</g>
</g>
<!-- Node6 -->
<g id="Node000006" class="node">
<title>Node6</title>
<g id="a_Node000006"><a xlink:href="classInterfaceQt.html#a814719cf92c437e1ea4d6a433f4c817b" target="_top" xlink:title="Dessine la grille (appelé par paintEvent de GrilleWidget).">
<polygon fill="white" stroke="#666666" points="642.25,-393 512.25,-393 512.25,-373 642.25,-373 642.25,-393"/>
<text xml:space="preserve" text-anchor="middle" x="577.25" y="-379.5" font-family="Helvetica,sans-Serif" font-size="10.00">InterfaceQt::dessinerGrille</text>
</a>
</g>
</g>
<!-- Node1&#45;&gt;Node6 -->
<g id="edge27_Node000001_Node000006" class="edge">
<title>Node1&#45;&gt;Node6</title>
<g id="a_edge27_Node000001_Node000006"><a xlink:title=" ">
<path fill="none" stroke="#63b8ff" d="M939.26,-336.46C921.29,-347.25 896.14,-360.52 872,-367 795.05,-387.66 702.8,-389.08 642.48,-387.04"/>
<polygon fill="#63b8ff" stroke="#63b8ff" points="941,-339.5 947.66,-331.26 937.32,-333.55 941,-339.5"/>
</a>
</g>
</g>
<!-- Node7 -->
<g id="Node000007" class="node">
<title>Node7</title>
<g id="a_Node000007"><a xlink:href="classInterfaceQt.html#a0eea8fab1e83d4b90961bd4241fc5689" target="_top" xlink:title="Constructeur de l&#39;interface Qt.">
<polygon fill="white" stroke="#666666" points="119.5,-248 0,-248 0,-228 119.5,-228 119.5,-248"/>
<text xml:space="preserve" text-anchor="middle" x="59.75" y="-234.5" font-family="Helvetica,sans-Serif" font-size="10.00">InterfaceQt::InterfaceQt</text>
</a>
</g>
</g>
<!-- Node1&#45;&gt;Node7 -->
<g id="edge39_Node000001_Node000007" class="edge">
<title>Node1&#45;&gt;Node7</title>
<g id="a_edge39_Node000001_Node000007"><a xlink:title=" ">
<path fill="none" stroke="#63b8ff" d="M896.48,-317.43C704.87,-310.15 173.35,-289.59 155.5,-285 125.8,-277.36 94.53,-259.69 76.37,-248.32"/>
<polygon fill="#63b8ff" stroke="#63b8ff" points="896.15,-320.92 906.28,-317.8 896.42,-313.93 896.15,-320.92"/>
</a>
</g>
</g>
<!-- Node8 -->
<g id="Node000008" class="node">
<title>Node8</title>
<g id="a_Node000008"><a xlink:href="classInterfaceSFML.html#a0d632238c209cf64ab1a27685fe77384" target="_top" xlink:title="Calcule la taille optimale des cellules.">
<polygon fill="white" stroke="#666666" points="854.75,-82 712,-82 712,-50 854.75,-50 854.75,-82"/>
<text xml:space="preserve" text-anchor="start" x="720" y="-68.5" font-family="Helvetica,sans-Serif" font-size="10.00">InterfaceSFML::calculerTaille</text>
<text xml:space="preserve" text-anchor="middle" x="783.38" y="-56.5" font-family="Helvetica,sans-Serif" font-size="10.00">Cellule</text>
</a>
</g>
</g>
<!-- Node1&#45;&gt;Node8 -->
<g id="edge7_Node000001_Node000008" class="edge">
<title>Node1&#45;&gt;Node8</title>
<g id="a_edge7_Node000001_Node000008"><a xlink:title=" ">
<path fill="none" stroke="#63b8ff" d="M961.56,-298.26C954.42,-253.92 932.13,-152.52 872,-96 866.14,-90.49 859.23,-85.99 851.9,-82.32"/>
<polygon fill="#63b8ff" stroke="#63b8ff" points="958.09,-298.75 963.02,-308.12 965.01,-297.71 958.09,-298.75"/>
</a>
</g>
</g>
<!-- Node9 -->
<g id="Node000009" class="node">
<title>Node9</title>
<g id="a_Node000009"><a xlink:href="classInterfaceSFML.html#aeacec8b2d51f4c6bb1ae7d45aa90aaf7" target="_top" xlink:title="Constructeur de l&#39;interface graphique SFML.">
<polygon fill="white" stroke="#666666" points="652.75,-95 501.75,-95 501.75,-75 652.75,-75 652.75,-95"/>
<text xml:space="preserve" text-anchor="middle" x="577.25" y="-81.5" font-family="Helvetica,sans-Serif" font-size="10.00">InterfaceSFML::InterfaceSFML</text>
</a>
</g>
</g>
<!-- Node1&#45;&gt;Node9 -->
<g id="edge40_Node000001_Node000009" class="edge">
<title>Node1&#45;&gt;Node9</title>
<g id="a_edge40_Node000001_Node000009"><a xlink:title=" ">
<path fill="none" stroke="#63b8ff" d="M960.51,-298.79C951.91,-259.4 927.71,-175.24 872,-134 838.13,-108.93 728.3,-95.92 652.98,-89.77"/>
<polygon fill="#63b8ff" stroke="#63b8ff" points="957.04,-299.31 962.47,-308.41 963.9,-297.91 957.04,-299.31"/>
</a>
</g>
</g>
<!-- Node10 -->
<g id="Node000010" class="node">
<title>Node10</title>
<g id="a_Node000010"><a xlink:href="classInterfaceQt.html#abe5b2e247e50614efbf88402c774899c" target="_top" xlink:title="Compte les cellules vivantes.">
<polygon fill="white" stroke="#666666" points="854,-224 712.75,-224 712.75,-192 854,-192 854,-224"/>
<text xml:space="preserve" text-anchor="start" x="720.75" y="-210.5" font-family="Helvetica,sans-Serif" font-size="10.00">InterfaceQt::compterCellules</text>
<text xml:space="preserve" text-anchor="middle" x="783.38" y="-198.5" font-family="Helvetica,sans-Serif" font-size="10.00">Vivantes</text>
</a>
</g>
</g>
<!-- Node1&#45;&gt;Node10 -->
<g id="edge9_Node000001_Node000010" class="edge">
<title>Node1&#45;&gt;Node10</title>
<g id="a_edge9_Node000001_Node000010"><a xlink:title=" ">
<path fill="none" stroke="#63b8ff" d="M945.12,-301.94C927.14,-285.84 899.16,-262.35 872,-246 858.36,-237.79 842.63,-230.39 828.29,-224.35"/>
<polygon fill="#63b8ff" stroke="#63b8ff" points="942.67,-304.45 952.43,-308.59 947.39,-299.27 942.67,-304.45"/>
</a>
</g>
</g>
<!-- Node12 -->
<g id="Node000012" class="node">
<title>Node12</title>
<g id="a_Node000012"><a xlink:href="classInterfaceQt.html#a280bb380e08e13ec39b8dca2ae917950" target="_top" xlink:title="Place un motif.">
<polygon fill="white" stroke="#666666" points="459.75,-39 329,-39 329,-19 459.75,-19 459.75,-39"/>
<text xml:space="preserve" text-anchor="middle" x="394.38" y="-25.5" font-family="Helvetica,sans-Serif" font-size="10.00">InterfaceQt::onPlacerMotif</text>
</a>
</g>
</g>
<!-- Node1&#45;&gt;Node12 -->
<g id="edge41_Node000001_Node000012" class="edge">
<title>Node1&#45;&gt;Node12</title>
<g id="a_edge41_Node000001_Node000012"><a xlink:title=" ">
<path fill="none" stroke="#63b8ff" d="M956.6,-299.47C943.74,-268.95 915.29,-212.11 872,-183 730.2,-87.66 636.46,-200.93 495.75,-104 471.38,-87.21 483.43,-65.75 459.75,-48 455.18,-44.58 450,-41.77 444.62,-39.46"/>
<polygon fill="#63b8ff" stroke="#63b8ff" points="953.2,-300.4 960.19,-308.36 959.69,-297.78 953.2,-300.4"/>
</a>
</g>
</g>
<!-- Node19 -->
<g id="Node000019" class="node">
<title>Node19</title>
<g id="a_Node000019"><a xlink:href="classRegleTorique.html#a5f15a29a47c045ccd89a64c72de030e1" target="_top" xlink:title="Compte le nombre de voisins vivants.">
<polygon fill="white" stroke="#666666" points="856.25,-32 710.5,-32 710.5,0 856.25,0 856.25,-32"/>
<text xml:space="preserve" text-anchor="start" x="718.5" y="-18.5" font-family="Helvetica,sans-Serif" font-size="10.00">RegleTorique::compterVoisins</text>
<text xml:space="preserve" text-anchor="middle" x="783.38" y="-6.5" font-family="Helvetica,sans-Serif" font-size="10.00">Vivants</text>
</a>
</g>
</g>
<!-- Node1&#45;&gt;Node19 -->
<g id="edge25_Node000001_Node000019" class="edge">
<title>Node1&#45;&gt;Node19</title>
<g id="a_edge25_Node000001_Node000019"><a xlink:title=" ">
<path fill="none" stroke="#63b8ff" d="M963.86,-298.15C961.1,-245.87 946.71,-112.62 872,-41 867.43,-36.62 862.15,-33 856.49,-30.01"/>
<polygon fill="#63b8ff" stroke="#63b8ff" points="960.36,-298.25 964.27,-308.1 967.35,-297.96 960.36,-298.25"/>
</a>
</g>
</g>
<!-- Node21 -->
<g id="Node000021" class="node">
<title>Node21</title>
<g id="a_Node000021"><a xlink:href="classInterfaceSFML.html#a6be07281be6cedd2ea9dde170234630c" target="_top" xlink:title="Dessine la grille.">
<polygon fill="white" stroke="#666666" points="856.25,-522 710.5,-522 710.5,-502 856.25,-502 856.25,-522"/>
<text xml:space="preserve" text-anchor="middle" x="783.38" y="-508.5" font-family="Helvetica,sans-Serif" font-size="10.00">InterfaceSFML::dessinerGrille</text>
</a>
</g>
</g>
<!-- Node1&#45;&gt;Node21 -->
<g id="edge28_Node000001_Node000021" class="edge">
<title>Node1&#45;&gt;Node21</title>
<g id="a_edge28_Node000001_Node000021"><a xlink:title=" ">
<path fill="none" stroke="#63b8ff" d="M959.46,-341.04C949.47,-377.95 923.53,-454.1 872,-493 867.28,-496.56 862.03,-499.49 856.51,-501.89"/>
<polygon fill="#63b8ff" stroke="#63b8ff" points="962.78,-342.17 961.87,-331.61 956,-340.43 962.78,-342.17"/>
</a>
</g>
</g>
<!-- Node24 -->
<g id="Node000024" class="node">
<title>Node24</title>
<g id="a_Node000024"><a xlink:href="classInterfaceSFML.html#a9b5a8e272d8dc3c033e09fde93ac4845" target="_top" xlink:title="Dessine les informations à l&#39;écran.">
<polygon fill="white" stroke="#666666" points="872,-484 694.75,-484 694.75,-464 872,-464 872,-484"/>
<text xml:space="preserve" text-anchor="middle" x="783.38" y="-470.5" font-family="Helvetica,sans-Serif" font-size="10.00">InterfaceSFML::dessinerInformations</text>
</a>
</g>
</g>
<!-- Node1&#45;&gt;Node24 -->
<g id="edge32_Node000001_Node000024" class="edge">
<title>Node1&#45;&gt;Node24</title>
<g id="a_edge32_Node000001_Node000024"><a xlink:title=" ">
<path fill="none" stroke="#63b8ff" d="M956.13,-341.04C942.96,-371.26 914.47,-426.46 872,-455 866.83,-458.47 861.14,-461.33 855.21,-463.67"/>
<polygon fill="#63b8ff" stroke="#63b8ff" points="959.34,-342.42 959.97,-331.84 952.88,-339.72 959.34,-342.42"/>
</a>
</g>
</g>
<!-- Node25 -->
<g id="Node000025" class="node">
<title>Node25</title>
<g id="a_Node000025"><a xlink:href="classInterfaceSFML.html#af660192fb32e44dfbf073a9d4ec927be" target="_top" xlink:title="Gère les entrées clavier pour placer des motifs.">
<polygon fill="white" stroke="#666666" points="860.75,-446 706,-446 706,-414 860.75,-414 860.75,-446"/>
<text xml:space="preserve" text-anchor="start" x="714" y="-432.5" font-family="Helvetica,sans-Serif" font-size="10.00">InterfaceSFML::gererPlacement</text>
<text xml:space="preserve" text-anchor="middle" x="783.38" y="-420.5" font-family="Helvetica,sans-Serif" font-size="10.00">Motif</text>
</a>
</g>
</g>
<!-- Node1&#45;&gt;Node25 -->
<g id="edge34_Node000001_Node000025" class="edge">
<title>Node1&#45;&gt;Node25</title>
<g id="a_edge34_Node000001_Node000025"><a xlink:title=" ">
<path fill="none" stroke="#63b8ff" d="M947.61,-338.23C930.17,-356.11 901.43,-383.09 872,-400 862.94,-405.21 852.83,-409.7 842.79,-413.51"/>
<polygon fill="#63b8ff" stroke="#63b8ff" points="949.79,-341 954.17,-331.36 944.73,-336.17 949.79,-341"/>
</a>
</g>
</g>
<!-- Node27 -->
<g id="Node000027" class="node">
<title>Node27</title>
<g id="a_Node000027"><a xlink:href="classInterfaceQt.html#a47b4ef06b65286c8b1d34ce2687adbce" target="_top" xlink:title="Initialise la mise en page.">
<polygon fill="white" stroke="#666666" points="278.75,-276 169.75,-276 169.75,-244 278.75,-244 278.75,-276"/>
<text xml:space="preserve" text-anchor="start" x="177.75" y="-262.5" font-family="Helvetica,sans-Serif" font-size="10.00">InterfaceQt::initialiser</text>
<text xml:space="preserve" text-anchor="middle" x="224.25" y="-250.5" font-family="Helvetica,sans-Serif" font-size="10.00">Layout</text>
</a>
</g>
</g>
<!-- Node1&#45;&gt;Node27 -->
<g id="edge37_Node000001_Node000027" class="edge">
<title>Node1&#45;&gt;Node27</title>
<g id="a_edge37_Node000001_Node000027"><a xlink:title=" ">
<path fill="none" stroke="#63b8ff" d="M933.56,-304.96C915.96,-297.17 893.24,-288.4 872,-284 656.07,-239.3 391.12,-249.03 279.21,-256.01"/>
<polygon fill="#63b8ff" stroke="#63b8ff" points="931.88,-308.04 942.43,-309 934.78,-301.67 931.88,-308.04"/>
</a>
</g>
</g>
<!-- Node28 -->
<g id="Node000028" class="node">
<title>Node28</title>
<g id="a_Node000028"><a xlink:href="classGestionnaireFichier.html#a7f617aede460be3b06c7dd842d7e2732" target="_top" xlink:title="Sauvegarde une grille dans un fichier.">
<polygon fill="white" stroke="#666666" points="833.38,-572 733.38,-572 733.38,-540 833.38,-540 833.38,-572"/>
<text xml:space="preserve" text-anchor="start" x="741.38" y="-558.5" font-family="Helvetica,sans-Serif" font-size="10.00">GestionnaireFichier</text>
<text xml:space="preserve" text-anchor="middle" x="783.38" y="-546.5" font-family="Helvetica,sans-Serif" font-size="10.00">::sauvegarderGrille</text>
</a>
</g>
</g>
<!-- Node1&#45;&gt;Node28 -->
<g id="edge42_Node000001_Node000028" class="edge">
<title>Node1&#45;&gt;Node28</title>
<g id="a_edge42_Node000001_Node000028"><a xlink:title=" ">
<path fill="none" stroke="#63b8ff" d="M961.28,-341.32C953.73,-383.87 930.83,-479.63 872,-531 861.28,-540.36 847.26,-546.23 833.6,-549.91"/>
<polygon fill="#63b8ff" stroke="#63b8ff" points="964.71,-342.08 962.88,-331.64 957.8,-340.94 964.71,-342.08"/>
</a>
</g>
</g>
<!-- Node3 -->
<g id="Node000003" class="node">
<title>Node3</title>
<g id="a_Node000003"><a xlink:href="classModeConsole.html#a79ad19df6d20c391fbaf9a7b4fb2f350" target="_top" xlink:title="Exécute le mode console.">
<polygon fill="white" stroke="#666666" points="454.12,-566 334.62,-566 334.62,-546 454.12,-546 454.12,-566"/>
<text xml:space="preserve" text-anchor="middle" x="394.38" y="-552.5" font-family="Helvetica,sans-Serif" font-size="10.00">ModeConsole::executer</text>
</a>
</g>
</g>
<!-- Node2&#45;&gt;Node3 -->
<g id="edge2_Node000002_Node000003" class="edge">
<title>Node2&#45;&gt;Node3</title>
<g id="a_edge2_Node000002_Node000003"><a xlink:title=" ">
<path fill="none" stroke="#63b8ff" d="M520.39,-586.91C512.13,-584.95 503.71,-582.93 495.75,-581 476.38,-576.3 454.93,-570.98 436.86,-566.45"/>
<polygon fill="#63b8ff" stroke="#63b8ff" points="519.51,-590.3 530.04,-589.2 521.12,-583.49 519.51,-590.3"/>
</a>
</g>
</g>
<!-- Node4 -->
<g id="Node000004" class="node">
<title>Node4</title>
<g id="a_Node000004"><a xlink:href="main_8cpp.html#a0ddf1224851353fc92bfbff6f499fa97" target="_top" xlink:title="Point d&#39;entrée du programme.">
<polygon fill="white" stroke="#666666" points="242.75,-538 205.75,-538 205.75,-518 242.75,-518 242.75,-538"/>
<text xml:space="preserve" text-anchor="middle" x="224.25" y="-524.5" font-family="Helvetica,sans-Serif" font-size="10.00">main</text>
</a>
</g>
</g>
<!-- Node3&#45;&gt;Node4 -->
<g id="edge3_Node000003_Node000004" class="edge">
<title>Node3&#45;&gt;Node4</title>
<g id="a_edge3_Node000003_Node000004"><a xlink:title=" ">
<path fill="none" stroke="#63b8ff" d="M323.45,-544.35C294.05,-539.46 262.28,-534.17 243.07,-530.97"/>
<polygon fill="#63b8ff" stroke="#63b8ff" points="322.64,-547.77 333.08,-545.96 323.79,-540.86 322.64,-547.77"/>
</a>
</g>
</g>
<!-- Node5&#45;&gt;Node6 -->
<g id="edge5_Node000005_Node000006" class="edge">
<title>Node5&#45;&gt;Node6</title>
<g id="a_edge5_Node000005_Node000006"><a xlink:title=" ">
<path fill="none" stroke="#63b8ff" d="M708.19,-356.9C682.37,-362.09 653.97,-367.79 630.32,-372.54"/>
<polygon fill="#63b8ff" stroke="#63b8ff" points="708.87,-360.33 717.98,-354.93 707.49,-353.47 708.87,-360.33"/>
</a>
</g>
</g>
<!-- Node5&#45;&gt;Node7 -->
<g id="edge6_Node000005_Node000007" class="edge">
<title>Node5&#45;&gt;Node7</title>
<g id="a_edge6_Node000005_Node000007"><a xlink:title=" ">
<path fill="none" stroke="#63b8ff" d="M708.28,-345.14C564.76,-350.24 254.25,-356.27 155.5,-318 117.36,-303.22 83.64,-266.31 68.79,-248.26"/>
<polygon fill="#63b8ff" stroke="#63b8ff" points="708.19,-348.64 718.06,-344.78 707.94,-341.65 708.19,-348.64"/>
</a>
</g>
</g>
<!-- Node8&#45;&gt;Node9 -->
<g id="edge8_Node000008_Node000009" class="edge">
<title>Node8&#45;&gt;Node9</title>
<g id="a_edge8_Node000008_Node000009"><a xlink:title=" ">
<path fill="none" stroke="#63b8ff" d="M700.33,-73.64C684.73,-75.09 668.48,-76.6 653.11,-78.03"/>
<polygon fill="#63b8ff" stroke="#63b8ff" points="700.42,-77.14 710.05,-72.73 699.77,-70.17 700.42,-77.14"/>
</a>
</g>
</g>
<!-- Node11 -->
<g id="Node000011" class="node">
<title>Node11</title>
<g id="a_Node000011"><a xlink:href="classInterfaceQt.html#a06b809d43dbf3814ab103a8d42de319a" target="_top" xlink:title="Met à jour l&#39;affichage.">
<polygon fill="white" stroke="#666666" points="639.25,-201 515.25,-201 515.25,-169 639.25,-169 639.25,-201"/>
<text xml:space="preserve" text-anchor="start" x="523.25" y="-187.5" font-family="Helvetica,sans-Serif" font-size="10.00">InterfaceQt::mettreAJour</text>
<text xml:space="preserve" text-anchor="middle" x="577.25" y="-175.5" font-family="Helvetica,sans-Serif" font-size="10.00">Affichage</text>
</a>
</g>
</g>
<!-- Node10&#45;&gt;Node11 -->
<g id="edge10_Node000010_Node000011" class="edge">
<title>Node10&#45;&gt;Node11</title>
<g id="a_edge10_Node000010_Node000011"><a xlink:title=" ">
<path fill="none" stroke="#63b8ff" d="M701.16,-198.85C680.64,-196.54 658.95,-194.09 639.59,-191.91"/>
<polygon fill="#63b8ff" stroke="#63b8ff" points="700.58,-202.31 710.91,-199.95 701.36,-195.35 700.58,-202.31"/>
</a>
</g>
</g>
<!-- Node11&#45;&gt;Node7 -->
<g id="edge11_Node000011_Node000007" class="edge">
<title>Node11&#45;&gt;Node7</title>
<g id="a_edge11_Node000011_Node000007"><a xlink:title=" ">
<path fill="none" stroke="#63b8ff" d="M503.63,-192.47C400.77,-203.04 214.64,-222.18 119.78,-231.93"/>
<polygon fill="#63b8ff" stroke="#63b8ff" points="503.74,-195.97 513.33,-191.47 503.02,-189.01 503.74,-195.97"/>
</a>
</g>
</g>
<!-- Node11&#45;&gt;Node12 -->
<g id="edge12_Node000011_Node000012" class="edge">
<title>Node11&#45;&gt;Node12</title>
<g id="a_edge12_Node000011_Node000012"><a xlink:title=" ">
<path fill="none" stroke="#63b8ff" d="M505.4,-163.18C501.92,-160.73 498.67,-158.02 495.75,-155 460.85,-118.95 495.89,-82.81 459.75,-48 456.14,-44.52 451.93,-41.68 447.42,-39.35"/>
<polygon fill="#63b8ff" stroke="#63b8ff" points="503.39,-166.05 513.75,-168.25 507.02,-160.07 503.39,-166.05"/>
</a>
</g>
</g>
<!-- Node14 -->
<g id="Node000014" class="node">
<title>Node14</title>
<g id="a_Node000014"><a xlink:href="classInterfaceQt.html#af564176618a18f272b92be6bfd9d029d" target="_top" xlink:title="Réinitialise la simulation.">
<polygon fill="white" stroke="#666666" points="448.12,-77 340.62,-77 340.62,-57 448.12,-57 448.12,-77"/>
<text xml:space="preserve" text-anchor="middle" x="394.38" y="-63.5" font-family="Helvetica,sans-Serif" font-size="10.00">InterfaceQt::onReset</text>
</a>
</g>
</g>
<!-- Node11&#45;&gt;Node14 -->
<g id="edge15_Node000011_Node000014" class="edge">
<title>Node11&#45;&gt;Node14</title>
<g id="a_edge15_Node000011_Node000014"><a xlink:title=" ">
<path fill="none" stroke="#63b8ff" d="M506.68,-163.08C502.8,-160.65 499.11,-157.97 495.75,-155 469.82,-132.11 486.46,-107.98 459.75,-86 455.52,-82.52 450.67,-79.68 445.58,-77.36"/>
<polygon fill="#63b8ff" stroke="#63b8ff" points="504.9,-166.1 515.35,-167.87 508.29,-159.97 504.9,-166.1"/>
</a>
</g>
</g>
<!-- Node15 -->
<g id="Node000015" class="node">
<title>Node15</title>
<g id="a_Node000015"><a xlink:href="classInterfaceQt.html#a1c1b614c51a456e7b5f407724df14f38" target="_top" xlink:title="Avance d&#39;une itération.">
<polygon fill="white" stroke="#666666" points="445.12,-115 343.62,-115 343.62,-95 445.12,-95 445.12,-115"/>
<text xml:space="preserve" text-anchor="middle" x="394.38" y="-101.5" font-family="Helvetica,sans-Serif" font-size="10.00">InterfaceQt::onStep</text>
</a>
</g>
</g>
<!-- Node11&#45;&gt;Node15 -->
<g id="edge17_Node000011_Node000015" class="edge">
<title>Node11&#45;&gt;Node15</title>
<g id="a_edge17_Node000011_Node000015"><a xlink:title=" ">
<path fill="none" stroke="#63b8ff" d="M513.5,-164.14C507.36,-161.36 501.34,-158.31 495.75,-155 477.57,-144.26 478.29,-134.1 459.75,-124 453.61,-120.65 446.81,-117.83 440,-115.47"/>
<polygon fill="#63b8ff" stroke="#63b8ff" points="511.93,-167.28 522.51,-167.98 514.68,-160.84 511.93,-167.28"/>
</a>
</g>
</g>
<!-- Node17 -->
<g id="Node000017" class="node">
<title>Node17</title>
<g id="a_Node000017"><a xlink:href="classInterfaceQt.html#abe7956e622104a15a5de0b3f8c84921d" target="_top" xlink:title="Recule d&#39;une itération.">
<polygon fill="white" stroke="#666666" points="456.38,-153 332.38,-153 332.38,-133 456.38,-133 456.38,-153"/>
<text xml:space="preserve" text-anchor="middle" x="394.38" y="-139.5" font-family="Helvetica,sans-Serif" font-size="10.00">InterfaceQt::onStepBack</text>
</a>
</g>
</g>
<!-- Node11&#45;&gt;Node17 -->
<g id="edge20_Node000011_Node000017" class="edge">
<title>Node11&#45;&gt;Node17</title>
<g id="a_edge20_Node000011_Node000017"><a xlink:title=" ">
<path fill="none" stroke="#63b8ff" d="M503.73,-168.16C482.33,-163.19 459.54,-157.9 440.41,-153.46"/>
<polygon fill="#63b8ff" stroke="#63b8ff" points="502.75,-171.53 513.29,-170.38 504.34,-164.71 502.75,-171.53"/>
</a>
</g>
</g>
<!-- Node18 -->
<g id="Node000018" class="node">
<title>Node18</title>
<g id="a_Node000018"><a xlink:href="classInterfaceQt.html#abe1c50d3e3b80f6adecb9bf0cb9fca4c" target="_top" xlink:title="Mise à jour automatique (timer).">
<polygon fill="white" stroke="#666666" points="286.62,-188 161.88,-188 161.88,-168 286.62,-168 286.62,-188"/>
<text xml:space="preserve" text-anchor="middle" x="224.25" y="-174.5" font-family="Helvetica,sans-Serif" font-size="10.00">InterfaceQt::onTimerTick</text>
</a>
</g>
</g>
<!-- Node11&#45;&gt;Node18 -->
<g id="edge23_Node000011_Node000018" class="edge">
<title>Node11&#45;&gt;Node18</title>
<g id="a_edge23_Node000011_Node000018"><a xlink:title=" ">
<path fill="none" stroke="#63b8ff" d="M503.9,-183.56C439.87,-182.28 347.44,-180.44 286.87,-179.23"/>
<polygon fill="#63b8ff" stroke="#63b8ff" points="503.53,-187.05 513.6,-183.75 503.67,-180.05 503.53,-187.05"/>
</a>
</g>
</g>
<!-- Node13 -->
<g id="Node000013" class="node">
<title>Node13</title>
<g id="a_Node000013"><a xlink:href="classInterfaceQt.html#a08632443206d676198dfd1f7492e7437" target="_top" xlink:title="Initialise les widgets.">
<polygon fill="white" stroke="#666666" points="278.75,-112 169.75,-112 169.75,-80 278.75,-80 278.75,-112"/>
<text xml:space="preserve" text-anchor="start" x="177.75" y="-98.5" font-family="Helvetica,sans-Serif" font-size="10.00">InterfaceQt::initialiser</text>
<text xml:space="preserve" text-anchor="middle" x="224.25" y="-86.5" font-family="Helvetica,sans-Serif" font-size="10.00">Widgets</text>
</a>
</g>
</g>
<!-- Node12&#45;&gt;Node13 -->
<g id="edge13_Node000012_Node000013" class="edge">
<title>Node12&#45;&gt;Node13</title>
<g id="a_edge13_Node000012_Node000013"><a xlink:title=" ">
<path fill="none" stroke="#63b8ff" d="M343.7,-42.86C338.7,-44.5 333.73,-46.22 329,-48 304.48,-57.23 277.67,-69.71 257.44,-79.62"/>
<polygon fill="#63b8ff" stroke="#63b8ff" points="344.67,-46.23 353.16,-39.9 342.57,-39.55 344.67,-46.23"/>
</a>
</g>
</g>
<!-- Node13&#45;&gt;Node7 -->
<g id="edge14_Node000013_Node000007" class="edge">
<title>Node13&#45;&gt;Node7</title>
<g id="a_edge14_Node000013_Node000007"><a xlink:title=" ">
<path fill="none" stroke="#63b8ff" d="M160.28,-117.81C158.64,-118.83 157.04,-119.9 155.5,-121 113.22,-151.3 79.42,-205.19 66.46,-227.69"/>
<polygon fill="#63b8ff" stroke="#63b8ff" points="161.65,-121.05 168.72,-113.16 158.27,-114.92 161.65,-121.05"/>
</a>
</g>
</g>
<!-- Node14&#45;&gt;Node13 -->
<g id="edge16_Node000014_Node000013" class="edge">
<title>Node14&#45;&gt;Node13</title>
<g id="a_edge16_Node000014_Node000013"><a xlink:title=" ">
<path fill="none" stroke="#63b8ff" d="M328.96,-78.11C312.45,-80.96 294.87,-83.99 278.97,-86.73"/>
<polygon fill="#63b8ff" stroke="#63b8ff" points="329.43,-81.58 338.69,-76.43 328.24,-74.68 329.43,-81.58"/>
</a>
</g>
</g>
<!-- Node15&#45;&gt;Node13 -->
<g id="edge18_Node000015_Node000013" class="edge">
<title>Node15&#45;&gt;Node13</title>
<g id="a_edge18_Node000015_Node000013"><a xlink:title=" ">
<path fill="none" stroke="#63b8ff" d="M332.21,-101.73C314.84,-100.8 296.05,-99.79 279.15,-98.89"/>
<polygon fill="#63b8ff" stroke="#63b8ff" points="331.7,-105.2 341.88,-102.24 332.08,-98.21 331.7,-105.2"/>
</a>
</g>
</g>
<!-- Node16 -->
<g id="Node000016" class="node">
<title>Node16</title>
<g id="a_Node000016"><a xlink:href="classInterfaceQt.html#a11edcee9206379725a8e97e68a100e80" target="_top" xlink:title="Gestion des événements clavier.">
<polygon fill="white" stroke="#666666" points="293,-150 155.5,-150 155.5,-130 293,-130 293,-150"/>
<text xml:space="preserve" text-anchor="middle" x="224.25" y="-136.5" font-family="Helvetica,sans-Serif" font-size="10.00">InterfaceQt::keyPressEvent</text>
</a>
</g>
</g>
<!-- Node15&#45;&gt;Node16 -->
<g id="edge19_Node000015_Node000016" class="edge">
<title>Node15&#45;&gt;Node16</title>
<g id="a_edge19_Node000015_Node000016"><a xlink:title=" ">
<path fill="none" stroke="#63b8ff" d="M332.34,-117.71C313.72,-121.58 293.46,-125.8 275.63,-129.51"/>
<polygon fill="#63b8ff" stroke="#63b8ff" points="332.83,-121.18 341.91,-115.71 331.4,-114.33 332.83,-121.18"/>
</a>
</g>
</g>
<!-- Node17&#45;&gt;Node13 -->
<g id="edge21_Node000017_Node000013" class="edge">
<title>Node17&#45;&gt;Node13</title>
<g id="a_edge21_Node000017_Node000013"><a xlink:title=" ">
<path fill="none" stroke="#63b8ff" d="M345.01,-129.48C324.38,-123.71 300.23,-116.96 279.05,-111.04"/>
<polygon fill="#63b8ff" stroke="#63b8ff" points="344.03,-132.84 354.6,-132.16 345.92,-126.1 344.03,-132.84"/>
</a>
</g>
</g>
<!-- Node17&#45;&gt;Node16 -->
<g id="edge22_Node000017_Node000016" class="edge">
<title>Node17&#45;&gt;Node16</title>
<g id="a_edge22_Node000017_Node000016"><a xlink:title=" ">
<path fill="none" stroke="#63b8ff" d="M320.83,-141.71C311.76,-141.54 302.5,-141.38 293.49,-141.22"/>
<polygon fill="#63b8ff" stroke="#63b8ff" points="320.63,-145.2 330.69,-141.88 320.75,-138.2 320.63,-145.2"/>
</a>
</g>
</g>
<!-- Node18&#45;&gt;Node7 -->
<g id="edge24_Node000018_Node000007" class="edge">
<title>Node18&#45;&gt;Node7</title>
<g id="a_edge24_Node000018_Node000007"><a xlink:title=" ">
<path fill="none" stroke="#63b8ff" d="M182.59,-192.24C173.65,-195.41 164.24,-198.79 155.5,-202 132.54,-210.43 106.58,-220.32 87.64,-227.6"/>
<polygon fill="#63b8ff" stroke="#63b8ff" points="183.49,-195.63 191.75,-188.99 181.16,-189.03 183.49,-195.63"/>
</a>
</g>
</g>
<!-- Node20 -->
<g id="Node000020" class="node">
<title>Node20</title>
<g id="a_Node000020"><a xlink:href="classRegleTorique.html#aea2f956fa0b75f4a8d9919f4a36e9eee" target="_top" xlink:title="Calcule le nouvel état d&#39;une cellule selon les règles du jeu.">
<polygon fill="white" stroke="#666666" points="658,-26 496.5,-26 496.5,-6 658,-6 658,-26"/>
<text xml:space="preserve" text-anchor="middle" x="577.25" y="-12.5" font-family="Helvetica,sans-Serif" font-size="10.00">RegleTorique::calculerNouvelEtat</text>
</a>
</g>
</g>
<!-- Node19&#45;&gt;Node20 -->
<g id="edge26_Node000019_Node000020" class="edge">
<title>Node19&#45;&gt;Node20</title>
<g id="a_edge26_Node000019_Node000020"><a xlink:title=" ">
<path fill="none" stroke="#63b8ff" d="M698.99,-16C685.58,-16 671.73,-16 658.4,-16"/>
<polygon fill="#63b8ff" stroke="#63b8ff" points="698.61,-19.5 708.61,-16 698.61,-12.5 698.61,-19.5"/>
</a>
</g>
</g>
<!-- Node22 -->
<g id="Node000022" class="node">
<title>Node22</title>
<g id="a_Node000022"><a xlink:href="classInterfaceSFML.html#aa50033cc2b996da556fdebca5db2c7ef" target="_top" xlink:title="Met à jour l&#39;affichage.">
<polygon fill="white" stroke="#666666" points="636.25,-511 518.25,-511 518.25,-491 636.25,-491 636.25,-511"/>
<text xml:space="preserve" text-anchor="middle" x="577.25" y="-497.5" font-family="Helvetica,sans-Serif" font-size="10.00">InterfaceSFML::afficher</text>
</a>
</g>
</g>
<!-- Node21&#45;&gt;Node22 -->
<g id="edge29_Node000021_Node000022" class="edge">
<title>Node21&#45;&gt;Node22</title>
<g id="a_edge29_Node000021_Node000022"><a xlink:title=" ">
<path fill="none" stroke="#63b8ff" d="M698.68,-507.49C677.84,-506.37 655.95,-505.19 636.63,-504.15"/>
<polygon fill="#63b8ff" stroke="#63b8ff" points="698.44,-510.98 708.61,-508.02 698.81,-503.99 698.44,-510.98"/>
</a>
</g>
</g>
<!-- Node23 -->
<g id="Node000023" class="node">
<title>Node23</title>
<g id="a_Node000023"><a xlink:href="classInterfaceSFML.html#a518c46fbb99e76a49149d03b900b6cdc" target="_top" xlink:title="Lance la boucle principale de l&#39;interface graphique.">
<polygon fill="white" stroke="#666666" points="456.38,-511 332.38,-511 332.38,-491 456.38,-491 456.38,-511"/>
<text xml:space="preserve" text-anchor="middle" x="394.38" y="-497.5" font-family="Helvetica,sans-Serif" font-size="10.00">InterfaceSFML::executer</text>
</a>
</g>
</g>
<!-- Node22&#45;&gt;Node23 -->
<g id="edge30_Node000022_Node000023" class="edge">
<title>Node22&#45;&gt;Node23</title>
<g id="a_edge30_Node000022_Node000023"><a xlink:title=" ">
<path fill="none" stroke="#63b8ff" d="M506.77,-501C490.25,-501 472.73,-501 456.61,-501"/>
<polygon fill="#63b8ff" stroke="#63b8ff" points="506.51,-504.5 516.51,-501 506.51,-497.5 506.51,-504.5"/>
</a>
</g>
</g>
<!-- Node23&#45;&gt;Node4 -->
<g id="edge31_Node000023_Node000004" class="edge">
<title>Node23&#45;&gt;Node4</title>
<g id="a_edge31_Node000023_Node000004"><a xlink:title=" ">
<path fill="none" stroke="#63b8ff" d="M320.88,-512.64C292.14,-517.26 261.55,-522.17 242.92,-525.16"/>
<polygon fill="#63b8ff" stroke="#63b8ff" points="321.39,-516.11 330.71,-511.06 320.28,-509.19 321.39,-516.11"/>
</a>
</g>
</g>
<!-- Node24&#45;&gt;Node22 -->
<g id="edge33_Node000024_Node000022" class="edge">
<title>Node24&#45;&gt;Node22</title>
<g id="a_edge33_Node000024_Node000022"><a xlink:title=" ">
<path fill="none" stroke="#63b8ff" d="M691.87,-485.97C673.09,-488.45 653.78,-491.01 636.53,-493.29"/>
<polygon fill="#63b8ff" stroke="#63b8ff" points="692.21,-489.46 701.66,-484.68 691.29,-482.52 692.21,-489.46"/>
</a>
</g>
</g>
<!-- Node26 -->
<g id="Node000026" class="node">
<title>Node26</title>
<g id="a_Node000026"><a xlink:href="classInterfaceSFML.html#a20bcd606ad56b9f175bba4a49a4f061a" target="_top" xlink:title="Gère les événements (clavier, souris, fermeture).">
<polygon fill="white" stroke="#666666" points="658.75,-451 495.75,-451 495.75,-431 658.75,-431 658.75,-451"/>
<text xml:space="preserve" text-anchor="middle" x="577.25" y="-437.5" font-family="Helvetica,sans-Serif" font-size="10.00">InterfaceSFML::gererEvenements</text>
</a>
</g>
</g>
<!-- Node25&#45;&gt;Node26 -->
<g id="edge35_Node000025_Node000026" class="edge">
<title>Node25&#45;&gt;Node26</title>
<g id="a_edge35_Node000025_Node000026"><a xlink:title=" ">
<path fill="none" stroke="#63b8ff" d="M694.57,-434.73C682.76,-435.37 670.7,-436.02 659.02,-436.65"/>
<polygon fill="#63b8ff" stroke="#63b8ff" points="694.48,-438.24 704.27,-434.21 694.1,-431.25 694.48,-438.24"/>
</a>
</g>
</g>
<!-- Node26&#45;&gt;Node23 -->
<g id="edge36_Node000026_Node000023" class="edge">
<title>Node26&#45;&gt;Node23</title>
<g id="a_edge36_Node000026_Node000023"><a xlink:title=" ">
<path fill="none" stroke="#63b8ff" d="M534.12,-454.97C501.33,-465.85 456.54,-480.71 426.82,-490.57"/>
<polygon fill="#63b8ff" stroke="#63b8ff" points="534.92,-458.4 543.31,-451.93 532.71,-451.75 534.92,-458.4"/>
</a>
</g>
</g>
<!-- Node27&#45;&gt;Node7 -->
<g id="edge38_Node000027_Node000007" class="edge">
<title>Node27&#45;&gt;Node7</title>
<g id="a_edge38_Node000027_Node000007"><a xlink:title=" ">
<path fill="none" stroke="#63b8ff" d="M158.18,-251.19C145.56,-249.48 132.39,-247.7 119.96,-246.02"/>
<polygon fill="#63b8ff" stroke="#63b8ff" points="157.71,-254.66 168.09,-252.53 158.65,-247.72 157.71,-254.66"/>
</a>
</g>
</g>
<!-- Node29 -->
<g id="Node000029" class="node">
<title>Node29</title>
<g id="a_Node000029"><a xlink:href="classModeConsole.html#a75b55e1983d7ca8dbbb4ebec6a68589d" target="_top" xlink:title="Sauvegarde la grille actuelle dans un fichier.">
<polygon fill="white" stroke="#666666" points="644.88,-572 509.62,-572 509.62,-540 644.88,-540 644.88,-572"/>
<text xml:space="preserve" text-anchor="start" x="517.62" y="-558.5" font-family="Helvetica,sans-Serif" font-size="10.00">ModeConsole::sauvegarder</text>
<text xml:space="preserve" text-anchor="middle" x="577.25" y="-546.5" font-family="Helvetica,sans-Serif" font-size="10.00">Iteration</text>
</a>
</g>
</g>
<!-- Node28&#45;&gt;Node29 -->
<g id="edge43_Node000028_Node000029" class="edge">
<title>Node28&#45;&gt;Node29</title>
<g id="a_edge43_Node000028_Node000029"><a xlink:title=" ">
<path fill="none" stroke="#63b8ff" d="M721.51,-556C697.52,-556 669.89,-556 645.33,-556"/>
<polygon fill="#63b8ff" stroke="#63b8ff" points="721.45,-559.5 731.45,-556 721.45,-552.5 721.45,-559.5"/>
</a>
</g>
</g>
<!-- Node29&#45;&gt;Node3 -->
<g id="edge44_Node000029_Node000003" class="edge">
<title>Node29&#45;&gt;Node3</title>
<g id="a_edge44_Node000029_Node000003"><a xlink:title=" ">
<path fill="none" stroke="#63b8ff" d="M497.69,-556C483.24,-556 468.38,-556 454.61,-556"/>
<polygon fill="#63b8ff" stroke="#63b8ff" points="497.64,-559.5 507.64,-556 497.64,-552.5 497.64,-559.5"/>
</a>
</g>
</g>
</g>
</svg>
