<?xml version="1.0" encoding="UTF-8" standalone="no"?>
<!DOCTYPE svg PUBLIC "-//W3C//DTD SVG 1.1//EN"
 "http://www.w3.org/Graphics/SVG/1.1/DTD/svg11.dtd">
<!-- Generated by graphviz version 14.0.2 (20251019.1705)
 -->
<!-- Title: RegleTorique::calculerNouvelEtat Pages: 1 -->
<svg width="671pt" height="230pt"
 viewBox="0.00 0.00 671.00 230.00" xmlns="http://www.w3.org/2000/svg" xmlns:xlink="http://www.w3.org/1999/xlink">
<g id="graph0" class="graph" transform="scale(1 1) rotate(0) translate(4 226)">
<title>RegleTorique::calculerNouvelEtat</title>
<!-- Node1 -->
<g id="Node000001" class="node">
<title>Node1</title>
<g id="a_Node000001"><a xlink:title="Calcule le nouvel état d&#39;une cellule selon les règles du jeu.">
<polygon fill="#999999" stroke="#666666" points="161.5,-118 0,-118 0,-98 161.5,-98 161.5,-118"/>
<text xml:space="preserve" text-anchor="middle" x="80.75" y="-104.5" font-family="Helvetica,sans-Serif" font-size="10.00">RegleTorique::calculerNouvelEtat</text>
</a>
</g>
</g>
<!-- Node2 -->
<g id="Node000002" class="node">
<title>Node2</title>
<g id="a_Node000002"><a xlink:href="classEtatCellule.html#a40d064d2eb4ffdaf4ce5ffc290f23db0" target="_top" xlink:title="Crée une copie de l&#39;état.">
<polygon fill="white" stroke="#666666" points="318.5,-222 222.25,-222 222.25,-202 318.5,-202 318.5,-222"/>
<text xml:space="preserve" text-anchor="middle" x="270.38" y="-208.5" font-family="Helvetica,sans-Serif" font-size="10.00">EtatCellule::cloner</text>
</a>
</g>
</g>
<!-- Node1&#45;&gt;Node2 -->
<g id="edge1_Node000001_Node000002" class="edge">
<title>Node1&#45;&gt;Node2</title>
<g id="a_edge1_Node000001_Node000002"><a xlink:title=" ">
<path fill="none" stroke="#63b8ff" d="M94.19,-118.38C114.63,-135.01 157.08,-167.79 197.5,-188 204.86,-191.68 212.92,-194.99 220.89,-197.9"/>
<polygon fill="#63b8ff" stroke="#63b8ff" points="219.61,-201.16 230.2,-201.12 221.89,-194.55 219.61,-201.16"/>
</a>
</g>
</g>
<!-- Node3 -->
<g id="Node000003" class="node">
<title>Node3</title>
<g id="a_Node000003"><a xlink:href="classRegleTorique.html#a5f15a29a47c045ccd89a64c72de030e1" target="_top" xlink:title="Compte le nombre de voisins vivants.">
<polygon fill="white" stroke="#666666" points="343.25,-146 197.5,-146 197.5,-114 343.25,-114 343.25,-146"/>
<text xml:space="preserve" text-anchor="start" x="205.5" y="-132.5" font-family="Helvetica,sans-Serif" font-size="10.00">RegleTorique::compterVoisins</text>
<text xml:space="preserve" text-anchor="middle" x="270.38" y="-120.5" font-family="Helvetica,sans-Serif" font-size="10.00">Vivants</text>
</a>
</g>
</g>
<!-- Node1&#45;&gt;Node3 -->
<g id="edge2_Node000001_Node000003" class="edge">
<title>Node1&#45;&gt;Node3</title>
<g id="a_edge2_Node000001_Node000003"><a xlink:title=" ">
<path fill="none" stroke="#63b8ff" d="M161.86,-117.39C169.85,-118.33 177.98,-119.28 186,-120.22"/>
<polygon fill="#63b8ff" stroke="#63b8ff" points="185.4,-123.68 195.74,-121.37 186.22,-116.73 185.4,-123.68"/>
</a>
</g>
</g>
<!-- Node4 -->
<g id="Node000004" class="node">
<title>Node4</title>
<g id="a_Node000004"><a xlink:href="classCellule.html#a70d2731234961e330fe0a31486d1dec7" target="_top" xlink:title="Vérifie si la cellule est vivante.">
<polygon fill="white" stroke="#666666" points="492.38,-197 393.88,-197 393.88,-177 492.38,-177 492.38,-197"/>
<text xml:space="preserve" text-anchor="middle" x="443.12" y="-183.5" font-family="Helvetica,sans-Serif" font-size="10.00">Cellule::estVivante</text>
</a>
</g>
</g>
<!-- Node1&#45;&gt;Node4 -->
<g id="edge9_Node000001_Node000004" class="edge">
<title>Node1&#45;&gt;Node4</title>
<g id="a_edge9_Node000001_Node000004"><a xlink:title=" ">
<path fill="none" stroke="#63b8ff" d="M102.53,-118.33C125.28,-129.19 163.11,-145.93 197.5,-155 259.36,-171.32 332.31,-179.49 382.35,-183.46"/>
<polygon fill="#63b8ff" stroke="#63b8ff" points="381.87,-186.94 392.1,-184.2 382.4,-179.96 381.87,-186.94"/>
</a>
</g>
</g>
<!-- Node5 -->
<g id="Node000005" class="node">
<title>Node5</title>
<g id="a_Node000005"><a xlink:href="classGrille.html#aab75610fe73ae48bd035a048c55832f0" target="_top" xlink:title="Obtient une cellule à une position donnée.">
<polygon fill="white" stroke="#666666" points="495,-83 391.25,-83 391.25,-63 495,-63 495,-83"/>
<text xml:space="preserve" text-anchor="middle" x="443.12" y="-69.5" font-family="Helvetica,sans-Serif" font-size="10.00">Grille::obtenirCellule</text>
</a>
</g>
</g>
<!-- Node1&#45;&gt;Node5 -->
<g id="edge10_Node000001_Node000005" class="edge">
<title>Node1&#45;&gt;Node5</title>
<g id="a_edge10_Node000001_Node000005"><a xlink:title=" ">
<path fill="none" stroke="#63b8ff" d="M161.73,-100.23C227.48,-93.85 319.32,-84.93 379.73,-79.06"/>
<polygon fill="#63b8ff" stroke="#63b8ff" points="379.88,-82.56 389.5,-78.11 379.21,-75.59 379.88,-82.56"/>
</a>
</g>
</g>
<!-- Node9 -->
<g id="Node000009" class="node">
<title>Node9</title>
<g id="a_Node000009"><a xlink:href="classCellule.html#a4e34ac281afdba1d793fbd0239022a5e" target="_top" xlink:title="Vérifie si la cellule est un obstacle.">
<polygon fill="white" stroke="#666666" points="322.62,-58 218.12,-58 218.12,-38 322.62,-38 322.62,-58"/>
<text xml:space="preserve" text-anchor="middle" x="270.38" y="-44.5" font-family="Helvetica,sans-Serif" font-size="10.00">Cellule::estObstacle</text>
</a>
</g>
</g>
<!-- Node1&#45;&gt;Node9 -->
<g id="edge8_Node000001_Node000009" class="edge">
<title>Node1&#45;&gt;Node9</title>
<g id="a_edge8_Node000001_Node000009"><a xlink:title=" ">
<path fill="none" stroke="#63b8ff" d="M114.43,-97.55C145.41,-87.64 192.14,-72.7 226.18,-61.81"/>
<polygon fill="#63b8ff" stroke="#63b8ff" points="226.85,-65.27 235.31,-58.89 224.72,-58.61 226.85,-65.27"/>
</a>
</g>
</g>
<!-- Node10 -->
<g id="Node000010" class="node">
<title>Node10</title>
<g id="a_Node000010"><a xlink:href="classCellule.html#a4eecc7c38f6d8fa642804d9c7472d05e" target="_top" xlink:title="Obtient l&#39;état actuel de la cellule.">
<polygon fill="white" stroke="#666666" points="320,-20 220.75,-20 220.75,0 320,0 320,-20"/>
<text xml:space="preserve" text-anchor="middle" x="270.38" y="-6.5" font-family="Helvetica,sans-Serif" font-size="10.00">Cellule::obtenirEtat</text>
</a>
</g>
</g>
<!-- Node1&#45;&gt;Node10 -->
<g id="edge11_Node000001_Node000010" class="edge">
<title>Node1&#45;&gt;Node10</title>
<g id="a_edge11_Node000001_Node000010"><a xlink:title=" ">
<path fill="none" stroke="#63b8ff" d="M93.75,-97.73C113.89,-80.99 156.34,-47.81 197.5,-29 201.48,-27.18 205.67,-25.51 209.94,-23.98"/>
<polygon fill="#63b8ff" stroke="#63b8ff" points="210.8,-27.38 219.21,-20.94 208.61,-20.73 210.8,-27.38"/>
</a>
</g>
</g>
<!-- Node3&#45;&gt;Node4 -->
<g id="edge3_Node000003_Node000004" class="edge">
<title>Node3&#45;&gt;Node4</title>
<g id="a_edge3_Node000003_Node000004"><a xlink:title=" ">
<path fill="none" stroke="#63b8ff" d="M316.62,-146.45C335.86,-153.31 358.58,-161.24 379.25,-168 384.6,-169.75 390.22,-171.53 395.82,-173.27"/>
<polygon fill="#63b8ff" stroke="#63b8ff" points="394.42,-176.5 405.01,-176.08 396.48,-169.81 394.42,-176.5"/>
</a>
</g>
</g>
<!-- Node3&#45;&gt;Node5 -->
<g id="edge4_Node000003_Node000005" class="edge">
<title>Node3&#45;&gt;Node5</title>
<g id="a_edge4_Node000003_Node000005"><a xlink:title=" ">
<path fill="none" stroke="#63b8ff" d="M316.62,-113.55C335.86,-106.69 358.58,-98.76 379.25,-92 384.6,-90.25 390.22,-88.47 395.82,-86.73"/>
<polygon fill="#63b8ff" stroke="#63b8ff" points="396.48,-90.19 405.01,-83.92 394.42,-83.5 396.48,-90.19"/>
</a>
</g>
</g>
<!-- Node7 -->
<g id="Node000007" class="node">
<title>Node7</title>
<g id="a_Node000007"><a xlink:href="classGrille.html#a1ab5c8e0ea0d1dc21549c38d0f0f5cf9" target="_top" xlink:title="Obtient le nombre de colonnes.">
<polygon fill="white" stroke="#666666" points="507,-159 379.25,-159 379.25,-139 507,-139 507,-159"/>
<text xml:space="preserve" text-anchor="middle" x="443.12" y="-145.5" font-family="Helvetica,sans-Serif" font-size="10.00">Grille::obtenirNbColonnes</text>
</a>
</g>
</g>
<!-- Node3&#45;&gt;Node7 -->
<g id="edge6_Node000003_Node000007" class="edge">
<title>Node3&#45;&gt;Node7</title>
<g id="a_edge6_Node000003_Node000007"><a xlink:title=" ">
<path fill="none" stroke="#63b8ff" d="M343.29,-138C351.35,-138.9 359.56,-139.81 367.65,-140.71"/>
<polygon fill="#63b8ff" stroke="#63b8ff" points="367.13,-144.18 377.45,-141.8 367.9,-137.22 367.13,-144.18"/>
</a>
</g>
</g>
<!-- Node8 -->
<g id="Node000008" class="node">
<title>Node8</title>
<g id="a_Node000008"><a xlink:href="classGrille.html#a96b5f98d212a0ee9e2f71d73ebe5bb91" target="_top" xlink:title="Obtient le nombre de lignes.">
<polygon fill="white" stroke="#666666" points="500.62,-121 385.62,-121 385.62,-101 500.62,-101 500.62,-121"/>
<text xml:space="preserve" text-anchor="middle" x="443.12" y="-107.5" font-family="Helvetica,sans-Serif" font-size="10.00">Grille::obtenirNbLignes</text>
</a>
</g>
</g>
<!-- Node3&#45;&gt;Node8 -->
<g id="edge7_Node000003_Node000008" class="edge">
<title>Node3&#45;&gt;Node8</title>
<g id="a_edge7_Node000003_Node000008"><a xlink:title=" ">
<path fill="none" stroke="#63b8ff" d="M343.29,-122C353.49,-120.86 363.95,-119.7 374.07,-118.57"/>
<polygon fill="#63b8ff" stroke="#63b8ff" points="374.27,-122.07 383.82,-117.49 373.5,-115.12 374.27,-122.07"/>
</a>
</g>
</g>
<!-- Node6 -->
<g id="Node000006" class="node">
<title>Node6</title>
<g id="a_Node000006"><a xlink:href="classGrille.html#aa4c9ce36bb4f2c59a83aeb39d73fc285" target="_top" xlink:title="Vérifie si une position est valide dans la grille.">
<polygon fill="white" stroke="#666666" points="662.5,-83 543,-83 543,-63 662.5,-63 662.5,-83"/>
<text xml:space="preserve" text-anchor="middle" x="602.75" y="-69.5" font-family="Helvetica,sans-Serif" font-size="10.00">Grille::estPositionValide</text>
</a>
</g>
</g>
<!-- Node5&#45;&gt;Node6 -->
<g id="edge5_Node000005_Node000006" class="edge">
<title>Node5&#45;&gt;Node6</title>
<g id="a_edge5_Node000005_Node000006"><a xlink:title=" ">
<path fill="none" stroke="#63b8ff" d="M495.3,-73C506.75,-73 519.08,-73 531.16,-73"/>
<polygon fill="#63b8ff" stroke="#63b8ff" points="531.1,-76.5 541.1,-73 531.1,-69.5 531.1,-76.5"/>
</a>
</g>
</g>
</g>
</svg>
