<?xml version="1.0" encoding="UTF-8" standalone="no"?>
<!DOCTYPE svg PUBLIC "-//W3C//DTD SVG 1.1//EN"
 "http://www.w3.org/Graphics/SVG/1.1/DTD/svg11.dtd">
<!-- Generated by graphviz version 14.0.2 (20251019.1705)
 -->
<!-- Title: InterfaceQt::dessinerGrille Pages: 1 -->
<svg width="465pt" height="216pt"
 viewBox="0.00 0.00 465.00 216.00" xmlns="http://www.w3.org/2000/svg" xmlns:xlink="http://www.w3.org/1999/xlink">

<svg id="main" version="1.1" xmlns="http://www.w3.org/2000/svg" xmlns:xlink="http://www.w3.org/1999/xlink" xml:space="preserve">

<style type="text/css"><![CDATA[
.node, .edge {opacity: 0.7;}
.node.selected, .edge.selected {opacity: 1;}
.edge:hover path { stroke: red; }
.edge:hover polygon { stroke: red; fill: red; }
]]></style>
<script type="application/ecmascript" xlink:href="svg.min.js"/>
<svg id="graph" class="graph">
<g id="graph0" class="graph" transform="scale(1 1) rotate(0) translate(4 211.67)">
<title>InterfaceQt::dessinerGrille</title>
<!-- Node1 -->
<g id="Node000001" class="node">
<title>Node1</title>
<g id="a_Node000001"><a xlink:title="Dessine la grille (appelé par paintEvent de GrilleWidget).">
<polygon fill="#999999" stroke="#666666" points="130,-115 0,-115 0,-95 130,-95 130,-115"/>
<text xml:space="preserve" text-anchor="middle" x="65" y="-101.5" font-family="Helvetica,sans-Serif" font-size="10.00">InterfaceQt::dessinerGrille</text>
</a>
</g>
</g>
<!-- Node2 -->
<g id="Node000002" class="node">
<title>Node2</title>
<g id="a_Node000002"><a xlink:href="classInterfaceQt.html#a21cb684077b7b7c71a3099520e43406f" target="_top" xlink:title="Calcule la taille des cellules.">
<polygon fill="white" stroke="#666666" points="293,-184 166,-184 166,-152 293,-152 293,-184"/>
<text xml:space="preserve" text-anchor="start" x="174" y="-170.5" font-family="Helvetica,sans-Serif" font-size="10.00">InterfaceQt::calculerTaille</text>
<text xml:space="preserve" text-anchor="middle" x="229.5" y="-158.5" font-family="Helvetica,sans-Serif" font-size="10.00">Cellule</text>
</a>
</g>
</g>
<!-- Node1&#45;&gt;Node2 -->
<g id="edge1_Node000001_Node000002" class="edge">
<title>Node1&#45;&gt;Node2</title>
<g id="a_edge1_Node000001_Node000002"><a xlink:title=" ">
<path fill="none" stroke="#63b8ff" d="M92.83,-115.4C115.2,-124.07 147.74,-136.69 175.34,-147.39"/>
<polygon fill="#63b8ff" stroke="#63b8ff" points="174.04,-150.64 184.63,-150.99 176.57,-144.11 174.04,-150.64"/>
</a>
</g>
</g>
<!-- Node3 -->
<g id="Node000003" class="node">
<title>Node3</title>
<g id="a_Node000003"><a xlink:href="classGrille.html#a1ab5c8e0ea0d1dc21549c38d0f0f5cf9" target="_top" xlink:title="Obtient le nombre de colonnes.">
<polygon fill="white" stroke="#666666" points="456.75,-198 329,-198 329,-178 456.75,-178 456.75,-198"/>
<text xml:space="preserve" text-anchor="middle" x="392.88" y="-184.5" font-family="Helvetica,sans-Serif" font-size="10.00">Grille::obtenirNbColonnes</text>
</a>
</g>
</g>
<!-- Node1&#45;&gt;Node3 -->
<g id="edge8_Node000001_Node000003" class="edge">
<title>Node1&#45;&gt;Node3</title>
<g id="a_edge8_Node000001_Node000003"><a xlink:title=" ">
<path fill="none" stroke="#63b8ff" d="M73.37,-115.2C88.24,-134.79 124.02,-177.16 166,-193 221.26,-213.85 289.66,-208.44 336.63,-200.45"/>
<polygon fill="#63b8ff" stroke="#63b8ff" points="337.08,-203.93 346.3,-198.71 335.84,-197.04 337.08,-203.93"/>
</a>
</g>
</g>
<!-- Node4 -->
<g id="Node000004" class="node">
<title>Node4</title>
<g id="a_Node000004"><a xlink:href="classGrille.html#a96b5f98d212a0ee9e2f71d73ebe5bb91" target="_top" xlink:title="Obtient le nombre de lignes.">
<polygon fill="white" stroke="#666666" points="450.38,-157 335.38,-157 335.38,-137 450.38,-137 450.38,-157"/>
<text xml:space="preserve" text-anchor="middle" x="392.88" y="-143.5" font-family="Helvetica,sans-Serif" font-size="10.00">Grille::obtenirNbLignes</text>
</a>
</g>
</g>
<!-- Node1&#45;&gt;Node4 -->
<g id="edge9_Node000001_Node000004" class="edge">
<title>Node1&#45;&gt;Node4</title>
<g id="a_edge9_Node000001_Node000004"><a xlink:title=" ">
<path fill="none" stroke="#63b8ff" d="M130.38,-113.3C186.17,-120.49 266.66,-130.86 323.57,-138.2"/>
<polygon fill="#63b8ff" stroke="#63b8ff" points="323.11,-141.67 333.48,-139.47 324.01,-134.72 323.11,-141.67"/>
</a>
</g>
</g>
<!-- Node5 -->
<g id="Node000005" class="node">
<title>Node5</title>
<g id="a_Node000005"><a xlink:href="classCellule.html#a4e34ac281afdba1d793fbd0239022a5e" target="_top" xlink:title="Vérifie si la cellule est un obstacle.">
<polygon fill="white" stroke="#666666" points="281.75,-96 177.25,-96 177.25,-76 281.75,-76 281.75,-96"/>
<text xml:space="preserve" text-anchor="middle" x="229.5" y="-82.5" font-family="Helvetica,sans-Serif" font-size="10.00">Cellule::estObstacle</text>
</a>
</g>
</g>
<!-- Node1&#45;&gt;Node5 -->
<g id="edge4_Node000001_Node000005" class="edge">
<title>Node1&#45;&gt;Node5</title>
<g id="a_edge4_Node000001_Node000005"><a xlink:title=" ">
<path fill="none" stroke="#63b8ff" d="M130.22,-97.49C141.87,-96.13 154,-94.71 165.61,-93.35"/>
<polygon fill="#63b8ff" stroke="#63b8ff" points="165.97,-96.84 175.49,-92.2 165.15,-89.88 165.97,-96.84"/>
</a>
</g>
</g>
<!-- Node6 -->
<g id="Node000006" class="node">
<title>Node6</title>
<g id="a_Node000006"><a xlink:href="classCellule.html#a70d2731234961e330fe0a31486d1dec7" target="_top" xlink:title="Vérifie si la cellule est vivante.">
<polygon fill="white" stroke="#666666" points="278.75,-58 180.25,-58 180.25,-38 278.75,-38 278.75,-58"/>
<text xml:space="preserve" text-anchor="middle" x="229.5" y="-44.5" font-family="Helvetica,sans-Serif" font-size="10.00">Cellule::estVivante</text>
</a>
</g>
</g>
<!-- Node1&#45;&gt;Node6 -->
<g id="edge5_Node000001_Node000006" class="edge">
<title>Node1&#45;&gt;Node6</title>
<g id="a_edge5_Node000001_Node000006"><a xlink:title=" ">
<path fill="none" stroke="#63b8ff" d="M92.14,-94.51C112.21,-86.59 140.69,-75.64 166,-67 171.1,-65.26 176.46,-63.51 181.8,-61.82"/>
<polygon fill="#63b8ff" stroke="#63b8ff" points="182.72,-65.2 191.22,-58.88 180.64,-58.51 182.72,-65.2"/>
</a>
</g>
</g>
<!-- Node7 -->
<g id="Node000007" class="node">
<title>Node7</title>
<g id="a_Node000007"><a xlink:href="classGrille.html#aab75610fe73ae48bd035a048c55832f0" target="_top" xlink:title="Obtient une cellule à une position donnée.">
<polygon fill="white" stroke="#666666" points="281.38,-20 177.62,-20 177.62,0 281.38,0 281.38,-20"/>
<text xml:space="preserve" text-anchor="middle" x="229.5" y="-6.5" font-family="Helvetica,sans-Serif" font-size="10.00">Grille::obtenirCellule</text>
</a>
</g>
</g>
<!-- Node1&#45;&gt;Node7 -->
<g id="edge6_Node000001_Node000007" class="edge">
<title>Node1&#45;&gt;Node7</title>
<g id="a_edge6_Node000001_Node000007"><a xlink:title=" ">
<path fill="none" stroke="#63b8ff" d="M76.8,-94.68C94.24,-78.53 130.27,-47.26 166,-29 169.23,-27.35 172.63,-25.81 176.11,-24.39"/>
<polygon fill="#63b8ff" stroke="#63b8ff" points="177.1,-27.75 185.25,-20.99 174.66,-21.19 177.1,-27.75"/>
</a>
</g>
</g>
<!-- Node2&#45;&gt;Node3 -->
<g id="edge2_Node000002_Node000003" class="edge">
<title>Node2&#45;&gt;Node3</title>
<g id="a_edge2_Node000002_Node000003"><a xlink:title=" ">
<path fill="none" stroke="#63b8ff" d="M293.35,-175.79C301.23,-176.77 309.35,-177.77 317.39,-178.77"/>
<polygon fill="#63b8ff" stroke="#63b8ff" points="316.8,-182.22 327.16,-179.98 317.67,-175.28 316.8,-182.22"/>
</a>
</g>
</g>
<!-- Node2&#45;&gt;Node4 -->
<g id="edge3_Node000002_Node000004" class="edge">
<title>Node2&#45;&gt;Node4</title>
<g id="a_edge3_Node000002_Node000004"><a xlink:title=" ">
<path fill="none" stroke="#63b8ff" d="M293.35,-159.82C303.32,-158.52 313.67,-157.18 323.75,-155.87"/>
<polygon fill="#63b8ff" stroke="#63b8ff" points="324.02,-159.36 333.48,-154.6 323.11,-152.42 324.02,-159.36"/>
</a>
</g>
</g>
<!-- Node8 -->
<g id="Node000008" class="node">
<title>Node8</title>
<g id="a_Node000008"><a xlink:href="classGrille.html#aa4c9ce36bb4f2c59a83aeb39d73fc285" target="_top" xlink:title="Vérifie si une position est valide dans la grille.">
<polygon fill="white" stroke="#666666" points="452.62,-20 333.12,-20 333.12,0 452.62,0 452.62,-20"/>
<text xml:space="preserve" text-anchor="middle" x="392.88" y="-6.5" font-family="Helvetica,sans-Serif" font-size="10.00">Grille::estPositionValide</text>
</a>
</g>
</g>
<!-- Node7&#45;&gt;Node8 -->
<g id="edge7_Node000007_Node000008" class="edge">
<title>Node7&#45;&gt;Node8</title>
<g id="a_edge7_Node000007_Node000008"><a xlink:title=" ">
<path fill="none" stroke="#63b8ff" d="M281.56,-10C294.26,-10 308.09,-10 321.53,-10"/>
<polygon fill="#63b8ff" stroke="#63b8ff" points="321.19,-13.5 331.19,-10 321.19,-6.5 321.19,-13.5"/>
</a>
</g>
</g>
</g>
</svg>
</svg>

<style type='text/css'>
<![CDATA[
[data-mouse-over-selected='false'] { opacity: 0.7; }
[data-mouse-over-selected='true']  { opacity: 1.0; }
]]>
</style>
<script type="application/ecmascript"><![CDATA[
document.addEventListener('DOMContentLoaded', (event) => {
  highlightEdges();
  highlightAdjacentNodes();
});
]]></script>
</svg>
