<?xml version="1.0" encoding="UTF-8" standalone="no"?>
<!DOCTYPE svg PUBLIC "-//W3C//DTD SVG 1.1//EN"
 "http://www.w3.org/Graphics/SVG/1.1/DTD/svg11.dtd">
<!-- Generated by graphviz version 14.0.2 (20251019.1705)
 -->
<!-- Title: RegleJeu Pages: 1 -->
<svg width="274pt" height="196pt"
 viewBox="0.00 0.00 274.00 196.00" xmlns="http://www.w3.org/2000/svg" xmlns:xlink="http://www.w3.org/1999/xlink">
<g id="graph0" class="graph" transform="scale(1 1) rotate(0) translate(4 192)">
<title>RegleJeu</title>
<!-- Node1 -->
<g id="Node000001" class="node">
<title>Node1</title>
<g id="a_Node000001"><a xlink:title="Classe abstraite représentant les règles du jeu.">
<polygon fill="#999999" stroke="none" points="194.75,-188 71,-188 71,-104 194.75,-104 194.75,-188"/>
<text xml:space="preserve" text-anchor="start" x="112.25" y="-174.5" font-family="Helvetica,sans-Serif" font-size="10.00">RegleJeu</text>
<text xml:space="preserve" text-anchor="start" x="131.38" y="-158.5" font-family="Helvetica,sans-Serif" font-size="10.00"> </text>
<text xml:space="preserve" text-anchor="start" x="75" y="-142.5" font-family="Helvetica,sans-Serif" font-size="10.00">+</text>
<text xml:space="preserve" text-anchor="start" x="85" y="-142.5" font-family="Helvetica,sans-Serif" font-size="10.00">~RegleJeu()</text>
<text xml:space="preserve" text-anchor="start" x="75" y="-126.5" font-family="Helvetica,sans-Serif" font-size="10.00">+</text>
<text xml:space="preserve" text-anchor="start" x="85" y="-126.5" font-family="Helvetica,sans-Serif" font-size="10.00">calculerNouvelEtat()</text>
<text xml:space="preserve" text-anchor="start" x="75.38" y="-110.5" font-family="Helvetica,sans-Serif" font-size="10.00">#</text>
<text xml:space="preserve" text-anchor="start" x="85" y="-110.5" font-family="Helvetica,sans-Serif" font-size="10.00">compterVoisinsVivants()</text>
<polygon fill="#666666" stroke="#666666" points="71,-170 71,-170 194.75,-170 194.75,-170 71,-170"/>
<polygon fill="#666666" stroke="#666666" points="71,-154 71,-154 194.75,-154 194.75,-154 71,-154"/>
<polygon fill="none" stroke="#666666" points="71,-104 71,-188 194.75,-188 194.75,-104 71,-104"/>
</a>
</g>
</g>
<!-- Node2 -->
<g id="Node000002" class="node">
<title>Node2</title>
<g id="a_Node000002"><a xlink:href="classRegleStandard.html" target="_top" xlink:title="Implémentation des règles standard du jeu de la vie.">
<polygon fill="white" stroke="none" points="123.75,-68 0,-68 0,0 123.75,0 123.75,-68"/>
<text xml:space="preserve" text-anchor="start" x="29.62" y="-54.5" font-family="Helvetica,sans-Serif" font-size="10.00">RegleStandard</text>
<text xml:space="preserve" text-anchor="start" x="60.38" y="-38.5" font-family="Helvetica,sans-Serif" font-size="10.00"> </text>
<text xml:space="preserve" text-anchor="start" x="4" y="-22.5" font-family="Helvetica,sans-Serif" font-size="10.00">+</text>
<text xml:space="preserve" text-anchor="start" x="14" y="-22.5" font-family="Helvetica,sans-Serif" font-size="10.00">calculerNouvelEtat()</text>
<text xml:space="preserve" text-anchor="start" x="4.38" y="-6.5" font-family="Helvetica,sans-Serif" font-size="10.00">#</text>
<text xml:space="preserve" text-anchor="start" x="14" y="-6.5" font-family="Helvetica,sans-Serif" font-size="10.00">compterVoisinsVivants()</text>
<polygon fill="#666666" stroke="#666666" points="0,-50 0,-50 123.75,-50 123.75,-50 0,-50"/>
<polygon fill="#666666" stroke="#666666" points="0,-34 0,-34 123.75,-34 123.75,-34 0,-34"/>
<polygon fill="none" stroke="#666666" points="0,0 0,-68 123.75,-68 123.75,0 0,0"/>
</a>
</g>
</g>
<!-- Node1&#45;&gt;Node2 -->
<g id="edge1_Node000001_Node000002" class="edge">
<title>Node1&#45;&gt;Node2</title>
<g id="a_edge1_Node000001_Node000002"><a xlink:title=" ">
<path fill="none" stroke="#63b8ff" d="M100.37,-94.63C94.47,-85.51 88.47,-76.21 83.02,-67.75"/>
<polygon fill="none" stroke="#63b8ff" points="97.25,-96.26 105.62,-102.77 103.13,-92.47 97.25,-96.26"/>
</a>
</g>
</g>
<!-- Node3 -->
<g id="Node000003" class="node">
<title>Node3</title>
<g id="a_Node000003"><a xlink:href="classRegleTorique.html" target="_top" xlink:title="Implémentation des règles pour une grille torique (extension bonus).">
<polygon fill="white" stroke="none" points="265.75,-68 142,-68 142,0 265.75,0 265.75,-68"/>
<text xml:space="preserve" text-anchor="start" x="175.38" y="-54.5" font-family="Helvetica,sans-Serif" font-size="10.00">RegleTorique</text>
<text xml:space="preserve" text-anchor="start" x="202.38" y="-38.5" font-family="Helvetica,sans-Serif" font-size="10.00"> </text>
<text xml:space="preserve" text-anchor="start" x="146" y="-22.5" font-family="Helvetica,sans-Serif" font-size="10.00">+</text>
<text xml:space="preserve" text-anchor="start" x="156" y="-22.5" font-family="Helvetica,sans-Serif" font-size="10.00">calculerNouvelEtat()</text>
<text xml:space="preserve" text-anchor="start" x="146.38" y="-6.5" font-family="Helvetica,sans-Serif" font-size="10.00">#</text>
<text xml:space="preserve" text-anchor="start" x="156" y="-6.5" font-family="Helvetica,sans-Serif" font-size="10.00">compterVoisinsVivants()</text>
<polygon fill="#666666" stroke="#666666" points="142,-50 142,-50 265.75,-50 265.75,-50 142,-50"/>
<polygon fill="#666666" stroke="#666666" points="142,-34 142,-34 265.75,-34 265.75,-34 142,-34"/>
<polygon fill="none" stroke="#666666" points="142,0 142,-68 265.75,-68 265.75,0 142,0"/>
</a>
</g>
</g>
<!-- Node1&#45;&gt;Node3 -->
<g id="edge2_Node000001_Node000003" class="edge">
<title>Node1&#45;&gt;Node3</title>
<g id="a_edge2_Node000001_Node000003"><a xlink:title=" ">
<path fill="none" stroke="#63b8ff" d="M165.38,-94.63C171.28,-85.51 177.28,-76.21 182.73,-67.75"/>
<polygon fill="none" stroke="#63b8ff" points="162.62,-92.47 160.13,-102.77 168.5,-96.26 162.62,-92.47"/>
</a>
</g>
</g>
</g>
</svg>
