<?xml version="1.0" encoding="UTF-8" standalone="no"?>
<!DOCTYPE svg PUBLIC "-//W3C//DTD SVG 1.1//EN"
 "http://www.w3.org/Graphics/SVG/1.1/DTD/svg11.dtd">
<!-- Generated by graphviz version 14.0.2 (20251019.1705)
 -->
<!-- Title: TestsUnitaires::creerGrille Pages: 1 -->
<svg width="568pt" height="230pt"
 viewBox="0.00 0.00 568.00 230.00" xmlns="http://www.w3.org/2000/svg" xmlns:xlink="http://www.w3.org/1999/xlink">
<g id="graph0" class="graph" transform="scale(1 1) rotate(0) translate(4 226)">
<title>TestsUnitaires::creerGrille</title>
<!-- Node1 -->
<g id="Node000001" class="node">
<title>Node1</title>
<g id="a_Node000001"><a xlink:title="Crée une grille de test.">
<polygon fill="#999999" stroke="#666666" points="559.75,-118 430.5,-118 430.5,-98 559.75,-98 559.75,-118"/>
<text xml:space="preserve" text-anchor="middle" x="495.12" y="-104.5" font-family="Helvetica,sans-Serif" font-size="10.00">TestsUnitaires::creerGrille</text>
</a>
</g>
</g>
<!-- Node2 -->
<g id="Node000002" class="node">
<title>Node2</title>
<g id="a_Node000002"><a xlink:href="classTestsUnitaires.html#acd912aefe999f1178f6c72f41bece368" target="_top" xlink:title="Teste le motif stable (bloc).">
<polygon fill="white" stroke="#666666" points="377.62,-222 248.38,-222 248.38,-202 377.62,-202 377.62,-222"/>
<text xml:space="preserve" text-anchor="middle" x="313" y="-208.5" font-family="Helvetica,sans-Serif" font-size="10.00">TestsUnitaires::testerBloc</text>
</a>
</g>
</g>
<!-- Node1&#45;&gt;Node2 -->
<g id="edge1_Node000001_Node000002" class="edge">
<title>Node1&#45;&gt;Node2</title>
<g id="a_edge1_Node000001_Node000002"><a xlink:title=" ">
<path fill="none" stroke="#63b8ff" d="M477.38,-126.81C458.97,-146.31 427.59,-176.23 394.5,-193 387.71,-196.44 380.28,-199.27 372.77,-201.6"/>
<polygon fill="#63b8ff" stroke="#63b8ff" points="479.87,-129.27 484.08,-119.54 474.73,-124.52 479.87,-129.27"/>
</a>
</g>
</g>
<!-- Node5 -->
<g id="Node000005" class="node">
<title>Node5</title>
<g id="a_Node000005"><a xlink:href="classTestsUnitaires.html#ad353b61378429174dd396ee458261aa2" target="_top" xlink:title="Teste le motif oscillateur (clignotant).">
<polygon fill="white" stroke="#666666" points="390,-184 236,-184 236,-164 390,-164 390,-184"/>
<text xml:space="preserve" text-anchor="middle" x="313" y="-170.5" font-family="Helvetica,sans-Serif" font-size="10.00">TestsUnitaires::testerClignotant</text>
</a>
</g>
</g>
<!-- Node1&#45;&gt;Node5 -->
<g id="edge4_Node000001_Node000005" class="edge">
<title>Node1&#45;&gt;Node5</title>
<g id="a_edge4_Node000001_Node000005"><a xlink:title=" ">
<path fill="none" stroke="#63b8ff" d="M465.09,-123.68C445.57,-133.72 419.02,-146.43 394.5,-155 385.28,-158.22 375.28,-161.07 365.56,-163.52"/>
<polygon fill="#63b8ff" stroke="#63b8ff" points="466.57,-126.85 473.82,-119.12 463.33,-120.65 466.57,-126.85"/>
</a>
</g>
</g>
<!-- Node6 -->
<g id="Node000006" class="node">
<title>Node6</title>
<g id="a_Node000006"><a xlink:href="classTestsUnitaires.html#ac0c01e1e24de9cb73d81593c96fa34bb" target="_top" xlink:title="Teste la grille torique.">
<polygon fill="white" stroke="#666666" points="379.88,-146 246.12,-146 246.12,-114 379.88,-114 379.88,-146"/>
<text xml:space="preserve" text-anchor="start" x="254.12" y="-132.5" font-family="Helvetica,sans-Serif" font-size="10.00">TestsUnitaires::testerMode</text>
<text xml:space="preserve" text-anchor="middle" x="313" y="-120.5" font-family="Helvetica,sans-Serif" font-size="10.00">Torique</text>
</a>
</g>
</g>
<!-- Node1&#45;&gt;Node6 -->
<g id="edge6_Node000001_Node000006" class="edge">
<title>Node1&#45;&gt;Node6</title>
<g id="a_edge6_Node000001_Node000006"><a xlink:title=" ">
<path fill="none" stroke="#63b8ff" d="M418.95,-117.18C406.1,-118.75 392.84,-120.37 380.24,-121.91"/>
<polygon fill="#63b8ff" stroke="#63b8ff" points="419.11,-120.69 428.61,-116 418.26,-113.74 419.11,-120.69"/>
</a>
</g>
</g>
<!-- Node7 -->
<g id="Node000007" class="node">
<title>Node7</title>
<g id="a_Node000007"><a xlink:href="classTestsUnitaires.html#a7783880416ef4c0f160e1d8242f0d392" target="_top" xlink:title="Teste les cellules obstacles.">
<polygon fill="white" stroke="#666666" points="390,-96 236,-96 236,-76 390,-76 390,-96"/>
<text xml:space="preserve" text-anchor="middle" x="313" y="-82.5" font-family="Helvetica,sans-Serif" font-size="10.00">TestsUnitaires::testerObstacles</text>
</a>
</g>
</g>
<!-- Node1&#45;&gt;Node7 -->
<g id="edge8_Node000001_Node000007" class="edge">
<title>Node1&#45;&gt;Node7</title>
<g id="a_edge8_Node000001_Node000007"><a xlink:title=" ">
<path fill="none" stroke="#63b8ff" d="M418.81,-98.8C409.43,-97.66 399.84,-96.48 390.44,-95.34"/>
<polygon fill="#63b8ff" stroke="#63b8ff" points="418.26,-102.26 428.61,-100 419.11,-95.31 418.26,-102.26"/>
</a>
</g>
</g>
<!-- Node8 -->
<g id="Node000008" class="node">
<title>Node8</title>
<g id="a_Node000008"><a xlink:href="classTestsUnitaires.html#aca78b84c54b4526bab6c6325e1b05e20" target="_top" xlink:title="Teste le planeur.">
<polygon fill="white" stroke="#666666" points="384.38,-58 241.62,-58 241.62,-38 384.38,-38 384.38,-58"/>
<text xml:space="preserve" text-anchor="middle" x="313" y="-44.5" font-family="Helvetica,sans-Serif" font-size="10.00">TestsUnitaires::testerPlaneur</text>
</a>
</g>
</g>
<!-- Node1&#45;&gt;Node8 -->
<g id="edge10_Node000001_Node000008" class="edge">
<title>Node1&#45;&gt;Node8</title>
<g id="a_edge10_Node000001_Node000008"><a xlink:title=" ">
<path fill="none" stroke="#63b8ff" d="M461.25,-92.93C442.06,-84.52 417.23,-74.31 394.5,-67 384.66,-63.84 373.98,-60.95 363.72,-58.43"/>
<polygon fill="#63b8ff" stroke="#63b8ff" points="459.62,-96.03 470.17,-96.89 462.46,-89.63 459.62,-96.03"/>
</a>
</g>
</g>
<!-- Node9 -->
<g id="Node000009" class="node">
<title>Node9</title>
<g id="a_Node000009"><a xlink:href="classTestsUnitaires.html#a668b40e7c9824be78af8cfd427b4aa58" target="_top" xlink:title="Teste les règles de base.">
<polygon fill="white" stroke="#666666" points="394.5,-20 231.5,-20 231.5,0 394.5,0 394.5,-20"/>
<text xml:space="preserve" text-anchor="middle" x="313" y="-6.5" font-family="Helvetica,sans-Serif" font-size="10.00">TestsUnitaires::testerReglesBase</text>
</a>
</g>
</g>
<!-- Node1&#45;&gt;Node9 -->
<g id="edge12_Node000001_Node000009" class="edge">
<title>Node1&#45;&gt;Node9</title>
<g id="a_edge12_Node000001_Node000009"><a xlink:title=" ">
<path fill="none" stroke="#63b8ff" d="M475.96,-89.45C457.19,-71.35 426.25,-44.38 394.5,-29 387.39,-25.56 379.62,-22.72 371.8,-20.38"/>
<polygon fill="#63b8ff" stroke="#63b8ff" points="473.49,-91.93 483.06,-96.46 478.41,-86.95 473.49,-91.93"/>
</a>
</g>
</g>
<!-- Node3 -->
<g id="Node000003" class="node">
<title>Node3</title>
<g id="a_Node000003"><a xlink:href="classTestsUnitaires.html#a17aa4e9d0afbd2614193d2638f4b78c7" target="_top" xlink:title="Exécute tous les tests.">
<polygon fill="white" stroke="#666666" points="195.5,-124 73,-124 73,-92 195.5,-92 195.5,-124"/>
<text xml:space="preserve" text-anchor="start" x="81" y="-110.5" font-family="Helvetica,sans-Serif" font-size="10.00">TestsUnitaires::executer</text>
<text xml:space="preserve" text-anchor="middle" x="134.25" y="-98.5" font-family="Helvetica,sans-Serif" font-size="10.00">TousLesTests</text>
</a>
</g>
</g>
<!-- Node2&#45;&gt;Node3 -->
<g id="edge2_Node000002_Node000003" class="edge">
<title>Node2&#45;&gt;Node3</title>
<g id="a_edge2_Node000002_Node000003"><a xlink:title=" ">
<path fill="none" stroke="#63b8ff" d="M242.19,-197.84C238.51,-196.38 234.92,-194.77 231.5,-193 197.84,-175.58 166.44,-143.81 149.14,-124.44"/>
<polygon fill="#63b8ff" stroke="#63b8ff" points="240.73,-201.03 251.32,-201.07 243.06,-194.43 240.73,-201.03"/>
</a>
</g>
</g>
<!-- Node4 -->
<g id="Node000004" class="node">
<title>Node4</title>
<g id="a_Node000004"><a xlink:href="test__main_8cpp.html#ae66f6b31b5ad750f1fe042a706a4e3d4" target="_top" xlink:title="Programme principal pour exécuter les tests unitaires.">
<polygon fill="white" stroke="#666666" points="37,-118 0,-118 0,-98 37,-98 37,-118"/>
<text xml:space="preserve" text-anchor="middle" x="18.5" y="-104.5" font-family="Helvetica,sans-Serif" font-size="10.00">main</text>
</a>
</g>
</g>
<!-- Node3&#45;&gt;Node4 -->
<g id="edge3_Node000003_Node000004" class="edge">
<title>Node3&#45;&gt;Node4</title>
<g id="a_edge3_Node000003_Node000004"><a xlink:title=" ">
<path fill="none" stroke="#63b8ff" d="M61.32,-108C52.49,-108 44.18,-108 37.33,-108"/>
<polygon fill="#63b8ff" stroke="#63b8ff" points="61.2,-111.5 71.2,-108 61.2,-104.5 61.2,-111.5"/>
</a>
</g>
</g>
<!-- Node5&#45;&gt;Node3 -->
<g id="edge5_Node000005_Node000003" class="edge">
<title>Node5&#45;&gt;Node3</title>
<g id="a_edge5_Node000005_Node000003"><a xlink:title=" ">
<path fill="none" stroke="#63b8ff" d="M249.14,-160.6C243.13,-158.89 237.16,-157.02 231.5,-155 208.21,-146.68 183.14,-134.32 164.43,-124.36"/>
<polygon fill="#63b8ff" stroke="#63b8ff" points="247.94,-163.91 258.51,-163.12 249.76,-157.15 247.94,-163.91"/>
</a>
</g>
</g>
<!-- Node6&#45;&gt;Node3 -->
<g id="edge7_Node000006_Node000003" class="edge">
<title>Node6&#45;&gt;Node3</title>
<g id="a_edge7_Node000006_Node000003"><a xlink:title=" ">
<path fill="none" stroke="#63b8ff" d="M234.43,-120.34C221.49,-118.73 208.25,-117.09 195.82,-115.54"/>
<polygon fill="#63b8ff" stroke="#63b8ff" points="233.82,-123.8 244.18,-121.56 234.69,-116.85 233.82,-123.8"/>
</a>
</g>
</g>
<!-- Node7&#45;&gt;Node3 -->
<g id="edge9_Node000007_Node000003" class="edge">
<title>Node7&#45;&gt;Node3</title>
<g id="a_edge9_Node000007_Node000003"><a xlink:title=" ">
<path fill="none" stroke="#63b8ff" d="M224.27,-96.92C214.67,-98.12 205.06,-99.31 195.89,-100.45"/>
<polygon fill="#63b8ff" stroke="#63b8ff" points="224.51,-100.42 234,-95.71 223.65,-93.47 224.51,-100.42"/>
</a>
</g>
</g>
<!-- Node8&#45;&gt;Node3 -->
<g id="edge11_Node000008_Node000003" class="edge">
<title>Node8&#45;&gt;Node3</title>
<g id="a_edge11_Node000008_Node000003"><a xlink:title=" ">
<path fill="none" stroke="#63b8ff" d="M250.81,-61.28C244.25,-63.05 237.71,-64.96 231.5,-67 210.62,-73.86 187.97,-83.39 169.9,-91.54"/>
<polygon fill="#63b8ff" stroke="#63b8ff" points="251.54,-64.71 260.35,-58.82 249.79,-57.93 251.54,-64.71"/>
</a>
</g>
</g>
<!-- Node9&#45;&gt;Node3 -->
<g id="edge13_Node000009_Node000003" class="edge">
<title>Node9&#45;&gt;Node3</title>
<g id="a_edge13_Node000009_Node000003"><a xlink:title=" ">
<path fill="none" stroke="#63b8ff" d="M243.04,-24.02C239.07,-25.52 235.19,-27.17 231.5,-29 199.14,-45.01 168.04,-73.75 150.33,-91.8"/>
<polygon fill="#63b8ff" stroke="#63b8ff" points="243.94,-27.41 252.28,-20.88 241.69,-20.78 243.94,-27.41"/>
</a>
</g>
</g>
</g>
</svg>
