<?xml version="1.0" encoding="UTF-8" standalone="no"?>
<!DOCTYPE svg PUBLIC "-//W3C//DTD SVG 1.1//EN"
 "http://www.w3.org/Graphics/SVG/1.1/DTD/svg11.dtd">
<!-- Generated by graphviz version 14.0.2 (20251019.1705)
 -->
<!-- Title: Grille::mettreAJourLignes Pages: 1 -->
<!--zoomable 154 -->

<svg id="main" version="1.1" xmlns="http://www.w3.org/2000/svg" xmlns:xlink="http://www.w3.org/1999/xlink" xml:space="preserve" onload="init(evt)">

<style type="text/css"><![CDATA[
.node, .edge {opacity: 0.7;}
.node.selected, .edge.selected {opacity: 1;}
.edge:hover path { stroke: red; }
.edge:hover polygon { stroke: red; fill: red; }
]]></style>

<defs>
  <circle id="rim" cx="0" cy="0" r="7"/>
  <circle id="rim2" cx="0" cy="0" r="3.5"/>
  <g id="zoomPlus">
    <use xlink:href="#rim" fill="#404040"><set attributeName="fill" to="#808080" begin="zoomplus.mouseover" end="zoomplus.mouseout"/></use>
    <path d="M-4,0h8M0,-4v8" fill="none" stroke="white" stroke-width="1.5" pointer-events="none"/>
  </g>
  <g id="zoomMin">
    <use xlink:href="#rim" fill="#404040"><set attributeName="fill" to="#808080" begin="zoomminus.mouseover" end="zoomminus.mouseout"/></use>
    <path d="M-4,0h8" fill="none" stroke="white" stroke-width="1.5" pointer-events="none"/>
  </g>
  <g id="arrowUp" transform="translate(30 24)">
    <use xlink:href="#rim"/>
    <path pointer-events="none" fill="none" stroke="white" stroke-width="1.5" d="M0,-3.0v7 M-2.5,-0.5L0,-3.0L2.5,-0.5"/>
  </g>
  <g id="arrowRight" transform="rotate(90) translate(36 -43)">
    <use xlink:href="#rim"/>
    <path pointer-events="none" fill="none" stroke="white" stroke-width="1.5" d="M0,-3.0v7 M-2.5,-0.5L0,-3.0L2.5,-0.5"/>
  </g>
  <g id="arrowDown" transform="rotate(180) translate(-30 -48)">
    <use xlink:href="#rim"/>
    <path pointer-events="none" fill="none" stroke="white" stroke-width="1.5" d="M0,-3.0v7 M-2.5,-0.5L0,-3.0L2.5,-0.5"/>
  </g>
  <g id="arrowLeft" transform="rotate(270) translate(-36 17)">
    <use xlink:href="#rim"/>
    <path pointer-events="none" fill="none" stroke="white" stroke-width="1.5" d="M0,-3.0v7 M-2.5,-0.5L0,-3.0L2.5,-0.5"/>
  </g>
  <g id="resetDef">
    <use xlink:href="#rim2" fill="#404040"><set attributeName="fill" to="#808080" begin="reset.mouseover" end="reset.mouseout"/></use>
  </g>
</defs>
<script type="application/ecmascript">
var viewWidth = 885;
var viewHeight = 154;
var sectionId = 'dynsection-9';
</script>
<script type="application/ecmascript" xlink:href="svg.min.js"/>
<svg id="graph" class="graph">
<g id="viewport">
<title>Grille::mettreAJourLignes</title>
<!-- Node1 -->
<g id="Node000001" class="node">
<title>Node1</title>
<g id="a_Node000001"><a xlink:title="Met à jour un ensemble de lignes (parallélisation optimisée).">
<polygon fill="#999999" stroke="#666666" points="876.75,-70 750.5,-70 750.5,-50 876.75,-50 876.75,-70"/>
<text xml:space="preserve" text-anchor="middle" x="813.62" y="-56.5" font-family="Helvetica,sans-Serif" font-size="10.00">Grille::mettreAJourLignes</text>
</a>
</g>
</g>
<!-- Node2 -->
<g id="Node000002" class="node">
<title>Node2</title>
<g id="a_Node000002"><a xlink:href="classGrille.html#a980652764fefe3f45fcc0516a6e59abb" target="_top" xlink:title="Met à jour la grille pour passer à l&#39;itération suivante.">
<polygon fill="white" stroke="#666666" points="714.5,-70 616.75,-70 616.75,-50 714.5,-50 714.5,-70"/>
<text xml:space="preserve" text-anchor="middle" x="665.62" y="-56.5" font-family="Helvetica,sans-Serif" font-size="10.00">Grille::mettreAJour</text>
</a>
</g>
</g>
<!-- Node1&#45;&gt;Node2 -->
<g id="edge1_Node000001_Node000002" class="edge">
<title>Node1&#45;&gt;Node2</title>
<g id="a_edge1_Node000001_Node000002"><a xlink:title=" ">
<path fill="none" stroke="#63b8ff" d="M739.02,-60C730.74,-60 722.46,-60 714.63,-60"/>
<polygon fill="#63b8ff" stroke="#63b8ff" points="738.77,-63.5 748.77,-60 738.77,-56.5 738.77,-63.5"/>
</a>
</g>
</g>
<!-- Node3 -->
<g id="Node000003" class="node">
<title>Node3</title>
<g id="a_Node000003"><a xlink:href="classTestsUnitaires.html#a1fea61fb0483bb1f7e0284d828ad347f" target="_top" xlink:title="Teste l&#39;évolution d&#39;une grille après n itérations.">
<polygon fill="white" stroke="#666666" points="580.75,-108 430.5,-108 430.5,-88 580.75,-88 580.75,-108"/>
<text xml:space="preserve" text-anchor="middle" x="505.62" y="-94.5" font-family="Helvetica,sans-Serif" font-size="10.00">TestsUnitaires::testerEvolution</text>
</a>
</g>
</g>
<!-- Node2&#45;&gt;Node3 -->
<g id="edge2_Node000002_Node000003" class="edge">
<title>Node2&#45;&gt;Node3</title>
<g id="a_edge2_Node000002_Node000003"><a xlink:title=" ">
<path fill="none" stroke="#63b8ff" d="M610.09,-73.12C590.47,-77.83 568.62,-83.09 550.08,-87.55"/>
<polygon fill="#63b8ff" stroke="#63b8ff" points="610.66,-76.58 619.56,-70.84 609.02,-69.77 610.66,-76.58"/>
</a>
</g>
</g>
<!-- Node8 -->
<g id="Node000008" class="node">
<title>Node8</title>
<g id="a_Node000008"><a xlink:href="classTestsUnitaires.html#a668b40e7c9824be78af8cfd427b4aa58" target="_top" xlink:title="Teste les règles de base.">
<polygon fill="white" stroke="#666666" points="394.5,-70 231.5,-70 231.5,-50 394.5,-50 394.5,-70"/>
<text xml:space="preserve" text-anchor="middle" x="313" y="-56.5" font-family="Helvetica,sans-Serif" font-size="10.00">TestsUnitaires::testerReglesBase</text>
</a>
</g>
</g>
<!-- Node2&#45;&gt;Node8 -->
<g id="edge12_Node000002_Node000008" class="edge">
<title>Node2&#45;&gt;Node8</title>
<g id="a_edge12_Node000002_Node000008"><a xlink:title=" ">
<path fill="none" stroke="#63b8ff" d="M605.1,-60C547.21,-60 458.86,-60 394.68,-60"/>
<polygon fill="#63b8ff" stroke="#63b8ff" points="605.09,-63.5 615.09,-60 605.09,-56.5 605.09,-63.5"/>
</a>
</g>
</g>
<!-- Node9 -->
<g id="Node000009" class="node">
<title>Node9</title>
<g id="a_Node000009"><a xlink:href="classTestsUnitaires.html#ac0c01e1e24de9cb73d81593c96fa34bb" target="_top" xlink:title="Teste la grille torique.">
<polygon fill="white" stroke="#666666" points="572.5,-32 438.75,-32 438.75,0 572.5,0 572.5,-32"/>
<text xml:space="preserve" text-anchor="start" x="446.75" y="-18.5" font-family="Helvetica,sans-Serif" font-size="10.00">TestsUnitaires::testerMode</text>
<text xml:space="preserve" text-anchor="middle" x="505.62" y="-6.5" font-family="Helvetica,sans-Serif" font-size="10.00">Torique</text>
</a>
</g>
</g>
<!-- Node2&#45;&gt;Node9 -->
<g id="edge10_Node000002_Node000009" class="edge">
<title>Node2&#45;&gt;Node9</title>
<g id="a_edge10_Node000002_Node000009"><a xlink:title=" ">
<path fill="none" stroke="#63b8ff" d="M616.46,-46.59C600.46,-42.13 582.46,-37.12 565.73,-32.46"/>
<polygon fill="#63b8ff" stroke="#63b8ff" points="615.15,-49.86 625.72,-49.17 617.03,-43.11 615.15,-49.86"/>
</a>
</g>
</g>
<!-- Node4 -->
<g id="Node000004" class="node">
<title>Node4</title>
<g id="a_Node000004"><a xlink:href="classTestsUnitaires.html#acd912aefe999f1178f6c72f41bece368" target="_top" xlink:title="Teste le motif stable (bloc).">
<polygon fill="white" stroke="#666666" points="377.62,-146 248.38,-146 248.38,-126 377.62,-126 377.62,-146"/>
<text xml:space="preserve" text-anchor="middle" x="313" y="-132.5" font-family="Helvetica,sans-Serif" font-size="10.00">TestsUnitaires::testerBloc</text>
</a>
</g>
</g>
<!-- Node3&#45;&gt;Node4 -->
<g id="edge3_Node000003_Node000004" class="edge">
<title>Node3&#45;&gt;Node4</title>
<g id="a_edge3_Node000003_Node000004"><a xlink:title=" ">
<path fill="none" stroke="#63b8ff" d="M440.81,-110.72C416.64,-115.54 389.42,-120.96 366.42,-125.55"/>
<polygon fill="#63b8ff" stroke="#63b8ff" points="441.42,-114.17 450.55,-108.78 440.06,-107.3 441.42,-114.17"/>
</a>
</g>
</g>
<!-- Node7 -->
<g id="Node000007" class="node">
<title>Node7</title>
<g id="a_Node000007"><a xlink:href="classTestsUnitaires.html#ad353b61378429174dd396ee458261aa2" target="_top" xlink:title="Teste le motif oscillateur (clignotant).">
<polygon fill="white" stroke="#666666" points="390,-108 236,-108 236,-88 390,-88 390,-108"/>
<text xml:space="preserve" text-anchor="middle" x="313" y="-94.5" font-family="Helvetica,sans-Serif" font-size="10.00">TestsUnitaires::testerClignotant</text>
</a>
</g>
</g>
<!-- Node3&#45;&gt;Node7 -->
<g id="edge6_Node000003_Node000007" class="edge">
<title>Node3&#45;&gt;Node7</title>
<g id="a_edge6_Node000003_Node000007"><a xlink:title=" ">
<path fill="none" stroke="#63b8ff" d="M418.67,-98C409.23,-98 399.67,-98 390.35,-98"/>
<polygon fill="#63b8ff" stroke="#63b8ff" points="418.59,-101.5 428.59,-98 418.59,-94.5 418.59,-101.5"/>
</a>
</g>
</g>
<!-- Node3&#45;&gt;Node8 -->
<g id="edge8_Node000003_Node000008" class="edge">
<title>Node3&#45;&gt;Node8</title>
<g id="a_edge8_Node000003_Node000008"><a xlink:title=" ">
<path fill="none" stroke="#63b8ff" d="M440.81,-85.28C416.64,-80.46 389.42,-75.04 366.42,-70.45"/>
<polygon fill="#63b8ff" stroke="#63b8ff" points="440.06,-88.7 450.55,-87.22 441.42,-81.83 440.06,-88.7"/>
</a>
</g>
</g>
<!-- Node5 -->
<g id="Node000005" class="node">
<title>Node5</title>
<g id="a_Node000005"><a xlink:href="classTestsUnitaires.html#a17aa4e9d0afbd2614193d2638f4b78c7" target="_top" xlink:title="Exécute tous les tests.">
<polygon fill="white" stroke="#666666" points="195.5,-95 73,-95 73,-63 195.5,-63 195.5,-95"/>
<text xml:space="preserve" text-anchor="start" x="81" y="-81.5" font-family="Helvetica,sans-Serif" font-size="10.00">TestsUnitaires::executer</text>
<text xml:space="preserve" text-anchor="middle" x="134.25" y="-69.5" font-family="Helvetica,sans-Serif" font-size="10.00">TousLesTests</text>
</a>
</g>
</g>
<!-- Node4&#45;&gt;Node5 -->
<g id="edge4_Node000004_Node000005" class="edge">
<title>Node4&#45;&gt;Node5</title>
<g id="a_edge4_Node000004_Node000005"><a xlink:title=" ">
<path fill="none" stroke="#63b8ff" d="M251.91,-122.83C244.99,-121.01 238.06,-119.06 231.5,-117 211.96,-110.87 190.73,-102.67 173.2,-95.45"/>
<polygon fill="#63b8ff" stroke="#63b8ff" points="250.72,-126.14 261.27,-125.19 252.43,-119.35 250.72,-126.14"/>
</a>
</g>
</g>
<!-- Node6 -->
<g id="Node000006" class="node">
<title>Node6</title>
<g id="a_Node000006"><a xlink:href="test__main_8cpp.html#ae66f6b31b5ad750f1fe042a706a4e3d4" target="_top" xlink:title="Programme principal pour exécuter les tests unitaires.">
<polygon fill="white" stroke="#666666" points="37,-89 0,-89 0,-69 37,-69 37,-89"/>
<text xml:space="preserve" text-anchor="middle" x="18.5" y="-75.5" font-family="Helvetica,sans-Serif" font-size="10.00">main</text>
</a>
</g>
</g>
<!-- Node5&#45;&gt;Node6 -->
<g id="edge5_Node000005_Node000006" class="edge">
<title>Node5&#45;&gt;Node6</title>
<g id="a_edge5_Node000005_Node000006"><a xlink:title=" ">
<path fill="none" stroke="#63b8ff" d="M61.32,-79C52.49,-79 44.18,-79 37.33,-79"/>
<polygon fill="#63b8ff" stroke="#63b8ff" points="61.2,-82.5 71.2,-79 61.2,-75.5 61.2,-82.5"/>
</a>
</g>
</g>
<!-- Node7&#45;&gt;Node5 -->
<g id="edge7_Node000007_Node000005" class="edge">
<title>Node7&#45;&gt;Node5</title>
<g id="a_edge7_Node000007_Node000005"><a xlink:title=" ">
<path fill="none" stroke="#63b8ff" d="M224.27,-88.57C214.67,-87.54 205.06,-86.5 195.89,-85.52"/>
<polygon fill="#63b8ff" stroke="#63b8ff" points="223.68,-92.03 234,-89.62 224.43,-85.07 223.68,-92.03"/>
</a>
</g>
</g>
<!-- Node8&#45;&gt;Node5 -->
<g id="edge9_Node000008_Node000005" class="edge">
<title>Node8&#45;&gt;Node5</title>
<g id="a_edge9_Node000008_Node000005"><a xlink:title=" ">
<path fill="none" stroke="#63b8ff" d="M219.74,-69.92C211.69,-70.78 203.68,-71.64 195.99,-72.47"/>
<polygon fill="#63b8ff" stroke="#63b8ff" points="220.05,-73.4 229.62,-68.86 219.3,-66.44 220.05,-73.4"/>
</a>
</g>
</g>
<!-- Node9&#45;&gt;Node5 -->
<g id="edge11_Node000009_Node000005" class="edge">
<title>Node9&#45;&gt;Node5</title>
<g id="a_edge11_Node000009_Node000005"><a xlink:title=" ">
<path fill="none" stroke="#63b8ff" d="M426.93,-17.25C371.75,-19.55 296.26,-25.59 231.5,-41 210.35,-46.03 187.69,-54.8 169.68,-62.64"/>
<polygon fill="#63b8ff" stroke="#63b8ff" points="427.01,-20.75 436.87,-16.87 426.74,-13.75 427.01,-20.75"/>
</a>
</g>
</g>
</g>
</svg>

<g id="navigator" transform="translate(0 0)" fill="#404254">
  <rect fill="#f2f5e9" fill-opacity="0.5" stroke="#606060" stroke-width=".5" x="0" y="0" width="60" height="60"/>
  <use id="zoomplus" xlink:href="#zoomPlus" x="17" y="9" onmousedown="handleZoom(evt,'in')"/>
  <use id="zoomminus" xlink:href="#zoomMin" x="42" y="9" onmousedown="handleZoom(evt,'out')"/>
  <use id="reset" xlink:href="#resetDef" x="30" y="36" onmousedown="handleReset()"/>
   <use id="arrowup" xlink:href="#arrowUp" x="0" y="0" onmousedown="handlePan(0,-1)"/>
  <use id="arrowright" xlink:href="#arrowRight" x="0" y="0" onmousedown="handlePan(1,0)"/>
  <use id="arrowdown" xlink:href="#arrowDown" x="0" y="0" onmousedown="handlePan(0,1)"/>
  <use id="arrowleft" xlink:href="#arrowLeft" x="0" y="0" onmousedown="handlePan(-1,0)"/>
</g>
<svg viewBox="0 0 15 15" width="100%" height="30px" preserveAspectRatio="xMaxYMin meet">
 <g id="arrow_out" transform="scale(0.3 0.3)">
  <a xlink:href="classGrille_a7073ca25319522d4602550da3dfb1d22_icgraph_org.svg" target="_base">
   <rect id="button" ry="5" rx="5" y="6" x="6" height="38" width="38"
        fill="#f2f5e9" fill-opacity="0.5" stroke="#606060" stroke-width="1.0"/>
   <path id="arrow"
     d="M 11.500037,31.436501 C 11.940474,20.09759 22.043105,11.32322 32.158766,21.979434 L 37.068811,17.246167 C 37.068811,17.246167 37.088388,32 37.088388,32 L 22.160133,31.978069 C 22.160133,31.978069 26.997745,27.140456 26.997745,27.140456 C 18.528582,18.264221 13.291696,25.230495 11.500037,31.436501 z"
     style="fill:#404040;"/>
  </a>
 </g>
</svg>

<style type='text/css'>
<![CDATA[
[data-mouse-over-selected='false'] { opacity: 0.7; }
[data-mouse-over-selected='true']  { opacity: 1.0; }
]]>
</style>
<script type="application/ecmascript"><![CDATA[
document.addEventListener('DOMContentLoaded', (event) => {
  highlightEdges();
  highlightAdjacentNodes();
});
]]></script>
</svg>
