<?xml version="1.0" encoding="UTF-8" standalone="no"?>
<!DOCTYPE svg PUBLIC "-//W3C//DTD SVG 1.1//EN"
 "http://www.w3.org/Graphics/SVG/1.1/DTD/svg11.dtd">
<!-- Generated by graphviz version 14.0.2 (20251019.1705)
 -->
<!-- Title: RegleStandard::calculerNouvelEtat Pages: 1 -->
<svg width="662pt" height="230pt"
 viewBox="0.00 0.00 662.00 230.00" xmlns="http://www.w3.org/2000/svg" xmlns:xlink="http://www.w3.org/1999/xlink">
<g id="graph0" class="graph" transform="scale(1 1) rotate(0) translate(4 226)">
<title>RegleStandard::calculerNouvelEtat</title>
<!-- Node1 -->
<g id="Node000001" class="node">
<title>Node1</title>
<g id="a_Node000001"><a xlink:title="Calcule le nouvel état d&#39;une cellule selon les règles du jeu.">
<polygon fill="#999999" stroke="#666666" points="169,-118 0,-118 0,-98 169,-98 169,-118"/>
<text xml:space="preserve" text-anchor="middle" x="84.5" y="-104.5" font-family="Helvetica,sans-Serif" font-size="10.00">RegleStandard::calculerNouvelEtat</text>
</a>
</g>
</g>
<!-- Node2 -->
<g id="Node000002" class="node">
<title>Node2</title>
<g id="a_Node000002"><a xlink:href="classEtatCellule.html#a40d064d2eb4ffdaf4ce5ffc290f23db0" target="_top" xlink:title="Crée une copie de l&#39;état.">
<polygon fill="white" stroke="#666666" points="329.75,-222 233.5,-222 233.5,-202 329.75,-202 329.75,-222"/>
<text xml:space="preserve" text-anchor="middle" x="281.62" y="-208.5" font-family="Helvetica,sans-Serif" font-size="10.00">EtatCellule::cloner</text>
</a>
</g>
</g>
<!-- Node1&#45;&gt;Node2 -->
<g id="edge1_Node000001_Node000002" class="edge">
<title>Node1&#45;&gt;Node2</title>
<g id="a_edge1_Node000001_Node000002"><a xlink:title=" ">
<path fill="none" stroke="#63b8ff" d="M98.37,-118.42C119.51,-135.11 163.38,-167.97 205,-188 212.77,-191.74 221.26,-195.08 229.65,-198"/>
<polygon fill="#63b8ff" stroke="#63b8ff" points="228.53,-201.32 239.12,-201.12 230.72,-194.67 228.53,-201.32"/>
</a>
</g>
</g>
<!-- Node3 -->
<g id="Node000003" class="node">
<title>Node3</title>
<g id="a_Node000003"><a xlink:href="classRegleStandard.html#ab892c4bd38ca021326c6188d0db0e421" target="_top" xlink:title="Compte le nombre de voisins vivants.">
<polygon fill="white" stroke="#666666" points="358.25,-146 205,-146 205,-114 358.25,-114 358.25,-146"/>
<text xml:space="preserve" text-anchor="start" x="213" y="-132.5" font-family="Helvetica,sans-Serif" font-size="10.00">RegleStandard::compterVoisins</text>
<text xml:space="preserve" text-anchor="middle" x="281.62" y="-120.5" font-family="Helvetica,sans-Serif" font-size="10.00">Vivants</text>
</a>
</g>
</g>
<!-- Node1&#45;&gt;Node3 -->
<g id="edge2_Node000001_Node000003" class="edge">
<title>Node1&#45;&gt;Node3</title>
<g id="a_edge2_Node000001_Node000003"><a xlink:title=" ">
<path fill="none" stroke="#63b8ff" d="M169.38,-117.46C177.32,-118.35 185.37,-119.26 193.34,-120.16"/>
<polygon fill="#63b8ff" stroke="#63b8ff" points="192.68,-123.61 203.01,-121.25 193.46,-116.65 192.68,-123.61"/>
</a>
</g>
</g>
<!-- Node5 -->
<g id="Node000005" class="node">
<title>Node5</title>
<g id="a_Node000005"><a xlink:href="classCellule.html#a70d2731234961e330fe0a31486d1dec7" target="_top" xlink:title="Vérifie si la cellule est vivante.">
<polygon fill="white" stroke="#666666" points="495.38,-99 396.88,-99 396.88,-79 495.38,-79 495.38,-99"/>
<text xml:space="preserve" text-anchor="middle" x="446.12" y="-85.5" font-family="Helvetica,sans-Serif" font-size="10.00">Cellule::estVivante</text>
</a>
</g>
</g>
<!-- Node1&#45;&gt;Node5 -->
<g id="edge8_Node000001_Node000005" class="edge">
<title>Node1&#45;&gt;Node5</title>
<g id="a_edge8_Node000001_Node000005"><a xlink:title=" ">
<path fill="none" stroke="#63b8ff" d="M169.36,-103.57C235.52,-100.07 326.18,-95.28 385.2,-92.17"/>
<polygon fill="#63b8ff" stroke="#63b8ff" points="385.25,-95.67 395.05,-91.65 384.88,-88.68 385.25,-95.67"/>
</a>
</g>
</g>
<!-- Node6 -->
<g id="Node000006" class="node">
<title>Node6</title>
<g id="a_Node000006"><a xlink:href="classGrille.html#aab75610fe73ae48bd035a048c55832f0" target="_top" xlink:title="Obtient une cellule à une position donnée.">
<polygon fill="white" stroke="#666666" points="498,-178 394.25,-178 394.25,-158 498,-158 498,-178"/>
<text xml:space="preserve" text-anchor="middle" x="446.12" y="-164.5" font-family="Helvetica,sans-Serif" font-size="10.00">Grille::obtenirCellule</text>
</a>
</g>
</g>
<!-- Node1&#45;&gt;Node6 -->
<g id="edge9_Node000001_Node000006" class="edge">
<title>Node1&#45;&gt;Node6</title>
<g id="a_edge9_Node000001_Node000006"><a xlink:title=" ">
<path fill="none" stroke="#63b8ff" d="M106.02,-118.42C129.33,-129.7 168.84,-147.13 205,-155 264.29,-167.91 333.66,-170.35 382.55,-170.05"/>
<polygon fill="#63b8ff" stroke="#63b8ff" points="382.43,-173.55 392.39,-169.94 382.35,-166.55 382.43,-173.55"/>
</a>
</g>
</g>
<!-- Node7 -->
<g id="Node000007" class="node">
<title>Node7</title>
<g id="a_Node000007"><a xlink:href="classCellule.html#a4e34ac281afdba1d793fbd0239022a5e" target="_top" xlink:title="Vérifie si la cellule est un obstacle.">
<polygon fill="white" stroke="#666666" points="333.88,-58 229.38,-58 229.38,-38 333.88,-38 333.88,-58"/>
<text xml:space="preserve" text-anchor="middle" x="281.62" y="-44.5" font-family="Helvetica,sans-Serif" font-size="10.00">Cellule::estObstacle</text>
</a>
</g>
</g>
<!-- Node1&#45;&gt;Node7 -->
<g id="edge7_Node000001_Node000007" class="edge">
<title>Node1&#45;&gt;Node7</title>
<g id="a_edge7_Node000001_Node000007"><a xlink:title=" ">
<path fill="none" stroke="#63b8ff" d="M119.49,-97.55C151.71,-87.64 200.31,-72.7 235.71,-61.81"/>
<polygon fill="#63b8ff" stroke="#63b8ff" points="236.72,-65.16 245.25,-58.88 234.67,-58.47 236.72,-65.16"/>
</a>
</g>
</g>
<!-- Node8 -->
<g id="Node000008" class="node">
<title>Node8</title>
<g id="a_Node000008"><a xlink:href="classCellule.html#a4eecc7c38f6d8fa642804d9c7472d05e" target="_top" xlink:title="Obtient l&#39;état actuel de la cellule.">
<polygon fill="white" stroke="#666666" points="331.25,-20 232,-20 232,0 331.25,0 331.25,-20"/>
<text xml:space="preserve" text-anchor="middle" x="281.62" y="-6.5" font-family="Helvetica,sans-Serif" font-size="10.00">Cellule::obtenirEtat</text>
</a>
</g>
</g>
<!-- Node1&#45;&gt;Node8 -->
<g id="edge10_Node000001_Node000008" class="edge">
<title>Node1&#45;&gt;Node8</title>
<g id="a_edge10_Node000001_Node000008"><a xlink:title=" ">
<path fill="none" stroke="#63b8ff" d="M97.92,-97.69C118.77,-80.91 162.67,-47.66 205,-29 210.13,-26.74 215.59,-24.71 221.12,-22.9"/>
<polygon fill="#63b8ff" stroke="#63b8ff" points="221.79,-26.35 230.35,-20.12 219.77,-19.65 221.79,-26.35"/>
</a>
</g>
</g>
<!-- Node4 -->
<g id="Node000004" class="node">
<title>Node4</title>
<g id="a_Node000004"><a xlink:href="classGrille.html#aa4c9ce36bb4f2c59a83aeb39d73fc285" target="_top" xlink:title="Vérifie si une position est valide dans la grille.">
<polygon fill="white" stroke="#666666" points="653.5,-159 534,-159 534,-139 653.5,-139 653.5,-159"/>
<text xml:space="preserve" text-anchor="middle" x="593.75" y="-145.5" font-family="Helvetica,sans-Serif" font-size="10.00">Grille::estPositionValide</text>
</a>
</g>
</g>
<!-- Node3&#45;&gt;Node4 -->
<g id="edge3_Node000003_Node000004" class="edge">
<title>Node3&#45;&gt;Node4</title>
<g id="a_edge3_Node000003_Node000004"><a xlink:title=" ">
<path fill="none" stroke="#63b8ff" d="M358.49,-134.65C408.46,-137.71 473.43,-141.69 522.27,-144.68"/>
<polygon fill="#63b8ff" stroke="#63b8ff" points="521.98,-148.17 532.18,-145.29 522.41,-141.18 521.98,-148.17"/>
</a>
</g>
</g>
<!-- Node3&#45;&gt;Node5 -->
<g id="edge4_Node000003_Node000005" class="edge">
<title>Node3&#45;&gt;Node5</title>
<g id="a_edge4_Node000003_Node000005"><a xlink:title=" ">
<path fill="none" stroke="#63b8ff" d="M347.78,-113.56C362.69,-109.8 378.36,-105.85 392.65,-102.24"/>
<polygon fill="#63b8ff" stroke="#63b8ff" points="393.48,-105.64 402.32,-99.8 391.77,-98.85 393.48,-105.64"/>
</a>
</g>
</g>
<!-- Node3&#45;&gt;Node6 -->
<g id="edge5_Node000003_Node000006" class="edge">
<title>Node3&#45;&gt;Node6</title>
<g id="a_edge5_Node000003_Node000006"><a xlink:title=" ">
<path fill="none" stroke="#63b8ff" d="M352.95,-146.45C365.18,-149.3 377.73,-152.24 389.49,-154.99"/>
<polygon fill="#63b8ff" stroke="#63b8ff" points="388.47,-158.35 399.01,-157.22 390.07,-151.53 388.47,-158.35"/>
</a>
</g>
</g>
<!-- Node6&#45;&gt;Node4 -->
<g id="edge6_Node000006_Node000004" class="edge">
<title>Node6&#45;&gt;Node4</title>
<g id="a_edge6_Node000006_Node000004"><a xlink:title=" ">
<path fill="none" stroke="#63b8ff" d="M498.47,-161.3C506.2,-160.29 514.29,-159.24 522.35,-158.19"/>
<polygon fill="#63b8ff" stroke="#63b8ff" points="522.7,-161.67 532.16,-156.9 521.79,-154.73 522.7,-161.67"/>
</a>
</g>
</g>
</g>
</svg>
