<?xml version="1.0" encoding="UTF-8" standalone="no"?>
<!DOCTYPE svg PUBLIC "-//W3C//DTD SVG 1.1//EN"
 "http://www.w3.org/Graphics/SVG/1.1/DTD/svg11.dtd">
<!-- Generated by graphviz version 14.0.2 (20251019.1705)
 -->
<!-- Title: InterfaceSFML::dessinerInformations Pages: 1 -->
<svg width="505pt" height="142pt"
 viewBox="0.00 0.00 505.00 142.00" xmlns="http://www.w3.org/2000/svg" xmlns:xlink="http://www.w3.org/1999/xlink">
<g id="graph0" class="graph" transform="scale(1 1) rotate(0) translate(4 138)">
<title>InterfaceSFML::dessinerInformations</title>
<!-- Node1 -->
<g id="Node000001" class="node">
<title>Node1</title>
<g id="a_Node000001"><a xlink:title="Dessine les informations à l&#39;écran.">
<polygon fill="#999999" stroke="#666666" points="177.25,-77 0,-77 0,-57 177.25,-57 177.25,-77"/>
<text xml:space="preserve" text-anchor="middle" x="88.62" y="-63.5" font-family="Helvetica,sans-Serif" font-size="10.00">InterfaceSFML::dessinerInformations</text>
</a>
</g>
</g>
<!-- Node2 -->
<g id="Node000002" class="node">
<title>Node2</title>
<g id="a_Node000002"><a xlink:href="classCellule.html#a70d2731234961e330fe0a31486d1dec7" target="_top" xlink:title="Vérifie si la cellule est vivante.">
<polygon fill="white" stroke="#666666" points="326.38,-134 227.88,-134 227.88,-114 326.38,-114 326.38,-134"/>
<text xml:space="preserve" text-anchor="middle" x="277.12" y="-120.5" font-family="Helvetica,sans-Serif" font-size="10.00">Cellule::estVivante</text>
</a>
</g>
</g>
<!-- Node1&#45;&gt;Node2 -->
<g id="edge1_Node000001_Node000002" class="edge">
<title>Node1&#45;&gt;Node2</title>
<g id="a_edge1_Node000001_Node000002"><a xlink:title=" ">
<path fill="none" stroke="#63b8ff" d="M123.46,-77.45C148.29,-85.1 182.86,-95.74 213.25,-105 218.83,-106.7 224.7,-108.48 230.51,-110.24"/>
<polygon fill="#63b8ff" stroke="#63b8ff" points="229.49,-113.59 240.08,-113.14 231.52,-106.89 229.49,-113.59"/>
</a>
</g>
</g>
<!-- Node3 -->
<g id="Node000003" class="node">
<title>Node3</title>
<g id="a_Node000003"><a xlink:href="classGrille.html#aab75610fe73ae48bd035a048c55832f0" target="_top" xlink:title="Obtient une cellule à une position donnée.">
<polygon fill="white" stroke="#666666" points="329,-96 225.25,-96 225.25,-76 329,-76 329,-96"/>
<text xml:space="preserve" text-anchor="middle" x="277.12" y="-82.5" font-family="Helvetica,sans-Serif" font-size="10.00">Grille::obtenirCellule</text>
</a>
</g>
</g>
<!-- Node1&#45;&gt;Node3 -->
<g id="edge2_Node000001_Node000003" class="edge">
<title>Node1&#45;&gt;Node3</title>
<g id="a_edge2_Node000001_Node000003"><a xlink:title=" ">
<path fill="none" stroke="#63b8ff" d="M177.69,-75.97C189.78,-77.2 201.99,-78.45 213.51,-79.62"/>
<polygon fill="#63b8ff" stroke="#63b8ff" points="212.95,-83.08 223.25,-80.61 213.66,-76.12 212.95,-83.08"/>
</a>
</g>
</g>
<!-- Node5 -->
<g id="Node000005" class="node">
<title>Node5</title>
<g id="a_Node000005"><a xlink:href="classGrille.html#a1ab5c8e0ea0d1dc21549c38d0f0f5cf9" target="_top" xlink:title="Obtient le nombre de colonnes.">
<polygon fill="white" stroke="#666666" points="341,-58 213.25,-58 213.25,-38 341,-38 341,-58"/>
<text xml:space="preserve" text-anchor="middle" x="277.12" y="-44.5" font-family="Helvetica,sans-Serif" font-size="10.00">Grille::obtenirNbColonnes</text>
</a>
</g>
</g>
<!-- Node1&#45;&gt;Node5 -->
<g id="edge4_Node000001_Node000005" class="edge">
<title>Node1&#45;&gt;Node5</title>
<g id="a_edge4_Node000001_Node000005"><a xlink:title=" ">
<path fill="none" stroke="#63b8ff" d="M177.69,-58.03C185.67,-57.22 193.71,-56.4 201.56,-55.6"/>
<polygon fill="#63b8ff" stroke="#63b8ff" points="201.8,-59.09 211.39,-54.59 201.09,-52.13 201.8,-59.09"/>
</a>
</g>
</g>
<!-- Node6 -->
<g id="Node000006" class="node">
<title>Node6</title>
<g id="a_Node000006"><a xlink:href="classGrille.html#a96b5f98d212a0ee9e2f71d73ebe5bb91" target="_top" xlink:title="Obtient le nombre de lignes.">
<polygon fill="white" stroke="#666666" points="334.62,-20 219.62,-20 219.62,0 334.62,0 334.62,-20"/>
<text xml:space="preserve" text-anchor="middle" x="277.12" y="-6.5" font-family="Helvetica,sans-Serif" font-size="10.00">Grille::obtenirNbLignes</text>
</a>
</g>
</g>
<!-- Node1&#45;&gt;Node6 -->
<g id="edge5_Node000001_Node000006" class="edge">
<title>Node1&#45;&gt;Node6</title>
<g id="a_edge5_Node000001_Node000006"><a xlink:title=" ">
<path fill="none" stroke="#63b8ff" d="M123.46,-56.55C148.29,-48.9 182.86,-38.26 213.25,-29 218.83,-27.3 224.7,-25.52 230.51,-23.76"/>
<polygon fill="#63b8ff" stroke="#63b8ff" points="231.52,-27.11 240.08,-20.86 229.49,-20.41 231.52,-27.11"/>
</a>
</g>
</g>
<!-- Node4 -->
<g id="Node000004" class="node">
<title>Node4</title>
<g id="a_Node000004"><a xlink:href="classGrille.html#aa4c9ce36bb4f2c59a83aeb39d73fc285" target="_top" xlink:title="Vérifie si une position est valide dans la grille.">
<polygon fill="white" stroke="#666666" points="496.5,-96 377,-96 377,-76 496.5,-76 496.5,-96"/>
<text xml:space="preserve" text-anchor="middle" x="436.75" y="-82.5" font-family="Helvetica,sans-Serif" font-size="10.00">Grille::estPositionValide</text>
</a>
</g>
</g>
<!-- Node3&#45;&gt;Node4 -->
<g id="edge3_Node000003_Node000004" class="edge">
<title>Node3&#45;&gt;Node4</title>
<g id="a_edge3_Node000003_Node000004"><a xlink:title=" ">
<path fill="none" stroke="#63b8ff" d="M329.3,-86C340.75,-86 353.08,-86 365.16,-86"/>
<polygon fill="#63b8ff" stroke="#63b8ff" points="365.1,-89.5 375.1,-86 365.1,-82.5 365.1,-89.5"/>
</a>
</g>
</g>
</g>
</svg>
