<?xml version="1.0" encoding="UTF-8" standalone="no"?>
<!DOCTYPE svg PUBLIC "-//W3C//DTD SVG 1.1//EN"
 "http://www.w3.org/Graphics/SVG/1.1/DTD/svg11.dtd">
<!-- Generated by graphviz version 14.0.2 (20251019.1705)
 -->
<!-- Title: ModeConsole::executer Pages: 1 -->
<svg width="790pt" height="256pt"
 viewBox="0.00 0.00 790.00 256.00" xmlns="http://www.w3.org/2000/svg" xmlns:xlink="http://www.w3.org/1999/xlink">
<g id="graph0" class="graph" transform="scale(1 1) rotate(0) translate(4 252)">
<title>ModeConsole::executer</title>
<!-- Node1 -->
<g id="Node000001" class="node">
<title>Node1</title>
<g id="a_Node000001"><a xlink:title="Exécute le mode console.">
<polygon fill="#999999" stroke="#666666" points="119.5,-136 0,-136 0,-116 119.5,-116 119.5,-136"/>
<text xml:space="preserve" text-anchor="middle" x="59.75" y="-122.5" font-family="Helvetica,sans-Serif" font-size="10.00">ModeConsole::executer</text>
</a>
</g>
</g>
<!-- Node2 -->
<g id="Node000002" class="node">
<title>Node2</title>
<g id="a_Node000002"><a xlink:href="classModeConsole.html#ae77e7a8e7b14d611164441ecf12d3433" target="_top" xlink:title="Affiche la grille dans la console.">
<polygon fill="white" stroke="#666666" points="462.75,-170 326.75,-170 326.75,-150 462.75,-150 462.75,-170"/>
<text xml:space="preserve" text-anchor="middle" x="394.75" y="-156.5" font-family="Helvetica,sans-Serif" font-size="10.00">ModeConsole::afficherGrille</text>
</a>
</g>
</g>
<!-- Node1&#45;&gt;Node2 -->
<g id="edge1_Node000001_Node000002" class="edge">
<title>Node1&#45;&gt;Node2</title>
<g id="a_edge1_Node000001_Node000002"><a xlink:title=" ">
<path fill="none" stroke="#63b8ff" d="M119.9,-132.04C174.24,-137.59 255.18,-145.85 314.98,-151.96"/>
<polygon fill="#63b8ff" stroke="#63b8ff" points="314.46,-155.42 324.76,-152.96 315.17,-148.46 314.46,-155.42"/>
</a>
</g>
</g>
<!-- Node9 -->
<g id="Node000009" class="node">
<title>Node9</title>
<g id="a_Node000009"><a xlink:href="classModeConsole.html#a75b55e1983d7ca8dbbb4ebec6a68589d" target="_top" xlink:title="Sauvegarde la grille actuelle dans un fichier.">
<polygon fill="white" stroke="#666666" points="290.75,-120 155.5,-120 155.5,-88 290.75,-88 290.75,-120"/>
<text xml:space="preserve" text-anchor="start" x="163.5" y="-106.5" font-family="Helvetica,sans-Serif" font-size="10.00">ModeConsole::sauvegarder</text>
<text xml:space="preserve" text-anchor="middle" x="223.12" y="-94.5" font-family="Helvetica,sans-Serif" font-size="10.00">Iteration</text>
</a>
</g>
</g>
<!-- Node1&#45;&gt;Node9 -->
<g id="edge8_Node000001_Node000009" class="edge">
<title>Node1&#45;&gt;Node9</title>
<g id="a_edge8_Node000001_Node000009"><a xlink:title=" ">
<path fill="none" stroke="#63b8ff" d="M119.92,-117.93C127.69,-116.87 135.74,-115.78 143.76,-114.68"/>
<polygon fill="#63b8ff" stroke="#63b8ff" points="144.11,-118.17 153.55,-113.35 143.17,-111.23 144.11,-118.17"/>
</a>
</g>
</g>
<!-- Node3 -->
<g id="Node000003" class="node">
<title>Node3</title>
<g id="a_Node000003"><a xlink:href="classCellule.html#a4e34ac281afdba1d793fbd0239022a5e" target="_top" xlink:title="Vérifie si la cellule est un obstacle.">
<polygon fill="white" stroke="#666666" points="614.88,-210 510.38,-210 510.38,-190 614.88,-190 614.88,-210"/>
<text xml:space="preserve" text-anchor="middle" x="562.62" y="-196.5" font-family="Helvetica,sans-Serif" font-size="10.00">Cellule::estObstacle</text>
</a>
</g>
</g>
<!-- Node2&#45;&gt;Node3 -->
<g id="edge2_Node000002_Node000003" class="edge">
<title>Node2&#45;&gt;Node3</title>
<g id="a_edge2_Node000002_Node000003"><a xlink:title=" ">
<path fill="none" stroke="#63b8ff" d="M438.9,-170.41C459.76,-175.43 485.01,-181.53 507.18,-186.87"/>
<polygon fill="#63b8ff" stroke="#63b8ff" points="506.1,-190.21 516.64,-189.15 507.74,-183.41 506.1,-190.21"/>
</a>
</g>
</g>
<!-- Node4 -->
<g id="Node000004" class="node">
<title>Node4</title>
<g id="a_Node000004"><a xlink:href="classCellule.html#a70d2731234961e330fe0a31486d1dec7" target="_top" xlink:title="Vérifie si la cellule est vivante.">
<polygon fill="white" stroke="#666666" points="611.88,-248 513.38,-248 513.38,-228 611.88,-228 611.88,-248"/>
<text xml:space="preserve" text-anchor="middle" x="562.62" y="-234.5" font-family="Helvetica,sans-Serif" font-size="10.00">Cellule::estVivante</text>
</a>
</g>
</g>
<!-- Node2&#45;&gt;Node4 -->
<g id="edge3_Node000002_Node000004" class="edge">
<title>Node2&#45;&gt;Node4</title>
<g id="a_edge3_Node000002_Node000004"><a xlink:title=" ">
<path fill="none" stroke="#63b8ff" d="M411.23,-170.36C430.89,-183.16 466.2,-204.97 498.75,-219 502.82,-220.75 507.1,-222.41 511.43,-223.96"/>
<polygon fill="#63b8ff" stroke="#63b8ff" points="510.2,-227.24 520.79,-227.11 512.43,-220.6 510.2,-227.24"/>
</a>
</g>
</g>
<!-- Node5 -->
<g id="Node000005" class="node">
<title>Node5</title>
<g id="a_Node000005"><a xlink:href="classGrille.html#aab75610fe73ae48bd035a048c55832f0" target="_top" xlink:title="Obtient une cellule à une position donnée.">
<polygon fill="white" stroke="#666666" points="614.5,-172 510.75,-172 510.75,-152 614.5,-152 614.5,-172"/>
<text xml:space="preserve" text-anchor="middle" x="562.62" y="-158.5" font-family="Helvetica,sans-Serif" font-size="10.00">Grille::obtenirCellule</text>
</a>
</g>
</g>
<!-- Node2&#45;&gt;Node5 -->
<g id="edge4_Node000002_Node000005" class="edge">
<title>Node2&#45;&gt;Node5</title>
<g id="a_edge4_Node000002_Node000005"><a xlink:title=" ">
<path fill="none" stroke="#63b8ff" d="M463.22,-160.81C475.06,-160.96 487.33,-161.1 499.03,-161.25"/>
<polygon fill="#63b8ff" stroke="#63b8ff" points="498.95,-164.74 508.99,-161.37 499.03,-157.74 498.95,-164.74"/>
</a>
</g>
</g>
<!-- Node7 -->
<g id="Node000007" class="node">
<title>Node7</title>
<g id="a_Node000007"><a xlink:href="classGrille.html#a1ab5c8e0ea0d1dc21549c38d0f0f5cf9" target="_top" xlink:title="Obtient le nombre de colonnes.">
<polygon fill="white" stroke="#666666" points="626.5,-134 498.75,-134 498.75,-114 626.5,-114 626.5,-134"/>
<text xml:space="preserve" text-anchor="middle" x="562.62" y="-120.5" font-family="Helvetica,sans-Serif" font-size="10.00">Grille::obtenirNbColonnes</text>
</a>
</g>
</g>
<!-- Node2&#45;&gt;Node7 -->
<g id="edge6_Node000002_Node000007" class="edge">
<title>Node2&#45;&gt;Node7</title>
<g id="a_edge6_Node000002_Node000007"><a xlink:title=" ">
<path fill="none" stroke="#63b8ff" d="M443.73,-149.59C462.04,-145.61 483.15,-141.03 502.39,-136.86"/>
<polygon fill="#63b8ff" stroke="#63b8ff" points="502.96,-140.31 511.99,-134.77 501.47,-133.47 502.96,-140.31"/>
</a>
</g>
</g>
<!-- Node8 -->
<g id="Node000008" class="node">
<title>Node8</title>
<g id="a_Node000008"><a xlink:href="classGrille.html#a96b5f98d212a0ee9e2f71d73ebe5bb91" target="_top" xlink:title="Obtient le nombre de lignes.">
<polygon fill="white" stroke="#666666" points="620.12,-96 505.12,-96 505.12,-76 620.12,-76 620.12,-96"/>
<text xml:space="preserve" text-anchor="middle" x="562.62" y="-82.5" font-family="Helvetica,sans-Serif" font-size="10.00">Grille::obtenirNbLignes</text>
</a>
</g>
</g>
<!-- Node2&#45;&gt;Node8 -->
<g id="edge7_Node000002_Node000008" class="edge">
<title>Node2&#45;&gt;Node8</title>
<g id="a_edge7_Node000002_Node000008"><a xlink:title=" ">
<path fill="none" stroke="#63b8ff" d="M412.74,-149.58C432.75,-137.63 467.28,-118.01 498.75,-105 503.02,-103.24 507.51,-101.55 512.05,-99.97"/>
<polygon fill="#63b8ff" stroke="#63b8ff" points="512.8,-103.41 521.2,-96.95 510.6,-96.76 512.8,-103.41"/>
</a>
</g>
</g>
<!-- Node6 -->
<g id="Node000006" class="node">
<title>Node6</title>
<g id="a_Node000006"><a xlink:href="classGrille.html#aa4c9ce36bb4f2c59a83aeb39d73fc285" target="_top" xlink:title="Vérifie si une position est valide dans la grille.">
<polygon fill="white" stroke="#666666" points="782,-172 662.5,-172 662.5,-152 782,-152 782,-172"/>
<text xml:space="preserve" text-anchor="middle" x="722.25" y="-158.5" font-family="Helvetica,sans-Serif" font-size="10.00">Grille::estPositionValide</text>
</a>
</g>
</g>
<!-- Node5&#45;&gt;Node6 -->
<g id="edge5_Node000005_Node000006" class="edge">
<title>Node5&#45;&gt;Node6</title>
<g id="a_edge5_Node000005_Node000006"><a xlink:title=" ">
<path fill="none" stroke="#63b8ff" d="M614.8,-162C626.25,-162 638.58,-162 650.66,-162"/>
<polygon fill="#63b8ff" stroke="#63b8ff" points="650.6,-165.5 660.6,-162 650.6,-158.5 650.6,-165.5"/>
</a>
</g>
</g>
<!-- Node10 -->
<g id="Node000010" class="node">
<title>Node10</title>
<g id="a_Node000010"><a xlink:href="classGestionnaireFichier.html#a7f617aede460be3b06c7dd842d7e2732" target="_top" xlink:title="Sauvegarde une grille dans un fichier.">
<polygon fill="white" stroke="#666666" points="444.75,-104 344.75,-104 344.75,-72 444.75,-72 444.75,-104"/>
<text xml:space="preserve" text-anchor="start" x="352.75" y="-90.5" font-family="Helvetica,sans-Serif" font-size="10.00">GestionnaireFichier</text>
<text xml:space="preserve" text-anchor="middle" x="394.75" y="-78.5" font-family="Helvetica,sans-Serif" font-size="10.00">::sauvegarderGrille</text>
</a>
</g>
</g>
<!-- Node9&#45;&gt;Node10 -->
<g id="edge9_Node000009_Node000010" class="edge">
<title>Node9&#45;&gt;Node10</title>
<g id="a_edge9_Node000009_Node000010"><a xlink:title=" ">
<path fill="none" stroke="#63b8ff" d="M291.17,-97.68C305.06,-96.37 319.61,-94.99 333.25,-93.71"/>
<polygon fill="#63b8ff" stroke="#63b8ff" points="333.33,-97.22 342.95,-92.79 332.67,-90.25 333.33,-97.22"/>
</a>
</g>
</g>
<!-- Node10&#45;&gt;Node5 -->
<g id="edge10_Node000010_Node000005" class="edge">
<title>Node10&#45;&gt;Node5</title>
<g id="a_edge10_Node000010_Node000005"><a xlink:title=" ">
<path fill="none" stroke="#63b8ff" d="M423.01,-104.46C443.37,-116.28 472.15,-132 498.75,-143 503.02,-144.76 507.51,-146.45 512.05,-148.03"/>
<polygon fill="#63b8ff" stroke="#63b8ff" points="510.6,-151.24 521.2,-151.05 512.8,-144.59 510.6,-151.24"/>
</a>
</g>
</g>
<!-- Node10&#45;&gt;Node7 -->
<g id="edge12_Node000010_Node000007" class="edge">
<title>Node10&#45;&gt;Node7</title>
<g id="a_edge12_Node000010_Node000007"><a xlink:title=" ">
<path fill="none" stroke="#63b8ff" d="M445.07,-98.7C463.03,-102.6 483.52,-107.05 502.25,-111.11"/>
<polygon fill="#63b8ff" stroke="#63b8ff" points="501.36,-114.5 511.87,-113.2 502.84,-107.66 501.36,-114.5"/>
</a>
</g>
</g>
<!-- Node10&#45;&gt;Node8 -->
<g id="edge13_Node000010_Node000008" class="edge">
<title>Node10&#45;&gt;Node8</title>
<g id="a_edge13_Node000010_Node000008"><a xlink:title=" ">
<path fill="none" stroke="#63b8ff" d="M445.07,-87.41C460.35,-87.22 477.47,-87.01 493.79,-86.82"/>
<polygon fill="#63b8ff" stroke="#63b8ff" points="493.45,-90.32 503.41,-86.7 493.37,-83.32 493.45,-90.32"/>
</a>
</g>
</g>
<!-- Node11 -->
<g id="Node000011" class="node">
<title>Node11</title>
<g id="a_Node000011"><a xlink:href="classCellule.html#a4eecc7c38f6d8fa642804d9c7472d05e" target="_top" xlink:title="Obtient l&#39;état actuel de la cellule.">
<polygon fill="white" stroke="#666666" points="612.25,-20 513,-20 513,0 612.25,0 612.25,-20"/>
<text xml:space="preserve" text-anchor="middle" x="562.62" y="-6.5" font-family="Helvetica,sans-Serif" font-size="10.00">Cellule::obtenirEtat</text>
</a>
</g>
</g>
<!-- Node10&#45;&gt;Node11 -->
<g id="edge11_Node000010_Node000011" class="edge">
<title>Node10&#45;&gt;Node11</title>
<g id="a_edge11_Node000010_Node000011"><a xlink:title=" ">
<path fill="none" stroke="#63b8ff" d="M420.74,-71.54C441.1,-58.66 470.93,-40.99 498.75,-29 502.82,-27.25 507.1,-25.59 511.43,-24.04"/>
<polygon fill="#63b8ff" stroke="#63b8ff" points="512.43,-27.4 520.79,-20.89 510.2,-20.76 512.43,-27.4"/>
</a>
</g>
</g>
<!-- Node12 -->
<g id="Node000012" class="node">
<title>Node12</title>
<g id="a_Node000012"><a xlink:href="classEtatCellule.html#a951476a3806853a1db9ed7303171162c" target="_top" xlink:title="Obtient la valeur entière de l&#39;état (pour sauvegarder).">
<polygon fill="white" stroke="#666666" points="619.75,-58 505.5,-58 505.5,-38 619.75,-38 619.75,-58"/>
<text xml:space="preserve" text-anchor="middle" x="562.62" y="-44.5" font-family="Helvetica,sans-Serif" font-size="10.00">EtatCellule::versEntier</text>
</a>
</g>
</g>
<!-- Node10&#45;&gt;Node12 -->
<g id="edge14_Node000010_Node000012" class="edge">
<title>Node10&#45;&gt;Node12</title>
<g id="a_edge14_Node000010_Node000012"><a xlink:title=" ">
<path fill="none" stroke="#63b8ff" d="M445.07,-76.11C464.56,-71.41 487.03,-65.99 507.01,-61.17"/>
<polygon fill="#63b8ff" stroke="#63b8ff" points="507.76,-64.59 516.66,-58.84 506.12,-57.79 507.76,-64.59"/>
</a>
</g>
</g>
</g>
</svg>
