<?xml version="1.0" encoding="UTF-8" standalone="no"?>
<!DOCTYPE svg PUBLIC "-//W3C//DTD SVG 1.1//EN"
 "http://www.w3.org/Graphics/SVG/1.1/DTD/svg11.dtd">
<!-- Generated by graphviz version 14.0.2 (20251019.1705)
 -->
<!-- Title: Grille::mettreAJour Pages: 1 -->
<svg width="723pt" height="154pt"
 viewBox="0.00 0.00 723.00 154.00" xmlns="http://www.w3.org/2000/svg" xmlns:xlink="http://www.w3.org/1999/xlink">
<g id="graph0" class="graph" transform="scale(1 1) rotate(0) translate(4 150)">
<title>Grille::mettreAJour</title>
<!-- Node1 -->
<g id="Node000001" class="node">
<title>Node1</title>
<g id="a_Node000001"><a xlink:title="Met à jour la grille pour passer à l&#39;itération suivante.">
<polygon fill="#999999" stroke="#666666" points="714.5,-70 616.75,-70 616.75,-50 714.5,-50 714.5,-70"/>
<text xml:space="preserve" text-anchor="middle" x="665.62" y="-56.5" font-family="Helvetica,sans-Serif" font-size="10.00">Grille::mettreAJour</text>
</a>
</g>
</g>
<!-- Node2 -->
<g id="Node000002" class="node">
<title>Node2</title>
<g id="a_Node000002"><a xlink:href="classTestsUnitaires.html#a1fea61fb0483bb1f7e0284d828ad347f" target="_top" xlink:title="Teste l&#39;évolution d&#39;une grille après n itérations.">
<polygon fill="white" stroke="#666666" points="580.75,-108 430.5,-108 430.5,-88 580.75,-88 580.75,-108"/>
<text xml:space="preserve" text-anchor="middle" x="505.62" y="-94.5" font-family="Helvetica,sans-Serif" font-size="10.00">TestsUnitaires::testerEvolution</text>
</a>
</g>
</g>
<!-- Node1&#45;&gt;Node2 -->
<g id="edge1_Node000001_Node000002" class="edge">
<title>Node1&#45;&gt;Node2</title>
<g id="a_edge1_Node000001_Node000002"><a xlink:title=" ">
<path fill="none" stroke="#63b8ff" d="M610.09,-73.12C590.47,-77.83 568.62,-83.09 550.08,-87.55"/>
<polygon fill="#63b8ff" stroke="#63b8ff" points="610.66,-76.58 619.56,-70.84 609.02,-69.77 610.66,-76.58"/>
</a>
</g>
</g>
<!-- Node7 -->
<g id="Node000007" class="node">
<title>Node7</title>
<g id="a_Node000007"><a xlink:href="classTestsUnitaires.html#a668b40e7c9824be78af8cfd427b4aa58" target="_top" xlink:title="Teste les règles de base.">
<polygon fill="white" stroke="#666666" points="394.5,-70 231.5,-70 231.5,-50 394.5,-50 394.5,-70"/>
<text xml:space="preserve" text-anchor="middle" x="313" y="-56.5" font-family="Helvetica,sans-Serif" font-size="10.00">TestsUnitaires::testerReglesBase</text>
</a>
</g>
</g>
<!-- Node1&#45;&gt;Node7 -->
<g id="edge11_Node000001_Node000007" class="edge">
<title>Node1&#45;&gt;Node7</title>
<g id="a_edge11_Node000001_Node000007"><a xlink:title=" ">
<path fill="none" stroke="#63b8ff" d="M605.1,-60C547.21,-60 458.86,-60 394.68,-60"/>
<polygon fill="#63b8ff" stroke="#63b8ff" points="605.09,-63.5 615.09,-60 605.09,-56.5 605.09,-63.5"/>
</a>
</g>
</g>
<!-- Node8 -->
<g id="Node000008" class="node">
<title>Node8</title>
<g id="a_Node000008"><a xlink:href="classTestsUnitaires.html#ac0c01e1e24de9cb73d81593c96fa34bb" target="_top" xlink:title="Teste la grille torique.">
<polygon fill="white" stroke="#666666" points="572.5,-32 438.75,-32 438.75,0 572.5,0 572.5,-32"/>
<text xml:space="preserve" text-anchor="start" x="446.75" y="-18.5" font-family="Helvetica,sans-Serif" font-size="10.00">TestsUnitaires::testerMode</text>
<text xml:space="preserve" text-anchor="middle" x="505.62" y="-6.5" font-family="Helvetica,sans-Serif" font-size="10.00">Torique</text>
</a>
</g>
</g>
<!-- Node1&#45;&gt;Node8 -->
<g id="edge9_Node000001_Node000008" class="edge">
<title>Node1&#45;&gt;Node8</title>
<g id="a_edge9_Node000001_Node000008"><a xlink:title=" ">
<path fill="none" stroke="#63b8ff" d="M616.46,-46.59C600.46,-42.13 582.46,-37.12 565.73,-32.46"/>
<polygon fill="#63b8ff" stroke="#63b8ff" points="615.15,-49.86 625.72,-49.17 617.03,-43.11 615.15,-49.86"/>
</a>
</g>
</g>
<!-- Node3 -->
<g id="Node000003" class="node">
<title>Node3</title>
<g id="a_Node000003"><a xlink:href="classTestsUnitaires.html#acd912aefe999f1178f6c72f41bece368" target="_top" xlink:title="Teste le motif stable (bloc).">
<polygon fill="white" stroke="#666666" points="377.62,-146 248.38,-146 248.38,-126 377.62,-126 377.62,-146"/>
<text xml:space="preserve" text-anchor="middle" x="313" y="-132.5" font-family="Helvetica,sans-Serif" font-size="10.00">TestsUnitaires::testerBloc</text>
</a>
</g>
</g>
<!-- Node2&#45;&gt;Node3 -->
<g id="edge2_Node000002_Node000003" class="edge">
<title>Node2&#45;&gt;Node3</title>
<g id="a_edge2_Node000002_Node000003"><a xlink:title=" ">
<path fill="none" stroke="#63b8ff" d="M440.81,-110.72C416.64,-115.54 389.42,-120.96 366.42,-125.55"/>
<polygon fill="#63b8ff" stroke="#63b8ff" points="441.42,-114.17 450.55,-108.78 440.06,-107.3 441.42,-114.17"/>
</a>
</g>
</g>
<!-- Node6 -->
<g id="Node000006" class="node">
<title>Node6</title>
<g id="a_Node000006"><a xlink:href="classTestsUnitaires.html#ad353b61378429174dd396ee458261aa2" target="_top" xlink:title="Teste le motif oscillateur (clignotant).">
<polygon fill="white" stroke="#666666" points="390,-108 236,-108 236,-88 390,-88 390,-108"/>
<text xml:space="preserve" text-anchor="middle" x="313" y="-94.5" font-family="Helvetica,sans-Serif" font-size="10.00">TestsUnitaires::testerClignotant</text>
</a>
</g>
</g>
<!-- Node2&#45;&gt;Node6 -->
<g id="edge5_Node000002_Node000006" class="edge">
<title>Node2&#45;&gt;Node6</title>
<g id="a_edge5_Node000002_Node000006"><a xlink:title=" ">
<path fill="none" stroke="#63b8ff" d="M418.67,-98C409.23,-98 399.67,-98 390.35,-98"/>
<polygon fill="#63b8ff" stroke="#63b8ff" points="418.59,-101.5 428.59,-98 418.59,-94.5 418.59,-101.5"/>
</a>
</g>
</g>
<!-- Node2&#45;&gt;Node7 -->
<g id="edge7_Node000002_Node000007" class="edge">
<title>Node2&#45;&gt;Node7</title>
<g id="a_edge7_Node000002_Node000007"><a xlink:title=" ">
<path fill="none" stroke="#63b8ff" d="M440.81,-85.28C416.64,-80.46 389.42,-75.04 366.42,-70.45"/>
<polygon fill="#63b8ff" stroke="#63b8ff" points="440.06,-88.7 450.55,-87.22 441.42,-81.83 440.06,-88.7"/>
</a>
</g>
</g>
<!-- Node4 -->
<g id="Node000004" class="node">
<title>Node4</title>
<g id="a_Node000004"><a xlink:href="classTestsUnitaires.html#a17aa4e9d0afbd2614193d2638f4b78c7" target="_top" xlink:title="Exécute tous les tests.">
<polygon fill="white" stroke="#666666" points="195.5,-95 73,-95 73,-63 195.5,-63 195.5,-95"/>
<text xml:space="preserve" text-anchor="start" x="81" y="-81.5" font-family="Helvetica,sans-Serif" font-size="10.00">TestsUnitaires::executer</text>
<text xml:space="preserve" text-anchor="middle" x="134.25" y="-69.5" font-family="Helvetica,sans-Serif" font-size="10.00">TousLesTests</text>
</a>
</g>
</g>
<!-- Node3&#45;&gt;Node4 -->
<g id="edge3_Node000003_Node000004" class="edge">
<title>Node3&#45;&gt;Node4</title>
<g id="a_edge3_Node000003_Node000004"><a xlink:title=" ">
<path fill="none" stroke="#63b8ff" d="M251.91,-122.83C244.99,-121.01 238.06,-119.06 231.5,-117 211.96,-110.87 190.73,-102.67 173.2,-95.45"/>
<polygon fill="#63b8ff" stroke="#63b8ff" points="250.72,-126.14 261.27,-125.19 252.43,-119.35 250.72,-126.14"/>
</a>
</g>
</g>
<!-- Node5 -->
<g id="Node000005" class="node">
<title>Node5</title>
<g id="a_Node000005"><a xlink:href="test__main_8cpp.html#ae66f6b31b5ad750f1fe042a706a4e3d4" target="_top" xlink:title="Programme principal pour exécuter les tests unitaires.">
<polygon fill="white" stroke="#666666" points="37,-89 0,-89 0,-69 37,-69 37,-89"/>
<text xml:space="preserve" text-anchor="middle" x="18.5" y="-75.5" font-family="Helvetica,sans-Serif" font-size="10.00">main</text>
</a>
</g>
</g>
<!-- Node4&#45;&gt;Node5 -->
<g id="edge4_Node000004_Node000005" class="edge">
<title>Node4&#45;&gt;Node5</title>
<g id="a_edge4_Node000004_Node000005"><a xlink:title=" ">
<path fill="none" stroke="#63b8ff" d="M61.32,-79C52.49,-79 44.18,-79 37.33,-79"/>
<polygon fill="#63b8ff" stroke="#63b8ff" points="61.2,-82.5 71.2,-79 61.2,-75.5 61.2,-82.5"/>
</a>
</g>
</g>
<!-- Node6&#45;&gt;Node4 -->
<g id="edge6_Node000006_Node000004" class="edge">
<title>Node6&#45;&gt;Node4</title>
<g id="a_edge6_Node000006_Node000004"><a xlink:title=" ">
<path fill="none" stroke="#63b8ff" d="M224.27,-88.57C214.67,-87.54 205.06,-86.5 195.89,-85.52"/>
<polygon fill="#63b8ff" stroke="#63b8ff" points="223.68,-92.03 234,-89.62 224.43,-85.07 223.68,-92.03"/>
</a>
</g>
</g>
<!-- Node7&#45;&gt;Node4 -->
<g id="edge8_Node000007_Node000004" class="edge">
<title>Node7&#45;&gt;Node4</title>
<g id="a_edge8_Node000007_Node000004"><a xlink:title=" ">
<path fill="none" stroke="#63b8ff" d="M219.74,-69.92C211.69,-70.78 203.68,-71.64 195.99,-72.47"/>
<polygon fill="#63b8ff" stroke="#63b8ff" points="220.05,-73.4 229.62,-68.86 219.3,-66.44 220.05,-73.4"/>
</a>
</g>
</g>
<!-- Node8&#45;&gt;Node4 -->
<g id="edge10_Node000008_Node000004" class="edge">
<title>Node8&#45;&gt;Node4</title>
<g id="a_edge10_Node000008_Node000004"><a xlink:title=" ">
<path fill="none" stroke="#63b8ff" d="M426.93,-17.25C371.75,-19.55 296.26,-25.59 231.5,-41 210.35,-46.03 187.69,-54.8 169.68,-62.64"/>
<polygon fill="#63b8ff" stroke="#63b8ff" points="427.01,-20.75 436.87,-16.87 426.74,-13.75 427.01,-20.75"/>
</a>
</g>
</g>
</g>
</svg>
