<?xml version="1.0" encoding="UTF-8" standalone="no"?>
<!DOCTYPE svg PUBLIC "-//W3C//DTD SVG 1.1//EN"
 "http://www.w3.org/Graphics/SVG/1.1/DTD/svg11.dtd">
<!-- Generated by graphviz version 14.0.2 (20251019.1705)
 -->
<!-- Title: EtatCellule::cloner Pages: 1 -->
<svg width="309pt" height="66pt"
 viewBox="0.00 0.00 309.00 66.00" xmlns="http://www.w3.org/2000/svg" xmlns:xlink="http://www.w3.org/1999/xlink">
<g id="graph0" class="graph" transform="scale(1 1) rotate(0) translate(4 62)">
<title>EtatCellule::cloner</title>
<!-- Node1 -->
<g id="Node000001" class="node">
<title>Node1</title>
<g id="a_Node000001"><a xlink:title="Crée une copie de l&#39;état.">
<polygon fill="#999999" stroke="#666666" points="301.25,-39 205,-39 205,-19 301.25,-19 301.25,-39"/>
<text xml:space="preserve" text-anchor="middle" x="253.12" y="-25.5" font-family="Helvetica,sans-Serif" font-size="10.00">EtatCellule::cloner</text>
</a>
</g>
</g>
<!-- Node2 -->
<g id="Node000002" class="node">
<title>Node2</title>
<g id="a_Node000002"><a xlink:href="classRegleStandard.html#a0c051f441f8b5aeac028872a7347fc35" target="_top" xlink:title="Calcule le nouvel état d&#39;une cellule selon les règles du jeu.">
<polygon fill="white" stroke="#666666" points="169,-58 0,-58 0,-38 169,-38 169,-58"/>
<text xml:space="preserve" text-anchor="middle" x="84.5" y="-44.5" font-family="Helvetica,sans-Serif" font-size="10.00">RegleStandard::calculerNouvelEtat</text>
</a>
</g>
</g>
<!-- Node1&#45;&gt;Node2 -->
<g id="edge1_Node000001_Node000002" class="edge">
<title>Node1&#45;&gt;Node2</title>
<g id="a_edge1_Node000001_Node000002"><a xlink:title=" ">
<path fill="none" stroke="#63b8ff" d="M193.53,-35.68C185.64,-36.58 177.42,-37.52 169.19,-38.46"/>
<polygon fill="#63b8ff" stroke="#63b8ff" points="193.78,-39.18 203.32,-34.57 192.99,-32.22 193.78,-39.18"/>
</a>
</g>
</g>
<!-- Node3 -->
<g id="Node000003" class="node">
<title>Node3</title>
<g id="a_Node000003"><a xlink:href="classRegleTorique.html#aea2f956fa0b75f4a8d9919f4a36e9eee" target="_top" xlink:title="Calcule le nouvel état d&#39;une cellule selon les règles du jeu.">
<polygon fill="white" stroke="#666666" points="165.25,-20 3.75,-20 3.75,0 165.25,0 165.25,-20"/>
<text xml:space="preserve" text-anchor="middle" x="84.5" y="-6.5" font-family="Helvetica,sans-Serif" font-size="10.00">RegleTorique::calculerNouvelEtat</text>
</a>
</g>
</g>
<!-- Node1&#45;&gt;Node3 -->
<g id="edge2_Node000001_Node000003" class="edge">
<title>Node1&#45;&gt;Node3</title>
<g id="a_edge2_Node000001_Node000003"><a xlink:title=" ">
<path fill="none" stroke="#63b8ff" d="M193.64,-22.33C184.6,-21.3 175.13,-20.22 165.71,-19.15"/>
<polygon fill="#63b8ff" stroke="#63b8ff" points="192.99,-25.78 203.32,-23.43 193.78,-18.82 192.99,-25.78"/>
</a>
</g>
</g>
</g>
</svg>
