<?xml version="1.0" encoding="UTF-8" standalone="no"?>
<!DOCTYPE svg PUBLIC "-//W3C//DTD SVG 1.1//EN"
 "http://www.w3.org/Graphics/SVG/1.1/DTD/svg11.dtd">
<!-- Generated by graphviz version 14.0.2 (20251019.1705)
 -->
<!-- Title: InterfaceQt::onStepBack Pages: 1 -->
<!--zoomable 142 -->

<svg id="main" version="1.1" xmlns="http://www.w3.org/2000/svg" xmlns:xlink="http://www.w3.org/1999/xlink" xml:space="preserve" onload="init(evt)">

<style type="text/css"><![CDATA[
.node, .edge {opacity: 0.7;}
.node.selected, .edge.selected {opacity: 1;}
.edge:hover path { stroke: red; }
.edge:hover polygon { stroke: red; fill: red; }
]]></style>

<defs>
  <circle id="rim" cx="0" cy="0" r="7"/>
  <circle id="rim2" cx="0" cy="0" r="3.5"/>
  <g id="zoomPlus">
    <use xlink:href="#rim" fill="#404040"><set attributeName="fill" to="#808080" begin="zoomplus.mouseover" end="zoomplus.mouseout"/></use>
    <path d="M-4,0h8M0,-4v8" fill="none" stroke="white" stroke-width="1.5" pointer-events="none"/>
  </g>
  <g id="zoomMin">
    <use xlink:href="#rim" fill="#404040"><set attributeName="fill" to="#808080" begin="zoomminus.mouseover" end="zoomminus.mouseout"/></use>
    <path d="M-4,0h8" fill="none" stroke="white" stroke-width="1.5" pointer-events="none"/>
  </g>
  <g id="arrowUp" transform="translate(30 24)">
    <use xlink:href="#rim"/>
    <path pointer-events="none" fill="none" stroke="white" stroke-width="1.5" d="M0,-3.0v7 M-2.5,-0.5L0,-3.0L2.5,-0.5"/>
  </g>
  <g id="arrowRight" transform="rotate(90) translate(36 -43)">
    <use xlink:href="#rim"/>
    <path pointer-events="none" fill="none" stroke="white" stroke-width="1.5" d="M0,-3.0v7 M-2.5,-0.5L0,-3.0L2.5,-0.5"/>
  </g>
  <g id="arrowDown" transform="rotate(180) translate(-30 -48)">
    <use xlink:href="#rim"/>
    <path pointer-events="none" fill="none" stroke="white" stroke-width="1.5" d="M0,-3.0v7 M-2.5,-0.5L0,-3.0L2.5,-0.5"/>
  </g>
  <g id="arrowLeft" transform="rotate(270) translate(-36 17)">
    <use xlink:href="#rim"/>
    <path pointer-events="none" fill="none" stroke="white" stroke-width="1.5" d="M0,-3.0v7 M-2.5,-0.5L0,-3.0L2.5,-0.5"/>
  </g>
  <g id="resetDef">
    <use xlink:href="#rim2" fill="#404040"><set attributeName="fill" to="#808080" begin="reset.mouseover" end="reset.mouseout"/></use>
  </g>
</defs>
<script type="application/ecmascript">
var viewWidth = 789;
var viewHeight = 142;
var sectionId = 'dynsection-25';
</script>
<script type="application/ecmascript" xlink:href="svg.min.js"/>
<svg id="graph" class="graph">
<g id="viewport">
<title>InterfaceQt::onStepBack</title>
<!-- Node1 -->
<g id="Node000001" class="node">
<title>Node1</title>
<g id="a_Node000001"><a xlink:title="Recule d&#39;une itération.">
<polygon fill="#999999" stroke="#666666" points="124,-77 0,-77 0,-57 124,-57 124,-77"/>
<text xml:space="preserve" text-anchor="middle" x="62" y="-63.5" font-family="Helvetica,sans-Serif" font-size="10.00">InterfaceQt::onStepBack</text>
</a>
</g>
</g>
<!-- Node2 -->
<g id="Node000002" class="node">
<title>Node2</title>
<g id="a_Node000002"><a xlink:href="classInterfaceQt.html#a06b809d43dbf3814ab103a8d42de319a" target="_top" xlink:title="Met à jour l&#39;affichage.">
<polygon fill="white" stroke="#666666" points="284,-83 160,-83 160,-51 284,-51 284,-83"/>
<text xml:space="preserve" text-anchor="start" x="168" y="-69.5" font-family="Helvetica,sans-Serif" font-size="10.00">InterfaceQt::mettreAJour</text>
<text xml:space="preserve" text-anchor="middle" x="222" y="-57.5" font-family="Helvetica,sans-Serif" font-size="10.00">Affichage</text>
</a>
</g>
</g>
<!-- Node1&#45;&gt;Node2 -->
<g id="edge1_Node000001_Node000002" class="edge">
<title>Node1&#45;&gt;Node2</title>
<g id="a_edge1_Node000001_Node000002"><a xlink:title=" ">
<path fill="none" stroke="#63b8ff" d="M124.09,-67C132,-67 140.16,-67 148.23,-67"/>
<polygon fill="#63b8ff" stroke="#63b8ff" points="148.04,-70.5 158.04,-67 148.04,-63.5 148.04,-70.5"/>
</a>
</g>
</g>
<!-- Node3 -->
<g id="Node000003" class="node">
<title>Node3</title>
<g id="a_Node000003"><a xlink:href="classInterfaceQt.html#abe5b2e247e50614efbf88402c774899c" target="_top" xlink:title="Compte les cellules vivantes.">
<polygon fill="white" stroke="#666666" points="461.25,-83 320,-83 320,-51 461.25,-51 461.25,-83"/>
<text xml:space="preserve" text-anchor="start" x="328" y="-69.5" font-family="Helvetica,sans-Serif" font-size="10.00">InterfaceQt::compterCellules</text>
<text xml:space="preserve" text-anchor="middle" x="390.62" y="-57.5" font-family="Helvetica,sans-Serif" font-size="10.00">Vivantes</text>
</a>
</g>
</g>
<!-- Node2&#45;&gt;Node3 -->
<g id="edge2_Node000002_Node000003" class="edge">
<title>Node2&#45;&gt;Node3</title>
<g id="a_edge2_Node000002_Node000003"><a xlink:title=" ">
<path fill="none" stroke="#63b8ff" d="M284.1,-67C291.93,-67 300.04,-67 308.12,-67"/>
<polygon fill="#63b8ff" stroke="#63b8ff" points="308,-70.5 318,-67 308,-63.5 308,-70.5"/>
</a>
</g>
</g>
<!-- Node4 -->
<g id="Node000004" class="node">
<title>Node4</title>
<g id="a_Node000004"><a xlink:href="classCellule.html#a70d2731234961e330fe0a31486d1dec7" target="_top" xlink:title="Vérifie si la cellule est vivante.">
<polygon fill="white" stroke="#666666" points="610.38,-134 511.88,-134 511.88,-114 610.38,-114 610.38,-134"/>
<text xml:space="preserve" text-anchor="middle" x="561.12" y="-120.5" font-family="Helvetica,sans-Serif" font-size="10.00">Cellule::estVivante</text>
</a>
</g>
</g>
<!-- Node3&#45;&gt;Node4 -->
<g id="edge3_Node000003_Node000004" class="edge">
<title>Node3&#45;&gt;Node4</title>
<g id="a_edge3_Node000003_Node000004"><a xlink:title=" ">
<path fill="none" stroke="#63b8ff" d="M435.64,-83.41C454.53,-90.31 476.9,-98.27 497.25,-105 502.59,-106.77 508.21,-108.56 513.81,-110.3"/>
<polygon fill="#63b8ff" stroke="#63b8ff" points="512.41,-113.53 523,-113.12 514.47,-106.84 512.41,-113.53"/>
</a>
</g>
</g>
<!-- Node5 -->
<g id="Node000005" class="node">
<title>Node5</title>
<g id="a_Node000005"><a xlink:href="classGrille.html#aab75610fe73ae48bd035a048c55832f0" target="_top" xlink:title="Obtient une cellule à une position donnée.">
<polygon fill="white" stroke="#666666" points="613,-96 509.25,-96 509.25,-76 613,-76 613,-96"/>
<text xml:space="preserve" text-anchor="middle" x="561.12" y="-82.5" font-family="Helvetica,sans-Serif" font-size="10.00">Grille::obtenirCellule</text>
</a>
</g>
</g>
<!-- Node3&#45;&gt;Node5 -->
<g id="edge4_Node000003_Node000005" class="edge">
<title>Node3&#45;&gt;Node5</title>
<g id="a_edge4_Node000003_Node000005"><a xlink:title=" ">
<path fill="none" stroke="#63b8ff" d="M461.62,-74.89C473.49,-76.23 485.74,-77.61 497.41,-78.93"/>
<polygon fill="#63b8ff" stroke="#63b8ff" points="497.01,-82.41 507.34,-80.05 497.79,-75.45 497.01,-82.41"/>
</a>
</g>
</g>
<!-- Node7 -->
<g id="Node000007" class="node">
<title>Node7</title>
<g id="a_Node000007"><a xlink:href="classGrille.html#a1ab5c8e0ea0d1dc21549c38d0f0f5cf9" target="_top" xlink:title="Obtient le nombre de colonnes.">
<polygon fill="white" stroke="#666666" points="625,-58 497.25,-58 497.25,-38 625,-38 625,-58"/>
<text xml:space="preserve" text-anchor="middle" x="561.12" y="-44.5" font-family="Helvetica,sans-Serif" font-size="10.00">Grille::obtenirNbColonnes</text>
</a>
</g>
</g>
<!-- Node3&#45;&gt;Node7 -->
<g id="edge6_Node000003_Node000007" class="edge">
<title>Node3&#45;&gt;Node7</title>
<g id="a_edge6_Node000003_Node000007"><a xlink:title=" ">
<path fill="none" stroke="#63b8ff" d="M461.62,-59.11C469.55,-58.21 477.65,-57.3 485.63,-56.4"/>
<polygon fill="#63b8ff" stroke="#63b8ff" points="485.76,-59.91 495.31,-55.31 484.98,-52.95 485.76,-59.91"/>
</a>
</g>
</g>
<!-- Node8 -->
<g id="Node000008" class="node">
<title>Node8</title>
<g id="a_Node000008"><a xlink:href="classGrille.html#a96b5f98d212a0ee9e2f71d73ebe5bb91" target="_top" xlink:title="Obtient le nombre de lignes.">
<polygon fill="white" stroke="#666666" points="618.62,-20 503.62,-20 503.62,0 618.62,0 618.62,-20"/>
<text xml:space="preserve" text-anchor="middle" x="561.12" y="-6.5" font-family="Helvetica,sans-Serif" font-size="10.00">Grille::obtenirNbLignes</text>
</a>
</g>
</g>
<!-- Node3&#45;&gt;Node8 -->
<g id="edge7_Node000003_Node000008" class="edge">
<title>Node3&#45;&gt;Node8</title>
<g id="a_edge7_Node000003_Node000008"><a xlink:title=" ">
<path fill="none" stroke="#63b8ff" d="M435.64,-50.59C454.53,-43.69 476.9,-35.73 497.25,-29 502.59,-27.23 508.21,-25.44 513.81,-23.7"/>
<polygon fill="#63b8ff" stroke="#63b8ff" points="514.47,-27.16 523,-20.88 512.41,-20.47 514.47,-27.16"/>
</a>
</g>
</g>
<!-- Node6 -->
<g id="Node000006" class="node">
<title>Node6</title>
<g id="a_Node000006"><a xlink:href="classGrille.html#aa4c9ce36bb4f2c59a83aeb39d73fc285" target="_top" xlink:title="Vérifie si une position est valide dans la grille.">
<polygon fill="white" stroke="#666666" points="780.5,-96 661,-96 661,-76 780.5,-76 780.5,-96"/>
<text xml:space="preserve" text-anchor="middle" x="720.75" y="-82.5" font-family="Helvetica,sans-Serif" font-size="10.00">Grille::estPositionValide</text>
</a>
</g>
</g>
<!-- Node5&#45;&gt;Node6 -->
<g id="edge5_Node000005_Node000006" class="edge">
<title>Node5&#45;&gt;Node6</title>
<g id="a_edge5_Node000005_Node000006"><a xlink:title=" ">
<path fill="none" stroke="#63b8ff" d="M613.3,-86C624.75,-86 637.08,-86 649.16,-86"/>
<polygon fill="#63b8ff" stroke="#63b8ff" points="649.1,-89.5 659.1,-86 649.1,-82.5 649.1,-89.5"/>
</a>
</g>
</g>
</g>
</svg>

<g id="navigator" transform="translate(0 0)" fill="#404254">
  <rect fill="#f2f5e9" fill-opacity="0.5" stroke="#606060" stroke-width=".5" x="0" y="0" width="60" height="60"/>
  <use id="zoomplus" xlink:href="#zoomPlus" x="17" y="9" onmousedown="handleZoom(evt,'in')"/>
  <use id="zoomminus" xlink:href="#zoomMin" x="42" y="9" onmousedown="handleZoom(evt,'out')"/>
  <use id="reset" xlink:href="#resetDef" x="30" y="36" onmousedown="handleReset()"/>
   <use id="arrowup" xlink:href="#arrowUp" x="0" y="0" onmousedown="handlePan(0,-1)"/>
  <use id="arrowright" xlink:href="#arrowRight" x="0" y="0" onmousedown="handlePan(1,0)"/>
  <use id="arrowdown" xlink:href="#arrowDown" x="0" y="0" onmousedown="handlePan(0,1)"/>
  <use id="arrowleft" xlink:href="#arrowLeft" x="0" y="0" onmousedown="handlePan(-1,0)"/>
</g>
<svg viewBox="0 0 15 15" width="100%" height="30px" preserveAspectRatio="xMaxYMin meet">
 <g id="arrow_out" transform="scale(0.3 0.3)">
  <a xlink:href="classInterfaceQt_abe7956e622104a15a5de0b3f8c84921d_cgraph_org.svg" target="_base">
   <rect id="button" ry="5" rx="5" y="6" x="6" height="38" width="38"
        fill="#f2f5e9" fill-opacity="0.5" stroke="#606060" stroke-width="1.0"/>
   <path id="arrow"
     d="M 11.500037,31.436501 C 11.940474,20.09759 22.043105,11.32322 32.158766,21.979434 L 37.068811,17.246167 C 37.068811,17.246167 37.088388,32 37.088388,32 L 22.160133,31.978069 C 22.160133,31.978069 26.997745,27.140456 26.997745,27.140456 C 18.528582,18.264221 13.291696,25.230495 11.500037,31.436501 z"
     style="fill:#404040;"/>
  </a>
 </g>
</svg>

<style type='text/css'>
<![CDATA[
[data-mouse-over-selected='false'] { opacity: 0.7; }
[data-mouse-over-selected='true']  { opacity: 1.0; }
]]>
</style>
<script type="application/ecmascript"><![CDATA[
document.addEventListener('DOMContentLoaded', (event) => {
  highlightEdges();
  highlightAdjacentNodes();
});
]]></script>
</svg>
