<?xml version="1.0" encoding="UTF-8" standalone="no"?>
<!DOCTYPE svg PUBLIC "-//W3C//DTD SVG 1.1//EN"
 "http://www.w3.org/Graphics/SVG/1.1/DTD/svg11.dtd">
<!-- Generated by graphviz version 14.0.2 (20251019.1705)
 -->
<!-- Title: InterfaceQt::compterCellulesVivantes Pages: 1 -->
<svg width="805pt" height="209pt"
 viewBox="0.00 0.00 805.00 209.00" xmlns="http://www.w3.org/2000/svg" xmlns:xlink="http://www.w3.org/1999/xlink">
<g id="graph0" class="graph" transform="scale(1 1) rotate(0) translate(4 204.8)">
<title>InterfaceQt::compterCellulesVivantes</title>
<!-- Node1 -->
<g id="Node000001" class="node">
<title>Node1</title>
<g id="a_Node000001"><a xlink:title="Compte les cellules vivantes.">
<polygon fill="#999999" stroke="#666666" points="797,-113 655.75,-113 655.75,-81 797,-81 797,-113"/>
<text xml:space="preserve" text-anchor="start" x="663.75" y="-99.5" font-family="Helvetica,sans-Serif" font-size="10.00">InterfaceQt::compterCellules</text>
<text xml:space="preserve" text-anchor="middle" x="726.38" y="-87.5" font-family="Helvetica,sans-Serif" font-size="10.00">Vivantes</text>
</a>
</g>
</g>
<!-- Node2 -->
<g id="Node000002" class="node">
<title>Node2</title>
<g id="a_Node000002"><a xlink:href="classInterfaceQt.html#a06b809d43dbf3814ab103a8d42de319a" target="_top" xlink:title="Met à jour l&#39;affichage.">
<polygon fill="white" stroke="#666666" points="619.75,-113 495.75,-113 495.75,-81 619.75,-81 619.75,-113"/>
<text xml:space="preserve" text-anchor="start" x="503.75" y="-99.5" font-family="Helvetica,sans-Serif" font-size="10.00">InterfaceQt::mettreAJour</text>
<text xml:space="preserve" text-anchor="middle" x="557.75" y="-87.5" font-family="Helvetica,sans-Serif" font-size="10.00">Affichage</text>
</a>
</g>
</g>
<!-- Node1&#45;&gt;Node2 -->
<g id="edge1_Node000001_Node000002" class="edge">
<title>Node1&#45;&gt;Node2</title>
<g id="a_edge1_Node000001_Node000002"><a xlink:title=" ">
<path fill="none" stroke="#63b8ff" d="M644.28,-97C636.19,-97 628.06,-97 620.22,-97"/>
<polygon fill="#63b8ff" stroke="#63b8ff" points="644.16,-100.5 654.16,-97 644.16,-93.5 644.16,-100.5"/>
</a>
</g>
</g>
<!-- Node3 -->
<g id="Node000003" class="node">
<title>Node3</title>
<g id="a_Node000003"><a xlink:href="classInterfaceQt.html#a0eea8fab1e83d4b90961bd4241fc5689" target="_top" xlink:title="Constructeur de l&#39;interface Qt.">
<polygon fill="white" stroke="#666666" points="119.5,-96 0,-96 0,-76 119.5,-76 119.5,-96"/>
<text xml:space="preserve" text-anchor="middle" x="59.75" y="-82.5" font-family="Helvetica,sans-Serif" font-size="10.00">InterfaceQt::InterfaceQt</text>
</a>
</g>
</g>
<!-- Node2&#45;&gt;Node3 -->
<g id="edge2_Node000002_Node000003" class="edge">
<title>Node2&#45;&gt;Node3</title>
<g id="a_edge2_Node000002_Node000003"><a xlink:title=" ">
<path fill="none" stroke="#63b8ff" d="M534.97,-121.19C516.88,-139.35 489.39,-162.77 459.75,-173 331.75,-217.17 281.87,-205.65 155.5,-157 120.2,-143.41 86.7,-112.68 70.64,-96.46"/>
<polygon fill="#63b8ff" stroke="#63b8ff" points="537.13,-124 541.55,-114.37 532.09,-119.14 537.13,-124"/>
</a>
</g>
</g>
<!-- Node4 -->
<g id="Node000004" class="node">
<title>Node4</title>
<g id="a_Node000004"><a xlink:href="classInterfaceQt.html#a280bb380e08e13ec39b8dca2ae917950" target="_top" xlink:title="Place un motif.">
<polygon fill="white" stroke="#666666" points="459.75,-88 329,-88 329,-68 459.75,-68 459.75,-88"/>
<text xml:space="preserve" text-anchor="middle" x="394.38" y="-74.5" font-family="Helvetica,sans-Serif" font-size="10.00">InterfaceQt::onPlacerMotif</text>
</a>
</g>
</g>
<!-- Node2&#45;&gt;Node4 -->
<g id="edge3_Node000002_Node000004" class="edge">
<title>Node2&#45;&gt;Node4</title>
<g id="a_edge3_Node000002_Node000004"><a xlink:title=" ">
<path fill="none" stroke="#63b8ff" d="M484.1,-88.45C476.12,-87.51 468.04,-86.56 460.16,-85.63"/>
<polygon fill="#63b8ff" stroke="#63b8ff" points="483.44,-91.89 493.78,-89.59 484.26,-84.94 483.44,-91.89"/>
</a>
</g>
</g>
<!-- Node6 -->
<g id="Node000006" class="node">
<title>Node6</title>
<g id="a_Node000006"><a xlink:href="classInterfaceQt.html#af564176618a18f272b92be6bfd9d029d" target="_top" xlink:title="Réinitialise la simulation.">
<polygon fill="white" stroke="#666666" points="448.12,-50 340.62,-50 340.62,-30 448.12,-30 448.12,-50"/>
<text xml:space="preserve" text-anchor="middle" x="394.38" y="-36.5" font-family="Helvetica,sans-Serif" font-size="10.00">InterfaceQt::onReset</text>
</a>
</g>
</g>
<!-- Node2&#45;&gt;Node6 -->
<g id="edge6_Node000002_Node000006" class="edge">
<title>Node2&#45;&gt;Node6</title>
<g id="a_edge6_Node000002_Node000006"><a xlink:title=" ">
<path fill="none" stroke="#63b8ff" d="M506.37,-76.31C491.46,-70.45 475.03,-64.24 459.75,-59 451.04,-56.02 441.58,-53.06 432.65,-50.41"/>
<polygon fill="#63b8ff" stroke="#63b8ff" points="504.93,-79.5 515.52,-79.94 507.51,-73 504.93,-79.5"/>
</a>
</g>
</g>
<!-- Node7 -->
<g id="Node000007" class="node">
<title>Node7</title>
<g id="a_Node000007"><a xlink:href="classInterfaceQt.html#a1c1b614c51a456e7b5f407724df14f38" target="_top" xlink:title="Avance d&#39;une itération.">
<polygon fill="white" stroke="#666666" points="445.12,-164 343.62,-164 343.62,-144 445.12,-144 445.12,-164"/>
<text xml:space="preserve" text-anchor="middle" x="394.38" y="-150.5" font-family="Helvetica,sans-Serif" font-size="10.00">InterfaceQt::onStep</text>
</a>
</g>
</g>
<!-- Node2&#45;&gt;Node7 -->
<g id="edge8_Node000002_Node000007" class="edge">
<title>Node2&#45;&gt;Node7</title>
<g id="a_edge8_Node000002_Node000007"><a xlink:title=" ">
<path fill="none" stroke="#63b8ff" d="M506.37,-117.69C491.46,-123.55 475.03,-129.76 459.75,-135 451.04,-137.98 441.58,-140.94 432.65,-143.59"/>
<polygon fill="#63b8ff" stroke="#63b8ff" points="507.51,-121 515.52,-114.06 504.93,-114.5 507.51,-121"/>
</a>
</g>
</g>
<!-- Node9 -->
<g id="Node000009" class="node">
<title>Node9</title>
<g id="a_Node000009"><a xlink:href="classInterfaceQt.html#abe7956e622104a15a5de0b3f8c84921d" target="_top" xlink:title="Recule d&#39;une itération.">
<polygon fill="white" stroke="#666666" points="456.38,-126 332.38,-126 332.38,-106 456.38,-106 456.38,-126"/>
<text xml:space="preserve" text-anchor="middle" x="394.38" y="-112.5" font-family="Helvetica,sans-Serif" font-size="10.00">InterfaceQt::onStepBack</text>
</a>
</g>
</g>
<!-- Node2&#45;&gt;Node9 -->
<g id="edge11_Node000002_Node000009" class="edge">
<title>Node2&#45;&gt;Node9</title>
<g id="a_edge11_Node000002_Node000009"><a xlink:title=" ">
<path fill="none" stroke="#63b8ff" d="M483.87,-105.58C474.79,-106.65 465.56,-107.74 456.67,-108.78"/>
<polygon fill="#63b8ff" stroke="#63b8ff" points="484.26,-109.06 493.78,-104.41 483.44,-102.11 484.26,-109.06"/>
</a>
</g>
</g>
<!-- Node10 -->
<g id="Node000010" class="node">
<title>Node10</title>
<g id="a_Node000010"><a xlink:href="classInterfaceQt.html#abe1c50d3e3b80f6adecb9bf0cb9fca4c" target="_top" xlink:title="Mise à jour automatique (timer).">
<polygon fill="white" stroke="#666666" points="286.62,-20 161.88,-20 161.88,0 286.62,0 286.62,-20"/>
<text xml:space="preserve" text-anchor="middle" x="224.25" y="-6.5" font-family="Helvetica,sans-Serif" font-size="10.00">InterfaceQt::onTimerTick</text>
</a>
</g>
</g>
<!-- Node2&#45;&gt;Node10 -->
<g id="edge14_Node000002_Node000010" class="edge">
<title>Node2&#45;&gt;Node10</title>
<g id="a_edge14_Node000002_Node000010"><a xlink:title=" ">
<path fill="none" stroke="#63b8ff" d="M534.51,-72.87C516.34,-54.97 488.97,-31.86 459.75,-21 403.97,-0.28 335.54,0.39 287.03,-2.87"/>
<polygon fill="#63b8ff" stroke="#63b8ff" points="531.62,-74.92 541.13,-79.59 536.61,-70.01 531.62,-74.92"/>
</a>
</g>
</g>
<!-- Node5 -->
<g id="Node000005" class="node">
<title>Node5</title>
<g id="a_Node000005"><a xlink:href="classInterfaceQt.html#a08632443206d676198dfd1f7492e7437" target="_top" xlink:title="Initialise les widgets.">
<polygon fill="white" stroke="#666666" points="278.75,-102 169.75,-102 169.75,-70 278.75,-70 278.75,-102"/>
<text xml:space="preserve" text-anchor="start" x="177.75" y="-88.5" font-family="Helvetica,sans-Serif" font-size="10.00">InterfaceQt::initialiser</text>
<text xml:space="preserve" text-anchor="middle" x="224.25" y="-76.5" font-family="Helvetica,sans-Serif" font-size="10.00">Widgets</text>
</a>
</g>
</g>
<!-- Node4&#45;&gt;Node5 -->
<g id="edge4_Node000004_Node000005" class="edge">
<title>Node4&#45;&gt;Node5</title>
<g id="a_edge4_Node000004_Node000005"><a xlink:title=" ">
<path fill="none" stroke="#63b8ff" d="M317.58,-81.61C304.65,-82.22 291.44,-82.85 279.22,-83.43"/>
<polygon fill="#63b8ff" stroke="#63b8ff" points="317.52,-85.11 327.34,-81.14 317.19,-78.12 317.52,-85.11"/>
</a>
</g>
</g>
<!-- Node5&#45;&gt;Node3 -->
<g id="edge5_Node000005_Node000003" class="edge">
<title>Node5&#45;&gt;Node3</title>
<g id="a_edge5_Node000005_Node000003"><a xlink:title=" ">
<path fill="none" stroke="#63b8ff" d="M158.18,-86C145.56,-86 132.39,-86 119.96,-86"/>
<polygon fill="#63b8ff" stroke="#63b8ff" points="158.08,-89.5 168.08,-86 158.08,-82.5 158.08,-89.5"/>
</a>
</g>
</g>
<!-- Node6&#45;&gt;Node5 -->
<g id="edge7_Node000006_Node000005" class="edge">
<title>Node6&#45;&gt;Node5</title>
<g id="a_edge7_Node000006_Node000005"><a xlink:title=" ">
<path fill="none" stroke="#63b8ff" d="M344.27,-53.44C323.85,-59.02 300.08,-65.53 279.18,-71.24"/>
<polygon fill="#63b8ff" stroke="#63b8ff" points="345.04,-56.85 353.76,-50.84 343.2,-50.1 345.04,-56.85"/>
</a>
</g>
</g>
<!-- Node7&#45;&gt;Node5 -->
<g id="edge9_Node000007_Node000005" class="edge">
<title>Node7&#45;&gt;Node5</title>
<g id="a_edge9_Node000007_Node000005"><a xlink:title=" ">
<path fill="none" stroke="#63b8ff" d="M343.49,-140.11C338.56,-138.49 333.66,-136.78 329,-135 315.41,-129.82 283.58,-114.61 258.73,-102.5"/>
<polygon fill="#63b8ff" stroke="#63b8ff" points="342.21,-143.38 352.8,-143.05 344.32,-136.7 342.21,-143.38"/>
</a>
</g>
</g>
<!-- Node8 -->
<g id="Node000008" class="node">
<title>Node8</title>
<g id="a_Node000008"><a xlink:href="classInterfaceQt.html#a11edcee9206379725a8e97e68a100e80" target="_top" xlink:title="Gestion des événements clavier.">
<polygon fill="white" stroke="#666666" points="293,-148 155.5,-148 155.5,-128 293,-128 293,-148"/>
<text xml:space="preserve" text-anchor="middle" x="224.25" y="-134.5" font-family="Helvetica,sans-Serif" font-size="10.00">InterfaceQt::keyPressEvent</text>
</a>
</g>
</g>
<!-- Node7&#45;&gt;Node8 -->
<g id="edge10_Node000007_Node000008" class="edge">
<title>Node7&#45;&gt;Node8</title>
<g id="a_edge10_Node000007_Node000008"><a xlink:title=" ">
<path fill="none" stroke="#63b8ff" d="M332.08,-148.17C319.51,-146.97 306.2,-145.7 293.41,-144.49"/>
<polygon fill="#63b8ff" stroke="#63b8ff" points="331.59,-151.64 341.88,-149.1 332.26,-144.67 331.59,-151.64"/>
</a>
</g>
</g>
<!-- Node9&#45;&gt;Node5 -->
<g id="edge12_Node000009_Node000005" class="edge">
<title>Node9&#45;&gt;Node5</title>
<g id="a_edge12_Node000009_Node000005"><a xlink:title=" ">
<path fill="none" stroke="#63b8ff" d="M323.43,-103.52C308.67,-100.88 293.3,-98.14 279.23,-95.63"/>
<polygon fill="#63b8ff" stroke="#63b8ff" points="322.62,-106.93 333.08,-105.24 323.85,-100.04 322.62,-106.93"/>
</a>
</g>
</g>
<!-- Node9&#45;&gt;Node8 -->
<g id="edge13_Node000009_Node000008" class="edge">
<title>Node9&#45;&gt;Node8</title>
<g id="a_edge13_Node000009_Node000008"><a xlink:title=" ">
<path fill="none" stroke="#63b8ff" d="M320.83,-125.49C311.76,-126.68 302.5,-127.89 293.49,-129.07"/>
<polygon fill="#63b8ff" stroke="#63b8ff" points="321.24,-128.97 330.7,-124.2 320.33,-122.03 321.24,-128.97"/>
</a>
</g>
</g>
<!-- Node10&#45;&gt;Node3 -->
<g id="edge15_Node000010_Node000003" class="edge">
<title>Node10&#45;&gt;Node3</title>
<g id="a_edge15_Node000010_Node000003"><a xlink:title=" ">
<path fill="none" stroke="#63b8ff" d="M190.82,-25.17C158.86,-40.12 110.87,-62.56 83,-75.6"/>
<polygon fill="#63b8ff" stroke="#63b8ff" points="192.05,-28.46 199.62,-21.05 189.08,-22.12 192.05,-28.46"/>
</a>
</g>
</g>
</g>
</svg>
