<?xml version="1.0" encoding="UTF-8" standalone="no"?>
<!DOCTYPE svg PUBLIC "-//W3C//DTD SVG 1.1//EN"
 "http://www.w3.org/Graphics/SVG/1.1/DTD/svg11.dtd">
<!-- Generated by graphviz version 14.0.2 (20251019.1705)
 -->
<!-- Title: InterfaceSFML::gererPlacementMotif Pages: 1 -->
<svg width="595pt" height="40pt"
 viewBox="0.00 0.00 595.00 40.00" xmlns="http://www.w3.org/2000/svg" xmlns:xlink="http://www.w3.org/1999/xlink">
<g id="graph0" class="graph" transform="scale(1 1) rotate(0) translate(4 36)">
<title>InterfaceSFML::gererPlacementMotif</title>
<!-- Node1 -->
<g id="Node000001" class="node">
<title>Node1</title>
<g id="a_Node000001"><a xlink:title="Gère les entrées clavier pour placer des motifs.">
<polygon fill="#999999" stroke="#666666" points="586.75,-32 432,-32 432,0 586.75,0 586.75,-32"/>
<text xml:space="preserve" text-anchor="start" x="440" y="-18.5" font-family="Helvetica,sans-Serif" font-size="10.00">InterfaceSFML::gererPlacement</text>
<text xml:space="preserve" text-anchor="middle" x="509.38" y="-6.5" font-family="Helvetica,sans-Serif" font-size="10.00">Motif</text>
</a>
</g>
</g>
<!-- Node2 -->
<g id="Node000002" class="node">
<title>Node2</title>
<g id="a_Node000002"><a xlink:href="classInterfaceSFML.html#a20bcd606ad56b9f175bba4a49a4f061a" target="_top" xlink:title="Gère les événements (clavier, souris, fermeture).">
<polygon fill="white" stroke="#666666" points="396,-26 233,-26 233,-6 396,-6 396,-26"/>
<text xml:space="preserve" text-anchor="middle" x="314.5" y="-12.5" font-family="Helvetica,sans-Serif" font-size="10.00">InterfaceSFML::gererEvenements</text>
</a>
</g>
</g>
<!-- Node1&#45;&gt;Node2 -->
<g id="edge1_Node000001_Node000002" class="edge">
<title>Node1&#45;&gt;Node2</title>
<g id="a_edge1_Node000001_Node000002"><a xlink:title=" ">
<path fill="none" stroke="#63b8ff" d="M420.11,-16C412.23,-16 404.27,-16 396.45,-16"/>
<polygon fill="#63b8ff" stroke="#63b8ff" points="420.08,-19.5 430.08,-16 420.08,-12.5 420.08,-19.5"/>
</a>
</g>
</g>
<!-- Node3 -->
<g id="Node000003" class="node">
<title>Node3</title>
<g id="a_Node000003"><a xlink:href="classInterfaceSFML.html#a518c46fbb99e76a49149d03b900b6cdc" target="_top" xlink:title="Lance la boucle principale de l&#39;interface graphique.">
<polygon fill="white" stroke="#666666" points="197,-26 73,-26 73,-6 197,-6 197,-26"/>
<text xml:space="preserve" text-anchor="middle" x="135" y="-12.5" font-family="Helvetica,sans-Serif" font-size="10.00">InterfaceSFML::executer</text>
</a>
</g>
</g>
<!-- Node2&#45;&gt;Node3 -->
<g id="edge2_Node000002_Node000003" class="edge">
<title>Node2&#45;&gt;Node3</title>
<g id="a_edge2_Node000002_Node000003"><a xlink:title=" ">
<path fill="none" stroke="#63b8ff" d="M221.18,-16C213.14,-16 205.14,-16 197.44,-16"/>
<polygon fill="#63b8ff" stroke="#63b8ff" points="221.03,-19.5 231.03,-16 221.03,-12.5 221.03,-19.5"/>
</a>
</g>
</g>
<!-- Node4 -->
<g id="Node000004" class="node">
<title>Node4</title>
<g id="a_Node000004"><a xlink:href="main_8cpp.html#a0ddf1224851353fc92bfbff6f499fa97" target="_top" xlink:title="Point d&#39;entrée du programme.">
<polygon fill="white" stroke="#666666" points="37,-26 0,-26 0,-6 37,-6 37,-26"/>
<text xml:space="preserve" text-anchor="middle" x="18.5" y="-12.5" font-family="Helvetica,sans-Serif" font-size="10.00">main</text>
</a>
</g>
</g>
<!-- Node3&#45;&gt;Node4 -->
<g id="edge3_Node000003_Node000004" class="edge">
<title>Node3&#45;&gt;Node4</title>
<g id="a_edge3_Node000003_Node000004"><a xlink:title=" ">
<path fill="none" stroke="#63b8ff" d="M61.32,-16C52.48,-16 44.17,-16 37.32,-16"/>
<polygon fill="#63b8ff" stroke="#63b8ff" points="61.21,-19.5 71.21,-16 61.21,-12.5 61.21,-19.5"/>
</a>
</g>
</g>
</g>
</svg>
