<?xml version="1.0" encoding="UTF-8" standalone="no"?>
<!DOCTYPE svg PUBLIC "-//W3C//DTD SVG 1.1//EN"
 "http://www.w3.org/Graphics/SVG/1.1/DTD/svg11.dtd">
<!-- Generated by graphviz version 14.0.2 (20251019.1705)
 -->
<!-- Title: TestsUnitaires::testerHistorique Pages: 1 -->
<!--zoomable 192 -->

<svg id="main" version="1.1" xmlns="http://www.w3.org/2000/svg" xmlns:xlink="http://www.w3.org/1999/xlink" xml:space="preserve" onload="init(evt)">

<style type="text/css"><![CDATA[
.node, .edge {opacity: 0.7;}
.node.selected, .edge.selected {opacity: 1;}
.edge:hover path { stroke: red; }
.edge:hover polygon { stroke: red; fill: red; }
]]></style>

<defs>
  <circle id="rim" cx="0" cy="0" r="7"/>
  <circle id="rim2" cx="0" cy="0" r="3.5"/>
  <g id="zoomPlus">
    <use xlink:href="#rim" fill="#404040"><set attributeName="fill" to="#808080" begin="zoomplus.mouseover" end="zoomplus.mouseout"/></use>
    <path d="M-4,0h8M0,-4v8" fill="none" stroke="white" stroke-width="1.5" pointer-events="none"/>
  </g>
  <g id="zoomMin">
    <use xlink:href="#rim" fill="#404040"><set attributeName="fill" to="#808080" begin="zoomminus.mouseover" end="zoomminus.mouseout"/></use>
    <path d="M-4,0h8" fill="none" stroke="white" stroke-width="1.5" pointer-events="none"/>
  </g>
  <g id="arrowUp" transform="translate(30 24)">
    <use xlink:href="#rim"/>
    <path pointer-events="none" fill="none" stroke="white" stroke-width="1.5" d="M0,-3.0v7 M-2.5,-0.5L0,-3.0L2.5,-0.5"/>
  </g>
  <g id="arrowRight" transform="rotate(90) translate(36 -43)">
    <use xlink:href="#rim"/>
    <path pointer-events="none" fill="none" stroke="white" stroke-width="1.5" d="M0,-3.0v7 M-2.5,-0.5L0,-3.0L2.5,-0.5"/>
  </g>
  <g id="arrowDown" transform="rotate(180) translate(-30 -48)">
    <use xlink:href="#rim"/>
    <path pointer-events="none" fill="none" stroke="white" stroke-width="1.5" d="M0,-3.0v7 M-2.5,-0.5L0,-3.0L2.5,-0.5"/>
  </g>
  <g id="arrowLeft" transform="rotate(270) translate(-36 17)">
    <use xlink:href="#rim"/>
    <path pointer-events="none" fill="none" stroke="white" stroke-width="1.5" d="M0,-3.0v7 M-2.5,-0.5L0,-3.0L2.5,-0.5"/>
  </g>
  <g id="resetDef">
    <use xlink:href="#rim2" fill="#404040"><set attributeName="fill" to="#808080" begin="reset.mouseover" end="reset.mouseout"/></use>
  </g>
</defs>
<script type="application/ecmascript">
var viewWidth = 505;
var viewHeight = 192;
var sectionId = 'dynsection-12';
</script>
<script type="application/ecmascript" xlink:href="svg.min.js"/>
<svg id="graph" class="graph">
<g id="viewport">
<title>TestsUnitaires::testerHistorique</title>
<!-- Node1 -->
<g id="Node000001" class="node">
<title>Node1</title>
<g id="a_Node000001"><a xlink:title="Teste l&#39;historique (retour en arrière).">
<polygon fill="#999999" stroke="#666666" points="154,-96 0,-96 0,-76 154,-76 154,-96"/>
<text xml:space="preserve" text-anchor="middle" x="77" y="-82.5" font-family="Helvetica,sans-Serif" font-size="10.00">TestsUnitaires::testerHistorique</text>
</a>
</g>
</g>
<!-- Node2 -->
<g id="Node000002" class="node">
<title>Node2</title>
<g id="a_Node000002"><a xlink:href="classTestsUnitaires.html#af1671fe34db212a79ee1f4b2869d576e" target="_top" xlink:title="Affiche le résultat d&#39;un test.">
<polygon fill="white" stroke="#666666" points="322.25,-184 205.75,-184 205.75,-152 322.25,-152 322.25,-184"/>
<text xml:space="preserve" text-anchor="start" x="213.75" y="-170.5" font-family="Helvetica,sans-Serif" font-size="10.00">TestsUnitaires::afficher</text>
<text xml:space="preserve" text-anchor="middle" x="264" y="-158.5" font-family="Helvetica,sans-Serif" font-size="10.00">Resultat</text>
</a>
</g>
</g>
<!-- Node1&#45;&gt;Node2 -->
<g id="edge1_Node000001_Node000002" class="edge">
<title>Node1&#45;&gt;Node2</title>
<g id="a_edge1_Node000001_Node000002"><a xlink:title=" ">
<path fill="none" stroke="#63b8ff" d="M96.25,-96.3C118.11,-108.39 156.04,-128.63 190,-143 193.74,-144.58 197.61,-146.14 201.54,-147.65"/>
<polygon fill="#63b8ff" stroke="#63b8ff" points="199.98,-150.81 210.58,-151.03 202.43,-144.25 199.98,-150.81"/>
</a>
</g>
</g>
<!-- Node3 -->
<g id="Node000003" class="node">
<title>Node3</title>
<g id="a_Node000003"><a xlink:href="classJeuDeLaVie.html#af3e2bbbe85d122db859c6049adad142a" target="_top" xlink:title="Exécute une itération du jeu.">
<polygon fill="white" stroke="#666666" points="338,-134 190,-134 190,-114 338,-114 338,-134"/>
<text xml:space="preserve" text-anchor="middle" x="264" y="-120.5" font-family="Helvetica,sans-Serif" font-size="10.00">JeuDeLaVie::executerIteration</text>
</a>
</g>
</g>
<!-- Node1&#45;&gt;Node3 -->
<g id="edge2_Node000001_Node000003" class="edge">
<title>Node1&#45;&gt;Node3</title>
<g id="a_edge2_Node000001_Node000003"><a xlink:title=" ">
<path fill="none" stroke="#63b8ff" d="M129.04,-96.48C151.28,-101.05 177.56,-106.45 200.92,-111.25"/>
<polygon fill="#63b8ff" stroke="#63b8ff" points="200.14,-114.66 210.64,-113.25 201.55,-107.8 200.14,-114.66"/>
</a>
</g>
</g>
<!-- Node5 -->
<g id="Node000005" class="node">
<title>Node5</title>
<g id="a_Node000005"><a xlink:href="classJeuDeLaVie.html#a3f6dc54b2b1ebef7111e7aa5a2622be3" target="_top" xlink:title="Obtient la grille actuelle.">
<polygon fill="white" stroke="#666666" points="327.5,-96 200.5,-96 200.5,-76 327.5,-76 327.5,-96"/>
<text xml:space="preserve" text-anchor="middle" x="264" y="-82.5" font-family="Helvetica,sans-Serif" font-size="10.00">JeuDeLaVie::obtenirGrille</text>
</a>
</g>
</g>
<!-- Node1&#45;&gt;Node5 -->
<g id="edge4_Node000001_Node000005" class="edge">
<title>Node1&#45;&gt;Node5</title>
<g id="a_edge4_Node000001_Node000005"><a xlink:title=" ">
<path fill="none" stroke="#63b8ff" d="M154.31,-86C165.74,-86 177.5,-86 188.87,-86"/>
<polygon fill="#63b8ff" stroke="#63b8ff" points="188.58,-89.5 198.58,-86 188.58,-82.5 188.58,-89.5"/>
</a>
</g>
</g>
<!-- Node6 -->
<g id="Node000006" class="node">
<title>Node6</title>
<g id="a_Node000006"><a xlink:href="classJeuDeLaVie.html#a64c17035b0448747418084db872c72c8" target="_top" xlink:title="Obtient le numéro d&#39;itération actuel.">
<polygon fill="white" stroke="#666666" points="333.88,-58 194.12,-58 194.12,-38 333.88,-38 333.88,-58"/>
<text xml:space="preserve" text-anchor="middle" x="264" y="-44.5" font-family="Helvetica,sans-Serif" font-size="10.00">JeuDeLaVie::obtenirIteration</text>
</a>
</g>
</g>
<!-- Node1&#45;&gt;Node6 -->
<g id="edge5_Node000001_Node000006" class="edge">
<title>Node1&#45;&gt;Node6</title>
<g id="a_edge5_Node000001_Node000006"><a xlink:title=" ">
<path fill="none" stroke="#63b8ff" d="M129.04,-75.52C151.28,-70.95 177.56,-65.55 200.92,-60.75"/>
<polygon fill="#63b8ff" stroke="#63b8ff" points="201.55,-64.2 210.64,-58.75 200.14,-57.34 201.55,-64.2"/>
</a>
</g>
</g>
<!-- Node7 -->
<g id="Node000007" class="node">
<title>Node7</title>
<g id="a_Node000007"><a xlink:href="classJeuDeLaVie.html#a444c078a494f06290049293c37b8eeb2" target="_top" xlink:title="Revient à l&#39;itération précédente.">
<polygon fill="white" stroke="#666666" points="336.5,-20 191.5,-20 191.5,0 336.5,0 336.5,-20"/>
<text xml:space="preserve" text-anchor="middle" x="264" y="-6.5" font-family="Helvetica,sans-Serif" font-size="10.00">JeuDeLaVie::revenirEnArriere</text>
</a>
</g>
</g>
<!-- Node1&#45;&gt;Node7 -->
<g id="edge6_Node000001_Node000007" class="edge">
<title>Node1&#45;&gt;Node7</title>
<g id="a_edge6_Node000001_Node000007"><a xlink:title=" ">
<path fill="none" stroke="#63b8ff" d="M95.31,-75.7C116.86,-63.22 155.12,-42.24 190,-29 195.02,-27.1 200.3,-25.32 205.63,-23.67"/>
<polygon fill="#63b8ff" stroke="#63b8ff" points="206.5,-27.06 215.12,-20.9 204.54,-20.34 206.5,-27.06"/>
</a>
</g>
</g>
<!-- Node4 -->
<g id="Node000004" class="node">
<title>Node4</title>
<g id="a_Node000004"><a xlink:href="classJeuDeLaVie.html#a0c9dbfff7118bd6fe99b3fa99889fe96" target="_top" xlink:title="Vérifie si le jeu est terminé">
<polygon fill="white" stroke="#666666" points="497.25,-134 374,-134 374,-114 497.25,-114 497.25,-134"/>
<text xml:space="preserve" text-anchor="middle" x="435.62" y="-120.5" font-family="Helvetica,sans-Serif" font-size="10.00">JeuDeLaVie::estTermine</text>
</a>
</g>
</g>
<!-- Node3&#45;&gt;Node4 -->
<g id="edge3_Node000003_Node000004" class="edge">
<title>Node3&#45;&gt;Node4</title>
<g id="a_edge3_Node000003_Node000004"><a xlink:title=" ">
<path fill="none" stroke="#63b8ff" d="M338.41,-124C346.29,-124 354.31,-124 362.18,-124"/>
<polygon fill="#63b8ff" stroke="#63b8ff" points="362.06,-127.5 372.06,-124 362.06,-120.5 362.06,-127.5"/>
</a>
</g>
</g>
</g>
</svg>

<g id="navigator" transform="translate(0 0)" fill="#404254">
  <rect fill="#f2f5e9" fill-opacity="0.5" stroke="#606060" stroke-width=".5" x="0" y="0" width="60" height="60"/>
  <use id="zoomplus" xlink:href="#zoomPlus" x="17" y="9" onmousedown="handleZoom(evt,'in')"/>
  <use id="zoomminus" xlink:href="#zoomMin" x="42" y="9" onmousedown="handleZoom(evt,'out')"/>
  <use id="reset" xlink:href="#resetDef" x="30" y="36" onmousedown="handleReset()"/>
   <use id="arrowup" xlink:href="#arrowUp" x="0" y="0" onmousedown="handlePan(0,-1)"/>
  <use id="arrowright" xlink:href="#arrowRight" x="0" y="0" onmousedown="handlePan(1,0)"/>
  <use id="arrowdown" xlink:href="#arrowDown" x="0" y="0" onmousedown="handlePan(0,1)"/>
  <use id="arrowleft" xlink:href="#arrowLeft" x="0" y="0" onmousedown="handlePan(-1,0)"/>
</g>
<svg viewBox="0 0 15 15" width="100%" height="30px" preserveAspectRatio="xMaxYMin meet">
 <g id="arrow_out" transform="scale(0.3 0.3)">
  <a xlink:href="classTestsUnitaires_ac15830bab996354ee1325bd615fedef1_cgraph_org.svg" target="_base">
   <rect id="button" ry="5" rx="5" y="6" x="6" height="38" width="38"
        fill="#f2f5e9" fill-opacity="0.5" stroke="#606060" stroke-width="1.0"/>
   <path id="arrow"
     d="M 11.500037,31.436501 C 11.940474,20.09759 22.043105,11.32322 32.158766,21.979434 L 37.068811,17.246167 C 37.068811,17.246167 37.088388,32 37.088388,32 L 22.160133,31.978069 C 22.160133,31.978069 26.997745,27.140456 26.997745,27.140456 C 18.528582,18.264221 13.291696,25.230495 11.500037,31.436501 z"
     style="fill:#404040;"/>
  </a>
 </g>
</svg>

<style type='text/css'>
<![CDATA[
[data-mouse-over-selected='false'] { opacity: 0.7; }
[data-mouse-over-selected='true']  { opacity: 1.0; }
]]>
</style>
<script type="application/ecmascript"><![CDATA[
document.addEventListener('DOMContentLoaded', (event) => {
  highlightEdges();
  highlightAdjacentNodes();
});
]]></script>
</svg>
