<?xml version="1.0" encoding="UTF-8" standalone="no"?>
<!DOCTYPE svg PUBLIC "-//W3C//DTD SVG 1.1//EN"
 "http://www.w3.org/Graphics/SVG/1.1/DTD/svg11.dtd">
<!-- Generated by graphviz version 14.0.2 (20251019.1705)
 -->
<!-- Title: TestsUnitaires::testerEvolution Pages: 1 -->
<svg width="629pt" height="116pt"
 viewBox="0.00 0.00 629.00 116.00" xmlns="http://www.w3.org/2000/svg" xmlns:xlink="http://www.w3.org/1999/xlink">
<g id="graph0" class="graph" transform="scale(1 1) rotate(0) translate(4 112)">
<title>TestsUnitaires::testerEvolution</title>
<!-- Node1 -->
<g id="Node000001" class="node">
<title>Node1</title>
<g id="a_Node000001"><a xlink:title="Teste l&#39;évolution d&#39;une grille après n itérations.">
<polygon fill="#999999" stroke="#666666" points="150.25,-80 0,-80 0,-60 150.25,-60 150.25,-80"/>
<text xml:space="preserve" text-anchor="middle" x="75.12" y="-66.5" font-family="Helvetica,sans-Serif" font-size="10.00">TestsUnitaires::testerEvolution</text>
</a>
</g>
</g>
<!-- Node2 -->
<g id="Node000002" class="node">
<title>Node2</title>
<g id="a_Node000002"><a xlink:href="classTestsUnitaires.html#af1671fe34db212a79ee1f4b2869d576e" target="_top" xlink:title="Affiche le résultat d&#39;un test.">
<polygon fill="white" stroke="#666666" points="302.75,-108 186.25,-108 186.25,-76 302.75,-76 302.75,-108"/>
<text xml:space="preserve" text-anchor="start" x="194.25" y="-94.5" font-family="Helvetica,sans-Serif" font-size="10.00">TestsUnitaires::afficher</text>
<text xml:space="preserve" text-anchor="middle" x="244.5" y="-82.5" font-family="Helvetica,sans-Serif" font-size="10.00">Resultat</text>
</a>
</g>
</g>
<!-- Node1&#45;&gt;Node2 -->
<g id="edge1_Node000001_Node000002" class="edge">
<title>Node1&#45;&gt;Node2</title>
<g id="a_edge1_Node000001_Node000002"><a xlink:title=" ">
<path fill="none" stroke="#63b8ff" d="M150.51,-79.78C158.58,-80.84 166.77,-81.91 174.77,-82.97"/>
<polygon fill="#63b8ff" stroke="#63b8ff" points="174.05,-86.4 184.42,-84.23 174.96,-79.46 174.05,-86.4"/>
</a>
</g>
</g>
<!-- Node3 -->
<g id="Node000003" class="node">
<title>Node3</title>
<g id="a_Node000003"><a xlink:href="classGrille.html#a980652764fefe3f45fcc0516a6e59abb" target="_top" xlink:title="Met à jour la grille pour passer à l&#39;itération suivante.">
<polygon fill="white" stroke="#666666" points="293.38,-58 195.62,-58 195.62,-38 293.38,-38 293.38,-58"/>
<text xml:space="preserve" text-anchor="middle" x="244.5" y="-44.5" font-family="Helvetica,sans-Serif" font-size="10.00">Grille::mettreAJour</text>
</a>
</g>
</g>
<!-- Node1&#45;&gt;Node3 -->
<g id="edge2_Node000001_Node000003" class="edge">
<title>Node1&#45;&gt;Node3</title>
<g id="a_edge2_Node000001_Node000003"><a xlink:title=" ">
<path fill="none" stroke="#63b8ff" d="M150.51,-60.22C161.79,-58.74 173.29,-57.23 184.19,-55.8"/>
<polygon fill="#63b8ff" stroke="#63b8ff" points="184.33,-59.31 193.79,-54.53 183.42,-52.37 184.33,-59.31"/>
</a>
</g>
</g>
<!-- Node4 -->
<g id="Node000004" class="node">
<title>Node4</title>
<g id="a_Node000004"><a xlink:href="classGrille.html#ab4c852bc2327224eac9da60841f30baa" target="_top" xlink:title="Définit l&#39;état d&#39;une cellule.">
<polygon fill="white" stroke="#666666" points="461.25,-96 342.5,-96 342.5,-76 461.25,-76 461.25,-96"/>
<text xml:space="preserve" text-anchor="middle" x="401.88" y="-82.5" font-family="Helvetica,sans-Serif" font-size="10.00">Grille::definirEtatCellule</text>
</a>
</g>
</g>
<!-- Node3&#45;&gt;Node4 -->
<g id="edge3_Node000003_Node000004" class="edge">
<title>Node3&#45;&gt;Node4</title>
<g id="a_edge3_Node000003_Node000004"><a xlink:title=" ">
<path fill="none" stroke="#63b8ff" d="M288.37,-58.48C306.54,-62.93 327.92,-68.16 347.13,-72.85"/>
<polygon fill="#63b8ff" stroke="#63b8ff" points="346.13,-76.21 356.68,-75.19 347.79,-69.41 346.13,-76.21"/>
</a>
</g>
</g>
<!-- Node6 -->
<g id="Node000006" class="node">
<title>Node6</title>
<g id="a_Node000006"><a xlink:href="classGrille.html#aa8f57932935f9b316ccdbd0705021d6b" target="_top" xlink:title="Constructeur de la grille.">
<polygon fill="white" stroke="#666666" points="594.25,-39 527.25,-39 527.25,-19 594.25,-19 594.25,-39"/>
<text xml:space="preserve" text-anchor="middle" x="560.75" y="-25.5" font-family="Helvetica,sans-Serif" font-size="10.00">Grille::Grille</text>
</a>
</g>
</g>
<!-- Node3&#45;&gt;Node6 -->
<g id="edge5_Node000003_Node000006" class="edge">
<title>Node3&#45;&gt;Node6</title>
<g id="a_edge5_Node000003_Node000006"><a xlink:title=" ">
<path fill="none" stroke="#63b8ff" d="M293.57,-45.09C354.05,-41.44 457.07,-35.21 515.63,-31.67"/>
<polygon fill="#63b8ff" stroke="#63b8ff" points="515.79,-35.16 525.56,-31.07 515.37,-28.18 515.79,-35.16"/>
</a>
</g>
</g>
<!-- Node7 -->
<g id="Node000007" class="node">
<title>Node7</title>
<g id="a_Node000007"><a xlink:href="classGrille.html#a7073ca25319522d4602550da3dfb1d22" target="_top" xlink:title="Met à jour un ensemble de lignes (parallélisation optimisée).">
<polygon fill="white" stroke="#666666" points="465,-20 338.75,-20 338.75,0 465,0 465,-20"/>
<text xml:space="preserve" text-anchor="middle" x="401.88" y="-6.5" font-family="Helvetica,sans-Serif" font-size="10.00">Grille::mettreAJourLignes</text>
</a>
</g>
</g>
<!-- Node3&#45;&gt;Node7 -->
<g id="edge6_Node000003_Node000007" class="edge">
<title>Node3&#45;&gt;Node7</title>
<g id="a_edge6_Node000003_Node000007"><a xlink:title=" ">
<path fill="none" stroke="#63b8ff" d="M288.37,-37.52C306.54,-33.07 327.92,-27.84 347.13,-23.15"/>
<polygon fill="#63b8ff" stroke="#63b8ff" points="347.79,-26.59 356.68,-20.81 346.13,-19.79 347.79,-26.59"/>
</a>
</g>
</g>
<!-- Node5 -->
<g id="Node000005" class="node">
<title>Node5</title>
<g id="a_Node000005"><a xlink:href="classGrille.html#aa4c9ce36bb4f2c59a83aeb39d73fc285" target="_top" xlink:title="Vérifie si une position est valide dans la grille.">
<polygon fill="white" stroke="#666666" points="620.5,-96 501,-96 501,-76 620.5,-76 620.5,-96"/>
<text xml:space="preserve" text-anchor="middle" x="560.75" y="-82.5" font-family="Helvetica,sans-Serif" font-size="10.00">Grille::estPositionValide</text>
</a>
</g>
</g>
<!-- Node4&#45;&gt;Node5 -->
<g id="edge4_Node000004_Node000005" class="edge">
<title>Node4&#45;&gt;Node5</title>
<g id="a_edge4_Node000004_Node000005"><a xlink:title=" ">
<path fill="none" stroke="#63b8ff" d="M461.74,-86C470.66,-86 479.95,-86 489.09,-86"/>
<polygon fill="#63b8ff" stroke="#63b8ff" points="489.05,-89.5 499.05,-86 489.05,-82.5 489.05,-89.5"/>
</a>
</g>
</g>
<!-- Node7&#45;&gt;Node6 -->
<g id="edge7_Node000007_Node000006" class="edge">
<title>Node7&#45;&gt;Node6</title>
<g id="a_edge7_Node000007_Node000006"><a xlink:title=" ">
<path fill="none" stroke="#63b8ff" d="M465.33,-17.56C482.08,-19.59 499.84,-21.74 515.39,-23.63"/>
<polygon fill="#63b8ff" stroke="#63b8ff" points="514.94,-27.1 525.29,-24.83 515.78,-20.15 514.94,-27.1"/>
</a>
</g>
</g>
</g>
</svg>
