<?xml version="1.0" encoding="UTF-8" standalone="no"?>
<!DOCTYPE svg PUBLIC "-//W3C//DTD SVG 1.1//EN"
 "http://www.w3.org/Graphics/SVG/1.1/DTD/svg11.dtd">
<!-- Generated by graphviz version 14.0.2 (20251019.1705)
 -->
<!-- Title: InterfaceQt::mettreAJourAffichage Pages: 1 -->
<svg width="629pt" height="142pt"
 viewBox="0.00 0.00 629.00 142.00" xmlns="http://www.w3.org/2000/svg" xmlns:xlink="http://www.w3.org/1999/xlink">
<g id="graph0" class="graph" transform="scale(1 1) rotate(0) translate(4 138)">
<title>InterfaceQt::mettreAJourAffichage</title>
<!-- Node1 -->
<g id="Node000001" class="node">
<title>Node1</title>
<g id="a_Node000001"><a xlink:title="Met à jour l&#39;affichage.">
<polygon fill="#999999" stroke="#666666" points="124,-83 0,-83 0,-51 124,-51 124,-83"/>
<text xml:space="preserve" text-anchor="start" x="8" y="-69.5" font-family="Helvetica,sans-Serif" font-size="10.00">InterfaceQt::mettreAJour</text>
<text xml:space="preserve" text-anchor="middle" x="62" y="-57.5" font-family="Helvetica,sans-Serif" font-size="10.00">Affichage</text>
</a>
</g>
</g>
<!-- Node2 -->
<g id="Node000002" class="node">
<title>Node2</title>
<g id="a_Node000002"><a xlink:href="classInterfaceQt.html#abe5b2e247e50614efbf88402c774899c" target="_top" xlink:title="Compte les cellules vivantes.">
<polygon fill="white" stroke="#666666" points="301.25,-83 160,-83 160,-51 301.25,-51 301.25,-83"/>
<text xml:space="preserve" text-anchor="start" x="168" y="-69.5" font-family="Helvetica,sans-Serif" font-size="10.00">InterfaceQt::compterCellules</text>
<text xml:space="preserve" text-anchor="middle" x="230.62" y="-57.5" font-family="Helvetica,sans-Serif" font-size="10.00">Vivantes</text>
</a>
</g>
</g>
<!-- Node1&#45;&gt;Node2 -->
<g id="edge1_Node000001_Node000002" class="edge">
<title>Node1&#45;&gt;Node2</title>
<g id="a_edge1_Node000001_Node000002"><a xlink:title=" ">
<path fill="none" stroke="#63b8ff" d="M124.1,-67C131.93,-67 140.04,-67 148.12,-67"/>
<polygon fill="#63b8ff" stroke="#63b8ff" points="148,-70.5 158,-67 148,-63.5 148,-70.5"/>
</a>
</g>
</g>
<!-- Node3 -->
<g id="Node000003" class="node">
<title>Node3</title>
<g id="a_Node000003"><a xlink:href="classCellule.html#a70d2731234961e330fe0a31486d1dec7" target="_top" xlink:title="Vérifie si la cellule est vivante.">
<polygon fill="white" stroke="#666666" points="450.38,-134 351.88,-134 351.88,-114 450.38,-114 450.38,-134"/>
<text xml:space="preserve" text-anchor="middle" x="401.12" y="-120.5" font-family="Helvetica,sans-Serif" font-size="10.00">Cellule::estVivante</text>
</a>
</g>
</g>
<!-- Node2&#45;&gt;Node3 -->
<g id="edge2_Node000002_Node000003" class="edge">
<title>Node2&#45;&gt;Node3</title>
<g id="a_edge2_Node000002_Node000003"><a xlink:title=" ">
<path fill="none" stroke="#63b8ff" d="M275.64,-83.41C294.53,-90.31 316.9,-98.27 337.25,-105 342.59,-106.77 348.21,-108.56 353.81,-110.3"/>
<polygon fill="#63b8ff" stroke="#63b8ff" points="352.41,-113.53 363,-113.12 354.47,-106.84 352.41,-113.53"/>
</a>
</g>
</g>
<!-- Node4 -->
<g id="Node000004" class="node">
<title>Node4</title>
<g id="a_Node000004"><a xlink:href="classGrille.html#aab75610fe73ae48bd035a048c55832f0" target="_top" xlink:title="Obtient une cellule à une position donnée.">
<polygon fill="white" stroke="#666666" points="453,-96 349.25,-96 349.25,-76 453,-76 453,-96"/>
<text xml:space="preserve" text-anchor="middle" x="401.12" y="-82.5" font-family="Helvetica,sans-Serif" font-size="10.00">Grille::obtenirCellule</text>
</a>
</g>
</g>
<!-- Node2&#45;&gt;Node4 -->
<g id="edge3_Node000002_Node000004" class="edge">
<title>Node2&#45;&gt;Node4</title>
<g id="a_edge3_Node000002_Node000004"><a xlink:title=" ">
<path fill="none" stroke="#63b8ff" d="M301.62,-74.89C313.49,-76.23 325.74,-77.61 337.41,-78.93"/>
<polygon fill="#63b8ff" stroke="#63b8ff" points="337.01,-82.41 347.34,-80.05 337.79,-75.45 337.01,-82.41"/>
</a>
</g>
</g>
<!-- Node6 -->
<g id="Node000006" class="node">
<title>Node6</title>
<g id="a_Node000006"><a xlink:href="classGrille.html#a1ab5c8e0ea0d1dc21549c38d0f0f5cf9" target="_top" xlink:title="Obtient le nombre de colonnes.">
<polygon fill="white" stroke="#666666" points="465,-58 337.25,-58 337.25,-38 465,-38 465,-58"/>
<text xml:space="preserve" text-anchor="middle" x="401.12" y="-44.5" font-family="Helvetica,sans-Serif" font-size="10.00">Grille::obtenirNbColonnes</text>
</a>
</g>
</g>
<!-- Node2&#45;&gt;Node6 -->
<g id="edge5_Node000002_Node000006" class="edge">
<title>Node2&#45;&gt;Node6</title>
<g id="a_edge5_Node000002_Node000006"><a xlink:title=" ">
<path fill="none" stroke="#63b8ff" d="M301.62,-59.11C309.55,-58.21 317.65,-57.3 325.63,-56.4"/>
<polygon fill="#63b8ff" stroke="#63b8ff" points="325.76,-59.91 335.31,-55.31 324.98,-52.95 325.76,-59.91"/>
</a>
</g>
</g>
<!-- Node7 -->
<g id="Node000007" class="node">
<title>Node7</title>
<g id="a_Node000007"><a xlink:href="classGrille.html#a96b5f98d212a0ee9e2f71d73ebe5bb91" target="_top" xlink:title="Obtient le nombre de lignes.">
<polygon fill="white" stroke="#666666" points="458.62,-20 343.62,-20 343.62,0 458.62,0 458.62,-20"/>
<text xml:space="preserve" text-anchor="middle" x="401.12" y="-6.5" font-family="Helvetica,sans-Serif" font-size="10.00">Grille::obtenirNbLignes</text>
</a>
</g>
</g>
<!-- Node2&#45;&gt;Node7 -->
<g id="edge6_Node000002_Node000007" class="edge">
<title>Node2&#45;&gt;Node7</title>
<g id="a_edge6_Node000002_Node000007"><a xlink:title=" ">
<path fill="none" stroke="#63b8ff" d="M275.64,-50.59C294.53,-43.69 316.9,-35.73 337.25,-29 342.59,-27.23 348.21,-25.44 353.81,-23.7"/>
<polygon fill="#63b8ff" stroke="#63b8ff" points="354.47,-27.16 363,-20.88 352.41,-20.47 354.47,-27.16"/>
</a>
</g>
</g>
<!-- Node5 -->
<g id="Node000005" class="node">
<title>Node5</title>
<g id="a_Node000005"><a xlink:href="classGrille.html#aa4c9ce36bb4f2c59a83aeb39d73fc285" target="_top" xlink:title="Vérifie si une position est valide dans la grille.">
<polygon fill="white" stroke="#666666" points="620.5,-96 501,-96 501,-76 620.5,-76 620.5,-96"/>
<text xml:space="preserve" text-anchor="middle" x="560.75" y="-82.5" font-family="Helvetica,sans-Serif" font-size="10.00">Grille::estPositionValide</text>
</a>
</g>
</g>
<!-- Node4&#45;&gt;Node5 -->
<g id="edge4_Node000004_Node000005" class="edge">
<title>Node4&#45;&gt;Node5</title>
<g id="a_edge4_Node000004_Node000005"><a xlink:title=" ">
<path fill="none" stroke="#63b8ff" d="M453.3,-86C464.75,-86 477.08,-86 489.16,-86"/>
<polygon fill="#63b8ff" stroke="#63b8ff" points="489.1,-89.5 499.1,-86 489.1,-82.5 489.1,-89.5"/>
</a>
</g>
</g>
</g>
</svg>
