<?xml version="1.0" encoding="UTF-8" standalone="no"?>
<!DOCTYPE svg PUBLIC "-//W3C//DTD SVG 1.1//EN"
 "http://www.w3.org/Graphics/SVG/1.1/DTD/svg11.dtd">
<!-- Generated by graphviz version 14.0.2 (20251019.1705)
 -->
<!-- Title: InterfaceQt::initialiserWidgets Pages: 1 -->
<!--zoomable 356 -->

<svg id="main" version="1.1" xmlns="http://www.w3.org/2000/svg" xmlns:xlink="http://www.w3.org/1999/xlink" xml:space="preserve" onload="init(evt)">

<style type="text/css"><![CDATA[
.node, .edge {opacity: 0.7;}
.node.selected, .edge.selected {opacity: 1;}
.edge:hover path { stroke: red; }
.edge:hover polygon { stroke: red; fill: red; }
]]></style>

<defs>
  <circle id="rim" cx="0" cy="0" r="7"/>
  <circle id="rim2" cx="0" cy="0" r="3.5"/>
  <g id="zoomPlus">
    <use xlink:href="#rim" fill="#404040"><set attributeName="fill" to="#808080" begin="zoomplus.mouseover" end="zoomplus.mouseout"/></use>
    <path d="M-4,0h8M0,-4v8" fill="none" stroke="white" stroke-width="1.5" pointer-events="none"/>
  </g>
  <g id="zoomMin">
    <use xlink:href="#rim" fill="#404040"><set attributeName="fill" to="#808080" begin="zoomminus.mouseover" end="zoomminus.mouseout"/></use>
    <path d="M-4,0h8" fill="none" stroke="white" stroke-width="1.5" pointer-events="none"/>
  </g>
  <g id="arrowUp" transform="translate(30 24)">
    <use xlink:href="#rim"/>
    <path pointer-events="none" fill="none" stroke="white" stroke-width="1.5" d="M0,-3.0v7 M-2.5,-0.5L0,-3.0L2.5,-0.5"/>
  </g>
  <g id="arrowRight" transform="rotate(90) translate(36 -43)">
    <use xlink:href="#rim"/>
    <path pointer-events="none" fill="none" stroke="white" stroke-width="1.5" d="M0,-3.0v7 M-2.5,-0.5L0,-3.0L2.5,-0.5"/>
  </g>
  <g id="arrowDown" transform="rotate(180) translate(-30 -48)">
    <use xlink:href="#rim"/>
    <path pointer-events="none" fill="none" stroke="white" stroke-width="1.5" d="M0,-3.0v7 M-2.5,-0.5L0,-3.0L2.5,-0.5"/>
  </g>
  <g id="arrowLeft" transform="rotate(270) translate(-36 17)">
    <use xlink:href="#rim"/>
    <path pointer-events="none" fill="none" stroke="white" stroke-width="1.5" d="M0,-3.0v7 M-2.5,-0.5L0,-3.0L2.5,-0.5"/>
  </g>
  <g id="resetDef">
    <use xlink:href="#rim2" fill="#404040"><set attributeName="fill" to="#808080" begin="reset.mouseover" end="reset.mouseout"/></use>
  </g>
</defs>
<script type="application/ecmascript">
var viewWidth = 963;
var viewHeight = 356;
var sectionId = 'dynsection-11';
</script>
<script type="application/ecmascript" xlink:href="svg.min.js"/>
<svg id="graph" class="graph">
<g id="viewport">
<title>InterfaceQt::initialiserWidgets</title>
<!-- Node1 -->
<g id="Node000001" class="node">
<title>Node1</title>
<g id="a_Node000001"><a xlink:title="Initialise les widgets.">
<polygon fill="#999999" stroke="#666666" points="109,-178 0,-178 0,-146 109,-146 109,-178"/>
<text xml:space="preserve" text-anchor="start" x="8" y="-164.5" font-family="Helvetica,sans-Serif" font-size="10.00">InterfaceQt::initialiser</text>
<text xml:space="preserve" text-anchor="middle" x="54.5" y="-152.5" font-family="Helvetica,sans-Serif" font-size="10.00">Widgets</text>
</a>
</g>
</g>
<!-- Node2 -->
<g id="Node000002" class="node">
<title>Node2</title>
<g id="a_Node000002"><a xlink:href="classInterfaceQt.html#a91750f9bfd30320a5b8e2d6a0fb7fa4d" target="_top" xlink:title="Change le nombre d&#39;itérations maximum.">
<polygon fill="white" stroke="#666666" points="279.88,-348 163.38,-348 163.38,-316 279.88,-316 279.88,-348"/>
<text xml:space="preserve" text-anchor="start" x="171.38" y="-334.5" font-family="Helvetica,sans-Serif" font-size="10.00">InterfaceQt::onIteration</text>
<text xml:space="preserve" text-anchor="middle" x="221.62" y="-322.5" font-family="Helvetica,sans-Serif" font-size="10.00">MaxChanged</text>
</a>
</g>
</g>
<!-- Node1&#45;&gt;Node2 -->
<g id="edge1_Node000001_Node000002" class="edge">
<title>Node1&#45;&gt;Node2</title>
<g id="a_edge1_Node000001_Node000002"><a xlink:title=" ">
<path fill="none" stroke="#63b8ff" d="M61.13,-178.06C72.37,-207.83 100.43,-271.79 145,-307 147.54,-309.01 150.25,-310.86 153.08,-312.56"/>
<polygon fill="#63b8ff" stroke="#63b8ff" points="151.25,-315.55 161.73,-317.11 154.51,-309.36 151.25,-315.55"/>
</a>
</g>
</g>
<!-- Node3 -->
<g id="Node000003" class="node">
<title>Node3</title>
<g id="a_Node000003"><a xlink:href="classInterfaceQt.html#a3c06b01e3faf996c40d9dc8916b7ad1f" target="_top" xlink:title="Toggle parallélisation.">
<polygon fill="white" stroke="#666666" points="281,-298 162.25,-298 162.25,-266 281,-266 281,-298"/>
<text xml:space="preserve" text-anchor="start" x="170.25" y="-284.5" font-family="Helvetica,sans-Serif" font-size="10.00">InterfaceQt::onParallele</text>
<text xml:space="preserve" text-anchor="middle" x="221.62" y="-272.5" font-family="Helvetica,sans-Serif" font-size="10.00">Changed</text>
</a>
</g>
</g>
<!-- Node1&#45;&gt;Node3 -->
<g id="edge2_Node000001_Node000003" class="edge">
<title>Node1&#45;&gt;Node3</title>
<g id="a_edge2_Node000001_Node000003"><a xlink:title=" ">
<path fill="none" stroke="#63b8ff" d="M66.93,-178.48C82.35,-199.54 111.75,-235.82 145,-257 147.13,-258.36 149.35,-259.65 151.62,-260.88"/>
<polygon fill="#63b8ff" stroke="#63b8ff" points="150,-263.98 160.52,-265.2 153.05,-257.68 150,-263.98"/>
</a>
</g>
</g>
<!-- Node4 -->
<g id="Node000004" class="node">
<title>Node4</title>
<g id="a_Node000004"><a xlink:href="classInterfaceQt.html#a280bb380e08e13ec39b8dca2ae917950" target="_top" xlink:title="Place un motif.">
<polygon fill="white" stroke="#666666" points="287,-134 156.25,-134 156.25,-114 287,-114 287,-134"/>
<text xml:space="preserve" text-anchor="middle" x="221.62" y="-120.5" font-family="Helvetica,sans-Serif" font-size="10.00">InterfaceQt::onPlacerMotif</text>
</a>
</g>
</g>
<!-- Node1&#45;&gt;Node4 -->
<g id="edge3_Node000001_Node000004" class="edge">
<title>Node1&#45;&gt;Node4</title>
<g id="a_edge3_Node000001_Node000004"><a xlink:title=" ">
<path fill="none" stroke="#63b8ff" d="M109.11,-149.66C126.65,-145.63 146.19,-141.13 163.95,-137.04"/>
<polygon fill="#63b8ff" stroke="#63b8ff" points="164.6,-140.48 173.56,-134.83 163.03,-133.66 164.6,-140.48"/>
</a>
</g>
</g>
<!-- Node12 -->
<g id="Node000012" class="node">
<title>Node12</title>
<g id="a_Node000012"><a xlink:href="classInterfaceQt.html#a7a4a2f568e5489965eee2dc49dc27161" target="_top" xlink:title="Gestion du bouton Play/Pause.">
<polygon fill="white" stroke="#666666" points="285.88,-96 157.38,-96 157.38,-76 285.88,-76 285.88,-96"/>
<text xml:space="preserve" text-anchor="middle" x="221.62" y="-82.5" font-family="Helvetica,sans-Serif" font-size="10.00">InterfaceQt::onPlayPause</text>
</a>
</g>
</g>
<!-- Node1&#45;&gt;Node12 -->
<g id="edge13_Node000001_Node000012" class="edge">
<title>Node1&#45;&gt;Node12</title>
<g id="a_edge13_Node000001_Node000012"><a xlink:title=" ">
<path fill="none" stroke="#63b8ff" d="M76.83,-145.62C94.31,-132.91 120.13,-115.71 145,-105 149.34,-103.13 153.89,-101.42 158.53,-99.86"/>
<polygon fill="#63b8ff" stroke="#63b8ff" points="159.48,-103.23 167.99,-96.93 157.41,-96.54 159.48,-103.23"/>
</a>
</g>
</g>
<!-- Node13 -->
<g id="Node000013" class="node">
<title>Node13</title>
<g id="a_Node000013"><a xlink:href="classInterfaceQt.html#af564176618a18f272b92be6bfd9d029d" target="_top" xlink:title="Réinitialise la simulation.">
<polygon fill="white" stroke="#666666" points="275.38,-248 167.88,-248 167.88,-228 275.38,-228 275.38,-248"/>
<text xml:space="preserve" text-anchor="middle" x="221.62" y="-234.5" font-family="Helvetica,sans-Serif" font-size="10.00">InterfaceQt::onReset</text>
</a>
</g>
</g>
<!-- Node1&#45;&gt;Node13 -->
<g id="edge14_Node000001_Node000013" class="edge">
<title>Node1&#45;&gt;Node13</title>
<g id="a_edge14_Node000001_Node000013"><a xlink:title=" ">
<path fill="none" stroke="#63b8ff" d="M76.83,-178.38C94.31,-191.09 120.13,-208.29 145,-219 149.34,-220.87 153.89,-222.58 158.53,-224.14"/>
<polygon fill="#63b8ff" stroke="#63b8ff" points="157.41,-227.46 167.99,-227.07 159.48,-220.77 157.41,-227.46"/>
</a>
</g>
</g>
<!-- Node14 -->
<g id="Node000014" class="node">
<title>Node14</title>
<g id="a_Node000014"><a xlink:href="classInterfaceQt.html#a1c1b614c51a456e7b5f407724df14f38" target="_top" xlink:title="Avance d&#39;une itération.">
<polygon fill="white" stroke="#666666" points="272.38,-210 170.88,-210 170.88,-190 272.38,-190 272.38,-210"/>
<text xml:space="preserve" text-anchor="middle" x="221.62" y="-196.5" font-family="Helvetica,sans-Serif" font-size="10.00">InterfaceQt::onStep</text>
</a>
</g>
</g>
<!-- Node1&#45;&gt;Node14 -->
<g id="edge16_Node000001_Node000014" class="edge">
<title>Node1&#45;&gt;Node14</title>
<g id="a_edge16_Node000001_Node000014"><a xlink:title=" ">
<path fill="none" stroke="#63b8ff" d="M109.11,-174.34C126.65,-178.37 146.19,-182.87 163.95,-186.96"/>
<polygon fill="#63b8ff" stroke="#63b8ff" points="163.03,-190.34 173.56,-189.17 164.6,-183.52 163.03,-190.34"/>
</a>
</g>
</g>
<!-- Node15 -->
<g id="Node000015" class="node">
<title>Node15</title>
<g id="a_Node000015"><a xlink:href="classInterfaceQt.html#abe7956e622104a15a5de0b3f8c84921d" target="_top" xlink:title="Recule d&#39;une itération.">
<polygon fill="white" stroke="#666666" points="283.62,-172 159.62,-172 159.62,-152 283.62,-152 283.62,-172"/>
<text xml:space="preserve" text-anchor="middle" x="221.62" y="-158.5" font-family="Helvetica,sans-Serif" font-size="10.00">InterfaceQt::onStepBack</text>
</a>
</g>
</g>
<!-- Node1&#45;&gt;Node15 -->
<g id="edge18_Node000001_Node000015" class="edge">
<title>Node1&#45;&gt;Node15</title>
<g id="a_edge18_Node000001_Node000015"><a xlink:title=" ">
<path fill="none" stroke="#63b8ff" d="M109.11,-162C121.49,-162 134.87,-162 147.91,-162"/>
<polygon fill="#63b8ff" stroke="#63b8ff" points="147.74,-165.5 157.74,-162 147.74,-158.5 147.74,-165.5"/>
</a>
</g>
</g>
<!-- Node16 -->
<g id="Node000016" class="node">
<title>Node16</title>
<g id="a_Node000016"><a xlink:href="classInterfaceQt.html#ac5397f8a5866fe16768cf7b19578d6e6" target="_top" xlink:title="Toggle mode torique.">
<polygon fill="white" stroke="#666666" points="297.5,-58 145.75,-58 145.75,-38 297.5,-38 297.5,-58"/>
<text xml:space="preserve" text-anchor="middle" x="221.62" y="-44.5" font-family="Helvetica,sans-Serif" font-size="10.00">InterfaceQt::onToriqueChanged</text>
</a>
</g>
</g>
<!-- Node1&#45;&gt;Node16 -->
<g id="edge20_Node000001_Node000016" class="edge">
<title>Node1&#45;&gt;Node16</title>
<g id="a_edge20_Node000001_Node000016"><a xlink:title=" ">
<path fill="none" stroke="#63b8ff" d="M66.44,-145.51C81.53,-124.09 110.8,-87.07 145,-67 147.65,-65.45 150.41,-64.02 153.27,-62.71"/>
<polygon fill="#63b8ff" stroke="#63b8ff" points="154.49,-65.99 162.46,-59.02 151.88,-59.5 154.49,-65.99"/>
</a>
</g>
</g>
<!-- Node17 -->
<g id="Node000017" class="node">
<title>Node17</title>
<g id="a_Node000017"><a xlink:href="classInterfaceQt.html#aced0a3719ad775ff3d2297950c5352a6" target="_top" xlink:title="Change la vitesse.">
<polygon fill="white" stroke="#666666" points="298.25,-20 145,-20 145,0 298.25,0 298.25,-20"/>
<text xml:space="preserve" text-anchor="middle" x="221.62" y="-6.5" font-family="Helvetica,sans-Serif" font-size="10.00">InterfaceQt::onVitesseChanged</text>
</a>
</g>
</g>
<!-- Node1&#45;&gt;Node17 -->
<g id="edge21_Node000001_Node000017" class="edge">
<title>Node1&#45;&gt;Node17</title>
<g id="a_edge21_Node000001_Node000017"><a xlink:title=" ">
<path fill="none" stroke="#63b8ff" d="M61.84,-145.65C73.69,-117.32 101.95,-59.23 145,-29 146.83,-27.72 148.73,-26.52 150.7,-25.4"/>
<polygon fill="#63b8ff" stroke="#63b8ff" points="152.1,-28.61 159.6,-21.12 149.07,-22.3 152.1,-28.61"/>
</a>
</g>
</g>
<!-- Node5 -->
<g id="Node000005" class="node">
<title>Node5</title>
<g id="a_Node000005"><a xlink:href="classInterfaceQt.html#a06b809d43dbf3814ab103a8d42de319a" target="_top" xlink:title="Met à jour l&#39;affichage.">
<polygon fill="white" stroke="#666666" points="458.25,-200 334.25,-200 334.25,-168 458.25,-168 458.25,-200"/>
<text xml:space="preserve" text-anchor="start" x="342.25" y="-186.5" font-family="Helvetica,sans-Serif" font-size="10.00">InterfaceQt::mettreAJour</text>
<text xml:space="preserve" text-anchor="middle" x="396.25" y="-174.5" font-family="Helvetica,sans-Serif" font-size="10.00">Affichage</text>
</a>
</g>
</g>
<!-- Node4&#45;&gt;Node5 -->
<g id="edge4_Node000004_Node000005" class="edge">
<title>Node4&#45;&gt;Node5</title>
<g id="a_edge4_Node000004_Node000005"><a xlink:title=" ">
<path fill="none" stroke="#63b8ff" d="M268.94,-134.44C278.7,-136.97 288.88,-139.86 298.25,-143 315.46,-148.76 333.9,-156.22 350.04,-163.19"/>
<polygon fill="#63b8ff" stroke="#63b8ff" points="348.33,-166.26 358.89,-167.07 351.14,-159.85 348.33,-166.26"/>
</a>
</g>
</g>
<!-- Node10 -->
<g id="Node000010" class="node">
<title>Node10</title>
<g id="a_Node000010"><a xlink:href="classGrille.html#a1ab5c8e0ea0d1dc21549c38d0f0f5cf9" target="_top" xlink:title="Obtient le nombre de colonnes.">
<polygon fill="white" stroke="#666666" points="799.25,-115 671.5,-115 671.5,-95 799.25,-95 799.25,-115"/>
<text xml:space="preserve" text-anchor="middle" x="735.38" y="-101.5" font-family="Helvetica,sans-Serif" font-size="10.00">Grille::obtenirNbColonnes</text>
</a>
</g>
</g>
<!-- Node4&#45;&gt;Node10 -->
<g id="edge11_Node000004_Node000010" class="edge">
<title>Node4&#45;&gt;Node10</title>
<g id="a_edge11_Node000004_Node000010"><a xlink:title=" ">
<path fill="none" stroke="#63b8ff" d="M287.44,-121.59C382.61,-118.06 559.72,-111.48 660.04,-107.76"/>
<polygon fill="#63b8ff" stroke="#63b8ff" points="659.91,-111.27 669.78,-107.4 659.65,-104.27 659.91,-111.27"/>
</a>
</g>
</g>
<!-- Node11 -->
<g id="Node000011" class="node">
<title>Node11</title>
<g id="a_Node000011"><a xlink:href="classGrille.html#a96b5f98d212a0ee9e2f71d73ebe5bb91" target="_top" xlink:title="Obtient le nombre de lignes.">
<polygon fill="white" stroke="#666666" points="792.88,-153 677.88,-153 677.88,-133 792.88,-133 792.88,-153"/>
<text xml:space="preserve" text-anchor="middle" x="735.38" y="-139.5" font-family="Helvetica,sans-Serif" font-size="10.00">Grille::obtenirNbLignes</text>
</a>
</g>
</g>
<!-- Node4&#45;&gt;Node11 -->
<g id="edge12_Node000004_Node000011" class="edge">
<title>Node4&#45;&gt;Node11</title>
<g id="a_edge12_Node000004_Node000011"><a xlink:title=" ">
<path fill="none" stroke="#63b8ff" d="M287.44,-126.41C384.58,-130.01 567.1,-136.79 666.18,-140.47"/>
<polygon fill="#63b8ff" stroke="#63b8ff" points="665.91,-143.96 676.04,-140.83 666.17,-136.97 665.91,-143.96"/>
</a>
</g>
</g>
<!-- Node6 -->
<g id="Node000006" class="node">
<title>Node6</title>
<g id="a_Node000006"><a xlink:href="classInterfaceQt.html#abe5b2e247e50614efbf88402c774899c" target="_top" xlink:title="Compte les cellules vivantes.">
<polygon fill="white" stroke="#666666" points="635.5,-200 494.25,-200 494.25,-168 635.5,-168 635.5,-200"/>
<text xml:space="preserve" text-anchor="start" x="502.25" y="-186.5" font-family="Helvetica,sans-Serif" font-size="10.00">InterfaceQt::compterCellules</text>
<text xml:space="preserve" text-anchor="middle" x="564.88" y="-174.5" font-family="Helvetica,sans-Serif" font-size="10.00">Vivantes</text>
</a>
</g>
</g>
<!-- Node5&#45;&gt;Node6 -->
<g id="edge5_Node000005_Node000006" class="edge">
<title>Node5&#45;&gt;Node6</title>
<g id="a_edge5_Node000005_Node000006"><a xlink:title=" ">
<path fill="none" stroke="#63b8ff" d="M458.35,-184C466.18,-184 474.29,-184 482.37,-184"/>
<polygon fill="#63b8ff" stroke="#63b8ff" points="482.25,-187.5 492.25,-184 482.25,-180.5 482.25,-187.5"/>
</a>
</g>
</g>
<!-- Node7 -->
<g id="Node000007" class="node">
<title>Node7</title>
<g id="a_Node000007"><a xlink:href="classCellule.html#a70d2731234961e330fe0a31486d1dec7" target="_top" xlink:title="Vérifie si la cellule est vivante.">
<polygon fill="white" stroke="#666666" points="784.62,-230 686.12,-230 686.12,-210 784.62,-210 784.62,-230"/>
<text xml:space="preserve" text-anchor="middle" x="735.38" y="-216.5" font-family="Helvetica,sans-Serif" font-size="10.00">Cellule::estVivante</text>
</a>
</g>
</g>
<!-- Node6&#45;&gt;Node7 -->
<g id="edge6_Node000006_Node000007" class="edge">
<title>Node6&#45;&gt;Node7</title>
<g id="a_edge6_Node000006_Node000007"><a xlink:title=" ">
<path fill="none" stroke="#63b8ff" d="M635.87,-198.95C648.68,-201.69 661.94,-204.52 674.42,-207.19"/>
<polygon fill="#63b8ff" stroke="#63b8ff" points="673.64,-210.6 684.15,-209.27 675.1,-203.76 673.64,-210.6"/>
</a>
</g>
</g>
<!-- Node8 -->
<g id="Node000008" class="node">
<title>Node8</title>
<g id="a_Node000008"><a xlink:href="classGrille.html#aab75610fe73ae48bd035a048c55832f0" target="_top" xlink:title="Obtient une cellule à une position donnée.">
<polygon fill="white" stroke="#666666" points="787.25,-192 683.5,-192 683.5,-172 787.25,-172 787.25,-192"/>
<text xml:space="preserve" text-anchor="middle" x="735.38" y="-178.5" font-family="Helvetica,sans-Serif" font-size="10.00">Grille::obtenirCellule</text>
</a>
</g>
</g>
<!-- Node6&#45;&gt;Node8 -->
<g id="edge7_Node000006_Node000008" class="edge">
<title>Node6&#45;&gt;Node8</title>
<g id="a_edge7_Node000006_Node000008"><a xlink:title=" ">
<path fill="none" stroke="#63b8ff" d="M635.87,-183.17C647.74,-183.03 659.99,-182.88 671.66,-182.74"/>
<polygon fill="#63b8ff" stroke="#63b8ff" points="671.62,-186.25 681.58,-182.63 671.54,-179.25 671.62,-186.25"/>
</a>
</g>
</g>
<!-- Node6&#45;&gt;Node10 -->
<g id="edge9_Node000006_Node000010" class="edge">
<title>Node6&#45;&gt;Node10</title>
<g id="a_edge9_Node000006_Node000010"><a xlink:title=" ">
<path fill="none" stroke="#63b8ff" d="M591.09,-167.54C611.99,-154.43 642.81,-136.3 671.5,-124 675.57,-122.26 679.85,-120.6 684.19,-119.05"/>
<polygon fill="#63b8ff" stroke="#63b8ff" points="685.18,-122.41 693.55,-115.91 682.96,-115.78 685.18,-122.41"/>
</a>
</g>
</g>
<!-- Node6&#45;&gt;Node11 -->
<g id="edge10_Node000006_Node000011" class="edge">
<title>Node6&#45;&gt;Node11</title>
<g id="a_edge10_Node000006_Node000011"><a xlink:title=" ">
<path fill="none" stroke="#63b8ff" d="M633.44,-167.56C649.05,-163.76 665.46,-159.77 680.41,-156.13"/>
<polygon fill="#63b8ff" stroke="#63b8ff" points="681.15,-159.55 690.04,-153.79 679.5,-152.75 681.15,-159.55"/>
</a>
</g>
</g>
<!-- Node9 -->
<g id="Node000009" class="node">
<title>Node9</title>
<g id="a_Node000009"><a xlink:href="classGrille.html#aa4c9ce36bb4f2c59a83aeb39d73fc285" target="_top" xlink:title="Vérifie si une position est valide dans la grille.">
<polygon fill="white" stroke="#666666" points="954.75,-192 835.25,-192 835.25,-172 954.75,-172 954.75,-192"/>
<text xml:space="preserve" text-anchor="middle" x="895" y="-178.5" font-family="Helvetica,sans-Serif" font-size="10.00">Grille::estPositionValide</text>
</a>
</g>
</g>
<!-- Node8&#45;&gt;Node9 -->
<g id="edge8_Node000008_Node000009" class="edge">
<title>Node8&#45;&gt;Node9</title>
<g id="a_edge8_Node000008_Node000009"><a xlink:title=" ">
<path fill="none" stroke="#63b8ff" d="M787.55,-182C799,-182 811.33,-182 823.41,-182"/>
<polygon fill="#63b8ff" stroke="#63b8ff" points="823.35,-185.5 833.35,-182 823.35,-178.5 823.35,-185.5"/>
</a>
</g>
</g>
<!-- Node13&#45;&gt;Node5 -->
<g id="edge15_Node000013_Node000005" class="edge">
<title>Node13&#45;&gt;Node5</title>
<g id="a_edge15_Node000013_Node000005"><a xlink:title=" ">
<path fill="none" stroke="#63b8ff" d="M267.22,-227.59C277.47,-224.97 288.28,-222.04 298.25,-219 312.58,-214.63 327.9,-209.37 342.04,-204.28"/>
<polygon fill="#63b8ff" stroke="#63b8ff" points="342.97,-207.67 351.16,-200.96 340.57,-201.09 342.97,-207.67"/>
</a>
</g>
</g>
<!-- Node14&#45;&gt;Node5 -->
<g id="edge17_Node000014_Node000005" class="edge">
<title>Node14&#45;&gt;Node5</title>
<g id="a_edge17_Node000014_Node000005"><a xlink:title=" ">
<path fill="none" stroke="#63b8ff" d="M272.56,-195.37C288.24,-193.92 305.88,-192.28 322.8,-190.72"/>
<polygon fill="#63b8ff" stroke="#63b8ff" points="322.64,-194.25 332.27,-189.84 321.99,-187.27 322.64,-194.25"/>
</a>
</g>
</g>
<!-- Node15&#45;&gt;Node5 -->
<g id="edge19_Node000015_Node000005" class="edge">
<title>Node15&#45;&gt;Node5</title>
<g id="a_edge19_Node000015_Node000005"><a xlink:title=" ">
<path fill="none" stroke="#63b8ff" d="M283.97,-169.82C296.49,-171.41 309.77,-173.11 322.64,-174.75"/>
<polygon fill="#63b8ff" stroke="#63b8ff" points="321.95,-178.19 332.31,-175.98 322.83,-171.24 321.95,-178.19"/>
</a>
</g>
</g>
</g>
</svg>

<g id="navigator" transform="translate(0 0)" fill="#404254">
  <rect fill="#f2f5e9" fill-opacity="0.5" stroke="#606060" stroke-width=".5" x="0" y="0" width="60" height="60"/>
  <use id="zoomplus" xlink:href="#zoomPlus" x="17" y="9" onmousedown="handleZoom(evt,'in')"/>
  <use id="zoomminus" xlink:href="#zoomMin" x="42" y="9" onmousedown="handleZoom(evt,'out')"/>
  <use id="reset" xlink:href="#resetDef" x="30" y="36" onmousedown="handleReset()"/>
   <use id="arrowup" xlink:href="#arrowUp" x="0" y="0" onmousedown="handlePan(0,-1)"/>
  <use id="arrowright" xlink:href="#arrowRight" x="0" y="0" onmousedown="handlePan(1,0)"/>
  <use id="arrowdown" xlink:href="#arrowDown" x="0" y="0" onmousedown="handlePan(0,1)"/>
  <use id="arrowleft" xlink:href="#arrowLeft" x="0" y="0" onmousedown="handlePan(-1,0)"/>
</g>
<svg viewBox="0 0 15 15" width="100%" height="30px" preserveAspectRatio="xMaxYMin meet">
 <g id="arrow_out" transform="scale(0.3 0.3)">
  <a xlink:href="classInterfaceQt_a08632443206d676198dfd1f7492e7437_cgraph_org.svg" target="_base">
   <rect id="button" ry="5" rx="5" y="6" x="6" height="38" width="38"
        fill="#f2f5e9" fill-opacity="0.5" stroke="#606060" stroke-width="1.0"/>
   <path id="arrow"
     d="M 11.500037,31.436501 C 11.940474,20.09759 22.043105,11.32322 32.158766,21.979434 L 37.068811,17.246167 C 37.068811,17.246167 37.088388,32 37.088388,32 L 22.160133,31.978069 C 22.160133,31.978069 26.997745,27.140456 26.997745,27.140456 C 18.528582,18.264221 13.291696,25.230495 11.500037,31.436501 z"
     style="fill:#404040;"/>
  </a>
 </g>
</svg>

<style type='text/css'>
<![CDATA[
[data-mouse-over-selected='false'] { opacity: 0.7; }
[data-mouse-over-selected='true']  { opacity: 1.0; }
]]>
</style>
<script type="application/ecmascript"><![CDATA[
document.addEventListener('DOMContentLoaded', (event) => {
  highlightEdges();
  highlightAdjacentNodes();
});
]]></script>
</svg>
