<?xml version="1.0" encoding="UTF-8" standalone="no"?>
<!DOCTYPE svg PUBLIC "-//W3C//DTD SVG 1.1//EN"
 "http://www.w3.org/Graphics/SVG/1.1/DTD/svg11.dtd">
<!-- Generated by graphviz version 14.0.2 (20251019.1705)
 -->
<!-- Title: TestsUnitaires::testerBloc Pages: 1 -->
<!--zoomable 132 -->

<svg id="main" version="1.1" xmlns="http://www.w3.org/2000/svg" xmlns:xlink="http://www.w3.org/1999/xlink" xml:space="preserve" onload="init(evt)">

<style type="text/css"><![CDATA[
.node, .edge {opacity: 0.7;}
.node.selected, .edge.selected {opacity: 1;}
.edge:hover path { stroke: red; }
.edge:hover polygon { stroke: red; fill: red; }
]]></style>

<defs>
  <circle id="rim" cx="0" cy="0" r="7"/>
  <circle id="rim2" cx="0" cy="0" r="3.5"/>
  <g id="zoomPlus">
    <use xlink:href="#rim" fill="#404040"><set attributeName="fill" to="#808080" begin="zoomplus.mouseover" end="zoomplus.mouseout"/></use>
    <path d="M-4,0h8M0,-4v8" fill="none" stroke="white" stroke-width="1.5" pointer-events="none"/>
  </g>
  <g id="zoomMin">
    <use xlink:href="#rim" fill="#404040"><set attributeName="fill" to="#808080" begin="zoomminus.mouseover" end="zoomminus.mouseout"/></use>
    <path d="M-4,0h8" fill="none" stroke="white" stroke-width="1.5" pointer-events="none"/>
  </g>
  <g id="arrowUp" transform="translate(30 24)">
    <use xlink:href="#rim"/>
    <path pointer-events="none" fill="none" stroke="white" stroke-width="1.5" d="M0,-3.0v7 M-2.5,-0.5L0,-3.0L2.5,-0.5"/>
  </g>
  <g id="arrowRight" transform="rotate(90) translate(36 -43)">
    <use xlink:href="#rim"/>
    <path pointer-events="none" fill="none" stroke="white" stroke-width="1.5" d="M0,-3.0v7 M-2.5,-0.5L0,-3.0L2.5,-0.5"/>
  </g>
  <g id="arrowDown" transform="rotate(180) translate(-30 -48)">
    <use xlink:href="#rim"/>
    <path pointer-events="none" fill="none" stroke="white" stroke-width="1.5" d="M0,-3.0v7 M-2.5,-0.5L0,-3.0L2.5,-0.5"/>
  </g>
  <g id="arrowLeft" transform="rotate(270) translate(-36 17)">
    <use xlink:href="#rim"/>
    <path pointer-events="none" fill="none" stroke="white" stroke-width="1.5" d="M0,-3.0v7 M-2.5,-0.5L0,-3.0L2.5,-0.5"/>
  </g>
  <g id="resetDef">
    <use xlink:href="#rim2" fill="#404040"><set attributeName="fill" to="#808080" begin="reset.mouseover" end="reset.mouseout"/></use>
  </g>
</defs>
<script type="application/ecmascript">
var viewWidth = 794;
var viewHeight = 132;
var sectionId = 'dynsection-6';
</script>
<script type="application/ecmascript" xlink:href="svg.min.js"/>
<svg id="graph" class="graph">
<g id="viewport">
<title>TestsUnitaires::testerBloc</title>
<!-- Node1 -->
<g id="Node000001" class="node">
<title>Node1</title>
<g id="a_Node000001"><a xlink:title="Teste le motif stable (bloc).">
<polygon fill="#999999" stroke="#666666" points="129.25,-102 0,-102 0,-82 129.25,-82 129.25,-102"/>
<text xml:space="preserve" text-anchor="middle" x="64.62" y="-88.5" font-family="Helvetica,sans-Serif" font-size="10.00">TestsUnitaires::testerBloc</text>
</a>
</g>
</g>
<!-- Node2 -->
<g id="Node000002" class="node">
<title>Node2</title>
<g id="a_Node000002"><a xlink:href="classTestsUnitaires.html#a6430263d628fa3e1f55be64cf1aae756" target="_top" xlink:title="Crée une grille de test.">
<polygon fill="white" stroke="#666666" points="305,-124 175.75,-124 175.75,-104 305,-104 305,-124"/>
<text xml:space="preserve" text-anchor="middle" x="240.38" y="-110.5" font-family="Helvetica,sans-Serif" font-size="10.00">TestsUnitaires::creerGrille</text>
</a>
</g>
</g>
<!-- Node1&#45;&gt;Node2 -->
<g id="edge1_Node000001_Node000002" class="edge">
<title>Node1&#45;&gt;Node2</title>
<g id="a_edge1_Node000001_Node000002"><a xlink:title=" ">
<path fill="none" stroke="#63b8ff" d="M129.34,-100.07C140.6,-101.49 152.41,-102.99 163.96,-104.45"/>
<polygon fill="#63b8ff" stroke="#63b8ff" points="163.52,-107.92 173.88,-105.71 164.4,-100.98 163.52,-107.92"/>
</a>
</g>
</g>
<!-- Node5 -->
<g id="Node000005" class="node">
<title>Node5</title>
<g id="a_Node000005"><a xlink:href="classTestsUnitaires.html#a1fea61fb0483bb1f7e0284d828ad347f" target="_top" xlink:title="Teste l&#39;évolution d&#39;une grille après n itérations.">
<polygon fill="white" stroke="#666666" points="315.5,-83 165.25,-83 165.25,-63 315.5,-63 315.5,-83"/>
<text xml:space="preserve" text-anchor="middle" x="240.38" y="-69.5" font-family="Helvetica,sans-Serif" font-size="10.00">TestsUnitaires::testerEvolution</text>
</a>
</g>
</g>
<!-- Node1&#45;&gt;Node5 -->
<g id="edge4_Node000001_Node000005" class="edge">
<title>Node1&#45;&gt;Node5</title>
<g id="a_edge4_Node000001_Node000005"><a xlink:title=" ">
<path fill="none" stroke="#63b8ff" d="M129.34,-85.03C137.17,-84.18 145.27,-83.29 153.37,-82.4"/>
<polygon fill="#63b8ff" stroke="#63b8ff" points="153.71,-85.89 163.27,-81.32 152.95,-78.93 153.71,-85.89"/>
</a>
</g>
</g>
<!-- Node3 -->
<g id="Node000003" class="node">
<title>Node3</title>
<g id="a_Node000003"><a xlink:href="classGrille.html#ab4c852bc2327224eac9da60841f30baa" target="_top" xlink:title="Définit l&#39;état d&#39;une cellule.">
<polygon fill="white" stroke="#666666" points="626.5,-111 507.75,-111 507.75,-91 626.5,-91 626.5,-111"/>
<text xml:space="preserve" text-anchor="middle" x="567.12" y="-97.5" font-family="Helvetica,sans-Serif" font-size="10.00">Grille::definirEtatCellule</text>
</a>
</g>
</g>
<!-- Node2&#45;&gt;Node3 -->
<g id="edge2_Node000002_Node000003" class="edge">
<title>Node2&#45;&gt;Node3</title>
<g id="a_edge2_Node000002_Node000003"><a xlink:title=" ">
<path fill="none" stroke="#63b8ff" d="M305.15,-111.45C360.1,-109.25 439.31,-106.08 496.03,-103.81"/>
<polygon fill="#63b8ff" stroke="#63b8ff" points="496.05,-107.31 505.9,-103.41 495.77,-100.31 496.05,-107.31"/>
</a>
</g>
</g>
<!-- Node4 -->
<g id="Node000004" class="node">
<title>Node4</title>
<g id="a_Node000004"><a xlink:href="classGrille.html#aa4c9ce36bb4f2c59a83aeb39d73fc285" target="_top" xlink:title="Vérifie si une position est valide dans la grille.">
<polygon fill="white" stroke="#666666" points="785.75,-111 666.25,-111 666.25,-91 785.75,-91 785.75,-111"/>
<text xml:space="preserve" text-anchor="middle" x="726" y="-97.5" font-family="Helvetica,sans-Serif" font-size="10.00">Grille::estPositionValide</text>
</a>
</g>
</g>
<!-- Node3&#45;&gt;Node4 -->
<g id="edge3_Node000003_Node000004" class="edge">
<title>Node3&#45;&gt;Node4</title>
<g id="a_edge3_Node000003_Node000004"><a xlink:title=" ">
<path fill="none" stroke="#63b8ff" d="M626.99,-101C635.91,-101 645.2,-101 654.34,-101"/>
<polygon fill="#63b8ff" stroke="#63b8ff" points="654.3,-104.5 664.3,-101 654.3,-97.5 654.3,-104.5"/>
</a>
</g>
</g>
<!-- Node6 -->
<g id="Node000006" class="node">
<title>Node6</title>
<g id="a_Node000006"><a xlink:href="classTestsUnitaires.html#af1671fe34db212a79ee1f4b2869d576e" target="_top" xlink:title="Affiche le résultat d&#39;un test.">
<polygon fill="white" stroke="#666666" points="468,-89 351.5,-89 351.5,-57 468,-57 468,-89"/>
<text xml:space="preserve" text-anchor="start" x="359.5" y="-75.5" font-family="Helvetica,sans-Serif" font-size="10.00">TestsUnitaires::afficher</text>
<text xml:space="preserve" text-anchor="middle" x="409.75" y="-63.5" font-family="Helvetica,sans-Serif" font-size="10.00">Resultat</text>
</a>
</g>
</g>
<!-- Node5&#45;&gt;Node6 -->
<g id="edge5_Node000005_Node000006" class="edge">
<title>Node5&#45;&gt;Node6</title>
<g id="a_edge5_Node000005_Node000006"><a xlink:title=" ">
<path fill="none" stroke="#63b8ff" d="M315.76,-73C323.74,-73 331.83,-73 339.74,-73"/>
<polygon fill="#63b8ff" stroke="#63b8ff" points="339.66,-76.5 349.66,-73 339.66,-69.5 339.66,-76.5"/>
</a>
</g>
</g>
<!-- Node7 -->
<g id="Node000007" class="node">
<title>Node7</title>
<g id="a_Node000007"><a xlink:href="classGrille.html#a980652764fefe3f45fcc0516a6e59abb" target="_top" xlink:title="Met à jour la grille pour passer à l&#39;itération suivante.">
<polygon fill="white" stroke="#666666" points="458.62,-39 360.88,-39 360.88,-19 458.62,-19 458.62,-39"/>
<text xml:space="preserve" text-anchor="middle" x="409.75" y="-25.5" font-family="Helvetica,sans-Serif" font-size="10.00">Grille::mettreAJour</text>
</a>
</g>
</g>
<!-- Node5&#45;&gt;Node7 -->
<g id="edge6_Node000005_Node000007" class="edge">
<title>Node5&#45;&gt;Node7</title>
<g id="a_edge6_Node000005_Node000007"><a xlink:title=" ">
<path fill="none" stroke="#63b8ff" d="M281.04,-62.57C304.09,-56.51 333.38,-48.81 358.09,-42.32"/>
<polygon fill="#63b8ff" stroke="#63b8ff" points="358.83,-45.74 367.62,-39.81 357.05,-38.97 358.83,-45.74"/>
</a>
</g>
</g>
<!-- Node7&#45;&gt;Node3 -->
<g id="edge7_Node000007_Node000003" class="edge">
<title>Node7&#45;&gt;Node3</title>
<g id="a_edge7_Node000007_Node000003"><a xlink:title=" ">
<path fill="none" stroke="#63b8ff" d="M445.63,-39.49C453.1,-42.04 460.89,-44.93 468,-48 492.89,-58.76 519.92,-73.61 539.29,-84.85"/>
<polygon fill="#63b8ff" stroke="#63b8ff" points="537.51,-87.86 547.9,-89.91 541.06,-81.83 537.51,-87.86"/>
</a>
</g>
</g>
<!-- Node8 -->
<g id="Node000008" class="node">
<title>Node8</title>
<g id="a_Node000008"><a xlink:href="classGrille.html#aa8f57932935f9b316ccdbd0705021d6b" target="_top" xlink:title="Constructeur de la grille.">
<polygon fill="white" stroke="#666666" points="759.5,-39 692.5,-39 692.5,-19 759.5,-19 759.5,-39"/>
<text xml:space="preserve" text-anchor="middle" x="726" y="-25.5" font-family="Helvetica,sans-Serif" font-size="10.00">Grille::Grille</text>
</a>
</g>
</g>
<!-- Node7&#45;&gt;Node8 -->
<g id="edge8_Node000007_Node000008" class="edge">
<title>Node7&#45;&gt;Node8</title>
<g id="a_edge8_Node000007_Node000008"><a xlink:title=" ">
<path fill="none" stroke="#63b8ff" d="M458.82,-29C519.3,-29 622.32,-29 680.88,-29"/>
<polygon fill="#63b8ff" stroke="#63b8ff" points="680.81,-32.5 690.81,-29 680.81,-25.5 680.81,-32.5"/>
</a>
</g>
</g>
<!-- Node9 -->
<g id="Node000009" class="node">
<title>Node9</title>
<g id="a_Node000009"><a xlink:href="classGrille.html#a7073ca25319522d4602550da3dfb1d22" target="_top" xlink:title="Met à jour un ensemble de lignes (parallélisation optimisée).">
<polygon fill="white" stroke="#666666" points="630.25,-20 504,-20 504,0 630.25,0 630.25,-20"/>
<text xml:space="preserve" text-anchor="middle" x="567.12" y="-6.5" font-family="Helvetica,sans-Serif" font-size="10.00">Grille::mettreAJourLignes</text>
</a>
</g>
</g>
<!-- Node7&#45;&gt;Node9 -->
<g id="edge9_Node000007_Node000009" class="edge">
<title>Node7&#45;&gt;Node9</title>
<g id="a_edge9_Node000007_Node000009"><a xlink:title=" ">
<path fill="none" stroke="#63b8ff" d="M459.06,-23.09C469.62,-21.8 481.02,-20.41 492.32,-19.03"/>
<polygon fill="#63b8ff" stroke="#63b8ff" points="492.54,-22.52 502.04,-17.84 491.69,-15.58 492.54,-22.52"/>
</a>
</g>
</g>
<!-- Node9&#45;&gt;Node8 -->
<g id="edge10_Node000009_Node000008" class="edge">
<title>Node9&#45;&gt;Node8</title>
<g id="a_edge10_Node000009_Node000008"><a xlink:title=" ">
<path fill="none" stroke="#63b8ff" d="M630.58,-17.56C647.33,-19.59 665.09,-21.74 680.64,-23.63"/>
<polygon fill="#63b8ff" stroke="#63b8ff" points="680.19,-27.1 690.54,-24.83 681.03,-20.15 680.19,-27.1"/>
</a>
</g>
</g>
</g>
</svg>

<g id="navigator" transform="translate(0 0)" fill="#404254">
  <rect fill="#f2f5e9" fill-opacity="0.5" stroke="#606060" stroke-width=".5" x="0" y="0" width="60" height="60"/>
  <use id="zoomplus" xlink:href="#zoomPlus" x="17" y="9" onmousedown="handleZoom(evt,'in')"/>
  <use id="zoomminus" xlink:href="#zoomMin" x="42" y="9" onmousedown="handleZoom(evt,'out')"/>
  <use id="reset" xlink:href="#resetDef" x="30" y="36" onmousedown="handleReset()"/>
   <use id="arrowup" xlink:href="#arrowUp" x="0" y="0" onmousedown="handlePan(0,-1)"/>
  <use id="arrowright" xlink:href="#arrowRight" x="0" y="0" onmousedown="handlePan(1,0)"/>
  <use id="arrowdown" xlink:href="#arrowDown" x="0" y="0" onmousedown="handlePan(0,1)"/>
  <use id="arrowleft" xlink:href="#arrowLeft" x="0" y="0" onmousedown="handlePan(-1,0)"/>
</g>
<svg viewBox="0 0 15 15" width="100%" height="30px" preserveAspectRatio="xMaxYMin meet">
 <g id="arrow_out" transform="scale(0.3 0.3)">
  <a xlink:href="classTestsUnitaires_acd912aefe999f1178f6c72f41bece368_cgraph_org.svg" target="_base">
   <rect id="button" ry="5" rx="5" y="6" x="6" height="38" width="38"
        fill="#f2f5e9" fill-opacity="0.5" stroke="#606060" stroke-width="1.0"/>
   <path id="arrow"
     d="M 11.500037,31.436501 C 11.940474,20.09759 22.043105,11.32322 32.158766,21.979434 L 37.068811,17.246167 C 37.068811,17.246167 37.088388,32 37.088388,32 L 22.160133,31.978069 C 22.160133,31.978069 26.997745,27.140456 26.997745,27.140456 C 18.528582,18.264221 13.291696,25.230495 11.500037,31.436501 z"
     style="fill:#404040;"/>
  </a>
 </g>
</svg>

<style type='text/css'>
<![CDATA[
[data-mouse-over-selected='false'] { opacity: 0.7; }
[data-mouse-over-selected='true']  { opacity: 1.0; }
]]>
</style>
<script type="application/ecmascript"><![CDATA[
document.addEventListener('DOMContentLoaded', (event) => {
  highlightEdges();
  highlightAdjacentNodes();
});
]]></script>
</svg>
