<?xml version="1.0" encoding="UTF-8" standalone="no"?>
<!DOCTYPE svg PUBLIC "-//W3C//DTD SVG 1.1//EN"
 "http://www.w3.org/Graphics/SVG/1.1/DTD/svg11.dtd">
<!-- Generated by graphviz version 14.0.2 (20251019.1705)
 -->
<!-- Title: GestionnaireFichier::sauvegarderGrille Pages: 1 -->
<svg width="427pt" height="180pt"
 viewBox="0.00 0.00 427.00 180.00" xmlns="http://www.w3.org/2000/svg" xmlns:xlink="http://www.w3.org/1999/xlink">
<g id="graph0" class="graph" transform="scale(1 1) rotate(0) translate(4 176)">
<title>GestionnaireFichier::sauvegarderGrille</title>
<!-- Node1 -->
<g id="Node000001" class="node">
<title>Node1</title>
<g id="a_Node000001"><a xlink:title="Sauvegarde une grille dans un fichier.">
<polygon fill="#999999" stroke="#666666" points="100,-102 0,-102 0,-70 100,-70 100,-102"/>
<text xml:space="preserve" text-anchor="start" x="8" y="-88.5" font-family="Helvetica,sans-Serif" font-size="10.00">GestionnaireFichier</text>
<text xml:space="preserve" text-anchor="middle" x="50" y="-76.5" font-family="Helvetica,sans-Serif" font-size="10.00">::sauvegarderGrille</text>
</a>
</g>
</g>
<!-- Node2 -->
<g id="Node000002" class="node">
<title>Node2</title>
<g id="a_Node000002"><a xlink:href="classGrille.html#aab75610fe73ae48bd035a048c55832f0" target="_top" xlink:title="Obtient une cellule à une position donnée.">
<polygon fill="white" stroke="#666666" points="251.75,-172 148,-172 148,-152 251.75,-152 251.75,-172"/>
<text xml:space="preserve" text-anchor="middle" x="199.88" y="-158.5" font-family="Helvetica,sans-Serif" font-size="10.00">Grille::obtenirCellule</text>
</a>
</g>
</g>
<!-- Node1&#45;&gt;Node2 -->
<g id="edge1_Node000001_Node000002" class="edge">
<title>Node1&#45;&gt;Node2</title>
<g id="a_edge1_Node000001_Node000002"><a xlink:title=" ">
<path fill="none" stroke="#63b8ff" d="M71.61,-102.38C88.2,-114.92 112.55,-131.9 136,-143 139.56,-144.69 143.31,-146.26 147.12,-147.73"/>
<polygon fill="#63b8ff" stroke="#63b8ff" points="145.94,-151.02 156.53,-151.06 148.27,-144.42 145.94,-151.02"/>
</a>
</g>
</g>
<!-- Node4 -->
<g id="Node000004" class="node">
<title>Node4</title>
<g id="a_Node000004"><a xlink:href="classCellule.html#a4eecc7c38f6d8fa642804d9c7472d05e" target="_top" xlink:title="Obtient l&#39;état actuel de la cellule.">
<polygon fill="white" stroke="#666666" points="249.5,-134 150.25,-134 150.25,-114 249.5,-114 249.5,-134"/>
<text xml:space="preserve" text-anchor="middle" x="199.88" y="-120.5" font-family="Helvetica,sans-Serif" font-size="10.00">Cellule::obtenirEtat</text>
</a>
</g>
</g>
<!-- Node1&#45;&gt;Node4 -->
<g id="edge3_Node000001_Node000004" class="edge">
<title>Node1&#45;&gt;Node4</title>
<g id="a_edge3_Node000001_Node000004"><a xlink:title=" ">
<path fill="none" stroke="#63b8ff" d="M100.24,-98.65C115.38,-102.55 132.09,-106.84 147.38,-110.77"/>
<polygon fill="#63b8ff" stroke="#63b8ff" points="146.2,-114.08 156.76,-113.18 147.94,-107.3 146.2,-114.08"/>
</a>
</g>
</g>
<!-- Node5 -->
<g id="Node000005" class="node">
<title>Node5</title>
<g id="a_Node000005"><a xlink:href="classGrille.html#a1ab5c8e0ea0d1dc21549c38d0f0f5cf9" target="_top" xlink:title="Obtient le nombre de colonnes.">
<polygon fill="white" stroke="#666666" points="263.75,-96 136,-96 136,-76 263.75,-76 263.75,-96"/>
<text xml:space="preserve" text-anchor="middle" x="199.88" y="-82.5" font-family="Helvetica,sans-Serif" font-size="10.00">Grille::obtenirNbColonnes</text>
</a>
</g>
</g>
<!-- Node1&#45;&gt;Node5 -->
<g id="edge4_Node000001_Node000005" class="edge">
<title>Node1&#45;&gt;Node5</title>
<g id="a_edge4_Node000001_Node000005"><a xlink:title=" ">
<path fill="none" stroke="#63b8ff" d="M100.24,-86C107.95,-86 116.06,-86 124.19,-86"/>
<polygon fill="#63b8ff" stroke="#63b8ff" points="124.13,-89.5 134.13,-86 124.13,-82.5 124.13,-89.5"/>
</a>
</g>
</g>
<!-- Node6 -->
<g id="Node000006" class="node">
<title>Node6</title>
<g id="a_Node000006"><a xlink:href="classGrille.html#a96b5f98d212a0ee9e2f71d73ebe5bb91" target="_top" xlink:title="Obtient le nombre de lignes.">
<polygon fill="white" stroke="#666666" points="257.38,-58 142.38,-58 142.38,-38 257.38,-38 257.38,-58"/>
<text xml:space="preserve" text-anchor="middle" x="199.88" y="-44.5" font-family="Helvetica,sans-Serif" font-size="10.00">Grille::obtenirNbLignes</text>
</a>
</g>
</g>
<!-- Node1&#45;&gt;Node6 -->
<g id="edge5_Node000001_Node000006" class="edge">
<title>Node1&#45;&gt;Node6</title>
<g id="a_edge5_Node000001_Node000006"><a xlink:title=" ">
<path fill="none" stroke="#63b8ff" d="M100.24,-73.35C115.38,-69.45 132.09,-65.16 147.38,-61.23"/>
<polygon fill="#63b8ff" stroke="#63b8ff" points="147.94,-64.7 156.76,-58.82 146.2,-57.92 147.94,-64.7"/>
</a>
</g>
</g>
<!-- Node7 -->
<g id="Node000007" class="node">
<title>Node7</title>
<g id="a_Node000007"><a xlink:href="classEtatCellule.html#a951476a3806853a1db9ed7303171162c" target="_top" xlink:title="Obtient la valeur entière de l&#39;état (pour sauvegarder).">
<polygon fill="white" stroke="#666666" points="257,-20 142.75,-20 142.75,0 257,0 257,-20"/>
<text xml:space="preserve" text-anchor="middle" x="199.88" y="-6.5" font-family="Helvetica,sans-Serif" font-size="10.00">EtatCellule::versEntier</text>
</a>
</g>
</g>
<!-- Node1&#45;&gt;Node7 -->
<g id="edge6_Node000001_Node000007" class="edge">
<title>Node1&#45;&gt;Node7</title>
<g id="a_edge6_Node000001_Node000007"><a xlink:title=" ">
<path fill="none" stroke="#63b8ff" d="M71.61,-69.62C88.2,-57.08 112.55,-40.1 136,-29 139.56,-27.31 143.31,-25.74 147.12,-24.27"/>
<polygon fill="#63b8ff" stroke="#63b8ff" points="148.27,-27.58 156.53,-20.94 145.94,-20.98 148.27,-27.58"/>
</a>
</g>
</g>
<!-- Node3 -->
<g id="Node000003" class="node">
<title>Node3</title>
<g id="a_Node000003"><a xlink:href="classGrille.html#aa4c9ce36bb4f2c59a83aeb39d73fc285" target="_top" xlink:title="Vérifie si une position est valide dans la grille.">
<polygon fill="white" stroke="#666666" points="419.25,-172 299.75,-172 299.75,-152 419.25,-152 419.25,-172"/>
<text xml:space="preserve" text-anchor="middle" x="359.5" y="-158.5" font-family="Helvetica,sans-Serif" font-size="10.00">Grille::estPositionValide</text>
</a>
</g>
</g>
<!-- Node2&#45;&gt;Node3 -->
<g id="edge2_Node000002_Node000003" class="edge">
<title>Node2&#45;&gt;Node3</title>
<g id="a_edge2_Node000002_Node000003"><a xlink:title=" ">
<path fill="none" stroke="#63b8ff" d="M252.05,-162C263.5,-162 275.83,-162 287.91,-162"/>
<polygon fill="#63b8ff" stroke="#63b8ff" points="287.85,-165.5 297.85,-162 287.85,-158.5 287.85,-165.5"/>
</a>
</g>
</g>
</g>
</svg>
