<?xml version="1.0" encoding="UTF-8" standalone="no"?>
<!DOCTYPE svg PUBLIC "-//W3C//DTD SVG 1.1//EN"
 "http://www.w3.org/Graphics/SVG/1.1/DTD/svg11.dtd">
<!-- Generated by graphviz version 14.0.2 (20251019.1705)
 -->
<!-- Title: Grille::mettreAJour Pages: 1 -->
<svg width="424pt" height="104pt"
 viewBox="0.00 0.00 424.00 104.00" xmlns="http://www.w3.org/2000/svg" xmlns:xlink="http://www.w3.org/1999/xlink">
<g id="graph0" class="graph" transform="scale(1 1) rotate(0) translate(4 100)">
<title>Grille::mettreAJour</title>
<!-- Node1 -->
<g id="Node000001" class="node">
<title>Node1</title>
<g id="a_Node000001"><a xlink:title="Met à jour la grille pour passer à l&#39;itération suivante.">
<polygon fill="#999999" stroke="#666666" points="97.75,-58 0,-58 0,-38 97.75,-38 97.75,-58"/>
<text xml:space="preserve" text-anchor="middle" x="48.88" y="-44.5" font-family="Helvetica,sans-Serif" font-size="10.00">Grille::mettreAJour</text>
</a>
</g>
</g>
<!-- Node2 -->
<g id="Node000002" class="node">
<title>Node2</title>
<g id="a_Node000002"><a xlink:href="classGrille.html#ab4c852bc2327224eac9da60841f30baa" target="_top" xlink:title="Définit l&#39;état d&#39;une cellule.">
<polygon fill="white" stroke="#666666" points="256.25,-96 137.5,-96 137.5,-76 256.25,-76 256.25,-96"/>
<text xml:space="preserve" text-anchor="middle" x="196.88" y="-82.5" font-family="Helvetica,sans-Serif" font-size="10.00">Grille::definirEtatCellule</text>
</a>
</g>
</g>
<!-- Node1&#45;&gt;Node2 -->
<g id="edge1_Node000001_Node000002" class="edge">
<title>Node1&#45;&gt;Node2</title>
<g id="a_edge1_Node000001_Node000002"><a xlink:title=" ">
<path fill="none" stroke="#63b8ff" d="M90.16,-58.48C106.99,-62.87 126.75,-68.01 144.61,-72.66"/>
<polygon fill="#63b8ff" stroke="#63b8ff" points="143.7,-76.04 154.26,-75.17 145.46,-69.26 143.7,-76.04"/>
</a>
</g>
</g>
<!-- Node4 -->
<g id="Node000004" class="node">
<title>Node4</title>
<g id="a_Node000004"><a xlink:href="classGrille.html#aa8f57932935f9b316ccdbd0705021d6b" target="_top" xlink:title="Constructeur de la grille.">
<polygon fill="white" stroke="#666666" points="389.25,-39 322.25,-39 322.25,-19 389.25,-19 389.25,-39"/>
<text xml:space="preserve" text-anchor="middle" x="355.75" y="-25.5" font-family="Helvetica,sans-Serif" font-size="10.00">Grille::Grille</text>
</a>
</g>
</g>
<!-- Node1&#45;&gt;Node4 -->
<g id="edge3_Node000001_Node000004" class="edge">
<title>Node1&#45;&gt;Node4</title>
<g id="a_edge3_Node000001_Node000004"><a xlink:title=" ">
<path fill="none" stroke="#63b8ff" d="M98.18,-44.99C156.65,-41.35 254.27,-35.26 310.74,-31.74"/>
<polygon fill="#63b8ff" stroke="#63b8ff" points="310.86,-35.24 320.62,-31.13 310.43,-28.26 310.86,-35.24"/>
</a>
</g>
</g>
<!-- Node5 -->
<g id="Node000005" class="node">
<title>Node5</title>
<g id="a_Node000005"><a xlink:href="classGrille.html#a7073ca25319522d4602550da3dfb1d22" target="_top" xlink:title="Met à jour un ensemble de lignes (parallélisation optimisée).">
<polygon fill="white" stroke="#666666" points="260,-20 133.75,-20 133.75,0 260,0 260,-20"/>
<text xml:space="preserve" text-anchor="middle" x="196.88" y="-6.5" font-family="Helvetica,sans-Serif" font-size="10.00">Grille::mettreAJourLignes</text>
</a>
</g>
</g>
<!-- Node1&#45;&gt;Node5 -->
<g id="edge4_Node000001_Node000005" class="edge">
<title>Node1&#45;&gt;Node5</title>
<g id="a_edge4_Node000001_Node000005"><a xlink:title=" ">
<path fill="none" stroke="#63b8ff" d="M90.16,-37.52C106.99,-33.13 126.75,-27.99 144.61,-23.34"/>
<polygon fill="#63b8ff" stroke="#63b8ff" points="145.46,-26.74 154.26,-20.83 143.7,-19.96 145.46,-26.74"/>
</a>
</g>
</g>
<!-- Node3 -->
<g id="Node000003" class="node">
<title>Node3</title>
<g id="a_Node000003"><a xlink:href="classGrille.html#aa4c9ce36bb4f2c59a83aeb39d73fc285" target="_top" xlink:title="Vérifie si une position est valide dans la grille.">
<polygon fill="white" stroke="#666666" points="415.5,-96 296,-96 296,-76 415.5,-76 415.5,-96"/>
<text xml:space="preserve" text-anchor="middle" x="355.75" y="-82.5" font-family="Helvetica,sans-Serif" font-size="10.00">Grille::estPositionValide</text>
</a>
</g>
</g>
<!-- Node2&#45;&gt;Node3 -->
<g id="edge2_Node000002_Node000003" class="edge">
<title>Node2&#45;&gt;Node3</title>
<g id="a_edge2_Node000002_Node000003"><a xlink:title=" ">
<path fill="none" stroke="#63b8ff" d="M256.74,-86C265.66,-86 274.95,-86 284.09,-86"/>
<polygon fill="#63b8ff" stroke="#63b8ff" points="284.05,-89.5 294.05,-86 284.05,-82.5 284.05,-89.5"/>
</a>
</g>
</g>
<!-- Node5&#45;&gt;Node4 -->
<g id="edge5_Node000005_Node000004" class="edge">
<title>Node5&#45;&gt;Node4</title>
<g id="a_edge5_Node000005_Node000004"><a xlink:title=" ">
<path fill="none" stroke="#63b8ff" d="M260.33,-17.56C277.08,-19.59 294.84,-21.74 310.39,-23.63"/>
<polygon fill="#63b8ff" stroke="#63b8ff" points="309.94,-27.1 320.29,-24.83 310.78,-20.15 309.94,-27.1"/>
</a>
</g>
</g>
</g>
</svg>
