<?xml version="1.0" encoding="UTF-8" standalone="no"?>
<!DOCTYPE svg PUBLIC "-//W3C//DTD SVG 1.1//EN"
 "http://www.w3.org/Graphics/SVG/1.1/DTD/svg11.dtd">
<!-- Generated by graphviz version 14.0.2 (20251019.1705)
 -->
<!-- Title: Cellule::obtenirEtat Pages: 1 -->
<!--zoomable 116 -->

<svg id="main" version="1.1" xmlns="http://www.w3.org/2000/svg" xmlns:xlink="http://www.w3.org/1999/xlink" xml:space="preserve" onload="init(evt)">

<style type="text/css"><![CDATA[
.node, .edge {opacity: 0.7;}
.node.selected, .edge.selected {opacity: 1;}
.edge:hover path { stroke: red; }
.edge:hover polygon { stroke: red; fill: red; }
]]></style>

<defs>
  <circle id="rim" cx="0" cy="0" r="7"/>
  <circle id="rim2" cx="0" cy="0" r="3.5"/>
  <g id="zoomPlus">
    <use xlink:href="#rim" fill="#404040"><set attributeName="fill" to="#808080" begin="zoomplus.mouseover" end="zoomplus.mouseout"/></use>
    <path d="M-4,0h8M0,-4v8" fill="none" stroke="white" stroke-width="1.5" pointer-events="none"/>
  </g>
  <g id="zoomMin">
    <use xlink:href="#rim" fill="#404040"><set attributeName="fill" to="#808080" begin="zoomminus.mouseover" end="zoomminus.mouseout"/></use>
    <path d="M-4,0h8" fill="none" stroke="white" stroke-width="1.5" pointer-events="none"/>
  </g>
  <g id="arrowUp" transform="translate(30 24)">
    <use xlink:href="#rim"/>
    <path pointer-events="none" fill="none" stroke="white" stroke-width="1.5" d="M0,-3.0v7 M-2.5,-0.5L0,-3.0L2.5,-0.5"/>
  </g>
  <g id="arrowRight" transform="rotate(90) translate(36 -43)">
    <use xlink:href="#rim"/>
    <path pointer-events="none" fill="none" stroke="white" stroke-width="1.5" d="M0,-3.0v7 M-2.5,-0.5L0,-3.0L2.5,-0.5"/>
  </g>
  <g id="arrowDown" transform="rotate(180) translate(-30 -48)">
    <use xlink:href="#rim"/>
    <path pointer-events="none" fill="none" stroke="white" stroke-width="1.5" d="M0,-3.0v7 M-2.5,-0.5L0,-3.0L2.5,-0.5"/>
  </g>
  <g id="arrowLeft" transform="rotate(270) translate(-36 17)">
    <use xlink:href="#rim"/>
    <path pointer-events="none" fill="none" stroke="white" stroke-width="1.5" d="M0,-3.0v7 M-2.5,-0.5L0,-3.0L2.5,-0.5"/>
  </g>
  <g id="resetDef">
    <use xlink:href="#rim2" fill="#404040"><set attributeName="fill" to="#808080" begin="reset.mouseover" end="reset.mouseout"/></use>
  </g>
</defs>
<script type="application/ecmascript">
var viewWidth = 712;
var viewHeight = 116;
var sectionId = 'dynsection-5';
</script>
<script type="application/ecmascript" xlink:href="svg.min.js"/>
<svg id="graph" class="graph">
<g id="viewport">
<title>Cellule::obtenirEtat</title>
<!-- Node1 -->
<g id="Node000001" class="node">
<title>Node1</title>
<g id="a_Node000001"><a xlink:title="Obtient l&#39;état actuel de la cellule.">
<polygon fill="#999999" stroke="#666666" points="704,-70 604.75,-70 604.75,-50 704,-50 704,-70"/>
<text xml:space="preserve" text-anchor="middle" x="654.38" y="-56.5" font-family="Helvetica,sans-Serif" font-size="10.00">Cellule::obtenirEtat</text>
</a>
</g>
</g>
<!-- Node2 -->
<g id="Node000002" class="node">
<title>Node2</title>
<g id="a_Node000002"><a xlink:href="classRegleStandard.html#a0c051f441f8b5aeac028872a7347fc35" target="_top" xlink:title="Calcule le nouvel état d&#39;une cellule selon les règles du jeu.">
<polygon fill="white" stroke="#666666" points="568.75,-108 399.75,-108 399.75,-88 568.75,-88 568.75,-108"/>
<text xml:space="preserve" text-anchor="middle" x="484.25" y="-94.5" font-family="Helvetica,sans-Serif" font-size="10.00">RegleStandard::calculerNouvelEtat</text>
</a>
</g>
</g>
<!-- Node1&#45;&gt;Node2 -->
<g id="edge1_Node000001_Node000002" class="edge">
<title>Node1&#45;&gt;Node2</title>
<g id="a_edge1_Node000001_Node000002"><a xlink:title=" ">
<path fill="none" stroke="#63b8ff" d="M595.93,-72.98C574.9,-77.74 551.4,-83.05 531.48,-87.55"/>
<polygon fill="#63b8ff" stroke="#63b8ff" points="596.53,-76.44 605.51,-70.82 594.99,-69.61 596.53,-76.44"/>
</a>
</g>
</g>
<!-- Node3 -->
<g id="Node000003" class="node">
<title>Node3</title>
<g id="a_Node000003"><a xlink:href="classRegleTorique.html#aea2f956fa0b75f4a8d9919f4a36e9eee" target="_top" xlink:title="Calcule le nouvel état d&#39;une cellule selon les règles du jeu.">
<polygon fill="white" stroke="#666666" points="565,-70 403.5,-70 403.5,-50 565,-50 565,-70"/>
<text xml:space="preserve" text-anchor="middle" x="484.25" y="-56.5" font-family="Helvetica,sans-Serif" font-size="10.00">RegleTorique::calculerNouvelEtat</text>
</a>
</g>
</g>
<!-- Node1&#45;&gt;Node3 -->
<g id="edge2_Node000001_Node000003" class="edge">
<title>Node1&#45;&gt;Node3</title>
<g id="a_edge2_Node000001_Node000003"><a xlink:title=" ">
<path fill="none" stroke="#63b8ff" d="M592.84,-60C583.92,-60 574.62,-60 565.39,-60"/>
<polygon fill="#63b8ff" stroke="#63b8ff" points="592.78,-63.5 602.78,-60 592.78,-56.5 592.78,-63.5"/>
</a>
</g>
</g>
<!-- Node4 -->
<g id="Node000004" class="node">
<title>Node4</title>
<g id="a_Node000004"><a xlink:href="classGestionnaireFichier.html#a7f617aede460be3b06c7dd842d7e2732" target="_top" xlink:title="Sauvegarde une grille dans un fichier.">
<polygon fill="white" stroke="#666666" points="534.25,-32 434.25,-32 434.25,0 534.25,0 534.25,-32"/>
<text xml:space="preserve" text-anchor="start" x="442.25" y="-18.5" font-family="Helvetica,sans-Serif" font-size="10.00">GestionnaireFichier</text>
<text xml:space="preserve" text-anchor="middle" x="484.25" y="-6.5" font-family="Helvetica,sans-Serif" font-size="10.00">::sauvegarderGrille</text>
</a>
</g>
</g>
<!-- Node1&#45;&gt;Node4 -->
<g id="edge3_Node000001_Node000004" class="edge">
<title>Node1&#45;&gt;Node4</title>
<g id="a_edge3_Node000001_Node000004"><a xlink:title=" ">
<path fill="none" stroke="#63b8ff" d="M602.63,-46.72C581.11,-41.09 556.11,-34.55 534.73,-28.95"/>
<polygon fill="#63b8ff" stroke="#63b8ff" points="601.51,-50.04 612.07,-49.19 603.28,-43.27 601.51,-50.04"/>
</a>
</g>
</g>
<!-- Node5 -->
<g id="Node000005" class="node">
<title>Node5</title>
<g id="a_Node000005"><a xlink:href="classModeConsole.html#a75b55e1983d7ca8dbbb4ebec6a68589d" target="_top" xlink:title="Sauvegarde la grille actuelle dans un fichier.">
<polygon fill="white" stroke="#666666" points="363.75,-32 228.5,-32 228.5,0 363.75,0 363.75,-32"/>
<text xml:space="preserve" text-anchor="start" x="236.5" y="-18.5" font-family="Helvetica,sans-Serif" font-size="10.00">ModeConsole::sauvegarder</text>
<text xml:space="preserve" text-anchor="middle" x="296.12" y="-6.5" font-family="Helvetica,sans-Serif" font-size="10.00">Iteration</text>
</a>
</g>
</g>
<!-- Node4&#45;&gt;Node5 -->
<g id="edge4_Node000004_Node000005" class="edge">
<title>Node4&#45;&gt;Node5</title>
<g id="a_edge4_Node000004_Node000005"><a xlink:title=" ">
<path fill="none" stroke="#63b8ff" d="M422.49,-16C403.76,-16 383.03,-16 363.92,-16"/>
<polygon fill="#63b8ff" stroke="#63b8ff" points="422.35,-19.5 432.35,-16 422.35,-12.5 422.35,-19.5"/>
</a>
</g>
</g>
<!-- Node6 -->
<g id="Node000006" class="node">
<title>Node6</title>
<g id="a_Node000006"><a xlink:href="classModeConsole.html#a79ad19df6d20c391fbaf9a7b4fb2f350" target="_top" xlink:title="Exécute le mode console.">
<polygon fill="white" stroke="#666666" points="192.5,-26 73,-26 73,-6 192.5,-6 192.5,-26"/>
<text xml:space="preserve" text-anchor="middle" x="132.75" y="-12.5" font-family="Helvetica,sans-Serif" font-size="10.00">ModeConsole::executer</text>
</a>
</g>
</g>
<!-- Node5&#45;&gt;Node6 -->
<g id="edge5_Node000005_Node000006" class="edge">
<title>Node5&#45;&gt;Node6</title>
<g id="a_edge5_Node000005_Node000006"><a xlink:title=" ">
<path fill="none" stroke="#63b8ff" d="M216.77,-16C208.72,-16 200.64,-16 192.86,-16"/>
<polygon fill="#63b8ff" stroke="#63b8ff" points="216.58,-19.5 226.58,-16 216.58,-12.5 216.58,-19.5"/>
</a>
</g>
</g>
<!-- Node7 -->
<g id="Node000007" class="node">
<title>Node7</title>
<g id="a_Node000007"><a xlink:href="main_8cpp.html#a0ddf1224851353fc92bfbff6f499fa97" target="_top" xlink:title="Point d&#39;entrée du programme.">
<polygon fill="white" stroke="#666666" points="37,-26 0,-26 0,-6 37,-6 37,-26"/>
<text xml:space="preserve" text-anchor="middle" x="18.5" y="-12.5" font-family="Helvetica,sans-Serif" font-size="10.00">main</text>
</a>
</g>
</g>
<!-- Node6&#45;&gt;Node7 -->
<g id="edge6_Node000006_Node000007" class="edge">
<title>Node6&#45;&gt;Node7</title>
<g id="a_edge6_Node000006_Node000007"><a xlink:title=" ">
<path fill="none" stroke="#63b8ff" d="M61.32,-16C52.51,-16 44.21,-16 37.36,-16"/>
<polygon fill="#63b8ff" stroke="#63b8ff" points="61.15,-19.5 71.15,-16 61.15,-12.5 61.15,-19.5"/>
</a>
</g>
</g>
</g>
</svg>

<g id="navigator" transform="translate(0 0)" fill="#404254">
  <rect fill="#f2f5e9" fill-opacity="0.5" stroke="#606060" stroke-width=".5" x="0" y="0" width="60" height="60"/>
  <use id="zoomplus" xlink:href="#zoomPlus" x="17" y="9" onmousedown="handleZoom(evt,'in')"/>
  <use id="zoomminus" xlink:href="#zoomMin" x="42" y="9" onmousedown="handleZoom(evt,'out')"/>
  <use id="reset" xlink:href="#resetDef" x="30" y="36" onmousedown="handleReset()"/>
   <use id="arrowup" xlink:href="#arrowUp" x="0" y="0" onmousedown="handlePan(0,-1)"/>
  <use id="arrowright" xlink:href="#arrowRight" x="0" y="0" onmousedown="handlePan(1,0)"/>
  <use id="arrowdown" xlink:href="#arrowDown" x="0" y="0" onmousedown="handlePan(0,1)"/>
  <use id="arrowleft" xlink:href="#arrowLeft" x="0" y="0" onmousedown="handlePan(-1,0)"/>
</g>
<svg viewBox="0 0 15 15" width="100%" height="30px" preserveAspectRatio="xMaxYMin meet">
 <g id="arrow_out" transform="scale(0.3 0.3)">
  <a xlink:href="classCellule_a4eecc7c38f6d8fa642804d9c7472d05e_icgraph_org.svg" target="_base">
   <rect id="button" ry="5" rx="5" y="6" x="6" height="38" width="38"
        fill="#f2f5e9" fill-opacity="0.5" stroke="#606060" stroke-width="1.0"/>
   <path id="arrow"
     d="M 11.500037,31.436501 C 11.940474,20.09759 22.043105,11.32322 32.158766,21.979434 L 37.068811,17.246167 C 37.068811,17.246167 37.088388,32 37.088388,32 L 22.160133,31.978069 C 22.160133,31.978069 26.997745,27.140456 26.997745,27.140456 C 18.528582,18.264221 13.291696,25.230495 11.500037,31.436501 z"
     style="fill:#404040;"/>
  </a>
 </g>
</svg>

<style type='text/css'>
<![CDATA[
[data-mouse-over-selected='false'] { opacity: 0.7; }
[data-mouse-over-selected='true']  { opacity: 1.0; }
]]>
</style>
<script type="application/ecmascript"><![CDATA[
document.addEventListener('DOMContentLoaded', (event) => {
  highlightEdges();
  highlightAdjacentNodes();
});
]]></script>
</svg>
