<?xml version="1.0" encoding="UTF-8" standalone="no"?>
<!DOCTYPE svg PUBLIC "-//W3C//DTD SVG 1.1//EN"
 "http://www.w3.org/Graphics/SVG/1.1/DTD/svg11.dtd">
<!-- Generated by graphviz version 14.0.2 (20251019.1705)
 -->
<!-- Title: ModeConsole Pages: 1 -->
<!--zoomable 534 -->

<svg id="main" version="1.1" xmlns="http://www.w3.org/2000/svg" xmlns:xlink="http://www.w3.org/1999/xlink" xml:space="preserve" onload="init(evt)">

<style type="text/css"><![CDATA[
.node, .edge {opacity: 0.7;}
.node.selected, .edge.selected {opacity: 1;}
.edge:hover path { stroke: red; }
.edge:hover polygon { stroke: red; fill: red; }
]]></style>

<defs>
  <circle id="rim" cx="0" cy="0" r="7"/>
  <circle id="rim2" cx="0" cy="0" r="3.5"/>
  <g id="zoomPlus">
    <use xlink:href="#rim" fill="#404040"><set attributeName="fill" to="#808080" begin="zoomplus.mouseover" end="zoomplus.mouseout"/></use>
    <path d="M-4,0h8M0,-4v8" fill="none" stroke="white" stroke-width="1.5" pointer-events="none"/>
  </g>
  <g id="zoomMin">
    <use xlink:href="#rim" fill="#404040"><set attributeName="fill" to="#808080" begin="zoomminus.mouseover" end="zoomminus.mouseout"/></use>
    <path d="M-4,0h8" fill="none" stroke="white" stroke-width="1.5" pointer-events="none"/>
  </g>
  <g id="arrowUp" transform="translate(30 24)">
    <use xlink:href="#rim"/>
    <path pointer-events="none" fill="none" stroke="white" stroke-width="1.5" d="M0,-3.0v7 M-2.5,-0.5L0,-3.0L2.5,-0.5"/>
  </g>
  <g id="arrowRight" transform="rotate(90) translate(36 -43)">
    <use xlink:href="#rim"/>
    <path pointer-events="none" fill="none" stroke="white" stroke-width="1.5" d="M0,-3.0v7 M-2.5,-0.5L0,-3.0L2.5,-0.5"/>
  </g>
  <g id="arrowDown" transform="rotate(180) translate(-30 -48)">
    <use xlink:href="#rim"/>
    <path pointer-events="none" fill="none" stroke="white" stroke-width="1.5" d="M0,-3.0v7 M-2.5,-0.5L0,-3.0L2.5,-0.5"/>
  </g>
  <g id="arrowLeft" transform="rotate(270) translate(-36 17)">
    <use xlink:href="#rim"/>
    <path pointer-events="none" fill="none" stroke="white" stroke-width="1.5" d="M0,-3.0v7 M-2.5,-0.5L0,-3.0L2.5,-0.5"/>
  </g>
  <g id="resetDef">
    <use xlink:href="#rim2" fill="#404040"><set attributeName="fill" to="#808080" begin="reset.mouseover" end="reset.mouseout"/></use>
  </g>
</defs>
<script type="application/ecmascript">
var viewWidth = 121;
var viewHeight = 534;
var sectionId = 'dynsection-0';
</script>
<script type="application/ecmascript" xlink:href="svg.min.js"/>
<svg id="graph" class="graph">
<g id="viewport">
<title>ModeConsole</title>
<!-- Node1 -->
<g id="Node000001" class="node">
<title>Node1</title>
<g id="a_Node000001"><a xlink:title="Mode console pour l&#39;exécution et la sauvegarde des itérations.">
<polygon fill="#999999" stroke="none" points="112.5,-116 0,-116 0,0 112.5,0 112.5,-116"/>
<text xml:space="preserve" text-anchor="start" x="26.25" y="-102.5" font-family="Helvetica,sans-Serif" font-size="10.00">ModeConsole</text>
<text xml:space="preserve" text-anchor="start" x="5.5" y="-86.5" font-family="Helvetica,sans-Serif" font-size="10.00">&#45;</text>
<text xml:space="preserve" text-anchor="start" x="14" y="-86.5" font-family="Helvetica,sans-Serif" font-size="10.00">dossierSortie</text>
<text xml:space="preserve" text-anchor="start" x="5.5" y="-70.5" font-family="Helvetica,sans-Serif" font-size="10.00">&#45;</text>
<text xml:space="preserve" text-anchor="start" x="14" y="-70.5" font-family="Helvetica,sans-Serif" font-size="10.00">afficherDansConsole</text>
<text xml:space="preserve" text-anchor="start" x="4" y="-54.5" font-family="Helvetica,sans-Serif" font-size="10.00">+</text>
<text xml:space="preserve" text-anchor="start" x="14" y="-54.5" font-family="Helvetica,sans-Serif" font-size="10.00">ModeConsole()</text>
<text xml:space="preserve" text-anchor="start" x="4" y="-38.5" font-family="Helvetica,sans-Serif" font-size="10.00">+</text>
<text xml:space="preserve" text-anchor="start" x="14" y="-38.5" font-family="Helvetica,sans-Serif" font-size="10.00">executer()</text>
<text xml:space="preserve" text-anchor="start" x="5.5" y="-22.5" font-family="Helvetica,sans-Serif" font-size="10.00">&#45;</text>
<text xml:space="preserve" text-anchor="start" x="14" y="-22.5" font-family="Helvetica,sans-Serif" font-size="10.00">afficherGrille()</text>
<text xml:space="preserve" text-anchor="start" x="5.5" y="-6.5" font-family="Helvetica,sans-Serif" font-size="10.00">&#45;</text>
<text xml:space="preserve" text-anchor="start" x="14" y="-6.5" font-family="Helvetica,sans-Serif" font-size="10.00">sauvegarderIteration()</text>
<polygon fill="#666666" stroke="#666666" points="0,-98 0,-98 112.5,-98 112.5,-98 0,-98"/>
<polygon fill="#666666" stroke="#666666" points="0,-66 0,-66 12,-66 12,-66 0,-66"/>
<polygon fill="#666666" stroke="#666666" points="12,-66 12,-66 112.5,-66 112.5,-66 12,-66"/>
<polygon fill="none" stroke="#666666" points="0,0 0,-116 112.5,-116 112.5,0 0,0"/>
</a>
</g>
</g>
<!-- Node2 -->
<g id="Node000002" class="node">
<title>Node2</title>
<g id="a_Node000002"><a xlink:href="classJeuDeLaVie.html" target="_top" xlink:title="Classe principale orchestrant le jeu de la vie.">
<polygon fill="white" stroke="none" points="112.12,-526 0.37,-526 0.37,-170 112.12,-170 112.12,-526"/>
<text xml:space="preserve" text-anchor="start" x="29.62" y="-512.5" font-family="Helvetica,sans-Serif" font-size="10.00">JeuDeLaVie</text>
<text xml:space="preserve" text-anchor="start" x="5.88" y="-496.5" font-family="Helvetica,sans-Serif" font-size="10.00">&#45;</text>
<text xml:space="preserve" text-anchor="start" x="14.38" y="-496.5" font-family="Helvetica,sans-Serif" font-size="10.00">grille</text>
<text xml:space="preserve" text-anchor="start" x="5.88" y="-480.5" font-family="Helvetica,sans-Serif" font-size="10.00">&#45;</text>
<text xml:space="preserve" text-anchor="start" x="14.38" y="-480.5" font-family="Helvetica,sans-Serif" font-size="10.00">iteration</text>
<text xml:space="preserve" text-anchor="start" x="5.88" y="-464.5" font-family="Helvetica,sans-Serif" font-size="10.00">&#45;</text>
<text xml:space="preserve" text-anchor="start" x="14.38" y="-464.5" font-family="Helvetica,sans-Serif" font-size="10.00">iterationMax</text>
<text xml:space="preserve" text-anchor="start" x="5.88" y="-448.5" font-family="Helvetica,sans-Serif" font-size="10.00">&#45;</text>
<text xml:space="preserve" text-anchor="start" x="14.38" y="-448.5" font-family="Helvetica,sans-Serif" font-size="10.00">modeTorique</text>
<text xml:space="preserve" text-anchor="start" x="5.88" y="-432.5" font-family="Helvetica,sans-Serif" font-size="10.00">&#45;</text>
<text xml:space="preserve" text-anchor="start" x="14.38" y="-432.5" font-family="Helvetica,sans-Serif" font-size="10.00">modeParallele</text>
<text xml:space="preserve" text-anchor="start" x="5.88" y="-416.5" font-family="Helvetica,sans-Serif" font-size="10.00">&#45;</text>
<text xml:space="preserve" text-anchor="start" x="14.38" y="-416.5" font-family="Helvetica,sans-Serif" font-size="10.00">historique</text>
<text xml:space="preserve" text-anchor="start" x="5.88" y="-400.5" font-family="Helvetica,sans-Serif" font-size="10.00">&#45;</text>
<text xml:space="preserve" text-anchor="start" x="14.38" y="-400.5" font-family="Helvetica,sans-Serif" font-size="10.00">grandeGrille</text>
<text xml:space="preserve" text-anchor="start" x="4.38" y="-384.5" font-family="Helvetica,sans-Serif" font-size="10.00">+</text>
<text xml:space="preserve" text-anchor="start" x="14.38" y="-384.5" font-family="Helvetica,sans-Serif" font-size="10.00">JeuDeLaVie()</text>
<text xml:space="preserve" text-anchor="start" x="4.38" y="-368.5" font-family="Helvetica,sans-Serif" font-size="10.00">+</text>
<text xml:space="preserve" text-anchor="start" x="14.38" y="-368.5" font-family="Helvetica,sans-Serif" font-size="10.00">executerIteration()</text>
<text xml:space="preserve" text-anchor="start" x="4.38" y="-352.5" font-family="Helvetica,sans-Serif" font-size="10.00">+</text>
<text xml:space="preserve" text-anchor="start" x="14.38" y="-352.5" font-family="Helvetica,sans-Serif" font-size="10.00">revenirEnArriere()</text>
<text xml:space="preserve" text-anchor="start" x="4.38" y="-336.5" font-family="Helvetica,sans-Serif" font-size="10.00">+</text>
<text xml:space="preserve" text-anchor="start" x="14.38" y="-336.5" font-family="Helvetica,sans-Serif" font-size="10.00">obtenirGrille()</text>
<text xml:space="preserve" text-anchor="start" x="4.38" y="-320.5" font-family="Helvetica,sans-Serif" font-size="10.00">+</text>
<text xml:space="preserve" text-anchor="start" x="14.38" y="-320.5" font-family="Helvetica,sans-Serif" font-size="10.00">obtenirIteration()</text>
<text xml:space="preserve" text-anchor="start" x="4.38" y="-304.5" font-family="Helvetica,sans-Serif" font-size="10.00">+</text>
<text xml:space="preserve" text-anchor="start" x="14.38" y="-304.5" font-family="Helvetica,sans-Serif" font-size="10.00">estModeTorique()</text>
<text xml:space="preserve" text-anchor="start" x="4.38" y="-288.5" font-family="Helvetica,sans-Serif" font-size="10.00">+</text>
<text xml:space="preserve" text-anchor="start" x="14.38" y="-288.5" font-family="Helvetica,sans-Serif" font-size="10.00">estModeParallele()</text>
<text xml:space="preserve" text-anchor="start" x="4.38" y="-272.5" font-family="Helvetica,sans-Serif" font-size="10.00">+</text>
<text xml:space="preserve" text-anchor="start" x="14.38" y="-272.5" font-family="Helvetica,sans-Serif" font-size="10.00">obtenirIterationMax()</text>
<text xml:space="preserve" text-anchor="start" x="4.38" y="-256.5" font-family="Helvetica,sans-Serif" font-size="10.00">+</text>
<text xml:space="preserve" text-anchor="start" x="14.38" y="-256.5" font-family="Helvetica,sans-Serif" font-size="10.00">definirIterationMax()</text>
<text xml:space="preserve" text-anchor="start" x="4.38" y="-240.5" font-family="Helvetica,sans-Serif" font-size="10.00">+</text>
<text xml:space="preserve" text-anchor="start" x="14.38" y="-240.5" font-family="Helvetica,sans-Serif" font-size="10.00">estTermine()</text>
<text xml:space="preserve" text-anchor="start" x="4.38" y="-224.5" font-family="Helvetica,sans-Serif" font-size="10.00">+</text>
<text xml:space="preserve" text-anchor="start" x="14.38" y="-224.5" font-family="Helvetica,sans-Serif" font-size="10.00">reinitialiser()</text>
<text xml:space="preserve" text-anchor="start" x="4.38" y="-208.5" font-family="Helvetica,sans-Serif" font-size="10.00">+</text>
<text xml:space="preserve" text-anchor="start" x="14.38" y="-208.5" font-family="Helvetica,sans-Serif" font-size="10.00">definirModeTorique()</text>
<text xml:space="preserve" text-anchor="start" x="4.38" y="-192.5" font-family="Helvetica,sans-Serif" font-size="10.00">+</text>
<text xml:space="preserve" text-anchor="start" x="14.38" y="-192.5" font-family="Helvetica,sans-Serif" font-size="10.00">definirModeParallele()</text>
<text xml:space="preserve" text-anchor="start" x="4.38" y="-176.5" font-family="Helvetica,sans-Serif" font-size="10.00">+</text>
<text xml:space="preserve" text-anchor="start" x="14.38" y="-176.5" font-family="Helvetica,sans-Serif" font-size="10.00">placerMotif()</text>
<polygon fill="#666666" stroke="#666666" points="0.38,-508 0.38,-508 112.12,-508 112.12,-508 0.38,-508"/>
<polygon fill="#666666" stroke="#666666" points="0.38,-396 0.38,-396 12.38,-396 12.38,-396 0.38,-396"/>
<polygon fill="#666666" stroke="#666666" points="12.38,-396 12.38,-396 112.12,-396 112.12,-396 12.38,-396"/>
<polygon fill="none" stroke="#666666" points="0.38,-170 0.38,-526 112.12,-526 112.12,-170 0.38,-170"/>
</a>
</g>
</g>
<!-- Node2&#45;&gt;Node1 -->
<g id="edge1_Node000001_Node000002" class="edge">
<title>Node2&#45;&gt;Node1</title>
<g id="a_edge1_Node000001_Node000002"><a xlink:title=" ">
<path fill="none" stroke="#63b8ff" d="M56.25,-170.35C56.25,-155.68 56.25,-141.48 56.25,-128.42"/>
<polygon fill="none" stroke="#63b8ff" points="56.25,-128.66 52.25,-122.66 56.25,-116.66 60.25,-122.66 56.25,-128.66"/>
</a>
</g>
<text xml:space="preserve" text-anchor="start" x="59.25" y="-139.5" font-family="Helvetica,sans-Serif" font-size="10.00" fill="grey">&#45;jeu</text>
</g>
</g>
</svg>

<g id="navigator" transform="translate(0 0)" fill="#404254">
  <rect fill="#f2f5e9" fill-opacity="0.5" stroke="#606060" stroke-width=".5" x="0" y="0" width="60" height="60"/>
  <use id="zoomplus" xlink:href="#zoomPlus" x="17" y="9" onmousedown="handleZoom(evt,'in')"/>
  <use id="zoomminus" xlink:href="#zoomMin" x="42" y="9" onmousedown="handleZoom(evt,'out')"/>
  <use id="reset" xlink:href="#resetDef" x="30" y="36" onmousedown="handleReset()"/>
   <use id="arrowup" xlink:href="#arrowUp" x="0" y="0" onmousedown="handlePan(0,-1)"/>
  <use id="arrowright" xlink:href="#arrowRight" x="0" y="0" onmousedown="handlePan(1,0)"/>
  <use id="arrowdown" xlink:href="#arrowDown" x="0" y="0" onmousedown="handlePan(0,1)"/>
  <use id="arrowleft" xlink:href="#arrowLeft" x="0" y="0" onmousedown="handlePan(-1,0)"/>
</g>
<svg viewBox="0 0 15 15" width="100%" height="30px" preserveAspectRatio="xMaxYMin meet">
 <g id="arrow_out" transform="scale(0.3 0.3)">
  <a xlink:href="classModeConsole__coll__graph_org.svg" target="_base">
   <rect id="button" ry="5" rx="5" y="6" x="6" height="38" width="38"
        fill="#f2f5e9" fill-opacity="0.5" stroke="#606060" stroke-width="1.0"/>
   <path id="arrow"
     d="M 11.500037,31.436501 C 11.940474,20.09759 22.043105,11.32322 32.158766,21.979434 L 37.068811,17.246167 C 37.068811,17.246167 37.088388,32 37.088388,32 L 22.160133,31.978069 C 22.160133,31.978069 26.997745,27.140456 26.997745,27.140456 C 18.528582,18.264221 13.291696,25.230495 11.500037,31.436501 z"
     style="fill:#404040;"/>
  </a>
 </g>
</svg>

<style type='text/css'>
<![CDATA[
[data-mouse-over-selected='false'] { opacity: 0.7; }
[data-mouse-over-selected='true']  { opacity: 1.0; }
]]>
</style>
<script type="application/ecmascript"><![CDATA[
document.addEventListener('DOMContentLoaded', (event) => {
  highlightEdges();
  highlightAdjacentNodes();
});
]]></script>
</svg>
