<?xml version="1.0" encoding="UTF-8" standalone="no"?>
<!DOCTYPE svg PUBLIC "-//W3C//DTD SVG 1.1//EN"
 "http://www.w3.org/Graphics/SVG/1.1/DTD/svg11.dtd">
<!-- Generated by graphviz version 14.0.2 (20251019.1705)
 -->
<!-- Title: InterfaceSFML::afficher Pages: 1 -->
<svg width="659pt" height="180pt"
 viewBox="0.00 0.00 659.00 180.00" xmlns="http://www.w3.org/2000/svg" xmlns:xlink="http://www.w3.org/1999/xlink">
<g id="graph0" class="graph" transform="scale(1 1) rotate(0) translate(4 176)">
<title>InterfaceSFML::afficher</title>
<!-- Node1 -->
<g id="Node000001" class="node">
<title>Node1</title>
<g id="a_Node000001"><a xlink:title="Met à jour l&#39;affichage.">
<polygon fill="#999999" stroke="#666666" points="118,-77 0,-77 0,-57 118,-57 118,-77"/>
<text xml:space="preserve" text-anchor="middle" x="59" y="-63.5" font-family="Helvetica,sans-Serif" font-size="10.00">InterfaceSFML::afficher</text>
</a>
</g>
</g>
<!-- Node2 -->
<g id="Node000002" class="node">
<title>Node2</title>
<g id="a_Node000002"><a xlink:href="classInterfaceSFML.html#a6be07281be6cedd2ea9dde170234630c" target="_top" xlink:title="Dessine la grille.">
<polygon fill="white" stroke="#666666" points="315.5,-96 169.75,-96 169.75,-76 315.5,-76 315.5,-96"/>
<text xml:space="preserve" text-anchor="middle" x="242.62" y="-82.5" font-family="Helvetica,sans-Serif" font-size="10.00">InterfaceSFML::dessinerGrille</text>
</a>
</g>
</g>
<!-- Node1&#45;&gt;Node2 -->
<g id="edge1_Node000001_Node000002" class="edge">
<title>Node1&#45;&gt;Node2</title>
<g id="a_edge1_Node000001_Node000002"><a xlink:title=" ">
<path fill="none" stroke="#63b8ff" d="M118.47,-73.12C131.11,-74.44 144.71,-75.86 158.09,-77.26"/>
<polygon fill="#63b8ff" stroke="#63b8ff" points="157.45,-80.71 167.76,-78.27 158.18,-73.75 157.45,-80.71"/>
</a>
</g>
</g>
<!-- Node9 -->
<g id="Node000009" class="node">
<title>Node9</title>
<g id="a_Node000009"><a xlink:href="classInterfaceSFML.html#a9b5a8e272d8dc3c033e09fde93ac4845" target="_top" xlink:title="Dessine les informations à l&#39;écran.">
<polygon fill="white" stroke="#666666" points="331.25,-58 154,-58 154,-38 331.25,-38 331.25,-58"/>
<text xml:space="preserve" text-anchor="middle" x="242.62" y="-44.5" font-family="Helvetica,sans-Serif" font-size="10.00">InterfaceSFML::dessinerInformations</text>
</a>
</g>
</g>
<!-- Node1&#45;&gt;Node9 -->
<g id="edge8_Node000001_Node000009" class="edge">
<title>Node1&#45;&gt;Node9</title>
<g id="a_edge8_Node000001_Node000009"><a xlink:title=" ">
<path fill="none" stroke="#63b8ff" d="M118.47,-60.88C126.08,-60.09 134.04,-59.25 142.09,-58.41"/>
<polygon fill="#63b8ff" stroke="#63b8ff" points="142.43,-61.9 152.01,-57.37 141.7,-54.93 142.43,-61.9"/>
</a>
</g>
</g>
<!-- Node3 -->
<g id="Node000003" class="node">
<title>Node3</title>
<g id="a_Node000003"><a xlink:href="classCellule.html#a4e34ac281afdba1d793fbd0239022a5e" target="_top" xlink:title="Vérifie si la cellule est un obstacle.">
<polygon fill="white" stroke="#666666" points="483.38,-172 378.88,-172 378.88,-152 483.38,-152 483.38,-172"/>
<text xml:space="preserve" text-anchor="middle" x="431.12" y="-158.5" font-family="Helvetica,sans-Serif" font-size="10.00">Cellule::estObstacle</text>
</a>
</g>
</g>
<!-- Node2&#45;&gt;Node3 -->
<g id="edge2_Node000002_Node000003" class="edge">
<title>Node2&#45;&gt;Node3</title>
<g id="a_edge2_Node000002_Node000003"><a xlink:title=" ">
<path fill="none" stroke="#63b8ff" d="M263.82,-96.36C287.99,-108.53 329.91,-128.83 367.25,-143 371.93,-144.78 376.86,-146.51 381.81,-148.15"/>
<polygon fill="#63b8ff" stroke="#63b8ff" points="380.57,-151.42 391.16,-151.13 382.7,-144.75 380.57,-151.42"/>
</a>
</g>
</g>
<!-- Node4 -->
<g id="Node000004" class="node">
<title>Node4</title>
<g id="a_Node000004"><a xlink:href="classCellule.html#a70d2731234961e330fe0a31486d1dec7" target="_top" xlink:title="Vérifie si la cellule est vivante.">
<polygon fill="white" stroke="#666666" points="480.38,-96 381.88,-96 381.88,-76 480.38,-76 480.38,-96"/>
<text xml:space="preserve" text-anchor="middle" x="431.12" y="-82.5" font-family="Helvetica,sans-Serif" font-size="10.00">Cellule::estVivante</text>
</a>
</g>
</g>
<!-- Node2&#45;&gt;Node4 -->
<g id="edge3_Node000002_Node000004" class="edge">
<title>Node2&#45;&gt;Node4</title>
<g id="a_edge3_Node000002_Node000004"><a xlink:title=" ">
<path fill="none" stroke="#63b8ff" d="M316,-86C333.97,-86 353.04,-86 370.33,-86"/>
<polygon fill="#63b8ff" stroke="#63b8ff" points="369.9,-89.5 379.9,-86 369.9,-82.5 369.9,-89.5"/>
</a>
</g>
</g>
<!-- Node5 -->
<g id="Node000005" class="node">
<title>Node5</title>
<g id="a_Node000005"><a xlink:href="classGrille.html#aab75610fe73ae48bd035a048c55832f0" target="_top" xlink:title="Obtient une cellule à une position donnée.">
<polygon fill="white" stroke="#666666" points="483,-58 379.25,-58 379.25,-38 483,-38 483,-58"/>
<text xml:space="preserve" text-anchor="middle" x="431.12" y="-44.5" font-family="Helvetica,sans-Serif" font-size="10.00">Grille::obtenirCellule</text>
</a>
</g>
</g>
<!-- Node2&#45;&gt;Node5 -->
<g id="edge4_Node000002_Node000005" class="edge">
<title>Node2&#45;&gt;Node5</title>
<g id="a_edge4_Node000002_Node000005"><a xlink:title=" ">
<path fill="none" stroke="#63b8ff" d="M295.08,-75.52C317.61,-70.93 344.23,-65.5 367.86,-60.69"/>
<polygon fill="#63b8ff" stroke="#63b8ff" points="368.25,-64.18 377.35,-58.75 366.86,-57.32 368.25,-64.18"/>
</a>
</g>
</g>
<!-- Node7 -->
<g id="Node000007" class="node">
<title>Node7</title>
<g id="a_Node000007"><a xlink:href="classGrille.html#a1ab5c8e0ea0d1dc21549c38d0f0f5cf9" target="_top" xlink:title="Obtient le nombre de colonnes.">
<polygon fill="white" stroke="#666666" points="495,-20 367.25,-20 367.25,0 495,0 495,-20"/>
<text xml:space="preserve" text-anchor="middle" x="431.12" y="-6.5" font-family="Helvetica,sans-Serif" font-size="10.00">Grille::obtenirNbColonnes</text>
</a>
</g>
</g>
<!-- Node2&#45;&gt;Node7 -->
<g id="edge6_Node000002_Node000007" class="edge">
<title>Node2&#45;&gt;Node7</title>
<g id="a_edge6_Node000002_Node000007"><a xlink:title=" ">
<path fill="none" stroke="#63b8ff" d="M311.64,-75.56C318.48,-73.25 325.15,-70.44 331.25,-67 351.52,-55.58 347.45,-41.22 367.25,-29 369.67,-27.51 372.22,-26.12 374.84,-24.84"/>
<polygon fill="#63b8ff" stroke="#63b8ff" points="376.02,-28.14 383.85,-21 373.28,-21.71 376.02,-28.14"/>
</a>
</g>
</g>
<!-- Node8 -->
<g id="Node000008" class="node">
<title>Node8</title>
<g id="a_Node000008"><a xlink:href="classGrille.html#a96b5f98d212a0ee9e2f71d73ebe5bb91" target="_top" xlink:title="Obtient le nombre de lignes.">
<polygon fill="white" stroke="#666666" points="488.62,-134 373.62,-134 373.62,-114 488.62,-114 488.62,-134"/>
<text xml:space="preserve" text-anchor="middle" x="431.12" y="-120.5" font-family="Helvetica,sans-Serif" font-size="10.00">Grille::obtenirNbLignes</text>
</a>
</g>
</g>
<!-- Node2&#45;&gt;Node8 -->
<g id="edge7_Node000002_Node000008" class="edge">
<title>Node2&#45;&gt;Node8</title>
<g id="a_edge7_Node000002_Node000008"><a xlink:title=" ">
<path fill="none" stroke="#63b8ff" d="M295.08,-96.48C317.61,-101.07 344.23,-106.5 367.86,-111.31"/>
<polygon fill="#63b8ff" stroke="#63b8ff" points="366.86,-114.68 377.35,-113.25 368.25,-107.82 366.86,-114.68"/>
</a>
</g>
</g>
<!-- Node6 -->
<g id="Node000006" class="node">
<title>Node6</title>
<g id="a_Node000006"><a xlink:href="classGrille.html#aa4c9ce36bb4f2c59a83aeb39d73fc285" target="_top" xlink:title="Vérifie si une position est valide dans la grille.">
<polygon fill="white" stroke="#666666" points="650.5,-58 531,-58 531,-38 650.5,-38 650.5,-58"/>
<text xml:space="preserve" text-anchor="middle" x="590.75" y="-44.5" font-family="Helvetica,sans-Serif" font-size="10.00">Grille::estPositionValide</text>
</a>
</g>
</g>
<!-- Node5&#45;&gt;Node6 -->
<g id="edge5_Node000005_Node000006" class="edge">
<title>Node5&#45;&gt;Node6</title>
<g id="a_edge5_Node000005_Node000006"><a xlink:title=" ">
<path fill="none" stroke="#63b8ff" d="M483.3,-48C494.75,-48 507.08,-48 519.16,-48"/>
<polygon fill="#63b8ff" stroke="#63b8ff" points="519.1,-51.5 529.1,-48 519.1,-44.5 519.1,-51.5"/>
</a>
</g>
</g>
<!-- Node9&#45;&gt;Node4 -->
<g id="edge9_Node000009_Node000004" class="edge">
<title>Node9&#45;&gt;Node4</title>
<g id="a_edge9_Node000009_Node000004"><a xlink:title=" ">
<path fill="none" stroke="#63b8ff" d="M295.08,-58.48C318.35,-63.23 346,-68.86 370.2,-73.79"/>
<polygon fill="#63b8ff" stroke="#63b8ff" points="369.42,-77.2 379.92,-75.77 370.82,-70.34 369.42,-77.2"/>
</a>
</g>
</g>
<!-- Node9&#45;&gt;Node5 -->
<g id="edge10_Node000009_Node000005" class="edge">
<title>Node9&#45;&gt;Node5</title>
<g id="a_edge10_Node000009_Node000005"><a xlink:title=" ">
<path fill="none" stroke="#63b8ff" d="M331.69,-48C343.78,-48 355.99,-48 367.51,-48"/>
<polygon fill="#63b8ff" stroke="#63b8ff" points="367.24,-51.5 377.24,-48 367.24,-44.5 367.24,-51.5"/>
</a>
</g>
</g>
<!-- Node9&#45;&gt;Node7 -->
<g id="edge11_Node000009_Node000007" class="edge">
<title>Node9&#45;&gt;Node7</title>
<g id="a_edge11_Node000009_Node000007"><a xlink:title=" ">
<path fill="none" stroke="#63b8ff" d="M295.08,-37.52C317.61,-32.93 344.23,-27.5 367.86,-22.69"/>
<polygon fill="#63b8ff" stroke="#63b8ff" points="368.25,-26.18 377.35,-20.75 366.86,-19.32 368.25,-26.18"/>
</a>
</g>
</g>
<!-- Node9&#45;&gt;Node8 -->
<g id="edge12_Node000009_Node000008" class="edge">
<title>Node9&#45;&gt;Node8</title>
<g id="a_edge12_Node000009_Node000008"><a xlink:title=" ">
<path fill="none" stroke="#63b8ff" d="M311.64,-58.44C318.48,-60.75 325.15,-63.56 331.25,-67 351.52,-78.42 347.45,-92.78 367.25,-105 369.67,-106.49 372.22,-107.88 374.84,-109.16"/>
<polygon fill="#63b8ff" stroke="#63b8ff" points="373.28,-112.29 383.85,-113 376.02,-105.86 373.28,-112.29"/>
</a>
</g>
</g>
</g>
</svg>
