<?xml version="1.0" encoding="UTF-8" standalone="no"?>
<!DOCTYPE svg PUBLIC "-//W3C//DTD SVG 1.1//EN"
 "http://www.w3.org/Graphics/SVG/1.1/DTD/svg11.dtd">
<!-- Generated by graphviz version 14.0.2 (20251019.1705)
 -->
<!-- Title: TestsUnitaires::testerEvolution Pages: 1 -->
<svg width="589pt" height="104pt"
 viewBox="0.00 0.00 589.00 104.00" xmlns="http://www.w3.org/2000/svg" xmlns:xlink="http://www.w3.org/1999/xlink">
<g id="graph0" class="graph" transform="scale(1 1) rotate(0) translate(4 100)">
<title>TestsUnitaires::testerEvolution</title>
<!-- Node1 -->
<g id="Node000001" class="node">
<title>Node1</title>
<g id="a_Node000001"><a xlink:title="Teste l&#39;évolution d&#39;une grille après n itérations.">
<polygon fill="#999999" stroke="#666666" points="580.75,-58 430.5,-58 430.5,-38 580.75,-38 580.75,-58"/>
<text xml:space="preserve" text-anchor="middle" x="505.62" y="-44.5" font-family="Helvetica,sans-Serif" font-size="10.00">TestsUnitaires::testerEvolution</text>
</a>
</g>
</g>
<!-- Node2 -->
<g id="Node000002" class="node">
<title>Node2</title>
<g id="a_Node000002"><a xlink:href="classTestsUnitaires.html#acd912aefe999f1178f6c72f41bece368" target="_top" xlink:title="Teste le motif stable (bloc).">
<polygon fill="white" stroke="#666666" points="377.62,-96 248.38,-96 248.38,-76 377.62,-76 377.62,-96"/>
<text xml:space="preserve" text-anchor="middle" x="313" y="-82.5" font-family="Helvetica,sans-Serif" font-size="10.00">TestsUnitaires::testerBloc</text>
</a>
</g>
</g>
<!-- Node1&#45;&gt;Node2 -->
<g id="edge1_Node000001_Node000002" class="edge">
<title>Node1&#45;&gt;Node2</title>
<g id="a_edge1_Node000001_Node000002"><a xlink:title=" ">
<path fill="none" stroke="#63b8ff" d="M440.81,-60.72C416.64,-65.54 389.42,-70.96 366.42,-75.55"/>
<polygon fill="#63b8ff" stroke="#63b8ff" points="441.42,-64.17 450.55,-58.78 440.06,-57.3 441.42,-64.17"/>
</a>
</g>
</g>
<!-- Node5 -->
<g id="Node000005" class="node">
<title>Node5</title>
<g id="a_Node000005"><a xlink:href="classTestsUnitaires.html#ad353b61378429174dd396ee458261aa2" target="_top" xlink:title="Teste le motif oscillateur (clignotant).">
<polygon fill="white" stroke="#666666" points="390,-58 236,-58 236,-38 390,-38 390,-58"/>
<text xml:space="preserve" text-anchor="middle" x="313" y="-44.5" font-family="Helvetica,sans-Serif" font-size="10.00">TestsUnitaires::testerClignotant</text>
</a>
</g>
</g>
<!-- Node1&#45;&gt;Node5 -->
<g id="edge4_Node000001_Node000005" class="edge">
<title>Node1&#45;&gt;Node5</title>
<g id="a_edge4_Node000001_Node000005"><a xlink:title=" ">
<path fill="none" stroke="#63b8ff" d="M418.67,-48C409.23,-48 399.67,-48 390.35,-48"/>
<polygon fill="#63b8ff" stroke="#63b8ff" points="418.59,-51.5 428.59,-48 418.59,-44.5 418.59,-51.5"/>
</a>
</g>
</g>
<!-- Node6 -->
<g id="Node000006" class="node">
<title>Node6</title>
<g id="a_Node000006"><a xlink:href="classTestsUnitaires.html#a668b40e7c9824be78af8cfd427b4aa58" target="_top" xlink:title="Teste les règles de base.">
<polygon fill="white" stroke="#666666" points="394.5,-20 231.5,-20 231.5,0 394.5,0 394.5,-20"/>
<text xml:space="preserve" text-anchor="middle" x="313" y="-6.5" font-family="Helvetica,sans-Serif" font-size="10.00">TestsUnitaires::testerReglesBase</text>
</a>
</g>
</g>
<!-- Node1&#45;&gt;Node6 -->
<g id="edge6_Node000001_Node000006" class="edge">
<title>Node1&#45;&gt;Node6</title>
<g id="a_edge6_Node000001_Node000006"><a xlink:title=" ">
<path fill="none" stroke="#63b8ff" d="M440.81,-35.28C416.64,-30.46 389.42,-25.04 366.42,-20.45"/>
<polygon fill="#63b8ff" stroke="#63b8ff" points="440.06,-38.7 450.55,-37.22 441.42,-31.83 440.06,-38.7"/>
</a>
</g>
</g>
<!-- Node3 -->
<g id="Node000003" class="node">
<title>Node3</title>
<g id="a_Node000003"><a xlink:href="classTestsUnitaires.html#a17aa4e9d0afbd2614193d2638f4b78c7" target="_top" xlink:title="Exécute tous les tests.">
<polygon fill="white" stroke="#666666" points="195.5,-64 73,-64 73,-32 195.5,-32 195.5,-64"/>
<text xml:space="preserve" text-anchor="start" x="81" y="-50.5" font-family="Helvetica,sans-Serif" font-size="10.00">TestsUnitaires::executer</text>
<text xml:space="preserve" text-anchor="middle" x="134.25" y="-38.5" font-family="Helvetica,sans-Serif" font-size="10.00">TousLesTests</text>
</a>
</g>
</g>
<!-- Node2&#45;&gt;Node3 -->
<g id="edge2_Node000002_Node000003" class="edge">
<title>Node2&#45;&gt;Node3</title>
<g id="a_edge2_Node000002_Node000003"><a xlink:title=" ">
<path fill="none" stroke="#63b8ff" d="M252.19,-73.14C234.03,-69.24 214.06,-64.94 195.84,-61.03"/>
<polygon fill="#63b8ff" stroke="#63b8ff" points="251.24,-76.52 261.75,-75.2 252.71,-69.67 251.24,-76.52"/>
</a>
</g>
</g>
<!-- Node4 -->
<g id="Node000004" class="node">
<title>Node4</title>
<g id="a_Node000004"><a xlink:href="test__main_8cpp.html#ae66f6b31b5ad750f1fe042a706a4e3d4" target="_top" xlink:title="Programme principal pour exécuter les tests unitaires.">
<polygon fill="white" stroke="#666666" points="37,-58 0,-58 0,-38 37,-38 37,-58"/>
<text xml:space="preserve" text-anchor="middle" x="18.5" y="-44.5" font-family="Helvetica,sans-Serif" font-size="10.00">main</text>
</a>
</g>
</g>
<!-- Node3&#45;&gt;Node4 -->
<g id="edge3_Node000003_Node000004" class="edge">
<title>Node3&#45;&gt;Node4</title>
<g id="a_edge3_Node000003_Node000004"><a xlink:title=" ">
<path fill="none" stroke="#63b8ff" d="M61.32,-48C52.49,-48 44.18,-48 37.33,-48"/>
<polygon fill="#63b8ff" stroke="#63b8ff" points="61.2,-51.5 71.2,-48 61.2,-44.5 61.2,-51.5"/>
</a>
</g>
</g>
<!-- Node5&#45;&gt;Node3 -->
<g id="edge5_Node000005_Node000003" class="edge">
<title>Node5&#45;&gt;Node3</title>
<g id="a_edge5_Node000005_Node000003"><a xlink:title=" ">
<path fill="none" stroke="#63b8ff" d="M224.27,-48C214.67,-48 205.06,-48 195.89,-48"/>
<polygon fill="#63b8ff" stroke="#63b8ff" points="223.99,-51.5 233.99,-48 223.99,-44.5 223.99,-51.5"/>
</a>
</g>
</g>
<!-- Node6&#45;&gt;Node3 -->
<g id="edge7_Node000006_Node000003" class="edge">
<title>Node6&#45;&gt;Node3</title>
<g id="a_edge7_Node000006_Node000003"><a xlink:title=" ">
<path fill="none" stroke="#63b8ff" d="M252.19,-22.86C234.03,-26.76 214.06,-31.06 195.84,-34.97"/>
<polygon fill="#63b8ff" stroke="#63b8ff" points="252.71,-26.33 261.75,-20.8 251.24,-19.48 252.71,-26.33"/>
</a>
</g>
</g>
</g>
</svg>
