<?xml version="1.0" encoding="UTF-8" standalone="no"?>
<!DOCTYPE svg PUBLIC "-//W3C//DTD SVG 1.1//EN"
 "http://www.w3.org/Graphics/SVG/1.1/DTD/svg11.dtd">
<!-- Generated by graphviz version 14.0.2 (20251019.1705)
 -->
<!-- Title: TestsUnitaires::testerBloc Pages: 1 -->
<svg width="794pt" height="132pt"
 viewBox="0.00 0.00 794.00 132.00" xmlns="http://www.w3.org/2000/svg" xmlns:xlink="http://www.w3.org/1999/xlink">
<g id="graph0" class="graph" transform="scale(1 1) rotate(0) translate(4 128)">
<title>TestsUnitaires::testerBloc</title>
<!-- Node1 -->
<g id="Node000001" class="node">
<title>Node1</title>
<g id="a_Node000001"><a xlink:title="Teste le motif stable (bloc).">
<polygon fill="#999999" stroke="#666666" points="129.25,-102 0,-102 0,-82 129.25,-82 129.25,-102"/>
<text xml:space="preserve" text-anchor="middle" x="64.62" y="-88.5" font-family="Helvetica,sans-Serif" font-size="10.00">TestsUnitaires::testerBloc</text>
</a>
</g>
</g>
<!-- Node2 -->
<g id="Node000002" class="node">
<title>Node2</title>
<g id="a_Node000002"><a xlink:href="classTestsUnitaires.html#a6430263d628fa3e1f55be64cf1aae756" target="_top" xlink:title="Crée une grille de test.">
<polygon fill="white" stroke="#666666" points="305,-124 175.75,-124 175.75,-104 305,-104 305,-124"/>
<text xml:space="preserve" text-anchor="middle" x="240.38" y="-110.5" font-family="Helvetica,sans-Serif" font-size="10.00">TestsUnitaires::creerGrille</text>
</a>
</g>
</g>
<!-- Node1&#45;&gt;Node2 -->
<g id="edge1_Node000001_Node000002" class="edge">
<title>Node1&#45;&gt;Node2</title>
<g id="a_edge1_Node000001_Node000002"><a xlink:title=" ">
<path fill="none" stroke="#63b8ff" d="M129.34,-100.07C140.6,-101.49 152.41,-102.99 163.96,-104.45"/>
<polygon fill="#63b8ff" stroke="#63b8ff" points="163.52,-107.92 173.88,-105.71 164.4,-100.98 163.52,-107.92"/>
</a>
</g>
</g>
<!-- Node5 -->
<g id="Node000005" class="node">
<title>Node5</title>
<g id="a_Node000005"><a xlink:href="classTestsUnitaires.html#a1fea61fb0483bb1f7e0284d828ad347f" target="_top" xlink:title="Teste l&#39;évolution d&#39;une grille après n itérations.">
<polygon fill="white" stroke="#666666" points="315.5,-83 165.25,-83 165.25,-63 315.5,-63 315.5,-83"/>
<text xml:space="preserve" text-anchor="middle" x="240.38" y="-69.5" font-family="Helvetica,sans-Serif" font-size="10.00">TestsUnitaires::testerEvolution</text>
</a>
</g>
</g>
<!-- Node1&#45;&gt;Node5 -->
<g id="edge4_Node000001_Node000005" class="edge">
<title>Node1&#45;&gt;Node5</title>
<g id="a_edge4_Node000001_Node000005"><a xlink:title=" ">
<path fill="none" stroke="#63b8ff" d="M129.34,-85.03C137.17,-84.18 145.27,-83.29 153.37,-82.4"/>
<polygon fill="#63b8ff" stroke="#63b8ff" points="153.71,-85.89 163.27,-81.32 152.95,-78.93 153.71,-85.89"/>
</a>
</g>
</g>
<!-- Node3 -->
<g id="Node000003" class="node">
<title>Node3</title>
<g id="a_Node000003"><a xlink:href="classGrille.html#ab4c852bc2327224eac9da60841f30baa" target="_top" xlink:title="Définit l&#39;état d&#39;une cellule.">
<polygon fill="white" stroke="#666666" points="626.5,-111 507.75,-111 507.75,-91 626.5,-91 626.5,-111"/>
<text xml:space="preserve" text-anchor="middle" x="567.12" y="-97.5" font-family="Helvetica,sans-Serif" font-size="10.00">Grille::definirEtatCellule</text>
</a>
</g>
</g>
<!-- Node2&#45;&gt;Node3 -->
<g id="edge2_Node000002_Node000003" class="edge">
<title>Node2&#45;&gt;Node3</title>
<g id="a_edge2_Node000002_Node000003"><a xlink:title=" ">
<path fill="none" stroke="#63b8ff" d="M305.15,-111.45C360.1,-109.25 439.31,-106.08 496.03,-103.81"/>
<polygon fill="#63b8ff" stroke="#63b8ff" points="496.05,-107.31 505.9,-103.41 495.77,-100.31 496.05,-107.31"/>
</a>
</g>
</g>
<!-- Node4 -->
<g id="Node000004" class="node">
<title>Node4</title>
<g id="a_Node000004"><a xlink:href="classGrille.html#aa4c9ce36bb4f2c59a83aeb39d73fc285" target="_top" xlink:title="Vérifie si une position est valide dans la grille.">
<polygon fill="white" stroke="#666666" points="785.75,-111 666.25,-111 666.25,-91 785.75,-91 785.75,-111"/>
<text xml:space="preserve" text-anchor="middle" x="726" y="-97.5" font-family="Helvetica,sans-Serif" font-size="10.00">Grille::estPositionValide</text>
</a>
</g>
</g>
<!-- Node3&#45;&gt;Node4 -->
<g id="edge3_Node000003_Node000004" class="edge">
<title>Node3&#45;&gt;Node4</title>
<g id="a_edge3_Node000003_Node000004"><a xlink:title=" ">
<path fill="none" stroke="#63b8ff" d="M626.99,-101C635.91,-101 645.2,-101 654.34,-101"/>
<polygon fill="#63b8ff" stroke="#63b8ff" points="654.3,-104.5 664.3,-101 654.3,-97.5 654.3,-104.5"/>
</a>
</g>
</g>
<!-- Node6 -->
<g id="Node000006" class="node">
<title>Node6</title>
<g id="a_Node000006"><a xlink:href="classTestsUnitaires.html#af1671fe34db212a79ee1f4b2869d576e" target="_top" xlink:title="Affiche le résultat d&#39;un test.">
<polygon fill="white" stroke="#666666" points="468,-89 351.5,-89 351.5,-57 468,-57 468,-89"/>
<text xml:space="preserve" text-anchor="start" x="359.5" y="-75.5" font-family="Helvetica,sans-Serif" font-size="10.00">TestsUnitaires::afficher</text>
<text xml:space="preserve" text-anchor="middle" x="409.75" y="-63.5" font-family="Helvetica,sans-Serif" font-size="10.00">Resultat</text>
</a>
</g>
</g>
<!-- Node5&#45;&gt;Node6 -->
<g id="edge5_Node000005_Node000006" class="edge">
<title>Node5&#45;&gt;Node6</title>
<g id="a_edge5_Node000005_Node000006"><a xlink:title=" ">
<path fill="none" stroke="#63b8ff" d="M315.76,-73C323.74,-73 331.83,-73 339.74,-73"/>
<polygon fill="#63b8ff" stroke="#63b8ff" points="339.66,-76.5 349.66,-73 339.66,-69.5 339.66,-76.5"/>
</a>
</g>
</g>
<!-- Node7 -->
<g id="Node000007" class="node">
<title>Node7</title>
<g id="a_Node000007"><a xlink:href="classGrille.html#a980652764fefe3f45fcc0516a6e59abb" target="_top" xlink:title="Met à jour la grille pour passer à l&#39;itération suivante.">
<polygon fill="white" stroke="#666666" points="458.62,-39 360.88,-39 360.88,-19 458.62,-19 458.62,-39"/>
<text xml:space="preserve" text-anchor="middle" x="409.75" y="-25.5" font-family="Helvetica,sans-Serif" font-size="10.00">Grille::mettreAJour</text>
</a>
</g>
</g>
<!-- Node5&#45;&gt;Node7 -->
<g id="edge6_Node000005_Node000007" class="edge">
<title>Node5&#45;&gt;Node7</title>
<g id="a_edge6_Node000005_Node000007"><a xlink:title=" ">
<path fill="none" stroke="#63b8ff" d="M281.04,-62.57C304.09,-56.51 333.38,-48.81 358.09,-42.32"/>
<polygon fill="#63b8ff" stroke="#63b8ff" points="358.83,-45.74 367.62,-39.81 357.05,-38.97 358.83,-45.74"/>
</a>
</g>
</g>
<!-- Node7&#45;&gt;Node3 -->
<g id="edge7_Node000007_Node000003" class="edge">
<title>Node7&#45;&gt;Node3</title>
<g id="a_edge7_Node000007_Node000003"><a xlink:title=" ">
<path fill="none" stroke="#63b8ff" d="M445.63,-39.49C453.1,-42.04 460.89,-44.93 468,-48 492.89,-58.76 519.92,-73.61 539.29,-84.85"/>
<polygon fill="#63b8ff" stroke="#63b8ff" points="537.51,-87.86 547.9,-89.91 541.06,-81.83 537.51,-87.86"/>
</a>
</g>
</g>
<!-- Node8 -->
<g id="Node000008" class="node">
<title>Node8</title>
<g id="a_Node000008"><a xlink:href="classGrille.html#aa8f57932935f9b316ccdbd0705021d6b" target="_top" xlink:title="Constructeur de la grille.">
<polygon fill="white" stroke="#666666" points="759.5,-39 692.5,-39 692.5,-19 759.5,-19 759.5,-39"/>
<text xml:space="preserve" text-anchor="middle" x="726" y="-25.5" font-family="Helvetica,sans-Serif" font-size="10.00">Grille::Grille</text>
</a>
</g>
</g>
<!-- Node7&#45;&gt;Node8 -->
<g id="edge8_Node000007_Node000008" class="edge">
<title>Node7&#45;&gt;Node8</title>
<g id="a_edge8_Node000007_Node000008"><a xlink:title=" ">
<path fill="none" stroke="#63b8ff" d="M458.82,-29C519.3,-29 622.32,-29 680.88,-29"/>
<polygon fill="#63b8ff" stroke="#63b8ff" points="680.81,-32.5 690.81,-29 680.81,-25.5 680.81,-32.5"/>
</a>
</g>
</g>
<!-- Node9 -->
<g id="Node000009" class="node">
<title>Node9</title>
<g id="a_Node000009"><a xlink:href="classGrille.html#a7073ca25319522d4602550da3dfb1d22" target="_top" xlink:title="Met à jour un ensemble de lignes (parallélisation optimisée).">
<polygon fill="white" stroke="#666666" points="630.25,-20 504,-20 504,0 630.25,0 630.25,-20"/>
<text xml:space="preserve" text-anchor="middle" x="567.12" y="-6.5" font-family="Helvetica,sans-Serif" font-size="10.00">Grille::mettreAJourLignes</text>
</a>
</g>
</g>
<!-- Node7&#45;&gt;Node9 -->
<g id="edge9_Node000007_Node000009" class="edge">
<title>Node7&#45;&gt;Node9</title>
<g id="a_edge9_Node000007_Node000009"><a xlink:title=" ">
<path fill="none" stroke="#63b8ff" d="M459.06,-23.09C469.62,-21.8 481.02,-20.41 492.32,-19.03"/>
<polygon fill="#63b8ff" stroke="#63b8ff" points="492.54,-22.52 502.04,-17.84 491.69,-15.58 492.54,-22.52"/>
</a>
</g>
</g>
<!-- Node9&#45;&gt;Node8 -->
<g id="edge10_Node000009_Node000008" class="edge">
<title>Node9&#45;&gt;Node8</title>
<g id="a_edge10_Node000009_Node000008"><a xlink:title=" ">
<path fill="none" stroke="#63b8ff" d="M630.58,-17.56C647.33,-19.59 665.09,-21.74 680.64,-23.63"/>
<polygon fill="#63b8ff" stroke="#63b8ff" points="680.19,-27.1 690.54,-24.83 681.03,-20.15 680.19,-27.1"/>
</a>
</g>
</g>
</g>
</svg>
