<?xml version="1.0" encoding="UTF-8" standalone="no"?>
<!DOCTYPE svg PUBLIC "-//W3C//DTD SVG 1.1//EN"
 "http://www.w3.org/Graphics/SVG/1.1/DTD/svg11.dtd">
<!-- Generated by graphviz version 14.0.2 (20251019.1705)
 -->
<!-- Title: TestsUnitaires::testerPlaneur Pages: 1 -->
<svg width="626pt" height="78pt"
 viewBox="0.00 0.00 626.00 78.00" xmlns="http://www.w3.org/2000/svg" xmlns:xlink="http://www.w3.org/1999/xlink">
<g id="graph0" class="graph" transform="scale(1 1) rotate(0) translate(4 74)">
<title>TestsUnitaires::testerPlaneur</title>
<!-- Node1 -->
<g id="Node000001" class="node">
<title>Node1</title>
<g id="a_Node000001"><a xlink:title="Teste le planeur.">
<polygon fill="#999999" stroke="#666666" points="142.75,-42 0,-42 0,-22 142.75,-22 142.75,-42"/>
<text xml:space="preserve" text-anchor="middle" x="71.38" y="-28.5" font-family="Helvetica,sans-Serif" font-size="10.00">TestsUnitaires::testerPlaneur</text>
</a>
</g>
</g>
<!-- Node2 -->
<g id="Node000002" class="node">
<title>Node2</title>
<g id="a_Node000002"><a xlink:href="classTestsUnitaires.html#af1671fe34db212a79ee1f4b2869d576e" target="_top" xlink:title="Affiche le résultat d&#39;un test.">
<polygon fill="white" stroke="#666666" points="301.62,-70 185.12,-70 185.12,-38 301.62,-38 301.62,-70"/>
<text xml:space="preserve" text-anchor="start" x="193.12" y="-56.5" font-family="Helvetica,sans-Serif" font-size="10.00">TestsUnitaires::afficher</text>
<text xml:space="preserve" text-anchor="middle" x="243.38" y="-44.5" font-family="Helvetica,sans-Serif" font-size="10.00">Resultat</text>
</a>
</g>
</g>
<!-- Node1&#45;&gt;Node2 -->
<g id="edge1_Node000001_Node000002" class="edge">
<title>Node1&#45;&gt;Node2</title>
<g id="a_edge1_Node000001_Node000002"><a xlink:title=" ">
<path fill="none" stroke="#63b8ff" d="M142.99,-41.14C153.07,-42.44 163.42,-43.78 173.46,-45.08"/>
<polygon fill="#63b8ff" stroke="#63b8ff" points="172.77,-48.52 183.13,-46.33 173.67,-41.58 172.77,-48.52"/>
</a>
</g>
</g>
<!-- Node3 -->
<g id="Node000003" class="node">
<title>Node3</title>
<g id="a_Node000003"><a xlink:href="classTestsUnitaires.html#a6430263d628fa3e1f55be64cf1aae756" target="_top" xlink:title="Crée une grille de test.">
<polygon fill="white" stroke="#666666" points="308,-20 178.75,-20 178.75,0 308,0 308,-20"/>
<text xml:space="preserve" text-anchor="middle" x="243.38" y="-6.5" font-family="Helvetica,sans-Serif" font-size="10.00">TestsUnitaires::creerGrille</text>
</a>
</g>
</g>
<!-- Node1&#45;&gt;Node3 -->
<g id="edge2_Node000001_Node000003" class="edge">
<title>Node1&#45;&gt;Node3</title>
<g id="a_edge2_Node000001_Node000003"><a xlink:title=" ">
<path fill="none" stroke="#63b8ff" d="M142.99,-22.86C150.99,-21.83 159.17,-20.77 167.22,-19.73"/>
<polygon fill="#63b8ff" stroke="#63b8ff" points="167.53,-23.22 176.99,-18.46 166.63,-16.27 167.53,-23.22"/>
</a>
</g>
</g>
<!-- Node4 -->
<g id="Node000004" class="node">
<title>Node4</title>
<g id="a_Node000004"><a xlink:href="classGrille.html#ab4c852bc2327224eac9da60841f30baa" target="_top" xlink:title="Définit l&#39;état d&#39;une cellule.">
<polygon fill="white" stroke="#666666" points="462.75,-20 344,-20 344,0 462.75,0 462.75,-20"/>
<text xml:space="preserve" text-anchor="middle" x="403.38" y="-6.5" font-family="Helvetica,sans-Serif" font-size="10.00">Grille::definirEtatCellule</text>
</a>
</g>
</g>
<!-- Node3&#45;&gt;Node4 -->
<g id="edge3_Node000003_Node000004" class="edge">
<title>Node3&#45;&gt;Node4</title>
<g id="a_edge3_Node000003_Node000004"><a xlink:title=" ">
<path fill="none" stroke="#63b8ff" d="M308.18,-10C316.16,-10 324.35,-10 332.41,-10"/>
<polygon fill="#63b8ff" stroke="#63b8ff" points="332.18,-13.5 342.18,-10 332.18,-6.5 332.18,-13.5"/>
</a>
</g>
</g>
<!-- Node5 -->
<g id="Node000005" class="node">
<title>Node5</title>
<g id="a_Node000005"><a xlink:href="classGrille.html#aa4c9ce36bb4f2c59a83aeb39d73fc285" target="_top" xlink:title="Vérifie si une position est valide dans la grille.">
<polygon fill="white" stroke="#666666" points="618.25,-20 498.75,-20 498.75,0 618.25,0 618.25,-20"/>
<text xml:space="preserve" text-anchor="middle" x="558.5" y="-6.5" font-family="Helvetica,sans-Serif" font-size="10.00">Grille::estPositionValide</text>
</a>
</g>
</g>
<!-- Node4&#45;&gt;Node5 -->
<g id="edge4_Node000004_Node000005" class="edge">
<title>Node4&#45;&gt;Node5</title>
<g id="a_edge4_Node000004_Node000005"><a xlink:title=" ">
<path fill="none" stroke="#63b8ff" d="M463.14,-10C470.99,-10 479.11,-10 487.14,-10"/>
<polygon fill="#63b8ff" stroke="#63b8ff" points="486.87,-13.5 496.87,-10 486.87,-6.5 486.87,-13.5"/>
</a>
</g>
</g>
</g>
</svg>
