<?xml version="1.0" encoding="UTF-8" standalone="no"?>
<!DOCTYPE svg PUBLIC "-//W3C//DTD SVG 1.1//EN"
 "http://www.w3.org/Graphics/SVG/1.1/DTD/svg11.dtd">
<!-- Generated by graphviz version 14.0.2 (20251019.1705)
 -->
<!-- Title: TestsUnitaires::afficherResultat Pages: 1 -->
<!--zoomable 224 -->

<svg id="main" version="1.1" xmlns="http://www.w3.org/2000/svg" xmlns:xlink="http://www.w3.org/1999/xlink" xml:space="preserve" onload="init(evt)">

<style type="text/css"><![CDATA[
.node, .edge {opacity: 0.7;}
.node.selected, .edge.selected {opacity: 1;}
.edge:hover path { stroke: red; }
.edge:hover polygon { stroke: red; fill: red; }
]]></style>

<defs>
  <circle id="rim" cx="0" cy="0" r="7"/>
  <circle id="rim2" cx="0" cy="0" r="3.5"/>
  <g id="zoomPlus">
    <use xlink:href="#rim" fill="#404040"><set attributeName="fill" to="#808080" begin="zoomplus.mouseover" end="zoomplus.mouseout"/></use>
    <path d="M-4,0h8M0,-4v8" fill="none" stroke="white" stroke-width="1.5" pointer-events="none"/>
  </g>
  <g id="zoomMin">
    <use xlink:href="#rim" fill="#404040"><set attributeName="fill" to="#808080" begin="zoomminus.mouseover" end="zoomminus.mouseout"/></use>
    <path d="M-4,0h8" fill="none" stroke="white" stroke-width="1.5" pointer-events="none"/>
  </g>
  <g id="arrowUp" transform="translate(30 24)">
    <use xlink:href="#rim"/>
    <path pointer-events="none" fill="none" stroke="white" stroke-width="1.5" d="M0,-3.0v7 M-2.5,-0.5L0,-3.0L2.5,-0.5"/>
  </g>
  <g id="arrowRight" transform="rotate(90) translate(36 -43)">
    <use xlink:href="#rim"/>
    <path pointer-events="none" fill="none" stroke="white" stroke-width="1.5" d="M0,-3.0v7 M-2.5,-0.5L0,-3.0L2.5,-0.5"/>
  </g>
  <g id="arrowDown" transform="rotate(180) translate(-30 -48)">
    <use xlink:href="#rim"/>
    <path pointer-events="none" fill="none" stroke="white" stroke-width="1.5" d="M0,-3.0v7 M-2.5,-0.5L0,-3.0L2.5,-0.5"/>
  </g>
  <g id="arrowLeft" transform="rotate(270) translate(-36 17)">
    <use xlink:href="#rim"/>
    <path pointer-events="none" fill="none" stroke="white" stroke-width="1.5" d="M0,-3.0v7 M-2.5,-0.5L0,-3.0L2.5,-0.5"/>
  </g>
  <g id="resetDef">
    <use xlink:href="#rim2" fill="#404040"><set attributeName="fill" to="#808080" begin="reset.mouseover" end="reset.mouseout"/></use>
  </g>
</defs>
<script type="application/ecmascript">
var viewWidth = 741;
var viewHeight = 224;
var sectionId = 'dynsection-1';
</script>
<script type="application/ecmascript" xlink:href="svg.min.js"/>
<svg id="graph" class="graph">
<g id="viewport">
<title>TestsUnitaires::afficherResultat</title>
<!-- Node1 -->
<g id="Node000001" class="node">
<title>Node1</title>
<g id="a_Node000001"><a xlink:title="Affiche le résultat d&#39;un test.">
<polygon fill="#999999" stroke="#666666" points="733.25,-108 616.75,-108 616.75,-76 733.25,-76 733.25,-108"/>
<text xml:space="preserve" text-anchor="start" x="624.75" y="-94.5" font-family="Helvetica,sans-Serif" font-size="10.00">TestsUnitaires::afficher</text>
<text xml:space="preserve" text-anchor="middle" x="675" y="-82.5" font-family="Helvetica,sans-Serif" font-size="10.00">Resultat</text>
</a>
</g>
</g>
<!-- Node2 -->
<g id="Node000002" class="node">
<title>Node2</title>
<g id="a_Node000002"><a xlink:href="classTestsUnitaires.html#a1fea61fb0483bb1f7e0284d828ad347f" target="_top" xlink:title="Teste l&#39;évolution d&#39;une grille après n itérations.">
<polygon fill="white" stroke="#666666" points="580.75,-184 430.5,-184 430.5,-164 580.75,-164 580.75,-184"/>
<text xml:space="preserve" text-anchor="middle" x="505.62" y="-170.5" font-family="Helvetica,sans-Serif" font-size="10.00">TestsUnitaires::testerEvolution</text>
</a>
</g>
</g>
<!-- Node1&#45;&gt;Node2 -->
<g id="edge1_Node000001_Node000002" class="edge">
<title>Node1&#45;&gt;Node2</title>
<g id="a_edge1_Node000001_Node000002"><a xlink:title=" ">
<path fill="none" stroke="#63b8ff" d="M641.95,-114.65C624.44,-126.31 602.05,-140.11 580.75,-150 569.46,-155.24 556.72,-159.82 545.01,-163.52"/>
<polygon fill="#63b8ff" stroke="#63b8ff" points="643.56,-117.78 649.88,-109.28 639.63,-111.99 643.56,-117.78"/>
</a>
</g>
</g>
<!-- Node7 -->
<g id="Node000007" class="node">
<title>Node7</title>
<g id="a_Node000007"><a xlink:href="classTestsUnitaires.html#a668b40e7c9824be78af8cfd427b4aa58" target="_top" xlink:title="Teste les règles de base.">
<polygon fill="white" stroke="#666666" points="394.5,-140 231.5,-140 231.5,-120 394.5,-120 394.5,-140"/>
<text xml:space="preserve" text-anchor="middle" x="313" y="-126.5" font-family="Helvetica,sans-Serif" font-size="10.00">TestsUnitaires::testerReglesBase</text>
</a>
</g>
</g>
<!-- Node1&#45;&gt;Node7 -->
<g id="edge15_Node000001_Node000007" class="edge">
<title>Node1&#45;&gt;Node7</title>
<g id="a_edge15_Node000001_Node000007"><a xlink:title=" ">
<path fill="none" stroke="#63b8ff" d="M609.56,-111.18C599.97,-113.48 590.15,-115.53 580.75,-117 518.91,-126.68 448.11,-129.77 395,-130.52"/>
<polygon fill="#63b8ff" stroke="#63b8ff" points="610.36,-114.59 619.2,-108.76 608.65,-107.8 610.36,-114.59"/>
</a>
</g>
</g>
<!-- Node8 -->
<g id="Node000008" class="node">
<title>Node8</title>
<g id="a_Node000008"><a xlink:href="classTestsUnitaires.html#ac0c01e1e24de9cb73d81593c96fa34bb" target="_top" xlink:title="Teste la grille torique.">
<polygon fill="white" stroke="#666666" points="572.5,-108 438.75,-108 438.75,-76 572.5,-76 572.5,-108"/>
<text xml:space="preserve" text-anchor="start" x="446.75" y="-94.5" font-family="Helvetica,sans-Serif" font-size="10.00">TestsUnitaires::testerMode</text>
<text xml:space="preserve" text-anchor="middle" x="505.62" y="-82.5" font-family="Helvetica,sans-Serif" font-size="10.00">Torique</text>
</a>
</g>
</g>
<!-- Node1&#45;&gt;Node8 -->
<g id="edge9_Node000001_Node000008" class="edge">
<title>Node1&#45;&gt;Node8</title>
<g id="a_edge9_Node000001_Node000008"><a xlink:title=" ">
<path fill="none" stroke="#63b8ff" d="M605.05,-92C594.44,-92 583.51,-92 572.96,-92"/>
<polygon fill="#63b8ff" stroke="#63b8ff" points="604.89,-95.5 614.89,-92 604.89,-88.5 604.89,-95.5"/>
</a>
</g>
</g>
<!-- Node9 -->
<g id="Node000009" class="node">
<title>Node9</title>
<g id="a_Node000009"><a xlink:href="classTestsUnitaires.html#a7783880416ef4c0f160e1d8242f0d392" target="_top" xlink:title="Teste les cellules obstacles.">
<polygon fill="white" stroke="#666666" points="390,-63 236,-63 236,-43 390,-43 390,-63"/>
<text xml:space="preserve" text-anchor="middle" x="313" y="-49.5" font-family="Helvetica,sans-Serif" font-size="10.00">TestsUnitaires::testerObstacles</text>
</a>
</g>
</g>
<!-- Node1&#45;&gt;Node9 -->
<g id="edge11_Node000001_Node000009" class="edge">
<title>Node1&#45;&gt;Node9</title>
<g id="a_edge11_Node000001_Node000009"><a xlink:title=" ">
<path fill="none" stroke="#63b8ff" d="M609.19,-72.76C599.72,-70.5 590.03,-68.47 580.75,-67 517.08,-56.91 443.91,-53.65 390.33,-52.78"/>
<polygon fill="#63b8ff" stroke="#63b8ff" points="608.15,-76.11 618.7,-75.15 609.86,-69.32 608.15,-76.11"/>
</a>
</g>
</g>
<!-- Node10 -->
<g id="Node000010" class="node">
<title>Node10</title>
<g id="a_Node000010"><a xlink:href="classTestsUnitaires.html#aca78b84c54b4526bab6c6325e1b05e20" target="_top" xlink:title="Teste le planeur.">
<polygon fill="white" stroke="#666666" points="577,-20 434.25,-20 434.25,0 577,0 577,-20"/>
<text xml:space="preserve" text-anchor="middle" x="505.62" y="-6.5" font-family="Helvetica,sans-Serif" font-size="10.00">TestsUnitaires::testerPlaneur</text>
</a>
</g>
</g>
<!-- Node1&#45;&gt;Node10 -->
<g id="edge13_Node000001_Node000010" class="edge">
<title>Node1&#45;&gt;Node10</title>
<g id="a_edge13_Node000001_Node000010"><a xlink:title=" ">
<path fill="none" stroke="#63b8ff" d="M641.95,-69.35C624.44,-57.69 602.05,-43.89 580.75,-34 569.46,-28.76 556.72,-24.18 545.01,-20.48"/>
<polygon fill="#63b8ff" stroke="#63b8ff" points="639.63,-72.01 649.88,-74.72 643.56,-66.22 639.63,-72.01"/>
</a>
</g>
</g>
<!-- Node3 -->
<g id="Node000003" class="node">
<title>Node3</title>
<g id="a_Node000003"><a xlink:href="classTestsUnitaires.html#acd912aefe999f1178f6c72f41bece368" target="_top" xlink:title="Teste le motif stable (bloc).">
<polygon fill="white" stroke="#666666" points="377.62,-216 248.38,-216 248.38,-196 377.62,-196 377.62,-216"/>
<text xml:space="preserve" text-anchor="middle" x="313" y="-202.5" font-family="Helvetica,sans-Serif" font-size="10.00">TestsUnitaires::testerBloc</text>
</a>
</g>
</g>
<!-- Node2&#45;&gt;Node3 -->
<g id="edge2_Node000002_Node000003" class="edge">
<title>Node2&#45;&gt;Node3</title>
<g id="a_edge2_Node000002_Node000003"><a xlink:title=" ">
<path fill="none" stroke="#63b8ff" d="M431.1,-186.34C412.98,-189.38 393.75,-192.61 376.23,-195.55"/>
<polygon fill="#63b8ff" stroke="#63b8ff" points="431.43,-189.84 440.71,-184.73 430.27,-182.93 431.43,-189.84"/>
</a>
</g>
</g>
<!-- Node6 -->
<g id="Node000006" class="node">
<title>Node6</title>
<g id="a_Node000006"><a xlink:href="classTestsUnitaires.html#ad353b61378429174dd396ee458261aa2" target="_top" xlink:title="Teste le motif oscillateur (clignotant).">
<polygon fill="white" stroke="#666666" points="390,-178 236,-178 236,-158 390,-158 390,-178"/>
<text xml:space="preserve" text-anchor="middle" x="313" y="-164.5" font-family="Helvetica,sans-Serif" font-size="10.00">TestsUnitaires::testerClignotant</text>
</a>
</g>
</g>
<!-- Node2&#45;&gt;Node6 -->
<g id="edge5_Node000002_Node000006" class="edge">
<title>Node2&#45;&gt;Node6</title>
<g id="a_edge5_Node000002_Node000006"><a xlink:title=" ">
<path fill="none" stroke="#63b8ff" d="M418.67,-171.29C409.23,-171 399.67,-170.7 390.35,-170.4"/>
<polygon fill="#63b8ff" stroke="#63b8ff" points="418.49,-174.79 428.59,-171.61 418.71,-167.79 418.49,-174.79"/>
</a>
</g>
</g>
<!-- Node2&#45;&gt;Node7 -->
<g id="edge7_Node000002_Node000007" class="edge">
<title>Node2&#45;&gt;Node7</title>
<g id="a_edge7_Node000002_Node000007"><a xlink:title=" ">
<path fill="none" stroke="#63b8ff" d="M448.45,-161.03C419.99,-154.47 385.91,-146.6 359.18,-140.43"/>
<polygon fill="#63b8ff" stroke="#63b8ff" points="447.44,-164.39 457.97,-163.23 449.02,-157.57 447.44,-164.39"/>
</a>
</g>
</g>
<!-- Node4 -->
<g id="Node000004" class="node">
<title>Node4</title>
<g id="a_Node000004"><a xlink:href="classTestsUnitaires.html#a17aa4e9d0afbd2614193d2638f4b78c7" target="_top" xlink:title="Exécute tous les tests.">
<polygon fill="white" stroke="#666666" points="195.5,-127 73,-127 73,-95 195.5,-95 195.5,-127"/>
<text xml:space="preserve" text-anchor="start" x="81" y="-113.5" font-family="Helvetica,sans-Serif" font-size="10.00">TestsUnitaires::executer</text>
<text xml:space="preserve" text-anchor="middle" x="134.25" y="-101.5" font-family="Helvetica,sans-Serif" font-size="10.00">TousLesTests</text>
</a>
</g>
</g>
<!-- Node3&#45;&gt;Node4 -->
<g id="edge3_Node000003_Node000004" class="edge">
<title>Node3&#45;&gt;Node4</title>
<g id="a_edge3_Node000003_Node000004"><a xlink:title=" ">
<path fill="none" stroke="#63b8ff" d="M243.3,-191.98C239.24,-190.48 235.28,-188.83 231.5,-187 199.87,-171.72 169.03,-144.56 151.1,-127.19"/>
<polygon fill="#63b8ff" stroke="#63b8ff" points="242.17,-195.3 252.77,-195.13 244.38,-188.65 242.17,-195.3"/>
</a>
</g>
</g>
<!-- Node5 -->
<g id="Node000005" class="node">
<title>Node5</title>
<g id="a_Node000005"><a xlink:href="test__main_8cpp.html#ae66f6b31b5ad750f1fe042a706a4e3d4" target="_top" xlink:title="Programme principal pour exécuter les tests unitaires.">
<polygon fill="white" stroke="#666666" points="37,-121 0,-121 0,-101 37,-101 37,-121"/>
<text xml:space="preserve" text-anchor="middle" x="18.5" y="-107.5" font-family="Helvetica,sans-Serif" font-size="10.00">main</text>
</a>
</g>
</g>
<!-- Node4&#45;&gt;Node5 -->
<g id="edge4_Node000004_Node000005" class="edge">
<title>Node4&#45;&gt;Node5</title>
<g id="a_edge4_Node000004_Node000005"><a xlink:title=" ">
<path fill="none" stroke="#63b8ff" d="M61.32,-111C52.49,-111 44.18,-111 37.33,-111"/>
<polygon fill="#63b8ff" stroke="#63b8ff" points="61.2,-114.5 71.2,-111 61.2,-107.5 61.2,-114.5"/>
</a>
</g>
</g>
<!-- Node6&#45;&gt;Node4 -->
<g id="edge6_Node000006_Node000004" class="edge">
<title>Node6&#45;&gt;Node4</title>
<g id="a_edge6_Node000006_Node000004"><a xlink:title=" ">
<path fill="none" stroke="#63b8ff" d="M251.91,-154.83C244.99,-153.01 238.06,-151.06 231.5,-149 211.96,-142.87 190.73,-134.67 173.2,-127.45"/>
<polygon fill="#63b8ff" stroke="#63b8ff" points="250.72,-158.14 261.27,-157.19 252.43,-151.35 250.72,-158.14"/>
</a>
</g>
</g>
<!-- Node7&#45;&gt;Node4 -->
<g id="edge8_Node000007_Node000004" class="edge">
<title>Node7&#45;&gt;Node4</title>
<g id="a_edge8_Node000007_Node000004"><a xlink:title=" ">
<path fill="none" stroke="#63b8ff" d="M219.74,-120.08C211.69,-119.22 203.68,-118.36 195.99,-117.53"/>
<polygon fill="#63b8ff" stroke="#63b8ff" points="219.3,-123.56 229.62,-121.14 220.05,-116.6 219.3,-123.56"/>
</a>
</g>
</g>
<!-- Node8&#45;&gt;Node4 -->
<g id="edge10_Node000008_Node000004" class="edge">
<title>Node8&#45;&gt;Node4</title>
<g id="a_edge10_Node000008_Node000004"><a xlink:title=" ">
<path fill="none" stroke="#63b8ff" d="M427.38,-95.97C358.51,-99.52 259.08,-104.63 195.82,-107.88"/>
<polygon fill="#63b8ff" stroke="#63b8ff" points="427.27,-99.48 437.08,-95.47 426.91,-92.49 427.27,-99.48"/>
</a>
</g>
</g>
<!-- Node9&#45;&gt;Node4 -->
<g id="edge12_Node000009_Node000004" class="edge">
<title>Node9&#45;&gt;Node4</title>
<g id="a_edge12_Node000009_Node000004"><a xlink:title=" ">
<path fill="none" stroke="#63b8ff" d="M266.73,-66.8C255.22,-70.39 242.89,-74.28 231.5,-78 215.38,-83.27 197.81,-89.22 182.16,-94.61"/>
<polygon fill="#63b8ff" stroke="#63b8ff" points="267.49,-70.23 276.01,-63.93 265.42,-63.55 267.49,-70.23"/>
</a>
</g>
</g>
<!-- Node10&#45;&gt;Node4 -->
<g id="edge14_Node000010_Node000004" class="edge">
<title>Node10&#45;&gt;Node4</title>
<g id="a_edge14_Node000010_Node000004"><a xlink:title=" ">
<path fill="none" stroke="#63b8ff" d="M422.6,-5.02C366.82,-4.51 292.37,-9.6 231.5,-34 198.13,-47.37 167.11,-76.36 149.72,-94.7"/>
<polygon fill="#63b8ff" stroke="#63b8ff" points="422.29,-8.51 432.35,-5.17 422.4,-1.51 422.29,-8.51"/>
</a>
</g>
</g>
</g>
</svg>

<g id="navigator" transform="translate(0 0)" fill="#404254">
  <rect fill="#f2f5e9" fill-opacity="0.5" stroke="#606060" stroke-width=".5" x="0" y="0" width="60" height="60"/>
  <use id="zoomplus" xlink:href="#zoomPlus" x="17" y="9" onmousedown="handleZoom(evt,'in')"/>
  <use id="zoomminus" xlink:href="#zoomMin" x="42" y="9" onmousedown="handleZoom(evt,'out')"/>
  <use id="reset" xlink:href="#resetDef" x="30" y="36" onmousedown="handleReset()"/>
   <use id="arrowup" xlink:href="#arrowUp" x="0" y="0" onmousedown="handlePan(0,-1)"/>
  <use id="arrowright" xlink:href="#arrowRight" x="0" y="0" onmousedown="handlePan(1,0)"/>
  <use id="arrowdown" xlink:href="#arrowDown" x="0" y="0" onmousedown="handlePan(0,1)"/>
  <use id="arrowleft" xlink:href="#arrowLeft" x="0" y="0" onmousedown="handlePan(-1,0)"/>
</g>
<svg viewBox="0 0 15 15" width="100%" height="30px" preserveAspectRatio="xMaxYMin meet">
 <g id="arrow_out" transform="scale(0.3 0.3)">
  <a xlink:href="classTestsUnitaires_af1671fe34db212a79ee1f4b2869d576e_icgraph_org.svg" target="_base">
   <rect id="button" ry="5" rx="5" y="6" x="6" height="38" width="38"
        fill="#f2f5e9" fill-opacity="0.5" stroke="#606060" stroke-width="1.0"/>
   <path id="arrow"
     d="M 11.500037,31.436501 C 11.940474,20.09759 22.043105,11.32322 32.158766,21.979434 L 37.068811,17.246167 C 37.068811,17.246167 37.088388,32 37.088388,32 L 22.160133,31.978069 C 22.160133,31.978069 26.997745,27.140456 26.997745,27.140456 C 18.528582,18.264221 13.291696,25.230495 11.500037,31.436501 z"
     style="fill:#404040;"/>
  </a>
 </g>
</svg>

<style type='text/css'>
<![CDATA[
[data-mouse-over-selected='false'] { opacity: 0.7; }
[data-mouse-over-selected='true']  { opacity: 1.0; }
]]>
</style>
<script type="application/ecmascript"><![CDATA[
document.addEventListener('DOMContentLoaded', (event) => {
  highlightEdges();
  highlightAdjacentNodes();
});
]]></script>
</svg>
