<?xml version="1.0" encoding="UTF-8" standalone="no"?>
<!DOCTYPE svg PUBLIC "-//W3C//DTD SVG 1.1//EN"
 "http://www.w3.org/Graphics/SVG/1.1/DTD/svg11.dtd">
<!-- Generated by graphviz version 14.0.2 (20251019.1705)
 -->
<!-- Title: InterfaceSFML::InterfaceSFML Pages: 1 -->
<svg width="502pt" height="69pt"
 viewBox="0.00 0.00 502.00 69.00" xmlns="http://www.w3.org/2000/svg" xmlns:xlink="http://www.w3.org/1999/xlink">
<g id="graph0" class="graph" transform="scale(1 1) rotate(0) translate(4 65)">
<title>InterfaceSFML::InterfaceSFML</title>
<!-- Node1 -->
<g id="Node000001" class="node">
<title>Node1</title>
<g id="a_Node000001"><a xlink:title="Constructeur de l&#39;interface graphique SFML.">
<polygon fill="#999999" stroke="#666666" points="151,-41 0,-41 0,-21 151,-21 151,-41"/>
<text xml:space="preserve" text-anchor="middle" x="75.5" y="-27.5" font-family="Helvetica,sans-Serif" font-size="10.00">InterfaceSFML::InterfaceSFML</text>
</a>
</g>
</g>
<!-- Node2 -->
<g id="Node000002" class="node">
<title>Node2</title>
<g id="a_Node000002"><a xlink:href="classInterfaceSFML.html#a0d632238c209cf64ab1a27685fe77384" target="_top" xlink:title="Calcule la taille optimale des cellules.">
<polygon fill="white" stroke="#666666" points="329.75,-47 187,-47 187,-15 329.75,-15 329.75,-47"/>
<text xml:space="preserve" text-anchor="start" x="195" y="-33.5" font-family="Helvetica,sans-Serif" font-size="10.00">InterfaceSFML::calculerTaille</text>
<text xml:space="preserve" text-anchor="middle" x="258.38" y="-21.5" font-family="Helvetica,sans-Serif" font-size="10.00">Cellule</text>
</a>
</g>
</g>
<!-- Node1&#45;&gt;Node2 -->
<g id="edge1_Node000001_Node000002" class="edge">
<title>Node1&#45;&gt;Node2</title>
<g id="a_edge1_Node000001_Node000002"><a xlink:title=" ">
<path fill="none" stroke="#63b8ff" d="M151.37,-31C159.21,-31 167.21,-31 175.12,-31"/>
<polygon fill="#63b8ff" stroke="#63b8ff" points="175.11,-34.5 185.11,-31 175.11,-27.5 175.11,-34.5"/>
</a>
</g>
</g>
<!-- Node3 -->
<g id="Node000003" class="node">
<title>Node3</title>
<g id="a_Node000003"><a xlink:href="classGrille.html#a1ab5c8e0ea0d1dc21549c38d0f0f5cf9" target="_top" xlink:title="Obtient le nombre de colonnes.">
<polygon fill="white" stroke="#666666" points="493.5,-61 365.75,-61 365.75,-41 493.5,-41 493.5,-61"/>
<text xml:space="preserve" text-anchor="middle" x="429.62" y="-47.5" font-family="Helvetica,sans-Serif" font-size="10.00">Grille::obtenirNbColonnes</text>
</a>
</g>
</g>
<!-- Node1&#45;&gt;Node3 -->
<g id="edge4_Node000001_Node000003" class="edge">
<title>Node1&#45;&gt;Node3</title>
<g id="a_edge4_Node000001_Node000003"><a xlink:title=" ">
<path fill="none" stroke="#63b8ff" d="M113.24,-41.47C134.57,-47 162.08,-53.22 187,-56 250.05,-63.04 266.33,-57.6 329.75,-56 337.57,-55.8 345.74,-55.52 353.89,-55.18"/>
<polygon fill="#63b8ff" stroke="#63b8ff" points="354,-58.68 363.84,-54.74 353.69,-51.69 354,-58.68"/>
</a>
</g>
</g>
<!-- Node4 -->
<g id="Node000004" class="node">
<title>Node4</title>
<g id="a_Node000004"><a xlink:href="classGrille.html#a96b5f98d212a0ee9e2f71d73ebe5bb91" target="_top" xlink:title="Obtient le nombre de lignes.">
<polygon fill="white" stroke="#666666" points="487.12,-20 372.12,-20 372.12,0 487.12,0 487.12,-20"/>
<text xml:space="preserve" text-anchor="middle" x="429.62" y="-6.5" font-family="Helvetica,sans-Serif" font-size="10.00">Grille::obtenirNbLignes</text>
</a>
</g>
</g>
<!-- Node1&#45;&gt;Node4 -->
<g id="edge5_Node000001_Node000004" class="edge">
<title>Node1&#45;&gt;Node4</title>
<g id="a_edge5_Node000001_Node000004"><a xlink:title=" ">
<path fill="none" stroke="#63b8ff" d="M113.24,-20.53C134.57,-15 162.08,-8.78 187,-6 250.05,1.04 266.32,-4.72 329.75,-6 339.61,-6.2 350.02,-6.51 360.23,-6.87"/>
<polygon fill="#63b8ff" stroke="#63b8ff" points="360.01,-10.37 370.13,-7.24 360.27,-3.37 360.01,-10.37"/>
</a>
</g>
</g>
<!-- Node2&#45;&gt;Node3 -->
<g id="edge2_Node000002_Node000003" class="edge">
<title>Node2&#45;&gt;Node3</title>
<g id="a_edge2_Node000002_Node000003"><a xlink:title=" ">
<path fill="none" stroke="#63b8ff" d="M330.17,-39.37C338.11,-40.3 346.22,-41.26 354.21,-42.21"/>
<polygon fill="#63b8ff" stroke="#63b8ff" points="353.54,-45.65 363.89,-43.35 354.36,-38.7 353.54,-45.65"/>
</a>
</g>
</g>
<!-- Node2&#45;&gt;Node4 -->
<g id="edge3_Node000002_Node000004" class="edge">
<title>Node2&#45;&gt;Node4</title>
<g id="a_edge3_Node000002_Node000004"><a xlink:title=" ">
<path fill="none" stroke="#63b8ff" d="M330.17,-22.22C340.24,-20.97 350.58,-19.68 360.59,-18.44"/>
<polygon fill="#63b8ff" stroke="#63b8ff" points="360.74,-21.95 370.23,-17.25 359.88,-15 360.74,-21.95"/>
</a>
</g>
</g>
</g>
</svg>
