<?xml version="1.0" encoding="UTF-8" standalone="no"?>
<!DOCTYPE svg PUBLIC "-//W3C//DTD SVG 1.1//EN"
 "http://www.w3.org/Graphics/SVG/1.1/DTD/svg11.dtd">
<!-- Generated by graphviz version 14.0.2 (20251019.1705)
 -->
<!-- Title: include/EtatCellule.hpp Pages: 1 -->
<svg width="1058pt" height="308pt"
 viewBox="0.00 0.00 1058.00 308.00" xmlns="http://www.w3.org/2000/svg" xmlns:xlink="http://www.w3.org/1999/xlink">
<g id="graph0" class="graph" transform="scale(1 1) rotate(0) translate(4 304)">
<title>include/EtatCellule.hpp</title>
<!-- Node1 -->
<g id="Node000001" class="node">
<title>Node1</title>
<g id="a_Node000001"><a xlink:title=" ">
<polygon fill="#999999" stroke="#666666" points="906.88,-300 790.38,-300 790.38,-280 906.88,-280 906.88,-300"/>
<text xml:space="preserve" text-anchor="middle" x="848.62" y="-286.5" font-family="Helvetica,sans-Serif" font-size="10.00">include/EtatCellule.hpp</text>
</a>
</g>
</g>
<!-- Node2 -->
<g id="Node000002" class="node">
<title>Node2</title>
<g id="a_Node000002"><a xlink:href="Cellule_8hpp.html" target="_top" xlink:title=" ">
<polygon fill="white" stroke="#666666" points="805.88,-244 707.38,-244 707.38,-224 805.88,-224 805.88,-244"/>
<text xml:space="preserve" text-anchor="middle" x="756.62" y="-230.5" font-family="Helvetica,sans-Serif" font-size="10.00">include/Cellule.hpp</text>
</a>
</g>
</g>
<!-- Node1&#45;&gt;Node2 -->
<g id="edge1_Node000001_Node000002" class="edge">
<title>Node1&#45;&gt;Node2</title>
<g id="a_edge1_Node000001_Node000002"><a xlink:title=" ">
<path fill="none" stroke="#63b8ff" d="M822.75,-273.81C806.7,-264.39 786.58,-252.58 772.78,-244.48"/>
<polygon fill="#63b8ff" stroke="#63b8ff" points="820.9,-276.78 831.29,-278.83 824.44,-270.75 820.9,-276.78"/>
</a>
</g>
</g>
<!-- Node5 -->
<g id="Node000005" class="node">
<title>Node5</title>
<g id="a_Node000005"><a xlink:href="GestionnaireFichier_8cpp.html" target="_top" xlink:title=" ">
<polygon fill="white" stroke="#666666" points="135.25,-76 0,-76 0,-56 135.25,-56 135.25,-76"/>
<text xml:space="preserve" text-anchor="middle" x="67.62" y="-62.5" font-family="Helvetica,sans-Serif" font-size="10.00">src/GestionnaireFichier.cpp</text>
</a>
</g>
</g>
<!-- Node1&#45;&gt;Node5 -->
<g id="edge26_Node000001_Node000005" class="edge">
<title>Node1&#45;&gt;Node5</title>
<g id="a_edge26_Node000001_Node000005"><a xlink:title=" ">
<path fill="none" stroke="#63b8ff" d="M778.77,-281.06C616.35,-261.54 218.8,-207.21 109.62,-132 89.27,-117.98 76.48,-90.53 70.89,-76.2"/>
<polygon fill="#63b8ff" stroke="#63b8ff" points="778.21,-284.52 788.55,-282.23 779.04,-277.57 778.21,-284.52"/>
</a>
</g>
</g>
<!-- Node16 -->
<g id="Node000016" class="node">
<title>Node16</title>
<g id="a_Node000016"><a xlink:href="TestsUnitaires_8cpp.html" target="_top" xlink:title=" ">
<polygon fill="white" stroke="#666666" points="1049.75,-76 935.5,-76 935.5,-56 1049.75,-56 1049.75,-76"/>
<text xml:space="preserve" text-anchor="middle" x="992.62" y="-62.5" font-family="Helvetica,sans-Serif" font-size="10.00">src/TestsUnitaires.cpp</text>
</a>
</g>
</g>
<!-- Node1&#45;&gt;Node16 -->
<g id="edge28_Node000001_Node000016" class="edge">
<title>Node1&#45;&gt;Node16</title>
<g id="a_edge28_Node000001_Node000016"><a xlink:title=" ">
<path fill="none" stroke="#63b8ff" d="M860.81,-270.21C890.34,-224.69 964.87,-109.79 986.6,-76.3"/>
<polygon fill="#63b8ff" stroke="#63b8ff" points="857.96,-268.18 855.45,-278.47 863.83,-271.99 857.96,-268.18"/>
</a>
</g>
</g>
<!-- Node19 -->
<g id="Node000019" class="node">
<title>Node19</title>
<g id="a_Node000019"><a xlink:href="RegleJeu_8cpp.html" target="_top" xlink:title=" ">
<polygon fill="white" stroke="#666666" points="876.88,-132 784.38,-132 784.38,-112 876.88,-112 876.88,-132"/>
<text xml:space="preserve" text-anchor="middle" x="830.62" y="-118.5" font-family="Helvetica,sans-Serif" font-size="10.00">src/RegleJeu.cpp</text>
</a>
</g>
</g>
<!-- Node1&#45;&gt;Node19 -->
<g id="edge27_Node000001_Node000019" class="edge">
<title>Node1&#45;&gt;Node19</title>
<g id="a_edge27_Node000001_Node000019"><a xlink:title=" ">
<path fill="none" stroke="#63b8ff" d="M846.4,-268.5C842.47,-232.27 834.45,-158.31 831.63,-132.3"/>
<polygon fill="#63b8ff" stroke="#63b8ff" points="842.88,-268.53 847.44,-278.09 849.84,-267.78 842.88,-268.53"/>
</a>
</g>
</g>
<!-- Node21 -->
<g id="Node000021" class="node">
<title>Node21</title>
<g id="a_Node000021"><a xlink:href="EtatCellule_8cpp.html" target="_top" xlink:title=" ">
<polygon fill="white" stroke="#666666" points="1032.25,-244 933,-244 933,-224 1032.25,-224 1032.25,-244"/>
<text xml:space="preserve" text-anchor="middle" x="982.62" y="-230.5" font-family="Helvetica,sans-Serif" font-size="10.00">src/EtatCellule.cpp</text>
</a>
</g>
</g>
<!-- Node1&#45;&gt;Node21 -->
<g id="edge25_Node000001_Node000021" class="edge">
<title>Node1&#45;&gt;Node21</title>
<g id="a_edge25_Node000001_Node000021"><a xlink:title=" ">
<path fill="none" stroke="#63b8ff" d="M882.37,-275.4C906.31,-265.75 937.84,-253.05 959.1,-244.48"/>
<polygon fill="#63b8ff" stroke="#63b8ff" points="881.34,-272.04 873.37,-279.03 883.95,-278.54 881.34,-272.04"/>
</a>
</g>
</g>
<!-- Node3 -->
<g id="Node000003" class="node">
<title>Node3</title>
<g id="a_Node000003"><a xlink:href="Grille_8hpp.html" target="_top" xlink:title=" ">
<polygon fill="white" stroke="#666666" points="633.12,-188 542.12,-188 542.12,-168 633.12,-168 633.12,-188"/>
<text xml:space="preserve" text-anchor="middle" x="587.62" y="-174.5" font-family="Helvetica,sans-Serif" font-size="10.00">include/Grille.hpp</text>
</a>
</g>
</g>
<!-- Node2&#45;&gt;Node3 -->
<g id="edge2_Node000002_Node000003" class="edge">
<title>Node2&#45;&gt;Node3</title>
<g id="a_edge2_Node000002_Node000003"><a xlink:title=" ">
<path fill="none" stroke="#63b8ff" d="M716.5,-220.18C686.03,-210.44 644.83,-197.28 617.29,-188.48"/>
<polygon fill="#63b8ff" stroke="#63b8ff" points="715.15,-223.42 725.75,-223.13 717.29,-216.76 715.15,-223.42"/>
</a>
</g>
</g>
<!-- Node2&#45;&gt;Node19 -->
<g id="edge24_Node000002_Node000019" class="edge">
<title>Node2&#45;&gt;Node19</title>
<g id="a_edge24_Node000002_Node000019"><a xlink:title=" ">
<path fill="none" stroke="#63b8ff" d="M771.63,-214.75C778.02,-206.71 785.42,-197.05 791.62,-188 804.72,-168.89 818.24,-145.34 825.42,-132.48"/>
<polygon fill="#63b8ff" stroke="#63b8ff" points="768.99,-212.44 765.43,-222.42 774.44,-216.84 768.99,-212.44"/>
</a>
</g>
</g>
<!-- Node20 -->
<g id="Node000020" class="node">
<title>Node20</title>
<g id="a_Node000020"><a xlink:href="Cellule_8cpp.html" target="_top" xlink:title=" ">
<polygon fill="white" stroke="#666666" points="782.25,-188 701,-188 701,-168 782.25,-168 782.25,-188"/>
<text xml:space="preserve" text-anchor="middle" x="741.62" y="-174.5" font-family="Helvetica,sans-Serif" font-size="10.00">src/Cellule.cpp</text>
</a>
</g>
</g>
<!-- Node2&#45;&gt;Node20 -->
<g id="edge23_Node000002_Node000020" class="edge">
<title>Node2&#45;&gt;Node20</title>
<g id="a_edge23_Node000002_Node000020"><a xlink:title=" ">
<path fill="none" stroke="#63b8ff" d="M750.99,-212.71C748.66,-204.32 746.07,-195.01 744.21,-188.3"/>
<polygon fill="#63b8ff" stroke="#63b8ff" points="747.56,-213.44 753.61,-222.14 754.3,-211.56 747.56,-213.44"/>
</a>
</g>
</g>
<!-- Node4 -->
<g id="Node000004" class="node">
<title>Node4</title>
<g id="a_Node000004"><a xlink:href="GestionnaireFichier_8hpp.html" target="_top" xlink:title=" ">
<polygon fill="white" stroke="#666666" points="270.88,-132 118.38,-132 118.38,-112 270.88,-112 270.88,-132"/>
<text xml:space="preserve" text-anchor="middle" x="194.62" y="-118.5" font-family="Helvetica,sans-Serif" font-size="10.00">include/GestionnaireFichier.hpp</text>
</a>
</g>
</g>
<!-- Node3&#45;&gt;Node4 -->
<g id="edge3_Node000003_Node000004" class="edge">
<title>Node3&#45;&gt;Node4</title>
<g id="a_edge3_Node000003_Node000004"><a xlink:title=" ">
<path fill="none" stroke="#63b8ff" d="M530.44,-169.14C459.7,-159.42 339.37,-142.89 263.59,-132.48"/>
<polygon fill="#63b8ff" stroke="#63b8ff" points="529.89,-172.6 540.27,-170.49 530.84,-165.67 529.89,-172.6"/>
</a>
</g>
</g>
<!-- Node8 -->
<g id="Node000008" class="node">
<title>Node8</title>
<g id="a_Node000008"><a xlink:href="JeuDeLaVie_8hpp.html" target="_top" xlink:title=" ">
<polygon fill="white" stroke="#666666" points="616.5,-132 494.75,-132 494.75,-112 616.5,-112 616.5,-132"/>
<text xml:space="preserve" text-anchor="middle" x="555.62" y="-118.5" font-family="Helvetica,sans-Serif" font-size="10.00">include/JeuDeLaVie.hpp</text>
</a>
</g>
</g>
<!-- Node3&#45;&gt;Node8 -->
<g id="edge7_Node000003_Node000008" class="edge">
<title>Node3&#45;&gt;Node8</title>
<g id="a_edge7_Node000003_Node000008"><a xlink:title=" ">
<path fill="none" stroke="#63b8ff" d="M576.29,-157.87C571.14,-149.19 565.29,-139.32 561.14,-132.3"/>
<polygon fill="#63b8ff" stroke="#63b8ff" points="573.17,-159.47 581.28,-166.29 579.19,-155.9 573.17,-159.47"/>
</a>
</g>
</g>
<!-- Node15 -->
<g id="Node000015" class="node">
<title>Node15</title>
<g id="a_Node000015"><a xlink:href="TestsUnitaires_8hpp.html" target="_top" xlink:title=" ">
<polygon fill="white" stroke="#666666" points="766.38,-132 634.88,-132 634.88,-112 766.38,-112 766.38,-132"/>
<text xml:space="preserve" text-anchor="middle" x="700.62" y="-118.5" font-family="Helvetica,sans-Serif" font-size="10.00">include/TestsUnitaires.hpp</text>
</a>
</g>
</g>
<!-- Node3&#45;&gt;Node15 -->
<g id="edge18_Node000003_Node000015" class="edge">
<title>Node3&#45;&gt;Node15</title>
<g id="a_edge18_Node000003_Node000015"><a xlink:title=" ">
<path fill="none" stroke="#63b8ff" d="M617.45,-162.75C637.46,-153.18 663.27,-140.85 680.79,-132.48"/>
<polygon fill="#63b8ff" stroke="#63b8ff" points="616.19,-159.47 608.67,-166.94 619.21,-165.79 616.19,-159.47"/>
</a>
</g>
</g>
<!-- Node18 -->
<g id="Node000018" class="node">
<title>Node18</title>
<g id="a_Node000018"><a xlink:href="Grille_8cpp.html" target="_top" xlink:title=" ">
<polygon fill="white" stroke="#666666" points="476.5,-132 402.75,-132 402.75,-112 476.5,-112 476.5,-132"/>
<text xml:space="preserve" text-anchor="middle" x="439.62" y="-118.5" font-family="Helvetica,sans-Serif" font-size="10.00">src/Grille.cpp</text>
</a>
</g>
</g>
<!-- Node3&#45;&gt;Node18 -->
<g id="edge21_Node000003_Node000018" class="edge">
<title>Node3&#45;&gt;Node18</title>
<g id="a_edge21_Node000003_Node000018"><a xlink:title=" ">
<path fill="none" stroke="#63b8ff" d="M551.07,-163.66C524.54,-153.98 489.3,-141.12 465.61,-132.48"/>
<polygon fill="#63b8ff" stroke="#63b8ff" points="549.83,-166.94 560.42,-167.08 552.23,-160.36 549.83,-166.94"/>
</a>
</g>
</g>
<!-- Node3&#45;&gt;Node19 -->
<g id="edge22_Node000003_Node000019" class="edge">
<title>Node3&#45;&gt;Node19</title>
<g id="a_edge22_Node000003_Node000019"><a xlink:title=" ">
<path fill="none" stroke="#63b8ff" d="M641.34,-165.06C685.51,-155.25 747.26,-141.52 788.07,-132.46"/>
<polygon fill="#63b8ff" stroke="#63b8ff" points="640.71,-161.62 631.71,-167.2 642.23,-168.45 640.71,-161.62"/>
</a>
</g>
</g>
<!-- Node4&#45;&gt;Node5 -->
<g id="edge4_Node000004_Node000005" class="edge">
<title>Node4&#45;&gt;Node5</title>
<g id="a_edge4_Node000004_Node000005"><a xlink:title=" ">
<path fill="none" stroke="#63b8ff" d="M162.03,-107.14C139.41,-97.52 109.88,-84.97 89.92,-76.48"/>
<polygon fill="#63b8ff" stroke="#63b8ff" points="160.54,-110.31 171.11,-111 163.28,-103.87 160.54,-110.31"/>
</a>
</g>
</g>
<!-- Node6 -->
<g id="Node000006" class="node">
<title>Node6</title>
<g id="a_Node000006"><a xlink:href="ModeConsole_8cpp.html" target="_top" xlink:title=" ">
<polygon fill="white" stroke="#666666" points="289.25,-20 178,-20 178,0 289.25,0 289.25,-20"/>
<text xml:space="preserve" text-anchor="middle" x="233.62" y="-6.5" font-family="Helvetica,sans-Serif" font-size="10.00">src/ModeConsole.cpp</text>
</a>
</g>
</g>
<!-- Node4&#45;&gt;Node6 -->
<g id="edge5_Node000004_Node000006" class="edge">
<title>Node4&#45;&gt;Node6</title>
<g id="a_edge5_Node000004_Node000006"><a xlink:title=" ">
<path fill="none" stroke="#63b8ff" d="M187.53,-101C184,-87.76 181.63,-70.26 187.62,-56 193.95,-40.97 208.02,-28.44 218.95,-20.46"/>
<polygon fill="#63b8ff" stroke="#63b8ff" points="184.12,-101.81 190.44,-110.32 190.8,-99.73 184.12,-101.81"/>
</a>
</g>
</g>
<!-- Node7 -->
<g id="Node000007" class="node">
<title>Node7</title>
<g id="a_Node000007"><a xlink:href="main_8cpp.html" target="_top" xlink:title=" ">
<polygon fill="white" stroke="#666666" points="389.75,-20 317.5,-20 317.5,0 389.75,0 389.75,-20"/>
<text xml:space="preserve" text-anchor="middle" x="353.62" y="-6.5" font-family="Helvetica,sans-Serif" font-size="10.00">src/main.cpp</text>
</a>
</g>
</g>
<!-- Node4&#45;&gt;Node7 -->
<g id="edge6_Node000004_Node000007" class="edge">
<title>Node4&#45;&gt;Node7</title>
<g id="a_edge6_Node000004_Node000007"><a xlink:title=" ">
<path fill="none" stroke="#63b8ff" d="M198.14,-100.5C201.58,-86.24 208.2,-67.77 220.62,-56 234.74,-42.63 282.89,-28.45 317.19,-19.66"/>
<polygon fill="#63b8ff" stroke="#63b8ff" points="194.73,-99.68 196.16,-110.18 201.59,-101.08 194.73,-99.68"/>
</a>
</g>
</g>
<!-- Node8&#45;&gt;Node7 -->
<g id="edge17_Node000008_Node000007" class="edge">
<title>Node8&#45;&gt;Node7</title>
<g id="a_edge17_Node000008_Node000007"><a xlink:title=" ">
<path fill="none" stroke="#63b8ff" d="M541.46,-103.06C529.15,-88.55 510.11,-68.52 489.62,-56 458.64,-37.06 418.77,-25.09 390.22,-18.3"/>
<polygon fill="#63b8ff" stroke="#63b8ff" points="538.52,-104.99 547.57,-110.5 543.93,-100.55 538.52,-104.99"/>
</a>
</g>
</g>
<!-- Node9 -->
<g id="Node000009" class="node">
<title>Node9</title>
<g id="a_Node000009"><a xlink:href="InterfaceQt_8hpp.html" target="_top" xlink:title=" ">
<polygon fill="white" stroke="#666666" points="805.25,-76 688,-76 688,-56 805.25,-56 805.25,-76"/>
<text xml:space="preserve" text-anchor="middle" x="746.62" y="-62.5" font-family="Helvetica,sans-Serif" font-size="10.00">include/InterfaceQt.hpp</text>
</a>
</g>
</g>
<!-- Node8&#45;&gt;Node9 -->
<g id="edge8_Node000008_Node000009" class="edge">
<title>Node8&#45;&gt;Node9</title>
<g id="a_edge8_Node000008_Node000009"><a xlink:title=" ">
<path fill="none" stroke="#63b8ff" d="M599.63,-108.56C634.18,-98.79 681.57,-85.39 713.1,-76.48"/>
<polygon fill="#63b8ff" stroke="#63b8ff" points="599.02,-105.09 590.35,-111.18 600.93,-111.83 599.02,-105.09"/>
</a>
</g>
</g>
<!-- Node11 -->
<g id="Node000011" class="node">
<title>Node11</title>
<g id="a_Node000011"><a xlink:href="InterfaceSFML_8hpp.html" target="_top" xlink:title=" ">
<polygon fill="white" stroke="#666666" points="670.12,-76 537.12,-76 537.12,-56 670.12,-56 670.12,-76"/>
<text xml:space="preserve" text-anchor="middle" x="603.62" y="-62.5" font-family="Helvetica,sans-Serif" font-size="10.00">include/InterfaceSFML.hpp</text>
</a>
</g>
</g>
<!-- Node8&#45;&gt;Node11 -->
<g id="edge10_Node000008_Node000011" class="edge">
<title>Node8&#45;&gt;Node11</title>
<g id="a_edge10_Node000008_Node000011"><a xlink:title=" ">
<path fill="none" stroke="#63b8ff" d="M571.62,-103C579.57,-94.06 588.85,-83.62 595.36,-76.3"/>
<polygon fill="#63b8ff" stroke="#63b8ff" points="569.02,-100.66 564.99,-110.46 574.25,-105.31 569.02,-100.66"/>
</a>
</g>
</g>
<!-- Node13 -->
<g id="Node000013" class="node">
<title>Node13</title>
<g id="a_Node000013"><a xlink:href="ModeConsole_8hpp.html" target="_top" xlink:title=" ">
<polygon fill="white" stroke="#666666" points="357.88,-76 229.38,-76 229.38,-56 357.88,-56 357.88,-76"/>
<text xml:space="preserve" text-anchor="middle" x="293.62" y="-62.5" font-family="Helvetica,sans-Serif" font-size="10.00">include/ModeConsole.hpp</text>
</a>
</g>
</g>
<!-- Node8&#45;&gt;Node13 -->
<g id="edge13_Node000008_Node000013" class="edge">
<title>Node8&#45;&gt;Node13</title>
<g id="a_edge13_Node000008_Node000013"><a xlink:title=" ">
<path fill="none" stroke="#63b8ff" d="M498.62,-109.25C450.93,-99.42 383.78,-85.58 339.51,-76.46"/>
<polygon fill="#63b8ff" stroke="#63b8ff" points="497.71,-112.64 508.21,-111.23 499.12,-105.78 497.71,-112.64"/>
</a>
</g>
</g>
<!-- Node14 -->
<g id="Node000014" class="node">
<title>Node14</title>
<g id="a_Node000014"><a xlink:href="JeuDeLaVie_8cpp.html" target="_top" xlink:title=" ">
<polygon fill="white" stroke="#666666" points="480.88,-76 376.38,-76 376.38,-56 480.88,-56 480.88,-76"/>
<text xml:space="preserve" text-anchor="middle" x="428.62" y="-62.5" font-family="Helvetica,sans-Serif" font-size="10.00">src/JeuDeLaVie.cpp</text>
</a>
</g>
</g>
<!-- Node8&#45;&gt;Node14 -->
<g id="edge16_Node000008_Node000014" class="edge">
<title>Node8&#45;&gt;Node14</title>
<g id="a_edge16_Node000008_Node000014"><a xlink:title=" ">
<path fill="none" stroke="#63b8ff" d="M523.03,-107.14C500.41,-97.52 470.88,-84.97 450.92,-76.48"/>
<polygon fill="#63b8ff" stroke="#63b8ff" points="521.54,-110.31 532.11,-111 524.28,-103.87 521.54,-110.31"/>
</a>
</g>
</g>
<!-- Node10 -->
<g id="Node000010" class="node">
<title>Node10</title>
<g id="a_Node000010"><a xlink:href="InterfaceQt_8cpp.html" target="_top" xlink:title=" ">
<polygon fill="white" stroke="#666666" points="796.62,-20 696.62,-20 696.62,0 796.62,0 796.62,-20"/>
<text xml:space="preserve" text-anchor="middle" x="746.62" y="-6.5" font-family="Helvetica,sans-Serif" font-size="10.00">src/InterfaceQt.cpp</text>
</a>
</g>
</g>
<!-- Node9&#45;&gt;Node10 -->
<g id="edge9_Node000009_Node000010" class="edge">
<title>Node9&#45;&gt;Node10</title>
<g id="a_edge9_Node000009_Node000010"><a xlink:title=" ">
<path fill="none" stroke="#63b8ff" d="M746.62,-44.13C746.62,-35.9 746.62,-26.85 746.62,-20.3"/>
<polygon fill="#63b8ff" stroke="#63b8ff" points="743.13,-44.08 746.63,-54.08 750.13,-44.08 743.13,-44.08"/>
</a>
</g>
</g>
<!-- Node11&#45;&gt;Node7 -->
<g id="edge12_Node000011_Node000007" class="edge">
<title>Node11&#45;&gt;Node7</title>
<g id="a_edge12_Node000011_Node000007"><a xlink:title=" ">
<path fill="none" stroke="#63b8ff" d="M548.62,-53.12C500.44,-42.71 431.77,-27.88 390.09,-18.88"/>
<polygon fill="#63b8ff" stroke="#63b8ff" points="547.8,-56.52 558.31,-55.21 549.28,-49.68 547.8,-56.52"/>
</a>
</g>
</g>
<!-- Node12 -->
<g id="Node000012" class="node">
<title>Node12</title>
<g id="a_Node000012"><a xlink:href="InterfaceSFML_8cpp.html" target="_top" xlink:title=" ">
<polygon fill="white" stroke="#666666" points="661.5,-20 545.75,-20 545.75,0 661.5,0 661.5,-20"/>
<text xml:space="preserve" text-anchor="middle" x="603.62" y="-6.5" font-family="Helvetica,sans-Serif" font-size="10.00">src/InterfaceSFML.cpp</text>
</a>
</g>
</g>
<!-- Node11&#45;&gt;Node12 -->
<g id="edge11_Node000011_Node000012" class="edge">
<title>Node11&#45;&gt;Node12</title>
<g id="a_edge11_Node000011_Node000012"><a xlink:title=" ">
<path fill="none" stroke="#63b8ff" d="M603.62,-44.13C603.62,-35.9 603.62,-26.85 603.62,-20.3"/>
<polygon fill="#63b8ff" stroke="#63b8ff" points="600.13,-44.08 603.63,-54.08 607.13,-44.08 600.13,-44.08"/>
</a>
</g>
</g>
<!-- Node13&#45;&gt;Node6 -->
<g id="edge14_Node000013_Node000006" class="edge">
<title>Node13&#45;&gt;Node6</title>
<g id="a_edge14_Node000013_Node000006"><a xlink:title=" ">
<path fill="none" stroke="#63b8ff" d="M274.88,-48.13C264.67,-38.94 252.44,-27.93 243.96,-20.3"/>
<polygon fill="#63b8ff" stroke="#63b8ff" points="272.27,-50.49 282.05,-54.58 276.96,-45.29 272.27,-50.49"/>
</a>
</g>
</g>
<!-- Node13&#45;&gt;Node7 -->
<g id="edge15_Node000013_Node000007" class="edge">
<title>Node13&#45;&gt;Node7</title>
<g id="a_edge15_Node000013_Node000007"><a xlink:title=" ">
<path fill="none" stroke="#63b8ff" d="M312.37,-48.13C322.58,-38.94 334.81,-27.93 343.29,-20.3"/>
<polygon fill="#63b8ff" stroke="#63b8ff" points="310.29,-45.29 305.2,-54.58 314.98,-50.49 310.29,-45.29"/>
</a>
</g>
</g>
<!-- Node15&#45;&gt;Node16 -->
<g id="edge19_Node000015_Node000016" class="edge">
<title>Node15&#45;&gt;Node16</title>
<g id="a_edge19_Node000015_Node000016"><a xlink:title=" ">
<path fill="none" stroke="#63b8ff" d="M762.82,-109.5C816.04,-99.66 891.73,-85.66 941.49,-76.46"/>
<polygon fill="#63b8ff" stroke="#63b8ff" points="762.51,-106 753.31,-111.26 763.78,-112.88 762.51,-106"/>
</a>
</g>
</g>
<!-- Node17 -->
<g id="Node000017" class="node">
<title>Node17</title>
<g id="a_Node000017"><a xlink:href="test__main_8cpp.html" target="_top" xlink:title=" ">
<polygon fill="white" stroke="#666666" points="917.62,-76 823.62,-76 823.62,-56 917.62,-56 917.62,-76"/>
<text xml:space="preserve" text-anchor="middle" x="870.62" y="-62.5" font-family="Helvetica,sans-Serif" font-size="10.00">src/test_main.cpp</text>
</a>
</g>
</g>
<!-- Node15&#45;&gt;Node17 -->
<g id="edge20_Node000015_Node000017" class="edge">
<title>Node15&#45;&gt;Node17</title>
<g id="a_edge20_Node000015_Node000017"><a xlink:title=" ">
<path fill="none" stroke="#63b8ff" d="M740.99,-108.18C771.64,-98.44 813.09,-85.28 840.78,-76.48"/>
<polygon fill="#63b8ff" stroke="#63b8ff" points="740.15,-104.77 731.68,-111.14 742.27,-111.44 740.15,-104.77"/>
</a>
</g>
</g>
</g>
</svg>
