<?xml version="1.0" encoding="UTF-8" standalone="no"?>
<!DOCTYPE svg PUBLIC "-//W3C//DTD SVG 1.1//EN"
 "http://www.w3.org/Graphics/SVG/1.1/DTD/svg11.dtd">
<!-- Generated by graphviz version 14.0.2 (20251019.1705)
 -->
<!-- Title: include/EtatCellule.hpp Pages: 1 -->
<!--zoomable 308 -->

<svg id="main" version="1.1" xmlns="http://www.w3.org/2000/svg" xmlns:xlink="http://www.w3.org/1999/xlink" xml:space="preserve" onload="init(evt)">

<style type="text/css"><![CDATA[
.node, .edge {opacity: 0.7;}
.node.selected, .edge.selected {opacity: 1;}
.edge:hover path { stroke: red; }
.edge:hover polygon { stroke: red; fill: red; }
]]></style>

<defs>
  <circle id="rim" cx="0" cy="0" r="7"/>
  <circle id="rim2" cx="0" cy="0" r="3.5"/>
  <g id="zoomPlus">
    <use xlink:href="#rim" fill="#404040"><set attributeName="fill" to="#808080" begin="zoomplus.mouseover" end="zoomplus.mouseout"/></use>
    <path d="M-4,0h8M0,-4v8" fill="none" stroke="white" stroke-width="1.5" pointer-events="none"/>
  </g>
  <g id="zoomMin">
    <use xlink:href="#rim" fill="#404040"><set attributeName="fill" to="#808080" begin="zoomminus.mouseover" end="zoomminus.mouseout"/></use>
    <path d="M-4,0h8" fill="none" stroke="white" stroke-width="1.5" pointer-events="none"/>
  </g>
  <g id="arrowUp" transform="translate(30 24)">
    <use xlink:href="#rim"/>
    <path pointer-events="none" fill="none" stroke="white" stroke-width="1.5" d="M0,-3.0v7 M-2.5,-0.5L0,-3.0L2.5,-0.5"/>
  </g>
  <g id="arrowRight" transform="rotate(90) translate(36 -43)">
    <use xlink:href="#rim"/>
    <path pointer-events="none" fill="none" stroke="white" stroke-width="1.5" d="M0,-3.0v7 M-2.5,-0.5L0,-3.0L2.5,-0.5"/>
  </g>
  <g id="arrowDown" transform="rotate(180) translate(-30 -48)">
    <use xlink:href="#rim"/>
    <path pointer-events="none" fill="none" stroke="white" stroke-width="1.5" d="M0,-3.0v7 M-2.5,-0.5L0,-3.0L2.5,-0.5"/>
  </g>
  <g id="arrowLeft" transform="rotate(270) translate(-36 17)">
    <use xlink:href="#rim"/>
    <path pointer-events="none" fill="none" stroke="white" stroke-width="1.5" d="M0,-3.0v7 M-2.5,-0.5L0,-3.0L2.5,-0.5"/>
  </g>
  <g id="resetDef">
    <use xlink:href="#rim2" fill="#404040"><set attributeName="fill" to="#808080" begin="reset.mouseover" end="reset.mouseout"/></use>
  </g>
</defs>
<script type="application/ecmascript">
var viewWidth = 1059;
var viewHeight = 308;
var sectionId = 'dynsection-1';
</script>
<script type="application/ecmascript" xlink:href="svg.min.js"/>
<svg id="graph" class="graph">
<g id="viewport">
<title>include/EtatCellule.hpp</title>
<!-- Node1 -->
<g id="Node000001" class="node">
<title>Node1</title>
<g id="a_Node000001"><a xlink:title=" ">
<polygon fill="#999999" stroke="#666666" points="503.25,-300 386.75,-300 386.75,-280 503.25,-280 503.25,-300"/>
<text xml:space="preserve" text-anchor="middle" x="445" y="-286.5" font-family="Helvetica,sans-Serif" font-size="10.00">include/EtatCellule.hpp</text>
</a>
</g>
</g>
<!-- Node2 -->
<g id="Node000002" class="node">
<title>Node2</title>
<g id="a_Node000002"><a xlink:href="Cellule_8hpp.html" target="_top" xlink:title=" ">
<polygon fill="white" stroke="#666666" points="494.25,-244 395.75,-244 395.75,-224 494.25,-224 494.25,-244"/>
<text xml:space="preserve" text-anchor="middle" x="445" y="-230.5" font-family="Helvetica,sans-Serif" font-size="10.00">include/Cellule.hpp</text>
</a>
</g>
</g>
<!-- Node1&#45;&gt;Node2 -->
<g id="edge1_Node000001_Node000002" class="edge">
<title>Node1&#45;&gt;Node2</title>
<g id="a_edge1_Node000001_Node000002"><a xlink:title=" ">
<path fill="none" stroke="#63b8ff" d="M445,-268.13C445,-259.9 445,-250.85 445,-244.3"/>
<polygon fill="#63b8ff" stroke="#63b8ff" points="441.5,-268.08 445,-278.08 448.5,-268.08 441.5,-268.08"/>
</a>
</g>
</g>
<!-- Node5 -->
<g id="Node000005" class="node">
<title>Node5</title>
<g id="a_Node000005"><a xlink:href="GestionnaireFichier_8cpp.html" target="_top" xlink:title=" ">
<polygon fill="white" stroke="#666666" points="1050.62,-76 915.38,-76 915.38,-56 1050.62,-56 1050.62,-76"/>
<text xml:space="preserve" text-anchor="middle" x="983" y="-62.5" font-family="Helvetica,sans-Serif" font-size="10.00">src/GestionnaireFichier.cpp</text>
</a>
</g>
</g>
<!-- Node1&#45;&gt;Node5 -->
<g id="edge27_Node000001_Node000005" class="edge">
<title>Node1&#45;&gt;Node5</title>
<g id="a_edge27_Node000001_Node000005"><a xlink:title=" ">
<path fill="none" stroke="#63b8ff" d="M486.56,-276.23C563.72,-251.95 733.7,-195.82 870,-132 906.69,-114.82 947.32,-89.89 968.44,-76.44"/>
<polygon fill="#63b8ff" stroke="#63b8ff" points="485.8,-272.8 477.3,-279.12 487.89,-279.48 485.8,-272.8"/>
</a>
</g>
</g>
<!-- Node15 -->
<g id="Node000015" class="node">
<title>Node15</title>
<g id="a_Node000015"><a xlink:href="TestsUnitaires_8cpp.html" target="_top" xlink:title=" ">
<polygon fill="white" stroke="#666666" points="226.12,-76 111.88,-76 111.88,-56 226.12,-56 226.12,-76"/>
<text xml:space="preserve" text-anchor="middle" x="169" y="-62.5" font-family="Helvetica,sans-Serif" font-size="10.00">src/TestsUnitaires.cpp</text>
</a>
</g>
</g>
<!-- Node1&#45;&gt;Node15 -->
<g id="edge29_Node000001_Node000015" class="edge">
<title>Node1&#45;&gt;Node15</title>
<g id="a_edge29_Node000001_Node000015"><a xlink:title=" ">
<path fill="none" stroke="#63b8ff" d="M405.34,-275.68C348.38,-254.47 244.13,-207.54 188,-132 175.38,-115.01 171.11,-89.78 169.69,-76.29"/>
<polygon fill="#63b8ff" stroke="#63b8ff" points="404.05,-278.94 414.65,-279.06 406.44,-272.36 404.05,-278.94"/>
</a>
</g>
</g>
<!-- Node19 -->
<g id="Node000019" class="node">
<title>Node19</title>
<g id="a_Node000019"><a xlink:href="RegleJeu_8cpp.html" target="_top" xlink:title=" ">
<polygon fill="white" stroke="#666666" points="289.25,-132 196.75,-132 196.75,-112 289.25,-112 289.25,-132"/>
<text xml:space="preserve" text-anchor="middle" x="243" y="-118.5" font-family="Helvetica,sans-Serif" font-size="10.00">src/RegleJeu.cpp</text>
</a>
</g>
</g>
<!-- Node1&#45;&gt;Node19 -->
<g id="edge28_Node000001_Node000019" class="edge">
<title>Node1&#45;&gt;Node19</title>
<g id="a_edge28_Node000001_Node000019"><a xlink:title=" ">
<path fill="none" stroke="#63b8ff" d="M423.96,-272.99C412.88,-264.48 399.12,-253.79 387,-244 336.44,-203.17 277.47,-152.7 253.72,-132.25"/>
<polygon fill="#63b8ff" stroke="#63b8ff" points="421.63,-275.61 431.69,-278.91 425.88,-270.05 421.63,-275.61"/>
</a>
</g>
</g>
<!-- Node21 -->
<g id="Node000021" class="node">
<title>Node21</title>
<g id="a_Node000021"><a xlink:href="EtatCellule_8cpp.html" target="_top" xlink:title=" ">
<polygon fill="white" stroke="#666666" points="1016.62,-244 917.38,-244 917.38,-224 1016.62,-224 1016.62,-244"/>
<text xml:space="preserve" text-anchor="middle" x="967" y="-230.5" font-family="Helvetica,sans-Serif" font-size="10.00">src/EtatCellule.cpp</text>
</a>
</g>
</g>
<!-- Node1&#45;&gt;Node21 -->
<g id="edge26_Node000001_Node000021" class="edge">
<title>Node1&#45;&gt;Node21</title>
<g id="a_edge26_Node000001_Node000021"><a xlink:title=" ">
<path fill="none" stroke="#63b8ff" d="M515.06,-283.03C604.99,-275.16 765.82,-260.38 903,-244 907.57,-243.45 912.31,-242.85 917.06,-242.23"/>
<polygon fill="#63b8ff" stroke="#63b8ff" points="514.81,-279.54 505.15,-283.9 515.42,-286.51 514.81,-279.54"/>
</a>
</g>
</g>
<!-- Node3 -->
<g id="Node000003" class="node">
<title>Node3</title>
<g id="a_Node000003"><a xlink:href="Grille_8hpp.html" target="_top" xlink:title=" ">
<polygon fill="white" stroke="#666666" points="490.5,-188 399.5,-188 399.5,-168 490.5,-168 490.5,-188"/>
<text xml:space="preserve" text-anchor="middle" x="445" y="-174.5" font-family="Helvetica,sans-Serif" font-size="10.00">include/Grille.hpp</text>
</a>
</g>
</g>
<!-- Node2&#45;&gt;Node3 -->
<g id="edge2_Node000002_Node000003" class="edge">
<title>Node2&#45;&gt;Node3</title>
<g id="a_edge2_Node000002_Node000003"><a xlink:title=" ">
<path fill="none" stroke="#63b8ff" d="M445,-212.13C445,-203.9 445,-194.85 445,-188.3"/>
<polygon fill="#63b8ff" stroke="#63b8ff" points="441.5,-212.08 445,-222.08 448.5,-212.08 441.5,-212.08"/>
</a>
</g>
</g>
<!-- Node2&#45;&gt;Node19 -->
<g id="edge25_Node000002_Node000019" class="edge">
<title>Node2&#45;&gt;Node19</title>
<g id="a_edge25_Node000002_Node000019"><a xlink:title=" ">
<path fill="none" stroke="#63b8ff" d="M420.07,-217.72C397.76,-204.21 364.04,-184.19 334,-168 309.95,-155.03 281.67,-141.27 263.09,-132.43"/>
<polygon fill="#63b8ff" stroke="#63b8ff" points="418.1,-220.62 428.46,-222.82 421.73,-214.64 418.1,-220.62"/>
</a>
</g>
</g>
<!-- Node20 -->
<g id="Node000020" class="node">
<title>Node20</title>
<g id="a_Node000020"><a xlink:href="Cellule_8cpp.html" target="_top" xlink:title=" ">
<polygon fill="white" stroke="#666666" points="589.62,-188 508.38,-188 508.38,-168 589.62,-168 589.62,-188"/>
<text xml:space="preserve" text-anchor="middle" x="549" y="-174.5" font-family="Helvetica,sans-Serif" font-size="10.00">src/Cellule.cpp</text>
</a>
</g>
</g>
<!-- Node2&#45;&gt;Node20 -->
<g id="edge24_Node000002_Node000020" class="edge">
<title>Node2&#45;&gt;Node20</title>
<g id="a_edge24_Node000002_Node000020"><a xlink:title=" ">
<path fill="none" stroke="#63b8ff" d="M473.22,-218.35C491.52,-208.84 514.84,-196.74 530.74,-188.48"/>
<polygon fill="#63b8ff" stroke="#63b8ff" points="471.72,-215.18 464.46,-222.9 474.95,-221.39 471.72,-215.18"/>
</a>
</g>
</g>
<!-- Node4 -->
<g id="Node000004" class="node">
<title>Node4</title>
<g id="a_Node000004"><a xlink:href="GestionnaireFichier_8hpp.html" target="_top" xlink:title=" ">
<polygon fill="white" stroke="#666666" points="769.25,-132 616.75,-132 616.75,-112 769.25,-112 769.25,-132"/>
<text xml:space="preserve" text-anchor="middle" x="693" y="-118.5" font-family="Helvetica,sans-Serif" font-size="10.00">include/GestionnaireFichier.hpp</text>
</a>
</g>
</g>
<!-- Node3&#45;&gt;Node4 -->
<g id="edge3_Node000003_Node000004" class="edge">
<title>Node3&#45;&gt;Node4</title>
<g id="a_edge3_Node000003_Node000004"><a xlink:title=" ">
<path fill="none" stroke="#63b8ff" d="M499.53,-165.13C544.64,-155.31 607.84,-141.54 649.57,-132.46"/>
<polygon fill="#63b8ff" stroke="#63b8ff" points="498.99,-161.66 489.96,-167.21 500.48,-168.5 498.99,-161.66"/>
</a>
</g>
</g>
<!-- Node8 -->
<g id="Node000008" class="node">
<title>Node8</title>
<g id="a_Node000008"><a xlink:href="JeuDeLaVie_8hpp.html" target="_top" xlink:title=" ">
<polygon fill="white" stroke="#666666" points="578.88,-132 457.12,-132 457.12,-112 578.88,-112 578.88,-132"/>
<text xml:space="preserve" text-anchor="middle" x="518" y="-118.5" font-family="Helvetica,sans-Serif" font-size="10.00">include/JeuDeLaVie.hpp</text>
</a>
</g>
</g>
<!-- Node3&#45;&gt;Node8 -->
<g id="edge7_Node000003_Node000008" class="edge">
<title>Node3&#45;&gt;Node8</title>
<g id="a_edge7_Node000003_Node000008"><a xlink:title=" ">
<path fill="none" stroke="#63b8ff" d="M466.69,-160.95C479.32,-151.61 494.8,-140.16 505.43,-132.3"/>
<polygon fill="#63b8ff" stroke="#63b8ff" points="464.89,-157.93 458.93,-166.69 469.05,-163.56 464.89,-157.93"/>
</a>
</g>
</g>
<!-- Node16 -->
<g id="Node000016" class="node">
<title>Node16</title>
<g id="a_Node000016"><a xlink:href="TestsUnitaires_8hpp.html" target="_top" xlink:title=" ">
<polygon fill="white" stroke="#666666" points="438.75,-132 307.25,-132 307.25,-112 438.75,-112 438.75,-132"/>
<text xml:space="preserve" text-anchor="middle" x="373" y="-118.5" font-family="Helvetica,sans-Serif" font-size="10.00">include/TestsUnitaires.hpp</text>
</a>
</g>
</g>
<!-- Node3&#45;&gt;Node16 -->
<g id="edge19_Node000003_Node000016" class="edge">
<title>Node3&#45;&gt;Node16</title>
<g id="a_edge19_Node000003_Node000016"><a xlink:title=" ">
<path fill="none" stroke="#63b8ff" d="M423.61,-160.95C411.15,-151.61 395.89,-140.16 385.4,-132.3"/>
<polygon fill="#63b8ff" stroke="#63b8ff" points="421.15,-163.49 431.25,-166.69 425.35,-157.89 421.15,-163.49"/>
</a>
</g>
</g>
<!-- Node18 -->
<g id="Node000018" class="node">
<title>Node18</title>
<g id="a_Node000018"><a xlink:href="Grille_8cpp.html" target="_top" xlink:title=" ">
<polygon fill="white" stroke="#666666" points="860.88,-132 787.12,-132 787.12,-112 860.88,-112 860.88,-132"/>
<text xml:space="preserve" text-anchor="middle" x="824" y="-118.5" font-family="Helvetica,sans-Serif" font-size="10.00">src/Grille.cpp</text>
</a>
</g>
</g>
<!-- Node3&#45;&gt;Node18 -->
<g id="edge22_Node000003_Node000018" class="edge">
<title>Node3&#45;&gt;Node18</title>
<g id="a_edge22_Node000003_Node000018"><a xlink:title=" ">
<path fill="none" stroke="#63b8ff" d="M502.27,-167.57C624.63,-149.83 658.2,-151.43 778,-132 780.89,-131.53 783.88,-131.02 786.88,-130.48"/>
<polygon fill="#63b8ff" stroke="#63b8ff" points="501.82,-164.09 492.44,-169.01 502.84,-171.02 501.82,-164.09"/>
</a>
</g>
</g>
<!-- Node3&#45;&gt;Node19 -->
<g id="edge23_Node000003_Node000019" class="edge">
<title>Node3&#45;&gt;Node19</title>
<g id="a_edge23_Node000003_Node000019"><a xlink:title=" ">
<path fill="none" stroke="#63b8ff" d="M398.94,-164.69C362.35,-154.91 311.95,-141.43 278.46,-132.48"/>
<polygon fill="#63b8ff" stroke="#63b8ff" points="397.79,-168 408.35,-167.2 399.6,-161.24 397.79,-168"/>
</a>
</g>
</g>
<!-- Node4&#45;&gt;Node5 -->
<g id="edge4_Node000004_Node000005" class="edge">
<title>Node4&#45;&gt;Node5</title>
<g id="a_edge4_Node000004_Node000005"><a xlink:title=" ">
<path fill="none" stroke="#63b8ff" d="M755.1,-109.44C807.94,-99.6 882.9,-85.64 932.21,-76.46"/>
<polygon fill="#63b8ff" stroke="#63b8ff" points="754.52,-105.98 745.33,-111.26 755.81,-112.87 754.52,-105.98"/>
</a>
</g>
</g>
<!-- Node6 -->
<g id="Node000006" class="node">
<title>Node6</title>
<g id="a_Node000006"><a xlink:href="ModeConsole_8cpp.html" target="_top" xlink:title=" ">
<polygon fill="white" stroke="#666666" points="679.62,-20 568.38,-20 568.38,0 679.62,0 679.62,-20"/>
<text xml:space="preserve" text-anchor="middle" x="624" y="-6.5" font-family="Helvetica,sans-Serif" font-size="10.00">src/ModeConsole.cpp</text>
</a>
</g>
</g>
<!-- Node4&#45;&gt;Node6 -->
<g id="edge5_Node000004_Node000006" class="edge">
<title>Node4&#45;&gt;Node6</title>
<g id="a_edge5_Node000004_Node000006"><a xlink:title=" ">
<path fill="none" stroke="#63b8ff" d="M775.92,-109.55C815.23,-102.25 856.17,-91.26 868,-76 873.45,-68.98 873.69,-62.83 868,-56 856.05,-41.64 748.22,-26.08 679.96,-17.53"/>
<polygon fill="#63b8ff" stroke="#63b8ff" points="775.36,-106.1 766.12,-111.29 776.58,-112.99 775.36,-106.1"/>
</a>
</g>
</g>
<!-- Node7 -->
<g id="Node000007" class="node">
<title>Node7</title>
<g id="a_Node000007"><a xlink:href="main_8cpp.html" target="_top" xlink:title=" ">
<polygon fill="white" stroke="#666666" points="497.12,-20 424.88,-20 424.88,0 497.12,0 497.12,-20"/>
<text xml:space="preserve" text-anchor="middle" x="461" y="-6.5" font-family="Helvetica,sans-Serif" font-size="10.00">src/main.cpp</text>
</a>
</g>
</g>
<!-- Node4&#45;&gt;Node7 -->
<g id="edge6_Node000004_Node000007" class="edge">
<title>Node4&#45;&gt;Node7</title>
<g id="a_edge6_Node000004_Node000007"><a xlink:title=" ">
<path fill="none" stroke="#63b8ff" d="M699.57,-100.79C702.8,-86.68 704.11,-68.25 694,-56 681.58,-40.95 559.87,-23.52 497.48,-15.48"/>
<polygon fill="#63b8ff" stroke="#63b8ff" points="696.22,-99.79 696.89,-110.36 702.96,-101.68 696.22,-99.79"/>
</a>
</g>
</g>
<!-- Node8&#45;&gt;Node7 -->
<g id="edge18_Node000008_Node000007" class="edge">
<title>Node8&#45;&gt;Node7</title>
<g id="a_edge18_Node000008_Node000007"><a xlink:title=" ">
<path fill="none" stroke="#63b8ff" d="M465.53,-107.5C449.77,-100.73 434.22,-90.71 425,-76 412.94,-56.76 434.48,-33.26 449.12,-20.44"/>
<polygon fill="#63b8ff" stroke="#63b8ff" points="463.86,-110.61 474.45,-110.95 466.39,-104.08 463.86,-110.61"/>
</a>
</g>
</g>
<!-- Node9 -->
<g id="Node000009" class="node">
<title>Node9</title>
<g id="a_Node000009"><a xlink:href="InterfaceQt_8hpp.html" target="_top" xlink:title=" ">
<polygon fill="white" stroke="#666666" points="858.62,-76 741.38,-76 741.38,-56 858.62,-56 858.62,-76"/>
<text xml:space="preserve" text-anchor="middle" x="800" y="-62.5" font-family="Helvetica,sans-Serif" font-size="10.00">include/InterfaceQt.hpp</text>
</a>
</g>
</g>
<!-- Node8&#45;&gt;Node9 -->
<g id="edge8_Node000008_Node000009" class="edge">
<title>Node8&#45;&gt;Node9</title>
<g id="a_edge8_Node000008_Node000009"><a xlink:title=" ">
<path fill="none" stroke="#63b8ff" d="M578.71,-109.37C630.07,-99.54 702.76,-85.62 750.61,-76.46"/>
<polygon fill="#63b8ff" stroke="#63b8ff" points="578.09,-105.93 568.93,-111.25 579.41,-112.8 578.09,-105.93"/>
</a>
</g>
</g>
<!-- Node11 -->
<g id="Node000011" class="node">
<title>Node11</title>
<g id="a_Node000011"><a xlink:href="InterfaceSFML_8hpp.html" target="_top" xlink:title=" ">
<polygon fill="white" stroke="#666666" points="377.5,-76 244.5,-76 244.5,-56 377.5,-56 377.5,-76"/>
<text xml:space="preserve" text-anchor="middle" x="311" y="-62.5" font-family="Helvetica,sans-Serif" font-size="10.00">include/InterfaceSFML.hpp</text>
</a>
</g>
</g>
<!-- Node8&#45;&gt;Node11 -->
<g id="edge10_Node000008_Node000011" class="edge">
<title>Node8&#45;&gt;Node11</title>
<g id="a_edge10_Node000008_Node000011"><a xlink:title=" ">
<path fill="none" stroke="#63b8ff" d="M471.28,-108.81C433.75,-99.02 381.8,-85.47 347.34,-76.48"/>
<polygon fill="#63b8ff" stroke="#63b8ff" points="469.92,-112.07 480.48,-111.21 471.69,-105.3 469.92,-112.07"/>
</a>
</g>
</g>
<!-- Node13 -->
<g id="Node000013" class="node">
<title>Node13</title>
<g id="a_Node000013"><a xlink:href="ModeConsole_8hpp.html" target="_top" xlink:title=" ">
<polygon fill="white" stroke="#666666" points="562.25,-76 433.75,-76 433.75,-56 562.25,-56 562.25,-76"/>
<text xml:space="preserve" text-anchor="middle" x="498" y="-62.5" font-family="Helvetica,sans-Serif" font-size="10.00">include/ModeConsole.hpp</text>
</a>
</g>
</g>
<!-- Node8&#45;&gt;Node13 -->
<g id="edge13_Node000008_Node000013" class="edge">
<title>Node8&#45;&gt;Node13</title>
<g id="a_edge13_Node000008_Node000013"><a xlink:title=" ">
<path fill="none" stroke="#63b8ff" d="M510.59,-101C507.46,-92.54 503.96,-83.08 501.44,-76.3"/>
<polygon fill="#63b8ff" stroke="#63b8ff" points="507.24,-102.01 513.99,-110.17 513.8,-99.58 507.24,-102.01"/>
</a>
</g>
</g>
<!-- Node14 -->
<g id="Node000014" class="node">
<title>Node14</title>
<g id="a_Node000014"><a xlink:href="JeuDeLaVie_8cpp.html" target="_top" xlink:title=" ">
<polygon fill="white" stroke="#666666" points="685.25,-76 580.75,-76 580.75,-56 685.25,-56 685.25,-76"/>
<text xml:space="preserve" text-anchor="middle" x="633" y="-62.5" font-family="Helvetica,sans-Serif" font-size="10.00">src/JeuDeLaVie.cpp</text>
</a>
</g>
</g>
<!-- Node8&#45;&gt;Node14 -->
<g id="edge16_Node000008_Node000014" class="edge">
<title>Node8&#45;&gt;Node14</title>
<g id="a_edge16_Node000008_Node000014"><a xlink:title=" ">
<path fill="none" stroke="#63b8ff" d="M548.36,-106.75C568.72,-97.18 594.98,-84.85 612.81,-76.48"/>
<polygon fill="#63b8ff" stroke="#63b8ff" points="546.97,-103.53 539.4,-110.95 549.94,-109.87 546.97,-103.53"/>
</a>
</g>
</g>
<!-- Node8&#45;&gt;Node15 -->
<g id="edge17_Node000008_Node000015" class="edge">
<title>Node8&#45;&gt;Node15</title>
<g id="a_edge17_Node000008_Node000015"><a xlink:title=" ">
<path fill="none" stroke="#63b8ff" d="M445.83,-109.83C380.77,-99.77 286.38,-85.16 226.35,-75.87"/>
<polygon fill="#63b8ff" stroke="#63b8ff" points="444.9,-113.23 455.31,-111.3 445.97,-106.31 444.9,-113.23"/>
</a>
</g>
</g>
<!-- Node10 -->
<g id="Node000010" class="node">
<title>Node10</title>
<g id="a_Node000010"><a xlink:href="InterfaceQt_8cpp.html" target="_top" xlink:title=" ">
<polygon fill="white" stroke="#666666" points="850,-20 750,-20 750,0 850,0 850,-20"/>
<text xml:space="preserve" text-anchor="middle" x="800" y="-6.5" font-family="Helvetica,sans-Serif" font-size="10.00">src/InterfaceQt.cpp</text>
</a>
</g>
</g>
<!-- Node9&#45;&gt;Node10 -->
<g id="edge9_Node000009_Node000010" class="edge">
<title>Node9&#45;&gt;Node10</title>
<g id="a_edge9_Node000009_Node000010"><a xlink:title=" ">
<path fill="none" stroke="#63b8ff" d="M800,-44.13C800,-35.9 800,-26.85 800,-20.3"/>
<polygon fill="#63b8ff" stroke="#63b8ff" points="796.5,-44.08 800,-54.08 803.5,-44.08 796.5,-44.08"/>
</a>
</g>
</g>
<!-- Node11&#45;&gt;Node7 -->
<g id="edge12_Node000011_Node000007" class="edge">
<title>Node11&#45;&gt;Node7</title>
<g id="a_edge12_Node000011_Node000007"><a xlink:title=" ">
<path fill="none" stroke="#63b8ff" d="M347.69,-51.79C374.62,-42.1 410.55,-29.16 434.67,-20.48"/>
<polygon fill="#63b8ff" stroke="#63b8ff" points="346.78,-48.4 338.55,-55.08 349.15,-54.99 346.78,-48.4"/>
</a>
</g>
</g>
<!-- Node12 -->
<g id="Node000012" class="node">
<title>Node12</title>
<g id="a_Node000012"><a xlink:href="InterfaceSFML_8cpp.html" target="_top" xlink:title=" ">
<polygon fill="white" stroke="#666666" points="368.88,-20 253.12,-20 253.12,0 368.88,0 368.88,-20"/>
<text xml:space="preserve" text-anchor="middle" x="311" y="-6.5" font-family="Helvetica,sans-Serif" font-size="10.00">src/InterfaceSFML.cpp</text>
</a>
</g>
</g>
<!-- Node11&#45;&gt;Node12 -->
<g id="edge11_Node000011_Node000012" class="edge">
<title>Node11&#45;&gt;Node12</title>
<g id="a_edge11_Node000011_Node000012"><a xlink:title=" ">
<path fill="none" stroke="#63b8ff" d="M311,-44.13C311,-35.9 311,-26.85 311,-20.3"/>
<polygon fill="#63b8ff" stroke="#63b8ff" points="307.5,-44.08 311,-54.08 314.5,-44.08 307.5,-44.08"/>
</a>
</g>
</g>
<!-- Node13&#45;&gt;Node6 -->
<g id="edge14_Node000013_Node000006" class="edge">
<title>Node13&#45;&gt;Node6</title>
<g id="a_edge14_Node000013_Node000006"><a xlink:title=" ">
<path fill="none" stroke="#63b8ff" d="M530.34,-51.14C552.78,-41.52 582.07,-28.97 601.88,-20.48"/>
<polygon fill="#63b8ff" stroke="#63b8ff" points="529.15,-47.84 521.34,-55 531.91,-54.28 529.15,-47.84"/>
</a>
</g>
</g>
<!-- Node13&#45;&gt;Node7 -->
<g id="edge15_Node000013_Node000007" class="edge">
<title>Node13&#45;&gt;Node7</title>
<g id="a_edge15_Node000013_Node000007"><a xlink:title=" ">
<path fill="none" stroke="#63b8ff" d="M485.09,-46.15C479.09,-37.4 472.23,-27.39 467.37,-20.3"/>
<polygon fill="#63b8ff" stroke="#63b8ff" points="482.16,-48.07 490.7,-54.35 487.93,-44.12 482.16,-48.07"/>
</a>
</g>
</g>
<!-- Node16&#45;&gt;Node15 -->
<g id="edge20_Node000016_Node000015" class="edge">
<title>Node16&#45;&gt;Node15</title>
<g id="a_edge20_Node000016_Node000015"><a xlink:title=" ">
<path fill="none" stroke="#63b8ff" d="M326.48,-108.69C289.54,-98.91 238.63,-85.43 204.81,-76.48"/>
<polygon fill="#63b8ff" stroke="#63b8ff" points="325.44,-112.03 336,-111.21 327.23,-105.26 325.44,-112.03"/>
</a>
</g>
</g>
<!-- Node17 -->
<g id="Node000017" class="node">
<title>Node17</title>
<g id="a_Node000017"><a xlink:href="test__main_8cpp.html" target="_top" xlink:title=" ">
<polygon fill="white" stroke="#666666" points="94,-76 0,-76 0,-56 94,-56 94,-76"/>
<text xml:space="preserve" text-anchor="middle" x="47" y="-62.5" font-family="Helvetica,sans-Serif" font-size="10.00">src/test_main.cpp</text>
</a>
</g>
</g>
<!-- Node16&#45;&gt;Node17 -->
<g id="edge21_Node000016_Node000017" class="edge">
<title>Node16&#45;&gt;Node17</title>
<g id="a_edge21_Node000016_Node000017"><a xlink:title=" ">
<path fill="none" stroke="#63b8ff" d="M304.81,-109.7C241.74,-99.26 149.65,-84 94.29,-74.83"/>
<polygon fill="#63b8ff" stroke="#63b8ff" points="303.91,-113.1 314.35,-111.28 305.06,-106.2 303.91,-113.1"/>
</a>
</g>
</g>
</g>
</svg>

<g id="navigator" transform="translate(0 0)" fill="#404254">
  <rect fill="#f2f5e9" fill-opacity="0.5" stroke="#606060" stroke-width=".5" x="0" y="0" width="60" height="60"/>
  <use id="zoomplus" xlink:href="#zoomPlus" x="17" y="9" onmousedown="handleZoom(evt,'in')"/>
  <use id="zoomminus" xlink:href="#zoomMin" x="42" y="9" onmousedown="handleZoom(evt,'out')"/>
  <use id="reset" xlink:href="#resetDef" x="30" y="36" onmousedown="handleReset()"/>
   <use id="arrowup" xlink:href="#arrowUp" x="0" y="0" onmousedown="handlePan(0,-1)"/>
  <use id="arrowright" xlink:href="#arrowRight" x="0" y="0" onmousedown="handlePan(1,0)"/>
  <use id="arrowdown" xlink:href="#arrowDown" x="0" y="0" onmousedown="handlePan(0,1)"/>
  <use id="arrowleft" xlink:href="#arrowLeft" x="0" y="0" onmousedown="handlePan(-1,0)"/>
</g>
<svg viewBox="0 0 15 15" width="100%" height="30px" preserveAspectRatio="xMaxYMin meet">
 <g id="arrow_out" transform="scale(0.3 0.3)">
  <a xlink:href="EtatCellule_8hpp__dep__incl_org.svg" target="_base">
   <rect id="button" ry="5" rx="5" y="6" x="6" height="38" width="38"
        fill="#f2f5e9" fill-opacity="0.5" stroke="#606060" stroke-width="1.0"/>
   <path id="arrow"
     d="M 11.500037,31.436501 C 11.940474,20.09759 22.043105,11.32322 32.158766,21.979434 L 37.068811,17.246167 C 37.068811,17.246167 37.088388,32 37.088388,32 L 22.160133,31.978069 C 22.160133,31.978069 26.997745,27.140456 26.997745,27.140456 C 18.528582,18.264221 13.291696,25.230495 11.500037,31.436501 z"
     style="fill:#404040;"/>
  </a>
 </g>
</svg>

<style type='text/css'>
<![CDATA[
[data-mouse-over-selected='false'] { opacity: 0.7; }
[data-mouse-over-selected='true']  { opacity: 1.0; }
]]>
</style>
<script type="application/ecmascript"><![CDATA[
document.addEventListener('DOMContentLoaded', (event) => {
  highlightEdges();
  highlightAdjacentNodes();
});
]]></script>
</svg>
