<?xml version="1.0" encoding="UTF-8" standalone="no"?>
<!DOCTYPE svg PUBLIC "-//W3C//DTD SVG 1.1//EN"
 "http://www.w3.org/Graphics/SVG/1.1/DTD/svg11.dtd">
<!-- Generated by graphviz version 14.0.2 (20251019.1705)
 -->
<!-- Title: include/GestionnaireFichier.hpp Pages: 1 -->
<svg width="428pt" height="252pt"
 viewBox="0.00 0.00 428.00 252.00" xmlns="http://www.w3.org/2000/svg" xmlns:xlink="http://www.w3.org/1999/xlink">

<svg id="main" version="1.1" xmlns="http://www.w3.org/2000/svg" xmlns:xlink="http://www.w3.org/1999/xlink" xml:space="preserve">

<style type="text/css"><![CDATA[
.node, .edge {opacity: 0.7;}
.node.selected, .edge.selected {opacity: 1;}
.edge:hover path { stroke: red; }
.edge:hover polygon { stroke: red; fill: red; }
]]></style>
<script type="application/ecmascript" xlink:href="svg.min.js"/>
<svg id="graph" class="graph">
<g id="graph0" class="graph" transform="scale(1 1) rotate(0) translate(4 248)">
<title>include/GestionnaireFichier.hpp</title>
<!-- Node1 -->
<g id="Node000001" class="node">
<title>Node1</title>
<g id="a_Node000001"><a xlink:title=" ">
<polygon fill="#999999" stroke="#666666" points="264.73,-244 112.23,-244 112.23,-224 264.73,-224 264.73,-244"/>
<text xml:space="preserve" text-anchor="middle" x="188.48" y="-230.5" font-family="Helvetica,sans-Serif" font-size="10.00">include/GestionnaireFichier.hpp</text>
</a>
</g>
</g>
<!-- Node2 -->
<g id="Node000002" class="node">
<title>Node2</title>
<g id="a_Node000002"><a xlink:href="Grille_8hpp.html" target="_top" xlink:title=" ">
<polygon fill="white" stroke="#666666" points="217.1,-188 159.85,-188 159.85,-168 217.1,-168 217.1,-188"/>
<text xml:space="preserve" text-anchor="middle" x="188.48" y="-174.5" font-family="Helvetica,sans-Serif" font-size="10.00">Grille.hpp</text>
</a>
</g>
</g>
<!-- Node1&#45;&gt;Node2 -->
<g id="edge1_Node000001_Node000002" class="edge">
<title>Node1&#45;&gt;Node2</title>
<g id="a_edge1_Node000001_Node000002"><a xlink:title=" ">
<path fill="none" stroke="#63b8ff" d="M188.48,-223.59C188.48,-217.01 188.48,-207.96 188.48,-199.73"/>
<polygon fill="#63b8ff" stroke="#63b8ff" points="191.98,-199.81 188.48,-189.81 184.98,-199.81 191.98,-199.81"/>
</a>
</g>
</g>
<!-- Node5 -->
<g id="Node000005" class="node">
<title>Node5</title>
<g id="a_Node000005"><a xlink:title=" ">
<polygon fill="#e0e0e0" stroke="#999999" points="285.1,-20 233.85,-20 233.85,0 285.1,0 285.1,-20"/>
<text xml:space="preserve" text-anchor="middle" x="259.48" y="-6.5" font-family="Helvetica,sans-Serif" font-size="10.00">memory</text>
</a>
</g>
</g>
<!-- Node1&#45;&gt;Node5 -->
<g id="edge14_Node000001_Node000005" class="edge">
<title>Node1&#45;&gt;Node5</title>
<g id="a_edge14_Node000001_Node000005"><a xlink:title=" ">
<path fill="none" stroke="#63b8ff" d="M139.67,-223.5C76.91,-208.6 -21.17,-174.73 4.48,-112 38.34,-29.19 159.86,-13.53 222.13,-11.06"/>
<polygon fill="#63b8ff" stroke="#63b8ff" points="221.98,-14.56 231.87,-10.77 221.78,-7.57 221.98,-14.56"/>
</a>
</g>
</g>
<!-- Node6 -->
<g id="Node000006" class="node">
<title>Node6</title>
<g id="a_Node000006"><a xlink:title=" ">
<polygon fill="#e0e0e0" stroke="#999999" points="420.48,-20 380.48,-20 380.48,0 420.48,0 420.48,-20"/>
<text xml:space="preserve" text-anchor="middle" x="400.48" y="-6.5" font-family="Helvetica,sans-Serif" font-size="10.00">string</text>
</a>
</g>
</g>
<!-- Node1&#45;&gt;Node6 -->
<g id="edge13_Node000001_Node000006" class="edge">
<title>Node1&#45;&gt;Node6</title>
<g id="a_edge13_Node000001_Node000006"><a xlink:title=" ">
<path fill="none" stroke="#63b8ff" d="M220.01,-223.61C274.01,-205.5 381.72,-159.92 416.48,-76 422.66,-61.07 417.41,-43.18 411.32,-29.95"/>
<polygon fill="#63b8ff" stroke="#63b8ff" points="414.62,-28.73 406.93,-21.45 408.4,-31.94 414.62,-28.73"/>
</a>
</g>
</g>
<!-- Node3 -->
<g id="Node000003" class="node">
<title>Node3</title>
<g id="a_Node000003"><a xlink:href="Cellule_8hpp.html" target="_top" xlink:title=" ">
<polygon fill="white" stroke="#666666" points="351.85,-132 287.1,-132 287.1,-112 351.85,-112 351.85,-132"/>
<text xml:space="preserve" text-anchor="middle" x="319.48" y="-118.5" font-family="Helvetica,sans-Serif" font-size="10.00">Cellule.hpp</text>
</a>
</g>
</g>
<!-- Node2&#45;&gt;Node3 -->
<g id="edge2_Node000002_Node000003" class="edge">
<title>Node2&#45;&gt;Node3</title>
<g id="a_edge2_Node000002_Node000003"><a xlink:title=" ">
<path fill="none" stroke="#63b8ff" d="M211.3,-167.59C231.93,-159.09 262.56,-146.46 285.97,-136.81"/>
<polygon fill="#63b8ff" stroke="#63b8ff" points="287.17,-140.1 295.08,-133.06 284.5,-133.63 287.17,-140.1"/>
</a>
</g>
</g>
<!-- Node2&#45;&gt;Node5 -->
<g id="edge12_Node000002_Node000005" class="edge">
<title>Node2&#45;&gt;Node5</title>
<g id="a_edge12_Node000002_Node000005"><a xlink:title=" ">
<path fill="none" stroke="#63b8ff" d="M204.01,-167.57C215.71,-159.6 231.13,-147.08 239.48,-132 257.05,-100.28 260.09,-57.21 260.16,-31.93"/>
<polygon fill="#63b8ff" stroke="#63b8ff" points="263.66,-31.95 260.01,-22 256.66,-32.05 263.66,-31.95"/>
</a>
</g>
</g>
<!-- Node7 -->
<g id="Node000007" class="node">
<title>Node7</title>
<g id="a_Node000007"><a xlink:href="RegleJeu_8hpp.html" target="_top" xlink:title=" ">
<polygon fill="white" stroke="#666666" points="89.48,-132 13.48,-132 13.48,-112 89.48,-112 89.48,-132"/>
<text xml:space="preserve" text-anchor="middle" x="51.48" y="-118.5" font-family="Helvetica,sans-Serif" font-size="10.00">RegleJeu.hpp</text>
</a>
</g>
</g>
<!-- Node2&#45;&gt;Node7 -->
<g id="edge7_Node000002_Node000007" class="edge">
<title>Node2&#45;&gt;Node7</title>
<g id="a_edge7_Node000002_Node000007"><a xlink:title=" ">
<path fill="none" stroke="#63b8ff" d="M164.62,-167.59C142.94,-159.05 110.71,-146.35 86.19,-136.68"/>
<polygon fill="#63b8ff" stroke="#63b8ff" points="87.52,-133.45 76.94,-133.03 84.96,-139.96 87.52,-133.45"/>
</a>
</g>
</g>
<!-- Node8 -->
<g id="Node000008" class="node">
<title>Node8</title>
<g id="a_Node000008"><a xlink:title=" ">
<polygon fill="#e0e0e0" stroke="#999999" points="130.98,-76 87.98,-76 87.98,-56 130.98,-56 130.98,-76"/>
<text xml:space="preserve" text-anchor="middle" x="109.48" y="-62.5" font-family="Helvetica,sans-Serif" font-size="10.00">vector</text>
</a>
</g>
</g>
<!-- Node2&#45;&gt;Node8 -->
<g id="edge11_Node000002_Node000008" class="edge">
<title>Node2&#45;&gt;Node8</title>
<g id="a_edge11_Node000002_Node000008"><a xlink:title=" ">
<path fill="none" stroke="#63b8ff" d="M174.51,-167.71C163.02,-159.47 146.97,-146.52 136.48,-132 126.62,-118.35 119.55,-100.56 115.13,-87.04"/>
<polygon fill="#63b8ff" stroke="#63b8ff" points="118.49,-86.07 112.24,-77.52 111.79,-88.1 118.49,-86.07"/>
</a>
</g>
</g>
<!-- Node9 -->
<g id="Node000009" class="node">
<title>Node9</title>
<g id="a_Node000009"><a xlink:href="Constantes_8hpp.html" target="_top" xlink:title="Configuration centralisée du projet.">
<polygon fill="white" stroke="#666666" points="230.98,-132 145.98,-132 145.98,-112 230.98,-112 230.98,-132"/>
<text xml:space="preserve" text-anchor="middle" x="188.48" y="-118.5" font-family="Helvetica,sans-Serif" font-size="10.00">Constantes.hpp</text>
</a>
</g>
</g>
<!-- Node2&#45;&gt;Node9 -->
<g id="edge10_Node000002_Node000009" class="edge">
<title>Node2&#45;&gt;Node9</title>
<g id="a_edge10_Node000002_Node000009"><a xlink:title=" ">
<path fill="none" stroke="#63b8ff" d="M188.48,-167.59C188.48,-161.01 188.48,-151.96 188.48,-143.73"/>
<polygon fill="#63b8ff" stroke="#63b8ff" points="191.98,-143.81 188.48,-133.81 184.98,-143.81 191.98,-143.81"/>
</a>
</g>
</g>
<!-- Node4 -->
<g id="Node000004" class="node">
<title>Node4</title>
<g id="a_Node000004"><a xlink:href="EtatCellule_8hpp.html" target="_top" xlink:title=" ">
<polygon fill="white" stroke="#666666" points="407.85,-76 325.1,-76 325.1,-56 407.85,-56 407.85,-76"/>
<text xml:space="preserve" text-anchor="middle" x="366.48" y="-62.5" font-family="Helvetica,sans-Serif" font-size="10.00">EtatCellule.hpp</text>
</a>
</g>
</g>
<!-- Node3&#45;&gt;Node4 -->
<g id="edge3_Node000003_Node000004" class="edge">
<title>Node3&#45;&gt;Node4</title>
<g id="a_edge3_Node000003_Node000004"><a xlink:title=" ">
<path fill="none" stroke="#63b8ff" d="M327.67,-111.59C334.07,-104.24 343.16,-93.8 350.93,-84.87"/>
<polygon fill="#63b8ff" stroke="#63b8ff" points="353.47,-87.28 357.39,-77.44 348.19,-82.69 353.47,-87.28"/>
</a>
</g>
</g>
<!-- Node3&#45;&gt;Node5 -->
<g id="edge6_Node000003_Node000005" class="edge">
<title>Node3&#45;&gt;Node5</title>
<g id="a_edge6_Node000003_Node000005"><a xlink:title=" ">
<path fill="none" stroke="#63b8ff" d="M314.36,-111.62C304.58,-93.68 283.03,-54.17 270.03,-30.35"/>
<polygon fill="#63b8ff" stroke="#63b8ff" points="273.17,-28.79 265.31,-21.68 267.02,-32.14 273.17,-28.79"/>
</a>
</g>
</g>
<!-- Node4&#45;&gt;Node5 -->
<g id="edge4_Node000004_Node000005" class="edge">
<title>Node4&#45;&gt;Node5</title>
<g id="a_edge4_Node000004_Node000005"><a xlink:title=" ">
<path fill="none" stroke="#63b8ff" d="M347.84,-55.59C331.45,-47.32 307.32,-35.14 288.42,-25.6"/>
<polygon fill="#63b8ff" stroke="#63b8ff" points="290.12,-22.54 279.61,-21.16 286.96,-28.79 290.12,-22.54"/>
</a>
</g>
</g>
<!-- Node4&#45;&gt;Node6 -->
<g id="edge5_Node000004_Node000006" class="edge">
<title>Node4&#45;&gt;Node6</title>
<g id="a_edge5_Node000004_Node000006"><a xlink:title=" ">
<path fill="none" stroke="#63b8ff" d="M372.4,-55.59C376.84,-48.55 383.06,-38.67 388.52,-30"/>
<polygon fill="#63b8ff" stroke="#63b8ff" points="391.45,-31.91 393.82,-21.58 385.53,-28.18 391.45,-31.91"/>
</a>
</g>
</g>
<!-- Node7&#45;&gt;Node5 -->
<g id="edge9_Node000007_Node000005" class="edge">
<title>Node7&#45;&gt;Node5</title>
<g id="a_edge9_Node000007_Node000005"><a xlink:title=" ">
<path fill="none" stroke="#63b8ff" d="M52.64,-111.95C54.94,-97.83 61.43,-70.66 78.48,-56 118.83,-21.29 181.99,-12.6 222.03,-10.83"/>
<polygon fill="#63b8ff" stroke="#63b8ff" points="222.01,-14.33 231.9,-10.53 221.8,-7.33 222.01,-14.33"/>
</a>
</g>
</g>
<!-- Node7&#45;&gt;Node8 -->
<g id="edge8_Node000007_Node000008" class="edge">
<title>Node7&#45;&gt;Node8</title>
<g id="a_edge8_Node000007_Node000008"><a xlink:title=" ">
<path fill="none" stroke="#63b8ff" d="M61.58,-111.59C69.73,-104.01 81.41,-93.13 91.19,-84.02"/>
<polygon fill="#63b8ff" stroke="#63b8ff" points="93.45,-86.71 98.38,-77.33 88.68,-81.58 93.45,-86.71"/>
</a>
</g>
</g>
</g>
</svg>
</svg>

<style type='text/css'>
<![CDATA[
[data-mouse-over-selected='false'] { opacity: 0.7; }
[data-mouse-over-selected='true']  { opacity: 1.0; }
]]>
</style>
<script type="application/ecmascript"><![CDATA[
document.addEventListener('DOMContentLoaded', (event) => {
  highlightEdges();
  highlightAdjacentNodes();
});
]]></script>
</svg>
