<?xml version="1.0" encoding="UTF-8" standalone="no"?>
<!DOCTYPE svg PUBLIC "-//W3C//DTD SVG 1.1//EN"
 "http://www.w3.org/Graphics/SVG/1.1/DTD/svg11.dtd">
<!-- Generated by graphviz version 14.0.2 (20251019.1705)
 -->
<!-- Title: src/GestionnaireFichier.cpp Pages: 1 -->
<svg width="741pt" height="308pt"
 viewBox="0.00 0.00 741.00 308.00" xmlns="http://www.w3.org/2000/svg" xmlns:xlink="http://www.w3.org/1999/xlink">
<g id="graph0" class="graph" transform="scale(1 1) rotate(0) translate(4 304)">
<title>src/GestionnaireFichier.cpp</title>
<!-- Node1 -->
<g id="Node000001" class="node">
<title>Node1</title>
<g id="a_Node000001"><a xlink:title=" ">
<polygon fill="#999999" stroke="#666666" points="547.87,-300 412.62,-300 412.62,-280 547.87,-280 547.87,-300"/>
<text xml:space="preserve" text-anchor="middle" x="480.25" y="-286.5" font-family="Helvetica,sans-Serif" font-size="10.00">src/GestionnaireFichier.cpp</text>
</a>
</g>
</g>
<!-- Node2 -->
<g id="Node000002" class="node">
<title>Node2</title>
<g id="a_Node000002"><a xlink:href="GestionnaireFichier_8hpp.html" target="_top" xlink:title=" ">
<polygon fill="white" stroke="#666666" points="232.62,-244 113.87,-244 113.87,-224 232.62,-224 232.62,-244"/>
<text xml:space="preserve" text-anchor="middle" x="173.25" y="-230.5" font-family="Helvetica,sans-Serif" font-size="10.00">GestionnaireFichier.hpp</text>
</a>
</g>
</g>
<!-- Node1&#45;&gt;Node2 -->
<g id="edge1_Node000001_Node000002" class="edge">
<title>Node1&#45;&gt;Node2</title>
<g id="a_edge1_Node000001_Node000002"><a xlink:title=" ">
<path fill="none" stroke="#63b8ff" d="M426.42,-279.53C373.97,-270.31 294.17,-256.27 238.22,-246.43"/>
<polygon fill="#63b8ff" stroke="#63b8ff" points="238.96,-243 228.5,-244.72 237.74,-249.9 238.96,-243"/>
</a>
</g>
</g>
<!-- Node5 -->
<g id="Node000005" class="node">
<title>Node5</title>
<g id="a_Node000005"><a xlink:href="EtatCellule_8hpp.html" target="_top" xlink:title=" ">
<polygon fill="white" stroke="#666666" points="293.62,-76 210.87,-76 210.87,-56 293.62,-56 293.62,-76"/>
<text xml:space="preserve" text-anchor="middle" x="252.25" y="-62.5" font-family="Helvetica,sans-Serif" font-size="10.00">EtatCellule.hpp</text>
</a>
</g>
</g>
<!-- Node1&#45;&gt;Node5 -->
<g id="edge16_Node000001_Node000005" class="edge">
<title>Node1&#45;&gt;Node5</title>
<g id="a_edge16_Node000001_Node000005"><a xlink:title=" ">
<path fill="none" stroke="#63b8ff" d="M445.87,-279.62C424.77,-272.52 398.26,-261.04 379.25,-244 328.68,-198.66 345.11,-164.68 302.25,-112 293.84,-101.67 283.01,-91.62 273.58,-83.64"/>
<polygon fill="#63b8ff" stroke="#63b8ff" points="275.88,-81.01 265.92,-77.39 271.45,-86.43 275.88,-81.01"/>
</a>
</g>
</g>
<!-- Node11 -->
<g id="Node000011" class="node">
<title>Node11</title>
<g id="a_Node000011"><a xlink:title=" ">
<polygon fill="#e0e0e0" stroke="#999999" points="436.75,-244 387.75,-244 387.75,-224 436.75,-224 436.75,-244"/>
<text xml:space="preserve" text-anchor="middle" x="412.25" y="-230.5" font-family="Helvetica,sans-Serif" font-size="10.00">fstream</text>
</a>
</g>
</g>
<!-- Node1&#45;&gt;Node11 -->
<g id="edge17_Node000001_Node000011" class="edge">
<title>Node1&#45;&gt;Node11</title>
<g id="a_edge17_Node000001_Node000011"><a xlink:title=" ">
<path fill="none" stroke="#63b8ff" d="M468.4,-279.59C458.55,-271.77 444.31,-260.46 432.64,-251.19"/>
<polygon fill="#63b8ff" stroke="#63b8ff" points="435.15,-248.72 425.14,-245.24 430.8,-254.2 435.15,-248.72"/>
</a>
</g>
</g>
<!-- Node12 -->
<g id="Node000012" class="node">
<title>Node12</title>
<g id="a_Node000012"><a xlink:title=" ">
<polygon fill="#e0e0e0" stroke="#999999" points="505.87,-244 454.62,-244 454.62,-224 505.87,-224 505.87,-244"/>
<text xml:space="preserve" text-anchor="middle" x="480.25" y="-230.5" font-family="Helvetica,sans-Serif" font-size="10.00">sstream</text>
</a>
</g>
</g>
<!-- Node1&#45;&gt;Node12 -->
<g id="edge18_Node000001_Node000012" class="edge">
<title>Node1&#45;&gt;Node12</title>
<g id="a_edge18_Node000001_Node000012"><a xlink:title=" ">
<path fill="none" stroke="#63b8ff" d="M480.25,-279.59C480.25,-273.01 480.25,-263.96 480.25,-255.73"/>
<polygon fill="#63b8ff" stroke="#63b8ff" points="483.75,-255.81 480.25,-245.81 476.75,-255.81 483.75,-255.81"/>
</a>
</g>
</g>
<!-- Node13 -->
<g id="Node000013" class="node">
<title>Node13</title>
<g id="a_Node000013"><a xlink:title=" ">
<polygon fill="#e0e0e0" stroke="#999999" points="582.62,-244 523.87,-244 523.87,-224 582.62,-224 582.62,-244"/>
<text xml:space="preserve" text-anchor="middle" x="553.25" y="-230.5" font-family="Helvetica,sans-Serif" font-size="10.00">stdexcept</text>
</a>
</g>
</g>
<!-- Node1&#45;&gt;Node13 -->
<g id="edge19_Node000001_Node000013" class="edge">
<title>Node1&#45;&gt;Node13</title>
<g id="a_edge19_Node000001_Node000013"><a xlink:title=" ">
<path fill="none" stroke="#63b8ff" d="M492.96,-279.59C503.64,-271.7 519.13,-260.24 531.73,-250.92"/>
<polygon fill="#63b8ff" stroke="#63b8ff" points="533.5,-253.96 539.46,-245.2 529.34,-248.33 533.5,-253.96"/>
</a>
</g>
</g>
<!-- Node14 -->
<g id="Node000014" class="node">
<title>Node14</title>
<g id="a_Node000014"><a xlink:title=" ">
<polygon fill="#e0e0e0" stroke="#999999" points="661.75,-244 600.75,-244 600.75,-224 661.75,-224 661.75,-244"/>
<text xml:space="preserve" text-anchor="middle" x="631.25" y="-230.5" font-family="Helvetica,sans-Serif" font-size="10.00">filesystem</text>
</a>
</g>
</g>
<!-- Node1&#45;&gt;Node14 -->
<g id="edge20_Node000001_Node000014" class="edge">
<title>Node1&#45;&gt;Node14</title>
<g id="a_edge20_Node000001_Node000014"><a xlink:title=" ">
<path fill="none" stroke="#63b8ff" d="M506.55,-279.59C530.76,-270.94 566.92,-258 594.08,-248.29"/>
<polygon fill="#63b8ff" stroke="#63b8ff" points="595.08,-251.65 603.31,-244.99 592.72,-245.06 595.08,-251.65"/>
</a>
</g>
</g>
<!-- Node15 -->
<g id="Node000015" class="node">
<title>Node15</title>
<g id="a_Node000015"><a xlink:title=" ">
<polygon fill="#e0e0e0" stroke="#999999" points="733,-244 679.5,-244 679.5,-224 733,-224 733,-244"/>
<text xml:space="preserve" text-anchor="middle" x="706.25" y="-230.5" font-family="Helvetica,sans-Serif" font-size="10.00">iostream</text>
</a>
</g>
</g>
<!-- Node1&#45;&gt;Node15 -->
<g id="edge21_Node000001_Node000015" class="edge">
<title>Node1&#45;&gt;Node15</title>
<g id="a_edge21_Node000001_Node000015"><a xlink:title=" ">
<path fill="none" stroke="#63b8ff" d="M521.29,-279.58C557.59,-271.2 612.27,-258.43 667.98,-244.77"/>
<polygon fill="#63b8ff" stroke="#63b8ff" points="668.78,-248.18 677.66,-242.39 667.11,-241.38 668.78,-248.18"/>
</a>
</g>
</g>
<!-- Node3 -->
<g id="Node000003" class="node">
<title>Node3</title>
<g id="a_Node000003"><a xlink:href="Grille_8hpp.html" target="_top" xlink:title=" ">
<polygon fill="white" stroke="#666666" points="151.87,-188 94.62,-188 94.62,-168 151.87,-168 151.87,-188"/>
<text xml:space="preserve" text-anchor="middle" x="123.25" y="-174.5" font-family="Helvetica,sans-Serif" font-size="10.00">Grille.hpp</text>
</a>
</g>
</g>
<!-- Node2&#45;&gt;Node3 -->
<g id="edge2_Node000002_Node000003" class="edge">
<title>Node2&#45;&gt;Node3</title>
<g id="a_edge2_Node000002_Node000003"><a xlink:title=" ">
<path fill="none" stroke="#63b8ff" d="M164.54,-223.59C157.65,-216.16 147.85,-205.58 139.53,-196.58"/>
<polygon fill="#63b8ff" stroke="#63b8ff" points="142.25,-194.37 132.88,-189.41 137.11,-199.12 142.25,-194.37"/>
</a>
</g>
</g>
<!-- Node6 -->
<g id="Node000006" class="node">
<title>Node6</title>
<g id="a_Node000006"><a xlink:title=" ">
<polygon fill="#e0e0e0" stroke="#999999" points="170.87,-20 119.62,-20 119.62,0 170.87,0 170.87,-20"/>
<text xml:space="preserve" text-anchor="middle" x="145.25" y="-6.5" font-family="Helvetica,sans-Serif" font-size="10.00">memory</text>
</a>
</g>
</g>
<!-- Node2&#45;&gt;Node6 -->
<g id="edge15_Node000002_Node000006" class="edge">
<title>Node2&#45;&gt;Node6</title>
<g id="a_edge15_Node000002_Node000006"><a xlink:title=" ">
<path fill="none" stroke="#63b8ff" d="M138.31,-223.57C98.04,-210.56 34.08,-182.73 8.25,-132 1.22,-118.21 -6.44,-78.31 10.25,-56 32.75,-25.92 76.16,-15.7 107.69,-12.35"/>
<polygon fill="#63b8ff" stroke="#63b8ff" points="107.95,-15.85 117.62,-11.51 107.36,-8.87 107.95,-15.85"/>
</a>
</g>
</g>
<!-- Node7 -->
<g id="Node000007" class="node">
<title>Node7</title>
<g id="a_Node000007"><a xlink:title=" ">
<polygon fill="#e0e0e0" stroke="#999999" points="306.25,-20 266.25,-20 266.25,0 306.25,0 306.25,-20"/>
<text xml:space="preserve" text-anchor="middle" x="286.25" y="-6.5" font-family="Helvetica,sans-Serif" font-size="10.00">string</text>
</a>
</g>
</g>
<!-- Node2&#45;&gt;Node7 -->
<g id="edge14_Node000002_Node000007" class="edge">
<title>Node2&#45;&gt;Node7</title>
<g id="a_edge14_Node000002_Node000007"><a xlink:title=" ">
<path fill="none" stroke="#63b8ff" d="M195.19,-223.51C225.77,-208.91 279.95,-177.77 302.25,-132 318.27,-99.11 305.4,-55.54 295.32,-30.67"/>
<polygon fill="#63b8ff" stroke="#63b8ff" points="298.65,-29.55 291.47,-21.76 292.23,-32.32 298.65,-29.55"/>
</a>
</g>
</g>
<!-- Node4 -->
<g id="Node000004" class="node">
<title>Node4</title>
<g id="a_Node000004"><a xlink:href="Cellule_8hpp.html" target="_top" xlink:title=" ">
<polygon fill="white" stroke="#666666" points="293.62,-132 228.87,-132 228.87,-112 293.62,-112 293.62,-132"/>
<text xml:space="preserve" text-anchor="middle" x="261.25" y="-118.5" font-family="Helvetica,sans-Serif" font-size="10.00">Cellule.hpp</text>
</a>
</g>
</g>
<!-- Node3&#45;&gt;Node4 -->
<g id="edge3_Node000003_Node000004" class="edge">
<title>Node3&#45;&gt;Node4</title>
<g id="a_edge3_Node000003_Node000004"><a xlink:title=" ">
<path fill="none" stroke="#63b8ff" d="M147.28,-167.59C169.21,-159.01 201.87,-146.23 226.62,-136.55"/>
<polygon fill="#63b8ff" stroke="#63b8ff" points="227.57,-139.93 235.61,-133.03 225.02,-133.42 227.57,-139.93"/>
</a>
</g>
</g>
<!-- Node3&#45;&gt;Node6 -->
<g id="edge13_Node000003_Node000006" class="edge">
<title>Node3&#45;&gt;Node6</title>
<g id="a_edge13_Node000003_Node000006"><a xlink:title=" ">
<path fill="none" stroke="#63b8ff" d="M94.22,-173.87C68.36,-169.38 31.95,-158.46 14.25,-132 9.3,-124.61 13.46,-120.85 14.25,-112 16.48,-86.82 8.04,-75.41 24.25,-56 44.99,-31.16 80.82,-20.03 108.12,-15.04"/>
<polygon fill="#63b8ff" stroke="#63b8ff" points="108.42,-18.54 117.74,-13.5 107.31,-11.62 108.42,-18.54"/>
</a>
</g>
</g>
<!-- Node8 -->
<g id="Node000008" class="node">
<title>Node8</title>
<g id="a_Node000008"><a xlink:href="RegleJeu_8hpp.html" target="_top" xlink:title=" ">
<polygon fill="white" stroke="#666666" points="211.25,-132 135.25,-132 135.25,-112 211.25,-112 211.25,-132"/>
<text xml:space="preserve" text-anchor="middle" x="173.25" y="-118.5" font-family="Helvetica,sans-Serif" font-size="10.00">RegleJeu.hpp</text>
</a>
</g>
</g>
<!-- Node3&#45;&gt;Node8 -->
<g id="edge8_Node000003_Node000008" class="edge">
<title>Node3&#45;&gt;Node8</title>
<g id="a_edge8_Node000003_Node000008"><a xlink:title=" ">
<path fill="none" stroke="#63b8ff" d="M131.96,-167.59C138.84,-160.16 148.64,-149.58 156.97,-140.58"/>
<polygon fill="#63b8ff" stroke="#63b8ff" points="159.38,-143.12 163.61,-133.41 154.25,-138.37 159.38,-143.12"/>
</a>
</g>
</g>
<!-- Node9 -->
<g id="Node000009" class="node">
<title>Node9</title>
<g id="a_Node000009"><a xlink:title=" ">
<polygon fill="#e0e0e0" stroke="#999999" points="76.75,-76 33.75,-76 33.75,-56 76.75,-56 76.75,-76"/>
<text xml:space="preserve" text-anchor="middle" x="55.25" y="-62.5" font-family="Helvetica,sans-Serif" font-size="10.00">vector</text>
</a>
</g>
</g>
<!-- Node3&#45;&gt;Node9 -->
<g id="edge12_Node000003_Node000009" class="edge">
<title>Node3&#45;&gt;Node9</title>
<g id="a_edge12_Node000003_Node000009"><a xlink:title=" ">
<path fill="none" stroke="#63b8ff" d="M94.18,-172.77C70.33,-167.6 38.03,-156.31 22.25,-132 12.18,-116.5 24.34,-97.54 36.63,-84.1"/>
<polygon fill="#63b8ff" stroke="#63b8ff" points="38.88,-86.8 43.44,-77.24 33.91,-81.87 38.88,-86.8"/>
</a>
</g>
</g>
<!-- Node10 -->
<g id="Node000010" class="node">
<title>Node10</title>
<g id="a_Node000010"><a xlink:href="Constantes_8hpp.html" target="_top" xlink:title="Configuration centralisée du projet.">
<polygon fill="white" stroke="#666666" points="116.75,-132 31.75,-132 31.75,-112 116.75,-112 116.75,-132"/>
<text xml:space="preserve" text-anchor="middle" x="74.25" y="-118.5" font-family="Helvetica,sans-Serif" font-size="10.00">Constantes.hpp</text>
</a>
</g>
</g>
<!-- Node3&#45;&gt;Node10 -->
<g id="edge11_Node000003_Node000010" class="edge">
<title>Node3&#45;&gt;Node10</title>
<g id="a_edge11_Node000003_Node000010"><a xlink:title=" ">
<path fill="none" stroke="#63b8ff" d="M114.71,-167.59C107.97,-160.16 98.36,-149.58 90.2,-140.58"/>
<polygon fill="#63b8ff" stroke="#63b8ff" points="93.01,-138.47 83.7,-133.42 87.83,-143.18 93.01,-138.47"/>
</a>
</g>
</g>
<!-- Node4&#45;&gt;Node5 -->
<g id="edge4_Node000004_Node000005" class="edge">
<title>Node4&#45;&gt;Node5</title>
<g id="a_edge4_Node000004_Node000005"><a xlink:title=" ">
<path fill="none" stroke="#63b8ff" d="M259.68,-111.59C258.57,-104.93 257.04,-95.75 255.65,-87.44"/>
<polygon fill="#63b8ff" stroke="#63b8ff" points="259.14,-87.08 254.05,-77.79 252.24,-88.23 259.14,-87.08"/>
</a>
</g>
</g>
<!-- Node4&#45;&gt;Node6 -->
<g id="edge7_Node000004_Node000006" class="edge">
<title>Node4&#45;&gt;Node6</title>
<g id="a_edge7_Node000004_Node000006"><a xlink:title=" ">
<path fill="none" stroke="#63b8ff" d="M247.52,-111.71C235.15,-103.07 216.75,-89.54 202.25,-76 186.53,-61.33 170.56,-42.72 159.54,-29.18"/>
<polygon fill="#63b8ff" stroke="#63b8ff" points="162.39,-27.15 153.4,-21.53 156.92,-31.52 162.39,-27.15"/>
</a>
</g>
</g>
<!-- Node5&#45;&gt;Node6 -->
<g id="edge5_Node000005_Node000006" class="edge">
<title>Node5&#45;&gt;Node6</title>
<g id="a_edge5_Node000005_Node000006"><a xlink:title=" ">
<path fill="none" stroke="#63b8ff" d="M233.61,-55.59C217.22,-47.32 193.09,-35.14 174.18,-25.6"/>
<polygon fill="#63b8ff" stroke="#63b8ff" points="175.89,-22.54 165.38,-21.16 172.73,-28.79 175.89,-22.54"/>
</a>
</g>
</g>
<!-- Node5&#45;&gt;Node7 -->
<g id="edge6_Node000005_Node000007" class="edge">
<title>Node5&#45;&gt;Node7</title>
<g id="a_edge6_Node000005_Node000007"><a xlink:title=" ">
<path fill="none" stroke="#63b8ff" d="M258.17,-55.59C262.61,-48.55 268.82,-38.67 274.28,-30"/>
<polygon fill="#63b8ff" stroke="#63b8ff" points="277.22,-31.91 279.59,-21.58 271.3,-28.18 277.22,-31.91"/>
</a>
</g>
</g>
<!-- Node8&#45;&gt;Node6 -->
<g id="edge10_Node000008_Node000006" class="edge">
<title>Node8&#45;&gt;Node6</title>
<g id="a_edge10_Node000008_Node000006"><a xlink:title=" ">
<path fill="none" stroke="#63b8ff" d="M170.86,-111.62C166.35,-93.92 156.51,-55.24 150.42,-31.32"/>
<polygon fill="#63b8ff" stroke="#63b8ff" points="153.86,-30.65 148,-21.82 147.08,-32.38 153.86,-30.65"/>
</a>
</g>
</g>
<!-- Node8&#45;&gt;Node9 -->
<g id="edge9_Node000008_Node000009" class="edge">
<title>Node8&#45;&gt;Node9</title>
<g id="a_edge9_Node000008_Node000009"><a xlink:title=" ">
<path fill="none" stroke="#63b8ff" d="M152.69,-111.59C134.36,-103.21 107.26,-90.8 86.29,-81.21"/>
<polygon fill="#63b8ff" stroke="#63b8ff" points="87.89,-78.09 77.34,-77.11 84.97,-84.45 87.89,-78.09"/>
</a>
</g>
</g>
</g>
</svg>
