<?xml version="1.0" encoding="UTF-8" standalone="no"?>
<!DOCTYPE svg PUBLIC "-//W3C//DTD SVG 1.1//EN"
 "http://www.w3.org/Graphics/SVG/1.1/DTD/svg11.dtd">
<!-- Generated by graphviz version 14.0.2 (20251019.1705)
 -->
<!-- Title: include/InterfaceQt.hpp Pages: 1 -->
<svg width="1215pt" height="308pt"
 viewBox="0.00 0.00 1215.00 308.00" xmlns="http://www.w3.org/2000/svg" xmlns:xlink="http://www.w3.org/1999/xlink">
<g id="graph0" class="graph" transform="scale(1 1) rotate(0) translate(4 304)">
<title>include/InterfaceQt.hpp</title>
<!-- Node1 -->
<g id="Node000001" class="node">
<title>Node1</title>
<g id="a_Node000001"><a xlink:title=" ">
<polygon fill="#999999" stroke="#666666" points="796.07,-300 678.82,-300 678.82,-280 796.07,-280 796.07,-300"/>
<text xml:space="preserve" text-anchor="middle" x="737.45" y="-286.5" font-family="Helvetica,sans-Serif" font-size="10.00">include/InterfaceQt.hpp</text>
</a>
</g>
</g>
<!-- Node2 -->
<g id="Node000002" class="node">
<title>Node2</title>
<g id="a_Node000002"><a xlink:href="JeuDeLaVie_8hpp.html" target="_top" xlink:title=" ">
<polygon fill="white" stroke="#666666" points="334.45,-244 246.45,-244 246.45,-224 334.45,-224 334.45,-244"/>
<text xml:space="preserve" text-anchor="middle" x="290.45" y="-230.5" font-family="Helvetica,sans-Serif" font-size="10.00">JeuDeLaVie.hpp</text>
</a>
</g>
</g>
<!-- Node1&#45;&gt;Node2 -->
<g id="edge1_Node000001_Node000002" class="edge">
<title>Node1&#45;&gt;Node2</title>
<g id="a_edge1_Node000001_Node000002"><a xlink:title=" ">
<path fill="none" stroke="#63b8ff" d="M678.58,-283.29C603.71,-275.8 470.17,-261.69 345.89,-244.28"/>
<polygon fill="#63b8ff" stroke="#63b8ff" points="346.56,-240.84 336.17,-242.91 345.58,-247.77 346.56,-240.84"/>
</a>
</g>
</g>
<!-- Node11 -->
<g id="Node000011" class="node">
<title>Node11</title>
<g id="a_Node000011"><a xlink:title=" ">
<polygon fill="#e0e0e0" stroke="#999999" points="432.32,-244 352.57,-244 352.57,-224 432.32,-224 432.32,-244"/>
<text xml:space="preserve" text-anchor="middle" x="392.45" y="-230.5" font-family="Helvetica,sans-Serif" font-size="10.00">QMainWindow</text>
</a>
</g>
</g>
<!-- Node1&#45;&gt;Node11 -->
<g id="edge18_Node000001_Node000011" class="edge">
<title>Node1&#45;&gt;Node11</title>
<g id="a_edge18_Node000001_Node000011"><a xlink:title=" ">
<path fill="none" stroke="#63b8ff" d="M678.4,-280.57C621.04,-272.26 531.21,-258.91 443.98,-244.39"/>
<polygon fill="#63b8ff" stroke="#63b8ff" points="444.74,-240.96 434.3,-242.76 443.59,-247.87 444.74,-240.96"/>
</a>
</g>
</g>
<!-- Node12 -->
<g id="Node000012" class="node">
<title>Node12</title>
<g id="a_Node000012"><a xlink:title=" ">
<polygon fill="#e0e0e0" stroke="#999999" points="504.57,-244 450.32,-244 450.32,-224 504.57,-224 504.57,-244"/>
<text xml:space="preserve" text-anchor="middle" x="477.45" y="-230.5" font-family="Helvetica,sans-Serif" font-size="10.00">QWidget</text>
</a>
</g>
</g>
<!-- Node1&#45;&gt;Node12 -->
<g id="edge19_Node000001_Node000012" class="edge">
<title>Node1&#45;&gt;Node12</title>
<g id="a_edge19_Node000001_Node000012"><a xlink:title=" ">
<path fill="none" stroke="#63b8ff" d="M687.04,-279.57C644.04,-271.37 580.29,-258.85 516.08,-244.52"/>
<polygon fill="#63b8ff" stroke="#63b8ff" points="516.94,-241.12 506.41,-242.34 515.4,-247.95 516.94,-241.12"/>
</a>
</g>
</g>
<!-- Node13 -->
<g id="Node000013" class="node">
<title>Node13</title>
<g id="a_Node000013"><a xlink:title=" ">
<polygon fill="#e0e0e0" stroke="#999999" points="596.7,-244 522.2,-244 522.2,-224 596.7,-224 596.7,-244"/>
<text xml:space="preserve" text-anchor="middle" x="559.45" y="-230.5" font-family="Helvetica,sans-Serif" font-size="10.00">QPushButton</text>
</a>
</g>
</g>
<!-- Node1&#45;&gt;Node13 -->
<g id="edge20_Node000001_Node000013" class="edge">
<title>Node1&#45;&gt;Node13</title>
<g id="a_edge20_Node000001_Node000013"><a xlink:title=" ">
<path fill="none" stroke="#63b8ff" d="M706.44,-279.59C677.4,-270.78 633.75,-257.54 601.56,-247.78"/>
<polygon fill="#63b8ff" stroke="#63b8ff" points="602.73,-244.47 592.14,-244.92 600.7,-251.17 602.73,-244.47"/>
</a>
</g>
</g>
<!-- Node14 -->
<g id="Node000014" class="node">
<title>Node14</title>
<g id="a_Node000014"><a xlink:title=" ">
<polygon fill="#e0e0e0" stroke="#999999" points="662.57,-244 614.32,-244 614.32,-224 662.57,-224 662.57,-244"/>
<text xml:space="preserve" text-anchor="middle" x="638.45" y="-230.5" font-family="Helvetica,sans-Serif" font-size="10.00">QSlider</text>
</a>
</g>
</g>
<!-- Node1&#45;&gt;Node14 -->
<g id="edge21_Node000001_Node000014" class="edge">
<title>Node1&#45;&gt;Node14</title>
<g id="a_edge21_Node000001_Node000014"><a xlink:title=" ">
<path fill="none" stroke="#63b8ff" d="M720.2,-279.59C705.11,-271.36 682.92,-259.26 665.47,-249.74"/>
<polygon fill="#63b8ff" stroke="#63b8ff" points="667.61,-246.92 657.16,-245.2 664.26,-253.07 667.61,-246.92"/>
</a>
</g>
</g>
<!-- Node15 -->
<g id="Node000015" class="node">
<title>Node15</title>
<g id="a_Node000015"><a xlink:title=" ">
<polygon fill="#e0e0e0" stroke="#999999" points="727.82,-244 681.07,-244 681.07,-224 727.82,-224 727.82,-244"/>
<text xml:space="preserve" text-anchor="middle" x="704.45" y="-230.5" font-family="Helvetica,sans-Serif" font-size="10.00">QLabel</text>
</a>
</g>
</g>
<!-- Node1&#45;&gt;Node15 -->
<g id="edge22_Node000001_Node000015" class="edge">
<title>Node1&#45;&gt;Node15</title>
<g id="a_edge22_Node000001_Node000015"><a xlink:title=" ">
<path fill="none" stroke="#63b8ff" d="M731.7,-279.59C727.4,-272.55 721.36,-262.67 716.06,-254"/>
<polygon fill="#63b8ff" stroke="#63b8ff" points="719.12,-252.3 710.92,-245.59 713.15,-255.95 719.12,-252.3"/>
</a>
</g>
</g>
<!-- Node16 -->
<g id="Node000016" class="node">
<title>Node16</title>
<g id="a_Node000016"><a xlink:title=" ">
<polygon fill="#e0e0e0" stroke="#999999" points="794.57,-244 746.32,-244 746.32,-224 794.57,-224 794.57,-244"/>
<text xml:space="preserve" text-anchor="middle" x="770.45" y="-230.5" font-family="Helvetica,sans-Serif" font-size="10.00">QTimer</text>
</a>
</g>
</g>
<!-- Node1&#45;&gt;Node16 -->
<g id="edge23_Node000001_Node000016" class="edge">
<title>Node1&#45;&gt;Node16</title>
<g id="a_edge23_Node000001_Node000016"><a xlink:title=" ">
<path fill="none" stroke="#63b8ff" d="M743.2,-279.59C747.5,-272.55 753.54,-262.67 758.84,-254"/>
<polygon fill="#63b8ff" stroke="#63b8ff" points="761.75,-255.95 763.98,-245.59 755.78,-252.3 761.75,-255.95"/>
</a>
</g>
</g>
<!-- Node17 -->
<g id="Node000017" class="node">
<title>Node17</title>
<g id="a_Node000017"><a xlink:title=" ">
<polygon fill="#e0e0e0" stroke="#999999" points="882.07,-244 812.82,-244 812.82,-224 882.07,-224 882.07,-244"/>
<text xml:space="preserve" text-anchor="middle" x="847.45" y="-230.5" font-family="Helvetica,sans-Serif" font-size="10.00">QCheckBox</text>
</a>
</g>
</g>
<!-- Node1&#45;&gt;Node17 -->
<g id="edge24_Node000001_Node000017" class="edge">
<title>Node1&#45;&gt;Node17</title>
<g id="a_edge24_Node000001_Node000017"><a xlink:title=" ">
<path fill="none" stroke="#63b8ff" d="M756.61,-279.59C773.54,-271.28 798.5,-259.03 817.97,-249.47"/>
<polygon fill="#63b8ff" stroke="#63b8ff" points="819.35,-252.7 826.78,-245.15 816.26,-246.41 819.35,-252.7"/>
</a>
</g>
</g>
<!-- Node18 -->
<g id="Node000018" class="node">
<title>Node18</title>
<g id="a_Node000018"><a xlink:title=" ">
<polygon fill="#e0e0e0" stroke="#999999" points="972.57,-244 900.32,-244 900.32,-224 972.57,-224 972.57,-244"/>
<text xml:space="preserve" text-anchor="middle" x="936.45" y="-230.5" font-family="Helvetica,sans-Serif" font-size="10.00">QComboBox</text>
</a>
</g>
</g>
<!-- Node1&#45;&gt;Node18 -->
<g id="edge25_Node000001_Node000018" class="edge">
<title>Node1&#45;&gt;Node18</title>
<g id="a_edge25_Node000001_Node000018"><a xlink:title=" ">
<path fill="none" stroke="#63b8ff" d="M772.11,-279.59C805.01,-270.67 854.66,-257.19 890.78,-247.39"/>
<polygon fill="#63b8ff" stroke="#63b8ff" points="891.32,-250.87 900.06,-244.88 889.49,-244.12 891.32,-250.87"/>
</a>
</g>
</g>
<!-- Node19 -->
<g id="Node000019" class="node">
<title>Node19</title>
<g id="a_Node000019"><a xlink:title=" ">
<polygon fill="#e0e0e0" stroke="#999999" points="1050.57,-244 990.32,-244 990.32,-224 1050.57,-224 1050.57,-244"/>
<text xml:space="preserve" text-anchor="middle" x="1020.45" y="-230.5" font-family="Helvetica,sans-Serif" font-size="10.00">QSpinBox</text>
</a>
</g>
</g>
<!-- Node1&#45;&gt;Node19 -->
<g id="edge26_Node000001_Node000019" class="edge">
<title>Node1&#45;&gt;Node19</title>
<g id="a_edge26_Node000001_Node000019"><a xlink:title=" ">
<path fill="none" stroke="#63b8ff" d="M792.82,-279.51C839.85,-271.29 909.41,-258.74 979.07,-244.42"/>
<polygon fill="#63b8ff" stroke="#63b8ff" points="979.68,-247.87 988.76,-242.42 978.26,-241.02 979.68,-247.87"/>
</a>
</g>
</g>
<!-- Node20 -->
<g id="Node000020" class="node">
<title>Node20</title>
<g id="a_Node000020"><a xlink:title=" ">
<polygon fill="#e0e0e0" stroke="#999999" points="1122.57,-244 1068.32,-244 1068.32,-224 1122.57,-224 1122.57,-244"/>
<text xml:space="preserve" text-anchor="middle" x="1095.45" y="-230.5" font-family="Helvetica,sans-Serif" font-size="10.00">QPainter</text>
</a>
</g>
</g>
<!-- Node1&#45;&gt;Node20 -->
<g id="edge27_Node000001_Node000020" class="edge">
<title>Node1&#45;&gt;Node20</title>
<g id="a_edge27_Node000001_Node000020"><a xlink:title=" ">
<path fill="none" stroke="#63b8ff" d="M796.52,-282.65C858.93,-275.52 960.42,-262.71 1056.87,-244.33"/>
<polygon fill="#63b8ff" stroke="#63b8ff" points="1057.36,-247.8 1066.51,-242.47 1056.03,-240.93 1057.36,-247.8"/>
</a>
</g>
</g>
<!-- Node21 -->
<g id="Node000021" class="node">
<title>Node21</title>
<g id="a_Node000021"><a xlink:title=" ">
<polygon fill="#e0e0e0" stroke="#999999" points="1206.57,-244 1140.32,-244 1140.32,-224 1206.57,-224 1206.57,-244"/>
<text xml:space="preserve" text-anchor="middle" x="1173.45" y="-230.5" font-family="Helvetica,sans-Serif" font-size="10.00">QKeyEvent</text>
</a>
</g>
</g>
<!-- Node1&#45;&gt;Node21 -->
<g id="edge28_Node000001_Node000021" class="edge">
<title>Node1&#45;&gt;Node21</title>
<g id="a_edge28_Node000001_Node000021"><a xlink:title=" ">
<path fill="none" stroke="#63b8ff" d="M796.44,-284.07C871.43,-277.4 1005.11,-264.17 1128.86,-244.29"/>
<polygon fill="#63b8ff" stroke="#63b8ff" points="1129.23,-247.77 1138.54,-242.71 1128.11,-240.86 1129.23,-247.77"/>
</a>
</g>
</g>
<!-- Node3 -->
<g id="Node000003" class="node">
<title>Node3</title>
<g id="a_Node000003"><a xlink:href="Grille_8hpp.html" target="_top" xlink:title=" ">
<polygon fill="white" stroke="#666666" points="215.07,-188 157.82,-188 157.82,-168 215.07,-168 215.07,-188"/>
<text xml:space="preserve" text-anchor="middle" x="186.45" y="-174.5" font-family="Helvetica,sans-Serif" font-size="10.00">Grille.hpp</text>
</a>
</g>
</g>
<!-- Node2&#45;&gt;Node3 -->
<g id="edge2_Node000002_Node000003" class="edge">
<title>Node2&#45;&gt;Node3</title>
<g id="a_edge2_Node000002_Node000003"><a xlink:title=" ">
<path fill="none" stroke="#63b8ff" d="M272.33,-223.59C256.47,-215.36 233.17,-203.26 214.83,-193.74"/>
<polygon fill="#63b8ff" stroke="#63b8ff" points="216.54,-190.68 206.05,-189.18 213.31,-196.89 216.54,-190.68"/>
</a>
</g>
</g>
<!-- Node6 -->
<g id="Node000006" class="node">
<title>Node6</title>
<g id="a_Node000006"><a xlink:title=" ">
<polygon fill="#e0e0e0" stroke="#999999" points="69.07,-20 17.82,-20 17.82,0 69.07,0 69.07,-20"/>
<text xml:space="preserve" text-anchor="middle" x="43.45" y="-6.5" font-family="Helvetica,sans-Serif" font-size="10.00">memory</text>
</a>
</g>
</g>
<!-- Node2&#45;&gt;Node6 -->
<g id="edge15_Node000002_Node000006" class="edge">
<title>Node2&#45;&gt;Node6</title>
<g id="a_edge15_Node000002_Node000006"><a xlink:title=" ">
<path fill="none" stroke="#63b8ff" d="M246.03,-232C181.38,-227.84 63.43,-209.4 11.45,-132 -7.38,-103.96 1.18,-88.18 11.45,-56 14.57,-46.24 20.66,-36.79 26.7,-29.08"/>
<polygon fill="#63b8ff" stroke="#63b8ff" points="29.31,-31.42 33.11,-21.53 23.97,-26.89 29.31,-31.42"/>
</a>
</g>
</g>
<!-- Node7 -->
<g id="Node000007" class="node">
<title>Node7</title>
<g id="a_Node000007"><a xlink:title=" ">
<polygon fill="#e0e0e0" stroke="#999999" points="275.45,-20 235.45,-20 235.45,0 275.45,0 275.45,-20"/>
<text xml:space="preserve" text-anchor="middle" x="255.45" y="-6.5" font-family="Helvetica,sans-Serif" font-size="10.00">string</text>
</a>
</g>
</g>
<!-- Node2&#45;&gt;Node7 -->
<g id="edge16_Node000002_Node000007" class="edge">
<title>Node2&#45;&gt;Node7</title>
<g id="a_edge16_Node000002_Node000007"><a xlink:title=" ">
<path fill="none" stroke="#63b8ff" d="M309.78,-223.54C323.35,-215.87 340.75,-203.74 350.45,-188 368.31,-158.99 373.79,-143.35 360.45,-112 344.36,-74.2 306.41,-43.7 280.83,-26.46"/>
<polygon fill="#63b8ff" stroke="#63b8ff" points="282.93,-23.66 272.64,-21.14 279.11,-29.52 282.93,-23.66"/>
</a>
</g>
</g>
<!-- Node9 -->
<g id="Node000009" class="node">
<title>Node9</title>
<g id="a_Node000009"><a xlink:title=" ">
<polygon fill="#e0e0e0" stroke="#999999" points="252.95,-76 209.95,-76 209.95,-56 252.95,-56 252.95,-76"/>
<text xml:space="preserve" text-anchor="middle" x="231.45" y="-62.5" font-family="Helvetica,sans-Serif" font-size="10.00">vector</text>
</a>
</g>
</g>
<!-- Node2&#45;&gt;Node9 -->
<g id="edge17_Node000002_Node000009" class="edge">
<title>Node2&#45;&gt;Node9</title>
<g id="a_edge17_Node000002_Node000009"><a xlink:title=" ">
<path fill="none" stroke="#63b8ff" d="M300.49,-223.61C321.89,-202.45 368,-149.93 342.45,-112 325.12,-86.28 290.3,-75.25 264.26,-70.53"/>
<polygon fill="#63b8ff" stroke="#63b8ff" points="264.92,-67.09 254.5,-69.01 263.84,-74.01 264.92,-67.09"/>
</a>
</g>
</g>
<!-- Node10 -->
<g id="Node000010" class="node">
<title>Node10</title>
<g id="a_Node000010"><a xlink:href="Constantes_8hpp.html" target="_top" xlink:title="Configuration centralisée du projet.">
<polygon fill="white" stroke="#666666" points="332.95,-132 247.95,-132 247.95,-112 332.95,-112 332.95,-132"/>
<text xml:space="preserve" text-anchor="middle" x="290.45" y="-118.5" font-family="Helvetica,sans-Serif" font-size="10.00">Constantes.hpp</text>
</a>
</g>
</g>
<!-- Node2&#45;&gt;Node10 -->
<g id="edge14_Node000002_Node000010" class="edge">
<title>Node2&#45;&gt;Node10</title>
<g id="a_edge14_Node000002_Node000010"><a xlink:title=" ">
<path fill="none" stroke="#63b8ff" d="M290.45,-223.62C290.45,-206.01 290.45,-167.59 290.45,-143.65"/>
<polygon fill="#63b8ff" stroke="#63b8ff" points="293.95,-143.87 290.45,-133.87 286.95,-143.87 293.95,-143.87"/>
</a>
</g>
</g>
<!-- Node4 -->
<g id="Node000004" class="node">
<title>Node4</title>
<g id="a_Node000004"><a xlink:href="Cellule_8hpp.html" target="_top" xlink:title=" ">
<polygon fill="white" stroke="#666666" points="97.82,-132 33.07,-132 33.07,-112 97.82,-112 97.82,-132"/>
<text xml:space="preserve" text-anchor="middle" x="65.45" y="-118.5" font-family="Helvetica,sans-Serif" font-size="10.00">Cellule.hpp</text>
</a>
</g>
</g>
<!-- Node3&#45;&gt;Node4 -->
<g id="edge3_Node000003_Node000004" class="edge">
<title>Node3&#45;&gt;Node4</title>
<g id="a_edge3_Node000003_Node000004"><a xlink:title=" ">
<path fill="none" stroke="#63b8ff" d="M165.37,-167.59C146.49,-159.17 118.53,-146.69 96.99,-137.07"/>
<polygon fill="#63b8ff" stroke="#63b8ff" points="98.63,-133.98 88.07,-133.1 95.78,-140.37 98.63,-133.98"/>
</a>
</g>
</g>
<!-- Node3&#45;&gt;Node6 -->
<g id="edge13_Node000003_Node000006" class="edge">
<title>Node3&#45;&gt;Node6</title>
<g id="a_edge13_Node000003_Node000006"><a xlink:title=" ">
<path fill="none" stroke="#63b8ff" d="M157.35,-173.14C115.21,-166.89 40.48,-153.09 24.45,-132 1.81,-102.21 19.27,-56.21 32.4,-30.35"/>
<polygon fill="#63b8ff" stroke="#63b8ff" points="35.43,-32.11 37.08,-21.65 29.26,-28.8 35.43,-32.11"/>
</a>
</g>
</g>
<!-- Node8 -->
<g id="Node000008" class="node">
<title>Node8</title>
<g id="a_Node000008"><a xlink:href="RegleJeu_8hpp.html" target="_top" xlink:title=" ">
<polygon fill="white" stroke="#666666" points="191.45,-132 115.45,-132 115.45,-112 191.45,-112 191.45,-132"/>
<text xml:space="preserve" text-anchor="middle" x="153.45" y="-118.5" font-family="Helvetica,sans-Serif" font-size="10.00">RegleJeu.hpp</text>
</a>
</g>
</g>
<!-- Node3&#45;&gt;Node8 -->
<g id="edge8_Node000003_Node000008" class="edge">
<title>Node3&#45;&gt;Node8</title>
<g id="a_edge8_Node000003_Node000008"><a xlink:title=" ">
<path fill="none" stroke="#63b8ff" d="M180.7,-167.59C176.4,-160.55 170.36,-150.67 165.06,-142"/>
<polygon fill="#63b8ff" stroke="#63b8ff" points="168.12,-140.3 159.92,-133.59 162.15,-143.95 168.12,-140.3"/>
</a>
</g>
</g>
<!-- Node3&#45;&gt;Node9 -->
<g id="edge12_Node000003_Node000009" class="edge">
<title>Node3&#45;&gt;Node9</title>
<g id="a_edge12_Node000003_Node000009"><a xlink:title=" ">
<path fill="none" stroke="#63b8ff" d="M190.29,-167.62C197.56,-149.84 213.5,-110.88 223.27,-87"/>
<polygon fill="#63b8ff" stroke="#63b8ff" points="226.5,-88.34 227.05,-77.76 220.02,-85.69 226.5,-88.34"/>
</a>
</g>
</g>
<!-- Node3&#45;&gt;Node10 -->
<g id="edge11_Node000003_Node000010" class="edge">
<title>Node3&#45;&gt;Node10</title>
<g id="a_edge11_Node000003_Node000010"><a xlink:title=" ">
<path fill="none" stroke="#63b8ff" d="M204.56,-167.59C220.42,-159.36 243.73,-147.26 262.07,-137.74"/>
<polygon fill="#63b8ff" stroke="#63b8ff" points="263.59,-140.89 270.85,-133.18 260.36,-134.68 263.59,-140.89"/>
</a>
</g>
</g>
<!-- Node5 -->
<g id="Node000005" class="node">
<title>Node5</title>
<g id="a_Node000005"><a xlink:href="EtatCellule_8hpp.html" target="_top" xlink:title=" ">
<polygon fill="white" stroke="#666666" points="153.82,-76 71.07,-76 71.07,-56 153.82,-56 153.82,-76"/>
<text xml:space="preserve" text-anchor="middle" x="112.45" y="-62.5" font-family="Helvetica,sans-Serif" font-size="10.00">EtatCellule.hpp</text>
</a>
</g>
</g>
<!-- Node4&#45;&gt;Node5 -->
<g id="edge4_Node000004_Node000005" class="edge">
<title>Node4&#45;&gt;Node5</title>
<g id="a_edge4_Node000004_Node000005"><a xlink:title=" ">
<path fill="none" stroke="#63b8ff" d="M73.64,-111.59C80.04,-104.24 89.13,-93.8 96.9,-84.87"/>
<polygon fill="#63b8ff" stroke="#63b8ff" points="99.44,-87.28 103.36,-77.44 94.16,-82.69 99.44,-87.28"/>
</a>
</g>
</g>
<!-- Node4&#45;&gt;Node6 -->
<g id="edge7_Node000004_Node000006" class="edge">
<title>Node4&#45;&gt;Node6</title>
<g id="a_edge7_Node000004_Node000006"><a xlink:title=" ">
<path fill="none" stroke="#63b8ff" d="M63.57,-111.62C60.03,-93.92 52.3,-55.24 47.51,-31.32"/>
<polygon fill="#63b8ff" stroke="#63b8ff" points="51.01,-30.96 45.62,-21.84 44.15,-32.33 51.01,-30.96"/>
</a>
</g>
</g>
<!-- Node5&#45;&gt;Node6 -->
<g id="edge5_Node000005_Node000006" class="edge">
<title>Node5&#45;&gt;Node6</title>
<g id="a_edge5_Node000005_Node000006"><a xlink:title=" ">
<path fill="none" stroke="#63b8ff" d="M100.43,-55.59C90.44,-47.77 75.99,-36.46 64.14,-27.19"/>
<polygon fill="#63b8ff" stroke="#63b8ff" points="66.55,-24.64 56.52,-21.23 62.24,-30.15 66.55,-24.64"/>
</a>
</g>
</g>
<!-- Node5&#45;&gt;Node7 -->
<g id="edge6_Node000005_Node000007" class="edge">
<title>Node5&#45;&gt;Node7</title>
<g id="a_edge6_Node000005_Node000007"><a xlink:title=" ">
<path fill="none" stroke="#63b8ff" d="M137.36,-55.59C161.58,-46.45 198.45,-32.52 224.54,-22.67"/>
<polygon fill="#63b8ff" stroke="#63b8ff" points="225.45,-26.07 233.57,-19.26 222.98,-19.52 225.45,-26.07"/>
</a>
</g>
</g>
<!-- Node8&#45;&gt;Node6 -->
<g id="edge10_Node000008_Node000006" class="edge">
<title>Node8&#45;&gt;Node6</title>
<g id="a_edge10_Node000008_Node000006"><a xlink:title=" ">
<path fill="none" stroke="#63b8ff" d="M158.44,-111.68C164.92,-98.15 174.11,-72.87 162.45,-56 144.21,-29.61 108.36,-18.68 80.75,-14.16"/>
<polygon fill="#63b8ff" stroke="#63b8ff" points="81.39,-10.71 71,-12.8 80.42,-17.65 81.39,-10.71"/>
</a>
</g>
</g>
<!-- Node8&#45;&gt;Node9 -->
<g id="edge9_Node000008_Node000009" class="edge">
<title>Node8&#45;&gt;Node9</title>
<g id="a_edge9_Node000008_Node000009"><a xlink:title=" ">
<path fill="none" stroke="#63b8ff" d="M167.04,-111.59C178.49,-103.67 195.11,-92.16 208.6,-82.82"/>
<polygon fill="#63b8ff" stroke="#63b8ff" points="210.28,-85.91 216.51,-77.34 206.3,-80.16 210.28,-85.91"/>
</a>
</g>
</g>
</g>
</svg>
