<?xml version="1.0" encoding="UTF-8" standalone="no"?>
<!DOCTYPE svg PUBLIC "-//W3C//DTD SVG 1.1//EN"
 "http://www.w3.org/Graphics/SVG/1.1/DTD/svg11.dtd">
<!-- Generated by graphviz version 14.0.2 (20251019.1705)
 -->
<!-- Title: include/InterfaceSFML.hpp Pages: 1 -->
<svg width="466pt" height="308pt"
 viewBox="0.00 0.00 466.00 308.00" xmlns="http://www.w3.org/2000/svg" xmlns:xlink="http://www.w3.org/1999/xlink">
<g id="graph0" class="graph" transform="scale(1 1) rotate(0) translate(4 304)">
<title>include/InterfaceSFML.hpp</title>
<!-- Node1 -->
<g id="Node000001" class="node">
<title>Node1</title>
<g id="a_Node000001"><a xlink:title=" ">
<polygon fill="#999999" stroke="#666666" points="358.5,-300 225.5,-300 225.5,-280 358.5,-280 358.5,-300"/>
<text xml:space="preserve" text-anchor="middle" x="292" y="-286.5" font-family="Helvetica,sans-Serif" font-size="10.00">include/InterfaceSFML.hpp</text>
</a>
</g>
</g>
<!-- Node2 -->
<g id="Node000002" class="node">
<title>Node2</title>
<g id="a_Node000002"><a xlink:href="JeuDeLaVie_8hpp.html" target="_top" xlink:title=" ">
<polygon fill="white" stroke="#666666" points="336,-244 248,-244 248,-224 336,-224 336,-244"/>
<text xml:space="preserve" text-anchor="middle" x="292" y="-230.5" font-family="Helvetica,sans-Serif" font-size="10.00">JeuDeLaVie.hpp</text>
</a>
</g>
</g>
<!-- Node1&#45;&gt;Node2 -->
<g id="edge1_Node000001_Node000002" class="edge">
<title>Node1&#45;&gt;Node2</title>
<g id="a_edge1_Node000001_Node000002"><a xlink:title=" ">
<path fill="none" stroke="#63b8ff" d="M292,-279.59C292,-273.01 292,-263.96 292,-255.73"/>
<polygon fill="#63b8ff" stroke="#63b8ff" points="295.5,-255.81 292,-245.81 288.5,-255.81 295.5,-255.81"/>
</a>
</g>
</g>
<!-- Node6 -->
<g id="Node000006" class="node">
<title>Node6</title>
<g id="a_Node000006"><a xlink:title=" ">
<polygon fill="#e0e0e0" stroke="#999999" points="120.62,-20 69.38,-20 69.38,0 120.62,0 120.62,-20"/>
<text xml:space="preserve" text-anchor="middle" x="95" y="-6.5" font-family="Helvetica,sans-Serif" font-size="10.00">memory</text>
</a>
</g>
</g>
<!-- Node1&#45;&gt;Node6 -->
<g id="edge19_Node000001_Node000006" class="edge">
<title>Node1&#45;&gt;Node6</title>
<g id="a_edge19_Node000001_Node000006"><a xlink:title=" ">
<path fill="none" stroke="#63b8ff" d="M235.35,-279.55C150.44,-263.77 0,-228.77 0,-179 0,-179 0,-179 0,-121 0,-78.97 40.21,-45.07 68.31,-26.51"/>
<polygon fill="#63b8ff" stroke="#63b8ff" points="70.15,-29.49 76.74,-21.19 66.41,-23.57 70.15,-29.49"/>
</a>
</g>
</g>
<!-- Node11 -->
<g id="Node000011" class="node">
<title>Node11</title>
<g id="a_Node000011"><a xlink:title=" ">
<polygon fill="#e0e0e0" stroke="#999999" points="457.5,-244 354.5,-244 354.5,-224 457.5,-224 457.5,-244"/>
<text xml:space="preserve" text-anchor="middle" x="406" y="-230.5" font-family="Helvetica,sans-Serif" font-size="10.00">SFML/Graphics.hpp</text>
</a>
</g>
</g>
<!-- Node1&#45;&gt;Node11 -->
<g id="edge18_Node000001_Node000011" class="edge">
<title>Node1&#45;&gt;Node11</title>
<g id="a_edge18_Node000001_Node000011"><a xlink:title=" ">
<path fill="none" stroke="#63b8ff" d="M311.86,-279.59C329.49,-271.24 355.51,-258.92 375.73,-249.34"/>
<polygon fill="#63b8ff" stroke="#63b8ff" points="377.08,-252.57 384.62,-245.13 374.08,-246.25 377.08,-252.57"/>
</a>
</g>
</g>
<!-- Node3 -->
<g id="Node000003" class="node">
<title>Node3</title>
<g id="a_Node000003"><a xlink:href="Grille_8hpp.html" target="_top" xlink:title=" ">
<polygon fill="white" stroke="#666666" points="272.62,-188 215.38,-188 215.38,-168 272.62,-168 272.62,-188"/>
<text xml:space="preserve" text-anchor="middle" x="244" y="-174.5" font-family="Helvetica,sans-Serif" font-size="10.00">Grille.hpp</text>
</a>
</g>
</g>
<!-- Node2&#45;&gt;Node3 -->
<g id="edge2_Node000002_Node000003" class="edge">
<title>Node2&#45;&gt;Node3</title>
<g id="a_edge2_Node000002_Node000003"><a xlink:title=" ">
<path fill="none" stroke="#63b8ff" d="M283.64,-223.59C277.1,-216.24 267.82,-205.8 259.88,-196.87"/>
<polygon fill="#63b8ff" stroke="#63b8ff" points="262.53,-194.58 253.27,-189.43 257.3,-199.23 262.53,-194.58"/>
</a>
</g>
</g>
<!-- Node2&#45;&gt;Node6 -->
<g id="edge15_Node000002_Node000006" class="edge">
<title>Node2&#45;&gt;Node6</title>
<g id="a_edge15_Node000002_Node000006"><a xlink:title=" ">
<path fill="none" stroke="#63b8ff" d="M247.89,-225.11C198.58,-213.75 120.58,-187.71 82,-132 60.93,-101.58 74.78,-56.13 85.63,-30.47"/>
<polygon fill="#63b8ff" stroke="#63b8ff" points="88.72,-32.13 89.64,-21.58 82.34,-29.25 88.72,-32.13"/>
</a>
</g>
</g>
<!-- Node7 -->
<g id="Node000007" class="node">
<title>Node7</title>
<g id="a_Node000007"><a xlink:title=" ">
<polygon fill="#e0e0e0" stroke="#999999" points="346,-20 306,-20 306,0 346,0 346,-20"/>
<text xml:space="preserve" text-anchor="middle" x="326" y="-6.5" font-family="Helvetica,sans-Serif" font-size="10.00">string</text>
</a>
</g>
</g>
<!-- Node2&#45;&gt;Node7 -->
<g id="edge16_Node000002_Node000007" class="edge">
<title>Node2&#45;&gt;Node7</title>
<g id="a_edge16_Node000002_Node000007"><a xlink:title=" ">
<path fill="none" stroke="#63b8ff" d="M323.99,-223.6C344.75,-216.33 371.47,-204.67 391,-188 413.69,-168.63 419.41,-160.57 428,-132 441.82,-86.02 389.24,-46.43 354.48,-25.93"/>
<polygon fill="#63b8ff" stroke="#63b8ff" points="356.53,-23.07 346.1,-21.18 353.07,-29.16 356.53,-23.07"/>
</a>
</g>
</g>
<!-- Node9 -->
<g id="Node000009" class="node">
<title>Node9</title>
<g id="a_Node000009"><a xlink:title=" ">
<polygon fill="#e0e0e0" stroke="#999999" points="323.5,-76 280.5,-76 280.5,-56 323.5,-56 323.5,-76"/>
<text xml:space="preserve" text-anchor="middle" x="302" y="-62.5" font-family="Helvetica,sans-Serif" font-size="10.00">vector</text>
</a>
</g>
</g>
<!-- Node2&#45;&gt;Node9 -->
<g id="edge17_Node000002_Node000009" class="edge">
<title>Node2&#45;&gt;Node9</title>
<g id="a_edge17_Node000002_Node000009"><a xlink:title=" ">
<path fill="none" stroke="#63b8ff" d="M311.67,-223.62C340.21,-208.77 392.01,-176.86 413,-132 429.3,-97.17 373.45,-79.79 335.14,-72.14"/>
<polygon fill="#63b8ff" stroke="#63b8ff" points="335.87,-68.72 325.4,-70.34 334.6,-75.6 335.87,-68.72"/>
</a>
</g>
</g>
<!-- Node10 -->
<g id="Node000010" class="node">
<title>Node10</title>
<g id="a_Node000010"><a xlink:href="Constantes_8hpp.html" target="_top" xlink:title="Configuration centralisée du projet.">
<polygon fill="white" stroke="#666666" points="403.5,-132 318.5,-132 318.5,-112 403.5,-112 403.5,-132"/>
<text xml:space="preserve" text-anchor="middle" x="361" y="-118.5" font-family="Helvetica,sans-Serif" font-size="10.00">Constantes.hpp</text>
</a>
</g>
</g>
<!-- Node2&#45;&gt;Node10 -->
<g id="edge14_Node000002_Node000010" class="edge">
<title>Node2&#45;&gt;Node10</title>
<g id="a_edge14_Node000002_Node000010"><a xlink:title=" ">
<path fill="none" stroke="#63b8ff" d="M297.88,-223.62C309.19,-205.6 334.14,-165.81 349.07,-142.02"/>
<polygon fill="#63b8ff" stroke="#63b8ff" points="351.98,-143.97 354.33,-133.64 346.05,-140.25 351.98,-143.97"/>
</a>
</g>
</g>
<!-- Node4 -->
<g id="Node000004" class="node">
<title>Node4</title>
<g id="a_Node000004"><a xlink:href="Cellule_8hpp.html" target="_top" xlink:title=" ">
<polygon fill="white" stroke="#666666" points="168.38,-132 103.62,-132 103.62,-112 168.38,-112 168.38,-132"/>
<text xml:space="preserve" text-anchor="middle" x="136" y="-118.5" font-family="Helvetica,sans-Serif" font-size="10.00">Cellule.hpp</text>
</a>
</g>
</g>
<!-- Node3&#45;&gt;Node4 -->
<g id="edge3_Node000003_Node000004" class="edge">
<title>Node3&#45;&gt;Node4</title>
<g id="a_edge3_Node000003_Node000004"><a xlink:title=" ">
<path fill="none" stroke="#63b8ff" d="M225.19,-167.59C208.64,-159.32 184.29,-147.14 165.21,-137.6"/>
<polygon fill="#63b8ff" stroke="#63b8ff" points="166.82,-134.5 156.31,-133.16 163.69,-140.76 166.82,-134.5"/>
</a>
</g>
</g>
<!-- Node3&#45;&gt;Node6 -->
<g id="edge13_Node000003_Node000006" class="edge">
<title>Node3&#45;&gt;Node6</title>
<g id="a_edge13_Node000003_Node000006"><a xlink:title=" ">
<path fill="none" stroke="#63b8ff" d="M215.05,-177.69C180.11,-176.76 122.63,-169.21 95,-132 73.16,-102.59 81.07,-57.1 88.34,-31.09"/>
<polygon fill="#63b8ff" stroke="#63b8ff" points="91.61,-32.37 91.18,-21.78 84.91,-30.32 91.61,-32.37"/>
</a>
</g>
</g>
<!-- Node8 -->
<g id="Node000008" class="node">
<title>Node8</title>
<g id="a_Node000008"><a xlink:href="RegleJeu_8hpp.html" target="_top" xlink:title=" ">
<polygon fill="white" stroke="#666666" points="262,-132 186,-132 186,-112 262,-112 262,-132"/>
<text xml:space="preserve" text-anchor="middle" x="224" y="-118.5" font-family="Helvetica,sans-Serif" font-size="10.00">RegleJeu.hpp</text>
</a>
</g>
</g>
<!-- Node3&#45;&gt;Node8 -->
<g id="edge8_Node000003_Node000008" class="edge">
<title>Node3&#45;&gt;Node8</title>
<g id="a_edge8_Node000003_Node000008"><a xlink:title=" ">
<path fill="none" stroke="#63b8ff" d="M240.52,-167.59C237.99,-160.78 234.49,-151.32 231.36,-142.86"/>
<polygon fill="#63b8ff" stroke="#63b8ff" points="234.72,-141.88 227.97,-133.72 228.16,-144.31 234.72,-141.88"/>
</a>
</g>
</g>
<!-- Node3&#45;&gt;Node9 -->
<g id="edge12_Node000003_Node000009" class="edge">
<title>Node3&#45;&gt;Node9</title>
<g id="a_edge12_Node000003_Node000009"><a xlink:title=" ">
<path fill="none" stroke="#63b8ff" d="M249.85,-167.84C255.5,-158.85 264.19,-144.68 271,-132 279.05,-117.01 287.3,-99.58 293.27,-86.55"/>
<polygon fill="#63b8ff" stroke="#63b8ff" points="296.3,-88.33 297.24,-77.78 289.93,-85.44 296.3,-88.33"/>
</a>
</g>
</g>
<!-- Node3&#45;&gt;Node10 -->
<g id="edge11_Node000003_Node000010" class="edge">
<title>Node3&#45;&gt;Node10</title>
<g id="a_edge11_Node000003_Node000010"><a xlink:title=" ">
<path fill="none" stroke="#63b8ff" d="M264.38,-167.59C282.56,-159.21 309.43,-146.8 330.22,-137.21"/>
<polygon fill="#63b8ff" stroke="#63b8ff" points="331.47,-140.48 339.09,-133.11 328.54,-134.13 331.47,-140.48"/>
</a>
</g>
</g>
<!-- Node5 -->
<g id="Node000005" class="node">
<title>Node5</title>
<g id="a_Node000005"><a xlink:href="EtatCellule_8hpp.html" target="_top" xlink:title=" ">
<polygon fill="white" stroke="#666666" points="224.38,-76 141.62,-76 141.62,-56 224.38,-56 224.38,-76"/>
<text xml:space="preserve" text-anchor="middle" x="183" y="-62.5" font-family="Helvetica,sans-Serif" font-size="10.00">EtatCellule.hpp</text>
</a>
</g>
</g>
<!-- Node4&#45;&gt;Node5 -->
<g id="edge4_Node000004_Node000005" class="edge">
<title>Node4&#45;&gt;Node5</title>
<g id="a_edge4_Node000004_Node000005"><a xlink:title=" ">
<path fill="none" stroke="#63b8ff" d="M144.19,-111.59C150.59,-104.24 159.68,-93.8 167.45,-84.87"/>
<polygon fill="#63b8ff" stroke="#63b8ff" points="169.99,-87.28 173.91,-77.44 164.71,-82.69 169.99,-87.28"/>
</a>
</g>
</g>
<!-- Node4&#45;&gt;Node6 -->
<g id="edge7_Node000004_Node000006" class="edge">
<title>Node4&#45;&gt;Node6</title>
<g id="a_edge7_Node000004_Node000006"><a xlink:title=" ">
<path fill="none" stroke="#63b8ff" d="M132.5,-111.62C125.88,-93.84 111.36,-54.88 102.45,-31"/>
<polygon fill="#63b8ff" stroke="#63b8ff" points="105.79,-29.92 99.02,-21.77 99.23,-32.37 105.79,-29.92"/>
</a>
</g>
</g>
<!-- Node5&#45;&gt;Node6 -->
<g id="edge5_Node000005_Node000006" class="edge">
<title>Node5&#45;&gt;Node6</title>
<g id="a_edge5_Node000005_Node000006"><a xlink:title=" ">
<path fill="none" stroke="#63b8ff" d="M167.67,-55.59C154.5,-47.51 135.27,-35.71 119.89,-26.27"/>
<polygon fill="#63b8ff" stroke="#63b8ff" points="122.09,-23.52 111.74,-21.27 118.43,-29.48 122.09,-23.52"/>
</a>
</g>
</g>
<!-- Node5&#45;&gt;Node7 -->
<g id="edge6_Node000005_Node000007" class="edge">
<title>Node5&#45;&gt;Node7</title>
<g id="a_edge6_Node000005_Node000007"><a xlink:title=" ">
<path fill="none" stroke="#63b8ff" d="M207.91,-55.59C232.13,-46.45 269,-32.52 295.09,-22.67"/>
<polygon fill="#63b8ff" stroke="#63b8ff" points="296.01,-26.07 304.12,-19.26 293.53,-19.52 296.01,-26.07"/>
</a>
</g>
</g>
<!-- Node8&#45;&gt;Node6 -->
<g id="edge10_Node000008_Node000006" class="edge">
<title>Node8&#45;&gt;Node6</title>
<g id="a_edge10_Node000008_Node000006"><a xlink:title=" ">
<path fill="none" stroke="#63b8ff" d="M229.09,-111.6C235.7,-97.99 245.04,-72.6 233,-56 210.19,-24.58 164.85,-14.68 132.36,-11.78"/>
<polygon fill="#63b8ff" stroke="#63b8ff" points="132.76,-8.3 122.55,-11.1 132.28,-15.28 132.76,-8.3"/>
</a>
</g>
</g>
<!-- Node8&#45;&gt;Node9 -->
<g id="edge9_Node000008_Node000009" class="edge">
<title>Node8&#45;&gt;Node9</title>
<g id="a_edge9_Node000008_Node000009"><a xlink:title=" ">
<path fill="none" stroke="#63b8ff" d="M237.59,-111.59C249.04,-103.67 265.66,-92.16 279.16,-82.82"/>
<polygon fill="#63b8ff" stroke="#63b8ff" points="280.83,-85.91 287.06,-77.34 276.85,-80.16 280.83,-85.91"/>
</a>
</g>
</g>
</g>
</svg>
