<?xml version="1.0" encoding="UTF-8" standalone="no"?>
<!DOCTYPE svg PUBLIC "-//W3C//DTD SVG 1.1//EN"
 "http://www.w3.org/Graphics/SVG/1.1/DTD/svg11.dtd">
<!-- Generated by graphviz version 14.0.2 (20251019.1705)
 -->
<!-- Title: include/JeuDeLaVie.hpp Pages: 1 -->
<!--zoomable 140 -->

<svg id="main" version="1.1" xmlns="http://www.w3.org/2000/svg" xmlns:xlink="http://www.w3.org/1999/xlink" xml:space="preserve" onload="init(evt)">

<style type="text/css"><![CDATA[
.node, .edge {opacity: 0.7;}
.node.selected, .edge.selected {opacity: 1;}
.edge:hover path { stroke: red; }
.edge:hover polygon { stroke: red; fill: red; }
]]></style>

<defs>
  <circle id="rim" cx="0" cy="0" r="7"/>
  <circle id="rim2" cx="0" cy="0" r="3.5"/>
  <g id="zoomPlus">
    <use xlink:href="#rim" fill="#404040"><set attributeName="fill" to="#808080" begin="zoomplus.mouseover" end="zoomplus.mouseout"/></use>
    <path d="M-4,0h8M0,-4v8" fill="none" stroke="white" stroke-width="1.5" pointer-events="none"/>
  </g>
  <g id="zoomMin">
    <use xlink:href="#rim" fill="#404040"><set attributeName="fill" to="#808080" begin="zoomminus.mouseover" end="zoomminus.mouseout"/></use>
    <path d="M-4,0h8" fill="none" stroke="white" stroke-width="1.5" pointer-events="none"/>
  </g>
  <g id="arrowUp" transform="translate(30 24)">
    <use xlink:href="#rim"/>
    <path pointer-events="none" fill="none" stroke="white" stroke-width="1.5" d="M0,-3.0v7 M-2.5,-0.5L0,-3.0L2.5,-0.5"/>
  </g>
  <g id="arrowRight" transform="rotate(90) translate(36 -43)">
    <use xlink:href="#rim"/>
    <path pointer-events="none" fill="none" stroke="white" stroke-width="1.5" d="M0,-3.0v7 M-2.5,-0.5L0,-3.0L2.5,-0.5"/>
  </g>
  <g id="arrowDown" transform="rotate(180) translate(-30 -48)">
    <use xlink:href="#rim"/>
    <path pointer-events="none" fill="none" stroke="white" stroke-width="1.5" d="M0,-3.0v7 M-2.5,-0.5L0,-3.0L2.5,-0.5"/>
  </g>
  <g id="arrowLeft" transform="rotate(270) translate(-36 17)">
    <use xlink:href="#rim"/>
    <path pointer-events="none" fill="none" stroke="white" stroke-width="1.5" d="M0,-3.0v7 M-2.5,-0.5L0,-3.0L2.5,-0.5"/>
  </g>
  <g id="resetDef">
    <use xlink:href="#rim2" fill="#404040"><set attributeName="fill" to="#808080" begin="reset.mouseover" end="reset.mouseout"/></use>
  </g>
</defs>
<script type="application/ecmascript">
var viewWidth = 716;
var viewHeight = 140;
var sectionId = 'dynsection-1';
</script>
<script type="application/ecmascript" xlink:href="svg.min.js"/>
<svg id="graph" class="graph">
<g id="viewport">
<title>include/JeuDeLaVie.hpp</title>
<!-- Node1 -->
<g id="Node000001" class="node">
<title>Node1</title>
<g id="a_Node000001"><a xlink:title=" ">
<polygon fill="#999999" stroke="#666666" points="403.5,-132 281.75,-132 281.75,-112 403.5,-112 403.5,-132"/>
<text xml:space="preserve" text-anchor="middle" x="342.62" y="-118.5" font-family="Helvetica,sans-Serif" font-size="10.00">include/JeuDeLaVie.hpp</text>
</a>
</g>
</g>
<!-- Node2 -->
<g id="Node000002" class="node">
<title>Node2</title>
<g id="a_Node000002"><a xlink:href="InterfaceQt_8hpp.html" target="_top" xlink:title=" ">
<polygon fill="white" stroke="#666666" points="117.25,-76 0,-76 0,-56 117.25,-56 117.25,-76"/>
<text xml:space="preserve" text-anchor="middle" x="58.62" y="-62.5" font-family="Helvetica,sans-Serif" font-size="10.00">include/InterfaceQt.hpp</text>
</a>
</g>
</g>
<!-- Node1&#45;&gt;Node2 -->
<g id="edge1_Node000001_Node000002" class="edge">
<title>Node1&#45;&gt;Node2</title>
<g id="a_edge1_Node000001_Node000002"><a xlink:title=" ">
<path fill="none" stroke="#63b8ff" d="M281.81,-109.44C230.06,-99.6 156.66,-85.64 108.36,-76.46"/>
<polygon fill="#63b8ff" stroke="#63b8ff" points="280.87,-112.82 291.34,-111.25 282.17,-105.94 280.87,-112.82"/>
</a>
</g>
</g>
<!-- Node4 -->
<g id="Node000004" class="node">
<title>Node4</title>
<g id="a_Node000004"><a xlink:href="InterfaceSFML_8hpp.html" target="_top" xlink:title=" ">
<polygon fill="white" stroke="#666666" points="268.12,-76 135.12,-76 135.12,-56 268.12,-56 268.12,-76"/>
<text xml:space="preserve" text-anchor="middle" x="201.62" y="-62.5" font-family="Helvetica,sans-Serif" font-size="10.00">include/InterfaceSFML.hpp</text>
</a>
</g>
</g>
<!-- Node1&#45;&gt;Node4 -->
<g id="edge3_Node000001_Node000004" class="edge">
<title>Node1&#45;&gt;Node4</title>
<g id="a_edge3_Node000001_Node000004"><a xlink:title=" ">
<path fill="none" stroke="#63b8ff" d="M307.46,-107.53C282.22,-97.87 248.85,-85.08 226.38,-76.48"/>
<polygon fill="#63b8ff" stroke="#63b8ff" points="306.06,-110.74 316.65,-111.05 308.56,-104.21 306.06,-110.74"/>
</a>
</g>
</g>
<!-- Node6 -->
<g id="Node000006" class="node">
<title>Node6</title>
<g id="a_Node000006"><a xlink:href="main_8cpp.html" target="_top" xlink:title=" ">
<polygon fill="white" stroke="#666666" points="332.75,-20 260.5,-20 260.5,0 332.75,0 332.75,-20"/>
<text xml:space="preserve" text-anchor="middle" x="296.62" y="-6.5" font-family="Helvetica,sans-Serif" font-size="10.00">src/main.cpp</text>
</a>
</g>
</g>
<!-- Node1&#45;&gt;Node6 -->
<g id="edge11_Node000001_Node000006" class="edge">
<title>Node1&#45;&gt;Node6</title>
<g id="a_edge11_Node000001_Node000006"><a xlink:title=" ">
<path fill="none" stroke="#63b8ff" d="M329.84,-102.14C324.92,-94.3 319.54,-84.95 315.62,-76 307.24,-56.83 301.33,-32.89 298.51,-20.09"/>
<polygon fill="#63b8ff" stroke="#63b8ff" points="326.87,-104 335.26,-110.46 332.73,-100.17 326.87,-104"/>
</a>
</g>
</g>
<!-- Node7 -->
<g id="Node000007" class="node">
<title>Node7</title>
<g id="a_Node000007"><a xlink:href="ModeConsole_8hpp.html" target="_top" xlink:title=" ">
<polygon fill="white" stroke="#666666" points="452.88,-76 324.38,-76 324.38,-56 452.88,-56 452.88,-76"/>
<text xml:space="preserve" text-anchor="middle" x="388.62" y="-62.5" font-family="Helvetica,sans-Serif" font-size="10.00">include/ModeConsole.hpp</text>
</a>
</g>
</g>
<!-- Node1&#45;&gt;Node7 -->
<g id="edge6_Node000001_Node000007" class="edge">
<title>Node1&#45;&gt;Node7</title>
<g id="a_edge6_Node000001_Node000007"><a xlink:title=" ">
<path fill="none" stroke="#63b8ff" d="M357.96,-103C365.58,-94.06 374.46,-83.62 380.7,-76.3"/>
<polygon fill="#63b8ff" stroke="#63b8ff" points="355.44,-100.56 351.62,-110.44 360.77,-105.1 355.44,-100.56"/>
</a>
</g>
</g>
<!-- Node9 -->
<g id="Node000009" class="node">
<title>Node9</title>
<g id="a_Node000009"><a xlink:href="JeuDeLaVie_8cpp.html" target="_top" xlink:title=" ">
<polygon fill="white" stroke="#666666" points="575.88,-76 471.38,-76 471.38,-56 575.88,-56 575.88,-76"/>
<text xml:space="preserve" text-anchor="middle" x="523.62" y="-62.5" font-family="Helvetica,sans-Serif" font-size="10.00">src/JeuDeLaVie.cpp</text>
</a>
</g>
</g>
<!-- Node1&#45;&gt;Node9 -->
<g id="edge9_Node000001_Node000009" class="edge">
<title>Node1&#45;&gt;Node9</title>
<g id="a_edge9_Node000001_Node000009"><a xlink:title=" ">
<path fill="none" stroke="#63b8ff" d="M385.18,-108.31C417.84,-98.56 462.23,-85.32 491.85,-76.48"/>
<polygon fill="#63b8ff" stroke="#63b8ff" points="384.19,-104.95 375.6,-111.16 386.19,-111.66 384.19,-104.95"/>
</a>
</g>
</g>
<!-- Node10 -->
<g id="Node000010" class="node">
<title>Node10</title>
<g id="a_Node000010"><a xlink:href="TestsUnitaires_8cpp.html" target="_top" xlink:title=" ">
<polygon fill="white" stroke="#666666" points="707.75,-76 593.5,-76 593.5,-56 707.75,-56 707.75,-76"/>
<text xml:space="preserve" text-anchor="middle" x="650.62" y="-62.5" font-family="Helvetica,sans-Serif" font-size="10.00">src/TestsUnitaires.cpp</text>
</a>
</g>
</g>
<!-- Node1&#45;&gt;Node10 -->
<g id="edge10_Node000001_Node000010" class="edge">
<title>Node1&#45;&gt;Node10</title>
<g id="a_edge10_Node000001_Node000010"><a xlink:title=" ">
<path fill="none" stroke="#63b8ff" d="M407.88,-109.56C464.03,-99.71 544.09,-85.68 596.69,-76.46"/>
<polygon fill="#63b8ff" stroke="#63b8ff" points="407.36,-106.1 398.12,-111.27 408.57,-112.99 407.36,-106.1"/>
</a>
</g>
</g>
<!-- Node3 -->
<g id="Node000003" class="node">
<title>Node3</title>
<g id="a_Node000003"><a xlink:href="InterfaceQt_8cpp.html" target="_top" xlink:title=" ">
<polygon fill="white" stroke="#666666" points="108.62,-20 8.62,-20 8.62,0 108.62,0 108.62,-20"/>
<text xml:space="preserve" text-anchor="middle" x="58.62" y="-6.5" font-family="Helvetica,sans-Serif" font-size="10.00">src/InterfaceQt.cpp</text>
</a>
</g>
</g>
<!-- Node2&#45;&gt;Node3 -->
<g id="edge2_Node000002_Node000003" class="edge">
<title>Node2&#45;&gt;Node3</title>
<g id="a_edge2_Node000002_Node000003"><a xlink:title=" ">
<path fill="none" stroke="#63b8ff" d="M58.62,-44.13C58.62,-35.9 58.62,-26.85 58.62,-20.3"/>
<polygon fill="#63b8ff" stroke="#63b8ff" points="55.13,-44.08 58.63,-54.08 62.13,-44.08 55.13,-44.08"/>
</a>
</g>
</g>
<!-- Node5 -->
<g id="Node000005" class="node">
<title>Node5</title>
<g id="a_Node000005"><a xlink:href="InterfaceSFML_8cpp.html" target="_top" xlink:title=" ">
<polygon fill="white" stroke="#666666" points="242.5,-20 126.75,-20 126.75,0 242.5,0 242.5,-20"/>
<text xml:space="preserve" text-anchor="middle" x="184.62" y="-6.5" font-family="Helvetica,sans-Serif" font-size="10.00">src/InterfaceSFML.cpp</text>
</a>
</g>
</g>
<!-- Node4&#45;&gt;Node5 -->
<g id="edge4_Node000004_Node000005" class="edge">
<title>Node4&#45;&gt;Node5</title>
<g id="a_edge4_Node000004_Node000005"><a xlink:title=" ">
<path fill="none" stroke="#63b8ff" d="M195.24,-44.71C192.6,-36.32 189.66,-27.01 187.55,-20.3"/>
<polygon fill="#63b8ff" stroke="#63b8ff" points="191.87,-45.66 198.21,-54.15 198.54,-43.56 191.87,-45.66"/>
</a>
</g>
</g>
<!-- Node4&#45;&gt;Node6 -->
<g id="edge5_Node000004_Node000006" class="edge">
<title>Node4&#45;&gt;Node6</title>
<g id="a_edge5_Node000004_Node000006"><a xlink:title=" ">
<path fill="none" stroke="#63b8ff" d="M227.87,-50.08C244.52,-40.62 265.56,-28.66 279.95,-20.48"/>
<polygon fill="#63b8ff" stroke="#63b8ff" points="226.45,-46.86 219.49,-54.85 229.91,-52.95 226.45,-46.86"/>
</a>
</g>
</g>
<!-- Node7&#45;&gt;Node6 -->
<g id="edge8_Node000007_Node000006" class="edge">
<title>Node7&#45;&gt;Node6</title>
<g id="a_edge8_Node000007_Node000006"><a xlink:title=" ">
<path fill="none" stroke="#63b8ff" d="M362.75,-49.81C346.7,-40.39 326.58,-28.58 312.78,-20.48"/>
<polygon fill="#63b8ff" stroke="#63b8ff" points="360.9,-52.78 371.29,-54.83 364.44,-46.75 360.9,-52.78"/>
</a>
</g>
</g>
<!-- Node8 -->
<g id="Node000008" class="node">
<title>Node8</title>
<g id="a_Node000008"><a xlink:href="ModeConsole_8cpp.html" target="_top" xlink:title=" ">
<polygon fill="white" stroke="#666666" points="462.25,-20 351,-20 351,0 462.25,0 462.25,-20"/>
<text xml:space="preserve" text-anchor="middle" x="406.62" y="-6.5" font-family="Helvetica,sans-Serif" font-size="10.00">src/ModeConsole.cpp</text>
</a>
</g>
</g>
<!-- Node7&#45;&gt;Node8 -->
<g id="edge7_Node000007_Node000008" class="edge">
<title>Node7&#45;&gt;Node8</title>
<g id="a_edge7_Node000007_Node000008"><a xlink:title=" ">
<path fill="none" stroke="#63b8ff" d="M395.39,-44.71C398.18,-36.32 401.29,-27.01 403.53,-20.3"/>
<polygon fill="#63b8ff" stroke="#63b8ff" points="392.08,-43.56 392.24,-54.16 398.72,-45.78 392.08,-43.56"/>
</a>
</g>
</g>
</g>
</svg>

<g id="navigator" transform="translate(0 0)" fill="#404254">
  <rect fill="#f2f5e9" fill-opacity="0.5" stroke="#606060" stroke-width=".5" x="0" y="0" width="60" height="60"/>
  <use id="zoomplus" xlink:href="#zoomPlus" x="17" y="9" onmousedown="handleZoom(evt,'in')"/>
  <use id="zoomminus" xlink:href="#zoomMin" x="42" y="9" onmousedown="handleZoom(evt,'out')"/>
  <use id="reset" xlink:href="#resetDef" x="30" y="36" onmousedown="handleReset()"/>
   <use id="arrowup" xlink:href="#arrowUp" x="0" y="0" onmousedown="handlePan(0,-1)"/>
  <use id="arrowright" xlink:href="#arrowRight" x="0" y="0" onmousedown="handlePan(1,0)"/>
  <use id="arrowdown" xlink:href="#arrowDown" x="0" y="0" onmousedown="handlePan(0,1)"/>
  <use id="arrowleft" xlink:href="#arrowLeft" x="0" y="0" onmousedown="handlePan(-1,0)"/>
</g>
<svg viewBox="0 0 15 15" width="100%" height="30px" preserveAspectRatio="xMaxYMin meet">
 <g id="arrow_out" transform="scale(0.3 0.3)">
  <a xlink:href="JeuDeLaVie_8hpp__dep__incl_org.svg" target="_base">
   <rect id="button" ry="5" rx="5" y="6" x="6" height="38" width="38"
        fill="#f2f5e9" fill-opacity="0.5" stroke="#606060" stroke-width="1.0"/>
   <path id="arrow"
     d="M 11.500037,31.436501 C 11.940474,20.09759 22.043105,11.32322 32.158766,21.979434 L 37.068811,17.246167 C 37.068811,17.246167 37.088388,32 37.088388,32 L 22.160133,31.978069 C 22.160133,31.978069 26.997745,27.140456 26.997745,27.140456 C 18.528582,18.264221 13.291696,25.230495 11.500037,31.436501 z"
     style="fill:#404040;"/>
  </a>
 </g>
</svg>

<style type='text/css'>
<![CDATA[
[data-mouse-over-selected='false'] { opacity: 0.7; }
[data-mouse-over-selected='true']  { opacity: 1.0; }
]]>
</style>
<script type="application/ecmascript"><![CDATA[
document.addEventListener('DOMContentLoaded', (event) => {
  highlightEdges();
  highlightAdjacentNodes();
});
]]></script>
</svg>
