<?xml version="1.0" encoding="UTF-8" standalone="no"?>
<!DOCTYPE svg PUBLIC "-//W3C//DTD SVG 1.1//EN"
 "http://www.w3.org/Graphics/SVG/1.1/DTD/svg11.dtd">
<!-- Generated by graphviz version 14.0.2 (20251019.1705)
 -->
<!-- Title: src/main.cpp Pages: 1 -->
<svg width="673pt" height="364pt"
 viewBox="0.00 0.00 673.00 364.00" xmlns="http://www.w3.org/2000/svg" xmlns:xlink="http://www.w3.org/1999/xlink">
<g id="graph0" class="graph" transform="scale(1 1) rotate(0) translate(4 360)">
<title>src/main.cpp</title>
<!-- Node1 -->
<g id="Node000001" class="node">
<title>Node1</title>
<g id="a_Node000001"><a xlink:title=" ">
<polygon fill="#999999" stroke="#666666" points="446.12,-356 373.88,-356 373.88,-336 446.12,-336 446.12,-356"/>
<text xml:space="preserve" text-anchor="middle" x="410" y="-342.5" font-family="Helvetica,sans-Serif" font-size="10.00">src/main.cpp</text>
</a>
</g>
</g>
<!-- Node2 -->
<g id="Node000002" class="node">
<title>Node2</title>
<g id="a_Node000002"><a xlink:href="JeuDeLaVie_8hpp.html" target="_top" xlink:title=" ">
<polygon fill="white" stroke="#666666" points="435,-244 347,-244 347,-224 435,-224 435,-244"/>
<text xml:space="preserve" text-anchor="middle" x="391" y="-230.5" font-family="Helvetica,sans-Serif" font-size="10.00">JeuDeLaVie.hpp</text>
</a>
</g>
</g>
<!-- Node1&#45;&gt;Node2 -->
<g id="edge1_Node000001_Node000002" class="edge">
<title>Node1&#45;&gt;Node2</title>
<g id="a_edge1_Node000001_Node000002"><a xlink:title=" ">
<path fill="none" stroke="#63b8ff" d="M408.38,-335.62C405.34,-318.01 398.7,-279.59 394.57,-255.65"/>
<polygon fill="#63b8ff" stroke="#63b8ff" points="398.02,-255.1 392.87,-245.85 391.13,-256.3 398.02,-255.1"/>
</a>
</g>
</g>
<!-- Node7 -->
<g id="Node000007" class="node">
<title>Node7</title>
<g id="a_Node000007"><a xlink:title=" ">
<polygon fill="#e0e0e0" stroke="#999999" points="96,-20 56,-20 56,0 96,0 96,-20"/>
<text xml:space="preserve" text-anchor="middle" x="76" y="-6.5" font-family="Helvetica,sans-Serif" font-size="10.00">string</text>
</a>
</g>
</g>
<!-- Node1&#45;&gt;Node7 -->
<g id="edge31_Node000001_Node000007" class="edge">
<title>Node1&#45;&gt;Node7</title>
<g id="a_edge31_Node000001_Node000007"><a xlink:title=" ">
<path fill="none" stroke="#63b8ff" d="M373.62,-343.03C273.27,-336.6 0,-312.01 0,-235 0,-235 0,-235 0,-121 0,-82.24 32.34,-47.24 54.83,-27.59"/>
<polygon fill="#63b8ff" stroke="#63b8ff" points="56.87,-30.44 62.29,-21.34 52.37,-25.08 56.87,-30.44"/>
</a>
</g>
</g>
<!-- Node8 -->
<g id="Node000008" class="node">
<title>Node8</title>
<g id="a_Node000008"><a xlink:href="RegleJeu_8hpp.html" target="_top" xlink:title=" ">
<polygon fill="white" stroke="#666666" points="560,-132 484,-132 484,-112 560,-112 560,-132"/>
<text xml:space="preserve" text-anchor="middle" x="522" y="-118.5" font-family="Helvetica,sans-Serif" font-size="10.00">RegleJeu.hpp</text>
</a>
</g>
</g>
<!-- Node1&#45;&gt;Node8 -->
<g id="edge29_Node000001_Node000008" class="edge">
<title>Node1&#45;&gt;Node8</title>
<g id="a_edge29_Node000001_Node000008"><a xlink:title=" ">
<path fill="none" stroke="#63b8ff" d="M414.67,-335.74C431.46,-302.46 489.01,-188.39 512.2,-142.42"/>
<polygon fill="#63b8ff" stroke="#63b8ff" points="515.25,-144.15 516.63,-133.65 509,-141 515.25,-144.15"/>
</a>
</g>
</g>
<!-- Node11 -->
<g id="Node000011" class="node">
<title>Node11</title>
<g id="a_Node000011"><a xlink:href="GestionnaireFichier_8hpp.html" target="_top" xlink:title=" ">
<polygon fill="white" stroke="#666666" points="262.38,-244 143.62,-244 143.62,-224 262.38,-224 262.38,-244"/>
<text xml:space="preserve" text-anchor="middle" x="203" y="-230.5" font-family="Helvetica,sans-Serif" font-size="10.00">GestionnaireFichier.hpp</text>
</a>
</g>
</g>
<!-- Node1&#45;&gt;Node11 -->
<g id="edge18_Node000001_Node000011" class="edge">
<title>Node1&#45;&gt;Node11</title>
<g id="a_edge18_Node000001_Node000011"><a xlink:title=" ">
<path fill="none" stroke="#63b8ff" d="M404.23,-335.55C395.1,-321.39 375.98,-294.77 353,-280 328.57,-264.3 298.43,-253.87 271.58,-247.04"/>
<polygon fill="#63b8ff" stroke="#63b8ff" points="272.71,-243.72 262.17,-244.78 271.07,-250.52 272.71,-243.72"/>
</a>
</g>
</g>
<!-- Node12 -->
<g id="Node000012" class="node">
<title>Node12</title>
<g id="a_Node000012"><a xlink:href="ModeConsole_8hpp.html" target="_top" xlink:title=" ">
<polygon fill="white" stroke="#666666" points="344.38,-300 249.62,-300 249.62,-280 344.38,-280 344.38,-300"/>
<text xml:space="preserve" text-anchor="middle" x="297" y="-286.5" font-family="Helvetica,sans-Serif" font-size="10.00">ModeConsole.hpp</text>
</a>
</g>
</g>
<!-- Node1&#45;&gt;Node12 -->
<g id="edge22_Node000001_Node000012" class="edge">
<title>Node1&#45;&gt;Node12</title>
<g id="a_edge22_Node000001_Node000012"><a xlink:title=" ">
<path fill="none" stroke="#63b8ff" d="M390.32,-335.59C372.84,-327.24 347.05,-314.92 327,-305.34"/>
<polygon fill="#63b8ff" stroke="#63b8ff" points="328.73,-302.29 318.2,-301.13 325.72,-308.6 328.73,-302.29"/>
</a>
</g>
</g>
<!-- Node13 -->
<g id="Node000013" class="node">
<title>Node13</title>
<g id="a_Node000013"><a xlink:href="InterfaceSFML_8hpp.html" target="_top" xlink:title=" ">
<polygon fill="white" stroke="#666666" points="593.62,-300 494.38,-300 494.38,-280 593.62,-280 593.62,-300"/>
<text xml:space="preserve" text-anchor="middle" x="544" y="-286.5" font-family="Helvetica,sans-Serif" font-size="10.00">InterfaceSFML.hpp</text>
</a>
</g>
</g>
<!-- Node1&#45;&gt;Node13 -->
<g id="edge25_Node000001_Node000013" class="edge">
<title>Node1&#45;&gt;Node13</title>
<g id="a_edge25_Node000001_Node000013"><a xlink:title=" ">
<path fill="none" stroke="#63b8ff" d="M433.34,-335.59C454.54,-327.05 486.07,-314.35 510.05,-304.68"/>
<polygon fill="#63b8ff" stroke="#63b8ff" points="511.11,-308.03 519.07,-301.05 508.49,-301.54 511.11,-308.03"/>
</a>
</g>
</g>
<!-- Node15 -->
<g id="Node000015" class="node">
<title>Node15</title>
<g id="a_Node000015"><a xlink:title=" ">
<polygon fill="#e0e0e0" stroke="#999999" points="664.75,-300 611.25,-300 611.25,-280 664.75,-280 664.75,-300"/>
<text xml:space="preserve" text-anchor="middle" x="638" y="-286.5" font-family="Helvetica,sans-Serif" font-size="10.00">iostream</text>
</a>
</g>
</g>
<!-- Node1&#45;&gt;Node15 -->
<g id="edge30_Node000001_Node000015" class="edge">
<title>Node1&#45;&gt;Node15</title>
<g id="a_edge30_Node000001_Node000015"><a xlink:title=" ">
<path fill="none" stroke="#63b8ff" d="M446.34,-336.78C482.9,-328.46 541.19,-315.04 599.92,-300.72"/>
<polygon fill="#63b8ff" stroke="#63b8ff" points="600.53,-304.17 609.41,-298.4 598.87,-297.37 600.53,-304.17"/>
</a>
</g>
</g>
<!-- Node3 -->
<g id="Node000003" class="node">
<title>Node3</title>
<g id="a_Node000003"><a xlink:href="Grille_8hpp.html" target="_top" xlink:title=" ">
<polygon fill="white" stroke="#666666" points="342.62,-188 285.38,-188 285.38,-168 342.62,-168 342.62,-188"/>
<text xml:space="preserve" text-anchor="middle" x="314" y="-174.5" font-family="Helvetica,sans-Serif" font-size="10.00">Grille.hpp</text>
</a>
</g>
</g>
<!-- Node2&#45;&gt;Node3 -->
<g id="edge2_Node000002_Node000003" class="edge">
<title>Node2&#45;&gt;Node3</title>
<g id="a_edge2_Node000002_Node000003"><a xlink:title=" ">
<path fill="none" stroke="#63b8ff" d="M377.59,-223.59C366.39,-215.74 350.19,-204.38 336.94,-195.09"/>
<polygon fill="#63b8ff" stroke="#63b8ff" points="338.95,-192.22 328.76,-189.35 334.93,-197.96 338.95,-192.22"/>
</a>
</g>
</g>
<!-- Node6 -->
<g id="Node000006" class="node">
<title>Node6</title>
<g id="a_Node000006"><a xlink:title=" ">
<polygon fill="#e0e0e0" stroke="#999999" points="353.62,-20 302.38,-20 302.38,0 353.62,0 353.62,-20"/>
<text xml:space="preserve" text-anchor="middle" x="328" y="-6.5" font-family="Helvetica,sans-Serif" font-size="10.00">memory</text>
</a>
</g>
</g>
<!-- Node2&#45;&gt;Node6 -->
<g id="edge15_Node000002_Node000006" class="edge">
<title>Node2&#45;&gt;Node6</title>
<g id="a_edge15_Node000002_Node000006"><a xlink:title=" ">
<path fill="none" stroke="#63b8ff" d="M435.33,-223.78C496.37,-208.64 595.88,-173.86 569,-112 535.51,-34.93 424.3,-16.51 365.38,-12.22"/>
<polygon fill="#63b8ff" stroke="#63b8ff" points="365.7,-8.73 355.5,-11.61 365.27,-15.72 365.7,-8.73"/>
</a>
</g>
</g>
<!-- Node2&#45;&gt;Node7 -->
<g id="edge16_Node000002_Node000007" class="edge">
<title>Node2&#45;&gt;Node7</title>
<g id="a_edge16_Node000002_Node000007"><a xlink:title=" ">
<path fill="none" stroke="#63b8ff" d="M358.44,-223.62C313.43,-209.44 231.41,-179.09 175,-132 138.17,-101.25 105.01,-55.28 88,-29.77"/>
<polygon fill="#63b8ff" stroke="#63b8ff" points="90.97,-27.91 82.57,-21.46 85.11,-31.74 90.97,-27.91"/>
</a>
</g>
</g>
<!-- Node9 -->
<g id="Node000009" class="node">
<title>Node9</title>
<g id="a_Node000009"><a xlink:title=" ">
<polygon fill="#e0e0e0" stroke="#999999" points="477.5,-76 434.5,-76 434.5,-56 477.5,-56 477.5,-76"/>
<text xml:space="preserve" text-anchor="middle" x="456" y="-62.5" font-family="Helvetica,sans-Serif" font-size="10.00">vector</text>
</a>
</g>
</g>
<!-- Node2&#45;&gt;Node9 -->
<g id="edge17_Node000002_Node000009" class="edge">
<title>Node2&#45;&gt;Node9</title>
<g id="a_edge17_Node000002_Node000009"><a xlink:title=" ">
<path fill="none" stroke="#63b8ff" d="M395.77,-223.72C404.68,-206.15 424.11,-166.68 437,-132 442.46,-117.3 447.39,-100.28 450.86,-87.34"/>
<polygon fill="#63b8ff" stroke="#63b8ff" points="454.19,-88.42 453.32,-77.86 447.42,-86.65 454.19,-88.42"/>
</a>
</g>
</g>
<!-- Node10 -->
<g id="Node000010" class="node">
<title>Node10</title>
<g id="a_Node000010"><a xlink:href="Constantes_8hpp.html" target="_top" xlink:title="Configuration centralisée du projet.">
<polygon fill="white" stroke="#666666" points="427.5,-132 342.5,-132 342.5,-112 427.5,-112 427.5,-132"/>
<text xml:space="preserve" text-anchor="middle" x="385" y="-118.5" font-family="Helvetica,sans-Serif" font-size="10.00">Constantes.hpp</text>
</a>
</g>
</g>
<!-- Node2&#45;&gt;Node10 -->
<g id="edge14_Node000002_Node000010" class="edge">
<title>Node2&#45;&gt;Node10</title>
<g id="a_edge14_Node000002_Node000010"><a xlink:title=" ">
<path fill="none" stroke="#63b8ff" d="M390.49,-223.62C389.53,-206.01 387.43,-167.59 386.13,-143.65"/>
<polygon fill="#63b8ff" stroke="#63b8ff" points="389.63,-143.66 385.59,-133.87 382.64,-144.04 389.63,-143.66"/>
</a>
</g>
</g>
<!-- Node4 -->
<g id="Node000004" class="node">
<title>Node4</title>
<g id="a_Node000004"><a xlink:href="Cellule_8hpp.html" target="_top" xlink:title=" ">
<polygon fill="white" stroke="#666666" points="248.38,-132 183.62,-132 183.62,-112 248.38,-112 248.38,-132"/>
<text xml:space="preserve" text-anchor="middle" x="216" y="-118.5" font-family="Helvetica,sans-Serif" font-size="10.00">Cellule.hpp</text>
</a>
</g>
</g>
<!-- Node3&#45;&gt;Node4 -->
<g id="edge3_Node000003_Node000004" class="edge">
<title>Node3&#45;&gt;Node4</title>
<g id="a_edge3_Node000003_Node000004"><a xlink:title=" ">
<path fill="none" stroke="#63b8ff" d="M296.93,-167.59C282.12,-159.44 260.43,-147.48 243.23,-138"/>
<polygon fill="#63b8ff" stroke="#63b8ff" points="244.98,-134.97 234.53,-133.21 241.6,-141.1 244.98,-134.97"/>
</a>
</g>
</g>
<!-- Node3&#45;&gt;Node6 -->
<g id="edge13_Node000003_Node000006" class="edge">
<title>Node3&#45;&gt;Node6</title>
<g id="a_edge13_Node000003_Node000006"><a xlink:title=" ">
<path fill="none" stroke="#63b8ff" d="M314.46,-167.74C315.11,-155.12 316.41,-131.83 318,-112 320.23,-84.2 323.52,-52.18 325.72,-31.77"/>
<polygon fill="#63b8ff" stroke="#63b8ff" points="329.18,-32.28 326.78,-21.96 322.22,-31.53 329.18,-32.28"/>
</a>
</g>
</g>
<!-- Node3&#45;&gt;Node8 -->
<g id="edge8_Node000003_Node000008" class="edge">
<title>Node3&#45;&gt;Node8</title>
<g id="a_edge8_Node000003_Node000008"><a xlink:title=" ">
<path fill="none" stroke="#63b8ff" d="M342.92,-169.49C377,-160.64 434.11,-145.82 474.67,-135.29"/>
<polygon fill="#63b8ff" stroke="#63b8ff" points="475.37,-138.72 484.17,-132.82 473.61,-131.95 475.37,-138.72"/>
</a>
</g>
</g>
<!-- Node3&#45;&gt;Node9 -->
<g id="edge12_Node000003_Node000009" class="edge">
<title>Node3&#45;&gt;Node9</title>
<g id="a_edge12_Node000003_Node000009"><a xlink:title=" ">
<path fill="none" stroke="#63b8ff" d="M314.34,-167.76C315.35,-153.88 319.23,-127.61 334,-112 357.49,-87.18 395.86,-75.98 423.3,-70.97"/>
<polygon fill="#63b8ff" stroke="#63b8ff" points="423.51,-74.48 432.82,-69.42 422.38,-67.57 423.51,-74.48"/>
</a>
</g>
</g>
<!-- Node3&#45;&gt;Node10 -->
<g id="edge11_Node000003_Node000010" class="edge">
<title>Node3&#45;&gt;Node10</title>
<g id="a_edge11_Node000003_Node000010"><a xlink:title=" ">
<path fill="none" stroke="#63b8ff" d="M326.37,-167.59C336.65,-159.77 351.52,-148.46 363.71,-139.19"/>
<polygon fill="#63b8ff" stroke="#63b8ff" points="365.73,-142.05 371.57,-133.21 361.49,-136.48 365.73,-142.05"/>
</a>
</g>
</g>
<!-- Node5 -->
<g id="Node000005" class="node">
<title>Node5</title>
<g id="a_Node000005"><a xlink:href="EtatCellule_8hpp.html" target="_top" xlink:title=" ">
<polygon fill="white" stroke="#666666" points="262.38,-76 179.62,-76 179.62,-56 262.38,-56 262.38,-76"/>
<text xml:space="preserve" text-anchor="middle" x="221" y="-62.5" font-family="Helvetica,sans-Serif" font-size="10.00">EtatCellule.hpp</text>
</a>
</g>
</g>
<!-- Node4&#45;&gt;Node5 -->
<g id="edge4_Node000004_Node000005" class="edge">
<title>Node4&#45;&gt;Node5</title>
<g id="a_edge4_Node000004_Node000005"><a xlink:title=" ">
<path fill="none" stroke="#63b8ff" d="M216.87,-111.59C217.48,-105.01 218.32,-95.96 219.08,-87.73"/>
<polygon fill="#63b8ff" stroke="#63b8ff" points="222.56,-88.09 220,-77.81 215.59,-87.44 222.56,-88.09"/>
</a>
</g>
</g>
<!-- Node4&#45;&gt;Node6 -->
<g id="edge7_Node000004_Node000006" class="edge">
<title>Node4&#45;&gt;Node6</title>
<g id="a_edge7_Node000004_Node000006"><a xlink:title=" ">
<path fill="none" stroke="#63b8ff" d="M228.73,-111.55C240.21,-102.81 257.34,-89.2 271,-76 286.46,-61.06 302.46,-42.49 313.56,-29.03"/>
<polygon fill="#63b8ff" stroke="#63b8ff" points="316.15,-31.4 319.75,-21.43 310.72,-26.98 316.15,-31.4"/>
</a>
</g>
</g>
<!-- Node5&#45;&gt;Node6 -->
<g id="edge5_Node000005_Node000006" class="edge">
<title>Node5&#45;&gt;Node6</title>
<g id="a_edge5_Node000005_Node000006"><a xlink:title=" ">
<path fill="none" stroke="#63b8ff" d="M239.64,-55.59C256.03,-47.32 280.16,-35.14 299.06,-25.6"/>
<polygon fill="#63b8ff" stroke="#63b8ff" points="300.51,-28.79 307.87,-21.16 297.36,-22.54 300.51,-28.79"/>
</a>
</g>
</g>
<!-- Node5&#45;&gt;Node7 -->
<g id="edge6_Node000005_Node000007" class="edge">
<title>Node5&#45;&gt;Node7</title>
<g id="a_edge6_Node000005_Node000007"><a xlink:title=" ">
<path fill="none" stroke="#63b8ff" d="M195.74,-55.59C171.04,-46.39 133.36,-32.36 106.89,-22.5"/>
<polygon fill="#63b8ff" stroke="#63b8ff" points="108.31,-19.3 97.71,-19.09 105.86,-25.86 108.31,-19.3"/>
</a>
</g>
</g>
<!-- Node8&#45;&gt;Node6 -->
<g id="edge10_Node000008_Node000006" class="edge">
<title>Node8&#45;&gt;Node6</title>
<g id="a_edge10_Node000008_Node000006"><a xlink:title=" ">
<path fill="none" stroke="#63b8ff" d="M519.48,-111.51C515.21,-97.29 505.19,-70.6 487,-56 451.82,-27.77 399.88,-17.24 365.03,-13.32"/>
<polygon fill="#63b8ff" stroke="#63b8ff" points="365.72,-9.87 355.43,-12.37 365.04,-16.84 365.72,-9.87"/>
</a>
</g>
</g>
<!-- Node8&#45;&gt;Node9 -->
<g id="edge9_Node000008_Node000009" class="edge">
<title>Node8&#45;&gt;Node9</title>
<g id="a_edge9_Node000008_Node000009"><a xlink:title=" ">
<path fill="none" stroke="#63b8ff" d="M510.5,-111.59C501.04,-103.85 487.4,-92.69 476.13,-83.47"/>
<polygon fill="#63b8ff" stroke="#63b8ff" points="478.49,-80.88 468.54,-77.26 474.06,-86.3 478.49,-80.88"/>
</a>
</g>
</g>
<!-- Node11&#45;&gt;Node3 -->
<g id="edge19_Node000011_Node000003" class="edge">
<title>Node11&#45;&gt;Node3</title>
<g id="a_edge19_Node000011_Node000003"><a xlink:title=" ">
<path fill="none" stroke="#63b8ff" d="M222.33,-223.59C239.42,-215.28 264.6,-203.03 284.25,-193.47"/>
<polygon fill="#63b8ff" stroke="#63b8ff" points="285.69,-196.66 293.15,-189.14 282.63,-190.37 285.69,-196.66"/>
</a>
</g>
</g>
<!-- Node11&#45;&gt;Node6 -->
<g id="edge21_Node000011_Node000006" class="edge">
<title>Node11&#45;&gt;Node6</title>
<g id="a_edge21_Node000011_Node000006"><a xlink:title=" ">
<path fill="none" stroke="#63b8ff" d="M196.96,-223.8C179.25,-195.56 131.16,-108.87 171,-56 185.43,-36.85 249.3,-23.37 291,-16.42"/>
<polygon fill="#63b8ff" stroke="#63b8ff" points="291.3,-19.91 300.62,-14.87 290.19,-13 291.3,-19.91"/>
</a>
</g>
</g>
<!-- Node11&#45;&gt;Node7 -->
<g id="edge20_Node000011_Node000007" class="edge">
<title>Node11&#45;&gt;Node7</title>
<g id="a_edge20_Node000011_Node000007"><a xlink:title=" ">
<path fill="none" stroke="#63b8ff" d="M194.34,-223.74C186.29,-214.9 174.18,-201.04 165,-188 131.86,-140.94 124.5,-128.08 100,-76 93.1,-61.33 86.81,-44.1 82.41,-31.06"/>
<polygon fill="#63b8ff" stroke="#63b8ff" points="85.84,-30.31 79.4,-21.9 79.19,-32.49 85.84,-30.31"/>
</a>
</g>
</g>
<!-- Node12&#45;&gt;Node2 -->
<g id="edge23_Node000012_Node000002" class="edge">
<title>Node12&#45;&gt;Node2</title>
<g id="a_edge23_Node000012_Node000002"><a xlink:title=" ">
<path fill="none" stroke="#63b8ff" d="M313.37,-279.59C327.57,-271.44 348.38,-259.48 364.88,-250"/>
<polygon fill="#63b8ff" stroke="#63b8ff" points="366.26,-253.25 373.19,-245.23 362.77,-247.18 366.26,-253.25"/>
</a>
</g>
</g>
<!-- Node12&#45;&gt;Node7 -->
<g id="edge24_Node000012_Node000007" class="edge">
<title>Node12&#45;&gt;Node7</title>
<g id="a_edge24_Node000012_Node000007"><a xlink:title=" ">
<path fill="none" stroke="#63b8ff" d="M249.19,-289.2C174.36,-286.71 38,-269.74 38,-179 38,-179 38,-179 38,-121 38,-87.77 53.68,-51.85 64.9,-30.4"/>
<polygon fill="#63b8ff" stroke="#63b8ff" points="67.94,-32.12 69.67,-21.66 61.8,-28.76 67.94,-32.12"/>
</a>
</g>
</g>
<!-- Node13&#45;&gt;Node2 -->
<g id="edge26_Node000013_Node000002" class="edge">
<title>Node13&#45;&gt;Node2</title>
<g id="a_edge26_Node000013_Node000002"><a xlink:title=" ">
<path fill="none" stroke="#63b8ff" d="M517.35,-279.59C492.82,-270.94 456.17,-258 428.66,-248.29"/>
<polygon fill="#63b8ff" stroke="#63b8ff" points="429.88,-245.01 419.29,-244.98 427.55,-251.61 429.88,-245.01"/>
</a>
</g>
</g>
<!-- Node13&#45;&gt;Node6 -->
<g id="edge28_Node000013_Node000006" class="edge">
<title>Node13&#45;&gt;Node6</title>
<g id="a_edge28_Node000013_Node000006"><a xlink:title=" ">
<path fill="none" stroke="#63b8ff" d="M563.48,-279.6C577.52,-271.88 595.87,-259.67 607,-244 624.43,-219.46 626,-209.1 626,-179 626,-179 626,-179 626,-121 626,-75.19 587.39,-75.64 546,-56 486.7,-27.87 410.14,-17.26 365.32,-13.3"/>
<polygon fill="#63b8ff" stroke="#63b8ff" points="365.86,-9.83 355.61,-12.52 365.29,-16.81 365.86,-9.83"/>
</a>
</g>
</g>
<!-- Node14 -->
<g id="Node000014" class="node">
<title>Node14</title>
<g id="a_Node000014"><a xlink:title=" ">
<polygon fill="#e0e0e0" stroke="#999999" points="597.5,-244 494.5,-244 494.5,-224 597.5,-224 597.5,-244"/>
<text xml:space="preserve" text-anchor="middle" x="546" y="-230.5" font-family="Helvetica,sans-Serif" font-size="10.00">SFML/Graphics.hpp</text>
</a>
</g>
</g>
<!-- Node13&#45;&gt;Node14 -->
<g id="edge27_Node000013_Node000014" class="edge">
<title>Node13&#45;&gt;Node14</title>
<g id="a_edge27_Node000013_Node000014"><a xlink:title=" ">
<path fill="none" stroke="#63b8ff" d="M544.35,-279.59C544.59,-273.01 544.93,-263.96 545.23,-255.73"/>
<polygon fill="#63b8ff" stroke="#63b8ff" points="548.73,-255.93 545.6,-245.81 541.73,-255.67 548.73,-255.93"/>
</a>
</g>
</g>
</g>
</svg>
