<?xml version="1.0" encoding="UTF-8" standalone="no"?>
<!DOCTYPE svg PUBLIC "-//W3C//DTD SVG 1.1//EN"
 "http://www.w3.org/Graphics/SVG/1.1/DTD/svg11.dtd">
<!-- Generated by graphviz version 14.0.2 (20251019.1705)
 -->
<!-- Title: main Pages: 1 -->
<!--zoomable 397 -->

<svg id="main" version="1.1" xmlns="http://www.w3.org/2000/svg" xmlns:xlink="http://www.w3.org/1999/xlink" xml:space="preserve" onload="init(evt)">

<style type="text/css"><![CDATA[
.node, .edge {opacity: 0.7;}
.node.selected, .edge.selected {opacity: 1;}
.edge:hover path { stroke: red; }
.edge:hover polygon { stroke: red; fill: red; }
]]></style>

<defs>
  <circle id="rim" cx="0" cy="0" r="7"/>
  <circle id="rim2" cx="0" cy="0" r="3.5"/>
  <g id="zoomPlus">
    <use xlink:href="#rim" fill="#404040"><set attributeName="fill" to="#808080" begin="zoomplus.mouseover" end="zoomplus.mouseout"/></use>
    <path d="M-4,0h8M0,-4v8" fill="none" stroke="white" stroke-width="1.5" pointer-events="none"/>
  </g>
  <g id="zoomMin">
    <use xlink:href="#rim" fill="#404040"><set attributeName="fill" to="#808080" begin="zoomminus.mouseover" end="zoomminus.mouseout"/></use>
    <path d="M-4,0h8" fill="none" stroke="white" stroke-width="1.5" pointer-events="none"/>
  </g>
  <g id="arrowUp" transform="translate(30 24)">
    <use xlink:href="#rim"/>
    <path pointer-events="none" fill="none" stroke="white" stroke-width="1.5" d="M0,-3.0v7 M-2.5,-0.5L0,-3.0L2.5,-0.5"/>
  </g>
  <g id="arrowRight" transform="rotate(90) translate(36 -43)">
    <use xlink:href="#rim"/>
    <path pointer-events="none" fill="none" stroke="white" stroke-width="1.5" d="M0,-3.0v7 M-2.5,-0.5L0,-3.0L2.5,-0.5"/>
  </g>
  <g id="arrowDown" transform="rotate(180) translate(-30 -48)">
    <use xlink:href="#rim"/>
    <path pointer-events="none" fill="none" stroke="white" stroke-width="1.5" d="M0,-3.0v7 M-2.5,-0.5L0,-3.0L2.5,-0.5"/>
  </g>
  <g id="arrowLeft" transform="rotate(270) translate(-36 17)">
    <use xlink:href="#rim"/>
    <path pointer-events="none" fill="none" stroke="white" stroke-width="1.5" d="M0,-3.0v7 M-2.5,-0.5L0,-3.0L2.5,-0.5"/>
  </g>
  <g id="resetDef">
    <use xlink:href="#rim2" fill="#404040"><set attributeName="fill" to="#808080" begin="reset.mouseover" end="reset.mouseout"/></use>
  </g>
</defs>
<script type="application/ecmascript">
var viewWidth = 948;
var viewHeight = 397;
var sectionId = 'dynsection-2';
</script>
<script type="application/ecmascript" xlink:href="svg.min.js"/>
<svg id="graph" class="graph">
<g id="viewport">
<title>main</title>
<!-- Node1 -->
<g id="Node000001" class="node">
<title>Node1</title>
<g id="a_Node000001"><a xlink:title="Point d&#39;entrée du programme.">
<polygon fill="#999999" stroke="#666666" points="37,-245 0,-245 0,-225 37,-225 37,-245"/>
<text xml:space="preserve" text-anchor="middle" x="18.5" y="-231.5" font-family="Helvetica,sans-Serif" font-size="10.00">main</text>
</a>
</g>
</g>
<!-- Node2 -->
<g id="Node000002" class="node">
<title>Node2</title>
<g id="a_Node000002"><a xlink:href="main_8cpp.html#a073375ed46d7f2d21c61262a5af52930" target="_top" xlink:title="Affiche l&#39;aide du programme.">
<polygon fill="white" stroke="#666666" points="174.12,-389 107.12,-389 107.12,-369 174.12,-369 174.12,-389"/>
<text xml:space="preserve" text-anchor="middle" x="140.62" y="-375.5" font-family="Helvetica,sans-Serif" font-size="10.00">afficherAide</text>
</a>
</g>
</g>
<!-- Node1&#45;&gt;Node2 -->
<g id="edge1_Node000001_Node000002" class="edge">
<title>Node1&#45;&gt;Node2</title>
<g id="a_edge1_Node000001_Node000002"><a xlink:title=" ">
<path fill="none" stroke="#63b8ff" d="M20.92,-245.49C24.72,-269.47 37.39,-328.64 73,-360 79.46,-365.69 87.53,-369.69 95.79,-372.49"/>
<polygon fill="#63b8ff" stroke="#63b8ff" points="94.61,-375.79 105.18,-375.12 96.49,-369.05 94.61,-375.79"/>
</a>
</g>
</g>
<!-- Node3 -->
<g id="Node000003" class="node">
<title>Node3</title>
<g id="a_Node000003"><a xlink:href="classGestionnaireFichier.html#afcc13514ae0cbdbefac605136c16130f" target="_top" xlink:title="Charge une grille depuis un fichier.">
<polygon fill="white" stroke="#666666" points="190.62,-351 90.62,-351 90.62,-319 190.62,-319 190.62,-351"/>
<text xml:space="preserve" text-anchor="start" x="98.62" y="-337.5" font-family="Helvetica,sans-Serif" font-size="10.00">GestionnaireFichier</text>
<text xml:space="preserve" text-anchor="middle" x="140.62" y="-325.5" font-family="Helvetica,sans-Serif" font-size="10.00">::chargerGrille</text>
</a>
</g>
</g>
<!-- Node1&#45;&gt;Node3 -->
<g id="edge2_Node000001_Node000003" class="edge">
<title>Node1&#45;&gt;Node3</title>
<g id="a_edge2_Node000001_Node000003"><a xlink:title=" ">
<path fill="none" stroke="#63b8ff" d="M24.41,-245.47C32.42,-261.51 49.79,-292.17 73,-310 75.27,-311.75 77.68,-313.38 80.18,-314.91"/>
<polygon fill="#63b8ff" stroke="#63b8ff" points="78.38,-317.92 88.85,-319.58 81.7,-311.75 78.38,-317.92"/>
</a>
</g>
</g>
<!-- Node4 -->
<g id="Node000004" class="node">
<title>Node4</title>
<g id="a_Node000004"><a xlink:href="classGestionnaireFichier.html#aaa46013c4ccdaf794fcee83aae0d9eef" target="_top" xlink:title="Crée le dossier de sortie pour les résultats.">
<polygon fill="white" stroke="#666666" points="192.12,-301 89.12,-301 89.12,-269 192.12,-269 192.12,-301"/>
<text xml:space="preserve" text-anchor="start" x="97.12" y="-287.5" font-family="Helvetica,sans-Serif" font-size="10.00">GestionnaireFichier</text>
<text xml:space="preserve" text-anchor="middle" x="140.62" y="-275.5" font-family="Helvetica,sans-Serif" font-size="10.00">::creerDossierSortie</text>
</a>
</g>
</g>
<!-- Node1&#45;&gt;Node4 -->
<g id="edge3_Node000001_Node000004" class="edge">
<title>Node1&#45;&gt;Node4</title>
<g id="a_edge3_Node000001_Node000004"><a xlink:title=" ">
<path fill="none" stroke="#63b8ff" d="M37.18,-243.68C47.53,-248.66 60.9,-254.91 73,-260 76.52,-261.48 80.17,-262.97 83.85,-264.44"/>
<polygon fill="#63b8ff" stroke="#63b8ff" points="82.28,-267.59 92.87,-267.98 84.84,-261.07 82.28,-267.59"/>
</a>
</g>
</g>
<!-- Node6 -->
<g id="Node000006" class="node">
<title>Node6</title>
<g id="a_Node000006"><a xlink:href="classInterfaceSFML.html#a69764f25f5f9ff4d15f0aa5ab3a0577f" target="_top" xlink:title="Définit le délai entre deux itérations.">
<polygon fill="white" stroke="#666666" points="208.25,-251 73,-251 73,-219 208.25,-219 208.25,-251"/>
<text xml:space="preserve" text-anchor="start" x="81" y="-237.5" font-family="Helvetica,sans-Serif" font-size="10.00">InterfaceSFML::definirDelai</text>
<text xml:space="preserve" text-anchor="middle" x="140.62" y="-225.5" font-family="Helvetica,sans-Serif" font-size="10.00">Iteration</text>
</a>
</g>
</g>
<!-- Node1&#45;&gt;Node6 -->
<g id="edge5_Node000001_Node000006" class="edge">
<title>Node1&#45;&gt;Node6</title>
<g id="a_edge5_Node000001_Node000006"><a xlink:title=" ">
<path fill="none" stroke="#63b8ff" d="M37.48,-235C44.25,-235 52.45,-235 61.22,-235"/>
<polygon fill="#63b8ff" stroke="#63b8ff" points="61.06,-238.5 71.06,-235 61.06,-231.5 61.06,-238.5"/>
</a>
</g>
</g>
<!-- Node7 -->
<g id="Node000007" class="node">
<title>Node7</title>
<g id="a_Node000007"><a xlink:href="classInterfaceQt.html#a6b0e2381d93a6ae2f4f7976b73107f61" target="_top" xlink:title="Lance l&#39;interface.">
<polygon fill="white" stroke="#666666" points="194.75,-201 86.5,-201 86.5,-181 194.75,-181 194.75,-201"/>
<text xml:space="preserve" text-anchor="middle" x="140.62" y="-187.5" font-family="Helvetica,sans-Serif" font-size="10.00">InterfaceQt::executer</text>
</a>
</g>
</g>
<!-- Node1&#45;&gt;Node7 -->
<g id="edge6_Node000001_Node000007" class="edge">
<title>Node1&#45;&gt;Node7</title>
<g id="a_edge6_Node000001_Node000007"><a xlink:title=" ">
<path fill="none" stroke="#63b8ff" d="M37.03,-225.94C47.33,-220.84 60.71,-214.59 73,-210 77.95,-208.15 83.16,-206.38 88.41,-204.71"/>
<polygon fill="#63b8ff" stroke="#63b8ff" points="89.14,-208.14 97.68,-201.87 87.09,-201.45 89.14,-208.14"/>
</a>
</g>
</g>
<!-- Node8 -->
<g id="Node000008" class="node">
<title>Node8</title>
<g id="a_Node000008"><a xlink:href="classInterfaceSFML.html#a518c46fbb99e76a49149d03b900b6cdc" target="_top" xlink:title="Lance la boucle principale de l&#39;interface graphique.">
<polygon fill="white" stroke="#666666" points="202.62,-125 78.62,-125 78.62,-105 202.62,-105 202.62,-125"/>
<text xml:space="preserve" text-anchor="middle" x="140.62" y="-111.5" font-family="Helvetica,sans-Serif" font-size="10.00">InterfaceSFML::executer</text>
</a>
</g>
</g>
<!-- Node1&#45;&gt;Node8 -->
<g id="edge7_Node000001_Node000008" class="edge">
<title>Node1&#45;&gt;Node8</title>
<g id="a_edge7_Node000001_Node000008"><a xlink:title=" ">
<path fill="none" stroke="#63b8ff" d="M22.04,-224.68C27.63,-204.21 42.93,-158.35 73,-134 74.48,-132.8 76.03,-131.68 77.63,-130.63"/>
<polygon fill="#63b8ff" stroke="#63b8ff" points="78.91,-133.92 86.03,-126.07 75.57,-127.77 78.91,-133.92"/>
</a>
</g>
</g>
<!-- Node20 -->
<g id="Node000020" class="node">
<title>Node20</title>
<g id="a_Node000020"><a xlink:href="classModeConsole.html#a79ad19df6d20c391fbaf9a7b4fb2f350" target="_top" xlink:title="Exécute le mode console.">
<polygon fill="white" stroke="#666666" points="200.38,-163 80.88,-163 80.88,-143 200.38,-143 200.38,-163"/>
<text xml:space="preserve" text-anchor="middle" x="140.62" y="-149.5" font-family="Helvetica,sans-Serif" font-size="10.00">ModeConsole::executer</text>
</a>
</g>
</g>
<!-- Node1&#45;&gt;Node20 -->
<g id="edge25_Node000001_Node000020" class="edge">
<title>Node1&#45;&gt;Node20</title>
<g id="a_edge25_Node000001_Node000020"><a xlink:title=" ">
<path fill="none" stroke="#63b8ff" d="M25.39,-224.87C34.05,-210.89 51.53,-185.83 73,-172 75.26,-170.54 77.64,-169.2 80.09,-167.95"/>
<polygon fill="#63b8ff" stroke="#63b8ff" points="81.36,-171.21 89.11,-163.99 78.54,-164.81 81.36,-171.21"/>
</a>
</g>
</g>
<!-- Node5 -->
<g id="Node000005" class="node">
<title>Node5</title>
<g id="a_Node000005"><a xlink:href="classGestionnaireFichier.html#ad2082a763415af83d454839115aa6623" target="_top" xlink:title="Extrait le nom du fichier sans l&#39;extension.">
<polygon fill="white" stroke="#666666" points="378,-301 273.5,-301 273.5,-269 378,-269 378,-301"/>
<text xml:space="preserve" text-anchor="start" x="281.5" y="-287.5" font-family="Helvetica,sans-Serif" font-size="10.00">GestionnaireFichier</text>
<text xml:space="preserve" text-anchor="middle" x="325.75" y="-275.5" font-family="Helvetica,sans-Serif" font-size="10.00">::extraireNomFichier</text>
</a>
</g>
</g>
<!-- Node4&#45;&gt;Node5 -->
<g id="edge4_Node000004_Node000005" class="edge">
<title>Node4&#45;&gt;Node5</title>
<g id="a_edge4_Node000004_Node000005"><a xlink:title=" ">
<path fill="none" stroke="#63b8ff" d="M192.15,-285C213.7,-285 239.08,-285 261.84,-285"/>
<polygon fill="#63b8ff" stroke="#63b8ff" points="261.6,-288.5 271.6,-285 261.6,-281.5 261.6,-288.5"/>
</a>
</g>
</g>
<!-- Node9 -->
<g id="Node000009" class="node">
<title>Node9</title>
<g id="a_Node000009"><a xlink:href="classInterfaceSFML.html#aa50033cc2b996da556fdebca5db2c7ef" target="_top" xlink:title="Met à jour l&#39;affichage.">
<polygon fill="white" stroke="#666666" points="384.75,-146 266.75,-146 266.75,-126 384.75,-126 384.75,-146"/>
<text xml:space="preserve" text-anchor="middle" x="325.75" y="-132.5" font-family="Helvetica,sans-Serif" font-size="10.00">InterfaceSFML::afficher</text>
</a>
</g>
</g>
<!-- Node8&#45;&gt;Node9 -->
<g id="edge8_Node000008_Node000009" class="edge">
<title>Node8&#45;&gt;Node9</title>
<g id="a_edge8_Node000008_Node000009"><a xlink:title=" ">
<path fill="none" stroke="#63b8ff" d="M203.11,-122.05C219.9,-123.98 238.21,-126.08 255.41,-128.05"/>
<polygon fill="#63b8ff" stroke="#63b8ff" points="254.68,-131.49 265.02,-129.15 255.48,-124.53 254.68,-131.49"/>
</a>
</g>
</g>
<!-- Node18 -->
<g id="Node000018" class="node">
<title>Node18</title>
<g id="a_Node000018"><a xlink:href="classInterfaceSFML.html#a20bcd606ad56b9f175bba4a49a4f061a" target="_top" xlink:title="Gère les événements (clavier, souris, fermeture).">
<polygon fill="white" stroke="#666666" points="407.25,-105 244.25,-105 244.25,-85 407.25,-85 407.25,-105"/>
<text xml:space="preserve" text-anchor="middle" x="325.75" y="-91.5" font-family="Helvetica,sans-Serif" font-size="10.00">InterfaceSFML::gererEvenements</text>
</a>
</g>
</g>
<!-- Node8&#45;&gt;Node18 -->
<g id="edge21_Node000008_Node000018" class="edge">
<title>Node8&#45;&gt;Node18</title>
<g id="a_edge21_Node000008_Node000018"><a xlink:title=" ">
<path fill="none" stroke="#63b8ff" d="M203.11,-108.28C212.62,-107.25 222.62,-106.15 232.63,-105.06"/>
<polygon fill="#63b8ff" stroke="#63b8ff" points="232.84,-108.56 242.41,-103.99 232.08,-101.6 232.84,-108.56"/>
</a>
</g>
</g>
<!-- Node10 -->
<g id="Node000010" class="node">
<title>Node10</title>
<g id="a_Node000010"><a xlink:href="classInterfaceSFML.html#a6be07281be6cedd2ea9dde170234630c" target="_top" xlink:title="Dessine la grille.">
<polygon fill="white" stroke="#666666" points="604.75,-184 459,-184 459,-164 604.75,-164 604.75,-184"/>
<text xml:space="preserve" text-anchor="middle" x="531.88" y="-170.5" font-family="Helvetica,sans-Serif" font-size="10.00">InterfaceSFML::dessinerGrille</text>
</a>
</g>
</g>
<!-- Node9&#45;&gt;Node10 -->
<g id="edge9_Node000009_Node000010" class="edge">
<title>Node9&#45;&gt;Node10</title>
<g id="a_edge9_Node000009_Node000010"><a xlink:title=" ">
<path fill="none" stroke="#63b8ff" d="M383.07,-146.48C407.94,-151.12 437.39,-156.6 463.43,-161.44"/>
<polygon fill="#63b8ff" stroke="#63b8ff" points="462.78,-164.88 473.25,-163.27 464.06,-158 462.78,-164.88"/>
</a>
</g>
</g>
<!-- Node17 -->
<g id="Node000017" class="node">
<title>Node17</title>
<g id="a_Node000017"><a xlink:href="classInterfaceSFML.html#a9b5a8e272d8dc3c033e09fde93ac4845" target="_top" xlink:title="Dessine les informations à l&#39;écran.">
<polygon fill="white" stroke="#666666" points="620.5,-146 443.25,-146 443.25,-126 620.5,-126 620.5,-146"/>
<text xml:space="preserve" text-anchor="middle" x="531.88" y="-132.5" font-family="Helvetica,sans-Serif" font-size="10.00">InterfaceSFML::dessinerInformations</text>
</a>
</g>
</g>
<!-- Node9&#45;&gt;Node17 -->
<g id="edge16_Node000009_Node000017" class="edge">
<title>Node9&#45;&gt;Node17</title>
<g id="a_edge16_Node000009_Node000017"><a xlink:title=" ">
<path fill="none" stroke="#63b8ff" d="M385.24,-136C399.75,-136 415.7,-136 431.56,-136"/>
<polygon fill="#63b8ff" stroke="#63b8ff" points="431.56,-139.5 441.56,-136 431.56,-132.5 431.56,-139.5"/>
</a>
</g>
</g>
<!-- Node11 -->
<g id="Node000011" class="node">
<title>Node11</title>
<g id="a_Node000011"><a xlink:href="classCellule.html#a4e34ac281afdba1d793fbd0239022a5e" target="_top" xlink:title="Vérifie si la cellule est un obstacle.">
<polygon fill="white" stroke="#666666" points="772.62,-254 668.12,-254 668.12,-234 772.62,-234 772.62,-254"/>
<text xml:space="preserve" text-anchor="middle" x="720.38" y="-240.5" font-family="Helvetica,sans-Serif" font-size="10.00">Cellule::estObstacle</text>
</a>
</g>
</g>
<!-- Node10&#45;&gt;Node11 -->
<g id="edge10_Node000010_Node000011" class="edge">
<title>Node10&#45;&gt;Node11</title>
<g id="a_edge10_Node000010_Node000011"><a xlink:title=" ">
<path fill="none" stroke="#63b8ff" d="M598.76,-184.4C606.29,-186.72 613.7,-189.55 620.5,-193 639.59,-202.7 637.82,-214.55 656.5,-225 659.3,-226.57 662.24,-228.02 665.26,-229.36"/>
<polygon fill="#63b8ff" stroke="#63b8ff" points="663.75,-232.52 674.34,-232.96 666.33,-226.02 663.75,-232.52"/>
</a>
</g>
</g>
<!-- Node12 -->
<g id="Node000012" class="node">
<title>Node12</title>
<g id="a_Node000012"><a xlink:href="classCellule.html#a70d2731234961e330fe0a31486d1dec7" target="_top" xlink:title="Vérifie si la cellule est vivante.">
<polygon fill="white" stroke="#666666" points="769.62,-216 671.12,-216 671.12,-196 769.62,-196 769.62,-216"/>
<text xml:space="preserve" text-anchor="middle" x="720.38" y="-202.5" font-family="Helvetica,sans-Serif" font-size="10.00">Cellule::estVivante</text>
</a>
</g>
</g>
<!-- Node10&#45;&gt;Node12 -->
<g id="edge11_Node000010_Node000012" class="edge">
<title>Node10&#45;&gt;Node12</title>
<g id="a_edge11_Node000010_Node000012"><a xlink:title=" ">
<path fill="none" stroke="#63b8ff" d="M593.94,-184.48C615.1,-188.11 638.79,-192.17 659.82,-195.78"/>
<polygon fill="#63b8ff" stroke="#63b8ff" points="658.94,-199.18 669.39,-197.42 660.12,-192.28 658.94,-199.18"/>
</a>
</g>
</g>
<!-- Node13 -->
<g id="Node000013" class="node">
<title>Node13</title>
<g id="a_Node000013"><a xlink:href="classGrille.html#aab75610fe73ae48bd035a048c55832f0" target="_top" xlink:title="Obtient une cellule à une position donnée.">
<polygon fill="white" stroke="#666666" points="772.25,-178 668.5,-178 668.5,-158 772.25,-158 772.25,-178"/>
<text xml:space="preserve" text-anchor="middle" x="720.38" y="-164.5" font-family="Helvetica,sans-Serif" font-size="10.00">Grille::obtenirCellule</text>
</a>
</g>
</g>
<!-- Node10&#45;&gt;Node13 -->
<g id="edge12_Node000010_Node000013" class="edge">
<title>Node10&#45;&gt;Node13</title>
<g id="a_edge12_Node000010_Node000013"><a xlink:title=" ">
<path fill="none" stroke="#63b8ff" d="M605.25,-171.67C622.3,-171.12 640.34,-170.54 656.91,-170.01"/>
<polygon fill="#63b8ff" stroke="#63b8ff" points="656.73,-173.52 666.61,-169.7 656.5,-166.52 656.73,-173.52"/>
</a>
</g>
</g>
<!-- Node15 -->
<g id="Node000015" class="node">
<title>Node15</title>
<g id="a_Node000015"><a xlink:href="classGrille.html#a1ab5c8e0ea0d1dc21549c38d0f0f5cf9" target="_top" xlink:title="Obtient le nombre de colonnes.">
<polygon fill="white" stroke="#666666" points="784.25,-140 656.5,-140 656.5,-120 784.25,-120 784.25,-140"/>
<text xml:space="preserve" text-anchor="middle" x="720.38" y="-126.5" font-family="Helvetica,sans-Serif" font-size="10.00">Grille::obtenirNbColonnes</text>
</a>
</g>
</g>
<!-- Node10&#45;&gt;Node15 -->
<g id="edge14_Node000010_Node000015" class="edge">
<title>Node10&#45;&gt;Node15</title>
<g id="a_edge14_Node000010_Node000015"><a xlink:title=" ">
<path fill="none" stroke="#63b8ff" d="M582.53,-163.54C594.95,-160.84 608.23,-157.88 620.5,-155 636.17,-151.32 653.19,-147.1 668.61,-143.19"/>
<polygon fill="#63b8ff" stroke="#63b8ff" points="669.23,-146.64 678.05,-140.78 667.5,-139.86 669.23,-146.64"/>
</a>
</g>
</g>
<!-- Node16 -->
<g id="Node000016" class="node">
<title>Node16</title>
<g id="a_Node000016"><a xlink:href="classGrille.html#a96b5f98d212a0ee9e2f71d73ebe5bb91" target="_top" xlink:title="Obtient le nombre de lignes.">
<polygon fill="white" stroke="#666666" points="777.88,-102 662.88,-102 662.88,-82 777.88,-82 777.88,-102"/>
<text xml:space="preserve" text-anchor="middle" x="720.38" y="-88.5" font-family="Helvetica,sans-Serif" font-size="10.00">Grille::obtenirNbLignes</text>
</a>
</g>
</g>
<!-- Node10&#45;&gt;Node16 -->
<g id="edge15_Node000010_Node000016" class="edge">
<title>Node10&#45;&gt;Node16</title>
<g id="a_edge15_Node000010_Node000016"><a xlink:title=" ">
<path fill="none" stroke="#63b8ff" d="M602.51,-163.52C608.82,-161.22 614.92,-158.41 620.5,-155 642.05,-141.81 635.49,-125.04 656.5,-111 658.58,-109.61 660.76,-108.32 663.02,-107.12"/>
<polygon fill="#63b8ff" stroke="#63b8ff" points="664.26,-110.4 671.9,-103.06 661.35,-104.04 664.26,-110.4"/>
</a>
</g>
</g>
<!-- Node14 -->
<g id="Node000014" class="node">
<title>Node14</title>
<g id="a_Node000014"><a xlink:href="classGrille.html#aa4c9ce36bb4f2c59a83aeb39d73fc285" target="_top" xlink:title="Vérifie si une position est valide dans la grille.">
<polygon fill="white" stroke="#666666" points="939.75,-178 820.25,-178 820.25,-158 939.75,-158 939.75,-178"/>
<text xml:space="preserve" text-anchor="middle" x="880" y="-164.5" font-family="Helvetica,sans-Serif" font-size="10.00">Grille::estPositionValide</text>
</a>
</g>
</g>
<!-- Node13&#45;&gt;Node14 -->
<g id="edge13_Node000013_Node000014" class="edge">
<title>Node13&#45;&gt;Node14</title>
<g id="a_edge13_Node000013_Node000014"><a xlink:title=" ">
<path fill="none" stroke="#63b8ff" d="M772.55,-168C784,-168 796.33,-168 808.41,-168"/>
<polygon fill="#63b8ff" stroke="#63b8ff" points="808.35,-171.5 818.35,-168 808.35,-164.5 808.35,-171.5"/>
</a>
</g>
</g>
<!-- Node17&#45;&gt;Node12 -->
<g id="edge17_Node000017_Node000012" class="edge">
<title>Node17&#45;&gt;Node12</title>
<g id="a_edge17_Node000017_Node000012"><a xlink:title=" ">
<path fill="none" stroke="#63b8ff" d="M598.76,-146.4C606.29,-148.72 613.7,-151.55 620.5,-155 639.59,-164.7 637.82,-176.55 656.5,-187 659.3,-188.57 662.24,-190.02 665.26,-191.36"/>
<polygon fill="#63b8ff" stroke="#63b8ff" points="663.75,-194.52 674.34,-194.96 666.33,-188.02 663.75,-194.52"/>
</a>
</g>
</g>
<!-- Node17&#45;&gt;Node13 -->
<g id="edge18_Node000017_Node000013" class="edge">
<title>Node17&#45;&gt;Node13</title>
<g id="a_edge18_Node000017_Node000013"><a xlink:title=" ">
<path fill="none" stroke="#63b8ff" d="M593.94,-146.48C614.11,-149.94 636.56,-153.79 656.83,-157.27"/>
<polygon fill="#63b8ff" stroke="#63b8ff" points="656.22,-160.71 666.67,-158.96 657.4,-153.82 656.22,-160.71"/>
</a>
</g>
</g>
<!-- Node17&#45;&gt;Node15 -->
<g id="edge19_Node000017_Node000015" class="edge">
<title>Node17&#45;&gt;Node15</title>
<g id="a_edge19_Node000017_Node000015"><a xlink:title=" ">
<path fill="none" stroke="#63b8ff" d="M620.94,-133.17C628.92,-132.91 636.96,-132.65 644.81,-132.4"/>
<polygon fill="#63b8ff" stroke="#63b8ff" points="644.76,-135.9 654.64,-132.08 644.53,-128.91 644.76,-135.9"/>
</a>
</g>
</g>
<!-- Node17&#45;&gt;Node16 -->
<g id="edge20_Node000017_Node000016" class="edge">
<title>Node17&#45;&gt;Node16</title>
<g id="a_edge20_Node000017_Node000016"><a xlink:title=" ">
<path fill="none" stroke="#63b8ff" d="M582.53,-125.54C594.95,-122.84 608.23,-119.88 620.5,-117 636.17,-113.32 653.19,-109.1 668.61,-105.19"/>
<polygon fill="#63b8ff" stroke="#63b8ff" points="669.23,-108.64 678.05,-102.78 667.5,-101.86 669.23,-108.64"/>
</a>
</g>
</g>
<!-- Node19 -->
<g id="Node000019" class="node">
<title>Node19</title>
<g id="a_Node000019"><a xlink:href="classInterfaceSFML.html#af660192fb32e44dfbf073a9d4ec927be" target="_top" xlink:title="Gère les entrées clavier pour placer des motifs.">
<polygon fill="white" stroke="#666666" points="609.25,-108 454.5,-108 454.5,-76 609.25,-76 609.25,-108"/>
<text xml:space="preserve" text-anchor="start" x="462.5" y="-94.5" font-family="Helvetica,sans-Serif" font-size="10.00">InterfaceSFML::gererPlacement</text>
<text xml:space="preserve" text-anchor="middle" x="531.88" y="-82.5" font-family="Helvetica,sans-Serif" font-size="10.00">Motif</text>
</a>
</g>
</g>
<!-- Node18&#45;&gt;Node19 -->
<g id="edge22_Node000018_Node000019" class="edge">
<title>Node18&#45;&gt;Node19</title>
<g id="a_edge22_Node000018_Node000019"><a xlink:title=" ">
<path fill="none" stroke="#63b8ff" d="M407.72,-93.81C419.36,-93.64 431.38,-93.46 443.15,-93.29"/>
<polygon fill="#63b8ff" stroke="#63b8ff" points="442.86,-96.79 452.81,-93.15 442.76,-89.79 442.86,-96.79"/>
</a>
</g>
</g>
<!-- Node19&#45;&gt;Node15 -->
<g id="edge23_Node000019_Node000015" class="edge">
<title>Node19&#45;&gt;Node15</title>
<g id="a_edge23_Node000019_Node000015"><a xlink:title=" ">
<path fill="none" stroke="#63b8ff" d="M609.54,-107.62C625.38,-110.85 641.89,-114.21 657.15,-117.32"/>
<polygon fill="#63b8ff" stroke="#63b8ff" points="656.03,-120.66 666.52,-119.23 657.42,-113.81 656.03,-120.66"/>
</a>
</g>
</g>
<!-- Node19&#45;&gt;Node16 -->
<g id="edge24_Node000019_Node000016" class="edge">
<title>Node19&#45;&gt;Node16</title>
<g id="a_edge24_Node000019_Node000016"><a xlink:title=" ">
<path fill="none" stroke="#63b8ff" d="M609.54,-92C623.35,-92 637.67,-92 651.22,-92"/>
<polygon fill="#63b8ff" stroke="#63b8ff" points="650.88,-95.5 660.88,-92 650.88,-88.5 650.88,-95.5"/>
</a>
</g>
</g>
<!-- Node21 -->
<g id="Node000021" class="node">
<title>Node21</title>
<g id="a_Node000021"><a xlink:href="classModeConsole.html#ae77e7a8e7b14d611164441ecf12d3433" target="_top" xlink:title="Affiche la grille dans la console.">
<polygon fill="white" stroke="#666666" points="599.88,-222 463.88,-222 463.88,-202 599.88,-202 599.88,-222"/>
<text xml:space="preserve" text-anchor="middle" x="531.88" y="-208.5" font-family="Helvetica,sans-Serif" font-size="10.00">ModeConsole::afficherGrille</text>
</a>
</g>
</g>
<!-- Node20&#45;&gt;Node21 -->
<g id="edge26_Node000020_Node000021" class="edge">
<title>Node20&#45;&gt;Node21</title>
<g id="a_edge26_Node000020_Node000021"><a xlink:title=" ">
<path fill="none" stroke="#63b8ff" d="M200.74,-161.96C268.01,-172.16 378.14,-188.85 452.51,-200.12"/>
<polygon fill="#63b8ff" stroke="#63b8ff" points="451.76,-203.55 462.18,-201.59 452.81,-196.63 451.76,-203.55"/>
</a>
</g>
</g>
<!-- Node22 -->
<g id="Node000022" class="node">
<title>Node22</title>
<g id="a_Node000022"><a xlink:href="classModeConsole.html#a75b55e1983d7ca8dbbb4ebec6a68589d" target="_top" xlink:title="Sauvegarde la grille actuelle dans un fichier.">
<polygon fill="white" stroke="#666666" points="393.38,-61 258.12,-61 258.12,-29 393.38,-29 393.38,-61"/>
<text xml:space="preserve" text-anchor="start" x="266.12" y="-47.5" font-family="Helvetica,sans-Serif" font-size="10.00">ModeConsole::sauvegarder</text>
<text xml:space="preserve" text-anchor="middle" x="325.75" y="-35.5" font-family="Helvetica,sans-Serif" font-size="10.00">Iteration</text>
</a>
</g>
</g>
<!-- Node20&#45;&gt;Node22 -->
<g id="edge32_Node000020_Node000022" class="edge">
<title>Node20&#45;&gt;Node22</title>
<g id="a_edge32_Node000020_Node000022"><a xlink:title=" ">
<path fill="none" stroke="#63b8ff" d="M192.98,-142.64C198.42,-140.32 203.64,-137.48 208.25,-134 232.47,-115.72 220.88,-95.35 244.25,-76 248.43,-72.54 253.04,-69.44 257.87,-66.67"/>
<polygon fill="#63b8ff" stroke="#63b8ff" points="259.41,-69.81 266.69,-62.11 256.2,-63.59 259.41,-69.81"/>
</a>
</g>
</g>
<!-- Node21&#45;&gt;Node11 -->
<g id="edge27_Node000021_Node000011" class="edge">
<title>Node21&#45;&gt;Node11</title>
<g id="a_edge27_Node000021_Node000011"><a xlink:title=" ">
<path fill="none" stroke="#63b8ff" d="M593.94,-222.48C614.02,-225.92 636.36,-229.76 656.56,-233.22"/>
<polygon fill="#63b8ff" stroke="#63b8ff" points="655.91,-236.66 666.36,-234.9 657.1,-229.76 655.91,-236.66"/>
</a>
</g>
</g>
<!-- Node21&#45;&gt;Node12 -->
<g id="edge28_Node000021_Node000012" class="edge">
<title>Node21&#45;&gt;Node12</title>
<g id="a_edge28_Node000021_Node000012"><a xlink:title=" ">
<path fill="none" stroke="#63b8ff" d="M600.21,-209.83C619.56,-209.21 640.53,-208.54 659.41,-207.93"/>
<polygon fill="#63b8ff" stroke="#63b8ff" points="659.47,-211.43 669.35,-207.61 659.24,-204.43 659.47,-211.43"/>
</a>
</g>
</g>
<!-- Node21&#45;&gt;Node13 -->
<g id="edge29_Node000021_Node000013" class="edge">
<title>Node21&#45;&gt;Node13</title>
<g id="a_edge29_Node000021_Node000013"><a xlink:title=" ">
<path fill="none" stroke="#63b8ff" d="M582.53,-201.54C594.95,-198.84 608.23,-195.88 620.5,-193 636.17,-189.32 653.19,-185.1 668.61,-181.19"/>
<polygon fill="#63b8ff" stroke="#63b8ff" points="669.23,-184.64 678.05,-178.78 667.5,-177.86 669.23,-184.64"/>
</a>
</g>
</g>
<!-- Node21&#45;&gt;Node15 -->
<g id="edge30_Node000021_Node000015" class="edge">
<title>Node21&#45;&gt;Node15</title>
<g id="a_edge30_Node000021_Node000015"><a xlink:title=" ">
<path fill="none" stroke="#63b8ff" d="M600.25,-202.32C607.36,-199.88 614.26,-196.82 620.5,-193 642.05,-179.81 635.49,-163.04 656.5,-149 658.58,-147.61 660.76,-146.32 663.02,-145.12"/>
<polygon fill="#63b8ff" stroke="#63b8ff" points="664.26,-148.4 671.9,-141.06 661.35,-142.04 664.26,-148.4"/>
</a>
</g>
</g>
<!-- Node21&#45;&gt;Node16 -->
<g id="edge31_Node000021_Node000016" class="edge">
<title>Node21&#45;&gt;Node16</title>
<g id="a_edge31_Node000021_Node000016"><a xlink:title=" ">
<path fill="none" stroke="#63b8ff" d="M600.07,-204.46C607.46,-201.65 614.47,-197.93 620.5,-193 651.32,-167.81 626.72,-137.4 656.5,-111 657.6,-110.02 658.76,-109.09 659.95,-108.21"/>
<polygon fill="#63b8ff" stroke="#63b8ff" points="661.68,-111.25 668.48,-103.13 658.1,-105.24 661.68,-111.25"/>
</a>
</g>
</g>
<!-- Node23 -->
<g id="Node000023" class="node">
<title>Node23</title>
<g id="a_Node000023"><a xlink:href="classGestionnaireFichier.html#a7f617aede460be3b06c7dd842d7e2732" target="_top" xlink:title="Sauvegarde une grille dans un fichier.">
<polygon fill="white" stroke="#666666" points="581.88,-58 481.88,-58 481.88,-26 581.88,-26 581.88,-58"/>
<text xml:space="preserve" text-anchor="start" x="489.88" y="-44.5" font-family="Helvetica,sans-Serif" font-size="10.00">GestionnaireFichier</text>
<text xml:space="preserve" text-anchor="middle" x="531.88" y="-32.5" font-family="Helvetica,sans-Serif" font-size="10.00">::sauvegarderGrille</text>
</a>
</g>
</g>
<!-- Node22&#45;&gt;Node23 -->
<g id="edge33_Node000022_Node000023" class="edge">
<title>Node22&#45;&gt;Node23</title>
<g id="a_edge33_Node000022_Node000023"><a xlink:title=" ">
<path fill="none" stroke="#63b8ff" d="M393.87,-44.01C418.44,-43.65 446.07,-43.25 470.06,-42.89"/>
<polygon fill="#63b8ff" stroke="#63b8ff" points="470.05,-46.39 479.99,-42.75 469.94,-39.4 470.05,-46.39"/>
</a>
</g>
</g>
<!-- Node23&#45;&gt;Node13 -->
<g id="edge34_Node000023_Node000013" class="edge">
<title>Node23&#45;&gt;Node13</title>
<g id="a_edge34_Node000023_Node000013"><a xlink:title=" ">
<path fill="none" stroke="#63b8ff" d="M582.09,-48.09C595.76,-51.77 609.77,-57.64 620.5,-67 650.49,-93.17 626.72,-122.6 656.5,-149 657.6,-149.98 658.76,-150.91 659.95,-151.79"/>
<polygon fill="#63b8ff" stroke="#63b8ff" points="658.1,-154.76 668.48,-156.87 661.68,-148.75 658.1,-154.76"/>
</a>
</g>
</g>
<!-- Node23&#45;&gt;Node15 -->
<g id="edge36_Node000023_Node000015" class="edge">
<title>Node23&#45;&gt;Node15</title>
<g id="a_edge36_Node000023_Node000015"><a xlink:title=" ">
<path fill="none" stroke="#63b8ff" d="M581.98,-50.42C595.19,-54.13 609,-59.44 620.5,-67 641.61,-80.88 635.49,-96.96 656.5,-111 658.58,-112.39 660.76,-113.68 663.02,-114.88"/>
<polygon fill="#63b8ff" stroke="#63b8ff" points="661.35,-117.96 671.9,-118.94 664.26,-111.6 661.35,-117.96"/>
</a>
</g>
</g>
<!-- Node23&#45;&gt;Node16 -->
<g id="edge37_Node000023_Node000016" class="edge">
<title>Node23&#45;&gt;Node16</title>
<g id="a_edge37_Node000023_Node000016"><a xlink:title=" ">
<path fill="none" stroke="#63b8ff" d="M582.36,-55.27C609.3,-62.49 642.54,-71.4 669.53,-78.64"/>
<polygon fill="#63b8ff" stroke="#63b8ff" points="668.27,-81.92 678.83,-81.13 670.08,-75.16 668.27,-81.92"/>
</a>
</g>
</g>
<!-- Node24 -->
<g id="Node000024" class="node">
<title>Node24</title>
<g id="a_Node000024"><a xlink:href="classCellule.html#a4eecc7c38f6d8fa642804d9c7472d05e" target="_top" xlink:title="Obtient l&#39;état actuel de la cellule.">
<polygon fill="white" stroke="#666666" points="770,-58 670.75,-58 670.75,-38 770,-38 770,-58"/>
<text xml:space="preserve" text-anchor="middle" x="720.38" y="-44.5" font-family="Helvetica,sans-Serif" font-size="10.00">Cellule::obtenirEtat</text>
</a>
</g>
</g>
<!-- Node23&#45;&gt;Node24 -->
<g id="edge35_Node000023_Node000024" class="edge">
<title>Node23&#45;&gt;Node24</title>
<g id="a_edge35_Node000023_Node000024"><a xlink:title=" ">
<path fill="none" stroke="#63b8ff" d="M582.36,-43.59C605.84,-44.35 634.1,-45.26 658.84,-46.05"/>
<polygon fill="#63b8ff" stroke="#63b8ff" points="658.68,-49.55 668.79,-46.37 658.91,-42.55 658.68,-49.55"/>
</a>
</g>
</g>
<!-- Node25 -->
<g id="Node000025" class="node">
<title>Node25</title>
<g id="a_Node000025"><a xlink:href="classEtatCellule.html#a951476a3806853a1db9ed7303171162c" target="_top" xlink:title="Obtient la valeur entière de l&#39;état (pour sauvegarder).">
<polygon fill="white" stroke="#666666" points="777.5,-20 663.25,-20 663.25,0 777.5,0 777.5,-20"/>
<text xml:space="preserve" text-anchor="middle" x="720.38" y="-6.5" font-family="Helvetica,sans-Serif" font-size="10.00">EtatCellule::versEntier</text>
</a>
</g>
</g>
<!-- Node23&#45;&gt;Node25 -->
<g id="edge38_Node000023_Node000025" class="edge">
<title>Node23&#45;&gt;Node25</title>
<g id="a_edge38_Node000023_Node000025"><a xlink:title=" ">
<path fill="none" stroke="#63b8ff" d="M582.36,-33.51C603.69,-29.85 628.97,-25.51 651.98,-21.56"/>
<polygon fill="#63b8ff" stroke="#63b8ff" points="652.3,-25.06 661.57,-19.92 651.12,-18.16 652.3,-25.06"/>
</a>
</g>
</g>
</g>
</svg>

<g id="navigator" transform="translate(0 0)" fill="#404254">
  <rect fill="#f2f5e9" fill-opacity="0.5" stroke="#606060" stroke-width=".5" x="0" y="0" width="60" height="60"/>
  <use id="zoomplus" xlink:href="#zoomPlus" x="17" y="9" onmousedown="handleZoom(evt,'in')"/>
  <use id="zoomminus" xlink:href="#zoomMin" x="42" y="9" onmousedown="handleZoom(evt,'out')"/>
  <use id="reset" xlink:href="#resetDef" x="30" y="36" onmousedown="handleReset()"/>
   <use id="arrowup" xlink:href="#arrowUp" x="0" y="0" onmousedown="handlePan(0,-1)"/>
  <use id="arrowright" xlink:href="#arrowRight" x="0" y="0" onmousedown="handlePan(1,0)"/>
  <use id="arrowdown" xlink:href="#arrowDown" x="0" y="0" onmousedown="handlePan(0,1)"/>
  <use id="arrowleft" xlink:href="#arrowLeft" x="0" y="0" onmousedown="handlePan(-1,0)"/>
</g>
<svg viewBox="0 0 15 15" width="100%" height="30px" preserveAspectRatio="xMaxYMin meet">
 <g id="arrow_out" transform="scale(0.3 0.3)">
  <a xlink:href="main_8cpp_a0ddf1224851353fc92bfbff6f499fa97_cgraph_org.svg" target="_base">
   <rect id="button" ry="5" rx="5" y="6" x="6" height="38" width="38"
        fill="#f2f5e9" fill-opacity="0.5" stroke="#606060" stroke-width="1.0"/>
   <path id="arrow"
     d="M 11.500037,31.436501 C 11.940474,20.09759 22.043105,11.32322 32.158766,21.979434 L 37.068811,17.246167 C 37.068811,17.246167 37.088388,32 37.088388,32 L 22.160133,31.978069 C 22.160133,31.978069 26.997745,27.140456 26.997745,27.140456 C 18.528582,18.264221 13.291696,25.230495 11.500037,31.436501 z"
     style="fill:#404040;"/>
  </a>
 </g>
</svg>

<style type='text/css'>
<![CDATA[
[data-mouse-over-selected='false'] { opacity: 0.7; }
[data-mouse-over-selected='true']  { opacity: 1.0; }
]]>
</style>
<script type="application/ecmascript"><![CDATA[
document.addEventListener('DOMContentLoaded', (event) => {
  highlightEdges();
  highlightAdjacentNodes();
});
]]></script>
</svg>
