<?xml version="1.0" encoding="UTF-8" standalone="no"?>
<!DOCTYPE svg PUBLIC "-//W3C//DTD SVG 1.1//EN"
 "http://www.w3.org/Graphics/SVG/1.1/DTD/svg11.dtd">
<!-- Generated by graphviz version 14.0.2 (20251019.1705)
 -->
<!-- Title: Config::CouleurMorteSFML Pages: 1 -->
<svg width="135pt" height="92pt"
 viewBox="0.00 0.00 135.00 92.00" xmlns="http://www.w3.org/2000/svg" xmlns:xlink="http://www.w3.org/1999/xlink">
<g id="graph0" class="graph" transform="scale(1 1) rotate(0) translate(4 88)">
<title>Config::CouleurMorteSFML</title>
<!-- Node1 -->
<g id="Node000001" class="node">
<title>Node1</title>
<g id="a_Node000001"><a xlink:title="Couleur des cellules mortes (blanc).">
<polygon fill="#999999" stroke="none" points="127.25,-84 0,-84 0,0 127.25,0 127.25,-84"/>
<text xml:space="preserve" text-anchor="start" x="4" y="-70.5" font-family="Helvetica,sans-Serif" font-size="10.00">Config::CouleurMorteSFML</text>
<text xml:space="preserve" text-anchor="start" x="29.44" y="-54.5" font-family="Helvetica,sans-Serif" font-size="10.00">+</text>
<text xml:space="preserve" text-anchor="start" x="64.88" y="-54.5" font-family="Helvetica,sans-Serif" font-size="10.00">R</text>
<text xml:space="preserve" text-anchor="start" x="29.44" y="-38.5" font-family="Helvetica,sans-Serif" font-size="10.00">+</text>
<text xml:space="preserve" text-anchor="start" x="64.88" y="-38.5" font-family="Helvetica,sans-Serif" font-size="10.00">G</text>
<text xml:space="preserve" text-anchor="start" x="29.44" y="-22.5" font-family="Helvetica,sans-Serif" font-size="10.00">+</text>
<text xml:space="preserve" text-anchor="start" x="64.88" y="-22.5" font-family="Helvetica,sans-Serif" font-size="10.00">B</text>
<text xml:space="preserve" text-anchor="start" x="62.12" y="-6.5" font-family="Helvetica,sans-Serif" font-size="10.00"> </text>
<polygon fill="#666666" stroke="#666666" points="0,-66 0,-66 127.25,-66 127.25,-66 0,-66"/>
<polygon fill="#666666" stroke="#666666" points="0,-18 0,-18 62.88,-18 62.88,-18 0,-18"/>
<polygon fill="#666666" stroke="#666666" points="62.88,-18 62.88,-18 127.25,-18 127.25,-18 62.88,-18"/>
<polygon fill="none" stroke="#666666" points="0,0 0,-84 127.25,-84 127.25,0 0,0"/>
</a>
</g>
</g>
</g>
</svg>
