<?xml version="1.0" encoding="UTF-8" standalone="no"?>
<!DOCTYPE svg PUBLIC "-//W3C//DTD SVG 1.1//EN"
 "http://www.w3.org/Graphics/SVG/1.1/DTD/svg11.dtd">
<!-- Generated by graphviz version 14.0.2 (20251019.1705)
 -->
<!-- Title: Config::CouleurObstacleSFML Pages: 1 -->
<svg width="150pt" height="92pt"
 viewBox="0.00 0.00 150.00 92.00" xmlns="http://www.w3.org/2000/svg" xmlns:xlink="http://www.w3.org/1999/xlink">
<g id="graph0" class="graph" transform="scale(1 1) rotate(0) translate(4 88)">
<title>Config::CouleurObstacleSFML</title>
<!-- Node1 -->
<g id="Node000001" class="node">
<title>Node1</title>
<g id="a_Node000001"><a xlink:title="Couleur des obstacles (rouge).">
<polygon fill="#999999" stroke="none" points="141.5,-84 0,-84 0,0 141.5,0 141.5,-84"/>
<text xml:space="preserve" text-anchor="start" x="4" y="-70.5" font-family="Helvetica,sans-Serif" font-size="10.00">Config::CouleurObstacleSFML</text>
<text xml:space="preserve" text-anchor="start" x="33" y="-54.5" font-family="Helvetica,sans-Serif" font-size="10.00">+</text>
<text xml:space="preserve" text-anchor="start" x="72" y="-54.5" font-family="Helvetica,sans-Serif" font-size="10.00">R</text>
<text xml:space="preserve" text-anchor="start" x="33" y="-38.5" font-family="Helvetica,sans-Serif" font-size="10.00">+</text>
<text xml:space="preserve" text-anchor="start" x="72" y="-38.5" font-family="Helvetica,sans-Serif" font-size="10.00">G</text>
<text xml:space="preserve" text-anchor="start" x="33" y="-22.5" font-family="Helvetica,sans-Serif" font-size="10.00">+</text>
<text xml:space="preserve" text-anchor="start" x="72" y="-22.5" font-family="Helvetica,sans-Serif" font-size="10.00">B</text>
<text xml:space="preserve" text-anchor="start" x="69.25" y="-6.5" font-family="Helvetica,sans-Serif" font-size="10.00"> </text>
<polygon fill="#666666" stroke="#666666" points="0,-66 0,-66 141.5,-66 141.5,-66 0,-66"/>
<polygon fill="#666666" stroke="#666666" points="0,-18 0,-18 70,-18 70,-18 0,-18"/>
<polygon fill="#666666" stroke="#666666" points="70,-18 70,-18 141.5,-18 141.5,-18 70,-18"/>
<polygon fill="none" stroke="#666666" points="0,0 0,-84 141.5,-84 141.5,0 0,0"/>
</a>
</g>
</g>
</g>
</svg>
