<?xml version="1.0" encoding="UTF-8" standalone="no"?>
<!DOCTYPE svg PUBLIC "-//W3C//DTD SVG 1.1//EN"
 "http://www.w3.org/Graphics/SVG/1.1/DTD/svg11.dtd">
<!-- Generated by graphviz version 14.0.2 (20251019.1705)
 -->
<!-- Title: InterfaceQt::onTimerTick Pages: 1 -->
<svg width="789pt" height="142pt"
 viewBox="0.00 0.00 789.00 142.00" xmlns="http://www.w3.org/2000/svg" xmlns:xlink="http://www.w3.org/1999/xlink">
<g id="graph0" class="graph" transform="scale(1 1) rotate(0) translate(4 138)">
<title>InterfaceQt::onTimerTick</title>
<!-- Node1 -->
<g id="Node000001" class="node">
<title>Node1</title>
<g id="a_Node000001"><a xlink:title="Mise à jour automatique (timer).">
<polygon fill="#999999" stroke="#666666" points="124.75,-77 0,-77 0,-57 124.75,-57 124.75,-77"/>
<text xml:space="preserve" text-anchor="middle" x="62.38" y="-63.5" font-family="Helvetica,sans-Serif" font-size="10.00">InterfaceQt::onTimerTick</text>
</a>
</g>
</g>
<!-- Node2 -->
<g id="Node000002" class="node">
<title>Node2</title>
<g id="a_Node000002"><a xlink:href="classInterfaceQt.html#a06b809d43dbf3814ab103a8d42de319a" target="_top" xlink:title="Met à jour l&#39;affichage.">
<polygon fill="white" stroke="#666666" points="284.75,-83 160.75,-83 160.75,-51 284.75,-51 284.75,-83"/>
<text xml:space="preserve" text-anchor="start" x="168.75" y="-69.5" font-family="Helvetica,sans-Serif" font-size="10.00">InterfaceQt::mettreAJour</text>
<text xml:space="preserve" text-anchor="middle" x="222.75" y="-57.5" font-family="Helvetica,sans-Serif" font-size="10.00">Affichage</text>
</a>
</g>
</g>
<!-- Node1&#45;&gt;Node2 -->
<g id="edge1_Node000001_Node000002" class="edge">
<title>Node1&#45;&gt;Node2</title>
<g id="a_edge1_Node000001_Node000002"><a xlink:title=" ">
<path fill="none" stroke="#63b8ff" d="M125.06,-67C132.97,-67 141.13,-67 149.19,-67"/>
<polygon fill="#63b8ff" stroke="#63b8ff" points="148.98,-70.5 158.98,-67 148.98,-63.5 148.98,-70.5"/>
</a>
</g>
</g>
<!-- Node3 -->
<g id="Node000003" class="node">
<title>Node3</title>
<g id="a_Node000003"><a xlink:href="classInterfaceQt.html#abe5b2e247e50614efbf88402c774899c" target="_top" xlink:title="Compte les cellules vivantes.">
<polygon fill="white" stroke="#666666" points="462,-83 320.75,-83 320.75,-51 462,-51 462,-83"/>
<text xml:space="preserve" text-anchor="start" x="328.75" y="-69.5" font-family="Helvetica,sans-Serif" font-size="10.00">InterfaceQt::compterCellules</text>
<text xml:space="preserve" text-anchor="middle" x="391.38" y="-57.5" font-family="Helvetica,sans-Serif" font-size="10.00">Vivantes</text>
</a>
</g>
</g>
<!-- Node2&#45;&gt;Node3 -->
<g id="edge2_Node000002_Node000003" class="edge">
<title>Node2&#45;&gt;Node3</title>
<g id="a_edge2_Node000002_Node000003"><a xlink:title=" ">
<path fill="none" stroke="#63b8ff" d="M284.85,-67C292.68,-67 300.79,-67 308.87,-67"/>
<polygon fill="#63b8ff" stroke="#63b8ff" points="308.75,-70.5 318.75,-67 308.75,-63.5 308.75,-70.5"/>
</a>
</g>
</g>
<!-- Node4 -->
<g id="Node000004" class="node">
<title>Node4</title>
<g id="a_Node000004"><a xlink:href="classCellule.html#a70d2731234961e330fe0a31486d1dec7" target="_top" xlink:title="Vérifie si la cellule est vivante.">
<polygon fill="white" stroke="#666666" points="611.12,-134 512.62,-134 512.62,-114 611.12,-114 611.12,-134"/>
<text xml:space="preserve" text-anchor="middle" x="561.88" y="-120.5" font-family="Helvetica,sans-Serif" font-size="10.00">Cellule::estVivante</text>
</a>
</g>
</g>
<!-- Node3&#45;&gt;Node4 -->
<g id="edge3_Node000003_Node000004" class="edge">
<title>Node3&#45;&gt;Node4</title>
<g id="a_edge3_Node000003_Node000004"><a xlink:title=" ">
<path fill="none" stroke="#63b8ff" d="M436.39,-83.41C455.28,-90.31 477.65,-98.27 498,-105 503.34,-106.77 508.96,-108.56 514.56,-110.3"/>
<polygon fill="#63b8ff" stroke="#63b8ff" points="513.16,-113.53 523.75,-113.12 515.22,-106.84 513.16,-113.53"/>
</a>
</g>
</g>
<!-- Node5 -->
<g id="Node000005" class="node">
<title>Node5</title>
<g id="a_Node000005"><a xlink:href="classGrille.html#aab75610fe73ae48bd035a048c55832f0" target="_top" xlink:title="Obtient une cellule à une position donnée.">
<polygon fill="white" stroke="#666666" points="613.75,-96 510,-96 510,-76 613.75,-76 613.75,-96"/>
<text xml:space="preserve" text-anchor="middle" x="561.88" y="-82.5" font-family="Helvetica,sans-Serif" font-size="10.00">Grille::obtenirCellule</text>
</a>
</g>
</g>
<!-- Node3&#45;&gt;Node5 -->
<g id="edge4_Node000003_Node000005" class="edge">
<title>Node3&#45;&gt;Node5</title>
<g id="a_edge4_Node000003_Node000005"><a xlink:title=" ">
<path fill="none" stroke="#63b8ff" d="M462.37,-74.89C474.24,-76.23 486.49,-77.61 498.16,-78.93"/>
<polygon fill="#63b8ff" stroke="#63b8ff" points="497.76,-82.41 508.09,-80.05 498.54,-75.45 497.76,-82.41"/>
</a>
</g>
</g>
<!-- Node7 -->
<g id="Node000007" class="node">
<title>Node7</title>
<g id="a_Node000007"><a xlink:href="classGrille.html#a1ab5c8e0ea0d1dc21549c38d0f0f5cf9" target="_top" xlink:title="Obtient le nombre de colonnes.">
<polygon fill="white" stroke="#666666" points="625.75,-58 498,-58 498,-38 625.75,-38 625.75,-58"/>
<text xml:space="preserve" text-anchor="middle" x="561.88" y="-44.5" font-family="Helvetica,sans-Serif" font-size="10.00">Grille::obtenirNbColonnes</text>
</a>
</g>
</g>
<!-- Node3&#45;&gt;Node7 -->
<g id="edge6_Node000003_Node000007" class="edge">
<title>Node3&#45;&gt;Node7</title>
<g id="a_edge6_Node000003_Node000007"><a xlink:title=" ">
<path fill="none" stroke="#63b8ff" d="M462.37,-59.11C470.3,-58.21 478.4,-57.3 486.38,-56.4"/>
<polygon fill="#63b8ff" stroke="#63b8ff" points="486.51,-59.91 496.06,-55.31 485.73,-52.95 486.51,-59.91"/>
</a>
</g>
</g>
<!-- Node8 -->
<g id="Node000008" class="node">
<title>Node8</title>
<g id="a_Node000008"><a xlink:href="classGrille.html#a96b5f98d212a0ee9e2f71d73ebe5bb91" target="_top" xlink:title="Obtient le nombre de lignes.">
<polygon fill="white" stroke="#666666" points="619.38,-20 504.38,-20 504.38,0 619.38,0 619.38,-20"/>
<text xml:space="preserve" text-anchor="middle" x="561.88" y="-6.5" font-family="Helvetica,sans-Serif" font-size="10.00">Grille::obtenirNbLignes</text>
</a>
</g>
</g>
<!-- Node3&#45;&gt;Node8 -->
<g id="edge7_Node000003_Node000008" class="edge">
<title>Node3&#45;&gt;Node8</title>
<g id="a_edge7_Node000003_Node000008"><a xlink:title=" ">
<path fill="none" stroke="#63b8ff" d="M436.39,-50.59C455.28,-43.69 477.65,-35.73 498,-29 503.34,-27.23 508.96,-25.44 514.56,-23.7"/>
<polygon fill="#63b8ff" stroke="#63b8ff" points="515.22,-27.16 523.75,-20.88 513.16,-20.47 515.22,-27.16"/>
</a>
</g>
</g>
<!-- Node6 -->
<g id="Node000006" class="node">
<title>Node6</title>
<g id="a_Node000006"><a xlink:href="classGrille.html#aa4c9ce36bb4f2c59a83aeb39d73fc285" target="_top" xlink:title="Vérifie si une position est valide dans la grille.">
<polygon fill="white" stroke="#666666" points="781.25,-96 661.75,-96 661.75,-76 781.25,-76 781.25,-96"/>
<text xml:space="preserve" text-anchor="middle" x="721.5" y="-82.5" font-family="Helvetica,sans-Serif" font-size="10.00">Grille::estPositionValide</text>
</a>
</g>
</g>
<!-- Node5&#45;&gt;Node6 -->
<g id="edge5_Node000005_Node000006" class="edge">
<title>Node5&#45;&gt;Node6</title>
<g id="a_edge5_Node000005_Node000006"><a xlink:title=" ">
<path fill="none" stroke="#63b8ff" d="M614.05,-86C625.5,-86 637.83,-86 649.91,-86"/>
<polygon fill="#63b8ff" stroke="#63b8ff" points="649.85,-89.5 659.85,-86 649.85,-82.5 649.85,-89.5"/>
</a>
</g>
</g>
</g>
</svg>
