<?xml version="1.0" encoding="UTF-8" standalone="no"?>
<!DOCTYPE svg PUBLIC "-//W3C//DTD SVG 1.1//EN"
 "http://www.w3.org/Graphics/SVG/1.1/DTD/svg11.dtd">
<!-- Generated by graphviz version 14.0.2 (20251019.1705)
 -->
<!-- Title: RegleStandard::compterVoisinsVivants Pages: 1 -->
<svg width="457pt" height="78pt"
 viewBox="0.00 0.00 457.00 78.00" xmlns="http://www.w3.org/2000/svg" xmlns:xlink="http://www.w3.org/1999/xlink">
<g id="graph0" class="graph" transform="scale(1 1) rotate(0) translate(4 74.25)">
<title>RegleStandard::compterVoisinsVivants</title>
<!-- Node1 -->
<g id="Node000001" class="node">
<title>Node1</title>
<g id="a_Node000001"><a xlink:title="Compte le nombre de voisins vivants.">
<polygon fill="#999999" stroke="#666666" points="153.25,-64 0,-64 0,-32 153.25,-32 153.25,-64"/>
<text xml:space="preserve" text-anchor="start" x="8" y="-50.5" font-family="Helvetica,sans-Serif" font-size="10.00">RegleStandard::compterVoisins</text>
<text xml:space="preserve" text-anchor="middle" x="76.62" y="-38.5" font-family="Helvetica,sans-Serif" font-size="10.00">Vivants</text>
</a>
</g>
</g>
<!-- Node2 -->
<g id="Node000002" class="node">
<title>Node2</title>
<g id="a_Node000002"><a xlink:href="classGrille.html#aa4c9ce36bb4f2c59a83aeb39d73fc285" target="_top" xlink:title="Vérifie si une position est valide dans la grille.">
<polygon fill="white" stroke="#666666" points="448.5,-58 329,-58 329,-38 448.5,-38 448.5,-58"/>
<text xml:space="preserve" text-anchor="middle" x="388.75" y="-44.5" font-family="Helvetica,sans-Serif" font-size="10.00">Grille::estPositionValide</text>
</a>
</g>
</g>
<!-- Node1&#45;&gt;Node2 -->
<g id="edge1_Node000001_Node000002" class="edge">
<title>Node1&#45;&gt;Node2</title>
<g id="a_edge1_Node000001_Node000002"><a xlink:title=" ">
<path fill="none" stroke="#63b8ff" d="M153.66,-62.7C165.53,-64.49 177.69,-66.02 189.25,-67 235.2,-70.88 247.11,-71.56 293,-67 306.43,-65.67 320.78,-63.29 334.15,-60.67"/>
<polygon fill="#63b8ff" stroke="#63b8ff" points="334.52,-64.16 343.62,-58.72 333.12,-57.31 334.52,-64.16"/>
</a>
</g>
</g>
<!-- Node3 -->
<g id="Node000003" class="node">
<title>Node3</title>
<g id="a_Node000003"><a xlink:href="classCellule.html#a70d2731234961e330fe0a31486d1dec7" target="_top" xlink:title="Vérifie si la cellule est vivante.">
<polygon fill="white" stroke="#666666" points="290.38,-58 191.88,-58 191.88,-38 290.38,-38 290.38,-58"/>
<text xml:space="preserve" text-anchor="middle" x="241.12" y="-44.5" font-family="Helvetica,sans-Serif" font-size="10.00">Cellule::estVivante</text>
</a>
</g>
</g>
<!-- Node1&#45;&gt;Node3 -->
<g id="edge2_Node000001_Node000003" class="edge">
<title>Node1&#45;&gt;Node3</title>
<g id="a_edge2_Node000001_Node000003"><a xlink:title=" ">
<path fill="none" stroke="#63b8ff" d="M153.64,-48C162.5,-48 171.44,-48 180.05,-48"/>
<polygon fill="#63b8ff" stroke="#63b8ff" points="180.01,-51.5 190.01,-48 180.01,-44.5 180.01,-51.5"/>
</a>
</g>
</g>
<!-- Node4 -->
<g id="Node000004" class="node">
<title>Node4</title>
<g id="a_Node000004"><a xlink:href="classGrille.html#aab75610fe73ae48bd035a048c55832f0" target="_top" xlink:title="Obtient une cellule à une position donnée.">
<polygon fill="white" stroke="#666666" points="293,-20 189.25,-20 189.25,0 293,0 293,-20"/>
<text xml:space="preserve" text-anchor="middle" x="241.12" y="-6.5" font-family="Helvetica,sans-Serif" font-size="10.00">Grille::obtenirCellule</text>
</a>
</g>
</g>
<!-- Node1&#45;&gt;Node4 -->
<g id="edge3_Node000001_Node000004" class="edge">
<title>Node1&#45;&gt;Node4</title>
<g id="a_edge3_Node000001_Node000004"><a xlink:title=" ">
<path fill="none" stroke="#63b8ff" d="M147.95,-31.55C160.18,-28.7 172.73,-25.76 184.49,-23.01"/>
<polygon fill="#63b8ff" stroke="#63b8ff" points="185.07,-26.47 194.01,-20.78 183.47,-19.65 185.07,-26.47"/>
</a>
</g>
</g>
<!-- Node4&#45;&gt;Node2 -->
<g id="edge4_Node000004_Node000002" class="edge">
<title>Node4&#45;&gt;Node2</title>
<g id="a_edge4_Node000004_Node000002"><a xlink:title=" ">
<path fill="none" stroke="#63b8ff" d="M282.3,-20.48C299.1,-24.87 318.81,-30.01 336.62,-34.66"/>
<polygon fill="#63b8ff" stroke="#63b8ff" points="335.68,-38.03 346.24,-37.17 337.45,-31.26 335.68,-38.03"/>
</a>
</g>
</g>
</g>
</svg>
