<?xml version="1.0" encoding="UTF-8" standalone="no"?>
<!DOCTYPE svg PUBLIC "-//W3C//DTD SVG 1.1//EN"
 "http://www.w3.org/Graphics/SVG/1.1/DTD/svg11.dtd">
<!-- Generated by graphviz version 14.0.2 (20251019.1705)
 -->
<!-- Title: InterfaceQt::onPlayPause Pages: 1 -->
<svg width="466pt" height="78pt"
 viewBox="0.00 0.00 466.00 78.00" xmlns="http://www.w3.org/2000/svg" xmlns:xlink="http://www.w3.org/1999/xlink">
<g id="graph0" class="graph" transform="scale(1 1) rotate(0) translate(4 74)">
<title>InterfaceQt::onPlayPause</title>
<!-- Node1 -->
<g id="Node000001" class="node">
<title>Node1</title>
<g id="a_Node000001"><a xlink:title="Gestion du bouton Play/Pause.">
<polygon fill="#999999" stroke="#666666" points="457.5,-42 329,-42 329,-22 457.5,-22 457.5,-42"/>
<text xml:space="preserve" text-anchor="middle" x="393.25" y="-28.5" font-family="Helvetica,sans-Serif" font-size="10.00">InterfaceQt::onPlayPause</text>
</a>
</g>
</g>
<!-- Node2 -->
<g id="Node000002" class="node">
<title>Node2</title>
<g id="a_Node000002"><a xlink:href="classInterfaceQt.html#a08632443206d676198dfd1f7492e7437" target="_top" xlink:title="Initialise les widgets.">
<polygon fill="white" stroke="#666666" points="278.75,-70 169.75,-70 169.75,-38 278.75,-38 278.75,-70"/>
<text xml:space="preserve" text-anchor="start" x="177.75" y="-56.5" font-family="Helvetica,sans-Serif" font-size="10.00">InterfaceQt::initialiser</text>
<text xml:space="preserve" text-anchor="middle" x="224.25" y="-44.5" font-family="Helvetica,sans-Serif" font-size="10.00">Widgets</text>
</a>
</g>
</g>
<!-- Node1&#45;&gt;Node2 -->
<g id="edge1_Node000001_Node000002" class="edge">
<title>Node1&#45;&gt;Node2</title>
<g id="a_edge1_Node000001_Node000002"><a xlink:title=" ">
<path fill="none" stroke="#63b8ff" d="M317.41,-41.86C304.53,-43.56 291.36,-45.29 279.16,-46.9"/>
<polygon fill="#63b8ff" stroke="#63b8ff" points="317.68,-45.35 327.14,-40.58 316.77,-38.41 317.68,-45.35"/>
</a>
</g>
</g>
<!-- Node4 -->
<g id="Node000004" class="node">
<title>Node4</title>
<g id="a_Node000004"><a xlink:href="classInterfaceQt.html#a11edcee9206379725a8e97e68a100e80" target="_top" xlink:title="Gestion des événements clavier.">
<polygon fill="white" stroke="#666666" points="293,-20 155.5,-20 155.5,0 293,0 293,-20"/>
<text xml:space="preserve" text-anchor="middle" x="224.25" y="-6.5" font-family="Helvetica,sans-Serif" font-size="10.00">InterfaceQt::keyPressEvent</text>
</a>
</g>
</g>
<!-- Node1&#45;&gt;Node4 -->
<g id="edge3_Node000001_Node000004" class="edge">
<title>Node1&#45;&gt;Node4</title>
<g id="a_edge3_Node000001_Node000004"><a xlink:title=" ">
<path fill="none" stroke="#63b8ff" d="M317.43,-22.14C309.43,-21.09 301.33,-20.02 293.41,-18.98"/>
<polygon fill="#63b8ff" stroke="#63b8ff" points="316.77,-25.59 327.14,-23.42 317.68,-18.65 316.77,-25.59"/>
</a>
</g>
</g>
<!-- Node3 -->
<g id="Node000003" class="node">
<title>Node3</title>
<g id="a_Node000003"><a xlink:href="classInterfaceQt.html#a0eea8fab1e83d4b90961bd4241fc5689" target="_top" xlink:title="Constructeur de l&#39;interface Qt.">
<polygon fill="white" stroke="#666666" points="119.5,-64 0,-64 0,-44 119.5,-44 119.5,-64"/>
<text xml:space="preserve" text-anchor="middle" x="59.75" y="-50.5" font-family="Helvetica,sans-Serif" font-size="10.00">InterfaceQt::InterfaceQt</text>
</a>
</g>
</g>
<!-- Node2&#45;&gt;Node3 -->
<g id="edge2_Node000002_Node000003" class="edge">
<title>Node2&#45;&gt;Node3</title>
<g id="a_edge2_Node000002_Node000003"><a xlink:title=" ">
<path fill="none" stroke="#63b8ff" d="M158.18,-54C145.56,-54 132.39,-54 119.96,-54"/>
<polygon fill="#63b8ff" stroke="#63b8ff" points="158.08,-57.5 168.08,-54 158.08,-50.5 158.08,-57.5"/>
</a>
</g>
</g>
</g>
</svg>
