<?xml version="1.0" encoding="UTF-8" standalone="no"?>
<!DOCTYPE svg PUBLIC "-//W3C//DTD SVG 1.1//EN"
 "http://www.w3.org/Graphics/SVG/1.1/DTD/svg11.dtd">
<!-- Generated by graphviz version 14.0.2 (20251019.1705)
 -->
<!-- Title: InterfaceSFML::dessinerInformations Pages: 1 -->
<svg width="572pt" height="28pt"
 viewBox="0.00 0.00 572.00 28.00" xmlns="http://www.w3.org/2000/svg" xmlns:xlink="http://www.w3.org/1999/xlink">
<g id="graph0" class="graph" transform="scale(1 1) rotate(0) translate(4 24)">
<title>InterfaceSFML::dessinerInformations</title>
<!-- Node1 -->
<g id="Node000001" class="node">
<title>Node1</title>
<g id="a_Node000001"><a xlink:title="Dessine les informations à l&#39;écran.">
<polygon fill="#999999" stroke="#666666" points="564.25,-20 387,-20 387,0 564.25,0 564.25,-20"/>
<text xml:space="preserve" text-anchor="middle" x="475.62" y="-6.5" font-family="Helvetica,sans-Serif" font-size="10.00">InterfaceSFML::dessinerInformations</text>
</a>
</g>
</g>
<!-- Node2 -->
<g id="Node000002" class="node">
<title>Node2</title>
<g id="a_Node000002"><a xlink:href="classInterfaceSFML.html#aa50033cc2b996da556fdebca5db2c7ef" target="_top" xlink:title="Met à jour l&#39;affichage.">
<polygon fill="white" stroke="#666666" points="351,-20 233,-20 233,0 351,0 351,-20"/>
<text xml:space="preserve" text-anchor="middle" x="292" y="-6.5" font-family="Helvetica,sans-Serif" font-size="10.00">InterfaceSFML::afficher</text>
</a>
</g>
</g>
<!-- Node1&#45;&gt;Node2 -->
<g id="edge1_Node000001_Node000002" class="edge">
<title>Node1&#45;&gt;Node2</title>
<g id="a_edge1_Node000001_Node000002"><a xlink:title=" ">
<path fill="none" stroke="#63b8ff" d="M375.45,-10C367.2,-10 359.04,-10 351.25,-10"/>
<polygon fill="#63b8ff" stroke="#63b8ff" points="375.23,-13.5 385.23,-10 375.23,-6.5 375.23,-13.5"/>
</a>
</g>
</g>
<!-- Node3 -->
<g id="Node000003" class="node">
<title>Node3</title>
<g id="a_Node000003"><a xlink:href="classInterfaceSFML.html#a518c46fbb99e76a49149d03b900b6cdc" target="_top" xlink:title="Lance la boucle principale de l&#39;interface graphique.">
<polygon fill="white" stroke="#666666" points="197,-20 73,-20 73,0 197,0 197,-20"/>
<text xml:space="preserve" text-anchor="middle" x="135" y="-6.5" font-family="Helvetica,sans-Serif" font-size="10.00">InterfaceSFML::executer</text>
</a>
</g>
</g>
<!-- Node2&#45;&gt;Node3 -->
<g id="edge2_Node000002_Node000003" class="edge">
<title>Node2&#45;&gt;Node3</title>
<g id="a_edge2_Node000002_Node000003"><a xlink:title=" ">
<path fill="none" stroke="#63b8ff" d="M221.55,-10C213.47,-10 205.28,-10 197.33,-10"/>
<polygon fill="#63b8ff" stroke="#63b8ff" points="221.33,-13.5 231.33,-10 221.33,-6.5 221.33,-13.5"/>
</a>
</g>
</g>
<!-- Node4 -->
<g id="Node000004" class="node">
<title>Node4</title>
<g id="a_Node000004"><a xlink:href="main_8cpp.html#a0ddf1224851353fc92bfbff6f499fa97" target="_top" xlink:title="Point d&#39;entrée du programme.">
<polygon fill="white" stroke="#666666" points="37,-20 0,-20 0,0 37,0 37,-20"/>
<text xml:space="preserve" text-anchor="middle" x="18.5" y="-6.5" font-family="Helvetica,sans-Serif" font-size="10.00">main</text>
</a>
</g>
</g>
<!-- Node3&#45;&gt;Node4 -->
<g id="edge3_Node000003_Node000004" class="edge">
<title>Node3&#45;&gt;Node4</title>
<g id="a_edge3_Node000003_Node000004"><a xlink:title=" ">
<path fill="none" stroke="#63b8ff" d="M61.32,-10C52.48,-10 44.17,-10 37.32,-10"/>
<polygon fill="#63b8ff" stroke="#63b8ff" points="61.21,-13.5 71.21,-10 61.21,-6.5 61.21,-13.5"/>
</a>
</g>
</g>
</g>
</svg>
