<?xml version="1.0" encoding="UTF-8" standalone="no"?>
<!DOCTYPE svg PUBLIC "-//W3C//DTD SVG 1.1//EN"
 "http://www.w3.org/Graphics/SVG/1.1/DTD/svg11.dtd">
<!-- Generated by graphviz version 14.0.2 (20251019.1705)
 -->
<!-- Title: InterfaceQt::InterfaceQt Pages: 1 -->
<!--zoomable 642 -->

<svg id="main" version="1.1" xmlns="http://www.w3.org/2000/svg" xmlns:xlink="http://www.w3.org/1999/xlink" xml:space="preserve" onload="init(evt)">

<style type="text/css"><![CDATA[
.node, .edge {opacity: 0.7;}
.node.selected, .edge.selected {opacity: 1;}
.edge:hover path { stroke: red; }
.edge:hover polygon { stroke: red; fill: red; }
]]></style>

<defs>
  <circle id="rim" cx="0" cy="0" r="7"/>
  <circle id="rim2" cx="0" cy="0" r="3.5"/>
  <g id="zoomPlus">
    <use xlink:href="#rim" fill="#404040"><set attributeName="fill" to="#808080" begin="zoomplus.mouseover" end="zoomplus.mouseout"/></use>
    <path d="M-4,0h8M0,-4v8" fill="none" stroke="white" stroke-width="1.5" pointer-events="none"/>
  </g>
  <g id="zoomMin">
    <use xlink:href="#rim" fill="#404040"><set attributeName="fill" to="#808080" begin="zoomminus.mouseover" end="zoomminus.mouseout"/></use>
    <path d="M-4,0h8" fill="none" stroke="white" stroke-width="1.5" pointer-events="none"/>
  </g>
  <g id="arrowUp" transform="translate(30 24)">
    <use xlink:href="#rim"/>
    <path pointer-events="none" fill="none" stroke="white" stroke-width="1.5" d="M0,-3.0v7 M-2.5,-0.5L0,-3.0L2.5,-0.5"/>
  </g>
  <g id="arrowRight" transform="rotate(90) translate(36 -43)">
    <use xlink:href="#rim"/>
    <path pointer-events="none" fill="none" stroke="white" stroke-width="1.5" d="M0,-3.0v7 M-2.5,-0.5L0,-3.0L2.5,-0.5"/>
  </g>
  <g id="arrowDown" transform="rotate(180) translate(-30 -48)">
    <use xlink:href="#rim"/>
    <path pointer-events="none" fill="none" stroke="white" stroke-width="1.5" d="M0,-3.0v7 M-2.5,-0.5L0,-3.0L2.5,-0.5"/>
  </g>
  <g id="arrowLeft" transform="rotate(270) translate(-36 17)">
    <use xlink:href="#rim"/>
    <path pointer-events="none" fill="none" stroke="white" stroke-width="1.5" d="M0,-3.0v7 M-2.5,-0.5L0,-3.0L2.5,-0.5"/>
  </g>
  <g id="resetDef">
    <use xlink:href="#rim2" fill="#404040"><set attributeName="fill" to="#808080" begin="reset.mouseover" end="reset.mouseout"/></use>
  </g>
</defs>
<script type="application/ecmascript">
var viewWidth = 1134;
var viewHeight = 642;
var sectionId = 'dynsection-2';
</script>
<script type="application/ecmascript" xlink:href="svg.min.js"/>
<svg id="graph" class="graph">
<g id="viewport">
<title>InterfaceQt::InterfaceQt</title>
<!-- Node1 -->
<g id="Node000001" class="node">
<title>Node1</title>
<g id="a_Node000001"><a xlink:title="Constructeur de l&#39;interface Qt.">
<polygon fill="#999999" stroke="#666666" points="119.5,-467.29 0,-467.29 0,-447.29 119.5,-447.29 119.5,-467.29"/>
<text xml:space="preserve" text-anchor="middle" x="59.75" y="-453.79" font-family="Helvetica,sans-Serif" font-size="10.00">InterfaceQt::InterfaceQt</text>
</a>
</g>
</g>
<!-- Node2 -->
<g id="Node000002" class="node">
<title>Node2</title>
<g id="a_Node000002"><a xlink:href="classInterfaceQt.html#a21cb684077b7b7c71a3099520e43406f" target="_top" xlink:title="Calcule la taille des cellules.">
<polygon fill="white" stroke="#666666" points="799.62,-601.29 672.62,-601.29 672.62,-569.29 799.62,-569.29 799.62,-601.29"/>
<text xml:space="preserve" text-anchor="start" x="680.62" y="-587.79" font-family="Helvetica,sans-Serif" font-size="10.00">InterfaceQt::calculerTaille</text>
<text xml:space="preserve" text-anchor="middle" x="736.12" y="-575.79" font-family="Helvetica,sans-Serif" font-size="10.00">Cellule</text>
</a>
</g>
</g>
<!-- Node1&#45;&gt;Node2 -->
<g id="edge1_Node000001_Node000002" class="edge">
<title>Node1&#45;&gt;Node2</title>
<g id="a_edge1_Node000001_Node000002"><a xlink:title=" ">
<path fill="none" stroke="#63b8ff" d="M86.92,-467.77C105.74,-474.97 131.86,-484.28 155.5,-490.29 334.24,-535.7 549.71,-564.36 660.81,-577.27"/>
<polygon fill="#63b8ff" stroke="#63b8ff" points="660.37,-580.74 670.71,-578.41 661.17,-573.79 660.37,-580.74"/>
</a>
</g>
</g>
<!-- Node3 -->
<g id="Node000003" class="node">
<title>Node3</title>
<g id="a_Node000003"><a xlink:href="classGrille.html#a1ab5c8e0ea0d1dc21549c38d0f0f5cf9" target="_top" xlink:title="Obtient le nombre de colonnes.">
<polygon fill="white" stroke="#666666" points="970.5,-551.29 842.75,-551.29 842.75,-531.29 970.5,-531.29 970.5,-551.29"/>
<text xml:space="preserve" text-anchor="middle" x="906.62" y="-537.79" font-family="Helvetica,sans-Serif" font-size="10.00">Grille::obtenirNbColonnes</text>
</a>
</g>
</g>
<!-- Node1&#45;&gt;Node3 -->
<g id="edge30_Node000001_Node000003" class="edge">
<title>Node1&#45;&gt;Node3</title>
<g id="a_edge30_Node000001_Node000003"><a xlink:title=" ">
<path fill="none" stroke="#63b8ff" d="M71.14,-467.53C109.83,-504.56 250.65,-629.29 391.88,-629.29 391.88,-629.29 391.88,-629.29 568.5,-629.29 674.73,-629.29 706.76,-646.15 806.75,-610.29 837.6,-599.22 867.69,-575.88 886.42,-559.42"/>
<polygon fill="#63b8ff" stroke="#63b8ff" points="888.7,-562.08 893.76,-552.78 884,-556.89 888.7,-562.08"/>
</a>
</g>
</g>
<!-- Node4 -->
<g id="Node000004" class="node">
<title>Node4</title>
<g id="a_Node000004"><a xlink:href="classGrille.html#a96b5f98d212a0ee9e2f71d73ebe5bb91" target="_top" xlink:title="Obtient le nombre de lignes.">
<polygon fill="white" stroke="#666666" points="964.12,-463.29 849.12,-463.29 849.12,-443.29 964.12,-443.29 964.12,-463.29"/>
<text xml:space="preserve" text-anchor="middle" x="906.62" y="-449.79" font-family="Helvetica,sans-Serif" font-size="10.00">Grille::obtenirNbLignes</text>
</a>
</g>
</g>
<!-- Node1&#45;&gt;Node4 -->
<g id="edge31_Node000001_Node000004" class="edge">
<title>Node1&#45;&gt;Node4</title>
<g id="a_edge31_Node000001_Node000004"><a xlink:title=" ">
<path fill="none" stroke="#63b8ff" d="M119.82,-457.01C271.86,-456.29 676,-454.37 837.53,-453.61"/>
<polygon fill="#63b8ff" stroke="#63b8ff" points="837.23,-457.11 847.22,-453.56 837.2,-450.11 837.23,-457.11"/>
</a>
</g>
</g>
<!-- Node5 -->
<g id="Node000005" class="node">
<title>Node5</title>
<g id="a_Node000005"><a xlink:href="classInterfaceQt.html#a47b4ef06b65286c8b1d34ce2687adbce" target="_top" xlink:title="Initialise la mise en page.">
<polygon fill="white" stroke="#666666" points="790.62,-513.29 681.62,-513.29 681.62,-481.29 790.62,-481.29 790.62,-513.29"/>
<text xml:space="preserve" text-anchor="start" x="689.62" y="-499.79" font-family="Helvetica,sans-Serif" font-size="10.00">InterfaceQt::initialiser</text>
<text xml:space="preserve" text-anchor="middle" x="736.12" y="-487.79" font-family="Helvetica,sans-Serif" font-size="10.00">Layout</text>
</a>
</g>
</g>
<!-- Node1&#45;&gt;Node5 -->
<g id="edge4_Node000001_Node000005" class="edge">
<title>Node1&#45;&gt;Node5</title>
<g id="a_edge4_Node000001_Node000005"><a xlink:title=" ">
<path fill="none" stroke="#63b8ff" d="M119.77,-466.95C131.58,-468.62 143.91,-470.17 155.5,-471.29 341.73,-489.17 562.84,-494.79 670.18,-496.53"/>
<polygon fill="#63b8ff" stroke="#63b8ff" points="669.89,-500.02 679.94,-496.68 670,-493.02 669.89,-500.02"/>
</a>
</g>
</g>
<!-- Node6 -->
<g id="Node000006" class="node">
<title>Node6</title>
<g id="a_Node000006"><a xlink:href="classInterfaceQt.html#a08632443206d676198dfd1f7492e7437" target="_top" xlink:title="Initialise les widgets.">
<polygon fill="white" stroke="#666666" points="272.38,-290.29 163.38,-290.29 163.38,-258.29 272.38,-258.29 272.38,-290.29"/>
<text xml:space="preserve" text-anchor="start" x="171.38" y="-276.79" font-family="Helvetica,sans-Serif" font-size="10.00">InterfaceQt::initialiser</text>
<text xml:space="preserve" text-anchor="middle" x="217.88" y="-264.79" font-family="Helvetica,sans-Serif" font-size="10.00">Widgets</text>
</a>
</g>
</g>
<!-- Node1&#45;&gt;Node6 -->
<g id="edge7_Node000001_Node000006" class="edge">
<title>Node1&#45;&gt;Node6</title>
<g id="a_edge7_Node000001_Node000006"><a xlink:title=" ">
<path fill="none" stroke="#63b8ff" d="M69.59,-446.92C93.7,-418.66 161.09,-339.67 195.73,-299.07"/>
<polygon fill="#63b8ff" stroke="#63b8ff" points="198.18,-301.59 202.01,-291.71 192.86,-297.05 198.18,-301.59"/>
</a>
</g>
</g>
<!-- Node10 -->
<g id="Node000010" class="node">
<title>Node10</title>
<g id="a_Node000010"><a xlink:href="classInterfaceQt.html#a06b809d43dbf3814ab103a8d42de319a" target="_top" xlink:title="Met à jour l&#39;affichage.">
<polygon fill="white" stroke="#666666" points="629.5,-359.29 505.5,-359.29 505.5,-327.29 629.5,-327.29 629.5,-359.29"/>
<text xml:space="preserve" text-anchor="start" x="513.5" y="-345.79" font-family="Helvetica,sans-Serif" font-size="10.00">InterfaceQt::mettreAJour</text>
<text xml:space="preserve" text-anchor="middle" x="567.5" y="-333.79" font-family="Helvetica,sans-Serif" font-size="10.00">Affichage</text>
</a>
</g>
</g>
<!-- Node1&#45;&gt;Node10 -->
<g id="edge29_Node000001_Node000010" class="edge">
<title>Node1&#45;&gt;Node10</title>
<g id="a_edge29_Node000001_Node000010"><a xlink:title=" ">
<path fill="none" stroke="#63b8ff" d="M63.25,-447.13C77,-393.87 149,-146.32 316.25,-72.29 378.53,-44.72 413.81,-33.07 469.5,-72.29 550.01,-128.98 564.05,-258.95 566.25,-315.81"/>
<polygon fill="#63b8ff" stroke="#63b8ff" points="562.74,-315.67 566.52,-325.57 569.74,-315.48 562.74,-315.67"/>
</a>
</g>
</g>
<!-- Node21 -->
<g id="Node000021" class="node">
<title>Node21</title>
<g id="a_Node000021"><a xlink:href="classInterfaceQt.html#abe1c50d3e3b80f6adecb9bf0cb9fca4c" target="_top" xlink:title="Mise à jour automatique (timer).">
<polygon fill="white" stroke="#666666" points="280.25,-25.29 155.5,-25.29 155.5,-5.29 280.25,-5.29 280.25,-25.29"/>
<text xml:space="preserve" text-anchor="middle" x="217.88" y="-11.79" font-family="Helvetica,sans-Serif" font-size="10.00">InterfaceQt::onTimerTick</text>
</a>
</g>
</g>
<!-- Node1&#45;&gt;Node21 -->
<g id="edge32_Node000001_Node000021" class="edge">
<title>Node1&#45;&gt;Node21</title>
<g id="a_edge32_Node000001_Node000021"><a xlink:title=" ">
<path fill="none" stroke="#63b8ff" d="M61.8,-446.86C67.82,-388.63 99.81,-104.01 155.5,-39.29 158.08,-36.29 161.08,-33.66 164.34,-31.37"/>
<polygon fill="#63b8ff" stroke="#63b8ff" points="165.88,-34.52 172.78,-26.47 162.37,-28.46 165.88,-34.52"/>
</a>
</g>
</g>
<!-- Node2&#45;&gt;Node3 -->
<g id="edge2_Node000002_Node000003" class="edge">
<title>Node2&#45;&gt;Node3</title>
<g id="a_edge2_Node000002_Node000003"><a xlink:title=" ">
<path fill="none" stroke="#63b8ff" d="M799.87,-568.9C817.91,-564.19 837.35,-559.11 854.59,-554.61"/>
<polygon fill="#63b8ff" stroke="#63b8ff" points="855.31,-558.04 864.1,-552.13 853.54,-551.27 855.31,-558.04"/>
</a>
</g>
</g>
<!-- Node2&#45;&gt;Node4 -->
<g id="edge3_Node000002_Node000004" class="edge">
<title>Node2&#45;&gt;Node4</title>
<g id="a_edge3_Node000002_Node000004"><a xlink:title=" ">
<path fill="none" stroke="#63b8ff" d="M758.12,-568.83C790.24,-543.67 851.26,-495.87 883.84,-470.35"/>
<polygon fill="#63b8ff" stroke="#63b8ff" points="885.7,-473.34 891.41,-464.42 881.38,-467.83 885.7,-473.34"/>
</a>
</g>
</g>
<!-- Node5&#45;&gt;Node3 -->
<g id="edge5_Node000005_Node000003" class="edge">
<title>Node5&#45;&gt;Node3</title>
<g id="a_edge5_Node000005_Node000003"><a xlink:title=" ">
<path fill="none" stroke="#63b8ff" d="M790.9,-511.33C811.21,-516.63 834.24,-522.64 854.31,-527.89"/>
<polygon fill="#63b8ff" stroke="#63b8ff" points="853.41,-531.27 863.97,-530.41 855.17,-524.49 853.41,-531.27"/>
</a>
</g>
</g>
<!-- Node5&#45;&gt;Node4 -->
<g id="edge6_Node000005_Node000004" class="edge">
<title>Node5&#45;&gt;Node4</title>
<g id="a_edge6_Node000005_Node000004"><a xlink:title=" ">
<path fill="none" stroke="#63b8ff" d="M790.9,-483.24C811.21,-477.94 834.24,-471.93 854.31,-466.69"/>
<polygon fill="#63b8ff" stroke="#63b8ff" points="855.17,-470.08 863.97,-464.16 853.41,-463.3 855.17,-470.08"/>
</a>
</g>
</g>
<!-- Node7 -->
<g id="Node000007" class="node">
<title>Node7</title>
<g id="a_Node000007"><a xlink:href="classInterfaceQt.html#a91750f9bfd30320a5b8e2d6a0fb7fa4d" target="_top" xlink:title="Change le nombre d&#39;itérations maximum.">
<polygon fill="white" stroke="#666666" points="451.12,-315.29 334.62,-315.29 334.62,-283.29 451.12,-283.29 451.12,-315.29"/>
<text xml:space="preserve" text-anchor="start" x="342.62" y="-301.79" font-family="Helvetica,sans-Serif" font-size="10.00">InterfaceQt::onIteration</text>
<text xml:space="preserve" text-anchor="middle" x="392.88" y="-289.79" font-family="Helvetica,sans-Serif" font-size="10.00">MaxChanged</text>
</a>
</g>
</g>
<!-- Node6&#45;&gt;Node7 -->
<g id="edge8_Node000006_Node000007" class="edge">
<title>Node6&#45;&gt;Node7</title>
<g id="a_edge8_Node000006_Node000007"><a xlink:title=" ">
<path fill="none" stroke="#63b8ff" d="M272.66,-282.06C288.54,-284.35 306.14,-286.9 322.84,-289.31"/>
<polygon fill="#63b8ff" stroke="#63b8ff" points="322.32,-292.77 332.72,-290.74 323.32,-285.84 322.32,-292.77"/>
</a>
</g>
</g>
<!-- Node8 -->
<g id="Node000008" class="node">
<title>Node8</title>
<g id="a_Node000008"><a xlink:href="classInterfaceQt.html#a3c06b01e3faf996c40d9dc8916b7ad1f" target="_top" xlink:title="Toggle parallélisation.">
<polygon fill="white" stroke="#666666" points="452.25,-265.29 333.5,-265.29 333.5,-233.29 452.25,-233.29 452.25,-265.29"/>
<text xml:space="preserve" text-anchor="start" x="341.5" y="-251.79" font-family="Helvetica,sans-Serif" font-size="10.00">InterfaceQt::onParallele</text>
<text xml:space="preserve" text-anchor="middle" x="392.88" y="-239.79" font-family="Helvetica,sans-Serif" font-size="10.00">Changed</text>
</a>
</g>
</g>
<!-- Node6&#45;&gt;Node8 -->
<g id="edge9_Node000006_Node000008" class="edge">
<title>Node6&#45;&gt;Node8</title>
<g id="a_edge9_Node000006_Node000008"><a xlink:title=" ">
<path fill="none" stroke="#63b8ff" d="M272.66,-266.51C288.22,-264.26 305.43,-261.78 321.82,-259.41"/>
<polygon fill="#63b8ff" stroke="#63b8ff" points="322.11,-262.9 331.51,-258.01 321.11,-255.98 322.11,-262.9"/>
</a>
</g>
</g>
<!-- Node9 -->
<g id="Node000009" class="node">
<title>Node9</title>
<g id="a_Node000009"><a xlink:href="classInterfaceQt.html#a280bb380e08e13ec39b8dca2ae917950" target="_top" xlink:title="Place un motif.">
<polygon fill="white" stroke="#666666" points="458.25,-429.29 327.5,-429.29 327.5,-409.29 458.25,-409.29 458.25,-429.29"/>
<text xml:space="preserve" text-anchor="middle" x="392.88" y="-415.79" font-family="Helvetica,sans-Serif" font-size="10.00">InterfaceQt::onPlacerMotif</text>
</a>
</g>
</g>
<!-- Node6&#45;&gt;Node9 -->
<g id="edge10_Node000006_Node000009" class="edge">
<title>Node6&#45;&gt;Node9</title>
<g id="a_edge10_Node000006_Node000009"><a xlink:title=" ">
<path fill="none" stroke="#63b8ff" d="M226.86,-290.64C240.97,-317.79 272.99,-371.97 316.25,-400.29 318.37,-401.67 320.58,-402.95 322.86,-404.15"/>
<polygon fill="#63b8ff" stroke="#63b8ff" points="321.28,-407.27 331.84,-408.17 324.14,-400.89 321.28,-407.27"/>
</a>
</g>
</g>
<!-- Node15 -->
<g id="Node000015" class="node">
<title>Node15</title>
<g id="a_Node000015"><a xlink:href="classInterfaceQt.html#a7a4a2f568e5489965eee2dc49dc27161" target="_top" xlink:title="Gestion du bouton Play/Pause.">
<polygon fill="white" stroke="#666666" points="457.12,-177.29 328.62,-177.29 328.62,-157.29 457.12,-157.29 457.12,-177.29"/>
<text xml:space="preserve" text-anchor="middle" x="392.88" y="-163.79" font-family="Helvetica,sans-Serif" font-size="10.00">InterfaceQt::onPlayPause</text>
</a>
</g>
</g>
<!-- Node6&#45;&gt;Node15 -->
<g id="edge20_Node000006_Node000015" class="edge">
<title>Node6&#45;&gt;Node15</title>
<g id="a_edge20_Node000006_Node000015"><a xlink:title=" ">
<path fill="none" stroke="#63b8ff" d="M232.28,-258.04C249.61,-238.13 281.68,-204.75 316.25,-186.29 319.47,-184.56 322.86,-182.99 326.34,-181.56"/>
<polygon fill="#63b8ff" stroke="#63b8ff" points="327.36,-184.92 335.55,-178.19 324.95,-178.34 327.36,-184.92"/>
</a>
</g>
</g>
<!-- Node16 -->
<g id="Node000016" class="node">
<title>Node16</title>
<g id="a_Node000016"><a xlink:href="classInterfaceQt.html#af564176618a18f272b92be6bfd9d029d" target="_top" xlink:title="Réinitialise la simulation.">
<polygon fill="white" stroke="#666666" points="446.62,-215.29 339.12,-215.29 339.12,-195.29 446.62,-195.29 446.62,-215.29"/>
<text xml:space="preserve" text-anchor="middle" x="392.88" y="-201.79" font-family="Helvetica,sans-Serif" font-size="10.00">InterfaceQt::onReset</text>
</a>
</g>
</g>
<!-- Node6&#45;&gt;Node16 -->
<g id="edge21_Node000006_Node000016" class="edge">
<title>Node6&#45;&gt;Node16</title>
<g id="a_edge21_Node000006_Node000016"><a xlink:title=" ">
<path fill="none" stroke="#63b8ff" d="M246.64,-257.87C265.71,-247.14 291.89,-233.46 316.25,-224.29 321.5,-222.31 327.03,-220.47 332.62,-218.79"/>
<polygon fill="#63b8ff" stroke="#63b8ff" points="333.25,-222.25 341.9,-216.14 331.33,-215.51 333.25,-222.25"/>
</a>
</g>
</g>
<!-- Node17 -->
<g id="Node000017" class="node">
<title>Node17</title>
<g id="a_Node000017"><a xlink:href="classInterfaceQt.html#a1c1b614c51a456e7b5f407724df14f38" target="_top" xlink:title="Avance d&#39;une itération.">
<polygon fill="white" stroke="#666666" points="443.62,-391.29 342.12,-391.29 342.12,-371.29 443.62,-371.29 443.62,-391.29"/>
<text xml:space="preserve" text-anchor="middle" x="392.88" y="-377.79" font-family="Helvetica,sans-Serif" font-size="10.00">InterfaceQt::onStep</text>
</a>
</g>
</g>
<!-- Node6&#45;&gt;Node17 -->
<g id="edge23_Node000006_Node000017" class="edge">
<title>Node6&#45;&gt;Node17</title>
<g id="a_edge23_Node000006_Node000017"><a xlink:title=" ">
<path fill="none" stroke="#63b8ff" d="M232.28,-290.53C249.61,-310.44 281.68,-343.82 316.25,-362.29 320.93,-364.78 325.95,-366.96 331.09,-368.86"/>
<polygon fill="#63b8ff" stroke="#63b8ff" points="329.73,-372.1 340.32,-371.9 331.92,-365.45 329.73,-372.1"/>
</a>
</g>
</g>
<!-- Node18 -->
<g id="Node000018" class="node">
<title>Node18</title>
<g id="a_Node000018"><a xlink:href="classInterfaceQt.html#abe7956e622104a15a5de0b3f8c84921d" target="_top" xlink:title="Recule d&#39;une itération.">
<polygon fill="white" stroke="#666666" points="454.88,-353.29 330.88,-353.29 330.88,-333.29 454.88,-333.29 454.88,-353.29"/>
<text xml:space="preserve" text-anchor="middle" x="392.88" y="-339.79" font-family="Helvetica,sans-Serif" font-size="10.00">InterfaceQt::onStepBack</text>
</a>
</g>
</g>
<!-- Node6&#45;&gt;Node18 -->
<g id="edge25_Node000006_Node000018" class="edge">
<title>Node6&#45;&gt;Node18</title>
<g id="a_edge25_Node000006_Node000018"><a xlink:title=" ">
<path fill="none" stroke="#63b8ff" d="M246.64,-290.7C265.71,-301.43 291.89,-315.11 316.25,-324.29 321.5,-326.26 327.03,-328.1 332.62,-329.78"/>
<polygon fill="#63b8ff" stroke="#63b8ff" points="331.33,-333.06 341.9,-332.43 333.25,-326.33 331.33,-333.06"/>
</a>
</g>
</g>
<!-- Node19 -->
<g id="Node000019" class="node">
<title>Node19</title>
<g id="a_Node000019"><a xlink:href="classInterfaceQt.html#ac5397f8a5866fe16768cf7b19578d6e6" target="_top" xlink:title="Toggle mode torique.">
<polygon fill="white" stroke="#666666" points="468.75,-139.29 317,-139.29 317,-119.29 468.75,-119.29 468.75,-139.29"/>
<text xml:space="preserve" text-anchor="middle" x="392.88" y="-125.79" font-family="Helvetica,sans-Serif" font-size="10.00">InterfaceQt::onToriqueChanged</text>
</a>
</g>
</g>
<!-- Node6&#45;&gt;Node19 -->
<g id="edge27_Node000006_Node000019" class="edge">
<title>Node6&#45;&gt;Node19</title>
<g id="a_edge27_Node000006_Node000019"><a xlink:title=" ">
<path fill="none" stroke="#63b8ff" d="M226.86,-257.93C240.97,-230.78 272.99,-176.6 316.25,-148.29 318.37,-146.9 320.58,-145.62 322.86,-144.42"/>
<polygon fill="#63b8ff" stroke="#63b8ff" points="324.14,-147.68 331.84,-140.4 321.28,-141.3 324.14,-147.68"/>
</a>
</g>
</g>
<!-- Node20 -->
<g id="Node000020" class="node">
<title>Node20</title>
<g id="a_Node000020"><a xlink:href="classInterfaceQt.html#aced0a3719ad775ff3d2297950c5352a6" target="_top" xlink:title="Change la vitesse.">
<polygon fill="white" stroke="#666666" points="469.5,-101.29 316.25,-101.29 316.25,-81.29 469.5,-81.29 469.5,-101.29"/>
<text xml:space="preserve" text-anchor="middle" x="392.88" y="-87.79" font-family="Helvetica,sans-Serif" font-size="10.00">InterfaceQt::onVitesseChanged</text>
</a>
</g>
</g>
<!-- Node6&#45;&gt;Node20 -->
<g id="edge28_Node000006_Node000020" class="edge">
<title>Node6&#45;&gt;Node20</title>
<g id="a_edge28_Node000006_Node000020"><a xlink:title=" ">
<path fill="none" stroke="#63b8ff" d="M223.84,-257.87C234.78,-224.6 264.21,-149.07 316.25,-110.29 318,-108.98 319.83,-107.76 321.72,-106.63"/>
<polygon fill="#63b8ff" stroke="#63b8ff" points="322.93,-109.95 330.28,-102.31 319.77,-103.7 322.93,-109.95"/>
</a>
</g>
</g>
<!-- Node9&#45;&gt;Node3 -->
<g id="edge18_Node000009_Node000003" class="edge">
<title>Node9&#45;&gt;Node3</title>
<g id="a_edge18_Node000009_Node000003"><a xlink:title=" ">
<path fill="none" stroke="#63b8ff" d="M415.06,-429.71C459.96,-451.27 568.56,-500.53 665.5,-522.29 720.07,-534.53 783.15,-539.16 830.96,-540.8"/>
<polygon fill="#63b8ff" stroke="#63b8ff" points="830.84,-544.3 840.95,-541.1 831.06,-537.3 830.84,-544.3"/>
</a>
</g>
</g>
<!-- Node9&#45;&gt;Node4 -->
<g id="edge19_Node000009_Node000004" class="edge">
<title>Node9&#45;&gt;Node4</title>
<g id="a_edge19_Node000009_Node000004"><a xlink:title=" ">
<path fill="none" stroke="#63b8ff" d="M458.73,-420.58C540.15,-422.63 684.05,-427.65 806.75,-439.29 816.76,-440.23 827.32,-441.47 837.65,-442.82"/>
<polygon fill="#63b8ff" stroke="#63b8ff" points="836.86,-446.25 847.24,-444.11 837.8,-439.31 836.86,-446.25"/>
</a>
</g>
</g>
<!-- Node9&#45;&gt;Node10 -->
<g id="edge11_Node000009_Node000010" class="edge">
<title>Node9&#45;&gt;Node10</title>
<g id="a_edge11_Node000009_Node000010"><a xlink:title=" ">
<path fill="none" stroke="#63b8ff" d="M444.15,-408.79C452.75,-406.4 461.48,-403.57 469.5,-400.29 491.92,-391.1 515.38,-377.44 533.62,-365.79"/>
<polygon fill="#63b8ff" stroke="#63b8ff" points="535.43,-368.78 541.9,-360.39 531.61,-362.92 535.43,-368.78"/>
</a>
</g>
</g>
<!-- Node11 -->
<g id="Node000011" class="node">
<title>Node11</title>
<g id="a_Node000011"><a xlink:href="classInterfaceQt.html#abe5b2e247e50614efbf88402c774899c" target="_top" xlink:title="Compte les cellules vivantes.">
<polygon fill="white" stroke="#666666" points="806.75,-387.29 665.5,-387.29 665.5,-355.29 806.75,-355.29 806.75,-387.29"/>
<text xml:space="preserve" text-anchor="start" x="673.5" y="-373.79" font-family="Helvetica,sans-Serif" font-size="10.00">InterfaceQt::compterCellules</text>
<text xml:space="preserve" text-anchor="middle" x="736.12" y="-361.79" font-family="Helvetica,sans-Serif" font-size="10.00">Vivantes</text>
</a>
</g>
</g>
<!-- Node10&#45;&gt;Node11 -->
<g id="edge12_Node000010_Node000011" class="edge">
<title>Node10&#45;&gt;Node11</title>
<g id="a_edge12_Node000010_Node000011"><a xlink:title=" ">
<path fill="none" stroke="#63b8ff" d="M629.6,-353.55C637.52,-354.88 645.72,-356.26 653.9,-357.64"/>
<polygon fill="#63b8ff" stroke="#63b8ff" points="653.08,-361.05 663.52,-359.25 654.24,-354.14 653.08,-361.05"/>
</a>
</g>
</g>
<!-- Node11&#45;&gt;Node3 -->
<g id="edge16_Node000011_Node000003" class="edge">
<title>Node11&#45;&gt;Node3</title>
<g id="a_edge16_Node000011_Node000003"><a xlink:title=" ">
<path fill="none" stroke="#63b8ff" d="M753.28,-387.59C784.89,-419.47 854.68,-489.89 887.68,-523.18"/>
<polygon fill="#63b8ff" stroke="#63b8ff" points="885,-525.44 894.52,-530.08 889.97,-520.52 885,-525.44"/>
</a>
</g>
</g>
<!-- Node11&#45;&gt;Node4 -->
<g id="edge17_Node000011_Node000004" class="edge">
<title>Node11&#45;&gt;Node4</title>
<g id="a_edge17_Node000011_Node000004"><a xlink:title=" ">
<path fill="none" stroke="#63b8ff" d="M776.76,-387.74C786.63,-392 797.13,-396.69 806.75,-401.29 830.67,-412.71 857.24,-426.76 876.8,-437.37"/>
<polygon fill="#63b8ff" stroke="#63b8ff" points="875.11,-440.43 885.56,-442.15 878.46,-434.29 875.11,-440.43"/>
</a>
</g>
</g>
<!-- Node12 -->
<g id="Node000012" class="node">
<title>Node12</title>
<g id="a_Node000012"><a xlink:href="classCellule.html#a70d2731234961e330fe0a31486d1dec7" target="_top" xlink:title="Vérifie si la cellule est vivante.">
<polygon fill="white" stroke="#666666" points="955.88,-400.29 857.38,-400.29 857.38,-380.29 955.88,-380.29 955.88,-400.29"/>
<text xml:space="preserve" text-anchor="middle" x="906.62" y="-386.79" font-family="Helvetica,sans-Serif" font-size="10.00">Cellule::estVivante</text>
</a>
</g>
</g>
<!-- Node11&#45;&gt;Node12 -->
<g id="edge13_Node000011_Node000012" class="edge">
<title>Node11&#45;&gt;Node12</title>
<g id="a_edge13_Node000011_Node000012"><a xlink:title=" ">
<path fill="none" stroke="#63b8ff" d="M807.12,-379.18C819.93,-380.62 833.19,-382.12 845.67,-383.52"/>
<polygon fill="#63b8ff" stroke="#63b8ff" points="845.04,-386.98 855.37,-384.62 845.83,-380.02 845.04,-386.98"/>
</a>
</g>
</g>
<!-- Node13 -->
<g id="Node000013" class="node">
<title>Node13</title>
<g id="a_Node000013"><a xlink:href="classGrille.html#aab75610fe73ae48bd035a048c55832f0" target="_top" xlink:title="Obtient une cellule à une position donnée.">
<polygon fill="white" stroke="#666666" points="958.5,-362.29 854.75,-362.29 854.75,-342.29 958.5,-342.29 958.5,-362.29"/>
<text xml:space="preserve" text-anchor="middle" x="906.62" y="-348.79" font-family="Helvetica,sans-Serif" font-size="10.00">Grille::obtenirCellule</text>
</a>
</g>
</g>
<!-- Node11&#45;&gt;Node13 -->
<g id="edge14_Node000011_Node000013" class="edge">
<title>Node11&#45;&gt;Node13</title>
<g id="a_edge14_Node000011_Node000013"><a xlink:title=" ">
<path fill="none" stroke="#63b8ff" d="M807.12,-363.39C818.99,-362.05 831.24,-360.67 842.91,-359.36"/>
<polygon fill="#63b8ff" stroke="#63b8ff" points="843.29,-362.84 852.84,-358.24 842.51,-355.88 843.29,-362.84"/>
</a>
</g>
</g>
<!-- Node14 -->
<g id="Node000014" class="node">
<title>Node14</title>
<g id="a_Node000014"><a xlink:href="classGrille.html#aa4c9ce36bb4f2c59a83aeb39d73fc285" target="_top" xlink:title="Vérifie si une position est valide dans la grille.">
<polygon fill="white" stroke="#666666" points="1126,-362.29 1006.5,-362.29 1006.5,-342.29 1126,-342.29 1126,-362.29"/>
<text xml:space="preserve" text-anchor="middle" x="1066.25" y="-348.79" font-family="Helvetica,sans-Serif" font-size="10.00">Grille::estPositionValide</text>
</a>
</g>
</g>
<!-- Node13&#45;&gt;Node14 -->
<g id="edge15_Node000013_Node000014" class="edge">
<title>Node13&#45;&gt;Node14</title>
<g id="a_edge15_Node000013_Node000014"><a xlink:title=" ">
<path fill="none" stroke="#63b8ff" d="M958.8,-352.29C970.25,-352.29 982.58,-352.29 994.66,-352.29"/>
<polygon fill="#63b8ff" stroke="#63b8ff" points="994.6,-355.79 1004.6,-352.29 994.6,-348.79 994.6,-355.79"/>
</a>
</g>
</g>
<!-- Node16&#45;&gt;Node10 -->
<g id="edge22_Node000016_Node000010" class="edge">
<title>Node16&#45;&gt;Node10</title>
<g id="a_edge22_Node000016_Node000010"><a xlink:title=" ">
<path fill="none" stroke="#63b8ff" d="M446.93,-213.98C454.85,-216.57 462.65,-219.93 469.5,-224.29 506.39,-247.75 535.83,-290.01 552.22,-317.34"/>
<polygon fill="#63b8ff" stroke="#63b8ff" points="549.04,-318.82 557.09,-325.7 555.09,-315.3 549.04,-318.82"/>
</a>
</g>
</g>
<!-- Node17&#45;&gt;Node10 -->
<g id="edge24_Node000017_Node000010" class="edge">
<title>Node17&#45;&gt;Node10</title>
<g id="a_edge24_Node000017_Node000010"><a xlink:title=" ">
<path fill="none" stroke="#63b8ff" d="M441.5,-370.8C457.71,-367.23 476.2,-363.16 493.91,-359.26"/>
<polygon fill="#63b8ff" stroke="#63b8ff" points="494.61,-362.69 503.62,-357.13 493.11,-355.86 494.61,-362.69"/>
</a>
</g>
</g>
<!-- Node18&#45;&gt;Node10 -->
<g id="edge26_Node000018_Node000010" class="edge">
<title>Node18&#45;&gt;Node10</title>
<g id="a_edge26_Node000018_Node000010"><a xlink:title=" ">
<path fill="none" stroke="#63b8ff" d="M455.22,-343.29C467.74,-343.29 481.02,-343.29 493.89,-343.29"/>
<polygon fill="#63b8ff" stroke="#63b8ff" points="493.55,-346.79 503.55,-343.29 493.55,-339.79 493.55,-346.79"/>
</a>
</g>
</g>
<!-- Node21&#45;&gt;Node10 -->
<g id="edge33_Node000021_Node000010" class="edge">
<title>Node21&#45;&gt;Node10</title>
<g id="a_edge33_Node000021_Node000010"><a xlink:title=" ">
<path fill="none" stroke="#63b8ff" d="M271.86,-4.81C327.33,2.93 413.96,5.51 469.5,-39.29 555.63,-108.75 566.41,-254.88 566.98,-315.76"/>
<polygon fill="#63b8ff" stroke="#63b8ff" points="563.48,-315.56 566.98,-325.56 570.48,-315.56 563.48,-315.56"/>
</a>
</g>
</g>
</g>
</svg>

<g id="navigator" transform="translate(0 0)" fill="#404254">
  <rect fill="#f2f5e9" fill-opacity="0.5" stroke="#606060" stroke-width=".5" x="0" y="0" width="60" height="60"/>
  <use id="zoomplus" xlink:href="#zoomPlus" x="17" y="9" onmousedown="handleZoom(evt,'in')"/>
  <use id="zoomminus" xlink:href="#zoomMin" x="42" y="9" onmousedown="handleZoom(evt,'out')"/>
  <use id="reset" xlink:href="#resetDef" x="30" y="36" onmousedown="handleReset()"/>
   <use id="arrowup" xlink:href="#arrowUp" x="0" y="0" onmousedown="handlePan(0,-1)"/>
  <use id="arrowright" xlink:href="#arrowRight" x="0" y="0" onmousedown="handlePan(1,0)"/>
  <use id="arrowdown" xlink:href="#arrowDown" x="0" y="0" onmousedown="handlePan(0,1)"/>
  <use id="arrowleft" xlink:href="#arrowLeft" x="0" y="0" onmousedown="handlePan(-1,0)"/>
</g>
<svg viewBox="0 0 15 15" width="100%" height="30px" preserveAspectRatio="xMaxYMin meet">
 <g id="arrow_out" transform="scale(0.3 0.3)">
  <a xlink:href="classInterfaceQt_a0eea8fab1e83d4b90961bd4241fc5689_cgraph_org.svg" target="_base">
   <rect id="button" ry="5" rx="5" y="6" x="6" height="38" width="38"
        fill="#f2f5e9" fill-opacity="0.5" stroke="#606060" stroke-width="1.0"/>
   <path id="arrow"
     d="M 11.500037,31.436501 C 11.940474,20.09759 22.043105,11.32322 32.158766,21.979434 L 37.068811,17.246167 C 37.068811,17.246167 37.088388,32 37.088388,32 L 22.160133,31.978069 C 22.160133,31.978069 26.997745,27.140456 26.997745,27.140456 C 18.528582,18.264221 13.291696,25.230495 11.500037,31.436501 z"
     style="fill:#404040;"/>
  </a>
 </g>
</svg>

<style type='text/css'>
<![CDATA[
[data-mouse-over-selected='false'] { opacity: 0.7; }
[data-mouse-over-selected='true']  { opacity: 1.0; }
]]>
</style>
<script type="application/ecmascript"><![CDATA[
document.addEventListener('DOMContentLoaded', (event) => {
  highlightEdges();
  highlightAdjacentNodes();
});
]]></script>
</svg>
