<?xml version="1.0" encoding="UTF-8" standalone="no"?>
<!DOCTYPE svg PUBLIC "-//W3C//DTD SVG 1.1//EN"
 "http://www.w3.org/Graphics/SVG/1.1/DTD/svg11.dtd">
<!-- Generated by graphviz version 14.0.2 (20251019.1705)
 -->
<!-- Title: GestionnaireFichier::extraireNomFichier Pages: 1 -->
<svg width="325pt" height="40pt"
 viewBox="0.00 0.00 325.00 40.00" xmlns="http://www.w3.org/2000/svg" xmlns:xlink="http://www.w3.org/1999/xlink">
<g id="graph0" class="graph" transform="scale(1 1) rotate(0) translate(4 36)">
<title>GestionnaireFichier::extraireNomFichier</title>
<!-- Node1 -->
<g id="Node000001" class="node">
<title>Node1</title>
<g id="a_Node000001"><a xlink:title="Extrait le nom du fichier sans l&#39;extension.">
<polygon fill="#999999" stroke="#666666" points="316.5,-32 212,-32 212,0 316.5,0 316.5,-32"/>
<text xml:space="preserve" text-anchor="start" x="220" y="-18.5" font-family="Helvetica,sans-Serif" font-size="10.00">GestionnaireFichier</text>
<text xml:space="preserve" text-anchor="middle" x="264.25" y="-6.5" font-family="Helvetica,sans-Serif" font-size="10.00">::extraireNomFichier</text>
</a>
</g>
</g>
<!-- Node2 -->
<g id="Node000002" class="node">
<title>Node2</title>
<g id="a_Node000002"><a xlink:href="classGestionnaireFichier.html#aaa46013c4ccdaf794fcee83aae0d9eef" target="_top" xlink:title="Crée le dossier de sortie pour les résultats.">
<polygon fill="white" stroke="#666666" points="176,-32 73,-32 73,0 176,0 176,-32"/>
<text xml:space="preserve" text-anchor="start" x="81" y="-18.5" font-family="Helvetica,sans-Serif" font-size="10.00">GestionnaireFichier</text>
<text xml:space="preserve" text-anchor="middle" x="124.5" y="-6.5" font-family="Helvetica,sans-Serif" font-size="10.00">::creerDossierSortie</text>
</a>
</g>
</g>
<!-- Node1&#45;&gt;Node2 -->
<g id="edge1_Node000001_Node000002" class="edge">
<title>Node1&#45;&gt;Node2</title>
<g id="a_edge1_Node000001_Node000002"><a xlink:title=" ">
<path fill="none" stroke="#63b8ff" d="M200.25,-16C192.16,-16 183.96,-16 176.1,-16"/>
<polygon fill="#63b8ff" stroke="#63b8ff" points="200.05,-19.5 210.05,-16 200.05,-12.5 200.05,-19.5"/>
</a>
</g>
</g>
<!-- Node3 -->
<g id="Node000003" class="node">
<title>Node3</title>
<g id="a_Node000003"><a xlink:href="main_8cpp.html#a0ddf1224851353fc92bfbff6f499fa97" target="_top" xlink:title="Point d&#39;entrée du programme.">
<polygon fill="white" stroke="#666666" points="37,-26 0,-26 0,-6 37,-6 37,-26"/>
<text xml:space="preserve" text-anchor="middle" x="18.5" y="-12.5" font-family="Helvetica,sans-Serif" font-size="10.00">main</text>
</a>
</g>
</g>
<!-- Node2&#45;&gt;Node3 -->
<g id="edge2_Node000002_Node000003" class="edge">
<title>Node2&#45;&gt;Node3</title>
<g id="a_edge2_Node000002_Node000003"><a xlink:title=" ">
<path fill="none" stroke="#63b8ff" d="M61.38,-16C52.54,-16 44.11,-16 37.16,-16"/>
<polygon fill="#63b8ff" stroke="#63b8ff" points="61.21,-19.5 71.21,-16 61.21,-12.5 61.21,-19.5"/>
</a>
</g>
</g>
</g>
</svg>
