<?xml version="1.0" encoding="UTF-8" standalone="no"?>
<!DOCTYPE svg PUBLIC "-//W3C//DTD SVG 1.1//EN"
 "http://www.w3.org/Graphics/SVG/1.1/DTD/svg11.dtd">
<!-- Generated by graphviz version 14.0.2 (20251019.1705)
 -->
<!-- Title: TestsUnitaires::testerClignotant Pages: 1 -->
<!--zoomable 132 -->

<svg id="main" version="1.1" xmlns="http://www.w3.org/2000/svg" xmlns:xlink="http://www.w3.org/1999/xlink" xml:space="preserve" onload="init(evt)">

<style type="text/css"><![CDATA[
.node, .edge {opacity: 0.7;}
.node.selected, .edge.selected {opacity: 1;}
.edge:hover path { stroke: red; }
.edge:hover polygon { stroke: red; fill: red; }
]]></style>

<defs>
  <circle id="rim" cx="0" cy="0" r="7"/>
  <circle id="rim2" cx="0" cy="0" r="3.5"/>
  <g id="zoomPlus">
    <use xlink:href="#rim" fill="#404040"><set attributeName="fill" to="#808080" begin="zoomplus.mouseover" end="zoomplus.mouseout"/></use>
    <path d="M-4,0h8M0,-4v8" fill="none" stroke="white" stroke-width="1.5" pointer-events="none"/>
  </g>
  <g id="zoomMin">
    <use xlink:href="#rim" fill="#404040"><set attributeName="fill" to="#808080" begin="zoomminus.mouseover" end="zoomminus.mouseout"/></use>
    <path d="M-4,0h8" fill="none" stroke="white" stroke-width="1.5" pointer-events="none"/>
  </g>
  <g id="arrowUp" transform="translate(30 24)">
    <use xlink:href="#rim"/>
    <path pointer-events="none" fill="none" stroke="white" stroke-width="1.5" d="M0,-3.0v7 M-2.5,-0.5L0,-3.0L2.5,-0.5"/>
  </g>
  <g id="arrowRight" transform="rotate(90) translate(36 -43)">
    <use xlink:href="#rim"/>
    <path pointer-events="none" fill="none" stroke="white" stroke-width="1.5" d="M0,-3.0v7 M-2.5,-0.5L0,-3.0L2.5,-0.5"/>
  </g>
  <g id="arrowDown" transform="rotate(180) translate(-30 -48)">
    <use xlink:href="#rim"/>
    <path pointer-events="none" fill="none" stroke="white" stroke-width="1.5" d="M0,-3.0v7 M-2.5,-0.5L0,-3.0L2.5,-0.5"/>
  </g>
  <g id="arrowLeft" transform="rotate(270) translate(-36 17)">
    <use xlink:href="#rim"/>
    <path pointer-events="none" fill="none" stroke="white" stroke-width="1.5" d="M0,-3.0v7 M-2.5,-0.5L0,-3.0L2.5,-0.5"/>
  </g>
  <g id="resetDef">
    <use xlink:href="#rim2" fill="#404040"><set attributeName="fill" to="#808080" begin="reset.mouseover" end="reset.mouseout"/></use>
  </g>
</defs>
<script type="application/ecmascript">
var viewWidth = 819;
var viewHeight = 132;
var sectionId = 'dynsection-8';
</script>
<script type="application/ecmascript" xlink:href="svg.min.js"/>
<svg id="graph" class="graph">
<g id="viewport">
<title>TestsUnitaires::testerClignotant</title>
<!-- Node1 -->
<g id="Node000001" class="node">
<title>Node1</title>
<g id="a_Node000001"><a xlink:title="Teste le motif oscillateur (clignotant).">
<polygon fill="#999999" stroke="#666666" points="154,-102 0,-102 0,-82 154,-82 154,-102"/>
<text xml:space="preserve" text-anchor="middle" x="77" y="-88.5" font-family="Helvetica,sans-Serif" font-size="10.00">TestsUnitaires::testerClignotant</text>
</a>
</g>
</g>
<!-- Node2 -->
<g id="Node000002" class="node">
<title>Node2</title>
<g id="a_Node000002"><a xlink:href="classTestsUnitaires.html#a6430263d628fa3e1f55be64cf1aae756" target="_top" xlink:title="Crée une grille de test.">
<polygon fill="white" stroke="#666666" points="329.75,-124 200.5,-124 200.5,-104 329.75,-104 329.75,-124"/>
<text xml:space="preserve" text-anchor="middle" x="265.12" y="-110.5" font-family="Helvetica,sans-Serif" font-size="10.00">TestsUnitaires::creerGrille</text>
</a>
</g>
</g>
<!-- Node1&#45;&gt;Node2 -->
<g id="edge1_Node000001_Node000002" class="edge">
<title>Node1&#45;&gt;Node2</title>
<g id="a_edge1_Node000001_Node000002"><a xlink:title=" ">
<path fill="none" stroke="#63b8ff" d="M154.24,-101.01C165.69,-102.36 177.48,-103.76 188.9,-105.11"/>
<polygon fill="#63b8ff" stroke="#63b8ff" points="188.33,-108.57 198.67,-106.26 189.15,-101.61 188.33,-108.57"/>
</a>
</g>
</g>
<!-- Node5 -->
<g id="Node000005" class="node">
<title>Node5</title>
<g id="a_Node000005"><a xlink:href="classTestsUnitaires.html#a1fea61fb0483bb1f7e0284d828ad347f" target="_top" xlink:title="Teste l&#39;évolution d&#39;une grille après n itérations.">
<polygon fill="white" stroke="#666666" points="340.25,-83 190,-83 190,-63 340.25,-63 340.25,-83"/>
<text xml:space="preserve" text-anchor="middle" x="265.12" y="-69.5" font-family="Helvetica,sans-Serif" font-size="10.00">TestsUnitaires::testerEvolution</text>
</a>
</g>
</g>
<!-- Node1&#45;&gt;Node5 -->
<g id="edge4_Node000001_Node000005" class="edge">
<title>Node1&#45;&gt;Node5</title>
<g id="a_edge4_Node000001_Node000005"><a xlink:title=" ">
<path fill="none" stroke="#63b8ff" d="M154.24,-84.22C162.16,-83.41 170.24,-82.58 178.25,-81.77"/>
<polygon fill="#63b8ff" stroke="#63b8ff" points="178.41,-85.27 188,-80.77 177.7,-78.3 178.41,-85.27"/>
</a>
</g>
</g>
<!-- Node3 -->
<g id="Node000003" class="node">
<title>Node3</title>
<g id="a_Node000003"><a xlink:href="classGrille.html#ab4c852bc2327224eac9da60841f30baa" target="_top" xlink:title="Définit l&#39;état d&#39;une cellule.">
<polygon fill="white" stroke="#666666" points="651.25,-111 532.5,-111 532.5,-91 651.25,-91 651.25,-111"/>
<text xml:space="preserve" text-anchor="middle" x="591.88" y="-97.5" font-family="Helvetica,sans-Serif" font-size="10.00">Grille::definirEtatCellule</text>
</a>
</g>
</g>
<!-- Node2&#45;&gt;Node3 -->
<g id="edge2_Node000002_Node000003" class="edge">
<title>Node2&#45;&gt;Node3</title>
<g id="a_edge2_Node000002_Node000003"><a xlink:title=" ">
<path fill="none" stroke="#63b8ff" d="M329.9,-111.45C384.85,-109.25 464.06,-106.08 520.78,-103.81"/>
<polygon fill="#63b8ff" stroke="#63b8ff" points="520.8,-107.31 530.65,-103.41 520.52,-100.31 520.8,-107.31"/>
</a>
</g>
</g>
<!-- Node4 -->
<g id="Node000004" class="node">
<title>Node4</title>
<g id="a_Node000004"><a xlink:href="classGrille.html#aa4c9ce36bb4f2c59a83aeb39d73fc285" target="_top" xlink:title="Vérifie si une position est valide dans la grille.">
<polygon fill="white" stroke="#666666" points="810.5,-111 691,-111 691,-91 810.5,-91 810.5,-111"/>
<text xml:space="preserve" text-anchor="middle" x="750.75" y="-97.5" font-family="Helvetica,sans-Serif" font-size="10.00">Grille::estPositionValide</text>
</a>
</g>
</g>
<!-- Node3&#45;&gt;Node4 -->
<g id="edge3_Node000003_Node000004" class="edge">
<title>Node3&#45;&gt;Node4</title>
<g id="a_edge3_Node000003_Node000004"><a xlink:title=" ">
<path fill="none" stroke="#63b8ff" d="M651.74,-101C660.66,-101 669.95,-101 679.09,-101"/>
<polygon fill="#63b8ff" stroke="#63b8ff" points="679.05,-104.5 689.05,-101 679.05,-97.5 679.05,-104.5"/>
</a>
</g>
</g>
<!-- Node6 -->
<g id="Node000006" class="node">
<title>Node6</title>
<g id="a_Node000006"><a xlink:href="classTestsUnitaires.html#af1671fe34db212a79ee1f4b2869d576e" target="_top" xlink:title="Affiche le résultat d&#39;un test.">
<polygon fill="white" stroke="#666666" points="492.75,-89 376.25,-89 376.25,-57 492.75,-57 492.75,-89"/>
<text xml:space="preserve" text-anchor="start" x="384.25" y="-75.5" font-family="Helvetica,sans-Serif" font-size="10.00">TestsUnitaires::afficher</text>
<text xml:space="preserve" text-anchor="middle" x="434.5" y="-63.5" font-family="Helvetica,sans-Serif" font-size="10.00">Resultat</text>
</a>
</g>
</g>
<!-- Node5&#45;&gt;Node6 -->
<g id="edge5_Node000005_Node000006" class="edge">
<title>Node5&#45;&gt;Node6</title>
<g id="a_edge5_Node000005_Node000006"><a xlink:title=" ">
<path fill="none" stroke="#63b8ff" d="M340.51,-73C348.49,-73 356.58,-73 364.49,-73"/>
<polygon fill="#63b8ff" stroke="#63b8ff" points="364.41,-76.5 374.41,-73 364.41,-69.5 364.41,-76.5"/>
</a>
</g>
</g>
<!-- Node7 -->
<g id="Node000007" class="node">
<title>Node7</title>
<g id="a_Node000007"><a xlink:href="classGrille.html#a980652764fefe3f45fcc0516a6e59abb" target="_top" xlink:title="Met à jour la grille pour passer à l&#39;itération suivante.">
<polygon fill="white" stroke="#666666" points="483.38,-39 385.62,-39 385.62,-19 483.38,-19 483.38,-39"/>
<text xml:space="preserve" text-anchor="middle" x="434.5" y="-25.5" font-family="Helvetica,sans-Serif" font-size="10.00">Grille::mettreAJour</text>
</a>
</g>
</g>
<!-- Node5&#45;&gt;Node7 -->
<g id="edge6_Node000005_Node000007" class="edge">
<title>Node5&#45;&gt;Node7</title>
<g id="a_edge6_Node000005_Node000007"><a xlink:title=" ">
<path fill="none" stroke="#63b8ff" d="M305.79,-62.57C328.84,-56.51 358.13,-48.81 382.84,-42.32"/>
<polygon fill="#63b8ff" stroke="#63b8ff" points="383.58,-45.74 392.37,-39.81 381.8,-38.97 383.58,-45.74"/>
</a>
</g>
</g>
<!-- Node7&#45;&gt;Node3 -->
<g id="edge7_Node000007_Node000003" class="edge">
<title>Node7&#45;&gt;Node3</title>
<g id="a_edge7_Node000007_Node000003"><a xlink:title=" ">
<path fill="none" stroke="#63b8ff" d="M470.38,-39.49C477.85,-42.04 485.64,-44.93 492.75,-48 517.64,-58.76 544.67,-73.61 564.04,-84.85"/>
<polygon fill="#63b8ff" stroke="#63b8ff" points="562.26,-87.86 572.65,-89.91 565.81,-81.83 562.26,-87.86"/>
</a>
</g>
</g>
<!-- Node8 -->
<g id="Node000008" class="node">
<title>Node8</title>
<g id="a_Node000008"><a xlink:href="classGrille.html#aa8f57932935f9b316ccdbd0705021d6b" target="_top" xlink:title="Constructeur de la grille.">
<polygon fill="white" stroke="#666666" points="784.25,-39 717.25,-39 717.25,-19 784.25,-19 784.25,-39"/>
<text xml:space="preserve" text-anchor="middle" x="750.75" y="-25.5" font-family="Helvetica,sans-Serif" font-size="10.00">Grille::Grille</text>
</a>
</g>
</g>
<!-- Node7&#45;&gt;Node8 -->
<g id="edge8_Node000007_Node000008" class="edge">
<title>Node7&#45;&gt;Node8</title>
<g id="a_edge8_Node000007_Node000008"><a xlink:title=" ">
<path fill="none" stroke="#63b8ff" d="M483.57,-29C544.05,-29 647.07,-29 705.63,-29"/>
<polygon fill="#63b8ff" stroke="#63b8ff" points="705.56,-32.5 715.56,-29 705.56,-25.5 705.56,-32.5"/>
</a>
</g>
</g>
<!-- Node9 -->
<g id="Node000009" class="node">
<title>Node9</title>
<g id="a_Node000009"><a xlink:href="classGrille.html#a7073ca25319522d4602550da3dfb1d22" target="_top" xlink:title="Met à jour un ensemble de lignes (parallélisation optimisée).">
<polygon fill="white" stroke="#666666" points="655,-20 528.75,-20 528.75,0 655,0 655,-20"/>
<text xml:space="preserve" text-anchor="middle" x="591.88" y="-6.5" font-family="Helvetica,sans-Serif" font-size="10.00">Grille::mettreAJourLignes</text>
</a>
</g>
</g>
<!-- Node7&#45;&gt;Node9 -->
<g id="edge9_Node000007_Node000009" class="edge">
<title>Node7&#45;&gt;Node9</title>
<g id="a_edge9_Node000007_Node000009"><a xlink:title=" ">
<path fill="none" stroke="#63b8ff" d="M483.81,-23.09C494.37,-21.8 505.77,-20.41 517.07,-19.03"/>
<polygon fill="#63b8ff" stroke="#63b8ff" points="517.29,-22.52 526.79,-17.84 516.44,-15.58 517.29,-22.52"/>
</a>
</g>
</g>
<!-- Node9&#45;&gt;Node8 -->
<g id="edge10_Node000009_Node000008" class="edge">
<title>Node9&#45;&gt;Node8</title>
<g id="a_edge10_Node000009_Node000008"><a xlink:title=" ">
<path fill="none" stroke="#63b8ff" d="M655.33,-17.56C672.08,-19.59 689.84,-21.74 705.39,-23.63"/>
<polygon fill="#63b8ff" stroke="#63b8ff" points="704.94,-27.1 715.29,-24.83 705.78,-20.15 704.94,-27.1"/>
</a>
</g>
</g>
</g>
</svg>

<g id="navigator" transform="translate(0 0)" fill="#404254">
  <rect fill="#f2f5e9" fill-opacity="0.5" stroke="#606060" stroke-width=".5" x="0" y="0" width="60" height="60"/>
  <use id="zoomplus" xlink:href="#zoomPlus" x="17" y="9" onmousedown="handleZoom(evt,'in')"/>
  <use id="zoomminus" xlink:href="#zoomMin" x="42" y="9" onmousedown="handleZoom(evt,'out')"/>
  <use id="reset" xlink:href="#resetDef" x="30" y="36" onmousedown="handleReset()"/>
   <use id="arrowup" xlink:href="#arrowUp" x="0" y="0" onmousedown="handlePan(0,-1)"/>
  <use id="arrowright" xlink:href="#arrowRight" x="0" y="0" onmousedown="handlePan(1,0)"/>
  <use id="arrowdown" xlink:href="#arrowDown" x="0" y="0" onmousedown="handlePan(0,1)"/>
  <use id="arrowleft" xlink:href="#arrowLeft" x="0" y="0" onmousedown="handlePan(-1,0)"/>
</g>
<svg viewBox="0 0 15 15" width="100%" height="30px" preserveAspectRatio="xMaxYMin meet">
 <g id="arrow_out" transform="scale(0.3 0.3)">
  <a xlink:href="classTestsUnitaires_ad353b61378429174dd396ee458261aa2_cgraph_org.svg" target="_base">
   <rect id="button" ry="5" rx="5" y="6" x="6" height="38" width="38"
        fill="#f2f5e9" fill-opacity="0.5" stroke="#606060" stroke-width="1.0"/>
   <path id="arrow"
     d="M 11.500037,31.436501 C 11.940474,20.09759 22.043105,11.32322 32.158766,21.979434 L 37.068811,17.246167 C 37.068811,17.246167 37.088388,32 37.088388,32 L 22.160133,31.978069 C 22.160133,31.978069 26.997745,27.140456 26.997745,27.140456 C 18.528582,18.264221 13.291696,25.230495 11.500037,31.436501 z"
     style="fill:#404040;"/>
  </a>
 </g>
</svg>

<style type='text/css'>
<![CDATA[
[data-mouse-over-selected='false'] { opacity: 0.7; }
[data-mouse-over-selected='true']  { opacity: 1.0; }
]]>
</style>
<script type="application/ecmascript"><![CDATA[
document.addEventListener('DOMContentLoaded', (event) => {
  highlightEdges();
  highlightAdjacentNodes();
});
]]></script>
</svg>
