<?xml version="1.0" encoding="UTF-8" standalone="no"?>
<!DOCTYPE svg PUBLIC "-//W3C//DTD SVG 1.1//EN"
 "http://www.w3.org/Graphics/SVG/1.1/DTD/svg11.dtd">
<!-- Generated by graphviz version 14.0.2 (20251019.1705)
 -->
<!-- Title: TestsUnitaires::executerTousLesTests Pages: 1 -->
<!--zoomable 347 -->

<svg id="main" version="1.1" xmlns="http://www.w3.org/2000/svg" xmlns:xlink="http://www.w3.org/1999/xlink" xml:space="preserve" onload="init(evt)">

<style type="text/css"><![CDATA[
.node, .edge {opacity: 0.7;}
.node.selected, .edge.selected {opacity: 1;}
.edge:hover path { stroke: red; }
.edge:hover polygon { stroke: red; fill: red; }
]]></style>

<defs>
  <circle id="rim" cx="0" cy="0" r="7"/>
  <circle id="rim2" cx="0" cy="0" r="3.5"/>
  <g id="zoomPlus">
    <use xlink:href="#rim" fill="#404040"><set attributeName="fill" to="#808080" begin="zoomplus.mouseover" end="zoomplus.mouseout"/></use>
    <path d="M-4,0h8M0,-4v8" fill="none" stroke="white" stroke-width="1.5" pointer-events="none"/>
  </g>
  <g id="zoomMin">
    <use xlink:href="#rim" fill="#404040"><set attributeName="fill" to="#808080" begin="zoomminus.mouseover" end="zoomminus.mouseout"/></use>
    <path d="M-4,0h8" fill="none" stroke="white" stroke-width="1.5" pointer-events="none"/>
  </g>
  <g id="arrowUp" transform="translate(30 24)">
    <use xlink:href="#rim"/>
    <path pointer-events="none" fill="none" stroke="white" stroke-width="1.5" d="M0,-3.0v7 M-2.5,-0.5L0,-3.0L2.5,-0.5"/>
  </g>
  <g id="arrowRight" transform="rotate(90) translate(36 -43)">
    <use xlink:href="#rim"/>
    <path pointer-events="none" fill="none" stroke="white" stroke-width="1.5" d="M0,-3.0v7 M-2.5,-0.5L0,-3.0L2.5,-0.5"/>
  </g>
  <g id="arrowDown" transform="rotate(180) translate(-30 -48)">
    <use xlink:href="#rim"/>
    <path pointer-events="none" fill="none" stroke="white" stroke-width="1.5" d="M0,-3.0v7 M-2.5,-0.5L0,-3.0L2.5,-0.5"/>
  </g>
  <g id="arrowLeft" transform="rotate(270) translate(-36 17)">
    <use xlink:href="#rim"/>
    <path pointer-events="none" fill="none" stroke="white" stroke-width="1.5" d="M0,-3.0v7 M-2.5,-0.5L0,-3.0L2.5,-0.5"/>
  </g>
  <g id="resetDef">
    <use xlink:href="#rim2" fill="#404040"><set attributeName="fill" to="#808080" begin="reset.mouseover" end="reset.mouseout"/></use>
  </g>
</defs>
<script type="application/ecmascript">
var viewWidth = 986;
var viewHeight = 347;
var sectionId = 'dynsection-4';
</script>
<script type="application/ecmascript" xlink:href="svg.min.js"/>
<svg id="graph" class="graph">
<g id="viewport">
<title>TestsUnitaires::executerTousLesTests</title>
<!-- Node1 -->
<g id="Node000001" class="node">
<title>Node1</title>
<g id="a_Node000001"><a xlink:title="Exécute tous les tests.">
<polygon fill="#999999" stroke="#666666" points="122.5,-235 0,-235 0,-203 122.5,-203 122.5,-235"/>
<text xml:space="preserve" text-anchor="start" x="8" y="-221.5" font-family="Helvetica,sans-Serif" font-size="10.00">TestsUnitaires::executer</text>
<text xml:space="preserve" text-anchor="middle" x="61.25" y="-209.5" font-family="Helvetica,sans-Serif" font-size="10.00">TousLesTests</text>
</a>
</g>
</g>
<!-- Node2 -->
<g id="Node000002" class="node">
<title>Node2</title>
<g id="a_Node000002"><a xlink:href="classTestsUnitaires.html#acd912aefe999f1178f6c72f41bece368" target="_top" xlink:title="Teste le motif stable (bloc).">
<polygon fill="white" stroke="#666666" points="304.62,-286 175.38,-286 175.38,-266 304.62,-266 304.62,-286"/>
<text xml:space="preserve" text-anchor="middle" x="240" y="-272.5" font-family="Helvetica,sans-Serif" font-size="10.00">TestsUnitaires::testerBloc</text>
</a>
</g>
</g>
<!-- Node1&#45;&gt;Node2 -->
<g id="edge1_Node000001_Node000002" class="edge">
<title>Node1&#45;&gt;Node2</title>
<g id="a_edge1_Node000001_Node000002"><a xlink:title=" ">
<path fill="none" stroke="#63b8ff" d="M100.2,-235.45C117.73,-242.67 138.96,-250.87 158.5,-257 165.06,-259.06 171.99,-261.01 178.91,-262.83"/>
<polygon fill="#63b8ff" stroke="#63b8ff" points="177.72,-266.14 188.27,-265.19 179.43,-259.35 177.72,-266.14"/>
</a>
</g>
</g>
<!-- Node11 -->
<g id="Node000011" class="node">
<title>Node11</title>
<g id="a_Node000011"><a xlink:href="classTestsUnitaires.html#ad353b61378429174dd396ee458261aa2" target="_top" xlink:title="Teste le motif oscillateur (clignotant).">
<polygon fill="white" stroke="#666666" points="317,-248 163,-248 163,-228 317,-228 317,-248"/>
<text xml:space="preserve" text-anchor="middle" x="240" y="-234.5" font-family="Helvetica,sans-Serif" font-size="10.00">TestsUnitaires::testerClignotant</text>
</a>
</g>
</g>
<!-- Node1&#45;&gt;Node11 -->
<g id="edge12_Node000001_Node000011" class="edge">
<title>Node1&#45;&gt;Node11</title>
<g id="a_edge12_Node000001_Node000011"><a xlink:title=" ">
<path fill="none" stroke="#63b8ff" d="M122.58,-225.49C131.86,-226.48 141.59,-227.53 151.31,-228.57"/>
<polygon fill="#63b8ff" stroke="#63b8ff" points="150.86,-232.05 161.18,-229.63 151.61,-225.09 150.86,-232.05"/>
</a>
</g>
</g>
<!-- Node12 -->
<g id="Node000012" class="node">
<title>Node12</title>
<g id="a_Node000012"><a xlink:href="classTestsUnitaires.html#ac0c01e1e24de9cb73d81593c96fa34bb" target="_top" xlink:title="Teste la grille torique.">
<polygon fill="white" stroke="#666666" points="306.88,-172 173.12,-172 173.12,-140 306.88,-140 306.88,-172"/>
<text xml:space="preserve" text-anchor="start" x="181.12" y="-158.5" font-family="Helvetica,sans-Serif" font-size="10.00">TestsUnitaires::testerMode</text>
<text xml:space="preserve" text-anchor="middle" x="240" y="-146.5" font-family="Helvetica,sans-Serif" font-size="10.00">Torique</text>
</a>
</g>
</g>
<!-- Node1&#45;&gt;Node12 -->
<g id="edge15_Node000001_Node000012" class="edge">
<title>Node1&#45;&gt;Node12</title>
<g id="a_edge15_Node000001_Node000012"><a xlink:title=" ">
<path fill="none" stroke="#63b8ff" d="M101.8,-202.61C119.1,-195.65 139.69,-187.62 158.5,-181 163.42,-179.27 168.53,-177.53 173.68,-175.83"/>
<polygon fill="#63b8ff" stroke="#63b8ff" points="174.39,-179.28 182.82,-172.86 172.23,-172.62 174.39,-179.28"/>
</a>
</g>
</g>
<!-- Node13 -->
<g id="Node000013" class="node">
<title>Node13</title>
<g id="a_Node000013"><a xlink:href="classTestsUnitaires.html#a7783880416ef4c0f160e1d8242f0d392" target="_top" xlink:title="Teste les cellules obstacles.">
<polygon fill="white" stroke="#666666" points="317,-109 163,-109 163,-89 317,-89 317,-109"/>
<text xml:space="preserve" text-anchor="middle" x="240" y="-95.5" font-family="Helvetica,sans-Serif" font-size="10.00">TestsUnitaires::testerObstacles</text>
</a>
</g>
</g>
<!-- Node1&#45;&gt;Node13 -->
<g id="edge18_Node000001_Node000013" class="edge">
<title>Node1&#45;&gt;Node13</title>
<g id="a_edge18_Node000001_Node000013"><a xlink:title=" ">
<path fill="none" stroke="#63b8ff" d="M76.49,-202.8C94.14,-183.53 125.88,-151.43 158.5,-131 169.43,-124.16 182.07,-118.31 194.05,-113.55"/>
<polygon fill="#63b8ff" stroke="#63b8ff" points="195.26,-116.84 203.38,-110.03 192.79,-110.29 195.26,-116.84"/>
</a>
</g>
</g>
<!-- Node16 -->
<g id="Node000016" class="node">
<title>Node16</title>
<g id="a_Node000016"><a xlink:href="classTestsUnitaires.html#aca78b84c54b4526bab6c6325e1b05e20" target="_top" xlink:title="Teste le planeur.">
<polygon fill="white" stroke="#666666" points="311.38,-210 168.62,-210 168.62,-190 311.38,-190 311.38,-210"/>
<text xml:space="preserve" text-anchor="middle" x="240" y="-196.5" font-family="Helvetica,sans-Serif" font-size="10.00">TestsUnitaires::testerPlaneur</text>
</a>
</g>
</g>
<!-- Node1&#45;&gt;Node16 -->
<g id="edge24_Node000001_Node000016" class="edge">
<title>Node1&#45;&gt;Node16</title>
<g id="a_edge24_Node000001_Node000016"><a xlink:title=" ">
<path fill="none" stroke="#63b8ff" d="M122.58,-212.51C133.72,-211.32 145.53,-210.05 157.18,-208.8"/>
<polygon fill="#63b8ff" stroke="#63b8ff" points="157.2,-212.31 166.77,-207.76 156.45,-205.35 157.2,-212.31"/>
</a>
</g>
</g>
<!-- Node17 -->
<g id="Node000017" class="node">
<title>Node17</title>
<g id="a_Node000017"><a xlink:href="classTestsUnitaires.html#a668b40e7c9824be78af8cfd427b4aa58" target="_top" xlink:title="Teste les règles de base.">
<polygon fill="white" stroke="#666666" points="321.5,-324 158.5,-324 158.5,-304 321.5,-304 321.5,-324"/>
<text xml:space="preserve" text-anchor="middle" x="240" y="-310.5" font-family="Helvetica,sans-Serif" font-size="10.00">TestsUnitaires::testerReglesBase</text>
</a>
</g>
</g>
<!-- Node1&#45;&gt;Node17 -->
<g id="edge27_Node000001_Node000017" class="edge">
<title>Node1&#45;&gt;Node17</title>
<g id="a_edge27_Node000001_Node000017"><a xlink:title=" ">
<path fill="none" stroke="#63b8ff" d="M78.1,-235.19C96.03,-252.56 126.87,-279.72 158.5,-295 162.28,-296.83 166.24,-298.48 170.3,-299.98"/>
<polygon fill="#63b8ff" stroke="#63b8ff" points="169.17,-303.3 179.77,-303.13 171.38,-296.65 169.17,-303.3"/>
</a>
</g>
</g>
<!-- Node3 -->
<g id="Node000003" class="node">
<title>Node3</title>
<g id="a_Node000003"><a xlink:href="classTestsUnitaires.html#a6430263d628fa3e1f55be64cf1aae756" target="_top" xlink:title="Crée une grille de test.">
<polygon fill="white" stroke="#666666" points="497.25,-248 368,-248 368,-228 497.25,-228 497.25,-248"/>
<text xml:space="preserve" text-anchor="middle" x="432.62" y="-234.5" font-family="Helvetica,sans-Serif" font-size="10.00">TestsUnitaires::creerGrille</text>
</a>
</g>
</g>
<!-- Node2&#45;&gt;Node3 -->
<g id="edge2_Node000002_Node000003" class="edge">
<title>Node2&#45;&gt;Node3</title>
<g id="a_edge2_Node000002_Node000003"><a xlink:title=" ">
<path fill="none" stroke="#63b8ff" d="M293.59,-265.52C316.62,-260.93 343.83,-255.5 367.99,-250.69"/>
<polygon fill="#63b8ff" stroke="#63b8ff" points="368.6,-254.13 377.72,-248.75 367.23,-247.27 368.6,-254.13"/>
</a>
</g>
</g>
<!-- Node6 -->
<g id="Node000006" class="node">
<title>Node6</title>
<g id="a_Node000006"><a xlink:href="classTestsUnitaires.html#a1fea61fb0483bb1f7e0284d828ad347f" target="_top" xlink:title="Teste l&#39;évolution d&#39;une grille après n itérations.">
<polygon fill="white" stroke="#666666" points="507.75,-286 357.5,-286 357.5,-266 507.75,-266 507.75,-286"/>
<text xml:space="preserve" text-anchor="middle" x="432.62" y="-272.5" font-family="Helvetica,sans-Serif" font-size="10.00">TestsUnitaires::testerEvolution</text>
</a>
</g>
</g>
<!-- Node2&#45;&gt;Node6 -->
<g id="edge5_Node000002_Node000006" class="edge">
<title>Node2&#45;&gt;Node6</title>
<g id="a_edge5_Node000002_Node000006"><a xlink:title=" ">
<path fill="none" stroke="#63b8ff" d="M305.01,-276C318.1,-276 332.09,-276 345.81,-276"/>
<polygon fill="#63b8ff" stroke="#63b8ff" points="345.73,-279.5 355.73,-276 345.73,-272.5 345.73,-279.5"/>
</a>
</g>
</g>
<!-- Node4 -->
<g id="Node000004" class="node">
<title>Node4</title>
<g id="a_Node000004"><a xlink:href="classGrille.html#ab4c852bc2327224eac9da60841f30baa" target="_top" xlink:title="Définit l&#39;état d&#39;une cellule.">
<polygon fill="white" stroke="#666666" points="818.75,-248 700,-248 700,-228 818.75,-228 818.75,-248"/>
<text xml:space="preserve" text-anchor="middle" x="759.38" y="-234.5" font-family="Helvetica,sans-Serif" font-size="10.00">Grille::definirEtatCellule</text>
</a>
</g>
</g>
<!-- Node3&#45;&gt;Node4 -->
<g id="edge3_Node000003_Node000004" class="edge">
<title>Node3&#45;&gt;Node4</title>
<g id="a_edge3_Node000003_Node000004"><a xlink:title=" ">
<path fill="none" stroke="#63b8ff" d="M497.4,-238C552.35,-238 631.56,-238 688.28,-238"/>
<polygon fill="#63b8ff" stroke="#63b8ff" points="688.15,-241.5 698.15,-238 688.15,-234.5 688.15,-241.5"/>
</a>
</g>
</g>
<!-- Node5 -->
<g id="Node000005" class="node">
<title>Node5</title>
<g id="a_Node000005"><a xlink:href="classGrille.html#aa4c9ce36bb4f2c59a83aeb39d73fc285" target="_top" xlink:title="Vérifie si une position est valide dans la grille.">
<polygon fill="white" stroke="#666666" points="978,-248 858.5,-248 858.5,-228 978,-228 978,-248"/>
<text xml:space="preserve" text-anchor="middle" x="918.25" y="-234.5" font-family="Helvetica,sans-Serif" font-size="10.00">Grille::estPositionValide</text>
</a>
</g>
</g>
<!-- Node4&#45;&gt;Node5 -->
<g id="edge4_Node000004_Node000005" class="edge">
<title>Node4&#45;&gt;Node5</title>
<g id="a_edge4_Node000004_Node000005"><a xlink:title=" ">
<path fill="none" stroke="#63b8ff" d="M819.24,-238C828.16,-238 837.45,-238 846.59,-238"/>
<polygon fill="#63b8ff" stroke="#63b8ff" points="846.55,-241.5 856.55,-238 846.55,-234.5 846.55,-241.5"/>
</a>
</g>
</g>
<!-- Node7 -->
<g id="Node000007" class="node">
<title>Node7</title>
<g id="a_Node000007"><a xlink:href="classTestsUnitaires.html#af1671fe34db212a79ee1f4b2869d576e" target="_top" xlink:title="Affiche le résultat d&#39;un test.">
<polygon fill="white" stroke="#666666" points="660.25,-210 543.75,-210 543.75,-178 660.25,-178 660.25,-210"/>
<text xml:space="preserve" text-anchor="start" x="551.75" y="-196.5" font-family="Helvetica,sans-Serif" font-size="10.00">TestsUnitaires::afficher</text>
<text xml:space="preserve" text-anchor="middle" x="602" y="-184.5" font-family="Helvetica,sans-Serif" font-size="10.00">Resultat</text>
</a>
</g>
</g>
<!-- Node6&#45;&gt;Node7 -->
<g id="edge6_Node000006_Node000007" class="edge">
<title>Node6&#45;&gt;Node7</title>
<g id="a_edge6_Node000006_Node000007"><a xlink:title=" ">
<path fill="none" stroke="#63b8ff" d="M484.26,-265.51C492.28,-263.14 500.36,-260.32 507.75,-257 530.97,-246.56 554.71,-230.43 572.42,-217.1"/>
<polygon fill="#63b8ff" stroke="#63b8ff" points="574.1,-220.23 579.9,-211.36 569.84,-214.67 574.1,-220.23"/>
</a>
</g>
</g>
<!-- Node8 -->
<g id="Node000008" class="node">
<title>Node8</title>
<g id="a_Node000008"><a xlink:href="classGrille.html#a980652764fefe3f45fcc0516a6e59abb" target="_top" xlink:title="Met à jour la grille pour passer à l&#39;itération suivante.">
<polygon fill="white" stroke="#666666" points="650.88,-286 553.12,-286 553.12,-266 650.88,-266 650.88,-286"/>
<text xml:space="preserve" text-anchor="middle" x="602" y="-272.5" font-family="Helvetica,sans-Serif" font-size="10.00">Grille::mettreAJour</text>
</a>
</g>
</g>
<!-- Node6&#45;&gt;Node8 -->
<g id="edge7_Node000006_Node000008" class="edge">
<title>Node6&#45;&gt;Node8</title>
<g id="a_edge7_Node000006_Node000008"><a xlink:title=" ">
<path fill="none" stroke="#63b8ff" d="M508.01,-276C519.17,-276 530.55,-276 541.35,-276"/>
<polygon fill="#63b8ff" stroke="#63b8ff" points="541.28,-279.5 551.28,-276 541.28,-272.5 541.28,-279.5"/>
</a>
</g>
</g>
<!-- Node8&#45;&gt;Node4 -->
<g id="edge8_Node000008_Node000004" class="edge">
<title>Node8&#45;&gt;Node4</title>
<g id="a_edge8_Node000008_Node000004"><a xlink:title=" ">
<path fill="none" stroke="#63b8ff" d="M645.87,-265.52C664.04,-261.07 685.42,-255.84 704.63,-251.15"/>
<polygon fill="#63b8ff" stroke="#63b8ff" points="705.29,-254.59 714.18,-248.81 703.63,-247.79 705.29,-254.59"/>
</a>
</g>
</g>
<!-- Node9 -->
<g id="Node000009" class="node">
<title>Node9</title>
<g id="a_Node000009"><a xlink:href="classGrille.html#aa8f57932935f9b316ccdbd0705021d6b" target="_top" xlink:title="Constructeur de la grille.">
<polygon fill="white" stroke="#666666" points="951.75,-305 884.75,-305 884.75,-285 951.75,-285 951.75,-305"/>
<text xml:space="preserve" text-anchor="middle" x="918.25" y="-291.5" font-family="Helvetica,sans-Serif" font-size="10.00">Grille::Grille</text>
</a>
</g>
</g>
<!-- Node8&#45;&gt;Node9 -->
<g id="edge9_Node000008_Node000009" class="edge">
<title>Node8&#45;&gt;Node9</title>
<g id="a_edge9_Node000008_Node000009"><a xlink:title=" ">
<path fill="none" stroke="#63b8ff" d="M644.97,-286.42C660.92,-289.88 679.32,-293.29 696.25,-295 757.4,-301.17 828.55,-299.62 873.25,-297.59"/>
<polygon fill="#63b8ff" stroke="#63b8ff" points="873.24,-301.1 883.06,-297.12 872.9,-294.1 873.24,-301.1"/>
</a>
</g>
</g>
<!-- Node10 -->
<g id="Node000010" class="node">
<title>Node10</title>
<g id="a_Node000010"><a xlink:href="classGrille.html#a7073ca25319522d4602550da3dfb1d22" target="_top" xlink:title="Met à jour un ensemble de lignes (parallélisation optimisée).">
<polygon fill="white" stroke="#666666" points="822.5,-286 696.25,-286 696.25,-266 822.5,-266 822.5,-286"/>
<text xml:space="preserve" text-anchor="middle" x="759.38" y="-272.5" font-family="Helvetica,sans-Serif" font-size="10.00">Grille::mettreAJourLignes</text>
</a>
</g>
</g>
<!-- Node8&#45;&gt;Node10 -->
<g id="edge10_Node000008_Node000010" class="edge">
<title>Node8&#45;&gt;Node10</title>
<g id="a_edge10_Node000008_Node000010"><a xlink:title=" ">
<path fill="none" stroke="#63b8ff" d="M651.31,-276C661.87,-276 673.27,-276 684.57,-276"/>
<polygon fill="#63b8ff" stroke="#63b8ff" points="684.28,-279.5 694.28,-276 684.28,-272.5 684.28,-279.5"/>
</a>
</g>
</g>
<!-- Node10&#45;&gt;Node9 -->
<g id="edge11_Node000010_Node000009" class="edge">
<title>Node10&#45;&gt;Node9</title>
<g id="a_edge11_Node000010_Node000009"><a xlink:title=" ">
<path fill="none" stroke="#63b8ff" d="M822.83,-283.56C839.58,-285.59 857.34,-287.74 872.89,-289.63"/>
<polygon fill="#63b8ff" stroke="#63b8ff" points="872.44,-293.1 882.79,-290.83 873.28,-286.15 872.44,-293.1"/>
</a>
</g>
</g>
<!-- Node11&#45;&gt;Node3 -->
<g id="edge13_Node000011_Node000003" class="edge">
<title>Node11&#45;&gt;Node3</title>
<g id="a_edge13_Node000011_Node000003"><a xlink:title=" ">
<path fill="none" stroke="#63b8ff" d="M317.44,-238C330.33,-238 343.71,-238 356.58,-238"/>
<polygon fill="#63b8ff" stroke="#63b8ff" points="356.21,-241.5 366.21,-238 356.21,-234.5 356.21,-241.5"/>
</a>
</g>
</g>
<!-- Node11&#45;&gt;Node6 -->
<g id="edge14_Node000011_Node000006" class="edge">
<title>Node11&#45;&gt;Node6</title>
<g id="a_edge14_Node000011_Node000006"><a xlink:title=" ">
<path fill="none" stroke="#63b8ff" d="M293.59,-248.48C316.62,-253.07 343.83,-258.5 367.99,-263.31"/>
<polygon fill="#63b8ff" stroke="#63b8ff" points="367.23,-266.73 377.72,-265.25 368.6,-259.87 367.23,-266.73"/>
</a>
</g>
</g>
<!-- Node12&#45;&gt;Node3 -->
<g id="edge17_Node000012_Node000003" class="edge">
<title>Node12&#45;&gt;Node3</title>
<g id="a_edge17_Node000012_Node000003"><a xlink:title=" ">
<path fill="none" stroke="#63b8ff" d="M298.18,-172.38C306.09,-175.05 314.05,-177.94 321.5,-181 350.43,-192.87 381.98,-209.62 403.86,-221.89"/>
<polygon fill="#63b8ff" stroke="#63b8ff" points="402.03,-224.87 412.46,-226.76 405.49,-218.79 402.03,-224.87"/>
</a>
</g>
</g>
<!-- Node12&#45;&gt;Node7 -->
<g id="edge16_Node000012_Node000007" class="edge">
<title>Node12&#45;&gt;Node7</title>
<g id="a_edge16_Node000012_Node000007"><a xlink:title=" ">
<path fill="none" stroke="#63b8ff" d="M307.03,-162.97C370.89,-169.71 467.27,-179.88 532.09,-186.73"/>
<polygon fill="#63b8ff" stroke="#63b8ff" points="531.59,-190.19 541.9,-187.76 532.32,-183.23 531.59,-190.19"/>
</a>
</g>
</g>
<!-- Node13&#45;&gt;Node3 -->
<g id="edge20_Node000013_Node000003" class="edge">
<title>Node13&#45;&gt;Node3</title>
<g id="a_edge20_Node000013_Node000003"><a xlink:title=" ">
<path fill="none" stroke="#63b8ff" d="M275.74,-109.44C290.49,-114.7 307.49,-121.93 321.5,-131 360.04,-155.96 396.58,-195.78 416.36,-219.16"/>
<polygon fill="#63b8ff" stroke="#63b8ff" points="413.49,-221.18 422.57,-226.64 418.87,-216.71 413.49,-221.18"/>
</a>
</g>
</g>
<!-- Node13&#45;&gt;Node4 -->
<g id="edge21_Node000013_Node000004" class="edge">
<title>Node13&#45;&gt;Node4</title>
<g id="a_edge21_Node000013_Node000004"><a xlink:title=" ">
<path fill="none" stroke="#63b8ff" d="M268.14,-88.58C317.09,-71.35 422.95,-41.25 507.75,-67 607.14,-97.17 702.12,-182.32 740.51,-219.85"/>
<polygon fill="#63b8ff" stroke="#63b8ff" points="737.99,-222.28 747.55,-226.84 742.92,-217.31 737.99,-222.28"/>
</a>
</g>
</g>
<!-- Node13&#45;&gt;Node7 -->
<g id="edge19_Node000013_Node000007" class="edge">
<title>Node13&#45;&gt;Node7</title>
<g id="a_edge19_Node000013_Node000007"><a xlink:title=" ">
<path fill="none" stroke="#63b8ff" d="M286.52,-109.4C339.79,-121.77 430.55,-143.47 507.75,-165 518.05,-167.87 528.94,-171.09 539.5,-174.31"/>
<polygon fill="#63b8ff" stroke="#63b8ff" points="538.31,-177.61 548.9,-177.21 540.37,-170.92 538.31,-177.61"/>
</a>
</g>
</g>
<!-- Node14 -->
<g id="Node000014" class="node">
<title>Node14</title>
<g id="a_Node000014"><a xlink:href="classCellule.html#a4e34ac281afdba1d793fbd0239022a5e" target="_top" xlink:title="Vérifie si la cellule est un obstacle.">
<polygon fill="white" stroke="#666666" points="484.88,-96 380.38,-96 380.38,-76 484.88,-76 484.88,-96"/>
<text xml:space="preserve" text-anchor="middle" x="432.62" y="-82.5" font-family="Helvetica,sans-Serif" font-size="10.00">Cellule::estObstacle</text>
</a>
</g>
</g>
<!-- Node13&#45;&gt;Node14 -->
<g id="edge22_Node000013_Node000014" class="edge">
<title>Node13&#45;&gt;Node14</title>
<g id="a_edge22_Node000013_Node000014"><a xlink:title=" ">
<path fill="none" stroke="#63b8ff" d="M317.44,-93.79C334.52,-92.62 352.45,-91.4 368.9,-90.28"/>
<polygon fill="#63b8ff" stroke="#63b8ff" points="368.78,-93.79 378.52,-89.62 368.3,-86.81 368.78,-93.79"/>
</a>
</g>
</g>
<!-- Node15 -->
<g id="Node000015" class="node">
<title>Node15</title>
<g id="a_Node000015"><a xlink:href="classCellule.html#a70d2731234961e330fe0a31486d1dec7" target="_top" xlink:title="Vérifie si la cellule est vivante.">
<polygon fill="white" stroke="#666666" points="481.88,-20 383.38,-20 383.38,0 481.88,0 481.88,-20"/>
<text xml:space="preserve" text-anchor="middle" x="432.62" y="-6.5" font-family="Helvetica,sans-Serif" font-size="10.00">Cellule::estVivante</text>
</a>
</g>
</g>
<!-- Node13&#45;&gt;Node15 -->
<g id="edge23_Node000013_Node000015" class="edge">
<title>Node13&#45;&gt;Node15</title>
<g id="a_edge23_Node000013_Node000015"><a xlink:title=" ">
<path fill="none" stroke="#63b8ff" d="M257.07,-88.7C279.08,-74.9 320.13,-50.29 357.5,-34 365.87,-30.35 374.99,-26.96 383.87,-23.94"/>
<polygon fill="#63b8ff" stroke="#63b8ff" points="384.67,-27.36 393.09,-20.92 382.49,-20.7 384.67,-27.36"/>
</a>
</g>
</g>
<!-- Node16&#45;&gt;Node3 -->
<g id="edge26_Node000016_Node000003" class="edge">
<title>Node16&#45;&gt;Node3</title>
<g id="a_edge26_Node000016_Node000003"><a xlink:title=" ">
<path fill="none" stroke="#63b8ff" d="M293.59,-210.48C316.62,-215.07 343.83,-220.5 367.99,-225.31"/>
<polygon fill="#63b8ff" stroke="#63b8ff" points="367.23,-228.73 377.72,-227.25 368.6,-221.87 367.23,-228.73"/>
</a>
</g>
</g>
<!-- Node16&#45;&gt;Node7 -->
<g id="edge25_Node000016_Node000007" class="edge">
<title>Node16&#45;&gt;Node7</title>
<g id="a_edge25_Node000016_Node000007"><a xlink:title=" ">
<path fill="none" stroke="#63b8ff" d="M311.69,-198.82C375.5,-197.76 468.8,-196.2 532.06,-195.15"/>
<polygon fill="#63b8ff" stroke="#63b8ff" points="532.05,-198.65 541.99,-194.98 531.94,-191.65 532.05,-198.65"/>
</a>
</g>
</g>
<!-- Node17&#45;&gt;Node3 -->
<g id="edge29_Node000017_Node000003" class="edge">
<title>Node17&#45;&gt;Node3</title>
<g id="a_edge29_Node000017_Node000003"><a xlink:title=" ">
<path fill="none" stroke="#63b8ff" d="M302.24,-303.56C308.96,-301.25 315.53,-298.44 321.5,-295 341.67,-283.4 337.45,-268.79 357.5,-257 360.15,-255.44 362.92,-254.01 365.77,-252.7"/>
<polygon fill="#63b8ff" stroke="#63b8ff" points="367.01,-255.97 374.98,-249 364.4,-249.48 367.01,-255.97"/>
</a>
</g>
</g>
<!-- Node17&#45;&gt;Node6 -->
<g id="edge31_Node000017_Node000006" class="edge">
<title>Node17&#45;&gt;Node6</title>
<g id="a_edge31_Node000017_Node000006"><a xlink:title=" ">
<path fill="none" stroke="#63b8ff" d="M293.59,-303.52C316.62,-298.93 343.83,-293.5 367.99,-288.69"/>
<polygon fill="#63b8ff" stroke="#63b8ff" points="368.6,-292.13 377.72,-286.75 367.23,-285.27 368.6,-292.13"/>
</a>
</g>
</g>
<!-- Node17&#45;&gt;Node7 -->
<g id="edge28_Node000017_Node000007" class="edge">
<title>Node17&#45;&gt;Node7</title>
<g id="a_edge28_Node000017_Node000007"><a xlink:title=" ">
<path fill="none" stroke="#63b8ff" d="M321.97,-323.31C377,-326.12 450.01,-322.76 507.75,-295 510.07,-293.88 551.81,-248.19 578.65,-218.65"/>
<polygon fill="#63b8ff" stroke="#63b8ff" points="580.96,-221.31 585.09,-211.55 575.78,-216.6 580.96,-221.31"/>
</a>
</g>
</g>
<!-- Node17&#45;&gt;Node8 -->
<g id="edge30_Node000017_Node000008" class="edge">
<title>Node17&#45;&gt;Node8</title>
<g id="a_edge30_Node000017_Node000008"><a xlink:title=" ">
<path fill="none" stroke="#63b8ff" d="M285.73,-324.49C339.4,-335.23 431.67,-347.78 507.75,-328 533.82,-321.22 560.33,-305.39 578.39,-292.96"/>
<polygon fill="#63b8ff" stroke="#63b8ff" points="580.39,-295.84 586.5,-287.19 576.33,-290.13 580.39,-295.84"/>
</a>
</g>
</g>
</g>
</svg>

<g id="navigator" transform="translate(0 0)" fill="#404254">
  <rect fill="#f2f5e9" fill-opacity="0.5" stroke="#606060" stroke-width=".5" x="0" y="0" width="60" height="60"/>
  <use id="zoomplus" xlink:href="#zoomPlus" x="17" y="9" onmousedown="handleZoom(evt,'in')"/>
  <use id="zoomminus" xlink:href="#zoomMin" x="42" y="9" onmousedown="handleZoom(evt,'out')"/>
  <use id="reset" xlink:href="#resetDef" x="30" y="36" onmousedown="handleReset()"/>
   <use id="arrowup" xlink:href="#arrowUp" x="0" y="0" onmousedown="handlePan(0,-1)"/>
  <use id="arrowright" xlink:href="#arrowRight" x="0" y="0" onmousedown="handlePan(1,0)"/>
  <use id="arrowdown" xlink:href="#arrowDown" x="0" y="0" onmousedown="handlePan(0,1)"/>
  <use id="arrowleft" xlink:href="#arrowLeft" x="0" y="0" onmousedown="handlePan(-1,0)"/>
</g>
<svg viewBox="0 0 15 15" width="100%" height="30px" preserveAspectRatio="xMaxYMin meet">
 <g id="arrow_out" transform="scale(0.3 0.3)">
  <a xlink:href="classTestsUnitaires_a17aa4e9d0afbd2614193d2638f4b78c7_cgraph_org.svg" target="_base">
   <rect id="button" ry="5" rx="5" y="6" x="6" height="38" width="38"
        fill="#f2f5e9" fill-opacity="0.5" stroke="#606060" stroke-width="1.0"/>
   <path id="arrow"
     d="M 11.500037,31.436501 C 11.940474,20.09759 22.043105,11.32322 32.158766,21.979434 L 37.068811,17.246167 C 37.068811,17.246167 37.088388,32 37.088388,32 L 22.160133,31.978069 C 22.160133,31.978069 26.997745,27.140456 26.997745,27.140456 C 18.528582,18.264221 13.291696,25.230495 11.500037,31.436501 z"
     style="fill:#404040;"/>
  </a>
 </g>
</svg>

<style type='text/css'>
<![CDATA[
[data-mouse-over-selected='false'] { opacity: 0.7; }
[data-mouse-over-selected='true']  { opacity: 1.0; }
]]>
</style>
<script type="application/ecmascript"><![CDATA[
document.addEventListener('DOMContentLoaded', (event) => {
  highlightEdges();
  highlightAdjacentNodes();
});
]]></script>
</svg>
