<?xml version="1.0" encoding="UTF-8" standalone="no"?>
<!DOCTYPE svg PUBLIC "-//W3C//DTD SVG 1.1//EN"
 "http://www.w3.org/Graphics/SVG/1.1/DTD/svg11.dtd">
<!-- Generated by graphviz version 14.0.2 (20251019.1705)
 -->
<!-- Title: Cellule::estVivante Pages: 1 -->
<!--zoomable 428 -->

<svg id="main" version="1.1" xmlns="http://www.w3.org/2000/svg" xmlns:xlink="http://www.w3.org/1999/xlink" xml:space="preserve" onload="init(evt)">

<style type="text/css"><![CDATA[
.node, .edge {opacity: 0.7;}
.node.selected, .edge.selected {opacity: 1;}
.edge:hover path { stroke: red; }
.edge:hover polygon { stroke: red; fill: red; }
]]></style>

<defs>
  <circle id="rim" cx="0" cy="0" r="7"/>
  <circle id="rim2" cx="0" cy="0" r="3.5"/>
  <g id="zoomPlus">
    <use xlink:href="#rim" fill="#404040"><set attributeName="fill" to="#808080" begin="zoomplus.mouseover" end="zoomplus.mouseout"/></use>
    <path d="M-4,0h8M0,-4v8" fill="none" stroke="white" stroke-width="1.5" pointer-events="none"/>
  </g>
  <g id="zoomMin">
    <use xlink:href="#rim" fill="#404040"><set attributeName="fill" to="#808080" begin="zoomminus.mouseover" end="zoomminus.mouseout"/></use>
    <path d="M-4,0h8" fill="none" stroke="white" stroke-width="1.5" pointer-events="none"/>
  </g>
  <g id="arrowUp" transform="translate(30 24)">
    <use xlink:href="#rim"/>
    <path pointer-events="none" fill="none" stroke="white" stroke-width="1.5" d="M0,-3.0v7 M-2.5,-0.5L0,-3.0L2.5,-0.5"/>
  </g>
  <g id="arrowRight" transform="rotate(90) translate(36 -43)">
    <use xlink:href="#rim"/>
    <path pointer-events="none" fill="none" stroke="white" stroke-width="1.5" d="M0,-3.0v7 M-2.5,-0.5L0,-3.0L2.5,-0.5"/>
  </g>
  <g id="arrowDown" transform="rotate(180) translate(-30 -48)">
    <use xlink:href="#rim"/>
    <path pointer-events="none" fill="none" stroke="white" stroke-width="1.5" d="M0,-3.0v7 M-2.5,-0.5L0,-3.0L2.5,-0.5"/>
  </g>
  <g id="arrowLeft" transform="rotate(270) translate(-36 17)">
    <use xlink:href="#rim"/>
    <path pointer-events="none" fill="none" stroke="white" stroke-width="1.5" d="M0,-3.0v7 M-2.5,-0.5L0,-3.0L2.5,-0.5"/>
  </g>
  <g id="resetDef">
    <use xlink:href="#rim2" fill="#404040"><set attributeName="fill" to="#808080" begin="reset.mouseover" end="reset.mouseout"/></use>
  </g>
</defs>
<script type="application/ecmascript">
var viewWidth = 1021;
var viewHeight = 428;
var sectionId = 'dynsection-4';
</script>
<script type="application/ecmascript" xlink:href="svg.min.js"/>
<svg id="graph" class="graph">
<g id="viewport">
<title>Cellule::estVivante</title>
<!-- Node1 -->
<g id="Node000001" class="node">
<title>Node1</title>
<g id="a_Node000001"><a xlink:title="Vérifie si la cellule est vivante.">
<polygon fill="#999999" stroke="#666666" points="1012.5,-240 914,-240 914,-220 1012.5,-220 1012.5,-240"/>
<text xml:space="preserve" text-anchor="middle" x="963.25" y="-226.5" font-family="Helvetica,sans-Serif" font-size="10.00">Cellule::estVivante</text>
</a>
</g>
</g>
<!-- Node2 -->
<g id="Node000002" class="node">
<title>Node2</title>
<g id="a_Node000002"><a xlink:href="classModeConsole.html#ae77e7a8e7b14d611164441ecf12d3433" target="_top" xlink:title="Affiche la grille dans la console.">
<polygon fill="white" stroke="#666666" points="857.38,-344 721.38,-344 721.38,-324 857.38,-324 857.38,-344"/>
<text xml:space="preserve" text-anchor="middle" x="789.38" y="-330.5" font-family="Helvetica,sans-Serif" font-size="10.00">ModeConsole::afficherGrille</text>
</a>
</g>
</g>
<!-- Node1&#45;&gt;Node2 -->
<g id="edge1_Node000001_Node000002" class="edge">
<title>Node1&#45;&gt;Node2</title>
<g id="a_edge1_Node000001_Node000002"><a xlink:title=" ">
<path fill="none" stroke="#63b8ff" d="M947.23,-248.88C931.75,-267.12 905.98,-294.22 878,-310 867.83,-315.73 856.22,-320.16 844.85,-323.55"/>
<polygon fill="#63b8ff" stroke="#63b8ff" points="949.72,-251.37 953.38,-241.43 944.32,-246.92 949.72,-251.37"/>
</a>
</g>
</g>
<!-- Node5 -->
<g id="Node000005" class="node">
<title>Node5</title>
<g id="a_Node000005"><a xlink:href="classRegleStandard.html#a0c051f441f8b5aeac028872a7347fc35" target="_top" xlink:title="Calcule le nouvel état d&#39;une cellule selon les règles du jeu.">
<polygon fill="white" stroke="#666666" points="664.75,-284 495.75,-284 495.75,-264 664.75,-264 664.75,-284"/>
<text xml:space="preserve" text-anchor="middle" x="580.25" y="-270.5" font-family="Helvetica,sans-Serif" font-size="10.00">RegleStandard::calculerNouvelEtat</text>
</a>
</g>
</g>
<!-- Node1&#45;&gt;Node5 -->
<g id="edge4_Node000001_Node000005" class="edge">
<title>Node1&#45;&gt;Node5</title>
<g id="a_edge4_Node000001_Node000005"><a xlink:title=" ">
<path fill="none" stroke="#63b8ff" d="M939.7,-246.78C923.47,-257.76 900.55,-271.14 878,-277 800.96,-297.04 708.83,-291.79 647.87,-284.49"/>
<polygon fill="#63b8ff" stroke="#63b8ff" points="941.47,-249.81 947.64,-241.2 937.45,-244.08 941.47,-249.81"/>
</a>
</g>
</g>
<!-- Node6 -->
<g id="Node000006" class="node">
<title>Node6</title>
<g id="a_Node000006"><a xlink:href="classRegleTorique.html#aea2f956fa0b75f4a8d9919f4a36e9eee" target="_top" xlink:title="Calcule le nouvel état d&#39;une cellule selon les règles du jeu.">
<polygon fill="white" stroke="#666666" points="661,-198 499.5,-198 499.5,-178 661,-178 661,-198"/>
<text xml:space="preserve" text-anchor="middle" x="580.25" y="-184.5" font-family="Helvetica,sans-Serif" font-size="10.00">RegleTorique::calculerNouvelEtat</text>
</a>
</g>
</g>
<!-- Node1&#45;&gt;Node6 -->
<g id="edge5_Node000001_Node000006" class="edge">
<title>Node1&#45;&gt;Node6</title>
<g id="a_edge5_Node000001_Node000006"><a xlink:title=" ">
<path fill="none" stroke="#63b8ff" d="M902.35,-223.4C837.41,-216.24 733.44,-204.78 661.48,-196.84"/>
<polygon fill="#63b8ff" stroke="#63b8ff" points="901.78,-226.86 912.1,-224.47 902.55,-219.9 901.78,-226.86"/>
</a>
</g>
</g>
<!-- Node7 -->
<g id="Node000007" class="node">
<title>Node7</title>
<g id="a_Node000007"><a xlink:href="classInterfaceQt.html#abe5b2e247e50614efbf88402c774899c" target="_top" xlink:title="Compte les cellules vivantes.">
<polygon fill="white" stroke="#666666" points="860,-130 718.75,-130 718.75,-98 860,-98 860,-130"/>
<text xml:space="preserve" text-anchor="start" x="726.75" y="-116.5" font-family="Helvetica,sans-Serif" font-size="10.00">InterfaceQt::compterCellules</text>
<text xml:space="preserve" text-anchor="middle" x="789.38" y="-104.5" font-family="Helvetica,sans-Serif" font-size="10.00">Vivantes</text>
</a>
</g>
</g>
<!-- Node1&#45;&gt;Node7 -->
<g id="edge6_Node000001_Node000007" class="edge">
<title>Node1&#45;&gt;Node7</title>
<g id="a_edge6_Node000001_Node000007"><a xlink:title=" ">
<path fill="none" stroke="#63b8ff" d="M948.92,-210.12C934.01,-189.39 907.97,-157.41 878,-139 872.47,-135.6 866.47,-132.66 860.28,-130.1"/>
<polygon fill="#63b8ff" stroke="#63b8ff" points="946.03,-212.1 954.62,-218.3 951.77,-208.1 946.03,-212.1"/>
</a>
</g>
</g>
<!-- Node17 -->
<g id="Node000017" class="node">
<title>Node17</title>
<g id="a_Node000017"><a xlink:href="classRegleStandard.html#ab892c4bd38ca021326c6188d0db0e421" target="_top" xlink:title="Compte le nombre de voisins vivants.">
<polygon fill="white" stroke="#666666" points="866,-268 712.75,-268 712.75,-236 866,-236 866,-268"/>
<text xml:space="preserve" text-anchor="start" x="720.75" y="-254.5" font-family="Helvetica,sans-Serif" font-size="10.00">RegleStandard::compterVoisins</text>
<text xml:space="preserve" text-anchor="middle" x="789.38" y="-242.5" font-family="Helvetica,sans-Serif" font-size="10.00">Vivants</text>
</a>
</g>
</g>
<!-- Node1&#45;&gt;Node17 -->
<g id="edge22_Node000001_Node000017" class="edge">
<title>Node1&#45;&gt;Node17</title>
<g id="a_edge22_Node000001_Node000017"><a xlink:title=" ">
<path fill="none" stroke="#63b8ff" d="M902.51,-237.65C890.83,-239.14 878.43,-240.73 866.31,-242.28"/>
<polygon fill="#63b8ff" stroke="#63b8ff" points="902.94,-241.12 912.41,-236.38 902.05,-234.18 902.94,-241.12"/>
</a>
</g>
</g>
<!-- Node18 -->
<g id="Node000018" class="node">
<title>Node18</title>
<g id="a_Node000018"><a xlink:href="classRegleTorique.html#a5f15a29a47c045ccd89a64c72de030e1" target="_top" xlink:title="Compte le nombre de voisins vivants.">
<polygon fill="white" stroke="#666666" points="862.25,-180 716.5,-180 716.5,-148 862.25,-148 862.25,-180"/>
<text xml:space="preserve" text-anchor="start" x="724.5" y="-166.5" font-family="Helvetica,sans-Serif" font-size="10.00">RegleTorique::compterVoisins</text>
<text xml:space="preserve" text-anchor="middle" x="789.38" y="-154.5" font-family="Helvetica,sans-Serif" font-size="10.00">Vivants</text>
</a>
</g>
</g>
<!-- Node1&#45;&gt;Node18 -->
<g id="edge24_Node000001_Node000018" class="edge">
<title>Node1&#45;&gt;Node18</title>
<g id="a_edge24_Node000001_Node000018"><a xlink:title=" ">
<path fill="none" stroke="#63b8ff" d="M929.09,-215.16C913.67,-208.43 895.01,-200.54 878,-194 865.99,-189.39 852.93,-184.73 840.65,-180.5"/>
<polygon fill="#63b8ff" stroke="#63b8ff" points="927.25,-218.17 937.81,-218.99 930.06,-211.76 927.25,-218.17"/>
</a>
</g>
</g>
<!-- Node19 -->
<g id="Node000019" class="node">
<title>Node19</title>
<g id="a_Node000019"><a xlink:href="classInterfaceQt.html#a814719cf92c437e1ea4d6a433f4c817b" target="_top" xlink:title="Dessine la grille (appelé par paintEvent de GrilleWidget).">
<polygon fill="white" stroke="#666666" points="854.38,-80 724.38,-80 724.38,-60 854.38,-60 854.38,-80"/>
<text xml:space="preserve" text-anchor="middle" x="789.38" y="-66.5" font-family="Helvetica,sans-Serif" font-size="10.00">InterfaceQt::dessinerGrille</text>
</a>
</g>
</g>
<!-- Node1&#45;&gt;Node19 -->
<g id="edge26_Node000001_Node000019" class="edge">
<title>Node1&#45;&gt;Node19</title>
<g id="a_edge26_Node000001_Node000019"><a xlink:title=" ">
<path fill="none" stroke="#63b8ff" d="M955.73,-208.94C944.89,-177.63 920.1,-119.24 878,-89 871.05,-84.01 863.04,-80.28 854.74,-77.51"/>
<polygon fill="#63b8ff" stroke="#63b8ff" points="952.28,-209.66 958.73,-218.06 958.93,-207.47 952.28,-209.66"/>
</a>
</g>
</g>
<!-- Node20 -->
<g id="Node000020" class="node">
<title>Node20</title>
<g id="a_Node000020"><a xlink:href="classInterfaceSFML.html#a6be07281be6cedd2ea9dde170234630c" target="_top" xlink:title="Dessine la grille.">
<polygon fill="white" stroke="#666666" points="862.25,-382 716.5,-382 716.5,-362 862.25,-362 862.25,-382"/>
<text xml:space="preserve" text-anchor="middle" x="789.38" y="-368.5" font-family="Helvetica,sans-Serif" font-size="10.00">InterfaceSFML::dessinerGrille</text>
</a>
</g>
</g>
<!-- Node1&#45;&gt;Node20 -->
<g id="edge27_Node000001_Node000020" class="edge">
<title>Node1&#45;&gt;Node20</title>
<g id="a_edge27_Node000001_Node000020"><a xlink:title=" ">
<path fill="none" stroke="#63b8ff" d="M953.94,-250.73C941.67,-278.56 915.97,-327.48 878,-353 872.83,-356.47 867.14,-359.33 861.21,-361.67"/>
<polygon fill="#63b8ff" stroke="#63b8ff" points="957.13,-252.18 957.79,-241.61 950.68,-249.46 957.13,-252.18"/>
</a>
</g>
</g>
<!-- Node23 -->
<g id="Node000023" class="node">
<title>Node23</title>
<g id="a_Node000023"><a xlink:href="classInterfaceSFML.html#a9b5a8e272d8dc3c033e09fde93ac4845" target="_top" xlink:title="Dessine les informations à l&#39;écran.">
<polygon fill="white" stroke="#666666" points="878,-420 700.75,-420 700.75,-400 878,-400 878,-420"/>
<text xml:space="preserve" text-anchor="middle" x="789.38" y="-406.5" font-family="Helvetica,sans-Serif" font-size="10.00">InterfaceSFML::dessinerInformations</text>
</a>
</g>
</g>
<!-- Node1&#45;&gt;Node23 -->
<g id="edge31_Node000001_Node000023" class="edge">
<title>Node1&#45;&gt;Node23</title>
<g id="a_edge31_Node000001_Node000023"><a xlink:title=" ">
<path fill="none" stroke="#63b8ff" d="M957.41,-251.02C948.24,-285.85 924.91,-355.25 878,-391 873.54,-394.4 868.61,-397.21 863.41,-399.55"/>
<polygon fill="#63b8ff" stroke="#63b8ff" points="960.7,-252.26 959.71,-241.72 953.91,-250.58 960.7,-252.26"/>
</a>
</g>
</g>
<!-- Node24 -->
<g id="Node000024" class="node">
<title>Node24</title>
<g id="a_Node000024"><a xlink:href="classTestsUnitaires.html#a7783880416ef4c0f160e1d8242f0d392" target="_top" xlink:title="Teste les cellules obstacles.">
<polygon fill="white" stroke="#666666" points="866.38,-39 712.38,-39 712.38,-19 866.38,-19 866.38,-39"/>
<text xml:space="preserve" text-anchor="middle" x="789.38" y="-25.5" font-family="Helvetica,sans-Serif" font-size="10.00">TestsUnitaires::testerObstacles</text>
</a>
</g>
</g>
<!-- Node1&#45;&gt;Node24 -->
<g id="edge33_Node000001_Node000024" class="edge">
<title>Node1&#45;&gt;Node24</title>
<g id="a_edge33_Node000001_Node000024"><a xlink:title=" ">
<path fill="none" stroke="#63b8ff" d="M958.33,-208.45C950.29,-170.62 928.28,-92.37 878,-51 872.19,-46.22 865.47,-42.45 858.4,-39.5"/>
<polygon fill="#63b8ff" stroke="#63b8ff" points="954.87,-209.01 960.25,-218.14 961.74,-207.65 954.87,-209.01"/>
</a>
</g>
</g>
<!-- Node3 -->
<g id="Node000003" class="node">
<title>Node3</title>
<g id="a_Node000003"><a xlink:href="classModeConsole.html#a79ad19df6d20c391fbaf9a7b4fb2f350" target="_top" xlink:title="Exécute le mode console.">
<polygon fill="white" stroke="#666666" points="640,-344 520.5,-344 520.5,-324 640,-324 640,-344"/>
<text xml:space="preserve" text-anchor="middle" x="580.25" y="-330.5" font-family="Helvetica,sans-Serif" font-size="10.00">ModeConsole::executer</text>
</a>
</g>
</g>
<!-- Node2&#45;&gt;Node3 -->
<g id="edge2_Node000002_Node000003" class="edge">
<title>Node2&#45;&gt;Node3</title>
<g id="a_edge2_Node000002_Node000003"><a xlink:title=" ">
<path fill="none" stroke="#63b8ff" d="M709.66,-334C686.71,-334 662.02,-334 640.49,-334"/>
<polygon fill="#63b8ff" stroke="#63b8ff" points="709.61,-337.5 719.61,-334 709.61,-330.5 709.61,-337.5"/>
</a>
</g>
</g>
<!-- Node4 -->
<g id="Node000004" class="node">
<title>Node4</title>
<g id="a_Node000004"><a xlink:href="main_8cpp.html#a0ddf1224851353fc92bfbff6f499fa97" target="_top" xlink:title="Point d&#39;entrée du programme.">
<polygon fill="white" stroke="#666666" points="242.75,-363 205.75,-363 205.75,-343 242.75,-343 242.75,-363"/>
<text xml:space="preserve" text-anchor="middle" x="224.25" y="-349.5" font-family="Helvetica,sans-Serif" font-size="10.00">main</text>
</a>
</g>
</g>
<!-- Node3&#45;&gt;Node4 -->
<g id="edge3_Node000003_Node000004" class="edge">
<title>Node3&#45;&gt;Node4</title>
<g id="a_edge3_Node000003_Node000004"><a xlink:title=" ">
<path fill="none" stroke="#63b8ff" d="M508.96,-337.77C425.4,-342.26 291.24,-349.46 243.13,-352.04"/>
<polygon fill="#63b8ff" stroke="#63b8ff" points="509.09,-341.27 518.89,-337.24 508.71,-334.28 509.09,-341.27"/>
</a>
</g>
</g>
<!-- Node8 -->
<g id="Node000008" class="node">
<title>Node8</title>
<g id="a_Node000008"><a xlink:href="classInterfaceQt.html#a06b809d43dbf3814ab103a8d42de319a" target="_top" xlink:title="Met à jour l&#39;affichage.">
<polygon fill="white" stroke="#666666" points="642.25,-140 518.25,-140 518.25,-108 642.25,-108 642.25,-140"/>
<text xml:space="preserve" text-anchor="start" x="526.25" y="-126.5" font-family="Helvetica,sans-Serif" font-size="10.00">InterfaceQt::mettreAJour</text>
<text xml:space="preserve" text-anchor="middle" x="580.25" y="-114.5" font-family="Helvetica,sans-Serif" font-size="10.00">Affichage</text>
</a>
</g>
</g>
<!-- Node7&#45;&gt;Node8 -->
<g id="edge7_Node000007_Node000008" class="edge">
<title>Node7&#45;&gt;Node8</title>
<g id="a_edge7_Node000007_Node000008"><a xlink:title=" ">
<path fill="none" stroke="#63b8ff" d="M706.87,-117.94C685.48,-118.97 662.77,-120.06 642.63,-121.04"/>
<polygon fill="#63b8ff" stroke="#63b8ff" points="706.92,-121.44 716.74,-117.46 706.58,-114.44 706.92,-121.44"/>
</a>
</g>
</g>
<!-- Node9 -->
<g id="Node000009" class="node">
<title>Node9</title>
<g id="a_Node000009"><a xlink:href="classInterfaceQt.html#a0eea8fab1e83d4b90961bd4241fc5689" target="_top" xlink:title="Constructeur de l&#39;interface Qt.">
<polygon fill="white" stroke="#666666" points="119.5,-96 0,-96 0,-76 119.5,-76 119.5,-96"/>
<text xml:space="preserve" text-anchor="middle" x="59.75" y="-82.5" font-family="Helvetica,sans-Serif" font-size="10.00">InterfaceQt::InterfaceQt</text>
</a>
</g>
</g>
<!-- Node8&#45;&gt;Node9 -->
<g id="edge8_Node000008_Node000009" class="edge">
<title>Node8&#45;&gt;Node9</title>
<g id="a_edge8_Node000008_Node000009"><a xlink:title=" ">
<path fill="none" stroke="#63b8ff" d="M518.63,-104.28C499.91,-98.73 479.11,-93.09 459.75,-89 327.1,-61 290.41,-53.61 155.5,-67 138.3,-68.71 119.61,-72.12 103.4,-75.58"/>
<polygon fill="#63b8ff" stroke="#63b8ff" points="517.36,-107.56 527.94,-107.1 519.38,-100.86 517.36,-107.56"/>
</a>
</g>
</g>
<!-- Node10 -->
<g id="Node000010" class="node">
<title>Node10</title>
<g id="a_Node000010"><a xlink:href="classInterfaceQt.html#a280bb380e08e13ec39b8dca2ae917950" target="_top" xlink:title="Place un motif.">
<polygon fill="white" stroke="#666666" points="459.75,-172 329,-172 329,-152 459.75,-152 459.75,-172"/>
<text xml:space="preserve" text-anchor="middle" x="394.38" y="-158.5" font-family="Helvetica,sans-Serif" font-size="10.00">InterfaceQt::onPlacerMotif</text>
</a>
</g>
</g>
<!-- Node8&#45;&gt;Node10 -->
<g id="edge9_Node000008_Node000010" class="edge">
<title>Node8&#45;&gt;Node10</title>
<g id="a_edge9_Node000008_Node000010"><a xlink:title=" ">
<path fill="none" stroke="#63b8ff" d="M506.66,-139C486.39,-143.19 464.8,-147.65 446.08,-151.52"/>
<polygon fill="#63b8ff" stroke="#63b8ff" points="507.2,-142.46 516.28,-137.01 505.78,-135.61 507.2,-142.46"/>
</a>
</g>
</g>
<!-- Node12 -->
<g id="Node000012" class="node">
<title>Node12</title>
<g id="a_Node000012"><a xlink:href="classInterfaceQt.html#af564176618a18f272b92be6bfd9d029d" target="_top" xlink:title="Réinitialise la simulation.">
<polygon fill="white" stroke="#666666" points="448.12,-134 340.62,-134 340.62,-114 448.12,-114 448.12,-134"/>
<text xml:space="preserve" text-anchor="middle" x="394.38" y="-120.5" font-family="Helvetica,sans-Serif" font-size="10.00">InterfaceQt::onReset</text>
</a>
</g>
</g>
<!-- Node8&#45;&gt;Node12 -->
<g id="edge12_Node000008_Node000012" class="edge">
<title>Node8&#45;&gt;Node12</title>
<g id="a_edge12_Node000008_Node000012"><a xlink:title=" ">
<path fill="none" stroke="#63b8ff" d="M506.25,-124C486.96,-124 466.51,-124 448.49,-124"/>
<polygon fill="#63b8ff" stroke="#63b8ff" points="506.25,-127.5 516.25,-124 506.25,-120.5 506.25,-127.5"/>
</a>
</g>
</g>
<!-- Node13 -->
<g id="Node000013" class="node">
<title>Node13</title>
<g id="a_Node000013"><a xlink:href="classInterfaceQt.html#a1c1b614c51a456e7b5f407724df14f38" target="_top" xlink:title="Avance d&#39;une itération.">
<polygon fill="white" stroke="#666666" points="445.12,-210 343.62,-210 343.62,-190 445.12,-190 445.12,-210"/>
<text xml:space="preserve" text-anchor="middle" x="394.38" y="-196.5" font-family="Helvetica,sans-Serif" font-size="10.00">InterfaceQt::onStep</text>
</a>
</g>
</g>
<!-- Node8&#45;&gt;Node13 -->
<g id="edge14_Node000008_Node000013" class="edge">
<title>Node8&#45;&gt;Node13</title>
<g id="a_edge14_Node000008_Node000013"><a xlink:title=" ">
<path fill="none" stroke="#63b8ff" d="M538.41,-145.46C515.64,-156.91 486.55,-170.73 459.75,-181 451.7,-184.09 442.92,-186.98 434.51,-189.52"/>
<polygon fill="#63b8ff" stroke="#63b8ff" points="539.71,-148.72 547.04,-141.07 536.54,-142.48 539.71,-148.72"/>
</a>
</g>
</g>
<!-- Node15 -->
<g id="Node000015" class="node">
<title>Node15</title>
<g id="a_Node000015"><a xlink:href="classInterfaceQt.html#abe7956e622104a15a5de0b3f8c84921d" target="_top" xlink:title="Recule d&#39;une itération.">
<polygon fill="white" stroke="#666666" points="456.38,-248 332.38,-248 332.38,-228 456.38,-228 456.38,-248"/>
<text xml:space="preserve" text-anchor="middle" x="394.38" y="-234.5" font-family="Helvetica,sans-Serif" font-size="10.00">InterfaceQt::onStepBack</text>
</a>
</g>
</g>
<!-- Node8&#45;&gt;Node15 -->
<g id="edge17_Node000008_Node000015" class="edge">
<title>Node8&#45;&gt;Node15</title>
<g id="a_edge17_Node000008_Node000015"><a xlink:title=" ">
<path fill="none" stroke="#63b8ff" d="M530.38,-145.57C518.35,-152.12 506,-160 495.75,-169 475.17,-187.07 482.09,-203.16 459.75,-219 454.9,-222.44 449.43,-225.26 443.78,-227.58"/>
<polygon fill="#63b8ff" stroke="#63b8ff" points="531.75,-148.8 539.01,-141.08 528.52,-142.59 531.75,-148.8"/>
</a>
</g>
</g>
<!-- Node16 -->
<g id="Node000016" class="node">
<title>Node16</title>
<g id="a_Node000016"><a xlink:href="classInterfaceQt.html#abe1c50d3e3b80f6adecb9bf0cb9fca4c" target="_top" xlink:title="Mise à jour automatique (timer).">
<polygon fill="white" stroke="#666666" points="286.62,-96 161.88,-96 161.88,-76 286.62,-76 286.62,-96"/>
<text xml:space="preserve" text-anchor="middle" x="224.25" y="-82.5" font-family="Helvetica,sans-Serif" font-size="10.00">InterfaceQt::onTimerTick</text>
</a>
</g>
</g>
<!-- Node8&#45;&gt;Node16 -->
<g id="edge20_Node000008_Node000016" class="edge">
<title>Node8&#45;&gt;Node16</title>
<g id="a_edge20_Node000008_Node000016"><a xlink:title=" ">
<path fill="none" stroke="#63b8ff" d="M506.85,-111.57C491.34,-109.17 475.02,-106.83 459.75,-105 401.35,-98 334.45,-92.87 287.1,-89.71"/>
<polygon fill="#63b8ff" stroke="#63b8ff" points="506.05,-114.99 516.47,-113.09 507.14,-108.08 506.05,-114.99"/>
</a>
</g>
</g>
<!-- Node11 -->
<g id="Node000011" class="node">
<title>Node11</title>
<g id="a_Node000011"><a xlink:href="classInterfaceQt.html#a08632443206d676198dfd1f7492e7437" target="_top" xlink:title="Initialise les widgets.">
<polygon fill="white" stroke="#666666" points="278.75,-178 169.75,-178 169.75,-146 278.75,-146 278.75,-178"/>
<text xml:space="preserve" text-anchor="start" x="177.75" y="-164.5" font-family="Helvetica,sans-Serif" font-size="10.00">InterfaceQt::initialiser</text>
<text xml:space="preserve" text-anchor="middle" x="224.25" y="-152.5" font-family="Helvetica,sans-Serif" font-size="10.00">Widgets</text>
</a>
</g>
</g>
<!-- Node10&#45;&gt;Node11 -->
<g id="edge10_Node000010_Node000011" class="edge">
<title>Node10&#45;&gt;Node11</title>
<g id="a_edge10_Node000010_Node000011"><a xlink:title=" ">
<path fill="none" stroke="#63b8ff" d="M317.58,-162C304.65,-162 291.44,-162 279.22,-162"/>
<polygon fill="#63b8ff" stroke="#63b8ff" points="317.34,-165.5 327.34,-162 317.34,-158.5 317.34,-165.5"/>
</a>
</g>
</g>
<!-- Node11&#45;&gt;Node9 -->
<g id="edge11_Node000011_Node000009" class="edge">
<title>Node11&#45;&gt;Node9</title>
<g id="a_edge11_Node000011_Node000009"><a xlink:title=" ">
<path fill="none" stroke="#63b8ff" d="M177.86,-140.77C146.91,-126.3 107.27,-107.76 82.96,-96.39"/>
<polygon fill="#63b8ff" stroke="#63b8ff" points="176.08,-143.8 186.62,-144.87 179.04,-137.46 176.08,-143.8"/>
</a>
</g>
</g>
<!-- Node12&#45;&gt;Node11 -->
<g id="edge13_Node000012_Node000011" class="edge">
<title>Node12&#45;&gt;Node11</title>
<g id="a_edge13_Node000012_Node000011"><a xlink:title=" ">
<path fill="none" stroke="#63b8ff" d="M335.85,-137C317.51,-141.15 297.3,-145.72 279.22,-149.8"/>
<polygon fill="#63b8ff" stroke="#63b8ff" points="336.53,-140.44 345.51,-134.82 334.99,-133.61 336.53,-140.44"/>
</a>
</g>
</g>
<!-- Node13&#45;&gt;Node11 -->
<g id="edge15_Node000013_Node000011" class="edge">
<title>Node13&#45;&gt;Node11</title>
<g id="a_edge15_Node000013_Node000011"><a xlink:title=" ">
<path fill="none" stroke="#63b8ff" d="M335.85,-187C317.51,-182.85 297.3,-178.28 279.22,-174.2"/>
<polygon fill="#63b8ff" stroke="#63b8ff" points="334.99,-190.39 345.51,-189.18 336.53,-183.56 334.99,-190.39"/>
</a>
</g>
</g>
<!-- Node14 -->
<g id="Node000014" class="node">
<title>Node14</title>
<g id="a_Node000014"><a xlink:href="classInterfaceQt.html#a11edcee9206379725a8e97e68a100e80" target="_top" xlink:title="Gestion des événements clavier.">
<polygon fill="white" stroke="#666666" points="293,-232 155.5,-232 155.5,-212 293,-212 293,-232"/>
<text xml:space="preserve" text-anchor="middle" x="224.25" y="-218.5" font-family="Helvetica,sans-Serif" font-size="10.00">InterfaceQt::keyPressEvent</text>
</a>
</g>
</g>
<!-- Node13&#45;&gt;Node14 -->
<g id="edge16_Node000013_Node000014" class="edge">
<title>Node13&#45;&gt;Node14</title>
<g id="a_edge16_Node000013_Node000014"><a xlink:title=" ">
<path fill="none" stroke="#63b8ff" d="M332.08,-208.02C319.51,-209.67 306.2,-211.41 293.41,-213.08"/>
<polygon fill="#63b8ff" stroke="#63b8ff" points="332.43,-211.51 341.89,-206.74 331.52,-204.56 332.43,-211.51"/>
</a>
</g>
</g>
<!-- Node15&#45;&gt;Node11 -->
<g id="edge18_Node000015_Node000011" class="edge">
<title>Node15&#45;&gt;Node11</title>
<g id="a_edge18_Node000015_Node000011"><a xlink:title=" ">
<path fill="none" stroke="#63b8ff" d="M342.39,-224.07C337.82,-222.48 333.3,-220.79 329,-219 301.49,-207.54 271.86,-190.78 251.34,-178.39"/>
<polygon fill="#63b8ff" stroke="#63b8ff" points="341.04,-227.31 351.64,-227.09 343.22,-220.65 341.04,-227.31"/>
</a>
</g>
</g>
<!-- Node15&#45;&gt;Node14 -->
<g id="edge19_Node000015_Node000014" class="edge">
<title>Node15&#45;&gt;Node14</title>
<g id="a_edge19_Node000015_Node000014"><a xlink:title=" ">
<path fill="none" stroke="#63b8ff" d="M320.83,-231.1C311.76,-230.23 302.5,-229.35 293.49,-228.49"/>
<polygon fill="#63b8ff" stroke="#63b8ff" points="320.41,-234.57 330.7,-232.03 321.07,-227.6 320.41,-234.57"/>
</a>
</g>
</g>
<!-- Node16&#45;&gt;Node9 -->
<g id="edge21_Node000016_Node000009" class="edge">
<title>Node16&#45;&gt;Node9</title>
<g id="a_edge21_Node000016_Node000009"><a xlink:title=" ">
<path fill="none" stroke="#63b8ff" d="M150.39,-86C140.17,-86 129.77,-86 119.85,-86"/>
<polygon fill="#63b8ff" stroke="#63b8ff" points="150.3,-89.5 160.3,-86 150.3,-82.5 150.3,-89.5"/>
</a>
</g>
</g>
<!-- Node17&#45;&gt;Node5 -->
<g id="edge23_Node000017_Node000005" class="edge">
<title>Node17&#45;&gt;Node5</title>
<g id="a_edge23_Node000017_Node000005"><a xlink:title=" ">
<path fill="none" stroke="#63b8ff" d="M701.14,-261.27C689.24,-262.53 677.06,-263.82 665.23,-265.08"/>
<polygon fill="#63b8ff" stroke="#63b8ff" points="701.35,-264.76 710.92,-260.23 700.61,-257.8 701.35,-264.76"/>
</a>
</g>
</g>
<!-- Node18&#45;&gt;Node6 -->
<g id="edge25_Node000018_Node000006" class="edge">
<title>Node18&#45;&gt;Node6</title>
<g id="a_edge25_Node000018_Node000006"><a xlink:title=" ">
<path fill="none" stroke="#63b8ff" d="M704.83,-173.68C690.46,-175.35 675.56,-177.07 661.28,-178.73"/>
<polygon fill="#63b8ff" stroke="#63b8ff" points="705.19,-177.16 714.72,-172.53 704.38,-170.21 705.19,-177.16"/>
</a>
</g>
</g>
<!-- Node21 -->
<g id="Node000021" class="node">
<title>Node21</title>
<g id="a_Node000021"><a xlink:href="classInterfaceSFML.html#aa50033cc2b996da556fdebca5db2c7ef" target="_top" xlink:title="Met à jour l&#39;affichage.">
<polygon fill="white" stroke="#666666" points="639.25,-382 521.25,-382 521.25,-362 639.25,-362 639.25,-382"/>
<text xml:space="preserve" text-anchor="middle" x="580.25" y="-368.5" font-family="Helvetica,sans-Serif" font-size="10.00">InterfaceSFML::afficher</text>
</a>
</g>
</g>
<!-- Node20&#45;&gt;Node21 -->
<g id="edge28_Node000020_Node000021" class="edge">
<title>Node20&#45;&gt;Node21</title>
<g id="a_edge28_Node000020_Node000021"><a xlink:title=" ">
<path fill="none" stroke="#63b8ff" d="M704.89,-372C682.95,-372 659.76,-372 639.47,-372"/>
<polygon fill="#63b8ff" stroke="#63b8ff" points="704.71,-375.5 714.71,-372 704.71,-368.5 704.71,-375.5"/>
</a>
</g>
</g>
<!-- Node22 -->
<g id="Node000022" class="node">
<title>Node22</title>
<g id="a_Node000022"><a xlink:href="classInterfaceSFML.html#a518c46fbb99e76a49149d03b900b6cdc" target="_top" xlink:title="Lance la boucle principale de l&#39;interface graphique.">
<polygon fill="white" stroke="#666666" points="456.38,-382 332.38,-382 332.38,-362 456.38,-362 456.38,-382"/>
<text xml:space="preserve" text-anchor="middle" x="394.38" y="-368.5" font-family="Helvetica,sans-Serif" font-size="10.00">InterfaceSFML::executer</text>
</a>
</g>
</g>
<!-- Node21&#45;&gt;Node22 -->
<g id="edge29_Node000021_Node000022" class="edge">
<title>Node21&#45;&gt;Node22</title>
<g id="a_edge29_Node000021_Node000022"><a xlink:title=" ">
<path fill="none" stroke="#63b8ff" d="M509.6,-372C492.24,-372 473.76,-372 456.83,-372"/>
<polygon fill="#63b8ff" stroke="#63b8ff" points="509.3,-375.5 519.3,-372 509.3,-368.5 509.3,-375.5"/>
</a>
</g>
</g>
<!-- Node22&#45;&gt;Node4 -->
<g id="edge30_Node000022_Node000004" class="edge">
<title>Node22&#45;&gt;Node4</title>
<g id="a_edge30_Node000022_Node000004"><a xlink:title=" ">
<path fill="none" stroke="#63b8ff" d="M320.88,-363.81C292.14,-360.56 261.55,-357.1 242.92,-355"/>
<polygon fill="#63b8ff" stroke="#63b8ff" points="320.37,-367.27 330.7,-364.92 321.15,-360.32 320.37,-367.27"/>
</a>
</g>
</g>
<!-- Node23&#45;&gt;Node21 -->
<g id="edge32_Node000023_Node000021" class="edge">
<title>Node23&#45;&gt;Node21</title>
<g id="a_edge32_Node000023_Node000021"><a xlink:title=" ">
<path fill="none" stroke="#63b8ff" d="M720.1,-397.47C693.57,-392.61 663.54,-387.1 638.21,-382.45"/>
<polygon fill="#63b8ff" stroke="#63b8ff" points="719.27,-400.88 729.74,-399.24 720.54,-394 719.27,-400.88"/>
</a>
</g>
</g>
<!-- Node25 -->
<g id="Node000025" class="node">
<title>Node25</title>
<g id="a_Node000025"><a xlink:href="classTestsUnitaires.html#a17aa4e9d0afbd2614193d2638f4b78c7" target="_top" xlink:title="Exécute tous les tests.">
<polygon fill="white" stroke="#666666" points="641.5,-39 519,-39 519,-7 641.5,-7 641.5,-39"/>
<text xml:space="preserve" text-anchor="start" x="527" y="-25.5" font-family="Helvetica,sans-Serif" font-size="10.00">TestsUnitaires::executer</text>
<text xml:space="preserve" text-anchor="middle" x="580.25" y="-13.5" font-family="Helvetica,sans-Serif" font-size="10.00">TousLesTests</text>
</a>
</g>
</g>
<!-- Node24&#45;&gt;Node25 -->
<g id="edge34_Node000024_Node000025" class="edge">
<title>Node24&#45;&gt;Node25</title>
<g id="a_edge34_Node000024_Node000025"><a xlink:title=" ">
<path fill="none" stroke="#63b8ff" d="M700.86,-26.46C680.97,-25.89 660.27,-25.29 641.79,-24.75"/>
<polygon fill="#63b8ff" stroke="#63b8ff" points="700.52,-29.96 710.62,-26.75 700.72,-22.96 700.52,-29.96"/>
</a>
</g>
</g>
<!-- Node26 -->
<g id="Node000026" class="node">
<title>Node26</title>
<g id="a_Node000026"><a xlink:href="test__main_8cpp.html#ae66f6b31b5ad750f1fe042a706a4e3d4" target="_top" xlink:title="Programme principal pour exécuter les tests unitaires.">
<polygon fill="white" stroke="#666666" points="412.88,-20 375.88,-20 375.88,0 412.88,0 412.88,-20"/>
<text xml:space="preserve" text-anchor="middle" x="394.38" y="-6.5" font-family="Helvetica,sans-Serif" font-size="10.00">main</text>
</a>
</g>
</g>
<!-- Node25&#45;&gt;Node26 -->
<g id="edge35_Node000025_Node000026" class="edge">
<title>Node25&#45;&gt;Node26</title>
<g id="a_edge35_Node000025_Node000026"><a xlink:title=" ">
<path fill="none" stroke="#63b8ff" d="M507.11,-17.9C472.9,-15.48 434.85,-12.79 413.15,-11.26"/>
<polygon fill="#63b8ff" stroke="#63b8ff" points="506.8,-21.39 517.02,-18.6 507.29,-14.4 506.8,-21.39"/>
</a>
</g>
</g>
</g>
</svg>

<g id="navigator" transform="translate(0 0)" fill="#404254">
  <rect fill="#f2f5e9" fill-opacity="0.5" stroke="#606060" stroke-width=".5" x="0" y="0" width="60" height="60"/>
  <use id="zoomplus" xlink:href="#zoomPlus" x="17" y="9" onmousedown="handleZoom(evt,'in')"/>
  <use id="zoomminus" xlink:href="#zoomMin" x="42" y="9" onmousedown="handleZoom(evt,'out')"/>
  <use id="reset" xlink:href="#resetDef" x="30" y="36" onmousedown="handleReset()"/>
   <use id="arrowup" xlink:href="#arrowUp" x="0" y="0" onmousedown="handlePan(0,-1)"/>
  <use id="arrowright" xlink:href="#arrowRight" x="0" y="0" onmousedown="handlePan(1,0)"/>
  <use id="arrowdown" xlink:href="#arrowDown" x="0" y="0" onmousedown="handlePan(0,1)"/>
  <use id="arrowleft" xlink:href="#arrowLeft" x="0" y="0" onmousedown="handlePan(-1,0)"/>
</g>
<svg viewBox="0 0 15 15" width="100%" height="30px" preserveAspectRatio="xMaxYMin meet">
 <g id="arrow_out" transform="scale(0.3 0.3)">
  <a xlink:href="classCellule_a70d2731234961e330fe0a31486d1dec7_icgraph_org.svg" target="_base">
   <rect id="button" ry="5" rx="5" y="6" x="6" height="38" width="38"
        fill="#f2f5e9" fill-opacity="0.5" stroke="#606060" stroke-width="1.0"/>
   <path id="arrow"
     d="M 11.500037,31.436501 C 11.940474,20.09759 22.043105,11.32322 32.158766,21.979434 L 37.068811,17.246167 C 37.068811,17.246167 37.088388,32 37.088388,32 L 22.160133,31.978069 C 22.160133,31.978069 26.997745,27.140456 26.997745,27.140456 C 18.528582,18.264221 13.291696,25.230495 11.500037,31.436501 z"
     style="fill:#404040;"/>
  </a>
 </g>
</svg>

<style type='text/css'>
<![CDATA[
[data-mouse-over-selected='false'] { opacity: 0.7; }
[data-mouse-over-selected='true']  { opacity: 1.0; }
]]>
</style>
<script type="application/ecmascript"><![CDATA[
document.addEventListener('DOMContentLoaded', (event) => {
  highlightEdges();
  highlightAdjacentNodes();
});
]]></script>
</svg>
