<?xml version="1.0" encoding="UTF-8" standalone="no"?>
<!DOCTYPE svg PUBLIC "-//W3C//DTD SVG 1.1//EN"
 "http://www.w3.org/Graphics/SVG/1.1/DTD/svg11.dtd">
<!-- Generated by graphviz version 14.0.2 (20251019.1705)
 -->
<!-- Title: TestsUnitaires::testerModeTorique Pages: 1 -->
<svg width="617pt" height="78pt"
 viewBox="0.00 0.00 617.00 78.00" xmlns="http://www.w3.org/2000/svg" xmlns:xlink="http://www.w3.org/1999/xlink">
<g id="graph0" class="graph" transform="scale(1 1) rotate(0) translate(4 74)">
<title>TestsUnitaires::testerModeTorique</title>
<!-- Node1 -->
<g id="Node000001" class="node">
<title>Node1</title>
<g id="a_Node000001"><a xlink:title="Teste la grille torique.">
<polygon fill="#999999" stroke="#666666" points="133.75,-48 0,-48 0,-16 133.75,-16 133.75,-48"/>
<text xml:space="preserve" text-anchor="start" x="8" y="-34.5" font-family="Helvetica,sans-Serif" font-size="10.00">TestsUnitaires::testerMode</text>
<text xml:space="preserve" text-anchor="middle" x="66.88" y="-22.5" font-family="Helvetica,sans-Serif" font-size="10.00">Torique</text>
</a>
</g>
</g>
<!-- Node2 -->
<g id="Node000002" class="node">
<title>Node2</title>
<g id="a_Node000002"><a xlink:href="classTestsUnitaires.html#af1671fe34db212a79ee1f4b2869d576e" target="_top" xlink:title="Affiche le résultat d&#39;un test.">
<polygon fill="white" stroke="#666666" points="292.62,-70 176.12,-70 176.12,-38 292.62,-38 292.62,-70"/>
<text xml:space="preserve" text-anchor="start" x="184.12" y="-56.5" font-family="Helvetica,sans-Serif" font-size="10.00">TestsUnitaires::afficher</text>
<text xml:space="preserve" text-anchor="middle" x="234.38" y="-44.5" font-family="Helvetica,sans-Serif" font-size="10.00">Resultat</text>
</a>
</g>
</g>
<!-- Node1&#45;&gt;Node2 -->
<g id="edge1_Node000001_Node000002" class="edge">
<title>Node1&#45;&gt;Node2</title>
<g id="a_edge1_Node000001_Node000002"><a xlink:title=" ">
<path fill="none" stroke="#63b8ff" d="M134.24,-40.82C144.23,-42.15 154.56,-43.52 164.61,-44.86"/>
<polygon fill="#63b8ff" stroke="#63b8ff" points="163.92,-48.3 174.3,-46.15 164.85,-41.36 163.92,-48.3"/>
</a>
</g>
</g>
<!-- Node3 -->
<g id="Node000003" class="node">
<title>Node3</title>
<g id="a_Node000003"><a xlink:href="classTestsUnitaires.html#a6430263d628fa3e1f55be64cf1aae756" target="_top" xlink:title="Crée une grille de test.">
<polygon fill="white" stroke="#666666" points="299,-20 169.75,-20 169.75,0 299,0 299,-20"/>
<text xml:space="preserve" text-anchor="middle" x="234.38" y="-6.5" font-family="Helvetica,sans-Serif" font-size="10.00">TestsUnitaires::creerGrille</text>
</a>
</g>
</g>
<!-- Node1&#45;&gt;Node3 -->
<g id="edge2_Node000001_Node000003" class="edge">
<title>Node1&#45;&gt;Node3</title>
<g id="a_edge2_Node000001_Node000003"><a xlink:title=" ">
<path fill="none" stroke="#63b8ff" d="M134.24,-23.18C142.12,-22.13 150.21,-21.05 158.21,-19.99"/>
<polygon fill="#63b8ff" stroke="#63b8ff" points="158.47,-23.49 167.92,-18.7 157.55,-16.55 158.47,-23.49"/>
</a>
</g>
</g>
<!-- Node4 -->
<g id="Node000004" class="node">
<title>Node4</title>
<g id="a_Node000004"><a xlink:href="classGrille.html#ab4c852bc2327224eac9da60841f30baa" target="_top" xlink:title="Définit l&#39;état d&#39;une cellule.">
<polygon fill="white" stroke="#666666" points="453.75,-20 335,-20 335,0 453.75,0 453.75,-20"/>
<text xml:space="preserve" text-anchor="middle" x="394.38" y="-6.5" font-family="Helvetica,sans-Serif" font-size="10.00">Grille::definirEtatCellule</text>
</a>
</g>
</g>
<!-- Node3&#45;&gt;Node4 -->
<g id="edge3_Node000003_Node000004" class="edge">
<title>Node3&#45;&gt;Node4</title>
<g id="a_edge3_Node000003_Node000004"><a xlink:title=" ">
<path fill="none" stroke="#63b8ff" d="M299.18,-10C307.16,-10 315.35,-10 323.41,-10"/>
<polygon fill="#63b8ff" stroke="#63b8ff" points="323.18,-13.5 333.18,-10 323.18,-6.5 323.18,-13.5"/>
</a>
</g>
</g>
<!-- Node5 -->
<g id="Node000005" class="node">
<title>Node5</title>
<g id="a_Node000005"><a xlink:href="classGrille.html#aa4c9ce36bb4f2c59a83aeb39d73fc285" target="_top" xlink:title="Vérifie si une position est valide dans la grille.">
<polygon fill="white" stroke="#666666" points="609.25,-20 489.75,-20 489.75,0 609.25,0 609.25,-20"/>
<text xml:space="preserve" text-anchor="middle" x="549.5" y="-6.5" font-family="Helvetica,sans-Serif" font-size="10.00">Grille::estPositionValide</text>
</a>
</g>
</g>
<!-- Node4&#45;&gt;Node5 -->
<g id="edge4_Node000004_Node000005" class="edge">
<title>Node4&#45;&gt;Node5</title>
<g id="a_edge4_Node000004_Node000005"><a xlink:title=" ">
<path fill="none" stroke="#63b8ff" d="M454.14,-10C461.99,-10 470.11,-10 478.14,-10"/>
<polygon fill="#63b8ff" stroke="#63b8ff" points="477.87,-13.5 487.87,-10 477.87,-6.5 477.87,-13.5"/>
</a>
</g>
</g>
</g>
</svg>
