<?xml version="1.0" encoding="UTF-8" standalone="no"?>
<!DOCTYPE svg PUBLIC "-//W3C//DTD SVG 1.1//EN"
 "http://www.w3.org/Graphics/SVG/1.1/DTD/svg11.dtd">
<!-- Generated by graphviz version 14.0.2 (20251019.1705)
 -->
<!-- Title: InterfaceQt::onPlacerMotif Pages: 1 -->
<svg width="795pt" height="143pt"
 viewBox="0.00 0.00 795.00 143.00" xmlns="http://www.w3.org/2000/svg" xmlns:xlink="http://www.w3.org/1999/xlink">
<g id="graph0" class="graph" transform="scale(1 1) rotate(0) translate(4 139)">
<title>InterfaceQt::onPlacerMotif</title>
<!-- Node1 -->
<g id="Node000001" class="node">
<title>Node1</title>
<g id="a_Node000001"><a xlink:title="Place un motif.">
<polygon fill="#999999" stroke="#666666" points="130.75,-55 0,-55 0,-35 130.75,-35 130.75,-55"/>
<text xml:space="preserve" text-anchor="middle" x="65.38" y="-41.5" font-family="Helvetica,sans-Serif" font-size="10.00">InterfaceQt::onPlacerMotif</text>
</a>
</g>
</g>
<!-- Node2 -->
<g id="Node000002" class="node">
<title>Node2</title>
<g id="a_Node000002"><a xlink:href="classInterfaceQt.html#a06b809d43dbf3814ab103a8d42de319a" target="_top" xlink:title="Met à jour l&#39;affichage.">
<polygon fill="white" stroke="#666666" points="290.75,-105 166.75,-105 166.75,-73 290.75,-73 290.75,-105"/>
<text xml:space="preserve" text-anchor="start" x="174.75" y="-91.5" font-family="Helvetica,sans-Serif" font-size="10.00">InterfaceQt::mettreAJour</text>
<text xml:space="preserve" text-anchor="middle" x="228.75" y="-79.5" font-family="Helvetica,sans-Serif" font-size="10.00">Affichage</text>
</a>
</g>
</g>
<!-- Node1&#45;&gt;Node2 -->
<g id="edge1_Node000001_Node000002" class="edge">
<title>Node1&#45;&gt;Node2</title>
<g id="a_edge1_Node000001_Node000002"><a xlink:title=" ">
<path fill="none" stroke="#63b8ff" d="M104.62,-55.43C120.13,-59.66 138.57,-64.69 156.4,-69.55"/>
<polygon fill="#63b8ff" stroke="#63b8ff" points="155.36,-72.89 165.93,-72.14 157.2,-66.14 155.36,-72.89"/>
</a>
</g>
</g>
<!-- Node7 -->
<g id="Node000007" class="node">
<title>Node7</title>
<g id="a_Node000007"><a xlink:href="classGrille.html#a1ab5c8e0ea0d1dc21549c38d0f0f5cf9" target="_top" xlink:title="Obtient le nombre de colonnes.">
<polygon fill="white" stroke="#666666" points="631.75,-58 504,-58 504,-38 631.75,-38 631.75,-58"/>
<text xml:space="preserve" text-anchor="middle" x="567.88" y="-44.5" font-family="Helvetica,sans-Serif" font-size="10.00">Grille::obtenirNbColonnes</text>
</a>
</g>
</g>
<!-- Node1&#45;&gt;Node7 -->
<g id="edge8_Node000001_Node000007" class="edge">
<title>Node1&#45;&gt;Node7</title>
<g id="a_edge8_Node000001_Node000007"><a xlink:title=" ">
<path fill="none" stroke="#63b8ff" d="M131.04,-45.39C223.82,-45.94 394.3,-46.97 492.29,-47.55"/>
<polygon fill="#63b8ff" stroke="#63b8ff" points="492.04,-51.05 502.06,-47.61 492.08,-44.05 492.04,-51.05"/>
</a>
</g>
</g>
<!-- Node8 -->
<g id="Node000008" class="node">
<title>Node8</title>
<g id="a_Node000008"><a xlink:href="classGrille.html#a96b5f98d212a0ee9e2f71d73ebe5bb91" target="_top" xlink:title="Obtient le nombre de lignes.">
<polygon fill="white" stroke="#666666" points="625.38,-20 510.38,-20 510.38,0 625.38,0 625.38,-20"/>
<text xml:space="preserve" text-anchor="middle" x="567.88" y="-6.5" font-family="Helvetica,sans-Serif" font-size="10.00">Grille::obtenirNbLignes</text>
</a>
</g>
</g>
<!-- Node1&#45;&gt;Node8 -->
<g id="edge9_Node000001_Node000008" class="edge">
<title>Node1&#45;&gt;Node8</title>
<g id="a_edge9_Node000001_Node000008"><a xlink:title=" ">
<path fill="none" stroke="#63b8ff" d="M131.04,-40.48C225.88,-33.85 401.92,-21.54 498.72,-14.77"/>
<polygon fill="#63b8ff" stroke="#63b8ff" points="498.88,-18.26 508.61,-14.07 498.39,-11.28 498.88,-18.26"/>
</a>
</g>
</g>
<!-- Node3 -->
<g id="Node000003" class="node">
<title>Node3</title>
<g id="a_Node000003"><a xlink:href="classInterfaceQt.html#abe5b2e247e50614efbf88402c774899c" target="_top" xlink:title="Compte les cellules vivantes.">
<polygon fill="white" stroke="#666666" points="468,-105 326.75,-105 326.75,-73 468,-73 468,-105"/>
<text xml:space="preserve" text-anchor="start" x="334.75" y="-91.5" font-family="Helvetica,sans-Serif" font-size="10.00">InterfaceQt::compterCellules</text>
<text xml:space="preserve" text-anchor="middle" x="397.38" y="-79.5" font-family="Helvetica,sans-Serif" font-size="10.00">Vivantes</text>
</a>
</g>
</g>
<!-- Node2&#45;&gt;Node3 -->
<g id="edge2_Node000002_Node000003" class="edge">
<title>Node2&#45;&gt;Node3</title>
<g id="a_edge2_Node000002_Node000003"><a xlink:title=" ">
<path fill="none" stroke="#63b8ff" d="M290.85,-89C298.68,-89 306.79,-89 314.87,-89"/>
<polygon fill="#63b8ff" stroke="#63b8ff" points="314.75,-92.5 324.75,-89 314.75,-85.5 314.75,-92.5"/>
</a>
</g>
</g>
<!-- Node4 -->
<g id="Node000004" class="node">
<title>Node4</title>
<g id="a_Node000004"><a xlink:href="classCellule.html#a70d2731234961e330fe0a31486d1dec7" target="_top" xlink:title="Vérifie si la cellule est vivante.">
<polygon fill="white" stroke="#666666" points="617.12,-135 518.62,-135 518.62,-115 617.12,-115 617.12,-135"/>
<text xml:space="preserve" text-anchor="middle" x="567.88" y="-121.5" font-family="Helvetica,sans-Serif" font-size="10.00">Cellule::estVivante</text>
</a>
</g>
</g>
<!-- Node3&#45;&gt;Node4 -->
<g id="edge3_Node000003_Node000004" class="edge">
<title>Node3&#45;&gt;Node4</title>
<g id="a_edge3_Node000003_Node000004"><a xlink:title=" ">
<path fill="none" stroke="#63b8ff" d="M468.37,-103.95C481.18,-106.69 494.44,-109.52 506.92,-112.19"/>
<polygon fill="#63b8ff" stroke="#63b8ff" points="506.14,-115.6 516.65,-114.27 507.6,-108.76 506.14,-115.6"/>
</a>
</g>
</g>
<!-- Node5 -->
<g id="Node000005" class="node">
<title>Node5</title>
<g id="a_Node000005"><a xlink:href="classGrille.html#aab75610fe73ae48bd035a048c55832f0" target="_top" xlink:title="Obtient une cellule à une position donnée.">
<polygon fill="white" stroke="#666666" points="619.75,-97 516,-97 516,-77 619.75,-77 619.75,-97"/>
<text xml:space="preserve" text-anchor="middle" x="567.88" y="-83.5" font-family="Helvetica,sans-Serif" font-size="10.00">Grille::obtenirCellule</text>
</a>
</g>
</g>
<!-- Node3&#45;&gt;Node5 -->
<g id="edge4_Node000003_Node000005" class="edge">
<title>Node3&#45;&gt;Node5</title>
<g id="a_edge4_Node000003_Node000005"><a xlink:title=" ">
<path fill="none" stroke="#63b8ff" d="M468.37,-88.17C480.24,-88.03 492.49,-87.88 504.16,-87.74"/>
<polygon fill="#63b8ff" stroke="#63b8ff" points="504.12,-91.25 514.08,-87.63 504.04,-84.25 504.12,-91.25"/>
</a>
</g>
</g>
<!-- Node3&#45;&gt;Node7 -->
<g id="edge6_Node000003_Node000007" class="edge">
<title>Node3&#45;&gt;Node7</title>
<g id="a_edge6_Node000003_Node000007"><a xlink:title=" ">
<path fill="none" stroke="#63b8ff" d="M465.94,-72.56C481.55,-68.76 497.96,-64.77 512.91,-61.13"/>
<polygon fill="#63b8ff" stroke="#63b8ff" points="513.65,-64.55 522.54,-58.79 512,-57.75 513.65,-64.55"/>
</a>
</g>
</g>
<!-- Node3&#45;&gt;Node8 -->
<g id="edge7_Node000003_Node000008" class="edge">
<title>Node3&#45;&gt;Node8</title>
<g id="a_edge7_Node000003_Node000008"><a xlink:title=" ">
<path fill="none" stroke="#63b8ff" d="M423.59,-72.54C444.49,-59.43 475.31,-41.3 504,-29 508.07,-27.26 512.35,-25.6 516.69,-24.05"/>
<polygon fill="#63b8ff" stroke="#63b8ff" points="517.68,-27.41 526.05,-20.91 515.46,-20.78 517.68,-27.41"/>
</a>
</g>
</g>
<!-- Node6 -->
<g id="Node000006" class="node">
<title>Node6</title>
<g id="a_Node000006"><a xlink:href="classGrille.html#aa4c9ce36bb4f2c59a83aeb39d73fc285" target="_top" xlink:title="Vérifie si une position est valide dans la grille.">
<polygon fill="white" stroke="#666666" points="787.25,-97 667.75,-97 667.75,-77 787.25,-77 787.25,-97"/>
<text xml:space="preserve" text-anchor="middle" x="727.5" y="-83.5" font-family="Helvetica,sans-Serif" font-size="10.00">Grille::estPositionValide</text>
</a>
</g>
</g>
<!-- Node5&#45;&gt;Node6 -->
<g id="edge5_Node000005_Node000006" class="edge">
<title>Node5&#45;&gt;Node6</title>
<g id="a_edge5_Node000005_Node000006"><a xlink:title=" ">
<path fill="none" stroke="#63b8ff" d="M620.05,-87C631.5,-87 643.83,-87 655.91,-87"/>
<polygon fill="#63b8ff" stroke="#63b8ff" points="655.85,-90.5 665.85,-87 655.85,-83.5 655.85,-90.5"/>
</a>
</g>
</g>
</g>
</svg>
