<?xml version="1.0" encoding="UTF-8" standalone="no"?>
<!DOCTYPE svg PUBLIC "-//W3C//DTD SVG 1.1//EN"
 "http://www.w3.org/Graphics/SVG/1.1/DTD/svg11.dtd">
<!-- Generated by graphviz version 14.0.2 (20251019.1705)
 -->
<!-- Title: TestsUnitaires::testerReglesBase Pages: 1 -->
<svg width="828pt" height="119pt"
 viewBox="0.00 0.00 828.00 119.00" xmlns="http://www.w3.org/2000/svg" xmlns:xlink="http://www.w3.org/1999/xlink">
<g id="graph0" class="graph" transform="scale(1 1) rotate(0) translate(4 115.23)">
<title>TestsUnitaires::testerReglesBase</title>
<!-- Node1 -->
<g id="Node000001" class="node">
<title>Node1</title>
<g id="a_Node000001"><a xlink:title="Teste les règles de base.">
<polygon fill="#999999" stroke="#666666" points="163,-54.23 0,-54.23 0,-34.23 163,-34.23 163,-54.23"/>
<text xml:space="preserve" text-anchor="middle" x="81.5" y="-40.73" font-family="Helvetica,sans-Serif" font-size="10.00">TestsUnitaires::testerReglesBase</text>
</a>
</g>
</g>
<!-- Node2 -->
<g id="Node000002" class="node">
<title>Node2</title>
<g id="a_Node000002"><a xlink:href="classTestsUnitaires.html#af1671fe34db212a79ee1f4b2869d576e" target="_top" xlink:title="Affiche le résultat d&#39;un test.">
<polygon fill="white" stroke="#666666" points="501.75,-73.23 385.25,-73.23 385.25,-41.23 501.75,-41.23 501.75,-73.23"/>
<text xml:space="preserve" text-anchor="start" x="393.25" y="-59.73" font-family="Helvetica,sans-Serif" font-size="10.00">TestsUnitaires::afficher</text>
<text xml:space="preserve" text-anchor="middle" x="443.5" y="-47.73" font-family="Helvetica,sans-Serif" font-size="10.00">Resultat</text>
</a>
</g>
</g>
<!-- Node1&#45;&gt;Node2 -->
<g id="edge1_Node000001_Node000002" class="edge">
<title>Node1&#45;&gt;Node2</title>
<g id="a_edge1_Node000001_Node000002"><a xlink:title=" ">
<path fill="none" stroke="#63b8ff" d="M163.29,-47.14C226.59,-49.43 313.68,-52.57 373.68,-54.74"/>
<polygon fill="#63b8ff" stroke="#63b8ff" points="373.3,-58.23 383.42,-55.09 373.55,-51.23 373.3,-58.23"/>
</a>
</g>
</g>
<!-- Node3 -->
<g id="Node000003" class="node">
<title>Node3</title>
<g id="a_Node000003"><a xlink:href="classTestsUnitaires.html#a6430263d628fa3e1f55be64cf1aae756" target="_top" xlink:title="Crée une grille de test.">
<polygon fill="white" stroke="#666666" points="338.75,-111.23 209.5,-111.23 209.5,-91.23 338.75,-91.23 338.75,-111.23"/>
<text xml:space="preserve" text-anchor="middle" x="274.12" y="-97.73" font-family="Helvetica,sans-Serif" font-size="10.00">TestsUnitaires::creerGrille</text>
</a>
</g>
</g>
<!-- Node1&#45;&gt;Node3 -->
<g id="edge2_Node000001_Node000003" class="edge">
<title>Node1&#45;&gt;Node3</title>
<g id="a_edge2_Node000001_Node000003"><a xlink:title=" ">
<path fill="none" stroke="#63b8ff" d="M117.46,-54.68C148.27,-63.89 193.36,-77.38 227.09,-87.46"/>
<polygon fill="#63b8ff" stroke="#63b8ff" points="226.03,-90.8 236.61,-90.31 228.03,-84.09 226.03,-90.8"/>
</a>
</g>
</g>
<!-- Node6 -->
<g id="Node000006" class="node">
<title>Node6</title>
<g id="a_Node000006"><a xlink:href="classGrille.html#a980652764fefe3f45fcc0516a6e59abb" target="_top" xlink:title="Met à jour la grille pour passer à l&#39;itération suivante.">
<polygon fill="white" stroke="#666666" points="492.38,-23.23 394.62,-23.23 394.62,-3.23 492.38,-3.23 492.38,-23.23"/>
<text xml:space="preserve" text-anchor="middle" x="443.5" y="-9.73" font-family="Helvetica,sans-Serif" font-size="10.00">Grille::mettreAJour</text>
</a>
</g>
</g>
<!-- Node1&#45;&gt;Node6 -->
<g id="edge5_Node000001_Node000006" class="edge">
<title>Node1&#45;&gt;Node6</title>
<g id="a_edge5_Node000001_Node000006"><a xlink:title=" ">
<path fill="none" stroke="#63b8ff" d="M106.94,-33.75C130.13,-24.41 166.22,-11.44 199,-6.23 261.39,3.69 333.87,-0.35 383.42,-5.43"/>
<polygon fill="#63b8ff" stroke="#63b8ff" points="382.75,-8.88 393.07,-6.47 383.5,-1.92 382.75,-8.88"/>
</a>
</g>
</g>
<!-- Node9 -->
<g id="Node000009" class="node">
<title>Node9</title>
<g id="a_Node000009"><a xlink:href="classTestsUnitaires.html#a1fea61fb0483bb1f7e0284d828ad347f" target="_top" xlink:title="Teste l&#39;évolution d&#39;une grille après n itérations.">
<polygon fill="white" stroke="#666666" points="349.25,-35.23 199,-35.23 199,-15.23 349.25,-15.23 349.25,-35.23"/>
<text xml:space="preserve" text-anchor="middle" x="274.12" y="-21.73" font-family="Helvetica,sans-Serif" font-size="10.00">TestsUnitaires::testerEvolution</text>
</a>
</g>
</g>
<!-- Node1&#45;&gt;Node9 -->
<g id="edge10_Node000001_Node000009" class="edge">
<title>Node1&#45;&gt;Node9</title>
<g id="a_edge10_Node000001_Node000009"><a xlink:title=" ">
<path fill="none" stroke="#63b8ff" d="M163.34,-36.17C171.27,-35.38 179.34,-34.57 187.32,-33.78"/>
<polygon fill="#63b8ff" stroke="#63b8ff" points="187.41,-37.29 197.01,-32.81 186.71,-30.32 187.41,-37.29"/>
</a>
</g>
</g>
<!-- Node4 -->
<g id="Node000004" class="node">
<title>Node4</title>
<g id="a_Node000004"><a xlink:href="classGrille.html#ab4c852bc2327224eac9da60841f30baa" target="_top" xlink:title="Définit l&#39;état d&#39;une cellule.">
<polygon fill="white" stroke="#666666" points="660.25,-95.23 541.5,-95.23 541.5,-75.23 660.25,-75.23 660.25,-95.23"/>
<text xml:space="preserve" text-anchor="middle" x="600.88" y="-81.73" font-family="Helvetica,sans-Serif" font-size="10.00">Grille::definirEtatCellule</text>
</a>
</g>
</g>
<!-- Node3&#45;&gt;Node4 -->
<g id="edge3_Node000003_Node000004" class="edge">
<title>Node3&#45;&gt;Node4</title>
<g id="a_edge3_Node000003_Node000004"><a xlink:title=" ">
<path fill="none" stroke="#63b8ff" d="M338.9,-98.08C393.85,-95.38 473.06,-91.47 529.78,-88.68"/>
<polygon fill="#63b8ff" stroke="#63b8ff" points="529.84,-92.18 539.65,-88.19 529.49,-85.19 529.84,-92.18"/>
</a>
</g>
</g>
<!-- Node5 -->
<g id="Node000005" class="node">
<title>Node5</title>
<g id="a_Node000005"><a xlink:href="classGrille.html#aa4c9ce36bb4f2c59a83aeb39d73fc285" target="_top" xlink:title="Vérifie si une position est valide dans la grille.">
<polygon fill="white" stroke="#666666" points="819.5,-95.23 700,-95.23 700,-75.23 819.5,-75.23 819.5,-95.23"/>
<text xml:space="preserve" text-anchor="middle" x="759.75" y="-81.73" font-family="Helvetica,sans-Serif" font-size="10.00">Grille::estPositionValide</text>
</a>
</g>
</g>
<!-- Node4&#45;&gt;Node5 -->
<g id="edge4_Node000004_Node000005" class="edge">
<title>Node4&#45;&gt;Node5</title>
<g id="a_edge4_Node000004_Node000005"><a xlink:title=" ">
<path fill="none" stroke="#63b8ff" d="M660.74,-85.23C669.66,-85.23 678.95,-85.23 688.09,-85.23"/>
<polygon fill="#63b8ff" stroke="#63b8ff" points="688.05,-88.73 698.05,-85.23 688.05,-81.73 688.05,-88.73"/>
</a>
</g>
</g>
<!-- Node6&#45;&gt;Node4 -->
<g id="edge6_Node000006_Node000004" class="edge">
<title>Node6&#45;&gt;Node4</title>
<g id="a_edge6_Node000006_Node000004"><a xlink:title=" ">
<path fill="none" stroke="#63b8ff" d="M479.38,-23.72C486.85,-26.27 494.64,-29.15 501.75,-32.23 505.34,-33.77 543.4,-54.43 571.04,-69.49"/>
<polygon fill="#63b8ff" stroke="#63b8ff" points="569.25,-72.5 579.7,-74.21 572.6,-66.35 569.25,-72.5"/>
</a>
</g>
</g>
<!-- Node7 -->
<g id="Node000007" class="node">
<title>Node7</title>
<g id="a_Node000007"><a xlink:href="classGrille.html#aa8f57932935f9b316ccdbd0705021d6b" target="_top" xlink:title="Constructeur de la grille.">
<polygon fill="white" stroke="#666666" points="793.25,-23.23 726.25,-23.23 726.25,-3.23 793.25,-3.23 793.25,-23.23"/>
<text xml:space="preserve" text-anchor="middle" x="759.75" y="-9.73" font-family="Helvetica,sans-Serif" font-size="10.00">Grille::Grille</text>
</a>
</g>
</g>
<!-- Node6&#45;&gt;Node7 -->
<g id="edge7_Node000006_Node000007" class="edge">
<title>Node6&#45;&gt;Node7</title>
<g id="a_edge7_Node000006_Node000007"><a xlink:title=" ">
<path fill="none" stroke="#63b8ff" d="M492.57,-13.23C553.05,-13.23 656.07,-13.23 714.63,-13.23"/>
<polygon fill="#63b8ff" stroke="#63b8ff" points="714.56,-16.73 724.56,-13.23 714.56,-9.73 714.56,-16.73"/>
</a>
</g>
</g>
<!-- Node8 -->
<g id="Node000008" class="node">
<title>Node8</title>
<g id="a_Node000008"><a xlink:href="classGrille.html#a7073ca25319522d4602550da3dfb1d22" target="_top" xlink:title="Met à jour un ensemble de lignes (parallélisation optimisée).">
<polygon fill="white" stroke="#666666" points="664,-42.23 537.75,-42.23 537.75,-22.23 664,-22.23 664,-42.23"/>
<text xml:space="preserve" text-anchor="middle" x="600.88" y="-28.73" font-family="Helvetica,sans-Serif" font-size="10.00">Grille::mettreAJourLignes</text>
</a>
</g>
</g>
<!-- Node6&#45;&gt;Node8 -->
<g id="edge8_Node000006_Node000008" class="edge">
<title>Node6&#45;&gt;Node8</title>
<g id="a_edge8_Node000006_Node000008"><a xlink:title=" ">
<path fill="none" stroke="#63b8ff" d="M492.81,-19.13C503.37,-20.42 514.77,-21.82 526.07,-23.2"/>
<polygon fill="#63b8ff" stroke="#63b8ff" points="525.44,-26.65 535.79,-24.39 526.29,-19.7 525.44,-26.65"/>
</a>
</g>
</g>
<!-- Node8&#45;&gt;Node7 -->
<g id="edge9_Node000008_Node000007" class="edge">
<title>Node8&#45;&gt;Node7</title>
<g id="a_edge9_Node000008_Node000007"><a xlink:title=" ">
<path fill="none" stroke="#63b8ff" d="M664.33,-24.66C681.08,-22.63 698.84,-20.48 714.39,-18.6"/>
<polygon fill="#63b8ff" stroke="#63b8ff" points="714.78,-22.08 724.29,-17.4 713.94,-15.13 714.78,-22.08"/>
</a>
</g>
</g>
<!-- Node9&#45;&gt;Node2 -->
<g id="edge11_Node000009_Node000002" class="edge">
<title>Node9&#45;&gt;Node2</title>
<g id="a_edge11_Node000009_Node000002"><a xlink:title=" ">
<path fill="none" stroke="#63b8ff" d="M329.93,-35.7C343.98,-38.39 359.28,-41.31 373.93,-44.12"/>
<polygon fill="#63b8ff" stroke="#63b8ff" points="373.02,-47.5 383.5,-45.94 374.33,-40.63 373.02,-47.5"/>
</a>
</g>
</g>
<!-- Node9&#45;&gt;Node6 -->
<g id="edge12_Node000009_Node000006" class="edge">
<title>Node9&#45;&gt;Node6</title>
<g id="a_edge12_Node000009_Node000006"><a xlink:title=" ">
<path fill="none" stroke="#63b8ff" d="M349.51,-19.89C360.67,-19.09 372.05,-18.28 382.85,-17.5"/>
<polygon fill="#63b8ff" stroke="#63b8ff" points="383.06,-21 392.78,-16.79 382.56,-14.01 383.06,-21"/>
</a>
</g>
</g>
</g>
</svg>
