<?xml version="1.0" encoding="UTF-8" standalone="no"?>
<!DOCTYPE svg PUBLIC "-//W3C//DTD SVG 1.1//EN"
 "http://www.w3.org/Graphics/SVG/1.1/DTD/svg11.dtd">
<!-- Generated by graphviz version 14.0.2 (20251019.1705)
 -->
<!-- Title: RegleTorique::compterVoisinsVivants Pages: 1 -->
<svg width="473pt" height="142pt"
 viewBox="0.00 0.00 473.00 142.00" xmlns="http://www.w3.org/2000/svg" xmlns:xlink="http://www.w3.org/1999/xlink">
<g id="graph0" class="graph" transform="scale(1 1) rotate(0) translate(4 138)">
<title>RegleTorique::compterVoisinsVivants</title>
<!-- Node1 -->
<g id="Node000001" class="node">
<title>Node1</title>
<g id="a_Node000001"><a xlink:title="Compte le nombre de voisins vivants.">
<polygon fill="#999999" stroke="#666666" points="145.75,-83 0,-83 0,-51 145.75,-51 145.75,-83"/>
<text xml:space="preserve" text-anchor="start" x="8" y="-69.5" font-family="Helvetica,sans-Serif" font-size="10.00">RegleTorique::compterVoisins</text>
<text xml:space="preserve" text-anchor="middle" x="72.88" y="-57.5" font-family="Helvetica,sans-Serif" font-size="10.00">Vivants</text>
</a>
</g>
</g>
<!-- Node2 -->
<g id="Node000002" class="node">
<title>Node2</title>
<g id="a_Node000002"><a xlink:href="classCellule.html#a70d2731234961e330fe0a31486d1dec7" target="_top" xlink:title="Vérifie si la cellule est vivante.">
<polygon fill="white" stroke="#666666" points="294.88,-134 196.38,-134 196.38,-114 294.88,-114 294.88,-134"/>
<text xml:space="preserve" text-anchor="middle" x="245.62" y="-120.5" font-family="Helvetica,sans-Serif" font-size="10.00">Cellule::estVivante</text>
</a>
</g>
</g>
<!-- Node1&#45;&gt;Node2 -->
<g id="edge1_Node000001_Node000002" class="edge">
<title>Node1&#45;&gt;Node2</title>
<g id="a_edge1_Node000001_Node000002"><a xlink:title=" ">
<path fill="none" stroke="#63b8ff" d="M119.12,-83.45C138.36,-90.31 161.08,-98.24 181.75,-105 187.1,-106.75 192.72,-108.53 198.32,-110.27"/>
<polygon fill="#63b8ff" stroke="#63b8ff" points="196.92,-113.5 207.51,-113.08 198.98,-106.81 196.92,-113.5"/>
</a>
</g>
</g>
<!-- Node3 -->
<g id="Node000003" class="node">
<title>Node3</title>
<g id="a_Node000003"><a xlink:href="classGrille.html#aab75610fe73ae48bd035a048c55832f0" target="_top" xlink:title="Obtient une cellule à une position donnée.">
<polygon fill="white" stroke="#666666" points="297.5,-96 193.75,-96 193.75,-76 297.5,-76 297.5,-96"/>
<text xml:space="preserve" text-anchor="middle" x="245.62" y="-82.5" font-family="Helvetica,sans-Serif" font-size="10.00">Grille::obtenirCellule</text>
</a>
</g>
</g>
<!-- Node1&#45;&gt;Node3 -->
<g id="edge2_Node000001_Node000003" class="edge">
<title>Node1&#45;&gt;Node3</title>
<g id="a_edge2_Node000001_Node000003"><a xlink:title=" ">
<path fill="none" stroke="#63b8ff" d="M145.79,-75C157.88,-76.35 170.34,-77.73 182.16,-79.05"/>
<polygon fill="#63b8ff" stroke="#63b8ff" points="181.44,-82.49 191.76,-80.12 182.21,-75.53 181.44,-82.49"/>
</a>
</g>
</g>
<!-- Node5 -->
<g id="Node000005" class="node">
<title>Node5</title>
<g id="a_Node000005"><a xlink:href="classGrille.html#a1ab5c8e0ea0d1dc21549c38d0f0f5cf9" target="_top" xlink:title="Obtient le nombre de colonnes.">
<polygon fill="white" stroke="#666666" points="309.5,-58 181.75,-58 181.75,-38 309.5,-38 309.5,-58"/>
<text xml:space="preserve" text-anchor="middle" x="245.62" y="-44.5" font-family="Helvetica,sans-Serif" font-size="10.00">Grille::obtenirNbColonnes</text>
</a>
</g>
</g>
<!-- Node1&#45;&gt;Node5 -->
<g id="edge4_Node000001_Node000005" class="edge">
<title>Node1&#45;&gt;Node5</title>
<g id="a_edge4_Node000001_Node000005"><a xlink:title=" ">
<path fill="none" stroke="#63b8ff" d="M145.79,-59C153.85,-58.1 162.06,-57.19 170.15,-56.29"/>
<polygon fill="#63b8ff" stroke="#63b8ff" points="170.4,-59.78 179.95,-55.2 169.63,-52.82 170.4,-59.78"/>
</a>
</g>
</g>
<!-- Node6 -->
<g id="Node000006" class="node">
<title>Node6</title>
<g id="a_Node000006"><a xlink:href="classGrille.html#a96b5f98d212a0ee9e2f71d73ebe5bb91" target="_top" xlink:title="Obtient le nombre de lignes.">
<polygon fill="white" stroke="#666666" points="303.12,-20 188.12,-20 188.12,0 303.12,0 303.12,-20"/>
<text xml:space="preserve" text-anchor="middle" x="245.62" y="-6.5" font-family="Helvetica,sans-Serif" font-size="10.00">Grille::obtenirNbLignes</text>
</a>
</g>
</g>
<!-- Node1&#45;&gt;Node6 -->
<g id="edge5_Node000001_Node000006" class="edge">
<title>Node1&#45;&gt;Node6</title>
<g id="a_edge5_Node000001_Node000006"><a xlink:title=" ">
<path fill="none" stroke="#63b8ff" d="M119.12,-50.55C138.36,-43.69 161.08,-35.76 181.75,-29 187.1,-27.25 192.72,-25.47 198.32,-23.73"/>
<polygon fill="#63b8ff" stroke="#63b8ff" points="198.98,-27.19 207.51,-20.92 196.92,-20.5 198.98,-27.19"/>
</a>
</g>
</g>
<!-- Node4 -->
<g id="Node000004" class="node">
<title>Node4</title>
<g id="a_Node000004"><a xlink:href="classGrille.html#aa4c9ce36bb4f2c59a83aeb39d73fc285" target="_top" xlink:title="Vérifie si une position est valide dans la grille.">
<polygon fill="white" stroke="#666666" points="465,-96 345.5,-96 345.5,-76 465,-76 465,-96"/>
<text xml:space="preserve" text-anchor="middle" x="405.25" y="-82.5" font-family="Helvetica,sans-Serif" font-size="10.00">Grille::estPositionValide</text>
</a>
</g>
</g>
<!-- Node3&#45;&gt;Node4 -->
<g id="edge3_Node000003_Node000004" class="edge">
<title>Node3&#45;&gt;Node4</title>
<g id="a_edge3_Node000003_Node000004"><a xlink:title=" ">
<path fill="none" stroke="#63b8ff" d="M297.8,-86C309.25,-86 321.58,-86 333.66,-86"/>
<polygon fill="#63b8ff" stroke="#63b8ff" points="333.6,-89.5 343.6,-86 333.6,-82.5 333.6,-89.5"/>
</a>
</g>
</g>
</g>
</svg>
