<?xml version="1.0" encoding="UTF-8" standalone="no"?>
<!DOCTYPE svg PUBLIC "-//W3C//DTD SVG 1.1//EN"
 "http://www.w3.org/Graphics/SVG/1.1/DTD/svg11.dtd">
<!-- Generated by graphviz version 14.0.2 (20251019.1705)
 -->
<!-- Title: InterfaceSFML::gererEvenements Pages: 1 -->
<svg width="526pt" height="66pt"
 viewBox="0.00 0.00 526.00 66.00" xmlns="http://www.w3.org/2000/svg" xmlns:xlink="http://www.w3.org/1999/xlink">
<g id="graph0" class="graph" transform="scale(1 1) rotate(0) translate(4 62)">
<title>InterfaceSFML::gererEvenements</title>
<!-- Node1 -->
<g id="Node000001" class="node">
<title>Node1</title>
<g id="a_Node000001"><a xlink:title="Gère les événements (clavier, souris, fermeture).">
<polygon fill="#999999" stroke="#666666" points="163,-39 0,-39 0,-19 163,-19 163,-39"/>
<text xml:space="preserve" text-anchor="middle" x="81.5" y="-25.5" font-family="Helvetica,sans-Serif" font-size="10.00">InterfaceSFML::gererEvenements</text>
</a>
</g>
</g>
<!-- Node2 -->
<g id="Node000002" class="node">
<title>Node2</title>
<g id="a_Node000002"><a xlink:href="classInterfaceSFML.html#af660192fb32e44dfbf073a9d4ec927be" target="_top" xlink:title="Gère les entrées clavier pour placer des motifs.">
<polygon fill="white" stroke="#666666" points="353.75,-45 199,-45 199,-13 353.75,-13 353.75,-45"/>
<text xml:space="preserve" text-anchor="start" x="207" y="-31.5" font-family="Helvetica,sans-Serif" font-size="10.00">InterfaceSFML::gererPlacement</text>
<text xml:space="preserve" text-anchor="middle" x="276.38" y="-19.5" font-family="Helvetica,sans-Serif" font-size="10.00">Motif</text>
</a>
</g>
</g>
<!-- Node1&#45;&gt;Node2 -->
<g id="edge1_Node000001_Node000002" class="edge">
<title>Node1&#45;&gt;Node2</title>
<g id="a_edge1_Node000001_Node000002"><a xlink:title=" ">
<path fill="none" stroke="#63b8ff" d="M163.46,-29C171.28,-29 179.25,-29 187.14,-29"/>
<polygon fill="#63b8ff" stroke="#63b8ff" points="187.12,-32.5 197.12,-29 187.12,-25.5 187.12,-32.5"/>
</a>
</g>
</g>
<!-- Node3 -->
<g id="Node000003" class="node">
<title>Node3</title>
<g id="a_Node000003"><a xlink:href="classGrille.html#a1ab5c8e0ea0d1dc21549c38d0f0f5cf9" target="_top" xlink:title="Obtient le nombre de colonnes.">
<polygon fill="white" stroke="#666666" points="517.5,-58 389.75,-58 389.75,-38 517.5,-38 517.5,-58"/>
<text xml:space="preserve" text-anchor="middle" x="453.62" y="-44.5" font-family="Helvetica,sans-Serif" font-size="10.00">Grille::obtenirNbColonnes</text>
</a>
</g>
</g>
<!-- Node2&#45;&gt;Node3 -->
<g id="edge2_Node000002_Node000003" class="edge">
<title>Node2&#45;&gt;Node3</title>
<g id="a_edge2_Node000002_Node000003"><a xlink:title=" ">
<path fill="none" stroke="#63b8ff" d="M354.24,-37.33C362.15,-38.19 370.18,-39.06 378.06,-39.92"/>
<polygon fill="#63b8ff" stroke="#63b8ff" points="377.66,-43.39 387.97,-40.99 378.41,-36.43 377.66,-43.39"/>
</a>
</g>
</g>
<!-- Node4 -->
<g id="Node000004" class="node">
<title>Node4</title>
<g id="a_Node000004"><a xlink:href="classGrille.html#a96b5f98d212a0ee9e2f71d73ebe5bb91" target="_top" xlink:title="Obtient le nombre de lignes.">
<polygon fill="white" stroke="#666666" points="511.12,-20 396.12,-20 396.12,0 511.12,0 511.12,-20"/>
<text xml:space="preserve" text-anchor="middle" x="453.62" y="-6.5" font-family="Helvetica,sans-Serif" font-size="10.00">Grille::obtenirNbLignes</text>
</a>
</g>
</g>
<!-- Node2&#45;&gt;Node4 -->
<g id="edge3_Node000002_Node000004" class="edge">
<title>Node2&#45;&gt;Node4</title>
<g id="a_edge3_Node000002_Node000004"><a xlink:title=" ">
<path fill="none" stroke="#63b8ff" d="M354.24,-20.67C364.29,-19.58 374.53,-18.47 384.42,-17.39"/>
<polygon fill="#63b8ff" stroke="#63b8ff" points="384.77,-20.88 394.34,-16.32 384.02,-13.92 384.77,-20.88"/>
</a>
</g>
</g>
</g>
</svg>
