<?xml version="1.0" encoding="UTF-8" standalone="no"?>
<!DOCTYPE svg PUBLIC "-//W3C//DTD SVG 1.1//EN"
 "http://www.w3.org/Graphics/SVG/1.1/DTD/svg11.dtd">
<!-- Generated by graphviz version 14.0.2 (20251019.1705)
 -->
<!-- Title: Grille::obtenirCellule Pages: 1 -->
<!--zoomable 474 -->

<svg id="main" version="1.1" xmlns="http://www.w3.org/2000/svg" xmlns:xlink="http://www.w3.org/1999/xlink" xml:space="preserve" onload="init(evt)">

<style type="text/css"><![CDATA[
.node, .edge {opacity: 0.7;}
.node.selected, .edge.selected {opacity: 1;}
.edge:hover path { stroke: red; }
.edge:hover polygon { stroke: red; fill: red; }
]]></style>

<defs>
  <circle id="rim" cx="0" cy="0" r="7"/>
  <circle id="rim2" cx="0" cy="0" r="3.5"/>
  <g id="zoomPlus">
    <use xlink:href="#rim" fill="#404040"><set attributeName="fill" to="#808080" begin="zoomplus.mouseover" end="zoomplus.mouseout"/></use>
    <path d="M-4,0h8M0,-4v8" fill="none" stroke="white" stroke-width="1.5" pointer-events="none"/>
  </g>
  <g id="zoomMin">
    <use xlink:href="#rim" fill="#404040"><set attributeName="fill" to="#808080" begin="zoomminus.mouseover" end="zoomminus.mouseout"/></use>
    <path d="M-4,0h8" fill="none" stroke="white" stroke-width="1.5" pointer-events="none"/>
  </g>
  <g id="arrowUp" transform="translate(30 24)">
    <use xlink:href="#rim"/>
    <path pointer-events="none" fill="none" stroke="white" stroke-width="1.5" d="M0,-3.0v7 M-2.5,-0.5L0,-3.0L2.5,-0.5"/>
  </g>
  <g id="arrowRight" transform="rotate(90) translate(36 -43)">
    <use xlink:href="#rim"/>
    <path pointer-events="none" fill="none" stroke="white" stroke-width="1.5" d="M0,-3.0v7 M-2.5,-0.5L0,-3.0L2.5,-0.5"/>
  </g>
  <g id="arrowDown" transform="rotate(180) translate(-30 -48)">
    <use xlink:href="#rim"/>
    <path pointer-events="none" fill="none" stroke="white" stroke-width="1.5" d="M0,-3.0v7 M-2.5,-0.5L0,-3.0L2.5,-0.5"/>
  </g>
  <g id="arrowLeft" transform="rotate(270) translate(-36 17)">
    <use xlink:href="#rim"/>
    <path pointer-events="none" fill="none" stroke="white" stroke-width="1.5" d="M0,-3.0v7 M-2.5,-0.5L0,-3.0L2.5,-0.5"/>
  </g>
  <g id="resetDef">
    <use xlink:href="#rim2" fill="#404040"><set attributeName="fill" to="#808080" begin="reset.mouseover" end="reset.mouseout"/></use>
  </g>
</defs>
<script type="application/ecmascript">
var viewWidth = 1026;
var viewHeight = 474;
var sectionId = 'dynsection-11';
</script>
<script type="application/ecmascript" xlink:href="svg.min.js"/>
<svg id="graph" class="graph">
<g id="viewport">
<title>Grille::obtenirCellule</title>
<!-- Node1 -->
<g id="Node000001" class="node">
<title>Node1</title>
<g id="a_Node000001"><a xlink:title="Obtient une cellule à une position donnée.">
<polygon fill="#999999" stroke="#666666" points="1017.75,-271 914,-271 914,-251 1017.75,-251 1017.75,-271"/>
<text xml:space="preserve" text-anchor="middle" x="965.88" y="-257.5" font-family="Helvetica,sans-Serif" font-size="10.00">Grille::obtenirCellule</text>
</a>
</g>
</g>
<!-- Node2 -->
<g id="Node000002" class="node">
<title>Node2</title>
<g id="a_Node000002"><a xlink:href="classModeConsole.html#ae77e7a8e7b14d611164441ecf12d3433" target="_top" xlink:title="Affiche la grille dans la console.">
<polygon fill="white" stroke="#666666" points="648.25,-457 512.25,-457 512.25,-437 648.25,-437 648.25,-457"/>
<text xml:space="preserve" text-anchor="middle" x="580.25" y="-443.5" font-family="Helvetica,sans-Serif" font-size="10.00">ModeConsole::afficherGrille</text>
</a>
</g>
</g>
<!-- Node1&#45;&gt;Node2 -->
<g id="edge1_Node000001_Node000002" class="edge">
<title>Node1&#45;&gt;Node2</title>
<g id="a_edge1_Node000001_Node000002"><a xlink:title=" ">
<path fill="none" stroke="#63b8ff" d="M960.85,-282.07C952.58,-318.87 929.91,-394.18 878,-428 802.74,-477.04 692.7,-468.19 629.92,-457.5"/>
<polygon fill="#63b8ff" stroke="#63b8ff" points="964.19,-283.16 962.81,-272.66 957.34,-281.73 964.19,-283.16"/>
</a>
</g>
</g>
<!-- Node5 -->
<g id="Node000005" class="node">
<title>Node5</title>
<g id="a_Node000005"><a xlink:href="classRegleStandard.html#a0c051f441f8b5aeac028872a7347fc35" target="_top" xlink:title="Calcule le nouvel état d&#39;une cellule selon les règles du jeu.">
<polygon fill="white" stroke="#666666" points="664.75,-271 495.75,-271 495.75,-251 664.75,-251 664.75,-271"/>
<text xml:space="preserve" text-anchor="middle" x="580.25" y="-257.5" font-family="Helvetica,sans-Serif" font-size="10.00">RegleStandard::calculerNouvelEtat</text>
</a>
</g>
</g>
<!-- Node1&#45;&gt;Node5 -->
<g id="edge4_Node000001_Node000005" class="edge">
<title>Node1&#45;&gt;Node5</title>
<g id="a_edge4_Node000001_Node000005"><a xlink:title=" ">
<path fill="none" stroke="#63b8ff" d="M902.4,-263.42C894.2,-263.66 885.9,-263.86 878,-264 799.23,-265.36 779.52,-264.99 700.75,-264 689.23,-263.86 677.09,-263.63 665.14,-263.37"/>
<polygon fill="#63b8ff" stroke="#63b8ff" points="902.49,-266.92 912.38,-263.1 902.27,-259.92 902.49,-266.92"/>
</a>
</g>
</g>
<!-- Node6 -->
<g id="Node000006" class="node">
<title>Node6</title>
<g id="a_Node000006"><a xlink:href="classRegleTorique.html#aea2f956fa0b75f4a8d9919f4a36e9eee" target="_top" xlink:title="Calcule le nouvel état d&#39;une cellule selon les règles du jeu.">
<polygon fill="white" stroke="#666666" points="661,-183 499.5,-183 499.5,-163 661,-163 661,-183"/>
<text xml:space="preserve" text-anchor="middle" x="580.25" y="-169.5" font-family="Helvetica,sans-Serif" font-size="10.00">RegleTorique::calculerNouvelEtat</text>
</a>
</g>
</g>
<!-- Node1&#45;&gt;Node6 -->
<g id="edge5_Node000001_Node000006" class="edge">
<title>Node1&#45;&gt;Node6</title>
<g id="a_edge5_Node000001_Node000006"><a xlink:title=" ">
<path fill="none" stroke="#63b8ff" d="M940.04,-244.44C923.23,-234.04 900.13,-221.25 878,-214 806.95,-190.72 722.13,-180.66 661.4,-176.31"/>
<polygon fill="#63b8ff" stroke="#63b8ff" points="938.04,-247.32 948.36,-249.73 941.8,-241.41 938.04,-247.32"/>
</a>
</g>
</g>
<!-- Node7 -->
<g id="Node000007" class="node">
<title>Node7</title>
<g id="a_Node000007"><a xlink:href="classInterfaceQt.html#abe5b2e247e50614efbf88402c774899c" target="_top" xlink:title="Compte les cellules vivantes.">
<polygon fill="white" stroke="#666666" points="860,-117 718.75,-117 718.75,-85 860,-85 860,-117"/>
<text xml:space="preserve" text-anchor="start" x="726.75" y="-103.5" font-family="Helvetica,sans-Serif" font-size="10.00">InterfaceQt::compterCellules</text>
<text xml:space="preserve" text-anchor="middle" x="789.38" y="-91.5" font-family="Helvetica,sans-Serif" font-size="10.00">Vivantes</text>
</a>
</g>
</g>
<!-- Node1&#45;&gt;Node7 -->
<g id="edge6_Node000001_Node000007" class="edge">
<title>Node1&#45;&gt;Node7</title>
<g id="a_edge6_Node000001_Node000007"><a xlink:title=" ">
<path fill="none" stroke="#63b8ff" d="M957.12,-240.32C944.9,-210.55 918.31,-155.91 878,-126 872.54,-121.95 866.44,-118.55 860.07,-115.7"/>
<polygon fill="#63b8ff" stroke="#63b8ff" points="953.75,-241.32 960.67,-249.34 960.27,-238.75 953.75,-241.32"/>
</a>
</g>
</g>
<!-- Node17 -->
<g id="Node000017" class="node">
<title>Node17</title>
<g id="a_Node000017"><a xlink:href="classRegleStandard.html#ab892c4bd38ca021326c6188d0db0e421" target="_top" xlink:title="Compte le nombre de voisins vivants.">
<polygon fill="white" stroke="#666666" points="866,-255 712.75,-255 712.75,-223 866,-223 866,-255"/>
<text xml:space="preserve" text-anchor="start" x="720.75" y="-241.5" font-family="Helvetica,sans-Serif" font-size="10.00">RegleStandard::compterVoisins</text>
<text xml:space="preserve" text-anchor="middle" x="789.38" y="-229.5" font-family="Helvetica,sans-Serif" font-size="10.00">Vivants</text>
</a>
</g>
</g>
<!-- Node1&#45;&gt;Node17 -->
<g id="edge22_Node000001_Node000017" class="edge">
<title>Node1&#45;&gt;Node17</title>
<g id="a_edge22_Node000001_Node000017"><a xlink:title=" ">
<path fill="none" stroke="#63b8ff" d="M902.85,-253.18C891.03,-251.69 878.54,-250.12 866.35,-248.58"/>
<polygon fill="#63b8ff" stroke="#63b8ff" points="902.07,-256.61 912.43,-254.39 902.95,-249.66 902.07,-256.61"/>
</a>
</g>
</g>
<!-- Node18 -->
<g id="Node000018" class="node">
<title>Node18</title>
<g id="a_Node000018"><a xlink:href="classRegleTorique.html#a5f15a29a47c045ccd89a64c72de030e1" target="_top" xlink:title="Compte le nombre de voisins vivants.">
<polygon fill="white" stroke="#666666" points="862.25,-167 716.5,-167 716.5,-135 862.25,-135 862.25,-167"/>
<text xml:space="preserve" text-anchor="start" x="724.5" y="-153.5" font-family="Helvetica,sans-Serif" font-size="10.00">RegleTorique::compterVoisins</text>
<text xml:space="preserve" text-anchor="middle" x="789.38" y="-141.5" font-family="Helvetica,sans-Serif" font-size="10.00">Vivants</text>
</a>
</g>
</g>
<!-- Node1&#45;&gt;Node18 -->
<g id="edge24_Node000001_Node000018" class="edge">
<title>Node1&#45;&gt;Node18</title>
<g id="a_edge24_Node000001_Node000018"><a xlink:title=" ">
<path fill="none" stroke="#63b8ff" d="M948.79,-242.22C932.53,-224.29 905.9,-197.61 878,-181 869.16,-175.74 859.26,-171.23 849.39,-167.43"/>
<polygon fill="#63b8ff" stroke="#63b8ff" points="946.04,-244.4 955.29,-249.57 951.28,-239.76 946.04,-244.4"/>
</a>
</g>
</g>
<!-- Node19 -->
<g id="Node000019" class="node">
<title>Node19</title>
<g id="a_Node000019"><a xlink:href="classInterfaceQt.html#a814719cf92c437e1ea4d6a433f4c817b" target="_top" xlink:title="Dessine la grille (appelé par paintEvent de GrilleWidget).">
<polygon fill="white" stroke="#666666" points="854.38,-67 724.38,-67 724.38,-47 854.38,-47 854.38,-67"/>
<text xml:space="preserve" text-anchor="middle" x="789.38" y="-53.5" font-family="Helvetica,sans-Serif" font-size="10.00">InterfaceQt::dessinerGrille</text>
</a>
</g>
</g>
<!-- Node1&#45;&gt;Node19 -->
<g id="edge26_Node000001_Node000019" class="edge">
<title>Node1&#45;&gt;Node19</title>
<g id="a_edge26_Node000001_Node000019"><a xlink:title=" ">
<path fill="none" stroke="#63b8ff" d="M961.15,-239.37C953.25,-200.32 930.98,-118.2 878,-76 871.18,-70.57 863.15,-66.6 854.77,-63.73"/>
<polygon fill="#63b8ff" stroke="#63b8ff" points="957.71,-239.97 962.99,-249.15 964.59,-238.68 957.71,-239.97"/>
</a>
</g>
</g>
<!-- Node20 -->
<g id="Node000020" class="node">
<title>Node20</title>
<g id="a_Node000020"><a xlink:href="classInterfaceSFML.html#a6be07281be6cedd2ea9dde170234630c" target="_top" xlink:title="Dessine la grille.">
<polygon fill="white" stroke="#666666" points="862.25,-369 716.5,-369 716.5,-349 862.25,-349 862.25,-369"/>
<text xml:space="preserve" text-anchor="middle" x="789.38" y="-355.5" font-family="Helvetica,sans-Serif" font-size="10.00">InterfaceSFML::dessinerGrille</text>
</a>
</g>
</g>
<!-- Node1&#45;&gt;Node20 -->
<g id="edge27_Node000001_Node000020" class="edge">
<title>Node1&#45;&gt;Node20</title>
<g id="a_edge27_Node000001_Node000020"><a xlink:title=" ">
<path fill="none" stroke="#63b8ff" d="M949.39,-279.95C933.43,-298.19 906.86,-325.13 878,-340 871.36,-343.42 864.13,-346.23 856.76,-348.53"/>
<polygon fill="#63b8ff" stroke="#63b8ff" points="951.94,-282.36 955.75,-272.47 946.61,-277.83 951.94,-282.36"/>
</a>
</g>
</g>
<!-- Node23 -->
<g id="Node000023" class="node">
<title>Node23</title>
<g id="a_Node000023"><a xlink:href="classInterfaceSFML.html#a9b5a8e272d8dc3c033e09fde93ac4845" target="_top" xlink:title="Dessine les informations à l&#39;écran.">
<polygon fill="white" stroke="#666666" points="878,-331 700.75,-331 700.75,-311 878,-311 878,-331"/>
<text xml:space="preserve" text-anchor="middle" x="789.38" y="-317.5" font-family="Helvetica,sans-Serif" font-size="10.00">InterfaceSFML::dessinerInformations</text>
</a>
</g>
</g>
<!-- Node1&#45;&gt;Node23 -->
<g id="edge31_Node000001_Node000023" class="edge">
<title>Node1&#45;&gt;Node23</title>
<g id="a_edge31_Node000001_Node000023"><a xlink:title=" ">
<path fill="none" stroke="#63b8ff" d="M931.5,-275.98C915.5,-282.87 895.94,-290.85 878,-297 863.38,-302.01 847.11,-306.7 832.6,-310.58"/>
<polygon fill="#63b8ff" stroke="#63b8ff" points="932.79,-279.24 940.56,-272.03 929.99,-272.82 932.79,-279.24"/>
</a>
</g>
</g>
<!-- Node24 -->
<g id="Node000024" class="node">
<title>Node24</title>
<g id="a_Node000024"><a xlink:href="classGestionnaireFichier.html#a7f617aede460be3b06c7dd842d7e2732" target="_top" xlink:title="Sauvegarde une grille dans un fichier.">
<polygon fill="white" stroke="#666666" points="839.38,-419 739.38,-419 739.38,-387 839.38,-387 839.38,-419"/>
<text xml:space="preserve" text-anchor="start" x="747.38" y="-405.5" font-family="Helvetica,sans-Serif" font-size="10.00">GestionnaireFichier</text>
<text xml:space="preserve" text-anchor="middle" x="789.38" y="-393.5" font-family="Helvetica,sans-Serif" font-size="10.00">::sauvegarderGrille</text>
</a>
</g>
</g>
<!-- Node1&#45;&gt;Node24 -->
<g id="edge33_Node000001_Node000024" class="edge">
<title>Node1&#45;&gt;Node24</title>
<g id="a_edge33_Node000001_Node000024"><a xlink:title=" ">
<path fill="none" stroke="#63b8ff" d="M955.22,-281.16C941.64,-307.39 914.42,-352.82 878,-378 866.68,-385.83 852.93,-391.22 839.72,-394.93"/>
<polygon fill="#63b8ff" stroke="#63b8ff" points="958.18,-283.08 959.52,-272.57 951.92,-279.95 958.18,-283.08"/>
</a>
</g>
</g>
<!-- Node3 -->
<g id="Node000003" class="node">
<title>Node3</title>
<g id="a_Node000003"><a xlink:href="classModeConsole.html#a79ad19df6d20c391fbaf9a7b4fb2f350" target="_top" xlink:title="Exécute le mode console.">
<polygon fill="white" stroke="#666666" points="454.12,-413 334.62,-413 334.62,-393 454.12,-393 454.12,-413"/>
<text xml:space="preserve" text-anchor="middle" x="394.38" y="-399.5" font-family="Helvetica,sans-Serif" font-size="10.00">ModeConsole::executer</text>
</a>
</g>
</g>
<!-- Node2&#45;&gt;Node3 -->
<g id="edge2_Node000002_Node000003" class="edge">
<title>Node2&#45;&gt;Node3</title>
<g id="a_edge2_Node000002_Node000003"><a xlink:title=" ">
<path fill="none" stroke="#63b8ff" d="M521.28,-433.97C512.71,-432 504,-429.96 495.75,-428 476.18,-423.34 454.53,-417.97 436.35,-413.41"/>
<polygon fill="#63b8ff" stroke="#63b8ff" points="520.39,-437.36 530.92,-436.18 521.96,-430.53 520.39,-437.36"/>
</a>
</g>
</g>
<!-- Node4 -->
<g id="Node000004" class="node">
<title>Node4</title>
<g id="a_Node000004"><a xlink:href="main_8cpp.html#a0ddf1224851353fc92bfbff6f499fa97" target="_top" xlink:title="Point d&#39;entrée du programme.">
<polygon fill="white" stroke="#666666" points="242.75,-394 205.75,-394 205.75,-374 242.75,-374 242.75,-394"/>
<text xml:space="preserve" text-anchor="middle" x="224.25" y="-380.5" font-family="Helvetica,sans-Serif" font-size="10.00">main</text>
</a>
</g>
</g>
<!-- Node3&#45;&gt;Node4 -->
<g id="edge3_Node000003_Node000004" class="edge">
<title>Node3&#45;&gt;Node4</title>
<g id="a_edge3_Node000003_Node000004"><a xlink:title=" ">
<path fill="none" stroke="#63b8ff" d="M323.45,-395.1C294.05,-391.78 262.28,-388.18 243.07,-386.01"/>
<polygon fill="#63b8ff" stroke="#63b8ff" points="322.74,-398.54 333.07,-396.18 323.53,-391.58 322.74,-398.54"/>
</a>
</g>
</g>
<!-- Node8 -->
<g id="Node000008" class="node">
<title>Node8</title>
<g id="a_Node000008"><a xlink:href="classInterfaceQt.html#a06b809d43dbf3814ab103a8d42de319a" target="_top" xlink:title="Met à jour l&#39;affichage.">
<polygon fill="white" stroke="#666666" points="642.25,-117 518.25,-117 518.25,-85 642.25,-85 642.25,-117"/>
<text xml:space="preserve" text-anchor="start" x="526.25" y="-103.5" font-family="Helvetica,sans-Serif" font-size="10.00">InterfaceQt::mettreAJour</text>
<text xml:space="preserve" text-anchor="middle" x="580.25" y="-91.5" font-family="Helvetica,sans-Serif" font-size="10.00">Affichage</text>
</a>
</g>
</g>
<!-- Node7&#45;&gt;Node8 -->
<g id="edge7_Node000007_Node000008" class="edge">
<title>Node7&#45;&gt;Node8</title>
<g id="a_edge7_Node000007_Node000008"><a xlink:title=" ">
<path fill="none" stroke="#63b8ff" d="M706.87,-101C685.48,-101 662.77,-101 642.63,-101"/>
<polygon fill="#63b8ff" stroke="#63b8ff" points="706.74,-104.5 716.74,-101 706.74,-97.5 706.74,-104.5"/>
</a>
</g>
</g>
<!-- Node9 -->
<g id="Node000009" class="node">
<title>Node9</title>
<g id="a_Node000009"><a xlink:href="classInterfaceQt.html#a0eea8fab1e83d4b90961bd4241fc5689" target="_top" xlink:title="Constructeur de l&#39;interface Qt.">
<polygon fill="white" stroke="#666666" points="119.5,-114 0,-114 0,-94 119.5,-94 119.5,-114"/>
<text xml:space="preserve" text-anchor="middle" x="59.75" y="-100.5" font-family="Helvetica,sans-Serif" font-size="10.00">InterfaceQt::InterfaceQt</text>
</a>
</g>
</g>
<!-- Node8&#45;&gt;Node9 -->
<g id="edge8_Node000008_Node000009" class="edge">
<title>Node8&#45;&gt;Node9</title>
<g id="a_edge8_Node000008_Node000009"><a xlink:title=" ">
<path fill="none" stroke="#63b8ff" d="M543.93,-123.39C529.05,-132.83 511.55,-143.94 495.75,-154 479.73,-164.2 477.97,-171.68 459.75,-177 318.14,-218.38 141.09,-143.14 81.44,-114.45"/>
<polygon fill="#63b8ff" stroke="#63b8ff" points="545.44,-126.58 552.01,-118.26 541.69,-120.66 545.44,-126.58"/>
</a>
</g>
</g>
<!-- Node10 -->
<g id="Node000010" class="node">
<title>Node10</title>
<g id="a_Node000010"><a xlink:href="classInterfaceQt.html#a280bb380e08e13ec39b8dca2ae917950" target="_top" xlink:title="Place un motif.">
<polygon fill="white" stroke="#666666" points="459.75,-168 329,-168 329,-148 459.75,-148 459.75,-168"/>
<text xml:space="preserve" text-anchor="middle" x="394.38" y="-154.5" font-family="Helvetica,sans-Serif" font-size="10.00">InterfaceQt::onPlacerMotif</text>
</a>
</g>
</g>
<!-- Node8&#45;&gt;Node10 -->
<g id="edge9_Node000008_Node000010" class="edge">
<title>Node8&#45;&gt;Node10</title>
<g id="a_edge9_Node000008_Node000010"><a xlink:title=" ">
<path fill="none" stroke="#63b8ff" d="M517.73,-120.83C499.13,-126.76 478.63,-133.21 459.75,-139 450.5,-141.83 440.48,-144.83 431.17,-147.58"/>
<polygon fill="#63b8ff" stroke="#63b8ff" points="518.54,-124.25 527,-117.87 516.41,-117.58 518.54,-124.25"/>
</a>
</g>
</g>
<!-- Node12 -->
<g id="Node000012" class="node">
<title>Node12</title>
<g id="a_Node000012"><a xlink:href="classInterfaceQt.html#af564176618a18f272b92be6bfd9d029d" target="_top" xlink:title="Réinitialise la simulation.">
<polygon fill="white" stroke="#666666" points="448.12,-130 340.62,-130 340.62,-110 448.12,-110 448.12,-130"/>
<text xml:space="preserve" text-anchor="middle" x="394.38" y="-116.5" font-family="Helvetica,sans-Serif" font-size="10.00">InterfaceQt::onReset</text>
</a>
</g>
</g>
<!-- Node8&#45;&gt;Node12 -->
<g id="edge12_Node000008_Node000012" class="edge">
<title>Node8&#45;&gt;Node12</title>
<g id="a_edge12_Node000008_Node000012"><a xlink:title=" ">
<path fill="none" stroke="#63b8ff" d="M506.53,-108.51C487.15,-110.52 466.59,-112.64 448.49,-114.51"/>
<polygon fill="#63b8ff" stroke="#63b8ff" points="506.67,-112.02 516.26,-107.51 505.95,-105.06 506.67,-112.02"/>
</a>
</g>
</g>
<!-- Node13 -->
<g id="Node000013" class="node">
<title>Node13</title>
<g id="a_Node000013"><a xlink:href="classInterfaceQt.html#a1c1b614c51a456e7b5f407724df14f38" target="_top" xlink:title="Avance d&#39;une itération.">
<polygon fill="white" stroke="#666666" points="445.12,-54 343.62,-54 343.62,-34 445.12,-34 445.12,-54"/>
<text xml:space="preserve" text-anchor="middle" x="394.38" y="-40.5" font-family="Helvetica,sans-Serif" font-size="10.00">InterfaceQt::onStep</text>
</a>
</g>
</g>
<!-- Node8&#45;&gt;Node13 -->
<g id="edge14_Node000008_Node000013" class="edge">
<title>Node8&#45;&gt;Node13</title>
<g id="a_edge14_Node000008_Node000013"><a xlink:title=" ">
<path fill="none" stroke="#63b8ff" d="M517.73,-81.17C499.13,-75.24 478.63,-68.79 459.75,-63 450.5,-60.17 440.48,-57.17 431.17,-54.42"/>
<polygon fill="#63b8ff" stroke="#63b8ff" points="516.41,-84.42 527,-84.13 518.54,-77.75 516.41,-84.42"/>
</a>
</g>
</g>
<!-- Node15 -->
<g id="Node000015" class="node">
<title>Node15</title>
<g id="a_Node000015"><a xlink:href="classInterfaceQt.html#abe7956e622104a15a5de0b3f8c84921d" target="_top" xlink:title="Recule d&#39;une itération.">
<polygon fill="white" stroke="#666666" points="456.38,-92 332.38,-92 332.38,-72 456.38,-72 456.38,-92"/>
<text xml:space="preserve" text-anchor="middle" x="394.38" y="-78.5" font-family="Helvetica,sans-Serif" font-size="10.00">InterfaceQt::onStepBack</text>
</a>
</g>
</g>
<!-- Node8&#45;&gt;Node15 -->
<g id="edge17_Node000008_Node000015" class="edge">
<title>Node8&#45;&gt;Node15</title>
<g id="a_edge17_Node000008_Node000015"><a xlink:title=" ">
<path fill="none" stroke="#63b8ff" d="M506.53,-93.49C490.07,-91.78 472.74,-89.99 456.8,-88.35"/>
<polygon fill="#63b8ff" stroke="#63b8ff" points="505.95,-96.94 516.26,-94.49 506.67,-89.98 505.95,-96.94"/>
</a>
</g>
</g>
<!-- Node16 -->
<g id="Node000016" class="node">
<title>Node16</title>
<g id="a_Node000016"><a xlink:href="classInterfaceQt.html#abe1c50d3e3b80f6adecb9bf0cb9fca4c" target="_top" xlink:title="Mise à jour automatique (timer).">
<polygon fill="white" stroke="#666666" points="286.62,-20 161.88,-20 161.88,0 286.62,0 286.62,-20"/>
<text xml:space="preserve" text-anchor="middle" x="224.25" y="-6.5" font-family="Helvetica,sans-Serif" font-size="10.00">InterfaceQt::onTimerTick</text>
</a>
</g>
</g>
<!-- Node8&#45;&gt;Node16 -->
<g id="edge20_Node000008_Node000016" class="edge">
<title>Node8&#45;&gt;Node16</title>
<g id="a_edge20_Node000008_Node000016"><a xlink:title=" ">
<path fill="none" stroke="#63b8ff" d="M551.7,-77.73C528.72,-59.81 494.27,-36.25 459.75,-25 403.32,-6.6 335.28,-4.27 287.06,-5.69"/>
<polygon fill="#63b8ff" stroke="#63b8ff" points="549.34,-80.32 559.33,-83.83 553.7,-74.85 549.34,-80.32"/>
</a>
</g>
</g>
<!-- Node11 -->
<g id="Node000011" class="node">
<title>Node11</title>
<g id="a_Node000011"><a xlink:href="classInterfaceQt.html#a08632443206d676198dfd1f7492e7437" target="_top" xlink:title="Initialise les widgets.">
<polygon fill="white" stroke="#666666" points="278.75,-120 169.75,-120 169.75,-88 278.75,-88 278.75,-120"/>
<text xml:space="preserve" text-anchor="start" x="177.75" y="-106.5" font-family="Helvetica,sans-Serif" font-size="10.00">InterfaceQt::initialiser</text>
<text xml:space="preserve" text-anchor="middle" x="224.25" y="-94.5" font-family="Helvetica,sans-Serif" font-size="10.00">Widgets</text>
</a>
</g>
</g>
<!-- Node10&#45;&gt;Node11 -->
<g id="edge10_Node000010_Node000011" class="edge">
<title>Node10&#45;&gt;Node11</title>
<g id="a_edge10_Node000010_Node000011"><a xlink:title=" ">
<path fill="none" stroke="#63b8ff" d="M346.19,-144.3C340.39,-142.55 334.55,-140.76 329,-139 310.51,-133.16 290.29,-126.41 272.64,-120.41"/>
<polygon fill="#63b8ff" stroke="#63b8ff" points="345.18,-147.65 355.76,-147.16 347.18,-140.94 345.18,-147.65"/>
</a>
</g>
</g>
<!-- Node11&#45;&gt;Node9 -->
<g id="edge11_Node000011_Node000009" class="edge">
<title>Node11&#45;&gt;Node9</title>
<g id="a_edge11_Node000011_Node000009"><a xlink:title=" ">
<path fill="none" stroke="#63b8ff" d="M158.18,-104C145.56,-104 132.39,-104 119.96,-104"/>
<polygon fill="#63b8ff" stroke="#63b8ff" points="158.08,-107.5 168.08,-104 158.08,-100.5 158.08,-107.5"/>
</a>
</g>
</g>
<!-- Node12&#45;&gt;Node11 -->
<g id="edge13_Node000012_Node000011" class="edge">
<title>Node12&#45;&gt;Node11</title>
<g id="a_edge13_Node000012_Node000011"><a xlink:title=" ">
<path fill="none" stroke="#63b8ff" d="M328.96,-113.87C312.45,-112.3 294.87,-110.63 278.97,-109.11"/>
<polygon fill="#63b8ff" stroke="#63b8ff" points="328.39,-117.33 338.67,-114.79 329.05,-110.36 328.39,-117.33"/>
</a>
</g>
</g>
<!-- Node13&#45;&gt;Node11 -->
<g id="edge15_Node000013_Node000011" class="edge">
<title>Node13&#45;&gt;Node11</title>
<g id="a_edge15_Node000013_Node000011"><a xlink:title=" ">
<path fill="none" stroke="#63b8ff" d="M344.83,-57.82C339.47,-59.5 334.1,-61.24 329,-63 307.39,-70.44 283.66,-79.73 264.35,-87.59"/>
<polygon fill="#63b8ff" stroke="#63b8ff" points="345.76,-61.2 354.3,-54.93 343.72,-54.5 345.76,-61.2"/>
</a>
</g>
</g>
<!-- Node14 -->
<g id="Node000014" class="node">
<title>Node14</title>
<g id="a_Node000014"><a xlink:href="classInterfaceQt.html#a11edcee9206379725a8e97e68a100e80" target="_top" xlink:title="Gestion des événements clavier.">
<polygon fill="white" stroke="#666666" points="293,-66 155.5,-66 155.5,-46 293,-46 293,-66"/>
<text xml:space="preserve" text-anchor="middle" x="224.25" y="-52.5" font-family="Helvetica,sans-Serif" font-size="10.00">InterfaceQt::keyPressEvent</text>
</a>
</g>
</g>
<!-- Node13&#45;&gt;Node14 -->
<g id="edge16_Node000013_Node000014" class="edge">
<title>Node13&#45;&gt;Node14</title>
<g id="a_edge16_Node000013_Node000014"><a xlink:title=" ">
<path fill="none" stroke="#63b8ff" d="M332.08,-48.37C319.51,-49.27 306.2,-50.22 293.41,-51.14"/>
<polygon fill="#63b8ff" stroke="#63b8ff" points="332.15,-51.88 341.88,-47.68 331.65,-44.9 332.15,-51.88"/>
</a>
</g>
</g>
<!-- Node15&#45;&gt;Node11 -->
<g id="edge18_Node000015_Node000011" class="edge">
<title>Node15&#45;&gt;Node11</title>
<g id="a_edge18_Node000015_Node000011"><a xlink:title=" ">
<path fill="none" stroke="#63b8ff" d="M321.05,-91.46C306.99,-93.3 292.49,-95.2 279.15,-96.95"/>
<polygon fill="#63b8ff" stroke="#63b8ff" points="321.24,-94.97 330.7,-90.2 320.33,-88.03 321.24,-94.97"/>
</a>
</g>
</g>
<!-- Node15&#45;&gt;Node14 -->
<g id="edge19_Node000015_Node000014" class="edge">
<title>Node15&#45;&gt;Node14</title>
<g id="a_edge19_Node000015_Node000014"><a xlink:title=" ">
<path fill="none" stroke="#63b8ff" d="M320.97,-70.8C311.66,-69.36 302.15,-67.89 292.91,-66.46"/>
<polygon fill="#63b8ff" stroke="#63b8ff" points="320.29,-74.24 330.71,-72.31 321.36,-67.32 320.29,-74.24"/>
</a>
</g>
</g>
<!-- Node16&#45;&gt;Node9 -->
<g id="edge21_Node000016_Node000009" class="edge">
<title>Node16&#45;&gt;Node9</title>
<g id="a_edge21_Node000016_Node000009"><a xlink:title=" ">
<path fill="none" stroke="#63b8ff" d="M181.93,-24.66C173.03,-28.32 163.81,-32.49 155.5,-37 124.16,-54.01 90.86,-79.53 73.3,-93.66"/>
<polygon fill="#63b8ff" stroke="#63b8ff" points="183.11,-27.96 191.13,-21.03 180.54,-21.45 183.11,-27.96"/>
</a>
</g>
</g>
<!-- Node17&#45;&gt;Node5 -->
<g id="edge23_Node000017_Node000005" class="edge">
<title>Node17&#45;&gt;Node5</title>
<g id="a_edge23_Node000017_Node000005"><a xlink:title=" ">
<path fill="none" stroke="#63b8ff" d="M701.14,-248.27C689.24,-249.53 677.06,-250.82 665.23,-252.08"/>
<polygon fill="#63b8ff" stroke="#63b8ff" points="701.35,-251.76 710.92,-247.23 700.61,-244.8 701.35,-251.76"/>
</a>
</g>
</g>
<!-- Node18&#45;&gt;Node6 -->
<g id="edge25_Node000018_Node000006" class="edge">
<title>Node18&#45;&gt;Node6</title>
<g id="a_edge25_Node000018_Node000006"><a xlink:title=" ">
<path fill="none" stroke="#63b8ff" d="M704.83,-159.87C690.46,-161.4 675.56,-162.98 661.28,-164.5"/>
<polygon fill="#63b8ff" stroke="#63b8ff" points="705.14,-163.36 714.72,-158.82 704.4,-156.4 705.14,-163.36"/>
</a>
</g>
</g>
<!-- Node21 -->
<g id="Node000021" class="node">
<title>Node21</title>
<g id="a_Node000021"><a xlink:href="classInterfaceSFML.html#aa50033cc2b996da556fdebca5db2c7ef" target="_top" xlink:title="Met à jour l&#39;affichage.">
<polygon fill="white" stroke="#666666" points="639.25,-369 521.25,-369 521.25,-349 639.25,-349 639.25,-369"/>
<text xml:space="preserve" text-anchor="middle" x="580.25" y="-355.5" font-family="Helvetica,sans-Serif" font-size="10.00">InterfaceSFML::afficher</text>
</a>
</g>
</g>
<!-- Node20&#45;&gt;Node21 -->
<g id="edge28_Node000020_Node000021" class="edge">
<title>Node20&#45;&gt;Node21</title>
<g id="a_edge28_Node000020_Node000021"><a xlink:title=" ">
<path fill="none" stroke="#63b8ff" d="M704.89,-359C682.95,-359 659.76,-359 639.47,-359"/>
<polygon fill="#63b8ff" stroke="#63b8ff" points="704.71,-362.5 714.71,-359 704.71,-355.5 704.71,-362.5"/>
</a>
</g>
</g>
<!-- Node22 -->
<g id="Node000022" class="node">
<title>Node22</title>
<g id="a_Node000022"><a xlink:href="classInterfaceSFML.html#a518c46fbb99e76a49149d03b900b6cdc" target="_top" xlink:title="Lance la boucle principale de l&#39;interface graphique.">
<polygon fill="white" stroke="#666666" points="456.38,-372 332.38,-372 332.38,-352 456.38,-352 456.38,-372"/>
<text xml:space="preserve" text-anchor="middle" x="394.38" y="-358.5" font-family="Helvetica,sans-Serif" font-size="10.00">InterfaceSFML::executer</text>
</a>
</g>
</g>
<!-- Node21&#45;&gt;Node22 -->
<g id="edge29_Node000021_Node000022" class="edge">
<title>Node21&#45;&gt;Node22</title>
<g id="a_edge29_Node000021_Node000022"><a xlink:title=" ">
<path fill="none" stroke="#63b8ff" d="M509.6,-360.14C492.24,-360.42 473.76,-360.72 456.83,-361"/>
<polygon fill="#63b8ff" stroke="#63b8ff" points="509.36,-363.64 519.3,-359.98 509.25,-356.64 509.36,-363.64"/>
</a>
</g>
</g>
<!-- Node22&#45;&gt;Node4 -->
<g id="edge30_Node000022_Node000004" class="edge">
<title>Node22&#45;&gt;Node4</title>
<g id="a_edge30_Node000022_Node000004"><a xlink:title=" ">
<path fill="none" stroke="#63b8ff" d="M320.88,-371.49C292.14,-375.25 261.55,-379.25 242.92,-381.69"/>
<polygon fill="#63b8ff" stroke="#63b8ff" points="321.24,-374.97 330.7,-370.2 320.33,-368.03 321.24,-374.97"/>
</a>
</g>
</g>
<!-- Node23&#45;&gt;Node21 -->
<g id="edge32_Node000023_Node000021" class="edge">
<title>Node23&#45;&gt;Node21</title>
<g id="a_edge32_Node000023_Node000021"><a xlink:title=" ">
<path fill="none" stroke="#63b8ff" d="M720.1,-333.53C693.57,-338.39 663.54,-343.9 638.21,-348.55"/>
<polygon fill="#63b8ff" stroke="#63b8ff" points="720.54,-337 729.74,-331.76 719.27,-330.12 720.54,-337"/>
</a>
</g>
</g>
<!-- Node25 -->
<g id="Node000025" class="node">
<title>Node25</title>
<g id="a_Node000025"><a xlink:href="classModeConsole.html#a75b55e1983d7ca8dbbb4ebec6a68589d" target="_top" xlink:title="Sauvegarde la grille actuelle dans un fichier.">
<polygon fill="white" stroke="#666666" points="647.88,-419 512.62,-419 512.62,-387 647.88,-387 647.88,-419"/>
<text xml:space="preserve" text-anchor="start" x="520.62" y="-405.5" font-family="Helvetica,sans-Serif" font-size="10.00">ModeConsole::sauvegarder</text>
<text xml:space="preserve" text-anchor="middle" x="580.25" y="-393.5" font-family="Helvetica,sans-Serif" font-size="10.00">Iteration</text>
</a>
</g>
</g>
<!-- Node24&#45;&gt;Node25 -->
<g id="edge34_Node000024_Node000025" class="edge">
<title>Node24&#45;&gt;Node25</title>
<g id="a_edge34_Node000024_Node000025"><a xlink:title=" ">
<path fill="none" stroke="#63b8ff" d="M727.53,-403C702.63,-403 673.74,-403 648.24,-403"/>
<polygon fill="#63b8ff" stroke="#63b8ff" points="727.51,-406.5 737.51,-403 727.51,-399.5 727.51,-406.5"/>
</a>
</g>
</g>
<!-- Node25&#45;&gt;Node3 -->
<g id="edge35_Node000025_Node000003" class="edge">
<title>Node25&#45;&gt;Node3</title>
<g id="a_edge35_Node000025_Node000003"><a xlink:title=" ">
<path fill="none" stroke="#63b8ff" d="M501.13,-403C485.55,-403 469.44,-403 454.62,-403"/>
<polygon fill="#63b8ff" stroke="#63b8ff" points="500.83,-406.5 510.83,-403 500.83,-399.5 500.83,-406.5"/>
</a>
</g>
</g>
</g>
</svg>

<g id="navigator" transform="translate(0 0)" fill="#404254">
  <rect fill="#f2f5e9" fill-opacity="0.5" stroke="#606060" stroke-width=".5" x="0" y="0" width="60" height="60"/>
  <use id="zoomplus" xlink:href="#zoomPlus" x="17" y="9" onmousedown="handleZoom(evt,'in')"/>
  <use id="zoomminus" xlink:href="#zoomMin" x="42" y="9" onmousedown="handleZoom(evt,'out')"/>
  <use id="reset" xlink:href="#resetDef" x="30" y="36" onmousedown="handleReset()"/>
   <use id="arrowup" xlink:href="#arrowUp" x="0" y="0" onmousedown="handlePan(0,-1)"/>
  <use id="arrowright" xlink:href="#arrowRight" x="0" y="0" onmousedown="handlePan(1,0)"/>
  <use id="arrowdown" xlink:href="#arrowDown" x="0" y="0" onmousedown="handlePan(0,1)"/>
  <use id="arrowleft" xlink:href="#arrowLeft" x="0" y="0" onmousedown="handlePan(-1,0)"/>
</g>
<svg viewBox="0 0 15 15" width="100%" height="30px" preserveAspectRatio="xMaxYMin meet">
 <g id="arrow_out" transform="scale(0.3 0.3)">
  <a xlink:href="classGrille_aab75610fe73ae48bd035a048c55832f0_icgraph_org.svg" target="_base">
   <rect id="button" ry="5" rx="5" y="6" x="6" height="38" width="38"
        fill="#f2f5e9" fill-opacity="0.5" stroke="#606060" stroke-width="1.0"/>
   <path id="arrow"
     d="M 11.500037,31.436501 C 11.940474,20.09759 22.043105,11.32322 32.158766,21.979434 L 37.068811,17.246167 C 37.068811,17.246167 37.088388,32 37.088388,32 L 22.160133,31.978069 C 22.160133,31.978069 26.997745,27.140456 26.997745,27.140456 C 18.528582,18.264221 13.291696,25.230495 11.500037,31.436501 z"
     style="fill:#404040;"/>
  </a>
 </g>
</svg>

<style type='text/css'>
<![CDATA[
[data-mouse-over-selected='false'] { opacity: 0.7; }
[data-mouse-over-selected='true']  { opacity: 1.0; }
]]>
</style>
<script type="application/ecmascript"><![CDATA[
document.addEventListener('DOMContentLoaded', (event) => {
  highlightEdges();
  highlightAdjacentNodes();
});
]]></script>
</svg>
