<?xml version="1.0" encoding="UTF-8" standalone="no"?>
<!DOCTYPE svg PUBLIC "-//W3C//DTD SVG 1.1//EN"
 "http://www.w3.org/Graphics/SVG/1.1/DTD/svg11.dtd">
<!-- Generated by graphviz version 14.0.2 (20251019.1705)
 -->
<!-- Title: InterfaceQt::onReset Pages: 1 -->
<svg width="772pt" height="142pt"
 viewBox="0.00 0.00 772.00 142.00" xmlns="http://www.w3.org/2000/svg" xmlns:xlink="http://www.w3.org/1999/xlink">
<g id="graph0" class="graph" transform="scale(1 1) rotate(0) translate(4 138)">
<title>InterfaceQt::onReset</title>
<!-- Node1 -->
<g id="Node000001" class="node">
<title>Node1</title>
<g id="a_Node000001"><a xlink:title="Réinitialise la simulation.">
<polygon fill="#999999" stroke="#666666" points="107.5,-77 0,-77 0,-57 107.5,-57 107.5,-77"/>
<text xml:space="preserve" text-anchor="middle" x="53.75" y="-63.5" font-family="Helvetica,sans-Serif" font-size="10.00">InterfaceQt::onReset</text>
</a>
</g>
</g>
<!-- Node2 -->
<g id="Node000002" class="node">
<title>Node2</title>
<g id="a_Node000002"><a xlink:href="classInterfaceQt.html#a06b809d43dbf3814ab103a8d42de319a" target="_top" xlink:title="Met à jour l&#39;affichage.">
<polygon fill="white" stroke="#666666" points="267.5,-83 143.5,-83 143.5,-51 267.5,-51 267.5,-83"/>
<text xml:space="preserve" text-anchor="start" x="151.5" y="-69.5" font-family="Helvetica,sans-Serif" font-size="10.00">InterfaceQt::mettreAJour</text>
<text xml:space="preserve" text-anchor="middle" x="205.5" y="-57.5" font-family="Helvetica,sans-Serif" font-size="10.00">Affichage</text>
</a>
</g>
</g>
<!-- Node1&#45;&gt;Node2 -->
<g id="edge1_Node000001_Node000002" class="edge">
<title>Node1&#45;&gt;Node2</title>
<g id="a_edge1_Node000001_Node000002"><a xlink:title=" ">
<path fill="none" stroke="#63b8ff" d="M107.97,-67C115.68,-67 123.73,-67 131.75,-67"/>
<polygon fill="#63b8ff" stroke="#63b8ff" points="131.51,-70.5 141.51,-67 131.51,-63.5 131.51,-70.5"/>
</a>
</g>
</g>
<!-- Node3 -->
<g id="Node000003" class="node">
<title>Node3</title>
<g id="a_Node000003"><a xlink:href="classInterfaceQt.html#abe5b2e247e50614efbf88402c774899c" target="_top" xlink:title="Compte les cellules vivantes.">
<polygon fill="white" stroke="#666666" points="444.75,-83 303.5,-83 303.5,-51 444.75,-51 444.75,-83"/>
<text xml:space="preserve" text-anchor="start" x="311.5" y="-69.5" font-family="Helvetica,sans-Serif" font-size="10.00">InterfaceQt::compterCellules</text>
<text xml:space="preserve" text-anchor="middle" x="374.12" y="-57.5" font-family="Helvetica,sans-Serif" font-size="10.00">Vivantes</text>
</a>
</g>
</g>
<!-- Node2&#45;&gt;Node3 -->
<g id="edge2_Node000002_Node000003" class="edge">
<title>Node2&#45;&gt;Node3</title>
<g id="a_edge2_Node000002_Node000003"><a xlink:title=" ">
<path fill="none" stroke="#63b8ff" d="M267.6,-67C275.43,-67 283.54,-67 291.62,-67"/>
<polygon fill="#63b8ff" stroke="#63b8ff" points="291.5,-70.5 301.5,-67 291.5,-63.5 291.5,-70.5"/>
</a>
</g>
</g>
<!-- Node4 -->
<g id="Node000004" class="node">
<title>Node4</title>
<g id="a_Node000004"><a xlink:href="classCellule.html#a70d2731234961e330fe0a31486d1dec7" target="_top" xlink:title="Vérifie si la cellule est vivante.">
<polygon fill="white" stroke="#666666" points="593.88,-134 495.38,-134 495.38,-114 593.88,-114 593.88,-134"/>
<text xml:space="preserve" text-anchor="middle" x="544.62" y="-120.5" font-family="Helvetica,sans-Serif" font-size="10.00">Cellule::estVivante</text>
</a>
</g>
</g>
<!-- Node3&#45;&gt;Node4 -->
<g id="edge3_Node000003_Node000004" class="edge">
<title>Node3&#45;&gt;Node4</title>
<g id="a_edge3_Node000003_Node000004"><a xlink:title=" ">
<path fill="none" stroke="#63b8ff" d="M419.14,-83.41C438.03,-90.31 460.4,-98.27 480.75,-105 486.09,-106.77 491.71,-108.56 497.31,-110.3"/>
<polygon fill="#63b8ff" stroke="#63b8ff" points="495.91,-113.53 506.5,-113.12 497.97,-106.84 495.91,-113.53"/>
</a>
</g>
</g>
<!-- Node5 -->
<g id="Node000005" class="node">
<title>Node5</title>
<g id="a_Node000005"><a xlink:href="classGrille.html#aab75610fe73ae48bd035a048c55832f0" target="_top" xlink:title="Obtient une cellule à une position donnée.">
<polygon fill="white" stroke="#666666" points="596.5,-96 492.75,-96 492.75,-76 596.5,-76 596.5,-96"/>
<text xml:space="preserve" text-anchor="middle" x="544.62" y="-82.5" font-family="Helvetica,sans-Serif" font-size="10.00">Grille::obtenirCellule</text>
</a>
</g>
</g>
<!-- Node3&#45;&gt;Node5 -->
<g id="edge4_Node000003_Node000005" class="edge">
<title>Node3&#45;&gt;Node5</title>
<g id="a_edge4_Node000003_Node000005"><a xlink:title=" ">
<path fill="none" stroke="#63b8ff" d="M445.12,-74.89C456.99,-76.23 469.24,-77.61 480.91,-78.93"/>
<polygon fill="#63b8ff" stroke="#63b8ff" points="480.51,-82.41 490.84,-80.05 481.29,-75.45 480.51,-82.41"/>
</a>
</g>
</g>
<!-- Node7 -->
<g id="Node000007" class="node">
<title>Node7</title>
<g id="a_Node000007"><a xlink:href="classGrille.html#a1ab5c8e0ea0d1dc21549c38d0f0f5cf9" target="_top" xlink:title="Obtient le nombre de colonnes.">
<polygon fill="white" stroke="#666666" points="608.5,-58 480.75,-58 480.75,-38 608.5,-38 608.5,-58"/>
<text xml:space="preserve" text-anchor="middle" x="544.62" y="-44.5" font-family="Helvetica,sans-Serif" font-size="10.00">Grille::obtenirNbColonnes</text>
</a>
</g>
</g>
<!-- Node3&#45;&gt;Node7 -->
<g id="edge6_Node000003_Node000007" class="edge">
<title>Node3&#45;&gt;Node7</title>
<g id="a_edge6_Node000003_Node000007"><a xlink:title=" ">
<path fill="none" stroke="#63b8ff" d="M445.12,-59.11C453.05,-58.21 461.15,-57.3 469.13,-56.4"/>
<polygon fill="#63b8ff" stroke="#63b8ff" points="469.26,-59.91 478.81,-55.31 468.48,-52.95 469.26,-59.91"/>
</a>
</g>
</g>
<!-- Node8 -->
<g id="Node000008" class="node">
<title>Node8</title>
<g id="a_Node000008"><a xlink:href="classGrille.html#a96b5f98d212a0ee9e2f71d73ebe5bb91" target="_top" xlink:title="Obtient le nombre de lignes.">
<polygon fill="white" stroke="#666666" points="602.12,-20 487.12,-20 487.12,0 602.12,0 602.12,-20"/>
<text xml:space="preserve" text-anchor="middle" x="544.62" y="-6.5" font-family="Helvetica,sans-Serif" font-size="10.00">Grille::obtenirNbLignes</text>
</a>
</g>
</g>
<!-- Node3&#45;&gt;Node8 -->
<g id="edge7_Node000003_Node000008" class="edge">
<title>Node3&#45;&gt;Node8</title>
<g id="a_edge7_Node000003_Node000008"><a xlink:title=" ">
<path fill="none" stroke="#63b8ff" d="M419.14,-50.59C438.03,-43.69 460.4,-35.73 480.75,-29 486.09,-27.23 491.71,-25.44 497.31,-23.7"/>
<polygon fill="#63b8ff" stroke="#63b8ff" points="497.97,-27.16 506.5,-20.88 495.91,-20.47 497.97,-27.16"/>
</a>
</g>
</g>
<!-- Node6 -->
<g id="Node000006" class="node">
<title>Node6</title>
<g id="a_Node000006"><a xlink:href="classGrille.html#aa4c9ce36bb4f2c59a83aeb39d73fc285" target="_top" xlink:title="Vérifie si une position est valide dans la grille.">
<polygon fill="white" stroke="#666666" points="764,-96 644.5,-96 644.5,-76 764,-76 764,-96"/>
<text xml:space="preserve" text-anchor="middle" x="704.25" y="-82.5" font-family="Helvetica,sans-Serif" font-size="10.00">Grille::estPositionValide</text>
</a>
</g>
</g>
<!-- Node5&#45;&gt;Node6 -->
<g id="edge5_Node000005_Node000006" class="edge">
<title>Node5&#45;&gt;Node6</title>
<g id="a_edge5_Node000005_Node000006"><a xlink:title=" ">
<path fill="none" stroke="#63b8ff" d="M596.8,-86C608.25,-86 620.58,-86 632.66,-86"/>
<polygon fill="#63b8ff" stroke="#63b8ff" points="632.6,-89.5 642.6,-86 632.6,-82.5 632.6,-89.5"/>
</a>
</g>
</g>
</g>
</svg>
