<?xml version="1.0" encoding="UTF-8" standalone="no"?>
<!DOCTYPE svg PUBLIC "-//W3C//DTD SVG 1.1//EN"
 "http://www.w3.org/Graphics/SVG/1.1/DTD/svg11.dtd">
<!-- Generated by graphviz version 14.0.2 (20251019.1705)
 -->
<!-- Title: InterfaceQt::keyPressEvent Pages: 1 -->
<svg width="967pt" height="142pt"
 viewBox="0.00 0.00 967.00 142.00" xmlns="http://www.w3.org/2000/svg" xmlns:xlink="http://www.w3.org/1999/xlink">
<g id="graph0" class="graph" transform="scale(1 1) rotate(0) translate(4 138)">
<title>InterfaceQt::keyPressEvent</title>
<!-- Node1 -->
<g id="Node000001" class="node">
<title>Node1</title>
<g id="a_Node000001"><a xlink:title="Gestion des événements clavier.">
<polygon fill="#999999" stroke="#666666" points="137.5,-96 0,-96 0,-76 137.5,-76 137.5,-96"/>
<text xml:space="preserve" text-anchor="middle" x="68.75" y="-82.5" font-family="Helvetica,sans-Serif" font-size="10.00">InterfaceQt::keyPressEvent</text>
</a>
</g>
</g>
<!-- Node2 -->
<g id="Node000002" class="node">
<title>Node2</title>
<g id="a_Node000002"><a xlink:href="classInterfaceQt.html#a7a4a2f568e5489965eee2dc49dc27161" target="_top" xlink:title="Gestion du bouton Play/Pause.">
<polygon fill="white" stroke="#666666" points="302,-134 173.5,-134 173.5,-114 302,-114 302,-134"/>
<text xml:space="preserve" text-anchor="middle" x="237.75" y="-120.5" font-family="Helvetica,sans-Serif" font-size="10.00">InterfaceQt::onPlayPause</text>
</a>
</g>
</g>
<!-- Node1&#45;&gt;Node2 -->
<g id="edge1_Node000001_Node000002" class="edge">
<title>Node1&#45;&gt;Node2</title>
<g id="a_edge1_Node000001_Node000002"><a xlink:title=" ">
<path fill="none" stroke="#63b8ff" d="M115.83,-96.48C135.63,-100.99 158.98,-106.3 179.85,-111.05"/>
<polygon fill="#63b8ff" stroke="#63b8ff" points="178.82,-114.41 189.35,-113.21 180.37,-107.58 178.82,-114.41"/>
</a>
</g>
</g>
<!-- Node3 -->
<g id="Node000003" class="node">
<title>Node3</title>
<g id="a_Node000003"><a xlink:href="classInterfaceQt.html#a1c1b614c51a456e7b5f407724df14f38" target="_top" xlink:title="Avance d&#39;une itération.">
<polygon fill="white" stroke="#666666" points="288.5,-96 187,-96 187,-76 288.5,-76 288.5,-96"/>
<text xml:space="preserve" text-anchor="middle" x="237.75" y="-82.5" font-family="Helvetica,sans-Serif" font-size="10.00">InterfaceQt::onStep</text>
</a>
</g>
</g>
<!-- Node1&#45;&gt;Node3 -->
<g id="edge2_Node000001_Node000003" class="edge">
<title>Node1&#45;&gt;Node3</title>
<g id="a_edge2_Node000001_Node000003"><a xlink:title=" ">
<path fill="none" stroke="#63b8ff" d="M137.68,-86C150.06,-86 162.92,-86 175.11,-86"/>
<polygon fill="#63b8ff" stroke="#63b8ff" points="175.05,-89.5 185.05,-86 175.05,-82.5 175.05,-89.5"/>
</a>
</g>
</g>
<!-- Node11 -->
<g id="Node000011" class="node">
<title>Node11</title>
<g id="a_Node000011"><a xlink:href="classInterfaceQt.html#abe7956e622104a15a5de0b3f8c84921d" target="_top" xlink:title="Recule d&#39;une itération.">
<polygon fill="white" stroke="#666666" points="299.75,-58 175.75,-58 175.75,-38 299.75,-38 299.75,-58"/>
<text xml:space="preserve" text-anchor="middle" x="237.75" y="-44.5" font-family="Helvetica,sans-Serif" font-size="10.00">InterfaceQt::onStepBack</text>
</a>
</g>
</g>
<!-- Node1&#45;&gt;Node11 -->
<g id="edge10_Node000001_Node000011" class="edge">
<title>Node1&#45;&gt;Node11</title>
<g id="a_edge10_Node000001_Node000011"><a xlink:title=" ">
<path fill="none" stroke="#63b8ff" d="M115.83,-75.52C135.63,-71.01 158.98,-65.7 179.85,-60.95"/>
<polygon fill="#63b8ff" stroke="#63b8ff" points="180.37,-64.42 189.35,-58.79 178.82,-57.59 180.37,-64.42"/>
</a>
</g>
</g>
<!-- Node4 -->
<g id="Node000004" class="node">
<title>Node4</title>
<g id="a_Node000004"><a xlink:href="classInterfaceQt.html#a06b809d43dbf3814ab103a8d42de319a" target="_top" xlink:title="Met à jour l&#39;affichage.">
<polygon fill="white" stroke="#666666" points="462,-83 338,-83 338,-51 462,-51 462,-83"/>
<text xml:space="preserve" text-anchor="start" x="346" y="-69.5" font-family="Helvetica,sans-Serif" font-size="10.00">InterfaceQt::mettreAJour</text>
<text xml:space="preserve" text-anchor="middle" x="400" y="-57.5" font-family="Helvetica,sans-Serif" font-size="10.00">Affichage</text>
</a>
</g>
</g>
<!-- Node3&#45;&gt;Node4 -->
<g id="edge3_Node000003_Node000004" class="edge">
<title>Node3&#45;&gt;Node4</title>
<g id="a_edge3_Node000003_Node000004"><a xlink:title=" ">
<path fill="none" stroke="#63b8ff" d="M288.58,-80.09C300.59,-78.67 313.66,-77.12 326.47,-75.6"/>
<polygon fill="#63b8ff" stroke="#63b8ff" points="326.61,-79.11 336.13,-74.45 325.79,-72.16 326.61,-79.11"/>
</a>
</g>
</g>
<!-- Node5 -->
<g id="Node000005" class="node">
<title>Node5</title>
<g id="a_Node000005"><a xlink:href="classInterfaceQt.html#abe5b2e247e50614efbf88402c774899c" target="_top" xlink:title="Compte les cellules vivantes.">
<polygon fill="white" stroke="#666666" points="639.25,-83 498,-83 498,-51 639.25,-51 639.25,-83"/>
<text xml:space="preserve" text-anchor="start" x="506" y="-69.5" font-family="Helvetica,sans-Serif" font-size="10.00">InterfaceQt::compterCellules</text>
<text xml:space="preserve" text-anchor="middle" x="568.62" y="-57.5" font-family="Helvetica,sans-Serif" font-size="10.00">Vivantes</text>
</a>
</g>
</g>
<!-- Node4&#45;&gt;Node5 -->
<g id="edge4_Node000004_Node000005" class="edge">
<title>Node4&#45;&gt;Node5</title>
<g id="a_edge4_Node000004_Node000005"><a xlink:title=" ">
<path fill="none" stroke="#63b8ff" d="M462.1,-67C469.93,-67 478.04,-67 486.12,-67"/>
<polygon fill="#63b8ff" stroke="#63b8ff" points="486,-70.5 496,-67 486,-63.5 486,-70.5"/>
</a>
</g>
</g>
<!-- Node6 -->
<g id="Node000006" class="node">
<title>Node6</title>
<g id="a_Node000006"><a xlink:href="classCellule.html#a70d2731234961e330fe0a31486d1dec7" target="_top" xlink:title="Vérifie si la cellule est vivante.">
<polygon fill="white" stroke="#666666" points="788.38,-134 689.88,-134 689.88,-114 788.38,-114 788.38,-134"/>
<text xml:space="preserve" text-anchor="middle" x="739.12" y="-120.5" font-family="Helvetica,sans-Serif" font-size="10.00">Cellule::estVivante</text>
</a>
</g>
</g>
<!-- Node5&#45;&gt;Node6 -->
<g id="edge5_Node000005_Node000006" class="edge">
<title>Node5&#45;&gt;Node6</title>
<g id="a_edge5_Node000005_Node000006"><a xlink:title=" ">
<path fill="none" stroke="#63b8ff" d="M613.64,-83.41C632.53,-90.31 654.9,-98.27 675.25,-105 680.59,-106.77 686.21,-108.56 691.81,-110.3"/>
<polygon fill="#63b8ff" stroke="#63b8ff" points="690.41,-113.53 701,-113.12 692.47,-106.84 690.41,-113.53"/>
</a>
</g>
</g>
<!-- Node7 -->
<g id="Node000007" class="node">
<title>Node7</title>
<g id="a_Node000007"><a xlink:href="classGrille.html#aab75610fe73ae48bd035a048c55832f0" target="_top" xlink:title="Obtient une cellule à une position donnée.">
<polygon fill="white" stroke="#666666" points="791,-96 687.25,-96 687.25,-76 791,-76 791,-96"/>
<text xml:space="preserve" text-anchor="middle" x="739.12" y="-82.5" font-family="Helvetica,sans-Serif" font-size="10.00">Grille::obtenirCellule</text>
</a>
</g>
</g>
<!-- Node5&#45;&gt;Node7 -->
<g id="edge6_Node000005_Node000007" class="edge">
<title>Node5&#45;&gt;Node7</title>
<g id="a_edge6_Node000005_Node000007"><a xlink:title=" ">
<path fill="none" stroke="#63b8ff" d="M639.62,-74.89C651.49,-76.23 663.74,-77.61 675.41,-78.93"/>
<polygon fill="#63b8ff" stroke="#63b8ff" points="675.01,-82.41 685.34,-80.05 675.79,-75.45 675.01,-82.41"/>
</a>
</g>
</g>
<!-- Node9 -->
<g id="Node000009" class="node">
<title>Node9</title>
<g id="a_Node000009"><a xlink:href="classGrille.html#a1ab5c8e0ea0d1dc21549c38d0f0f5cf9" target="_top" xlink:title="Obtient le nombre de colonnes.">
<polygon fill="white" stroke="#666666" points="803,-58 675.25,-58 675.25,-38 803,-38 803,-58"/>
<text xml:space="preserve" text-anchor="middle" x="739.12" y="-44.5" font-family="Helvetica,sans-Serif" font-size="10.00">Grille::obtenirNbColonnes</text>
</a>
</g>
</g>
<!-- Node5&#45;&gt;Node9 -->
<g id="edge8_Node000005_Node000009" class="edge">
<title>Node5&#45;&gt;Node9</title>
<g id="a_edge8_Node000005_Node000009"><a xlink:title=" ">
<path fill="none" stroke="#63b8ff" d="M639.62,-59.11C647.55,-58.21 655.65,-57.3 663.63,-56.4"/>
<polygon fill="#63b8ff" stroke="#63b8ff" points="663.76,-59.91 673.31,-55.31 662.98,-52.95 663.76,-59.91"/>
</a>
</g>
</g>
<!-- Node10 -->
<g id="Node000010" class="node">
<title>Node10</title>
<g id="a_Node000010"><a xlink:href="classGrille.html#a96b5f98d212a0ee9e2f71d73ebe5bb91" target="_top" xlink:title="Obtient le nombre de lignes.">
<polygon fill="white" stroke="#666666" points="796.62,-20 681.62,-20 681.62,0 796.62,0 796.62,-20"/>
<text xml:space="preserve" text-anchor="middle" x="739.12" y="-6.5" font-family="Helvetica,sans-Serif" font-size="10.00">Grille::obtenirNbLignes</text>
</a>
</g>
</g>
<!-- Node5&#45;&gt;Node10 -->
<g id="edge9_Node000005_Node000010" class="edge">
<title>Node5&#45;&gt;Node10</title>
<g id="a_edge9_Node000005_Node000010"><a xlink:title=" ">
<path fill="none" stroke="#63b8ff" d="M613.64,-50.59C632.53,-43.69 654.9,-35.73 675.25,-29 680.59,-27.23 686.21,-25.44 691.81,-23.7"/>
<polygon fill="#63b8ff" stroke="#63b8ff" points="692.47,-27.16 701,-20.88 690.41,-20.47 692.47,-27.16"/>
</a>
</g>
</g>
<!-- Node8 -->
<g id="Node000008" class="node">
<title>Node8</title>
<g id="a_Node000008"><a xlink:href="classGrille.html#aa4c9ce36bb4f2c59a83aeb39d73fc285" target="_top" xlink:title="Vérifie si une position est valide dans la grille.">
<polygon fill="white" stroke="#666666" points="958.5,-96 839,-96 839,-76 958.5,-76 958.5,-96"/>
<text xml:space="preserve" text-anchor="middle" x="898.75" y="-82.5" font-family="Helvetica,sans-Serif" font-size="10.00">Grille::estPositionValide</text>
</a>
</g>
</g>
<!-- Node7&#45;&gt;Node8 -->
<g id="edge7_Node000007_Node000008" class="edge">
<title>Node7&#45;&gt;Node8</title>
<g id="a_edge7_Node000007_Node000008"><a xlink:title=" ">
<path fill="none" stroke="#63b8ff" d="M791.3,-86C802.75,-86 815.08,-86 827.16,-86"/>
<polygon fill="#63b8ff" stroke="#63b8ff" points="827.1,-89.5 837.1,-86 827.1,-82.5 827.1,-89.5"/>
</a>
</g>
</g>
<!-- Node11&#45;&gt;Node4 -->
<g id="edge11_Node000011_Node000004" class="edge">
<title>Node11&#45;&gt;Node4</title>
<g id="a_edge11_Node000011_Node000004"><a xlink:title=" ">
<path fill="none" stroke="#63b8ff" d="M300.25,-55.29C308.78,-56.3 317.61,-57.35 326.32,-58.38"/>
<polygon fill="#63b8ff" stroke="#63b8ff" points="325.82,-61.85 336.16,-59.55 326.64,-54.9 325.82,-61.85"/>
</a>
</g>
</g>
</g>
</svg>
