<?xml version="1.0" encoding="UTF-8" standalone="no"?>
<!DOCTYPE svg PUBLIC "-//W3C//DTD SVG 1.1//EN"
 "http://www.w3.org/Graphics/SVG/1.1/DTD/svg11.dtd">
<!-- Generated by graphviz version 14.0.2 (20251019.1705)
 -->
<!-- Title: Grille::definirEtatCellule Pages: 1 -->
<svg width="877pt" height="230pt"
 viewBox="0.00 0.00 877.00 230.00" xmlns="http://www.w3.org/2000/svg" xmlns:xlink="http://www.w3.org/1999/xlink">
<g id="graph0" class="graph" transform="scale(1 1) rotate(0) translate(4 226)">
<title>Grille::definirEtatCellule</title>
<!-- Node1 -->
<g id="Node000001" class="node">
<title>Node1</title>
<g id="a_Node000001"><a xlink:title="Définit l&#39;état d&#39;une cellule.">
<polygon fill="#999999" stroke="#666666" points="869.25,-105 750.5,-105 750.5,-85 869.25,-85 869.25,-105"/>
<text xml:space="preserve" text-anchor="middle" x="809.88" y="-91.5" font-family="Helvetica,sans-Serif" font-size="10.00">Grille::definirEtatCellule</text>
</a>
</g>
</g>
<!-- Node2 -->
<g id="Node000002" class="node">
<title>Node2</title>
<g id="a_Node000002"><a xlink:href="classTestsUnitaires.html#a6430263d628fa3e1f55be64cf1aae756" target="_top" xlink:title="Crée une grille de test.">
<polygon fill="white" stroke="#666666" points="570.25,-124 441,-124 441,-104 570.25,-104 570.25,-124"/>
<text xml:space="preserve" text-anchor="middle" x="505.62" y="-110.5" font-family="Helvetica,sans-Serif" font-size="10.00">TestsUnitaires::creerGrille</text>
</a>
</g>
</g>
<!-- Node1&#45;&gt;Node2 -->
<g id="edge1_Node000001_Node000002" class="edge">
<title>Node1&#45;&gt;Node2</title>
<g id="a_edge1_Node000001_Node000002"><a xlink:title=" ">
<path fill="none" stroke="#63b8ff" d="M739.03,-99.39C688.22,-102.58 619.97,-106.88 570.58,-109.98"/>
<polygon fill="#63b8ff" stroke="#63b8ff" points="738.97,-102.9 748.73,-98.78 738.53,-95.92 738.97,-102.9"/>
</a>
</g>
</g>
<!-- Node8 -->
<g id="Node000008" class="node">
<title>Node8</title>
<g id="a_Node000008"><a xlink:href="classTestsUnitaires.html#a7783880416ef4c0f160e1d8242f0d392" target="_top" xlink:title="Teste les cellules obstacles.">
<polygon fill="white" stroke="#666666" points="390,-20 236,-20 236,0 390,0 390,-20"/>
<text xml:space="preserve" text-anchor="middle" x="313" y="-6.5" font-family="Helvetica,sans-Serif" font-size="10.00">TestsUnitaires::testerObstacles</text>
</a>
</g>
</g>
<!-- Node1&#45;&gt;Node8 -->
<g id="edge22_Node000001_Node000008" class="edge">
<title>Node1&#45;&gt;Node8</title>
<g id="a_edge22_Node000001_Node000008"><a xlink:title=" ">
<path fill="none" stroke="#63b8ff" d="M738.99,-83C641.74,-66.29 467.19,-36.31 374.96,-20.47"/>
<polygon fill="#63b8ff" stroke="#63b8ff" points="738.22,-86.42 748.67,-84.66 739.41,-79.52 738.22,-86.42"/>
</a>
</g>
</g>
<!-- Node11 -->
<g id="Node000011" class="node">
<title>Node11</title>
<g id="a_Node000011"><a xlink:href="classGrille.html#a980652764fefe3f45fcc0516a6e59abb" target="_top" xlink:title="Met à jour la grille pour passer à l&#39;itération suivante.">
<polygon fill="white" stroke="#666666" points="714.5,-184 616.75,-184 616.75,-164 714.5,-164 714.5,-184"/>
<text xml:space="preserve" text-anchor="middle" x="665.62" y="-170.5" font-family="Helvetica,sans-Serif" font-size="10.00">Grille::mettreAJour</text>
</a>
</g>
</g>
<!-- Node1&#45;&gt;Node11 -->
<g id="edge15_Node000001_Node000011" class="edge">
<title>Node1&#45;&gt;Node11</title>
<g id="a_edge15_Node000001_Node000011"><a xlink:title=" ">
<path fill="none" stroke="#63b8ff" d="M780.24,-110.9C751.89,-126.65 709.32,-150.29 685.14,-163.72"/>
<polygon fill="#63b8ff" stroke="#63b8ff" points="781.62,-114.14 788.66,-106.23 778.22,-108.02 781.62,-114.14"/>
</a>
</g>
</g>
<!-- Node13 -->
<g id="Node000013" class="node">
<title>Node13</title>
<g id="a_Node000013"><a xlink:href="classGrille.html#adfa396acb4a6ed658ce916b5dceaa690" target="_top" xlink:title="Place un motif préprogrammé sur la grille (extension bonus).">
<polygon fill="white" stroke="#666666" points="711.88,-48 619.38,-48 619.38,-28 711.88,-28 711.88,-48"/>
<text xml:space="preserve" text-anchor="middle" x="665.62" y="-34.5" font-family="Helvetica,sans-Serif" font-size="10.00">Grille::placerMotif</text>
</a>
</g>
</g>
<!-- Node1&#45;&gt;Node13 -->
<g id="edge21_Node000001_Node000013" class="edge">
<title>Node1&#45;&gt;Node13</title>
<g id="a_edge21_Node000001_Node000013"><a xlink:title=" ">
<path fill="none" stroke="#63b8ff" d="M772.25,-80.33C747.3,-70.32 714.86,-57.33 692.55,-48.39"/>
<polygon fill="#63b8ff" stroke="#63b8ff" points="770.79,-83.51 781.38,-83.98 773.4,-77.01 770.79,-83.51"/>
</a>
</g>
</g>
<!-- Node3 -->
<g id="Node000003" class="node">
<title>Node3</title>
<g id="a_Node000003"><a xlink:href="classTestsUnitaires.html#acd912aefe999f1178f6c72f41bece368" target="_top" xlink:title="Teste le motif stable (bloc).">
<polygon fill="white" stroke="#666666" points="377.62,-184 248.38,-184 248.38,-164 377.62,-164 377.62,-184"/>
<text xml:space="preserve" text-anchor="middle" x="313" y="-170.5" font-family="Helvetica,sans-Serif" font-size="10.00">TestsUnitaires::testerBloc</text>
</a>
</g>
</g>
<!-- Node2&#45;&gt;Node3 -->
<g id="edge2_Node000002_Node000003" class="edge">
<title>Node2&#45;&gt;Node3</title>
<g id="a_edge2_Node000002_Node000003"><a xlink:title=" ">
<path fill="none" stroke="#63b8ff" d="M469.02,-128.54C447.64,-136.95 419.77,-147.35 394.5,-155 384.33,-158.08 373.31,-160.97 362.79,-163.52"/>
<polygon fill="#63b8ff" stroke="#63b8ff" points="470.16,-131.86 478.16,-124.91 467.57,-125.35 470.16,-131.86"/>
</a>
</g>
</g>
<!-- Node6 -->
<g id="Node000006" class="node">
<title>Node6</title>
<g id="a_Node000006"><a xlink:href="classTestsUnitaires.html#ad353b61378429174dd396ee458261aa2" target="_top" xlink:title="Teste le motif oscillateur (clignotant).">
<polygon fill="white" stroke="#666666" points="390,-146 236,-146 236,-126 390,-126 390,-146"/>
<text xml:space="preserve" text-anchor="middle" x="313" y="-132.5" font-family="Helvetica,sans-Serif" font-size="10.00">TestsUnitaires::testerClignotant</text>
</a>
</g>
</g>
<!-- Node2&#45;&gt;Node6 -->
<g id="edge5_Node000002_Node000006" class="edge">
<title>Node2&#45;&gt;Node6</title>
<g id="a_edge5_Node000002_Node000006"><a xlink:title=" ">
<path fill="none" stroke="#63b8ff" d="M429.48,-122.67C416.63,-124.16 403.27,-125.7 390.39,-127.18"/>
<polygon fill="#63b8ff" stroke="#63b8ff" points="429.58,-126.18 439.12,-121.56 428.78,-119.23 429.58,-126.18"/>
</a>
</g>
</g>
<!-- Node7 -->
<g id="Node000007" class="node">
<title>Node7</title>
<g id="a_Node000007"><a xlink:href="classTestsUnitaires.html#ac0c01e1e24de9cb73d81593c96fa34bb" target="_top" xlink:title="Teste la grille torique.">
<polygon fill="white" stroke="#666666" points="379.88,-108 246.12,-108 246.12,-76 379.88,-76 379.88,-108"/>
<text xml:space="preserve" text-anchor="start" x="254.12" y="-94.5" font-family="Helvetica,sans-Serif" font-size="10.00">TestsUnitaires::testerMode</text>
<text xml:space="preserve" text-anchor="middle" x="313" y="-82.5" font-family="Helvetica,sans-Serif" font-size="10.00">Torique</text>
</a>
</g>
</g>
<!-- Node2&#45;&gt;Node7 -->
<g id="edge7_Node000002_Node000007" class="edge">
<title>Node2&#45;&gt;Node7</title>
<g id="a_edge7_Node000002_Node000007"><a xlink:title=" ">
<path fill="none" stroke="#63b8ff" d="M429.49,-105.33C413.18,-103.45 396.04,-101.47 380.12,-99.63"/>
<polygon fill="#63b8ff" stroke="#63b8ff" points="428.78,-108.77 439.12,-106.44 429.58,-101.82 428.78,-108.77"/>
</a>
</g>
</g>
<!-- Node2&#45;&gt;Node8 -->
<g id="edge9_Node000002_Node000008" class="edge">
<title>Node2&#45;&gt;Node8</title>
<g id="a_edge9_Node000002_Node000008"><a xlink:title=" ">
<path fill="none" stroke="#63b8ff" d="M445.14,-99.18C439.92,-96.59 434.94,-93.56 430.5,-90 405.93,-70.32 419.85,-47.67 394.5,-29 389.87,-25.59 384.73,-22.79 379.34,-20.48"/>
<polygon fill="#63b8ff" stroke="#63b8ff" points="443.46,-102.26 454.02,-103.03 446.24,-95.84 443.46,-102.26"/>
</a>
</g>
</g>
<!-- Node9 -->
<g id="Node000009" class="node">
<title>Node9</title>
<g id="a_Node000009"><a xlink:href="classTestsUnitaires.html#aca78b84c54b4526bab6c6325e1b05e20" target="_top" xlink:title="Teste le planeur.">
<polygon fill="white" stroke="#666666" points="384.38,-58 241.62,-58 241.62,-38 384.38,-38 384.38,-58"/>
<text xml:space="preserve" text-anchor="middle" x="313" y="-44.5" font-family="Helvetica,sans-Serif" font-size="10.00">TestsUnitaires::testerPlaneur</text>
</a>
</g>
</g>
<!-- Node2&#45;&gt;Node9 -->
<g id="edge11_Node000002_Node000009" class="edge">
<title>Node2&#45;&gt;Node9</title>
<g id="a_edge11_Node000002_Node000009"><a xlink:title=" ">
<path fill="none" stroke="#63b8ff" d="M455.28,-99.98C446.87,-97.04 438.33,-93.69 430.5,-90 413.33,-81.9 411.99,-74.4 394.5,-67 386.56,-63.64 377.93,-60.82 369.35,-58.46"/>
<polygon fill="#63b8ff" stroke="#63b8ff" points="454.17,-103.3 464.76,-103.13 456.38,-96.65 454.17,-103.3"/>
</a>
</g>
</g>
<!-- Node10 -->
<g id="Node000010" class="node">
<title>Node10</title>
<g id="a_Node000010"><a xlink:href="classTestsUnitaires.html#a668b40e7c9824be78af8cfd427b4aa58" target="_top" xlink:title="Teste les règles de base.">
<polygon fill="white" stroke="#666666" points="394.5,-222 231.5,-222 231.5,-202 394.5,-202 394.5,-222"/>
<text xml:space="preserve" text-anchor="middle" x="313" y="-208.5" font-family="Helvetica,sans-Serif" font-size="10.00">TestsUnitaires::testerReglesBase</text>
</a>
</g>
</g>
<!-- Node2&#45;&gt;Node10 -->
<g id="edge13_Node000002_Node000010" class="edge">
<title>Node2&#45;&gt;Node10</title>
<g id="a_edge13_Node000002_Node000010"><a xlink:title=" ">
<path fill="none" stroke="#63b8ff" d="M471.58,-129.5C458.24,-136.44 443.07,-145.27 430.5,-155 412.1,-169.24 414.67,-181.4 394.5,-193 388.53,-196.44 381.96,-199.25 375.24,-201.56"/>
<polygon fill="#63b8ff" stroke="#63b8ff" points="473.09,-132.65 480.44,-125.03 469.94,-126.4 473.09,-132.65"/>
</a>
</g>
</g>
<!-- Node4 -->
<g id="Node000004" class="node">
<title>Node4</title>
<g id="a_Node000004"><a xlink:href="classTestsUnitaires.html#a17aa4e9d0afbd2614193d2638f4b78c7" target="_top" xlink:title="Exécute tous les tests.">
<polygon fill="white" stroke="#666666" points="195.5,-130 73,-130 73,-98 195.5,-98 195.5,-130"/>
<text xml:space="preserve" text-anchor="start" x="81" y="-116.5" font-family="Helvetica,sans-Serif" font-size="10.00">TestsUnitaires::executer</text>
<text xml:space="preserve" text-anchor="middle" x="134.25" y="-104.5" font-family="Helvetica,sans-Serif" font-size="10.00">TousLesTests</text>
</a>
</g>
</g>
<!-- Node3&#45;&gt;Node4 -->
<g id="edge3_Node000003_Node000004" class="edge">
<title>Node3&#45;&gt;Node4</title>
<g id="a_edge3_Node000003_Node000004"><a xlink:title=" ">
<path fill="none" stroke="#63b8ff" d="M250.81,-160.72C244.25,-158.95 237.71,-157.04 231.5,-155 210.62,-148.14 187.97,-138.61 169.9,-130.46"/>
<polygon fill="#63b8ff" stroke="#63b8ff" points="249.79,-164.07 260.35,-163.18 251.54,-157.29 249.79,-164.07"/>
</a>
</g>
</g>
<!-- Node5 -->
<g id="Node000005" class="node">
<title>Node5</title>
<g id="a_Node000005"><a xlink:href="test__main_8cpp.html#ae66f6b31b5ad750f1fe042a706a4e3d4" target="_top" xlink:title="Programme principal pour exécuter les tests unitaires.">
<polygon fill="white" stroke="#666666" points="37,-124 0,-124 0,-104 37,-104 37,-124"/>
<text xml:space="preserve" text-anchor="middle" x="18.5" y="-110.5" font-family="Helvetica,sans-Serif" font-size="10.00">main</text>
</a>
</g>
</g>
<!-- Node4&#45;&gt;Node5 -->
<g id="edge4_Node000004_Node000005" class="edge">
<title>Node4&#45;&gt;Node5</title>
<g id="a_edge4_Node000004_Node000005"><a xlink:title=" ">
<path fill="none" stroke="#63b8ff" d="M61.32,-114C52.49,-114 44.18,-114 37.33,-114"/>
<polygon fill="#63b8ff" stroke="#63b8ff" points="61.2,-117.5 71.2,-114 61.2,-110.5 61.2,-117.5"/>
</a>
</g>
</g>
<!-- Node6&#45;&gt;Node4 -->
<g id="edge6_Node000006_Node000004" class="edge">
<title>Node6&#45;&gt;Node4</title>
<g id="a_edge6_Node000006_Node000004"><a xlink:title=" ">
<path fill="none" stroke="#63b8ff" d="M224.27,-125.08C214.67,-123.88 205.06,-122.69 195.89,-121.55"/>
<polygon fill="#63b8ff" stroke="#63b8ff" points="223.65,-128.53 234,-126.29 224.51,-121.58 223.65,-128.53"/>
</a>
</g>
</g>
<!-- Node7&#45;&gt;Node4 -->
<g id="edge8_Node000007_Node000004" class="edge">
<title>Node7&#45;&gt;Node4</title>
<g id="a_edge8_Node000007_Node000004"><a xlink:title=" ">
<path fill="none" stroke="#63b8ff" d="M234.43,-101.66C221.49,-103.27 208.25,-104.91 195.82,-106.46"/>
<polygon fill="#63b8ff" stroke="#63b8ff" points="234.69,-105.15 244.18,-100.44 233.82,-98.2 234.69,-105.15"/>
</a>
</g>
</g>
<!-- Node8&#45;&gt;Node4 -->
<g id="edge10_Node000008_Node000004" class="edge">
<title>Node8&#45;&gt;Node4</title>
<g id="a_edge10_Node000008_Node000004"><a xlink:title=" ">
<path fill="none" stroke="#63b8ff" d="M242.19,-24.16C238.51,-25.62 234.92,-27.23 231.5,-29 197.84,-46.42 166.44,-78.19 149.14,-97.56"/>
<polygon fill="#63b8ff" stroke="#63b8ff" points="243.06,-27.57 251.32,-20.93 240.73,-20.97 243.06,-27.57"/>
</a>
</g>
</g>
<!-- Node9&#45;&gt;Node4 -->
<g id="edge12_Node000009_Node000004" class="edge">
<title>Node9&#45;&gt;Node4</title>
<g id="a_edge12_Node000009_Node000004"><a xlink:title=" ">
<path fill="none" stroke="#63b8ff" d="M249.14,-61.4C243.13,-63.11 237.16,-64.98 231.5,-67 208.21,-75.32 183.14,-87.68 164.43,-97.64"/>
<polygon fill="#63b8ff" stroke="#63b8ff" points="249.76,-64.85 258.51,-58.88 247.94,-58.09 249.76,-64.85"/>
</a>
</g>
</g>
<!-- Node10&#45;&gt;Node4 -->
<g id="edge14_Node000010_Node000004" class="edge">
<title>Node10&#45;&gt;Node4</title>
<g id="a_edge14_Node000010_Node000004"><a xlink:title=" ">
<path fill="none" stroke="#63b8ff" d="M243.04,-197.98C239.07,-196.48 235.19,-194.83 231.5,-193 199.14,-176.99 168.04,-148.25 150.33,-130.2"/>
<polygon fill="#63b8ff" stroke="#63b8ff" points="241.69,-201.22 252.28,-201.12 243.94,-194.59 241.69,-201.22"/>
</a>
</g>
</g>
<!-- Node11&#45;&gt;Node10 -->
<g id="edge20_Node000011_Node000010" class="edge">
<title>Node11&#45;&gt;Node10</title>
<g id="a_edge20_Node000011_Node000010"><a xlink:title=" ">
<path fill="none" stroke="#63b8ff" d="M613.4,-186.9C602.67,-189.24 591.38,-191.43 580.75,-193 518.75,-202.18 447.96,-206.96 394.89,-209.43"/>
<polygon fill="#63b8ff" stroke="#63b8ff" points="613.87,-190.38 622.85,-184.76 612.33,-183.55 613.87,-190.38"/>
</a>
</g>
</g>
<!-- Node12 -->
<g id="Node000012" class="node">
<title>Node12</title>
<g id="a_Node000012"><a xlink:href="classTestsUnitaires.html#a1fea61fb0483bb1f7e0284d828ad347f" target="_top" xlink:title="Teste l&#39;évolution d&#39;une grille après n itérations.">
<polygon fill="white" stroke="#666666" points="580.75,-184 430.5,-184 430.5,-164 580.75,-164 580.75,-184"/>
<text xml:space="preserve" text-anchor="middle" x="505.62" y="-170.5" font-family="Helvetica,sans-Serif" font-size="10.00">TestsUnitaires::testerEvolution</text>
</a>
</g>
</g>
<!-- Node11&#45;&gt;Node12 -->
<g id="edge16_Node000011_Node000012" class="edge">
<title>Node11&#45;&gt;Node12</title>
<g id="a_edge16_Node000011_Node000012"><a xlink:title=" ">
<path fill="none" stroke="#63b8ff" d="M605.1,-174C597.25,-174 589.13,-174 581.07,-174"/>
<polygon fill="#63b8ff" stroke="#63b8ff" points="604.85,-177.5 614.85,-174 604.85,-170.5 604.85,-177.5"/>
</a>
</g>
</g>
<!-- Node12&#45;&gt;Node3 -->
<g id="edge17_Node000012_Node000003" class="edge">
<title>Node12&#45;&gt;Node3</title>
<g id="a_edge17_Node000012_Node000003"><a xlink:title=" ">
<path fill="none" stroke="#63b8ff" d="M418.69,-174C404.99,-174 391.03,-174 377.96,-174"/>
<polygon fill="#63b8ff" stroke="#63b8ff" points="418.59,-177.5 428.59,-174 418.59,-170.5 418.59,-177.5"/>
</a>
</g>
</g>
<!-- Node12&#45;&gt;Node6 -->
<g id="edge18_Node000012_Node000006" class="edge">
<title>Node12&#45;&gt;Node6</title>
<g id="a_edge18_Node000012_Node000006"><a xlink:title=" ">
<path fill="none" stroke="#63b8ff" d="M440.81,-161.28C416.64,-156.46 389.42,-151.04 366.42,-146.45"/>
<polygon fill="#63b8ff" stroke="#63b8ff" points="440.06,-164.7 450.55,-163.22 441.42,-157.83 440.06,-164.7"/>
</a>
</g>
</g>
<!-- Node12&#45;&gt;Node10 -->
<g id="edge19_Node000012_Node000010" class="edge">
<title>Node12&#45;&gt;Node10</title>
<g id="a_edge19_Node000012_Node000010"><a xlink:title=" ">
<path fill="none" stroke="#63b8ff" d="M440.81,-186.72C416.64,-191.54 389.42,-196.96 366.42,-201.55"/>
<polygon fill="#63b8ff" stroke="#63b8ff" points="441.42,-190.17 450.55,-184.78 440.06,-183.3 441.42,-190.17"/>
</a>
</g>
</g>
</g>
</svg>
