<?xml version="1.0" encoding="UTF-8" standalone="no"?>
<!DOCTYPE svg PUBLIC "-//W3C//DTD SVG 1.1//EN"
 "http://www.w3.org/Graphics/SVG/1.1/DTD/svg11.dtd">
<!-- Generated by graphviz version 14.0.2 (20251019.1705)
 -->
<!-- Title: EtatCellule Pages: 1 -->
<svg width="291pt" height="308pt"
 viewBox="0.00 0.00 291.00 308.00" xmlns="http://www.w3.org/2000/svg" xmlns:xlink="http://www.w3.org/1999/xlink">
<g id="graph0" class="graph" transform="scale(1 1) rotate(0) translate(4 304)">
<title>EtatCellule</title>
<!-- Node1 -->
<g id="Node000001" class="node">
<title>Node1</title>
<g id="a_Node000001"><a xlink:title="Classe abstraite représentant l&#39;état d&#39;une cellule.">
<polygon fill="#999999" stroke="none" points="180.25,-300 102.25,-300 102.25,-168 180.25,-168 180.25,-300"/>
<text xml:space="preserve" text-anchor="start" x="117.25" y="-286.5" font-family="Helvetica,sans-Serif" font-size="10.00">EtatCellule</text>
<text xml:space="preserve" text-anchor="start" x="139.75" y="-270.5" font-family="Helvetica,sans-Serif" font-size="10.00"> </text>
<text xml:space="preserve" text-anchor="start" x="106.25" y="-254.5" font-family="Helvetica,sans-Serif" font-size="10.00">+</text>
<text xml:space="preserve" text-anchor="start" x="116.25" y="-254.5" font-family="Helvetica,sans-Serif" font-size="10.00">~EtatCellule()</text>
<text xml:space="preserve" text-anchor="start" x="106.25" y="-238.5" font-family="Helvetica,sans-Serif" font-size="10.00">+</text>
<text xml:space="preserve" text-anchor="start" x="116.25" y="-238.5" font-family="Helvetica,sans-Serif" font-size="10.00">estVivante()</text>
<text xml:space="preserve" text-anchor="start" x="106.25" y="-222.5" font-family="Helvetica,sans-Serif" font-size="10.00">+</text>
<text xml:space="preserve" text-anchor="start" x="116.25" y="-222.5" font-family="Helvetica,sans-Serif" font-size="10.00">estObstacle()</text>
<text xml:space="preserve" text-anchor="start" x="106.25" y="-206.5" font-family="Helvetica,sans-Serif" font-size="10.00">+</text>
<text xml:space="preserve" text-anchor="start" x="116.25" y="-206.5" font-family="Helvetica,sans-Serif" font-size="10.00">cloner()</text>
<text xml:space="preserve" text-anchor="start" x="106.25" y="-190.5" font-family="Helvetica,sans-Serif" font-size="10.00">+</text>
<text xml:space="preserve" text-anchor="start" x="116.25" y="-190.5" font-family="Helvetica,sans-Serif" font-size="10.00">versChaine()</text>
<text xml:space="preserve" text-anchor="start" x="106.25" y="-174.5" font-family="Helvetica,sans-Serif" font-size="10.00">+</text>
<text xml:space="preserve" text-anchor="start" x="116.25" y="-174.5" font-family="Helvetica,sans-Serif" font-size="10.00">versEntier()</text>
<polygon fill="#666666" stroke="#666666" points="102.25,-282 102.25,-282 180.25,-282 180.25,-282 102.25,-282"/>
<polygon fill="#666666" stroke="#666666" points="102.25,-266 102.25,-266 180.25,-266 180.25,-266 102.25,-266"/>
<polygon fill="none" stroke="#666666" points="102.25,-168 102.25,-300 180.25,-300 180.25,-168 102.25,-168"/>
</a>
</g>
</g>
<!-- Node2 -->
<g id="Node000002" class="node">
<title>Node2</title>
<g id="a_Node000002"><a xlink:href="classCelluleMorte.html" target="_top" xlink:title="Classe représentant une cellule morte.">
<polygon fill="white" stroke="none" points="76.5,-124 0,-124 0,-8 76.5,-8 76.5,-124"/>
<text xml:space="preserve" text-anchor="start" x="10.88" y="-110.5" font-family="Helvetica,sans-Serif" font-size="10.00">CelluleMorte</text>
<text xml:space="preserve" text-anchor="start" x="36.75" y="-94.5" font-family="Helvetica,sans-Serif" font-size="10.00"> </text>
<text xml:space="preserve" text-anchor="start" x="4" y="-78.5" font-family="Helvetica,sans-Serif" font-size="10.00">+</text>
<text xml:space="preserve" text-anchor="start" x="14" y="-78.5" font-family="Helvetica,sans-Serif" font-size="10.00">estVivante()</text>
<text xml:space="preserve" text-anchor="start" x="4" y="-62.5" font-family="Helvetica,sans-Serif" font-size="10.00">+</text>
<text xml:space="preserve" text-anchor="start" x="14" y="-62.5" font-family="Helvetica,sans-Serif" font-size="10.00">estObstacle()</text>
<text xml:space="preserve" text-anchor="start" x="4" y="-46.5" font-family="Helvetica,sans-Serif" font-size="10.00">+</text>
<text xml:space="preserve" text-anchor="start" x="14" y="-46.5" font-family="Helvetica,sans-Serif" font-size="10.00">cloner()</text>
<text xml:space="preserve" text-anchor="start" x="4" y="-30.5" font-family="Helvetica,sans-Serif" font-size="10.00">+</text>
<text xml:space="preserve" text-anchor="start" x="14" y="-30.5" font-family="Helvetica,sans-Serif" font-size="10.00">versChaine()</text>
<text xml:space="preserve" text-anchor="start" x="4" y="-14.5" font-family="Helvetica,sans-Serif" font-size="10.00">+</text>
<text xml:space="preserve" text-anchor="start" x="14" y="-14.5" font-family="Helvetica,sans-Serif" font-size="10.00">versEntier()</text>
<polygon fill="#666666" stroke="#666666" points="0,-106 0,-106 76.5,-106 76.5,-106 0,-106"/>
<polygon fill="#666666" stroke="#666666" points="0,-90 0,-90 76.5,-90 76.5,-90 0,-90"/>
<polygon fill="none" stroke="#666666" points="0,-8 0,-124 76.5,-124 76.5,-8 0,-8"/>
</a>
</g>
</g>
<!-- Node1&#45;&gt;Node2 -->
<g id="edge1_Node000001_Node000002" class="edge">
<title>Node1&#45;&gt;Node2</title>
<g id="a_edge1_Node000001_Node000002"><a xlink:title=" ">
<path fill="none" stroke="#63b8ff" d="M96.26,-160.49C88.64,-148.22 80.84,-135.64 73.52,-123.84"/>
<polygon fill="none" stroke="#63b8ff" points="93.27,-162.3 101.51,-168.96 99.21,-158.61 93.27,-162.3"/>
</a>
</g>
</g>
<!-- Node3 -->
<g id="Node000003" class="node">
<title>Node3</title>
<g id="a_Node000003"><a xlink:href="classCelluleObstacle.html" target="_top" xlink:title="Classe représentant une cellule obstacle (extension bonus) Les cellules obstacles ne changent jamais ...">
<polygon fill="white" stroke="none" points="187.75,-132 94.75,-132 94.75,0 187.75,0 187.75,-132"/>
<text xml:space="preserve" text-anchor="start" x="106.75" y="-118.5" font-family="Helvetica,sans-Serif" font-size="10.00">CelluleObstacle</text>
<text xml:space="preserve" text-anchor="start" x="100.25" y="-102.5" font-family="Helvetica,sans-Serif" font-size="10.00">&#45;</text>
<text xml:space="preserve" text-anchor="start" x="108.75" y="-102.5" font-family="Helvetica,sans-Serif" font-size="10.00">vivante</text>
<text xml:space="preserve" text-anchor="start" x="98.75" y="-86.5" font-family="Helvetica,sans-Serif" font-size="10.00">+</text>
<text xml:space="preserve" text-anchor="start" x="108.75" y="-86.5" font-family="Helvetica,sans-Serif" font-size="10.00">CelluleObstacle()</text>
<text xml:space="preserve" text-anchor="start" x="98.75" y="-70.5" font-family="Helvetica,sans-Serif" font-size="10.00">+</text>
<text xml:space="preserve" text-anchor="start" x="108.75" y="-70.5" font-family="Helvetica,sans-Serif" font-size="10.00">estVivante()</text>
<text xml:space="preserve" text-anchor="start" x="98.75" y="-54.5" font-family="Helvetica,sans-Serif" font-size="10.00">+</text>
<text xml:space="preserve" text-anchor="start" x="108.75" y="-54.5" font-family="Helvetica,sans-Serif" font-size="10.00">estObstacle()</text>
<text xml:space="preserve" text-anchor="start" x="98.75" y="-38.5" font-family="Helvetica,sans-Serif" font-size="10.00">+</text>
<text xml:space="preserve" text-anchor="start" x="108.75" y="-38.5" font-family="Helvetica,sans-Serif" font-size="10.00">cloner()</text>
<text xml:space="preserve" text-anchor="start" x="98.75" y="-22.5" font-family="Helvetica,sans-Serif" font-size="10.00">+</text>
<text xml:space="preserve" text-anchor="start" x="108.75" y="-22.5" font-family="Helvetica,sans-Serif" font-size="10.00">versChaine()</text>
<text xml:space="preserve" text-anchor="start" x="98.75" y="-6.5" font-family="Helvetica,sans-Serif" font-size="10.00">+</text>
<text xml:space="preserve" text-anchor="start" x="108.75" y="-6.5" font-family="Helvetica,sans-Serif" font-size="10.00">versEntier()</text>
<polygon fill="#666666" stroke="#666666" points="94.75,-114 94.75,-114 187.75,-114 187.75,-114 94.75,-114"/>
<polygon fill="#666666" stroke="#666666" points="94.75,-98 94.75,-98 106.75,-98 106.75,-98 94.75,-98"/>
<polygon fill="#666666" stroke="#666666" points="106.75,-98 106.75,-98 187.75,-98 187.75,-98 106.75,-98"/>
<polygon fill="none" stroke="#666666" points="94.75,0 94.75,-132 187.75,-132 187.75,0 94.75,0"/>
</a>
</g>
</g>
<!-- Node1&#45;&gt;Node3 -->
<g id="edge2_Node000001_Node000003" class="edge">
<title>Node1&#45;&gt;Node3</title>
<g id="a_edge2_Node000001_Node000003"><a xlink:title=" ">
<path fill="none" stroke="#63b8ff" d="M141.25,-156.95C141.25,-148.53 141.25,-140.02 141.25,-131.75"/>
<polygon fill="none" stroke="#63b8ff" points="137.75,-156.83 141.25,-166.83 144.75,-156.83 137.75,-156.83"/>
</a>
</g>
</g>
<!-- Node4 -->
<g id="Node000004" class="node">
<title>Node4</title>
<g id="a_Node000004"><a xlink:href="classCelluleVivante.html" target="_top" xlink:title="Classe représentant une cellule vivante.">
<polygon fill="white" stroke="none" points="282.5,-124 206,-124 206,-8 282.5,-8 282.5,-124"/>
<text xml:space="preserve" text-anchor="start" x="212.75" y="-110.5" font-family="Helvetica,sans-Serif" font-size="10.00">CelluleVivante</text>
<text xml:space="preserve" text-anchor="start" x="242.75" y="-94.5" font-family="Helvetica,sans-Serif" font-size="10.00"> </text>
<text xml:space="preserve" text-anchor="start" x="210" y="-78.5" font-family="Helvetica,sans-Serif" font-size="10.00">+</text>
<text xml:space="preserve" text-anchor="start" x="220" y="-78.5" font-family="Helvetica,sans-Serif" font-size="10.00">estVivante()</text>
<text xml:space="preserve" text-anchor="start" x="210" y="-62.5" font-family="Helvetica,sans-Serif" font-size="10.00">+</text>
<text xml:space="preserve" text-anchor="start" x="220" y="-62.5" font-family="Helvetica,sans-Serif" font-size="10.00">estObstacle()</text>
<text xml:space="preserve" text-anchor="start" x="210" y="-46.5" font-family="Helvetica,sans-Serif" font-size="10.00">+</text>
<text xml:space="preserve" text-anchor="start" x="220" y="-46.5" font-family="Helvetica,sans-Serif" font-size="10.00">cloner()</text>
<text xml:space="preserve" text-anchor="start" x="210" y="-30.5" font-family="Helvetica,sans-Serif" font-size="10.00">+</text>
<text xml:space="preserve" text-anchor="start" x="220" y="-30.5" font-family="Helvetica,sans-Serif" font-size="10.00">versChaine()</text>
<text xml:space="preserve" text-anchor="start" x="210" y="-14.5" font-family="Helvetica,sans-Serif" font-size="10.00">+</text>
<text xml:space="preserve" text-anchor="start" x="220" y="-14.5" font-family="Helvetica,sans-Serif" font-size="10.00">versEntier()</text>
<polygon fill="#666666" stroke="#666666" points="206,-106 206,-106 282.5,-106 282.5,-106 206,-106"/>
<polygon fill="#666666" stroke="#666666" points="206,-90 206,-90 282.5,-90 282.5,-90 206,-90"/>
<polygon fill="none" stroke="#666666" points="206,-8 206,-124 282.5,-124 282.5,-8 206,-8"/>
</a>
</g>
</g>
<!-- Node1&#45;&gt;Node4 -->
<g id="edge3_Node000001_Node000004" class="edge">
<title>Node1&#45;&gt;Node4</title>
<g id="a_edge3_Node000001_Node000004"><a xlink:title=" ">
<path fill="none" stroke="#63b8ff" d="M186.24,-160.49C193.86,-148.22 201.66,-135.64 208.98,-123.84"/>
<polygon fill="none" stroke="#63b8ff" points="183.29,-158.61 180.99,-168.96 189.23,-162.3 183.29,-158.61"/>
</a>
</g>
</g>
</g>
</svg>
