<?xml version="1.0" encoding="UTF-8" standalone="no"?>
<!DOCTYPE svg PUBLIC "-//W3C//DTD SVG 1.1//EN"
 "http://www.w3.org/Graphics/SVG/1.1/DTD/svg11.dtd">
<!-- Generated by graphviz version 14.0.2 (20251019.1705)
 -->
<!-- Title: TestsUnitaires::testerObstacles Pages: 1 -->
<svg width="638pt" height="192pt"
 viewBox="0.00 0.00 638.00 192.00" xmlns="http://www.w3.org/2000/svg" xmlns:xlink="http://www.w3.org/1999/xlink">
<g id="graph0" class="graph" transform="scale(1 1) rotate(0) translate(4 188)">
<title>TestsUnitaires::testerObstacles</title>
<!-- Node1 -->
<g id="Node000001" class="node">
<title>Node1</title>
<g id="a_Node000001"><a xlink:title="Teste les cellules obstacles.">
<polygon fill="#999999" stroke="#666666" points="154,-96 0,-96 0,-76 154,-76 154,-96"/>
<text xml:space="preserve" text-anchor="middle" x="77" y="-82.5" font-family="Helvetica,sans-Serif" font-size="10.00">TestsUnitaires::testerObstacles</text>
</a>
</g>
</g>
<!-- Node2 -->
<g id="Node000002" class="node">
<title>Node2</title>
<g id="a_Node000002"><a xlink:href="classTestsUnitaires.html#af1671fe34db212a79ee1f4b2869d576e" target="_top" xlink:title="Affiche le résultat d&#39;un test.">
<polygon fill="white" stroke="#666666" points="312.88,-184 196.38,-184 196.38,-152 312.88,-152 312.88,-184"/>
<text xml:space="preserve" text-anchor="start" x="204.38" y="-170.5" font-family="Helvetica,sans-Serif" font-size="10.00">TestsUnitaires::afficher</text>
<text xml:space="preserve" text-anchor="middle" x="254.62" y="-158.5" font-family="Helvetica,sans-Serif" font-size="10.00">Resultat</text>
</a>
</g>
</g>
<!-- Node1&#45;&gt;Node2 -->
<g id="edge1_Node000001_Node000002" class="edge">
<title>Node1&#45;&gt;Node2</title>
<g id="a_edge1_Node000001_Node000002"><a xlink:title=" ">
<path fill="none" stroke="#63b8ff" d="M97.15,-96.46C119.23,-108.35 156.77,-128.06 190,-143 193.15,-144.41 196.4,-145.83 199.69,-147.23"/>
<polygon fill="#63b8ff" stroke="#63b8ff" points="198.29,-150.44 208.87,-151.03 200.97,-143.97 198.29,-150.44"/>
</a>
</g>
</g>
<!-- Node3 -->
<g id="Node000003" class="node">
<title>Node3</title>
<g id="a_Node000003"><a xlink:href="classTestsUnitaires.html#a6430263d628fa3e1f55be64cf1aae756" target="_top" xlink:title="Crée une grille de test.">
<polygon fill="white" stroke="#666666" points="319.25,-134 190,-134 190,-114 319.25,-114 319.25,-134"/>
<text xml:space="preserve" text-anchor="middle" x="254.62" y="-120.5" font-family="Helvetica,sans-Serif" font-size="10.00">TestsUnitaires::creerGrille</text>
</a>
</g>
</g>
<!-- Node1&#45;&gt;Node3 -->
<g id="edge2_Node000001_Node000003" class="edge">
<title>Node1&#45;&gt;Node3</title>
<g id="a_edge2_Node000001_Node000003"><a xlink:title=" ">
<path fill="none" stroke="#63b8ff" d="M126.46,-96.48C147.38,-101.01 172.06,-106.35 194.09,-111.12"/>
<polygon fill="#63b8ff" stroke="#63b8ff" points="193.33,-114.54 203.85,-113.23 194.81,-107.69 193.33,-114.54"/>
</a>
</g>
</g>
<!-- Node4 -->
<g id="Node000004" class="node">
<title>Node4</title>
<g id="a_Node000004"><a xlink:href="classGrille.html#ab4c852bc2327224eac9da60841f30baa" target="_top" xlink:title="Définit l&#39;état d&#39;une cellule.">
<polygon fill="white" stroke="#666666" points="474,-115 355.25,-115 355.25,-95 474,-95 474,-115"/>
<text xml:space="preserve" text-anchor="middle" x="414.62" y="-101.5" font-family="Helvetica,sans-Serif" font-size="10.00">Grille::definirEtatCellule</text>
</a>
</g>
</g>
<!-- Node1&#45;&gt;Node4 -->
<g id="edge5_Node000001_Node000004" class="edge">
<title>Node1&#45;&gt;Node4</title>
<g id="a_edge5_Node000001_Node000004"><a xlink:title=" ">
<path fill="none" stroke="#63b8ff" d="M154.16,-90.31C211.04,-93.53 288.18,-97.9 343.54,-101.03"/>
<polygon fill="#63b8ff" stroke="#63b8ff" points="343.31,-104.53 353.49,-101.6 343.71,-97.54 343.31,-104.53"/>
</a>
</g>
</g>
<!-- Node6 -->
<g id="Node000006" class="node">
<title>Node6</title>
<g id="a_Node000006"><a xlink:href="classCellule.html#a4e34ac281afdba1d793fbd0239022a5e" target="_top" xlink:title="Vérifie si la cellule est un obstacle.">
<polygon fill="white" stroke="#666666" points="306.88,-58 202.38,-58 202.38,-38 306.88,-38 306.88,-58"/>
<text xml:space="preserve" text-anchor="middle" x="254.62" y="-44.5" font-family="Helvetica,sans-Serif" font-size="10.00">Cellule::estObstacle</text>
</a>
</g>
</g>
<!-- Node1&#45;&gt;Node6 -->
<g id="edge6_Node000001_Node000006" class="edge">
<title>Node1&#45;&gt;Node6</title>
<g id="a_edge6_Node000001_Node000006"><a xlink:title=" ">
<path fill="none" stroke="#63b8ff" d="M126.46,-75.52C147.38,-70.99 172.06,-65.65 194.09,-60.88"/>
<polygon fill="#63b8ff" stroke="#63b8ff" points="194.81,-64.31 203.85,-58.77 193.33,-57.46 194.81,-64.31"/>
</a>
</g>
</g>
<!-- Node7 -->
<g id="Node000007" class="node">
<title>Node7</title>
<g id="a_Node000007"><a xlink:href="classCellule.html#a70d2731234961e330fe0a31486d1dec7" target="_top" xlink:title="Vérifie si la cellule est vivante.">
<polygon fill="white" stroke="#666666" points="303.88,-20 205.38,-20 205.38,0 303.88,0 303.88,-20"/>
<text xml:space="preserve" text-anchor="middle" x="254.62" y="-6.5" font-family="Helvetica,sans-Serif" font-size="10.00">Cellule::estVivante</text>
</a>
</g>
</g>
<!-- Node1&#45;&gt;Node7 -->
<g id="edge7_Node000001_Node000007" class="edge">
<title>Node1&#45;&gt;Node7</title>
<g id="a_edge7_Node000001_Node000007"><a xlink:title=" ">
<path fill="none" stroke="#63b8ff" d="M95.77,-75.69C117.47,-63.39 155.56,-42.77 190,-29 194.4,-27.24 199.02,-25.56 203.68,-23.97"/>
<polygon fill="#63b8ff" stroke="#63b8ff" points="204.67,-27.33 213.11,-20.92 202.52,-20.67 204.67,-27.33"/>
</a>
</g>
</g>
<!-- Node3&#45;&gt;Node4 -->
<g id="edge3_Node000003_Node000004" class="edge">
<title>Node3&#45;&gt;Node4</title>
<g id="a_edge3_Node000003_Node000004"><a xlink:title=" ">
<path fill="none" stroke="#63b8ff" d="M319.43,-116.33C327.41,-115.37 335.6,-114.38 343.66,-113.41"/>
<polygon fill="#63b8ff" stroke="#63b8ff" points="343.93,-116.91 353.44,-112.24 343.09,-109.96 343.93,-116.91"/>
</a>
</g>
</g>
<!-- Node5 -->
<g id="Node000005" class="node">
<title>Node5</title>
<g id="a_Node000005"><a xlink:href="classGrille.html#aa4c9ce36bb4f2c59a83aeb39d73fc285" target="_top" xlink:title="Vérifie si une position est valide dans la grille.">
<polygon fill="white" stroke="#666666" points="629.5,-115 510,-115 510,-95 629.5,-95 629.5,-115"/>
<text xml:space="preserve" text-anchor="middle" x="569.75" y="-101.5" font-family="Helvetica,sans-Serif" font-size="10.00">Grille::estPositionValide</text>
</a>
</g>
</g>
<!-- Node4&#45;&gt;Node5 -->
<g id="edge4_Node000004_Node000005" class="edge">
<title>Node4&#45;&gt;Node5</title>
<g id="a_edge4_Node000004_Node000005"><a xlink:title=" ">
<path fill="none" stroke="#63b8ff" d="M474.39,-105C482.24,-105 490.36,-105 498.39,-105"/>
<polygon fill="#63b8ff" stroke="#63b8ff" points="498.12,-108.5 508.12,-105 498.12,-101.5 498.12,-108.5"/>
</a>
</g>
</g>
</g>
</svg>
