<?xml version="1.0" encoding="UTF-8" standalone="no"?>
<!DOCTYPE svg PUBLIC "-//W3C//DTD SVG 1.1//EN"
 "http://www.w3.org/Graphics/SVG/1.1/DTD/svg11.dtd">
<!-- Generated by graphviz version 14.0.2 (20251019.1705)
 -->
<!-- Title: TestsUnitaires::testerClignotant Pages: 1 -->
<svg width="819pt" height="132pt"
 viewBox="0.00 0.00 819.00 132.00" xmlns="http://www.w3.org/2000/svg" xmlns:xlink="http://www.w3.org/1999/xlink">
<g id="graph0" class="graph" transform="scale(1 1) rotate(0) translate(4 128)">
<title>TestsUnitaires::testerClignotant</title>
<!-- Node1 -->
<g id="Node000001" class="node">
<title>Node1</title>
<g id="a_Node000001"><a xlink:title="Teste le motif oscillateur (clignotant).">
<polygon fill="#999999" stroke="#666666" points="154,-102 0,-102 0,-82 154,-82 154,-102"/>
<text xml:space="preserve" text-anchor="middle" x="77" y="-88.5" font-family="Helvetica,sans-Serif" font-size="10.00">TestsUnitaires::testerClignotant</text>
</a>
</g>
</g>
<!-- Node2 -->
<g id="Node000002" class="node">
<title>Node2</title>
<g id="a_Node000002"><a xlink:href="classTestsUnitaires.html#a6430263d628fa3e1f55be64cf1aae756" target="_top" xlink:title="Crée une grille de test.">
<polygon fill="white" stroke="#666666" points="329.75,-124 200.5,-124 200.5,-104 329.75,-104 329.75,-124"/>
<text xml:space="preserve" text-anchor="middle" x="265.12" y="-110.5" font-family="Helvetica,sans-Serif" font-size="10.00">TestsUnitaires::creerGrille</text>
</a>
</g>
</g>
<!-- Node1&#45;&gt;Node2 -->
<g id="edge1_Node000001_Node000002" class="edge">
<title>Node1&#45;&gt;Node2</title>
<g id="a_edge1_Node000001_Node000002"><a xlink:title=" ">
<path fill="none" stroke="#63b8ff" d="M154.24,-101.01C165.69,-102.36 177.48,-103.76 188.9,-105.11"/>
<polygon fill="#63b8ff" stroke="#63b8ff" points="188.33,-108.57 198.67,-106.26 189.15,-101.61 188.33,-108.57"/>
</a>
</g>
</g>
<!-- Node5 -->
<g id="Node000005" class="node">
<title>Node5</title>
<g id="a_Node000005"><a xlink:href="classTestsUnitaires.html#a1fea61fb0483bb1f7e0284d828ad347f" target="_top" xlink:title="Teste l&#39;évolution d&#39;une grille après n itérations.">
<polygon fill="white" stroke="#666666" points="340.25,-83 190,-83 190,-63 340.25,-63 340.25,-83"/>
<text xml:space="preserve" text-anchor="middle" x="265.12" y="-69.5" font-family="Helvetica,sans-Serif" font-size="10.00">TestsUnitaires::testerEvolution</text>
</a>
</g>
</g>
<!-- Node1&#45;&gt;Node5 -->
<g id="edge4_Node000001_Node000005" class="edge">
<title>Node1&#45;&gt;Node5</title>
<g id="a_edge4_Node000001_Node000005"><a xlink:title=" ">
<path fill="none" stroke="#63b8ff" d="M154.24,-84.22C162.16,-83.41 170.24,-82.58 178.25,-81.77"/>
<polygon fill="#63b8ff" stroke="#63b8ff" points="178.41,-85.27 188,-80.77 177.7,-78.3 178.41,-85.27"/>
</a>
</g>
</g>
<!-- Node3 -->
<g id="Node000003" class="node">
<title>Node3</title>
<g id="a_Node000003"><a xlink:href="classGrille.html#ab4c852bc2327224eac9da60841f30baa" target="_top" xlink:title="Définit l&#39;état d&#39;une cellule.">
<polygon fill="white" stroke="#666666" points="651.25,-111 532.5,-111 532.5,-91 651.25,-91 651.25,-111"/>
<text xml:space="preserve" text-anchor="middle" x="591.88" y="-97.5" font-family="Helvetica,sans-Serif" font-size="10.00">Grille::definirEtatCellule</text>
</a>
</g>
</g>
<!-- Node2&#45;&gt;Node3 -->
<g id="edge2_Node000002_Node000003" class="edge">
<title>Node2&#45;&gt;Node3</title>
<g id="a_edge2_Node000002_Node000003"><a xlink:title=" ">
<path fill="none" stroke="#63b8ff" d="M329.9,-111.45C384.85,-109.25 464.06,-106.08 520.78,-103.81"/>
<polygon fill="#63b8ff" stroke="#63b8ff" points="520.8,-107.31 530.65,-103.41 520.52,-100.31 520.8,-107.31"/>
</a>
</g>
</g>
<!-- Node4 -->
<g id="Node000004" class="node">
<title>Node4</title>
<g id="a_Node000004"><a xlink:href="classGrille.html#aa4c9ce36bb4f2c59a83aeb39d73fc285" target="_top" xlink:title="Vérifie si une position est valide dans la grille.">
<polygon fill="white" stroke="#666666" points="810.5,-111 691,-111 691,-91 810.5,-91 810.5,-111"/>
<text xml:space="preserve" text-anchor="middle" x="750.75" y="-97.5" font-family="Helvetica,sans-Serif" font-size="10.00">Grille::estPositionValide</text>
</a>
</g>
</g>
<!-- Node3&#45;&gt;Node4 -->
<g id="edge3_Node000003_Node000004" class="edge">
<title>Node3&#45;&gt;Node4</title>
<g id="a_edge3_Node000003_Node000004"><a xlink:title=" ">
<path fill="none" stroke="#63b8ff" d="M651.74,-101C660.66,-101 669.95,-101 679.09,-101"/>
<polygon fill="#63b8ff" stroke="#63b8ff" points="679.05,-104.5 689.05,-101 679.05,-97.5 679.05,-104.5"/>
</a>
</g>
</g>
<!-- Node6 -->
<g id="Node000006" class="node">
<title>Node6</title>
<g id="a_Node000006"><a xlink:href="classTestsUnitaires.html#af1671fe34db212a79ee1f4b2869d576e" target="_top" xlink:title="Affiche le résultat d&#39;un test.">
<polygon fill="white" stroke="#666666" points="492.75,-89 376.25,-89 376.25,-57 492.75,-57 492.75,-89"/>
<text xml:space="preserve" text-anchor="start" x="384.25" y="-75.5" font-family="Helvetica,sans-Serif" font-size="10.00">TestsUnitaires::afficher</text>
<text xml:space="preserve" text-anchor="middle" x="434.5" y="-63.5" font-family="Helvetica,sans-Serif" font-size="10.00">Resultat</text>
</a>
</g>
</g>
<!-- Node5&#45;&gt;Node6 -->
<g id="edge5_Node000005_Node000006" class="edge">
<title>Node5&#45;&gt;Node6</title>
<g id="a_edge5_Node000005_Node000006"><a xlink:title=" ">
<path fill="none" stroke="#63b8ff" d="M340.51,-73C348.49,-73 356.58,-73 364.49,-73"/>
<polygon fill="#63b8ff" stroke="#63b8ff" points="364.41,-76.5 374.41,-73 364.41,-69.5 364.41,-76.5"/>
</a>
</g>
</g>
<!-- Node7 -->
<g id="Node000007" class="node">
<title>Node7</title>
<g id="a_Node000007"><a xlink:href="classGrille.html#a980652764fefe3f45fcc0516a6e59abb" target="_top" xlink:title="Met à jour la grille pour passer à l&#39;itération suivante.">
<polygon fill="white" stroke="#666666" points="483.38,-39 385.62,-39 385.62,-19 483.38,-19 483.38,-39"/>
<text xml:space="preserve" text-anchor="middle" x="434.5" y="-25.5" font-family="Helvetica,sans-Serif" font-size="10.00">Grille::mettreAJour</text>
</a>
</g>
</g>
<!-- Node5&#45;&gt;Node7 -->
<g id="edge6_Node000005_Node000007" class="edge">
<title>Node5&#45;&gt;Node7</title>
<g id="a_edge6_Node000005_Node000007"><a xlink:title=" ">
<path fill="none" stroke="#63b8ff" d="M305.79,-62.57C328.84,-56.51 358.13,-48.81 382.84,-42.32"/>
<polygon fill="#63b8ff" stroke="#63b8ff" points="383.58,-45.74 392.37,-39.81 381.8,-38.97 383.58,-45.74"/>
</a>
</g>
</g>
<!-- Node7&#45;&gt;Node3 -->
<g id="edge7_Node000007_Node000003" class="edge">
<title>Node7&#45;&gt;Node3</title>
<g id="a_edge7_Node000007_Node000003"><a xlink:title=" ">
<path fill="none" stroke="#63b8ff" d="M470.38,-39.49C477.85,-42.04 485.64,-44.93 492.75,-48 517.64,-58.76 544.67,-73.61 564.04,-84.85"/>
<polygon fill="#63b8ff" stroke="#63b8ff" points="562.26,-87.86 572.65,-89.91 565.81,-81.83 562.26,-87.86"/>
</a>
</g>
</g>
<!-- Node8 -->
<g id="Node000008" class="node">
<title>Node8</title>
<g id="a_Node000008"><a xlink:href="classGrille.html#aa8f57932935f9b316ccdbd0705021d6b" target="_top" xlink:title="Constructeur de la grille.">
<polygon fill="white" stroke="#666666" points="784.25,-39 717.25,-39 717.25,-19 784.25,-19 784.25,-39"/>
<text xml:space="preserve" text-anchor="middle" x="750.75" y="-25.5" font-family="Helvetica,sans-Serif" font-size="10.00">Grille::Grille</text>
</a>
</g>
</g>
<!-- Node7&#45;&gt;Node8 -->
<g id="edge8_Node000007_Node000008" class="edge">
<title>Node7&#45;&gt;Node8</title>
<g id="a_edge8_Node000007_Node000008"><a xlink:title=" ">
<path fill="none" stroke="#63b8ff" d="M483.57,-29C544.05,-29 647.07,-29 705.63,-29"/>
<polygon fill="#63b8ff" stroke="#63b8ff" points="705.56,-32.5 715.56,-29 705.56,-25.5 705.56,-32.5"/>
</a>
</g>
</g>
<!-- Node9 -->
<g id="Node000009" class="node">
<title>Node9</title>
<g id="a_Node000009"><a xlink:href="classGrille.html#a7073ca25319522d4602550da3dfb1d22" target="_top" xlink:title="Met à jour un ensemble de lignes (parallélisation optimisée).">
<polygon fill="white" stroke="#666666" points="655,-20 528.75,-20 528.75,0 655,0 655,-20"/>
<text xml:space="preserve" text-anchor="middle" x="591.88" y="-6.5" font-family="Helvetica,sans-Serif" font-size="10.00">Grille::mettreAJourLignes</text>
</a>
</g>
</g>
<!-- Node7&#45;&gt;Node9 -->
<g id="edge9_Node000007_Node000009" class="edge">
<title>Node7&#45;&gt;Node9</title>
<g id="a_edge9_Node000007_Node000009"><a xlink:title=" ">
<path fill="none" stroke="#63b8ff" d="M483.81,-23.09C494.37,-21.8 505.77,-20.41 517.07,-19.03"/>
<polygon fill="#63b8ff" stroke="#63b8ff" points="517.29,-22.52 526.79,-17.84 516.44,-15.58 517.29,-22.52"/>
</a>
</g>
</g>
<!-- Node9&#45;&gt;Node8 -->
<g id="edge10_Node000009_Node000008" class="edge">
<title>Node9&#45;&gt;Node8</title>
<g id="a_edge10_Node000009_Node000008"><a xlink:title=" ">
<path fill="none" stroke="#63b8ff" d="M655.33,-17.56C672.08,-19.59 689.84,-21.74 705.39,-23.63"/>
<polygon fill="#63b8ff" stroke="#63b8ff" points="704.94,-27.1 715.29,-24.83 705.78,-20.15 704.94,-27.1"/>
</a>
</g>
</g>
</g>
</svg>
