<?xml version="1.0" encoding="UTF-8" standalone="no"?>
<!DOCTYPE svg PUBLIC "-//W3C//DTD SVG 1.1//EN"
 "http://www.w3.org/Graphics/SVG/1.1/DTD/svg11.dtd">
<!-- Generated by graphviz version 14.0.2 (20251019.1705)
 -->
<!-- Title: Grille::estPositionValide Pages: 1 -->
<svg width="1229pt" height="749pt"
 viewBox="0.00 0.00 1229.00 749.00" xmlns="http://www.w3.org/2000/svg" xmlns:xlink="http://www.w3.org/1999/xlink">
<g id="graph0" class="graph" transform="scale(1 1) rotate(0) translate(4 744.85)">
<title>Grille::estPositionValide</title>
<!-- Node1 -->
<g id="Node000001" class="node">
<title>Node1</title>
<g id="a_Node000001"><a xlink:title="Vérifie si une position est valide dans la grille.">
<polygon fill="#999999" stroke="#666666" points="1220.5,-494.85 1101,-494.85 1101,-474.85 1220.5,-474.85 1220.5,-494.85"/>
<text xml:space="preserve" text-anchor="middle" x="1160.75" y="-481.35" font-family="Helvetica,sans-Serif" font-size="10.00">Grille::estPositionValide</text>
</a>
</g>
</g>
<!-- Node2 -->
<g id="Node000002" class="node">
<title>Node2</title>
<g id="a_Node000002"><a xlink:href="classRegleStandard.html#ab892c4bd38ca021326c6188d0db0e421" target="_top" xlink:title="Compte le nombre de voisins vivants.">
<polygon fill="white" stroke="#666666" points="898.25,-500.85 745,-500.85 745,-468.85 898.25,-468.85 898.25,-500.85"/>
<text xml:space="preserve" text-anchor="start" x="753" y="-487.35" font-family="Helvetica,sans-Serif" font-size="10.00">RegleStandard::compterVoisins</text>
<text xml:space="preserve" text-anchor="middle" x="821.62" y="-475.35" font-family="Helvetica,sans-Serif" font-size="10.00">Vivants</text>
</a>
</g>
</g>
<!-- Node1&#45;&gt;Node2 -->
<g id="edge1_Node000001_Node000002" class="edge">
<title>Node1&#45;&gt;Node2</title>
<g id="a_edge1_Node000001_Node000002"><a xlink:title=" ">
<path fill="none" stroke="#63b8ff" d="M1089.44,-484.85C1033.63,-484.85 955.76,-484.85 898.55,-484.85"/>
<polygon fill="#63b8ff" stroke="#63b8ff" points="1089.13,-488.35 1099.13,-484.85 1089.13,-481.35 1089.13,-488.35"/>
</a>
</g>
</g>
<!-- Node4 -->
<g id="Node000004" class="node">
<title>Node4</title>
<g id="a_Node000004"><a xlink:href="classGrille.html#ab4c852bc2327224eac9da60841f30baa" target="_top" xlink:title="Définit l&#39;état d&#39;une cellule.">
<polygon fill="white" stroke="#666666" points="1065,-576.85 946.25,-576.85 946.25,-556.85 1065,-556.85 1065,-576.85"/>
<text xml:space="preserve" text-anchor="middle" x="1005.62" y="-563.35" font-family="Helvetica,sans-Serif" font-size="10.00">Grille::definirEtatCellule</text>
</a>
</g>
</g>
<!-- Node1&#45;&gt;Node4 -->
<g id="edge3_Node000001_Node000004" class="edge">
<title>Node1&#45;&gt;Node4</title>
<g id="a_edge3_Node000001_Node000004"><a xlink:title=" ">
<path fill="none" stroke="#63b8ff" d="M1133.25,-501.12C1114.46,-512.44 1088.49,-527.64 1065,-539.85 1053.81,-545.68 1041.12,-551.62 1030.44,-556.44"/>
<polygon fill="#63b8ff" stroke="#63b8ff" points="1134.87,-504.24 1141.6,-496.06 1131.24,-498.25 1134.87,-504.24"/>
</a>
</g>
</g>
<!-- Node16 -->
<g id="Node000016" class="node">
<title>Node16</title>
<g id="a_Node000016"><a xlink:href="classGrille.html#adfa396acb4a6ed658ce916b5dceaa690" target="_top" xlink:title="Place un motif préprogrammé sur la grille (extension bonus).">
<polygon fill="white" stroke="#666666" points="867.88,-538.85 775.38,-538.85 775.38,-518.85 867.88,-518.85 867.88,-538.85"/>
<text xml:space="preserve" text-anchor="middle" x="821.62" y="-525.35" font-family="Helvetica,sans-Serif" font-size="10.00">Grille::placerMotif</text>
</a>
</g>
</g>
<!-- Node1&#45;&gt;Node16 -->
<g id="edge62_Node000001_Node000016" class="edge">
<title>Node1&#45;&gt;Node16</title>
<g id="a_edge62_Node000001_Node000016"><a xlink:title=" ">
<path fill="none" stroke="#63b8ff" d="M1089.47,-495.43C1081.23,-496.61 1072.93,-497.78 1065,-498.85 996.52,-508.15 916.98,-517.77 868.23,-523.53"/>
<polygon fill="#63b8ff" stroke="#63b8ff" points="1089.75,-498.92 1099.15,-494.02 1088.75,-492 1089.75,-498.92"/>
</a>
</g>
</g>
<!-- Node17 -->
<g id="Node000017" class="node">
<title>Node17</title>
<g id="a_Node000017"><a xlink:href="classGrille.html#aab75610fe73ae48bd035a048c55832f0" target="_top" xlink:title="Obtient une cellule à une position donnée.">
<polygon fill="white" stroke="#666666" points="1057.5,-343.85 953.75,-343.85 953.75,-323.85 1057.5,-323.85 1057.5,-343.85"/>
<text xml:space="preserve" text-anchor="middle" x="1005.62" y="-330.35" font-family="Helvetica,sans-Serif" font-size="10.00">Grille::obtenirCellule</text>
</a>
</g>
</g>
<!-- Node1&#45;&gt;Node17 -->
<g id="edge26_Node000001_Node000017" class="edge">
<title>Node1&#45;&gt;Node17</title>
<g id="a_edge26_Node000001_Node000017"><a xlink:title=" ">
<path fill="none" stroke="#63b8ff" d="M1141.42,-466.78C1109.11,-434.92 1042.98,-369.7 1017.22,-344.31"/>
<polygon fill="#63b8ff" stroke="#63b8ff" points="1138.57,-468.88 1148.15,-473.41 1143.48,-463.9 1138.57,-468.88"/>
</a>
</g>
</g>
<!-- Node40 -->
<g id="Node000040" class="node">
<title>Node40</title>
<g id="a_Node000040"><a xlink:href="classGrille.html#a8c68213debcfb92b66641e18ae3c0e72" target="_top" xlink:title=" ">
<polygon fill="white" stroke="#666666" points="1057.5,-305.85 953.75,-305.85 953.75,-285.85 1057.5,-285.85 1057.5,-305.85"/>
<text xml:space="preserve" text-anchor="middle" x="1005.62" y="-292.35" font-family="Helvetica,sans-Serif" font-size="10.00">Grille::obtenirCellule</text>
</a>
</g>
</g>
<!-- Node1&#45;&gt;Node40 -->
<g id="edge61_Node000001_Node000040" class="edge">
<title>Node1&#45;&gt;Node40</title>
<g id="a_edge61_Node000001_Node000040"><a xlink:title=" ">
<path fill="none" stroke="#63b8ff" d="M1153.75,-464.17C1142.36,-428.5 1114.23,-355.36 1065,-314.85 1060.8,-311.4 1055.96,-308.57 1050.9,-306.25"/>
<polygon fill="#63b8ff" stroke="#63b8ff" points="1150.27,-464.74 1156.54,-473.28 1156.96,-462.69 1150.27,-464.74"/>
</a>
</g>
</g>
<!-- Node3 -->
<g id="Node000003" class="node">
<title>Node3</title>
<g id="a_Node000003"><a xlink:href="classRegleStandard.html#a0c051f441f8b5aeac028872a7347fc35" target="_top" xlink:title="Calcule le nouvel état d&#39;une cellule selon les règles du jeu.">
<polygon fill="white" stroke="#666666" points="697,-472.85 528,-472.85 528,-452.85 697,-452.85 697,-472.85"/>
<text xml:space="preserve" text-anchor="middle" x="612.5" y="-459.35" font-family="Helvetica,sans-Serif" font-size="10.00">RegleStandard::calculerNouvelEtat</text>
</a>
</g>
</g>
<!-- Node2&#45;&gt;Node3 -->
<g id="edge2_Node000002_Node000003" class="edge">
<title>Node2&#45;&gt;Node3</title>
<g id="a_edge2_Node000002_Node000003"><a xlink:title=" ">
<path fill="none" stroke="#63b8ff" d="M733.39,-475.59C721.49,-474.33 709.31,-473.03 697.48,-471.77"/>
<polygon fill="#63b8ff" stroke="#63b8ff" points="732.86,-479.05 743.17,-476.63 733.6,-472.09 732.86,-479.05"/>
</a>
</g>
</g>
<!-- Node5 -->
<g id="Node000005" class="node">
<title>Node5</title>
<g id="a_Node000005"><a xlink:href="classTestsUnitaires.html#a6430263d628fa3e1f55be64cf1aae756" target="_top" xlink:title="Crée une grille de test.">
<polygon fill="white" stroke="#666666" points="677.12,-614.85 547.88,-614.85 547.88,-594.85 677.12,-594.85 677.12,-614.85"/>
<text xml:space="preserve" text-anchor="middle" x="612.5" y="-601.35" font-family="Helvetica,sans-Serif" font-size="10.00">TestsUnitaires::creerGrille</text>
</a>
</g>
</g>
<!-- Node4&#45;&gt;Node5 -->
<g id="edge4_Node000004_Node000005" class="edge">
<title>Node4&#45;&gt;Node5</title>
<g id="a_edge4_Node000004_Node000005"><a xlink:title=" ">
<path fill="none" stroke="#63b8ff" d="M948.07,-579.53C935.66,-581.95 922.56,-584.23 910.25,-585.85 830.41,-596.4 737.68,-601.15 677.42,-603.25"/>
<polygon fill="#63b8ff" stroke="#63b8ff" points="948.63,-582.99 957.75,-577.58 947.25,-576.12 948.63,-582.99"/>
</a>
</g>
</g>
<!-- Node11 -->
<g id="Node000011" class="node">
<title>Node11</title>
<g id="a_Node000011"><a xlink:href="classTestsUnitaires.html#a7783880416ef4c0f160e1d8242f0d392" target="_top" xlink:title="Teste les cellules obstacles.">
<polygon fill="white" stroke="#666666" points="487.5,-740.85 333.5,-740.85 333.5,-720.85 487.5,-720.85 487.5,-740.85"/>
<text xml:space="preserve" text-anchor="middle" x="410.5" y="-727.35" font-family="Helvetica,sans-Serif" font-size="10.00">TestsUnitaires::testerObstacles</text>
</a>
</g>
</g>
<!-- Node4&#45;&gt;Node11 -->
<g id="edge25_Node000004_Node000011" class="edge">
<title>Node4&#45;&gt;Node11</title>
<g id="a_edge25_Node000004_Node000011"><a xlink:title=" ">
<path fill="none" stroke="#63b8ff" d="M972.62,-581.88C954.57,-589.98 931.45,-599.75 910.25,-606.85 751.63,-660.02 557.81,-701.83 465.45,-720.39"/>
<polygon fill="#63b8ff" stroke="#63b8ff" points="973.85,-585.17 981.5,-577.84 970.95,-578.8 973.85,-585.17"/>
</a>
</g>
</g>
<!-- Node14 -->
<g id="Node000014" class="node">
<title>Node14</title>
<g id="a_Node000014"><a xlink:href="classGrille.html#a980652764fefe3f45fcc0516a6e59abb" target="_top" xlink:title="Met à jour la grille pour passer à l&#39;itération suivante.">
<polygon fill="white" stroke="#666666" points="870.5,-576.85 772.75,-576.85 772.75,-556.85 870.5,-556.85 870.5,-576.85"/>
<text xml:space="preserve" text-anchor="middle" x="821.62" y="-563.35" font-family="Helvetica,sans-Serif" font-size="10.00">Grille::mettreAJour</text>
</a>
</g>
</g>
<!-- Node4&#45;&gt;Node14 -->
<g id="edge18_Node000004_Node000014" class="edge">
<title>Node4&#45;&gt;Node14</title>
<g id="a_edge18_Node000004_Node000014"><a xlink:title=" ">
<path fill="none" stroke="#63b8ff" d="M934.51,-566.85C913.26,-566.85 890.41,-566.85 870.93,-566.85"/>
<polygon fill="#63b8ff" stroke="#63b8ff" points="934.27,-570.35 944.27,-566.85 934.27,-563.35 934.27,-570.35"/>
</a>
</g>
</g>
<!-- Node4&#45;&gt;Node16 -->
<g id="edge24_Node000004_Node000016" class="edge">
<title>Node4&#45;&gt;Node16</title>
<g id="a_edge24_Node000004_Node000016"><a xlink:title=" ">
<path fill="none" stroke="#63b8ff" d="M943.39,-554.07C918.84,-548.94 891.05,-543.14 868.32,-538.39"/>
<polygon fill="#63b8ff" stroke="#63b8ff" points="942.43,-557.44 952.93,-556.06 943.86,-550.59 942.43,-557.44"/>
</a>
</g>
</g>
<!-- Node6 -->
<g id="Node000006" class="node">
<title>Node6</title>
<g id="a_Node000006"><a xlink:href="classTestsUnitaires.html#acd912aefe999f1178f6c72f41bece368" target="_top" xlink:title="Teste le motif stable (bloc).">
<polygon fill="white" stroke="#666666" points="475.12,-576.85 345.88,-576.85 345.88,-556.85 475.12,-556.85 475.12,-576.85"/>
<text xml:space="preserve" text-anchor="middle" x="410.5" y="-563.35" font-family="Helvetica,sans-Serif" font-size="10.00">TestsUnitaires::testerBloc</text>
</a>
</g>
</g>
<!-- Node5&#45;&gt;Node6 -->
<g id="edge5_Node000005_Node000006" class="edge">
<title>Node5&#45;&gt;Node6</title>
<g id="a_edge5_Node000005_Node000006"><a xlink:title=" ">
<path fill="none" stroke="#63b8ff" d="M545.23,-592.26C519.7,-587.41 490.85,-581.93 466.5,-577.3"/>
<polygon fill="#63b8ff" stroke="#63b8ff" points="544.36,-595.66 554.83,-594.09 545.66,-588.78 544.36,-595.66"/>
</a>
</g>
</g>
<!-- Node9 -->
<g id="Node000009" class="node">
<title>Node9</title>
<g id="a_Node000009"><a xlink:href="classTestsUnitaires.html#ad353b61378429174dd396ee458261aa2" target="_top" xlink:title="Teste le motif oscillateur (clignotant).">
<polygon fill="white" stroke="#666666" points="487.5,-614.85 333.5,-614.85 333.5,-594.85 487.5,-594.85 487.5,-614.85"/>
<text xml:space="preserve" text-anchor="middle" x="410.5" y="-601.35" font-family="Helvetica,sans-Serif" font-size="10.00">TestsUnitaires::testerClignotant</text>
</a>
</g>
</g>
<!-- Node5&#45;&gt;Node9 -->
<g id="edge8_Node000005_Node000009" class="edge">
<title>Node5&#45;&gt;Node9</title>
<g id="a_edge8_Node000005_Node000009"><a xlink:title=" ">
<path fill="none" stroke="#63b8ff" d="M536.08,-604.85C520.29,-604.85 503.63,-604.85 487.82,-604.85"/>
<polygon fill="#63b8ff" stroke="#63b8ff" points="535.88,-608.35 545.88,-604.85 535.88,-601.35 535.88,-608.35"/>
</a>
</g>
</g>
<!-- Node10 -->
<g id="Node000010" class="node">
<title>Node10</title>
<g id="a_Node000010"><a xlink:href="classTestsUnitaires.html#ac0c01e1e24de9cb73d81593c96fa34bb" target="_top" xlink:title="Teste la grille torique.">
<polygon fill="white" stroke="#666666" points="477.38,-664.85 343.62,-664.85 343.62,-632.85 477.38,-632.85 477.38,-664.85"/>
<text xml:space="preserve" text-anchor="start" x="351.62" y="-651.35" font-family="Helvetica,sans-Serif" font-size="10.00">TestsUnitaires::testerMode</text>
<text xml:space="preserve" text-anchor="middle" x="410.5" y="-639.35" font-family="Helvetica,sans-Serif" font-size="10.00">Torique</text>
</a>
</g>
</g>
<!-- Node5&#45;&gt;Node10 -->
<g id="edge10_Node000005_Node000010" class="edge">
<title>Node5&#45;&gt;Node10</title>
<g id="a_edge10_Node000005_Node000010"><a xlink:title=" ">
<path fill="none" stroke="#63b8ff" d="M552.63,-617.81C529.1,-622.98 501.9,-628.97 477.7,-634.29"/>
<polygon fill="#63b8ff" stroke="#63b8ff" points="553.36,-621.23 562.37,-615.66 551.85,-614.39 553.36,-621.23"/>
</a>
</g>
</g>
<!-- Node5&#45;&gt;Node11 -->
<g id="edge12_Node000005_Node000011" class="edge">
<title>Node5&#45;&gt;Node11</title>
<g id="a_edge12_Node000005_Node000011"><a xlink:title=" ">
<path fill="none" stroke="#63b8ff" d="M588.6,-622.08C571.4,-635.36 547.54,-654.49 528,-672.85 510.81,-689.01 512.37,-699.96 492,-711.85 486.05,-715.33 479.5,-718.17 472.78,-720.49"/>
<polygon fill="#63b8ff" stroke="#63b8ff" points="590.38,-625.13 596.2,-616.27 586.13,-619.56 590.38,-625.13"/>
</a>
</g>
</g>
<!-- Node12 -->
<g id="Node000012" class="node">
<title>Node12</title>
<g id="a_Node000012"><a xlink:href="classTestsUnitaires.html#aca78b84c54b4526bab6c6325e1b05e20" target="_top" xlink:title="Teste le planeur.">
<polygon fill="white" stroke="#666666" points="481.88,-702.85 339.12,-702.85 339.12,-682.85 481.88,-682.85 481.88,-702.85"/>
<text xml:space="preserve" text-anchor="middle" x="410.5" y="-689.35" font-family="Helvetica,sans-Serif" font-size="10.00">TestsUnitaires::testerPlaneur</text>
</a>
</g>
</g>
<!-- Node5&#45;&gt;Node12 -->
<g id="edge14_Node000005_Node000012" class="edge">
<title>Node5&#45;&gt;Node12</title>
<g id="a_edge14_Node000005_Node000012"><a xlink:title=" ">
<path fill="none" stroke="#63b8ff" d="M587.3,-621.67C563.89,-637.23 526.92,-660 492,-673.85 483.59,-677.19 474.45,-680.04 465.44,-682.43"/>
<polygon fill="#63b8ff" stroke="#63b8ff" points="589.17,-624.63 595.5,-616.13 585.26,-618.83 589.17,-624.63"/>
</a>
</g>
</g>
<!-- Node13 -->
<g id="Node000013" class="node">
<title>Node13</title>
<g id="a_Node000013"><a xlink:href="classTestsUnitaires.html#a668b40e7c9824be78af8cfd427b4aa58" target="_top" xlink:title="Teste les règles de base.">
<polygon fill="white" stroke="#666666" points="492,-538.85 329,-538.85 329,-518.85 492,-518.85 492,-538.85"/>
<text xml:space="preserve" text-anchor="middle" x="410.5" y="-525.35" font-family="Helvetica,sans-Serif" font-size="10.00">TestsUnitaires::testerReglesBase</text>
</a>
</g>
</g>
<!-- Node5&#45;&gt;Node13 -->
<g id="edge16_Node000005_Node000013" class="edge">
<title>Node5&#45;&gt;Node13</title>
<g id="a_edge16_Node000005_Node000013"><a xlink:title=" ">
<path fill="none" stroke="#63b8ff" d="M536.88,-590.32C533.82,-588.96 530.85,-587.48 528,-585.85 507.79,-574.33 512.17,-559.46 492,-547.85 486.03,-544.42 479.46,-541.6 472.74,-539.29"/>
<polygon fill="#63b8ff" stroke="#63b8ff" points="535.55,-593.56 546.14,-593.91 538.08,-587.03 535.55,-593.56"/>
</a>
</g>
</g>
<!-- Node7 -->
<g id="Node000007" class="node">
<title>Node7</title>
<g id="a_Node000007"><a xlink:href="classTestsUnitaires.html#a17aa4e9d0afbd2614193d2638f4b78c7" target="_top" xlink:title="Exécute tous les tests.">
<polygon fill="white" stroke="#666666" points="285.5,-642.85 163,-642.85 163,-610.85 285.5,-610.85 285.5,-642.85"/>
<text xml:space="preserve" text-anchor="start" x="171" y="-629.35" font-family="Helvetica,sans-Serif" font-size="10.00">TestsUnitaires::executer</text>
<text xml:space="preserve" text-anchor="middle" x="224.25" y="-617.35" font-family="Helvetica,sans-Serif" font-size="10.00">TousLesTests</text>
</a>
</g>
</g>
<!-- Node6&#45;&gt;Node7 -->
<g id="edge6_Node000006_Node000007" class="edge">
<title>Node6&#45;&gt;Node7</title>
<g id="a_edge6_Node000006_Node000007"><a xlink:title=" ">
<path fill="none" stroke="#63b8ff" d="M349.41,-580.03C342.49,-581.84 335.56,-583.8 329,-585.85 306.64,-592.87 282.24,-602.41 262.72,-610.53"/>
<polygon fill="#63b8ff" stroke="#63b8ff" points="349.93,-583.5 358.77,-577.66 348.22,-576.72 349.93,-583.5"/>
</a>
</g>
</g>
<!-- Node8 -->
<g id="Node000008" class="node">
<title>Node8</title>
<g id="a_Node000008"><a xlink:href="test__main_8cpp.html#ae66f6b31b5ad750f1fe042a706a4e3d4" target="_top" xlink:title="Programme principal pour exécuter les tests unitaires.">
<polygon fill="white" stroke="#666666" points="78.25,-636.85 41.25,-636.85 41.25,-616.85 78.25,-616.85 78.25,-636.85"/>
<text xml:space="preserve" text-anchor="middle" x="59.75" y="-623.35" font-family="Helvetica,sans-Serif" font-size="10.00">main</text>
</a>
</g>
</g>
<!-- Node7&#45;&gt;Node8 -->
<g id="edge7_Node000007_Node000008" class="edge">
<title>Node7&#45;&gt;Node8</title>
<g id="a_edge7_Node000007_Node000008"><a xlink:title=" ">
<path fill="none" stroke="#63b8ff" d="M151.35,-626.85C124.5,-626.85 96.27,-626.85 78.6,-626.85"/>
<polygon fill="#63b8ff" stroke="#63b8ff" points="151.23,-630.35 161.23,-626.85 151.23,-623.35 151.23,-630.35"/>
</a>
</g>
</g>
<!-- Node9&#45;&gt;Node7 -->
<g id="edge9_Node000009_Node000007" class="edge">
<title>Node9&#45;&gt;Node7</title>
<g id="a_edge9_Node000009_Node000007"><a xlink:title=" ">
<path fill="none" stroke="#63b8ff" d="M322.01,-615.3C309.73,-616.77 297.35,-618.25 285.72,-619.63"/>
<polygon fill="#63b8ff" stroke="#63b8ff" points="322.21,-618.8 331.73,-614.14 321.38,-611.85 322.21,-618.8"/>
</a>
</g>
</g>
<!-- Node10&#45;&gt;Node7 -->
<g id="edge11_Node000010_Node000007" class="edge">
<title>Node10&#45;&gt;Node7</title>
<g id="a_edge11_Node000010_Node000007"><a xlink:title=" ">
<path fill="none" stroke="#63b8ff" d="M332.09,-639.61C316.59,-637.76 300.53,-635.84 285.71,-634.07"/>
<polygon fill="#63b8ff" stroke="#63b8ff" points="331.39,-643.05 341.74,-640.76 332.22,-636.1 331.39,-643.05"/>
</a>
</g>
</g>
<!-- Node11&#45;&gt;Node7 -->
<g id="edge13_Node000011_Node000007" class="edge">
<title>Node11&#45;&gt;Node7</title>
<g id="a_edge13_Node000011_Node000007"><a xlink:title=" ">
<path fill="none" stroke="#63b8ff" d="M340.54,-716.83C336.57,-715.34 332.69,-713.68 329,-711.85 293.51,-694.31 259.41,-662.59 240.49,-643.25"/>
<polygon fill="#63b8ff" stroke="#63b8ff" points="339.19,-720.07 349.79,-719.97 341.44,-713.44 339.19,-720.07"/>
</a>
</g>
</g>
<!-- Node12&#45;&gt;Node7 -->
<g id="edge15_Node000012_Node000007" class="edge">
<title>Node12&#45;&gt;Node7</title>
<g id="a_edge15_Node000012_Node000007"><a xlink:title=" ">
<path fill="none" stroke="#63b8ff" d="M347.71,-679.56C341.34,-677.81 335.01,-675.9 329,-673.85 304.29,-665.43 277.48,-653.2 257.3,-643.33"/>
<polygon fill="#63b8ff" stroke="#63b8ff" points="346.38,-682.83 356.94,-681.99 348.15,-676.06 346.38,-682.83"/>
</a>
</g>
</g>
<!-- Node13&#45;&gt;Node7 -->
<g id="edge17_Node000013_Node000007" class="edge">
<title>Node13&#45;&gt;Node7</title>
<g id="a_edge17_Node000013_Node000007"><a xlink:title=" ">
<path fill="none" stroke="#63b8ff" d="M341.43,-542.74C337.15,-544.28 332.98,-545.98 329,-547.85 295.02,-563.91 261.48,-592.36 242.1,-610.38"/>
<polygon fill="#63b8ff" stroke="#63b8ff" points="342.32,-546.13 350.75,-539.7 340.15,-539.47 342.32,-546.13"/>
</a>
</g>
</g>
<!-- Node14&#45;&gt;Node13 -->
<g id="edge23_Node000014_Node000013" class="edge">
<title>Node14&#45;&gt;Node13</title>
<g id="a_edge23_Node000014_Node000013"><a xlink:title=" ">
<path fill="none" stroke="#63b8ff" d="M761.03,-556.63C740.76,-553.44 717.94,-550.16 697,-547.85 628.12,-540.28 549.53,-535.32 492.27,-532.37"/>
<polygon fill="#63b8ff" stroke="#63b8ff" points="760.39,-560.08 770.82,-558.2 761.5,-553.17 760.39,-560.08"/>
</a>
</g>
</g>
<!-- Node15 -->
<g id="Node000015" class="node">
<title>Node15</title>
<g id="a_Node000015"><a xlink:href="classTestsUnitaires.html#a1fea61fb0483bb1f7e0284d828ad347f" target="_top" xlink:title="Teste l&#39;évolution d&#39;une grille après n itérations.">
<polygon fill="white" stroke="#666666" points="687.62,-576.85 537.38,-576.85 537.38,-556.85 687.62,-556.85 687.62,-576.85"/>
<text xml:space="preserve" text-anchor="middle" x="612.5" y="-563.35" font-family="Helvetica,sans-Serif" font-size="10.00">TestsUnitaires::testerEvolution</text>
</a>
</g>
</g>
<!-- Node14&#45;&gt;Node15 -->
<g id="edge19_Node000014_Node000015" class="edge">
<title>Node14&#45;&gt;Node15</title>
<g id="a_edge19_Node000014_Node000015"><a xlink:title=" ">
<path fill="none" stroke="#63b8ff" d="M761.08,-566.85C738.26,-566.85 711.93,-566.85 687.88,-566.85"/>
<polygon fill="#63b8ff" stroke="#63b8ff" points="760.81,-570.35 770.81,-566.85 760.81,-563.35 760.81,-570.35"/>
</a>
</g>
</g>
<!-- Node15&#45;&gt;Node6 -->
<g id="edge20_Node000015_Node000006" class="edge">
<title>Node15&#45;&gt;Node6</title>
<g id="a_edge20_Node000015_Node000006"><a xlink:title=" ">
<path fill="none" stroke="#63b8ff" d="M525.52,-566.85C508.75,-566.85 491.44,-566.85 475.53,-566.85"/>
<polygon fill="#63b8ff" stroke="#63b8ff" points="525.51,-570.35 535.51,-566.85 525.51,-563.35 525.51,-570.35"/>
</a>
</g>
</g>
<!-- Node15&#45;&gt;Node9 -->
<g id="edge21_Node000015_Node000009" class="edge">
<title>Node15&#45;&gt;Node9</title>
<g id="a_edge21_Node000015_Node000009"><a xlink:title=" ">
<path fill="none" stroke="#63b8ff" d="M545.23,-579.45C519.7,-584.3 490.85,-589.78 466.5,-594.4"/>
<polygon fill="#63b8ff" stroke="#63b8ff" points="545.66,-582.93 554.83,-577.62 544.36,-576.05 545.66,-582.93"/>
</a>
</g>
</g>
<!-- Node15&#45;&gt;Node13 -->
<g id="edge22_Node000015_Node000013" class="edge">
<title>Node15&#45;&gt;Node13</title>
<g id="a_edge22_Node000015_Node000013"><a xlink:title=" ">
<path fill="none" stroke="#63b8ff" d="M545.23,-554.26C519.7,-549.41 490.85,-543.93 466.5,-539.3"/>
<polygon fill="#63b8ff" stroke="#63b8ff" points="544.36,-557.66 554.83,-556.09 545.66,-550.78 544.36,-557.66"/>
</a>
</g>
</g>
<!-- Node17&#45;&gt;Node2 -->
<g id="edge48_Node000017_Node000002" class="edge">
<title>Node17&#45;&gt;Node2</title>
<g id="a_edge48_Node000017_Node000002"><a xlink:title=" ">
<path fill="none" stroke="#63b8ff" d="M993.87,-354.05C978.65,-380.77 948.39,-427.68 910.25,-454.85 902.65,-460.27 894,-464.77 885.16,-468.49"/>
<polygon fill="#63b8ff" stroke="#63b8ff" points="996.77,-356.02 998.55,-345.58 990.65,-352.64 996.77,-356.02"/>
</a>
</g>
</g>
<!-- Node17&#45;&gt;Node3 -->
<g id="edge30_Node000017_Node000003" class="edge">
<title>Node17&#45;&gt;Node3</title>
<g id="a_edge30_Node000017_Node000003"><a xlink:title=" ">
<path fill="none" stroke="#63b8ff" d="M990.21,-353.01C973.46,-373.72 943.78,-405.91 910.25,-421.85 873.61,-439.28 771.43,-450.69 697.2,-456.95"/>
<polygon fill="#63b8ff" stroke="#63b8ff" points="992.81,-355.36 996.23,-345.33 987.3,-351.04 992.81,-355.36"/>
</a>
</g>
</g>
<!-- Node18 -->
<g id="Node000018" class="node">
<title>Node18</title>
<g id="a_Node000018"><a xlink:href="classModeConsole.html#ae77e7a8e7b14d611164441ecf12d3433" target="_top" xlink:title="Affiche la grille dans la console.">
<polygon fill="white" stroke="#666666" points="680.5,-362.85 544.5,-362.85 544.5,-342.85 680.5,-342.85 680.5,-362.85"/>
<text xml:space="preserve" text-anchor="middle" x="612.5" y="-349.35" font-family="Helvetica,sans-Serif" font-size="10.00">ModeConsole::afficherGrille</text>
</a>
</g>
</g>
<!-- Node17&#45;&gt;Node18 -->
<g id="edge27_Node000017_Node000018" class="edge">
<title>Node17&#45;&gt;Node18</title>
<g id="a_edge27_Node000017_Node000018"><a xlink:title=" ">
<path fill="none" stroke="#63b8ff" d="M942.43,-336.88C870.99,-340.35 754.19,-346.02 680.71,-349.59"/>
<polygon fill="#63b8ff" stroke="#63b8ff" points="942.16,-340.39 951.98,-336.41 941.82,-333.4 942.16,-340.39"/>
</a>
</g>
</g>
<!-- Node21 -->
<g id="Node000021" class="node">
<title>Node21</title>
<g id="a_Node000021"><a xlink:href="classRegleTorique.html#aea2f956fa0b75f4a8d9919f4a36e9eee" target="_top" xlink:title="Calcule le nouvel état d&#39;une cellule selon les règles du jeu.">
<polygon fill="white" stroke="#666666" points="693.25,-264.85 531.75,-264.85 531.75,-244.85 693.25,-244.85 693.25,-264.85"/>
<text xml:space="preserve" text-anchor="middle" x="612.5" y="-251.35" font-family="Helvetica,sans-Serif" font-size="10.00">RegleTorique::calculerNouvelEtat</text>
</a>
</g>
</g>
<!-- Node17&#45;&gt;Node21 -->
<g id="edge31_Node000017_Node000021" class="edge">
<title>Node17&#45;&gt;Node21</title>
<g id="a_edge31_Node000017_Node000021"><a xlink:title=" ">
<path fill="none" stroke="#63b8ff" d="M958.25,-319.57C954.16,-318.07 950.11,-316.49 946.25,-314.85 929.59,-307.81 927.47,-301.4 910.25,-295.85 839.08,-272.94 754.27,-262.84 693.58,-258.38"/>
<polygon fill="#63b8ff" stroke="#63b8ff" points="957.05,-322.86 967.65,-322.86 959.37,-316.25 957.05,-322.86"/>
</a>
</g>
</g>
<!-- Node22 -->
<g id="Node000022" class="node">
<title>Node22</title>
<g id="a_Node000022"><a xlink:href="classInterfaceQt.html#abe5b2e247e50614efbf88402c774899c" target="_top" xlink:title="Compte les cellules vivantes.">
<polygon fill="white" stroke="#666666" points="892.25,-122.85 751,-122.85 751,-90.85 892.25,-90.85 892.25,-122.85"/>
<text xml:space="preserve" text-anchor="start" x="759" y="-109.35" font-family="Helvetica,sans-Serif" font-size="10.00">InterfaceQt::compterCellules</text>
<text xml:space="preserve" text-anchor="middle" x="821.62" y="-97.35" font-family="Helvetica,sans-Serif" font-size="10.00">Vivantes</text>
</a>
</g>
</g>
<!-- Node17&#45;&gt;Node22 -->
<g id="edge32_Node000017_Node000022" class="edge">
<title>Node17&#45;&gt;Node22</title>
<g id="a_edge32_Node000017_Node000022"><a xlink:title=" ">
<path fill="none" stroke="#63b8ff" d="M948.02,-316.72C947.41,-316.12 946.82,-315.5 946.25,-314.85 891.27,-252.82 966.36,-192.87 910.25,-131.85 905.22,-126.38 899.08,-122.08 892.41,-118.69"/>
<polygon fill="#63b8ff" stroke="#63b8ff" points="945.64,-319.3 955.74,-322.5 949.83,-313.7 945.64,-319.3"/>
</a>
</g>
</g>
<!-- Node32 -->
<g id="Node000032" class="node">
<title>Node32</title>
<g id="a_Node000032"><a xlink:href="classRegleTorique.html#a5f15a29a47c045ccd89a64c72de030e1" target="_top" xlink:title="Compte le nombre de voisins vivants.">
<polygon fill="white" stroke="#666666" points="894.5,-248.85 748.75,-248.85 748.75,-216.85 894.5,-216.85 894.5,-248.85"/>
<text xml:space="preserve" text-anchor="start" x="756.75" y="-235.35" font-family="Helvetica,sans-Serif" font-size="10.00">RegleTorique::compterVoisins</text>
<text xml:space="preserve" text-anchor="middle" x="821.62" y="-223.35" font-family="Helvetica,sans-Serif" font-size="10.00">Vivants</text>
</a>
</g>
</g>
<!-- Node17&#45;&gt;Node32 -->
<g id="edge49_Node000017_Node000032" class="edge">
<title>Node17&#45;&gt;Node32</title>
<g id="a_edge49_Node000017_Node000032"><a xlink:title=" ">
<path fill="none" stroke="#63b8ff" d="M951.69,-318.47C949.8,-317.35 947.98,-316.14 946.25,-314.85 923.7,-298.07 932.67,-279.81 910.25,-262.85 903.07,-257.42 894.84,-252.93 886.36,-249.23"/>
<polygon fill="#63b8ff" stroke="#63b8ff" points="949.71,-321.39 960.22,-322.77 952.87,-315.14 949.71,-321.39"/>
</a>
</g>
</g>
<!-- Node33 -->
<g id="Node000033" class="node">
<title>Node33</title>
<g id="a_Node000033"><a xlink:href="classInterfaceQt.html#a814719cf92c437e1ea4d6a433f4c817b" target="_top" xlink:title="Dessine la grille (appelé par paintEvent de GrilleWidget).">
<polygon fill="white" stroke="#666666" points="886.62,-324.85 756.62,-324.85 756.62,-304.85 886.62,-304.85 886.62,-324.85"/>
<text xml:space="preserve" text-anchor="middle" x="821.62" y="-311.35" font-family="Helvetica,sans-Serif" font-size="10.00">InterfaceQt::dessinerGrille</text>
</a>
</g>
</g>
<!-- Node17&#45;&gt;Node33 -->
<g id="edge51_Node000017_Node000033" class="edge">
<title>Node17&#45;&gt;Node33</title>
<g id="a_edge51_Node000017_Node000033"><a xlink:title=" ">
<path fill="none" stroke="#63b8ff" d="M942.04,-327.32C924.28,-325.47 904.92,-323.45 887.06,-321.58"/>
<polygon fill="#63b8ff" stroke="#63b8ff" points="941.63,-330.8 951.94,-328.35 942.36,-323.84 941.63,-330.8"/>
</a>
</g>
</g>
<!-- Node34 -->
<g id="Node000034" class="node">
<title>Node34</title>
<g id="a_Node000034"><a xlink:href="classInterfaceSFML.html#a6be07281be6cedd2ea9dde170234630c" target="_top" xlink:title="Dessine la grille.">
<polygon fill="white" stroke="#666666" points="894.5,-160.85 748.75,-160.85 748.75,-140.85 894.5,-140.85 894.5,-160.85"/>
<text xml:space="preserve" text-anchor="middle" x="821.62" y="-147.35" font-family="Helvetica,sans-Serif" font-size="10.00">InterfaceSFML::dessinerGrille</text>
</a>
</g>
</g>
<!-- Node17&#45;&gt;Node34 -->
<g id="edge52_Node000017_Node000034" class="edge">
<title>Node17&#45;&gt;Node34</title>
<g id="a_edge52_Node000017_Node000034"><a xlink:title=" ">
<path fill="none" stroke="#63b8ff" d="M948.11,-316.72C947.47,-316.12 946.85,-315.5 946.25,-314.85 901,-266.26 957.9,-216.1 910.25,-169.85 905.78,-165.52 900.57,-162.07 894.96,-159.35"/>
<polygon fill="#63b8ff" stroke="#63b8ff" points="946.01,-319.52 956.18,-322.52 950.1,-313.84 946.01,-319.52"/>
</a>
</g>
</g>
<!-- Node37 -->
<g id="Node000037" class="node">
<title>Node37</title>
<g id="a_Node000037"><a xlink:href="classInterfaceSFML.html#a9b5a8e272d8dc3c033e09fde93ac4845" target="_top" xlink:title="Dessine les informations à l&#39;écran.">
<polygon fill="white" stroke="#666666" points="910.25,-198.85 733,-198.85 733,-178.85 910.25,-178.85 910.25,-198.85"/>
<text xml:space="preserve" text-anchor="middle" x="821.62" y="-185.35" font-family="Helvetica,sans-Serif" font-size="10.00">InterfaceSFML::dessinerInformations</text>
</a>
</g>
</g>
<!-- Node17&#45;&gt;Node37 -->
<g id="edge56_Node000017_Node000037" class="edge">
<title>Node17&#45;&gt;Node37</title>
<g id="a_edge56_Node000017_Node000037"><a xlink:title=" ">
<path fill="none" stroke="#63b8ff" d="M948.98,-317.33C948.03,-316.54 947.12,-315.72 946.25,-314.85 910.6,-279.55 947.64,-241.31 910.25,-207.85 906.42,-204.43 902.12,-201.57 897.54,-199.19"/>
<polygon fill="#63b8ff" stroke="#63b8ff" points="946.72,-320.03 957,-322.61 950.57,-314.18 946.72,-320.03"/>
</a>
</g>
</g>
<!-- Node38 -->
<g id="Node000038" class="node">
<title>Node38</title>
<g id="a_Node000038"><a xlink:href="classGestionnaireFichier.html#a7f617aede460be3b06c7dd842d7e2732" target="_top" xlink:title="Sauvegarde une grille dans un fichier.">
<polygon fill="white" stroke="#666666" points="871.62,-412.85 771.62,-412.85 771.62,-380.85 871.62,-380.85 871.62,-412.85"/>
<text xml:space="preserve" text-anchor="start" x="779.62" y="-399.35" font-family="Helvetica,sans-Serif" font-size="10.00">GestionnaireFichier</text>
<text xml:space="preserve" text-anchor="middle" x="821.62" y="-387.35" font-family="Helvetica,sans-Serif" font-size="10.00">::sauvegarderGrille</text>
</a>
</g>
</g>
<!-- Node17&#45;&gt;Node38 -->
<g id="edge58_Node000017_Node000038" class="edge">
<title>Node17&#45;&gt;Node38</title>
<g id="a_edge58_Node000017_Node000038"><a xlink:title=" ">
<path fill="none" stroke="#63b8ff" d="M964.36,-348C947.63,-353.86 928.01,-360.71 910.25,-366.85 897.49,-371.27 883.66,-376.02 870.85,-380.41"/>
<polygon fill="#63b8ff" stroke="#63b8ff" points="965.18,-351.42 973.46,-344.81 962.87,-344.81 965.18,-351.42"/>
</a>
</g>
</g>
<!-- Node19 -->
<g id="Node000019" class="node">
<title>Node19</title>
<g id="a_Node000019"><a xlink:href="classModeConsole.html#a79ad19df6d20c391fbaf9a7b4fb2f350" target="_top" xlink:title="Exécute le mode console.">
<polygon fill="white" stroke="#666666" points="470.25,-362.85 350.75,-362.85 350.75,-342.85 470.25,-342.85 470.25,-362.85"/>
<text xml:space="preserve" text-anchor="middle" x="410.5" y="-349.35" font-family="Helvetica,sans-Serif" font-size="10.00">ModeConsole::executer</text>
</a>
</g>
</g>
<!-- Node18&#45;&gt;Node19 -->
<g id="edge28_Node000018_Node000019" class="edge">
<title>Node18&#45;&gt;Node19</title>
<g id="a_edge28_Node000018_Node000019"><a xlink:title=" ">
<path fill="none" stroke="#63b8ff" d="M532.73,-352.85C512.03,-352.85 490.07,-352.85 470.6,-352.85"/>
<polygon fill="#63b8ff" stroke="#63b8ff" points="532.55,-356.35 542.55,-352.85 532.55,-349.35 532.55,-356.35"/>
</a>
</g>
</g>
<!-- Node20 -->
<g id="Node000020" class="node">
<title>Node20</title>
<g id="a_Node000020"><a xlink:href="main_8cpp.html#a0ddf1224851353fc92bfbff6f499fa97" target="_top" xlink:title="Point d&#39;entrée du programme.">
<polygon fill="white" stroke="#666666" points="242.75,-324.85 205.75,-324.85 205.75,-304.85 242.75,-304.85 242.75,-324.85"/>
<text xml:space="preserve" text-anchor="middle" x="224.25" y="-311.35" font-family="Helvetica,sans-Serif" font-size="10.00">main</text>
</a>
</g>
</g>
<!-- Node19&#45;&gt;Node20 -->
<g id="edge29_Node000019_Node000020" class="edge">
<title>Node19&#45;&gt;Node20</title>
<g id="a_edge29_Node000019_Node000020"><a xlink:title=" ">
<path fill="none" stroke="#63b8ff" d="M347.53,-340.07C310.81,-332.5 266.9,-323.45 242.96,-318.51"/>
<polygon fill="#63b8ff" stroke="#63b8ff" points="346.68,-343.47 357.18,-342.06 348.1,-336.62 346.68,-343.47"/>
</a>
</g>
</g>
<!-- Node23 -->
<g id="Node000023" class="node">
<title>Node23</title>
<g id="a_Node000023"><a xlink:href="classInterfaceQt.html#a06b809d43dbf3814ab103a8d42de319a" target="_top" xlink:title="Met à jour l&#39;affichage.">
<polygon fill="white" stroke="#666666" points="674.5,-122.85 550.5,-122.85 550.5,-90.85 674.5,-90.85 674.5,-122.85"/>
<text xml:space="preserve" text-anchor="start" x="558.5" y="-109.35" font-family="Helvetica,sans-Serif" font-size="10.00">InterfaceQt::mettreAJour</text>
<text xml:space="preserve" text-anchor="middle" x="612.5" y="-97.35" font-family="Helvetica,sans-Serif" font-size="10.00">Affichage</text>
</a>
</g>
</g>
<!-- Node22&#45;&gt;Node23 -->
<g id="edge33_Node000022_Node000023" class="edge">
<title>Node22&#45;&gt;Node23</title>
<g id="a_edge33_Node000022_Node000023"><a xlink:title=" ">
<path fill="none" stroke="#63b8ff" d="M739.12,-106.85C717.73,-106.85 695.02,-106.85 674.88,-106.85"/>
<polygon fill="#63b8ff" stroke="#63b8ff" points="738.99,-110.35 748.99,-106.85 738.99,-103.35 738.99,-110.35"/>
</a>
</g>
</g>
<!-- Node24 -->
<g id="Node000024" class="node">
<title>Node24</title>
<g id="a_Node000024"><a xlink:href="classInterfaceQt.html#a0eea8fab1e83d4b90961bd4241fc5689" target="_top" xlink:title="Constructeur de l&#39;interface Qt.">
<polygon fill="white" stroke="#666666" points="119.5,-119.85 0,-119.85 0,-99.85 119.5,-99.85 119.5,-119.85"/>
<text xml:space="preserve" text-anchor="middle" x="59.75" y="-106.35" font-family="Helvetica,sans-Serif" font-size="10.00">InterfaceQt::InterfaceQt</text>
</a>
</g>
</g>
<!-- Node23&#45;&gt;Node24 -->
<g id="edge34_Node000023_Node000024" class="edge">
<title>Node23&#45;&gt;Node24</title>
<g id="a_edge34_Node000023_Node000024"><a xlink:title=" ">
<path fill="none" stroke="#63b8ff" d="M584.54,-83.32C561.67,-65.01 527.07,-41.06 492,-30.85 348.36,10.95 296.3,11.68 155.5,-38.85 119.71,-51.7 86.16,-83.06 70.31,-99.46"/>
<polygon fill="#63b8ff" stroke="#63b8ff" points="582.18,-85.91 592.13,-89.55 586.63,-80.5 582.18,-85.91"/>
</a>
</g>
</g>
<!-- Node25 -->
<g id="Node000025" class="node">
<title>Node25</title>
<g id="a_Node000025"><a xlink:href="classInterfaceQt.html#a280bb380e08e13ec39b8dca2ae917950" target="_top" xlink:title="Place un motif.">
<polygon fill="white" stroke="#666666" points="475.88,-173.85 345.12,-173.85 345.12,-153.85 475.88,-153.85 475.88,-173.85"/>
<text xml:space="preserve" text-anchor="middle" x="410.5" y="-160.35" font-family="Helvetica,sans-Serif" font-size="10.00">InterfaceQt::onPlacerMotif</text>
</a>
</g>
</g>
<!-- Node23&#45;&gt;Node25 -->
<g id="edge35_Node000023_Node000025" class="edge">
<title>Node23&#45;&gt;Node25</title>
<g id="a_edge35_Node000023_Node000025"><a xlink:title=" ">
<path fill="none" stroke="#63b8ff" d="M551.71,-126.85C532.71,-132.94 511.56,-139.45 492,-144.85 481.2,-147.84 469.51,-150.77 458.48,-153.4"/>
<polygon fill="#63b8ff" stroke="#63b8ff" points="552.74,-130.19 561.18,-123.79 550.59,-123.53 552.74,-130.19"/>
</a>
</g>
</g>
<!-- Node27 -->
<g id="Node000027" class="node">
<title>Node27</title>
<g id="a_Node000027"><a xlink:href="classInterfaceQt.html#af564176618a18f272b92be6bfd9d029d" target="_top" xlink:title="Réinitialise la simulation.">
<polygon fill="white" stroke="#666666" points="464.25,-135.85 356.75,-135.85 356.75,-115.85 464.25,-115.85 464.25,-135.85"/>
<text xml:space="preserve" text-anchor="middle" x="410.5" y="-122.35" font-family="Helvetica,sans-Serif" font-size="10.00">InterfaceQt::onReset</text>
</a>
</g>
</g>
<!-- Node23&#45;&gt;Node27 -->
<g id="edge38_Node000023_Node000027" class="edge">
<title>Node23&#45;&gt;Node27</title>
<g id="a_edge38_Node000023_Node000027"><a xlink:title=" ">
<path fill="none" stroke="#63b8ff" d="M538.7,-113.77C514.19,-116.1 487.33,-118.65 464.64,-120.81"/>
<polygon fill="#63b8ff" stroke="#63b8ff" points="539,-117.26 548.63,-112.83 538.34,-110.29 539,-117.26"/>
</a>
</g>
</g>
<!-- Node28 -->
<g id="Node000028" class="node">
<title>Node28</title>
<g id="a_Node000028"><a xlink:href="classInterfaceQt.html#a1c1b614c51a456e7b5f407724df14f38" target="_top" xlink:title="Avance d&#39;une itération.">
<polygon fill="white" stroke="#666666" points="461.25,-59.85 359.75,-59.85 359.75,-39.85 461.25,-39.85 461.25,-59.85"/>
<text xml:space="preserve" text-anchor="middle" x="410.5" y="-46.35" font-family="Helvetica,sans-Serif" font-size="10.00">InterfaceQt::onStep</text>
</a>
</g>
</g>
<!-- Node23&#45;&gt;Node28 -->
<g id="edge40_Node000023_Node000028" class="edge">
<title>Node23&#45;&gt;Node28</title>
<g id="a_edge40_Node000023_Node000028"><a xlink:title=" ">
<path fill="none" stroke="#63b8ff" d="M551.71,-86.86C532.71,-80.77 511.56,-74.26 492,-68.85 481.2,-65.87 469.51,-62.94 458.48,-60.31"/>
<polygon fill="#63b8ff" stroke="#63b8ff" points="550.59,-90.18 561.18,-89.92 552.74,-83.52 550.59,-90.18"/>
</a>
</g>
</g>
<!-- Node30 -->
<g id="Node000030" class="node">
<title>Node30</title>
<g id="a_Node000030"><a xlink:href="classInterfaceQt.html#abe7956e622104a15a5de0b3f8c84921d" target="_top" xlink:title="Recule d&#39;une itération.">
<polygon fill="white" stroke="#666666" points="472.5,-97.85 348.5,-97.85 348.5,-77.85 472.5,-77.85 472.5,-97.85"/>
<text xml:space="preserve" text-anchor="middle" x="410.5" y="-84.35" font-family="Helvetica,sans-Serif" font-size="10.00">InterfaceQt::onStepBack</text>
</a>
</g>
</g>
<!-- Node23&#45;&gt;Node30 -->
<g id="edge43_Node000023_Node000030" class="edge">
<title>Node23&#45;&gt;Node30</title>
<g id="a_edge43_Node000023_Node000030"><a xlink:title=" ">
<path fill="none" stroke="#63b8ff" d="M538.67,-99.94C517.04,-97.88 493.57,-95.65 472.75,-93.67"/>
<polygon fill="#63b8ff" stroke="#63b8ff" points="538.34,-103.42 548.63,-100.88 539,-96.45 538.34,-103.42"/>
</a>
</g>
</g>
<!-- Node31 -->
<g id="Node000031" class="node">
<title>Node31</title>
<g id="a_Node000031"><a xlink:href="classInterfaceQt.html#abe1c50d3e3b80f6adecb9bf0cb9fca4c" target="_top" xlink:title="Mise à jour automatique (timer).">
<polygon fill="white" stroke="#666666" points="286.62,-179.85 161.88,-179.85 161.88,-159.85 286.62,-159.85 286.62,-179.85"/>
<text xml:space="preserve" text-anchor="middle" x="224.25" y="-166.35" font-family="Helvetica,sans-Serif" font-size="10.00">InterfaceQt::onTimerTick</text>
</a>
</g>
</g>
<!-- Node23&#45;&gt;Node31 -->
<g id="edge46_Node000023_Node000031" class="edge">
<title>Node23&#45;&gt;Node31</title>
<g id="a_edge46_Node000023_Node000031"><a xlink:title=" ">
<path fill="none" stroke="#63b8ff" d="M584.54,-130.39C561.67,-148.7 527.07,-172.65 492,-182.85 415.43,-205.14 321.33,-191.61 267.83,-180.33"/>
<polygon fill="#63b8ff" stroke="#63b8ff" points="586.63,-133.21 592.13,-124.16 582.18,-127.8 586.63,-133.21"/>
</a>
</g>
</g>
<!-- Node26 -->
<g id="Node000026" class="node">
<title>Node26</title>
<g id="a_Node000026"><a xlink:href="classInterfaceQt.html#a08632443206d676198dfd1f7492e7437" target="_top" xlink:title="Initialise les widgets.">
<polygon fill="white" stroke="#666666" points="278.75,-125.85 169.75,-125.85 169.75,-93.85 278.75,-93.85 278.75,-125.85"/>
<text xml:space="preserve" text-anchor="start" x="177.75" y="-112.35" font-family="Helvetica,sans-Serif" font-size="10.00">InterfaceQt::initialiser</text>
<text xml:space="preserve" text-anchor="middle" x="224.25" y="-100.35" font-family="Helvetica,sans-Serif" font-size="10.00">Widgets</text>
</a>
</g>
</g>
<!-- Node25&#45;&gt;Node26 -->
<g id="edge36_Node000025_Node000026" class="edge">
<title>Node25&#45;&gt;Node26</title>
<g id="a_edge36_Node000025_Node000026"><a xlink:title=" ">
<path fill="none" stroke="#63b8ff" d="M350.91,-150.71C343.51,-148.84 336.06,-146.87 329,-144.85 309.81,-139.37 288.91,-132.49 270.93,-126.29"/>
<polygon fill="#63b8ff" stroke="#63b8ff" points="350.04,-154.1 360.59,-153.08 351.71,-147.3 350.04,-154.1"/>
</a>
</g>
</g>
<!-- Node26&#45;&gt;Node24 -->
<g id="edge37_Node000026_Node000024" class="edge">
<title>Node26&#45;&gt;Node24</title>
<g id="a_edge37_Node000026_Node000024"><a xlink:title=" ">
<path fill="none" stroke="#63b8ff" d="M158.18,-109.85C145.56,-109.85 132.39,-109.85 119.96,-109.85"/>
<polygon fill="#63b8ff" stroke="#63b8ff" points="158.08,-113.35 168.08,-109.85 158.08,-106.35 158.08,-113.35"/>
</a>
</g>
</g>
<!-- Node27&#45;&gt;Node26 -->
<g id="edge39_Node000027_Node000026" class="edge">
<title>Node27&#45;&gt;Node26</title>
<g id="a_edge39_Node000027_Node000026"><a xlink:title=" ">
<path fill="none" stroke="#63b8ff" d="M345.29,-120.28C323.66,-118.4 299.76,-116.32 279.02,-114.52"/>
<polygon fill="#63b8ff" stroke="#63b8ff" points="344.93,-123.76 355.19,-121.14 345.53,-116.79 344.93,-123.76"/>
</a>
</g>
</g>
<!-- Node28&#45;&gt;Node26 -->
<g id="edge41_Node000028_Node000026" class="edge">
<title>Node28&#45;&gt;Node26</title>
<g id="a_edge41_Node000028_Node000026"><a xlink:title=" ">
<path fill="none" stroke="#63b8ff" d="M349.41,-63.03C342.49,-64.84 335.56,-66.8 329,-68.85 306.64,-75.87 282.24,-85.41 262.72,-93.53"/>
<polygon fill="#63b8ff" stroke="#63b8ff" points="349.93,-66.5 358.77,-60.66 348.22,-59.72 349.93,-66.5"/>
</a>
</g>
</g>
<!-- Node29 -->
<g id="Node000029" class="node">
<title>Node29</title>
<g id="a_Node000029"><a xlink:href="classInterfaceQt.html#a11edcee9206379725a8e97e68a100e80" target="_top" xlink:title="Gestion des événements clavier.">
<polygon fill="white" stroke="#666666" points="293,-67.85 155.5,-67.85 155.5,-47.85 293,-47.85 293,-67.85"/>
<text xml:space="preserve" text-anchor="middle" x="224.25" y="-54.35" font-family="Helvetica,sans-Serif" font-size="10.00">InterfaceQt::keyPressEvent</text>
</a>
</g>
</g>
<!-- Node28&#45;&gt;Node29 -->
<g id="edge42_Node000028_Node000029" class="edge">
<title>Node28&#45;&gt;Node29</title>
<g id="a_edge42_Node000028_Node000029"><a xlink:title=" ">
<path fill="none" stroke="#63b8ff" d="M348.36,-52.51C330.77,-53.27 311.47,-54.11 293.48,-54.89"/>
<polygon fill="#63b8ff" stroke="#63b8ff" points="348.29,-56.02 358.13,-52.09 347.98,-49.02 348.29,-56.02"/>
</a>
</g>
</g>
<!-- Node30&#45;&gt;Node26 -->
<g id="edge44_Node000030_Node000026" class="edge">
<title>Node30&#45;&gt;Node26</title>
<g id="a_edge44_Node000030_Node000026"><a xlink:title=" ">
<path fill="none" stroke="#63b8ff" d="M336.98,-96.51C317.73,-98.81 297.29,-101.25 279.22,-103.41"/>
<polygon fill="#63b8ff" stroke="#63b8ff" points="337.13,-100.02 346.64,-95.36 336.3,-93.07 337.13,-100.02"/>
</a>
</g>
</g>
<!-- Node30&#45;&gt;Node29 -->
<g id="edge45_Node000030_Node000029" class="edge">
<title>Node30&#45;&gt;Node29</title>
<g id="a_edge45_Node000030_Node000029"><a xlink:title=" ">
<path fill="none" stroke="#63b8ff" d="M336.91,-76.04C321.25,-73.49 304.8,-70.81 289.49,-68.31"/>
<polygon fill="#63b8ff" stroke="#63b8ff" points="336.22,-79.47 346.65,-77.62 337.35,-72.56 336.22,-79.47"/>
</a>
</g>
</g>
<!-- Node31&#45;&gt;Node24 -->
<g id="edge47_Node000031_Node000024" class="edge">
<title>Node31&#45;&gt;Node24</title>
<g id="a_edge47_Node000031_Node000024"><a xlink:title=" ">
<path fill="none" stroke="#63b8ff" d="M184.24,-155.45C154.89,-144.61 115.35,-130.02 89,-120.29"/>
<polygon fill="#63b8ff" stroke="#63b8ff" points="182.93,-158.7 193.52,-158.88 185.36,-152.13 182.93,-158.7"/>
</a>
</g>
</g>
<!-- Node32&#45;&gt;Node21 -->
<g id="edge50_Node000032_Node000021" class="edge">
<title>Node32&#45;&gt;Node21</title>
<g id="a_edge50_Node000032_Node000021"><a xlink:title=" ">
<path fill="none" stroke="#63b8ff" d="M737.08,-241.73C722.71,-243.25 707.81,-244.84 693.53,-246.35"/>
<polygon fill="#63b8ff" stroke="#63b8ff" points="737.39,-245.22 746.97,-240.68 736.65,-238.25 737.39,-245.22"/>
</a>
</g>
</g>
<!-- Node35 -->
<g id="Node000035" class="node">
<title>Node35</title>
<g id="a_Node000035"><a xlink:href="classInterfaceSFML.html#aa50033cc2b996da556fdebca5db2c7ef" target="_top" xlink:title="Met à jour l&#39;affichage.">
<polygon fill="white" stroke="#666666" points="671.5,-198.85 553.5,-198.85 553.5,-178.85 671.5,-178.85 671.5,-198.85"/>
<text xml:space="preserve" text-anchor="middle" x="612.5" y="-185.35" font-family="Helvetica,sans-Serif" font-size="10.00">InterfaceSFML::afficher</text>
</a>
</g>
</g>
<!-- Node34&#45;&gt;Node35 -->
<g id="edge53_Node000034_Node000035" class="edge">
<title>Node34&#45;&gt;Node35</title>
<g id="a_edge53_Node000034_Node000035"><a xlink:title=" ">
<path fill="none" stroke="#63b8ff" d="M752.35,-163.38C725.82,-168.25 695.79,-173.76 670.46,-178.4"/>
<polygon fill="#63b8ff" stroke="#63b8ff" points="752.79,-166.86 761.99,-161.61 751.52,-159.97 752.79,-166.86"/>
</a>
</g>
</g>
<!-- Node36 -->
<g id="Node000036" class="node">
<title>Node36</title>
<g id="a_Node000036"><a xlink:href="classInterfaceSFML.html#a518c46fbb99e76a49149d03b900b6cdc" target="_top" xlink:title="Lance la boucle principale de l&#39;interface graphique.">
<polygon fill="white" stroke="#666666" points="472.5,-287.85 348.5,-287.85 348.5,-267.85 472.5,-267.85 472.5,-287.85"/>
<text xml:space="preserve" text-anchor="middle" x="410.5" y="-274.35" font-family="Helvetica,sans-Serif" font-size="10.00">InterfaceSFML::executer</text>
</a>
</g>
</g>
<!-- Node35&#45;&gt;Node36 -->
<g id="edge54_Node000035_Node000036" class="edge">
<title>Node35&#45;&gt;Node36</title>
<g id="a_edge54_Node000035_Node000036"><a xlink:title=" ">
<path fill="none" stroke="#63b8ff" d="M577.73,-203.88C537.2,-221.92 470.3,-251.69 434.99,-267.4"/>
<polygon fill="#63b8ff" stroke="#63b8ff" points="579.07,-207.12 586.78,-199.85 576.22,-200.72 579.07,-207.12"/>
</a>
</g>
</g>
<!-- Node36&#45;&gt;Node20 -->
<g id="edge55_Node000036_Node000020" class="edge">
<title>Node36&#45;&gt;Node20</title>
<g id="a_edge55_Node000036_Node000020"><a xlink:title=" ">
<path fill="none" stroke="#63b8ff" d="M346.63,-290.48C310.22,-297.79 267,-306.47 243.2,-311.25"/>
<polygon fill="#63b8ff" stroke="#63b8ff" points="347.09,-293.96 356.2,-288.56 345.71,-287.1 347.09,-293.96"/>
</a>
</g>
</g>
<!-- Node37&#45;&gt;Node35 -->
<g id="edge57_Node000037_Node000035" class="edge">
<title>Node37&#45;&gt;Node35</title>
<g id="a_edge57_Node000037_Node000035"><a xlink:title=" ">
<path fill="none" stroke="#63b8ff" d="M721.61,-188.85C704.53,-188.85 687.29,-188.85 671.75,-188.85"/>
<polygon fill="#63b8ff" stroke="#63b8ff" points="721.27,-192.35 731.27,-188.85 721.27,-185.35 721.27,-192.35"/>
</a>
</g>
</g>
<!-- Node39 -->
<g id="Node000039" class="node">
<title>Node39</title>
<g id="a_Node000039"><a xlink:href="classModeConsole.html#a75b55e1983d7ca8dbbb4ebec6a68589d" target="_top" xlink:title="Sauvegarde la grille actuelle dans un fichier.">
<polygon fill="white" stroke="#666666" points="680.12,-412.85 544.88,-412.85 544.88,-380.85 680.12,-380.85 680.12,-412.85"/>
<text xml:space="preserve" text-anchor="start" x="552.88" y="-399.35" font-family="Helvetica,sans-Serif" font-size="10.00">ModeConsole::sauvegarder</text>
<text xml:space="preserve" text-anchor="middle" x="612.5" y="-387.35" font-family="Helvetica,sans-Serif" font-size="10.00">Iteration</text>
</a>
</g>
</g>
<!-- Node38&#45;&gt;Node39 -->
<g id="edge59_Node000038_Node000039" class="edge">
<title>Node38&#45;&gt;Node39</title>
<g id="a_edge59_Node000038_Node000039"><a xlink:title=" ">
<path fill="none" stroke="#63b8ff" d="M759.78,-396.85C734.88,-396.85 705.99,-396.85 680.49,-396.85"/>
<polygon fill="#63b8ff" stroke="#63b8ff" points="759.76,-400.35 769.76,-396.85 759.76,-393.35 759.76,-400.35"/>
</a>
</g>
</g>
<!-- Node39&#45;&gt;Node19 -->
<g id="edge60_Node000039_Node000019" class="edge">
<title>Node39&#45;&gt;Node19</title>
<g id="a_edge60_Node000039_Node000019"><a xlink:title=" ">
<path fill="none" stroke="#63b8ff" d="M533.6,-379.72C508.44,-374.18 481.31,-368.21 459.03,-363.31"/>
<polygon fill="#63b8ff" stroke="#63b8ff" points="532.63,-383.09 543.15,-381.82 534.13,-376.25 532.63,-383.09"/>
</a>
</g>
</g>
</g>
</svg>
