<?xml version="1.0" encoding="UTF-8" standalone="no"?>
<!DOCTYPE svg PUBLIC "-//W3C//DTD SVG 1.1//EN"
 "http://www.w3.org/Graphics/SVG/1.1/DTD/svg11.dtd">
<!-- Generated by graphviz version 14.0.2 (20251019.1705)
 -->
<!-- Title: RegleStandard::calculerNouvelEtat Pages: 1 -->
<!--zoomable 230 -->

<svg id="main" version="1.1" xmlns="http://www.w3.org/2000/svg" xmlns:xlink="http://www.w3.org/1999/xlink" xml:space="preserve" onload="init(evt)">

<style type="text/css"><![CDATA[
.node, .edge {opacity: 0.7;}
.node.selected, .edge.selected {opacity: 1;}
.edge:hover path { stroke: red; }
.edge:hover polygon { stroke: red; fill: red; }
]]></style>

<defs>
  <circle id="rim" cx="0" cy="0" r="7"/>
  <circle id="rim2" cx="0" cy="0" r="3.5"/>
  <g id="zoomPlus">
    <use xlink:href="#rim" fill="#404040"><set attributeName="fill" to="#808080" begin="zoomplus.mouseover" end="zoomplus.mouseout"/></use>
    <path d="M-4,0h8M0,-4v8" fill="none" stroke="white" stroke-width="1.5" pointer-events="none"/>
  </g>
  <g id="zoomMin">
    <use xlink:href="#rim" fill="#404040"><set attributeName="fill" to="#808080" begin="zoomminus.mouseover" end="zoomminus.mouseout"/></use>
    <path d="M-4,0h8" fill="none" stroke="white" stroke-width="1.5" pointer-events="none"/>
  </g>
  <g id="arrowUp" transform="translate(30 24)">
    <use xlink:href="#rim"/>
    <path pointer-events="none" fill="none" stroke="white" stroke-width="1.5" d="M0,-3.0v7 M-2.5,-0.5L0,-3.0L2.5,-0.5"/>
  </g>
  <g id="arrowRight" transform="rotate(90) translate(36 -43)">
    <use xlink:href="#rim"/>
    <path pointer-events="none" fill="none" stroke="white" stroke-width="1.5" d="M0,-3.0v7 M-2.5,-0.5L0,-3.0L2.5,-0.5"/>
  </g>
  <g id="arrowDown" transform="rotate(180) translate(-30 -48)">
    <use xlink:href="#rim"/>
    <path pointer-events="none" fill="none" stroke="white" stroke-width="1.5" d="M0,-3.0v7 M-2.5,-0.5L0,-3.0L2.5,-0.5"/>
  </g>
  <g id="arrowLeft" transform="rotate(270) translate(-36 17)">
    <use xlink:href="#rim"/>
    <path pointer-events="none" fill="none" stroke="white" stroke-width="1.5" d="M0,-3.0v7 M-2.5,-0.5L0,-3.0L2.5,-0.5"/>
  </g>
  <g id="resetDef">
    <use xlink:href="#rim2" fill="#404040"><set attributeName="fill" to="#808080" begin="reset.mouseover" end="reset.mouseout"/></use>
  </g>
</defs>
<script type="application/ecmascript">
var viewWidth = 662;
var viewHeight = 230;
var sectionId = 'dynsection-2';
</script>
<script type="application/ecmascript" xlink:href="svg.min.js"/>
<svg id="graph" class="graph">
<g id="viewport">
<title>RegleStandard::calculerNouvelEtat</title>
<!-- Node1 -->
<g id="Node000001" class="node">
<title>Node1</title>
<g id="a_Node000001"><a xlink:title="Calcule le nouvel état d&#39;une cellule selon les règles du jeu.">
<polygon fill="#999999" stroke="#666666" points="169,-118 0,-118 0,-98 169,-98 169,-118"/>
<text xml:space="preserve" text-anchor="middle" x="84.5" y="-104.5" font-family="Helvetica,sans-Serif" font-size="10.00">RegleStandard::calculerNouvelEtat</text>
</a>
</g>
</g>
<!-- Node2 -->
<g id="Node000002" class="node">
<title>Node2</title>
<g id="a_Node000002"><a xlink:href="classEtatCellule.html#a40d064d2eb4ffdaf4ce5ffc290f23db0" target="_top" xlink:title="Crée une copie de l&#39;état.">
<polygon fill="white" stroke="#666666" points="329.75,-222 233.5,-222 233.5,-202 329.75,-202 329.75,-222"/>
<text xml:space="preserve" text-anchor="middle" x="281.62" y="-208.5" font-family="Helvetica,sans-Serif" font-size="10.00">EtatCellule::cloner</text>
</a>
</g>
</g>
<!-- Node1&#45;&gt;Node2 -->
<g id="edge1_Node000001_Node000002" class="edge">
<title>Node1&#45;&gt;Node2</title>
<g id="a_edge1_Node000001_Node000002"><a xlink:title=" ">
<path fill="none" stroke="#63b8ff" d="M98.37,-118.42C119.51,-135.11 163.38,-167.97 205,-188 212.77,-191.74 221.26,-195.08 229.65,-198"/>
<polygon fill="#63b8ff" stroke="#63b8ff" points="228.53,-201.32 239.12,-201.12 230.72,-194.67 228.53,-201.32"/>
</a>
</g>
</g>
<!-- Node3 -->
<g id="Node000003" class="node">
<title>Node3</title>
<g id="a_Node000003"><a xlink:href="classRegleStandard.html#ab892c4bd38ca021326c6188d0db0e421" target="_top" xlink:title="Compte le nombre de voisins vivants.">
<polygon fill="white" stroke="#666666" points="358.25,-146 205,-146 205,-114 358.25,-114 358.25,-146"/>
<text xml:space="preserve" text-anchor="start" x="213" y="-132.5" font-family="Helvetica,sans-Serif" font-size="10.00">RegleStandard::compterVoisins</text>
<text xml:space="preserve" text-anchor="middle" x="281.62" y="-120.5" font-family="Helvetica,sans-Serif" font-size="10.00">Vivants</text>
</a>
</g>
</g>
<!-- Node1&#45;&gt;Node3 -->
<g id="edge2_Node000001_Node000003" class="edge">
<title>Node1&#45;&gt;Node3</title>
<g id="a_edge2_Node000001_Node000003"><a xlink:title=" ">
<path fill="none" stroke="#63b8ff" d="M169.38,-117.46C177.32,-118.35 185.37,-119.26 193.34,-120.16"/>
<polygon fill="#63b8ff" stroke="#63b8ff" points="192.68,-123.61 203.01,-121.25 193.46,-116.65 192.68,-123.61"/>
</a>
</g>
</g>
<!-- Node5 -->
<g id="Node000005" class="node">
<title>Node5</title>
<g id="a_Node000005"><a xlink:href="classCellule.html#a70d2731234961e330fe0a31486d1dec7" target="_top" xlink:title="Vérifie si la cellule est vivante.">
<polygon fill="white" stroke="#666666" points="495.38,-99 396.88,-99 396.88,-79 495.38,-79 495.38,-99"/>
<text xml:space="preserve" text-anchor="middle" x="446.12" y="-85.5" font-family="Helvetica,sans-Serif" font-size="10.00">Cellule::estVivante</text>
</a>
</g>
</g>
<!-- Node1&#45;&gt;Node5 -->
<g id="edge8_Node000001_Node000005" class="edge">
<title>Node1&#45;&gt;Node5</title>
<g id="a_edge8_Node000001_Node000005"><a xlink:title=" ">
<path fill="none" stroke="#63b8ff" d="M169.36,-103.57C235.52,-100.07 326.18,-95.28 385.2,-92.17"/>
<polygon fill="#63b8ff" stroke="#63b8ff" points="385.25,-95.67 395.05,-91.65 384.88,-88.68 385.25,-95.67"/>
</a>
</g>
</g>
<!-- Node6 -->
<g id="Node000006" class="node">
<title>Node6</title>
<g id="a_Node000006"><a xlink:href="classGrille.html#aab75610fe73ae48bd035a048c55832f0" target="_top" xlink:title="Obtient une cellule à une position donnée.">
<polygon fill="white" stroke="#666666" points="498,-178 394.25,-178 394.25,-158 498,-158 498,-178"/>
<text xml:space="preserve" text-anchor="middle" x="446.12" y="-164.5" font-family="Helvetica,sans-Serif" font-size="10.00">Grille::obtenirCellule</text>
</a>
</g>
</g>
<!-- Node1&#45;&gt;Node6 -->
<g id="edge9_Node000001_Node000006" class="edge">
<title>Node1&#45;&gt;Node6</title>
<g id="a_edge9_Node000001_Node000006"><a xlink:title=" ">
<path fill="none" stroke="#63b8ff" d="M106.02,-118.42C129.33,-129.7 168.84,-147.13 205,-155 264.29,-167.91 333.66,-170.35 382.55,-170.05"/>
<polygon fill="#63b8ff" stroke="#63b8ff" points="382.43,-173.55 392.39,-169.94 382.35,-166.55 382.43,-173.55"/>
</a>
</g>
</g>
<!-- Node7 -->
<g id="Node000007" class="node">
<title>Node7</title>
<g id="a_Node000007"><a xlink:href="classCellule.html#a4e34ac281afdba1d793fbd0239022a5e" target="_top" xlink:title="Vérifie si la cellule est un obstacle.">
<polygon fill="white" stroke="#666666" points="333.88,-58 229.38,-58 229.38,-38 333.88,-38 333.88,-58"/>
<text xml:space="preserve" text-anchor="middle" x="281.62" y="-44.5" font-family="Helvetica,sans-Serif" font-size="10.00">Cellule::estObstacle</text>
</a>
</g>
</g>
<!-- Node1&#45;&gt;Node7 -->
<g id="edge7_Node000001_Node000007" class="edge">
<title>Node1&#45;&gt;Node7</title>
<g id="a_edge7_Node000001_Node000007"><a xlink:title=" ">
<path fill="none" stroke="#63b8ff" d="M119.49,-97.55C151.71,-87.64 200.31,-72.7 235.71,-61.81"/>
<polygon fill="#63b8ff" stroke="#63b8ff" points="236.72,-65.16 245.25,-58.88 234.67,-58.47 236.72,-65.16"/>
</a>
</g>
</g>
<!-- Node8 -->
<g id="Node000008" class="node">
<title>Node8</title>
<g id="a_Node000008"><a xlink:href="classCellule.html#a4eecc7c38f6d8fa642804d9c7472d05e" target="_top" xlink:title="Obtient l&#39;état actuel de la cellule.">
<polygon fill="white" stroke="#666666" points="331.25,-20 232,-20 232,0 331.25,0 331.25,-20"/>
<text xml:space="preserve" text-anchor="middle" x="281.62" y="-6.5" font-family="Helvetica,sans-Serif" font-size="10.00">Cellule::obtenirEtat</text>
</a>
</g>
</g>
<!-- Node1&#45;&gt;Node8 -->
<g id="edge10_Node000001_Node000008" class="edge">
<title>Node1&#45;&gt;Node8</title>
<g id="a_edge10_Node000001_Node000008"><a xlink:title=" ">
<path fill="none" stroke="#63b8ff" d="M97.92,-97.69C118.77,-80.91 162.67,-47.66 205,-29 210.13,-26.74 215.59,-24.71 221.12,-22.9"/>
<polygon fill="#63b8ff" stroke="#63b8ff" points="221.79,-26.35 230.35,-20.12 219.77,-19.65 221.79,-26.35"/>
</a>
</g>
</g>
<!-- Node4 -->
<g id="Node000004" class="node">
<title>Node4</title>
<g id="a_Node000004"><a xlink:href="classGrille.html#aa4c9ce36bb4f2c59a83aeb39d73fc285" target="_top" xlink:title="Vérifie si une position est valide dans la grille.">
<polygon fill="white" stroke="#666666" points="653.5,-159 534,-159 534,-139 653.5,-139 653.5,-159"/>
<text xml:space="preserve" text-anchor="middle" x="593.75" y="-145.5" font-family="Helvetica,sans-Serif" font-size="10.00">Grille::estPositionValide</text>
</a>
</g>
</g>
<!-- Node3&#45;&gt;Node4 -->
<g id="edge3_Node000003_Node000004" class="edge">
<title>Node3&#45;&gt;Node4</title>
<g id="a_edge3_Node000003_Node000004"><a xlink:title=" ">
<path fill="none" stroke="#63b8ff" d="M358.49,-134.65C408.46,-137.71 473.43,-141.69 522.27,-144.68"/>
<polygon fill="#63b8ff" stroke="#63b8ff" points="521.98,-148.17 532.18,-145.29 522.41,-141.18 521.98,-148.17"/>
</a>
</g>
</g>
<!-- Node3&#45;&gt;Node5 -->
<g id="edge4_Node000003_Node000005" class="edge">
<title>Node3&#45;&gt;Node5</title>
<g id="a_edge4_Node000003_Node000005"><a xlink:title=" ">
<path fill="none" stroke="#63b8ff" d="M347.78,-113.56C362.69,-109.8 378.36,-105.85 392.65,-102.24"/>
<polygon fill="#63b8ff" stroke="#63b8ff" points="393.48,-105.64 402.32,-99.8 391.77,-98.85 393.48,-105.64"/>
</a>
</g>
</g>
<!-- Node3&#45;&gt;Node6 -->
<g id="edge5_Node000003_Node000006" class="edge">
<title>Node3&#45;&gt;Node6</title>
<g id="a_edge5_Node000003_Node000006"><a xlink:title=" ">
<path fill="none" stroke="#63b8ff" d="M352.95,-146.45C365.18,-149.3 377.73,-152.24 389.49,-154.99"/>
<polygon fill="#63b8ff" stroke="#63b8ff" points="388.47,-158.35 399.01,-157.22 390.07,-151.53 388.47,-158.35"/>
</a>
</g>
</g>
<!-- Node6&#45;&gt;Node4 -->
<g id="edge6_Node000006_Node000004" class="edge">
<title>Node6&#45;&gt;Node4</title>
<g id="a_edge6_Node000006_Node000004"><a xlink:title=" ">
<path fill="none" stroke="#63b8ff" d="M498.47,-161.3C506.2,-160.29 514.29,-159.24 522.35,-158.19"/>
<polygon fill="#63b8ff" stroke="#63b8ff" points="522.7,-161.67 532.16,-156.9 521.79,-154.73 522.7,-161.67"/>
</a>
</g>
</g>
</g>
</svg>

<g id="navigator" transform="translate(0 0)" fill="#404254">
  <rect fill="#f2f5e9" fill-opacity="0.5" stroke="#606060" stroke-width=".5" x="0" y="0" width="60" height="60"/>
  <use id="zoomplus" xlink:href="#zoomPlus" x="17" y="9" onmousedown="handleZoom(evt,'in')"/>
  <use id="zoomminus" xlink:href="#zoomMin" x="42" y="9" onmousedown="handleZoom(evt,'out')"/>
  <use id="reset" xlink:href="#resetDef" x="30" y="36" onmousedown="handleReset()"/>
   <use id="arrowup" xlink:href="#arrowUp" x="0" y="0" onmousedown="handlePan(0,-1)"/>
  <use id="arrowright" xlink:href="#arrowRight" x="0" y="0" onmousedown="handlePan(1,0)"/>
  <use id="arrowdown" xlink:href="#arrowDown" x="0" y="0" onmousedown="handlePan(0,1)"/>
  <use id="arrowleft" xlink:href="#arrowLeft" x="0" y="0" onmousedown="handlePan(-1,0)"/>
</g>
<svg viewBox="0 0 15 15" width="100%" height="30px" preserveAspectRatio="xMaxYMin meet">
 <g id="arrow_out" transform="scale(0.3 0.3)">
  <a xlink:href="classRegleStandard_a0c051f441f8b5aeac028872a7347fc35_cgraph_org.svg" target="_base">
   <rect id="button" ry="5" rx="5" y="6" x="6" height="38" width="38"
        fill="#f2f5e9" fill-opacity="0.5" stroke="#606060" stroke-width="1.0"/>
   <path id="arrow"
     d="M 11.500037,31.436501 C 11.940474,20.09759 22.043105,11.32322 32.158766,21.979434 L 37.068811,17.246167 C 37.068811,17.246167 37.088388,32 37.088388,32 L 22.160133,31.978069 C 22.160133,31.978069 26.997745,27.140456 26.997745,27.140456 C 18.528582,18.264221 13.291696,25.230495 11.500037,31.436501 z"
     style="fill:#404040;"/>
  </a>
 </g>
</svg>

<style type='text/css'>
<![CDATA[
[data-mouse-over-selected='false'] { opacity: 0.7; }
[data-mouse-over-selected='true']  { opacity: 1.0; }
]]>
</style>
<script type="application/ecmascript"><![CDATA[
document.addEventListener('DOMContentLoaded', (event) => {
  highlightEdges();
  highlightAdjacentNodes();
});
]]></script>
</svg>
