<?xml version="1.0" encoding="UTF-8" standalone="no"?>
<!DOCTYPE svg PUBLIC "-//W3C//DTD SVG 1.1//EN"
 "http://www.w3.org/Graphics/SVG/1.1/DTD/svg11.dtd">
<!-- Generated by graphviz version 14.0.2 (20251019.1705)
 -->
<!-- Title: ModeConsole::sauvegarderIteration Pages: 1 -->
<svg width="599pt" height="180pt"
 viewBox="0.00 0.00 599.00 180.00" xmlns="http://www.w3.org/2000/svg" xmlns:xlink="http://www.w3.org/1999/xlink">
<g id="graph0" class="graph" transform="scale(1 1) rotate(0) translate(4 176)">
<title>ModeConsole::sauvegarderIteration</title>
<!-- Node1 -->
<g id="Node000001" class="node">
<title>Node1</title>
<g id="a_Node000001"><a xlink:title="Sauvegarde la grille actuelle dans un fichier.">
<polygon fill="#999999" stroke="#666666" points="135.25,-102 0,-102 0,-70 135.25,-70 135.25,-102"/>
<text xml:space="preserve" text-anchor="start" x="8" y="-88.5" font-family="Helvetica,sans-Serif" font-size="10.00">ModeConsole::sauvegarder</text>
<text xml:space="preserve" text-anchor="middle" x="67.62" y="-76.5" font-family="Helvetica,sans-Serif" font-size="10.00">Iteration</text>
</a>
</g>
</g>
<!-- Node2 -->
<g id="Node000002" class="node">
<title>Node2</title>
<g id="a_Node000002"><a xlink:href="classGestionnaireFichier.html#a7f617aede460be3b06c7dd842d7e2732" target="_top" xlink:title="Sauvegarde une grille dans un fichier.">
<polygon fill="white" stroke="#666666" points="271.25,-102 171.25,-102 171.25,-70 271.25,-70 271.25,-102"/>
<text xml:space="preserve" text-anchor="start" x="179.25" y="-88.5" font-family="Helvetica,sans-Serif" font-size="10.00">GestionnaireFichier</text>
<text xml:space="preserve" text-anchor="middle" x="221.25" y="-76.5" font-family="Helvetica,sans-Serif" font-size="10.00">::sauvegarderGrille</text>
</a>
</g>
</g>
<!-- Node1&#45;&gt;Node2 -->
<g id="edge1_Node000001_Node000002" class="edge">
<title>Node1&#45;&gt;Node2</title>
<g id="a_edge1_Node000001_Node000002"><a xlink:title=" ">
<path fill="none" stroke="#63b8ff" d="M135.57,-86C143.57,-86 151.7,-86 159.59,-86"/>
<polygon fill="#63b8ff" stroke="#63b8ff" points="159.45,-89.5 169.45,-86 159.45,-82.5 159.45,-89.5"/>
</a>
</g>
</g>
<!-- Node3 -->
<g id="Node000003" class="node">
<title>Node3</title>
<g id="a_Node000003"><a xlink:href="classGrille.html#aab75610fe73ae48bd035a048c55832f0" target="_top" xlink:title="Obtient une cellule à une position donnée.">
<polygon fill="white" stroke="#666666" points="423,-172 319.25,-172 319.25,-152 423,-152 423,-172"/>
<text xml:space="preserve" text-anchor="middle" x="371.12" y="-158.5" font-family="Helvetica,sans-Serif" font-size="10.00">Grille::obtenirCellule</text>
</a>
</g>
</g>
<!-- Node2&#45;&gt;Node3 -->
<g id="edge2_Node000002_Node000003" class="edge">
<title>Node2&#45;&gt;Node3</title>
<g id="a_edge2_Node000002_Node000003"><a xlink:title=" ">
<path fill="none" stroke="#63b8ff" d="M242.86,-102.38C259.45,-114.92 283.8,-131.9 307.25,-143 310.81,-144.69 314.56,-146.26 318.37,-147.73"/>
<polygon fill="#63b8ff" stroke="#63b8ff" points="317.19,-151.02 327.78,-151.06 319.52,-144.42 317.19,-151.02"/>
</a>
</g>
</g>
<!-- Node5 -->
<g id="Node000005" class="node">
<title>Node5</title>
<g id="a_Node000005"><a xlink:href="classCellule.html#a4eecc7c38f6d8fa642804d9c7472d05e" target="_top" xlink:title="Obtient l&#39;état actuel de la cellule.">
<polygon fill="white" stroke="#666666" points="420.75,-134 321.5,-134 321.5,-114 420.75,-114 420.75,-134"/>
<text xml:space="preserve" text-anchor="middle" x="371.12" y="-120.5" font-family="Helvetica,sans-Serif" font-size="10.00">Cellule::obtenirEtat</text>
</a>
</g>
</g>
<!-- Node2&#45;&gt;Node5 -->
<g id="edge4_Node000002_Node000005" class="edge">
<title>Node2&#45;&gt;Node5</title>
<g id="a_edge4_Node000002_Node000005"><a xlink:title=" ">
<path fill="none" stroke="#63b8ff" d="M271.49,-98.65C286.63,-102.55 303.34,-106.84 318.63,-110.77"/>
<polygon fill="#63b8ff" stroke="#63b8ff" points="317.45,-114.08 328.01,-113.18 319.19,-107.3 317.45,-114.08"/>
</a>
</g>
</g>
<!-- Node6 -->
<g id="Node000006" class="node">
<title>Node6</title>
<g id="a_Node000006"><a xlink:href="classGrille.html#a1ab5c8e0ea0d1dc21549c38d0f0f5cf9" target="_top" xlink:title="Obtient le nombre de colonnes.">
<polygon fill="white" stroke="#666666" points="435,-96 307.25,-96 307.25,-76 435,-76 435,-96"/>
<text xml:space="preserve" text-anchor="middle" x="371.12" y="-82.5" font-family="Helvetica,sans-Serif" font-size="10.00">Grille::obtenirNbColonnes</text>
</a>
</g>
</g>
<!-- Node2&#45;&gt;Node6 -->
<g id="edge5_Node000002_Node000006" class="edge">
<title>Node2&#45;&gt;Node6</title>
<g id="a_edge5_Node000002_Node000006"><a xlink:title=" ">
<path fill="none" stroke="#63b8ff" d="M271.49,-86C279.2,-86 287.31,-86 295.44,-86"/>
<polygon fill="#63b8ff" stroke="#63b8ff" points="295.38,-89.5 305.38,-86 295.38,-82.5 295.38,-89.5"/>
</a>
</g>
</g>
<!-- Node7 -->
<g id="Node000007" class="node">
<title>Node7</title>
<g id="a_Node000007"><a xlink:href="classGrille.html#a96b5f98d212a0ee9e2f71d73ebe5bb91" target="_top" xlink:title="Obtient le nombre de lignes.">
<polygon fill="white" stroke="#666666" points="428.62,-58 313.62,-58 313.62,-38 428.62,-38 428.62,-58"/>
<text xml:space="preserve" text-anchor="middle" x="371.12" y="-44.5" font-family="Helvetica,sans-Serif" font-size="10.00">Grille::obtenirNbLignes</text>
</a>
</g>
</g>
<!-- Node2&#45;&gt;Node7 -->
<g id="edge6_Node000002_Node000007" class="edge">
<title>Node2&#45;&gt;Node7</title>
<g id="a_edge6_Node000002_Node000007"><a xlink:title=" ">
<path fill="none" stroke="#63b8ff" d="M271.49,-73.35C286.63,-69.45 303.34,-65.16 318.63,-61.23"/>
<polygon fill="#63b8ff" stroke="#63b8ff" points="319.19,-64.7 328.01,-58.82 317.45,-57.92 319.19,-64.7"/>
</a>
</g>
</g>
<!-- Node8 -->
<g id="Node000008" class="node">
<title>Node8</title>
<g id="a_Node000008"><a xlink:href="classEtatCellule.html#a951476a3806853a1db9ed7303171162c" target="_top" xlink:title="Obtient la valeur entière de l&#39;état (pour sauvegarder).">
<polygon fill="white" stroke="#666666" points="428.25,-20 314,-20 314,0 428.25,0 428.25,-20"/>
<text xml:space="preserve" text-anchor="middle" x="371.12" y="-6.5" font-family="Helvetica,sans-Serif" font-size="10.00">EtatCellule::versEntier</text>
</a>
</g>
</g>
<!-- Node2&#45;&gt;Node8 -->
<g id="edge7_Node000002_Node000008" class="edge">
<title>Node2&#45;&gt;Node8</title>
<g id="a_edge7_Node000002_Node000008"><a xlink:title=" ">
<path fill="none" stroke="#63b8ff" d="M242.86,-69.62C259.45,-57.08 283.8,-40.1 307.25,-29 310.81,-27.31 314.56,-25.74 318.37,-24.27"/>
<polygon fill="#63b8ff" stroke="#63b8ff" points="319.52,-27.58 327.78,-20.94 317.19,-20.98 319.52,-27.58"/>
</a>
</g>
</g>
<!-- Node4 -->
<g id="Node000004" class="node">
<title>Node4</title>
<g id="a_Node000004"><a xlink:href="classGrille.html#aa4c9ce36bb4f2c59a83aeb39d73fc285" target="_top" xlink:title="Vérifie si une position est valide dans la grille.">
<polygon fill="white" stroke="#666666" points="590.5,-172 471,-172 471,-152 590.5,-152 590.5,-172"/>
<text xml:space="preserve" text-anchor="middle" x="530.75" y="-158.5" font-family="Helvetica,sans-Serif" font-size="10.00">Grille::estPositionValide</text>
</a>
</g>
</g>
<!-- Node3&#45;&gt;Node4 -->
<g id="edge3_Node000003_Node000004" class="edge">
<title>Node3&#45;&gt;Node4</title>
<g id="a_edge3_Node000003_Node000004"><a xlink:title=" ">
<path fill="none" stroke="#63b8ff" d="M423.3,-162C434.75,-162 447.08,-162 459.16,-162"/>
<polygon fill="#63b8ff" stroke="#63b8ff" points="459.1,-165.5 469.1,-162 459.1,-158.5 459.1,-165.5"/>
</a>
</g>
</g>
</g>
</svg>
