<?xml version="1.0" encoding="UTF-8" standalone="no"?>
<!DOCTYPE svg PUBLIC "-//W3C//DTD SVG 1.1//EN"
 "http://www.w3.org/Graphics/SVG/1.1/DTD/svg11.dtd">
<!-- Generated by graphviz version 14.0.2 (20251019.1705)
 -->
<!-- Title: InterfaceSFML::dessinerGrille Pages: 1 -->
<svg width="473pt" height="180pt"
 viewBox="0.00 0.00 473.00 180.00" xmlns="http://www.w3.org/2000/svg" xmlns:xlink="http://www.w3.org/1999/xlink">
<g id="graph0" class="graph" transform="scale(1 1) rotate(0) translate(4 176)">
<title>InterfaceSFML::dessinerGrille</title>
<!-- Node1 -->
<g id="Node000001" class="node">
<title>Node1</title>
<g id="a_Node000001"><a xlink:title="Dessine la grille.">
<polygon fill="#999999" stroke="#666666" points="145.75,-96 0,-96 0,-76 145.75,-76 145.75,-96"/>
<text xml:space="preserve" text-anchor="middle" x="72.88" y="-82.5" font-family="Helvetica,sans-Serif" font-size="10.00">InterfaceSFML::dessinerGrille</text>
</a>
</g>
</g>
<!-- Node2 -->
<g id="Node000002" class="node">
<title>Node2</title>
<g id="a_Node000002"><a xlink:href="classCellule.html#a4e34ac281afdba1d793fbd0239022a5e" target="_top" xlink:title="Vérifie si la cellule est un obstacle.">
<polygon fill="white" stroke="#666666" points="297.88,-172 193.38,-172 193.38,-152 297.88,-152 297.88,-172"/>
<text xml:space="preserve" text-anchor="middle" x="245.62" y="-158.5" font-family="Helvetica,sans-Serif" font-size="10.00">Cellule::estObstacle</text>
</a>
</g>
</g>
<!-- Node1&#45;&gt;Node2 -->
<g id="edge1_Node000001_Node000002" class="edge">
<title>Node1&#45;&gt;Node2</title>
<g id="a_edge1_Node000001_Node000002"><a xlink:title=" ">
<path fill="none" stroke="#63b8ff" d="M90.94,-96.34C111.8,-108.67 148.44,-129.32 181.75,-143 186.08,-144.78 190.64,-146.48 195.24,-148.07"/>
<polygon fill="#63b8ff" stroke="#63b8ff" points="193.95,-151.33 204.54,-151.13 196.13,-144.68 193.95,-151.33"/>
</a>
</g>
</g>
<!-- Node3 -->
<g id="Node000003" class="node">
<title>Node3</title>
<g id="a_Node000003"><a xlink:href="classCellule.html#a70d2731234961e330fe0a31486d1dec7" target="_top" xlink:title="Vérifie si la cellule est vivante.">
<polygon fill="white" stroke="#666666" points="294.88,-134 196.38,-134 196.38,-114 294.88,-114 294.88,-134"/>
<text xml:space="preserve" text-anchor="middle" x="245.62" y="-120.5" font-family="Helvetica,sans-Serif" font-size="10.00">Cellule::estVivante</text>
</a>
</g>
</g>
<!-- Node1&#45;&gt;Node3 -->
<g id="edge2_Node000001_Node000003" class="edge">
<title>Node1&#45;&gt;Node3</title>
<g id="a_edge2_Node000001_Node000003"><a xlink:title=" ">
<path fill="none" stroke="#63b8ff" d="M120.99,-96.48C141.23,-100.99 165.1,-106.3 186.44,-111.05"/>
<polygon fill="#63b8ff" stroke="#63b8ff" points="185.67,-114.47 196.19,-113.22 187.19,-107.63 185.67,-114.47"/>
</a>
</g>
</g>
<!-- Node4 -->
<g id="Node000004" class="node">
<title>Node4</title>
<g id="a_Node000004"><a xlink:href="classGrille.html#aab75610fe73ae48bd035a048c55832f0" target="_top" xlink:title="Obtient une cellule à une position donnée.">
<polygon fill="white" stroke="#666666" points="297.5,-96 193.75,-96 193.75,-76 297.5,-76 297.5,-96"/>
<text xml:space="preserve" text-anchor="middle" x="245.62" y="-82.5" font-family="Helvetica,sans-Serif" font-size="10.00">Grille::obtenirCellule</text>
</a>
</g>
</g>
<!-- Node1&#45;&gt;Node4 -->
<g id="edge3_Node000001_Node000004" class="edge">
<title>Node1&#45;&gt;Node4</title>
<g id="a_edge3_Node000001_Node000004"><a xlink:title=" ">
<path fill="none" stroke="#63b8ff" d="M145.79,-86C157.76,-86 170.08,-86 181.79,-86"/>
<polygon fill="#63b8ff" stroke="#63b8ff" points="181.76,-89.5 191.76,-86 181.76,-82.5 181.76,-89.5"/>
</a>
</g>
</g>
<!-- Node6 -->
<g id="Node000006" class="node">
<title>Node6</title>
<g id="a_Node000006"><a xlink:href="classGrille.html#a1ab5c8e0ea0d1dc21549c38d0f0f5cf9" target="_top" xlink:title="Obtient le nombre de colonnes.">
<polygon fill="white" stroke="#666666" points="309.5,-58 181.75,-58 181.75,-38 309.5,-38 309.5,-58"/>
<text xml:space="preserve" text-anchor="middle" x="245.62" y="-44.5" font-family="Helvetica,sans-Serif" font-size="10.00">Grille::obtenirNbColonnes</text>
</a>
</g>
</g>
<!-- Node1&#45;&gt;Node6 -->
<g id="edge5_Node000001_Node000006" class="edge">
<title>Node1&#45;&gt;Node6</title>
<g id="a_edge5_Node000001_Node000006"><a xlink:title=" ">
<path fill="none" stroke="#63b8ff" d="M120.99,-75.52C141.23,-71.01 165.1,-65.7 186.44,-60.95"/>
<polygon fill="#63b8ff" stroke="#63b8ff" points="187.19,-64.37 196.19,-58.78 185.67,-57.53 187.19,-64.37"/>
</a>
</g>
</g>
<!-- Node7 -->
<g id="Node000007" class="node">
<title>Node7</title>
<g id="a_Node000007"><a xlink:href="classGrille.html#a96b5f98d212a0ee9e2f71d73ebe5bb91" target="_top" xlink:title="Obtient le nombre de lignes.">
<polygon fill="white" stroke="#666666" points="303.12,-20 188.12,-20 188.12,0 303.12,0 303.12,-20"/>
<text xml:space="preserve" text-anchor="middle" x="245.62" y="-6.5" font-family="Helvetica,sans-Serif" font-size="10.00">Grille::obtenirNbLignes</text>
</a>
</g>
</g>
<!-- Node1&#45;&gt;Node7 -->
<g id="edge6_Node000001_Node000007" class="edge">
<title>Node1&#45;&gt;Node7</title>
<g id="a_edge6_Node000001_Node000007"><a xlink:title=" ">
<path fill="none" stroke="#63b8ff" d="M90.94,-75.66C111.8,-63.33 148.44,-42.68 181.75,-29 186.08,-27.22 190.64,-25.52 195.24,-23.93"/>
<polygon fill="#63b8ff" stroke="#63b8ff" points="196.13,-27.32 204.54,-20.87 193.95,-20.67 196.13,-27.32"/>
</a>
</g>
</g>
<!-- Node5 -->
<g id="Node000005" class="node">
<title>Node5</title>
<g id="a_Node000005"><a xlink:href="classGrille.html#aa4c9ce36bb4f2c59a83aeb39d73fc285" target="_top" xlink:title="Vérifie si une position est valide dans la grille.">
<polygon fill="white" stroke="#666666" points="465,-96 345.5,-96 345.5,-76 465,-76 465,-96"/>
<text xml:space="preserve" text-anchor="middle" x="405.25" y="-82.5" font-family="Helvetica,sans-Serif" font-size="10.00">Grille::estPositionValide</text>
</a>
</g>
</g>
<!-- Node4&#45;&gt;Node5 -->
<g id="edge4_Node000004_Node000005" class="edge">
<title>Node4&#45;&gt;Node5</title>
<g id="a_edge4_Node000004_Node000005"><a xlink:title=" ">
<path fill="none" stroke="#63b8ff" d="M297.8,-86C309.25,-86 321.58,-86 333.66,-86"/>
<polygon fill="#63b8ff" stroke="#63b8ff" points="333.6,-89.5 343.6,-86 333.6,-82.5 333.6,-89.5"/>
</a>
</g>
</g>
</g>
</svg>
