<?xml version="1.0" encoding="UTF-8" standalone="no"?>
<!DOCTYPE svg PUBLIC "-//W3C//DTD SVG 1.1//EN"
 "http://www.w3.org/Graphics/SVG/1.1/DTD/svg11.dtd">
<!-- Generated by graphviz version 14.0.2 (20251019.1705)
 -->
<!-- Title: include/Constantes.hpp Pages: 1 -->
<!--zoomable 252 -->

<svg id="main" version="1.1" xmlns="http://www.w3.org/2000/svg" xmlns:xlink="http://www.w3.org/1999/xlink" xml:space="preserve" onload="init(evt)">

<style type="text/css"><![CDATA[
.node, .edge {opacity: 0.7;}
.node.selected, .edge.selected {opacity: 1;}
.edge:hover path { stroke: red; }
.edge:hover polygon { stroke: red; fill: red; }
]]></style>

<defs>
  <circle id="rim" cx="0" cy="0" r="7"/>
  <circle id="rim2" cx="0" cy="0" r="3.5"/>
  <g id="zoomPlus">
    <use xlink:href="#rim" fill="#404040"><set attributeName="fill" to="#808080" begin="zoomplus.mouseover" end="zoomplus.mouseout"/></use>
    <path d="M-4,0h8M0,-4v8" fill="none" stroke="white" stroke-width="1.5" pointer-events="none"/>
  </g>
  <g id="zoomMin">
    <use xlink:href="#rim" fill="#404040"><set attributeName="fill" to="#808080" begin="zoomminus.mouseover" end="zoomminus.mouseout"/></use>
    <path d="M-4,0h8" fill="none" stroke="white" stroke-width="1.5" pointer-events="none"/>
  </g>
  <g id="arrowUp" transform="translate(30 24)">
    <use xlink:href="#rim"/>
    <path pointer-events="none" fill="none" stroke="white" stroke-width="1.5" d="M0,-3.0v7 M-2.5,-0.5L0,-3.0L2.5,-0.5"/>
  </g>
  <g id="arrowRight" transform="rotate(90) translate(36 -43)">
    <use xlink:href="#rim"/>
    <path pointer-events="none" fill="none" stroke="white" stroke-width="1.5" d="M0,-3.0v7 M-2.5,-0.5L0,-3.0L2.5,-0.5"/>
  </g>
  <g id="arrowDown" transform="rotate(180) translate(-30 -48)">
    <use xlink:href="#rim"/>
    <path pointer-events="none" fill="none" stroke="white" stroke-width="1.5" d="M0,-3.0v7 M-2.5,-0.5L0,-3.0L2.5,-0.5"/>
  </g>
  <g id="arrowLeft" transform="rotate(270) translate(-36 17)">
    <use xlink:href="#rim"/>
    <path pointer-events="none" fill="none" stroke="white" stroke-width="1.5" d="M0,-3.0v7 M-2.5,-0.5L0,-3.0L2.5,-0.5"/>
  </g>
  <g id="resetDef">
    <use xlink:href="#rim2" fill="#404040"><set attributeName="fill" to="#808080" begin="reset.mouseover" end="reset.mouseout"/></use>
  </g>
</defs>
<script type="application/ecmascript">
var viewWidth = 1085;
var viewHeight = 252;
var sectionId = 'dynsection-0';
</script>
<script type="application/ecmascript" xlink:href="svg.min.js"/>
<svg id="graph" class="graph">
<g id="viewport">
<title>include/Constantes.hpp</title>
<!-- Node1 -->
<g id="Node000001" class="node">
<title>Node1</title>
<g id="a_Node000001"><a xlink:title="Configuration centralisée du projet.">
<polygon fill="#999999" stroke="#666666" points="452.25,-244 333.5,-244 333.5,-224 452.25,-224 452.25,-244"/>
<text xml:space="preserve" text-anchor="middle" x="392.88" y="-230.5" font-family="Helvetica,sans-Serif" font-size="10.00">include/Constantes.hpp</text>
</a>
</g>
</g>
<!-- Node2 -->
<g id="Node000002" class="node">
<title>Node2</title>
<g id="a_Node000002"><a xlink:href="Grille_8hpp.html" target="_top" xlink:title=" ">
<polygon fill="white" stroke="#666666" points="615.38,-188 524.38,-188 524.38,-168 615.38,-168 615.38,-188"/>
<text xml:space="preserve" text-anchor="middle" x="569.88" y="-174.5" font-family="Helvetica,sans-Serif" font-size="10.00">include/Grille.hpp</text>
</a>
</g>
</g>
<!-- Node1&#45;&gt;Node2 -->
<g id="edge1_Node000001_Node000002" class="edge">
<title>Node1&#45;&gt;Node2</title>
<g id="a_edge1_Node000001_Node000002"><a xlink:title=" ">
<path fill="none" stroke="#63b8ff" d="M434.49,-220.31C466.43,-210.56 509.84,-197.32 538.8,-188.48"/>
<polygon fill="#63b8ff" stroke="#63b8ff" points="433.7,-216.89 425.15,-223.15 435.74,-223.58 433.7,-216.89"/>
</a>
</g>
</g>
<!-- Node7 -->
<g id="Node000007" class="node">
<title>Node7</title>
<g id="a_Node000007"><a xlink:href="JeuDeLaVie_8hpp.html" target="_top" xlink:title=" ">
<polygon fill="white" stroke="#666666" points="453.75,-132 332,-132 332,-112 453.75,-112 453.75,-132"/>
<text xml:space="preserve" text-anchor="middle" x="392.88" y="-118.5" font-family="Helvetica,sans-Serif" font-size="10.00">include/JeuDeLaVie.hpp</text>
</a>
</g>
</g>
<!-- Node1&#45;&gt;Node7 -->
<g id="edge22_Node000001_Node000007" class="edge">
<title>Node1&#45;&gt;Node7</title>
<g id="a_edge22_Node000001_Node000007"><a xlink:title=" ">
<path fill="none" stroke="#63b8ff" d="M392.88,-212.31C392.88,-188.36 392.88,-149.95 392.88,-132.35"/>
<polygon fill="#63b8ff" stroke="#63b8ff" points="389.38,-212.11 392.88,-222.11 396.38,-212.11 389.38,-212.11"/>
</a>
</g>
</g>
<!-- Node11 -->
<g id="Node000011" class="node">
<title>Node11</title>
<g id="a_Node000011"><a xlink:href="InterfaceSFML_8cpp.html" target="_top" xlink:title=" ">
<polygon fill="white" stroke="#666666" points="115.75,-20 0,-20 0,0 115.75,0 115.75,-20"/>
<text xml:space="preserve" text-anchor="middle" x="57.88" y="-6.5" font-family="Helvetica,sans-Serif" font-size="10.00">src/InterfaceSFML.cpp</text>
</a>
</g>
</g>
<!-- Node1&#45;&gt;Node11 -->
<g id="edge23_Node000001_Node000011" class="edge">
<title>Node1&#45;&gt;Node11</title>
<g id="a_edge23_Node000001_Node000011"><a xlink:title=" ">
<path fill="none" stroke="#63b8ff" d="M339.39,-220.68C268.94,-201.68 145.93,-158.48 76.88,-76 63.29,-59.77 59.42,-34.23 58.31,-20.49"/>
<polygon fill="#63b8ff" stroke="#63b8ff" points="338.2,-223.99 348.76,-223.14 339.98,-217.21 338.2,-223.99"/>
</a>
</g>
</g>
<!-- Node3 -->
<g id="Node000003" class="node">
<title>Node3</title>
<g id="a_Node000003"><a xlink:href="GestionnaireFichier_8hpp.html" target="_top" xlink:title=" ">
<polygon fill="white" stroke="#666666" points="833.12,-76 680.62,-76 680.62,-56 833.12,-56 833.12,-76"/>
<text xml:space="preserve" text-anchor="middle" x="756.88" y="-62.5" font-family="Helvetica,sans-Serif" font-size="10.00">include/GestionnaireFichier.hpp</text>
</a>
</g>
</g>
<!-- Node2&#45;&gt;Node3 -->
<g id="edge2_Node000002_Node000003" class="edge">
<title>Node2&#45;&gt;Node3</title>
<g id="a_edge2_Node000002_Node000003"><a xlink:title=" ">
<path fill="none" stroke="#63b8ff" d="M608.51,-163.55C629.16,-155.63 654.64,-144.7 675.88,-132 703.73,-115.35 732.46,-89.98 747.06,-76.38"/>
<polygon fill="#63b8ff" stroke="#63b8ff" points="607.45,-160.2 599.31,-166.98 609.9,-166.76 607.45,-160.2"/>
</a>
</g>
</g>
<!-- Node2&#45;&gt;Node7 -->
<g id="edge6_Node000002_Node000007" class="edge">
<title>Node2&#45;&gt;Node7</title>
<g id="a_edge6_Node000002_Node000007"><a xlink:title=" ">
<path fill="none" stroke="#63b8ff" d="M528.26,-164.31C496.32,-154.56 452.91,-141.32 423.95,-132.48"/>
<polygon fill="#63b8ff" stroke="#63b8ff" points="527.01,-167.58 537.6,-167.15 529.05,-160.89 527.01,-167.58"/>
</a>
</g>
</g>
<!-- Node14 -->
<g id="Node000014" class="node">
<title>Node14</title>
<g id="a_Node000014"><a xlink:href="TestsUnitaires_8hpp.html" target="_top" xlink:title=" ">
<polygon fill="white" stroke="#666666" points="963.62,-132 832.12,-132 832.12,-112 963.62,-112 963.62,-132"/>
<text xml:space="preserve" text-anchor="middle" x="897.88" y="-118.5" font-family="Helvetica,sans-Serif" font-size="10.00">include/TestsUnitaires.hpp</text>
</a>
</g>
</g>
<!-- Node2&#45;&gt;Node14 -->
<g id="edge17_Node000002_Node000014" class="edge">
<title>Node2&#45;&gt;Node14</title>
<g id="a_edge17_Node000002_Node000014"><a xlink:title=" ">
<path fill="none" stroke="#63b8ff" d="M626.96,-167.6C686.82,-157.75 780.36,-142.35 840.37,-132.47"/>
<polygon fill="#63b8ff" stroke="#63b8ff" points="626.62,-164.11 617.32,-169.19 627.76,-171.02 626.62,-164.11"/>
</a>
</g>
</g>
<!-- Node17 -->
<g id="Node000017" class="node">
<title>Node17</title>
<g id="a_Node000017"><a xlink:href="Grille_8cpp.html" target="_top" xlink:title=" ">
<polygon fill="white" stroke="#666666" points="556.75,-132 483,-132 483,-112 556.75,-112 556.75,-132"/>
<text xml:space="preserve" text-anchor="middle" x="519.88" y="-118.5" font-family="Helvetica,sans-Serif" font-size="10.00">src/Grille.cpp</text>
</a>
</g>
</g>
<!-- Node2&#45;&gt;Node17 -->
<g id="edge20_Node000002_Node000017" class="edge">
<title>Node2&#45;&gt;Node17</title>
<g id="a_edge20_Node000002_Node000017"><a xlink:title=" ">
<path fill="none" stroke="#63b8ff" d="M553.47,-159.29C545.13,-150.28 535.34,-139.7 528.48,-132.3"/>
<polygon fill="#63b8ff" stroke="#63b8ff" points="550.78,-161.52 560.14,-166.48 555.91,-156.77 550.78,-161.52"/>
</a>
</g>
</g>
<!-- Node18 -->
<g id="Node000018" class="node">
<title>Node18</title>
<g id="a_Node000018"><a xlink:href="RegleJeu_8cpp.html" target="_top" xlink:title=" ">
<polygon fill="white" stroke="#666666" points="667.12,-132 574.62,-132 574.62,-112 667.12,-112 667.12,-132"/>
<text xml:space="preserve" text-anchor="middle" x="620.88" y="-118.5" font-family="Helvetica,sans-Serif" font-size="10.00">src/RegleJeu.cpp</text>
</a>
</g>
</g>
<!-- Node2&#45;&gt;Node18 -->
<g id="edge21_Node000002_Node000018" class="edge">
<title>Node2&#45;&gt;Node18</title>
<g id="a_edge21_Node000002_Node000018"><a xlink:title=" ">
<path fill="none" stroke="#63b8ff" d="M586.61,-159.29C595.11,-150.28 605.1,-139.7 612.09,-132.3"/>
<polygon fill="#63b8ff" stroke="#63b8ff" points="584.12,-156.82 579.8,-166.49 589.21,-161.63 584.12,-156.82"/>
</a>
</g>
</g>
<!-- Node4 -->
<g id="Node000004" class="node">
<title>Node4</title>
<g id="a_Node000004"><a xlink:href="GestionnaireFichier_8cpp.html" target="_top" xlink:title=" ">
<polygon fill="white" stroke="#666666" points="824.5,-20 689.25,-20 689.25,0 824.5,0 824.5,-20"/>
<text xml:space="preserve" text-anchor="middle" x="756.88" y="-6.5" font-family="Helvetica,sans-Serif" font-size="10.00">src/GestionnaireFichier.cpp</text>
</a>
</g>
</g>
<!-- Node3&#45;&gt;Node4 -->
<g id="edge3_Node000003_Node000004" class="edge">
<title>Node3&#45;&gt;Node4</title>
<g id="a_edge3_Node000003_Node000004"><a xlink:title=" ">
<path fill="none" stroke="#63b8ff" d="M756.88,-44.13C756.88,-35.9 756.88,-26.85 756.88,-20.3"/>
<polygon fill="#63b8ff" stroke="#63b8ff" points="753.38,-44.08 756.88,-54.08 760.38,-44.08 753.38,-44.08"/>
</a>
</g>
</g>
<!-- Node5 -->
<g id="Node000005" class="node">
<title>Node5</title>
<g id="a_Node000005"><a xlink:href="ModeConsole_8cpp.html" target="_top" xlink:title=" ">
<polygon fill="white" stroke="#666666" points="662.5,-20 551.25,-20 551.25,0 662.5,0 662.5,-20"/>
<text xml:space="preserve" text-anchor="middle" x="606.88" y="-6.5" font-family="Helvetica,sans-Serif" font-size="10.00">src/ModeConsole.cpp</text>
</a>
</g>
</g>
<!-- Node3&#45;&gt;Node5 -->
<g id="edge4_Node000003_Node000005" class="edge">
<title>Node3&#45;&gt;Node5</title>
<g id="a_edge4_Node000003_Node000005"><a xlink:title=" ">
<path fill="none" stroke="#63b8ff" d="M720.18,-51.79C693.26,-42.1 657.32,-29.16 633.21,-20.48"/>
<polygon fill="#63b8ff" stroke="#63b8ff" points="718.73,-54.99 729.32,-55.08 721.1,-48.4 718.73,-54.99"/>
</a>
</g>
</g>
<!-- Node6 -->
<g id="Node000006" class="node">
<title>Node6</title>
<g id="a_Node000006"><a xlink:href="main_8cpp.html" target="_top" xlink:title=" ">
<polygon fill="white" stroke="#666666" points="476,-20 403.75,-20 403.75,0 476,0 476,-20"/>
<text xml:space="preserve" text-anchor="middle" x="439.88" y="-6.5" font-family="Helvetica,sans-Serif" font-size="10.00">src/main.cpp</text>
</a>
</g>
</g>
<!-- Node3&#45;&gt;Node6 -->
<g id="edge5_Node000003_Node000006" class="edge">
<title>Node3&#45;&gt;Node6</title>
<g id="a_edge5_Node000003_Node000006"><a xlink:title=" ">
<path fill="none" stroke="#63b8ff" d="M690.31,-53.66C625.12,-42.56 528.21,-26.05 476.12,-17.17"/>
<polygon fill="#63b8ff" stroke="#63b8ff" points="689.36,-57.05 699.8,-55.28 690.53,-50.15 689.36,-57.05"/>
</a>
</g>
</g>
<!-- Node7&#45;&gt;Node6 -->
<g id="edge16_Node000007_Node000006" class="edge">
<title>Node7&#45;&gt;Node6</title>
<g id="a_edge16_Node000007_Node000006"><a xlink:title=" ">
<path fill="none" stroke="#63b8ff" d="M392.81,-100.55C393.46,-87.33 395.62,-70.04 401.88,-56 408.2,-41.8 420.41,-28.6 429.29,-20.22"/>
<polygon fill="#63b8ff" stroke="#63b8ff" points="389.32,-100.15 392.6,-110.22 396.32,-100.3 389.32,-100.15"/>
</a>
</g>
</g>
<!-- Node8 -->
<g id="Node000008" class="node">
<title>Node8</title>
<g id="a_Node000008"><a xlink:href="InterfaceQt_8hpp.html" target="_top" xlink:title=" ">
<polygon fill="white" stroke="#666666" points="203.5,-76 86.25,-76 86.25,-56 203.5,-56 203.5,-76"/>
<text xml:space="preserve" text-anchor="middle" x="144.88" y="-62.5" font-family="Helvetica,sans-Serif" font-size="10.00">include/InterfaceQt.hpp</text>
</a>
</g>
</g>
<!-- Node7&#45;&gt;Node8 -->
<g id="edge7_Node000007_Node000008" class="edge">
<title>Node7&#45;&gt;Node8</title>
<g id="a_edge7_Node000007_Node000008"><a xlink:title=" ">
<path fill="none" stroke="#63b8ff" d="M338.34,-109.13C293.24,-99.31 230.04,-85.54 188.31,-76.46"/>
<polygon fill="#63b8ff" stroke="#63b8ff" points="337.4,-112.5 347.91,-111.21 338.89,-105.66 337.4,-112.5"/>
</a>
</g>
</g>
<!-- Node10 -->
<g id="Node000010" class="node">
<title>Node10</title>
<g id="a_Node000010"><a xlink:href="InterfaceSFML_8hpp.html" target="_top" xlink:title=" ">
<polygon fill="white" stroke="#666666" points="354.38,-76 221.38,-76 221.38,-56 354.38,-56 354.38,-76"/>
<text xml:space="preserve" text-anchor="middle" x="287.88" y="-62.5" font-family="Helvetica,sans-Serif" font-size="10.00">include/InterfaceSFML.hpp</text>
</a>
</g>
</g>
<!-- Node7&#45;&gt;Node10 -->
<g id="edge9_Node000007_Node000010" class="edge">
<title>Node7&#45;&gt;Node10</title>
<g id="a_edge9_Node000007_Node000010"><a xlink:title=" ">
<path fill="none" stroke="#63b8ff" d="M364.38,-106.35C345.9,-96.84 322.36,-84.74 306.31,-76.48"/>
<polygon fill="#63b8ff" stroke="#63b8ff" points="362.75,-109.44 373.24,-110.9 365.95,-103.22 362.75,-109.44"/>
</a>
</g>
</g>
<!-- Node12 -->
<g id="Node000012" class="node">
<title>Node12</title>
<g id="a_Node000012"><a xlink:href="ModeConsole_8hpp.html" target="_top" xlink:title=" ">
<polygon fill="white" stroke="#666666" points="662.12,-76 533.62,-76 533.62,-56 662.12,-56 662.12,-76"/>
<text xml:space="preserve" text-anchor="middle" x="597.88" y="-62.5" font-family="Helvetica,sans-Serif" font-size="10.00">include/ModeConsole.hpp</text>
</a>
</g>
</g>
<!-- Node7&#45;&gt;Node12 -->
<g id="edge12_Node000007_Node000012" class="edge">
<title>Node7&#45;&gt;Node12</title>
<g id="a_edge12_Node000007_Node000012"><a xlink:title=" ">
<path fill="none" stroke="#63b8ff" d="M439.62,-108.69C476.75,-98.91 527.9,-85.43 561.89,-76.48"/>
<polygon fill="#63b8ff" stroke="#63b8ff" points="438.83,-105.28 430.05,-111.21 440.61,-112.05 438.83,-105.28"/>
</a>
</g>
</g>
<!-- Node13 -->
<g id="Node000013" class="node">
<title>Node13</title>
<g id="a_Node000013"><a xlink:href="JeuDeLaVie_8cpp.html" target="_top" xlink:title=" ">
<polygon fill="white" stroke="#666666" points="515.12,-76 410.62,-76 410.62,-56 515.12,-56 515.12,-76"/>
<text xml:space="preserve" text-anchor="middle" x="462.88" y="-62.5" font-family="Helvetica,sans-Serif" font-size="10.00">src/JeuDeLaVie.cpp</text>
</a>
</g>
</g>
<!-- Node7&#45;&gt;Node13 -->
<g id="edge15_Node000007_Node000013" class="edge">
<title>Node7&#45;&gt;Node13</title>
<g id="a_edge15_Node000007_Node000013"><a xlink:title=" ">
<path fill="none" stroke="#63b8ff" d="M414.03,-104.68C426.07,-95.39 440.73,-84.09 450.82,-76.3"/>
<polygon fill="#63b8ff" stroke="#63b8ff" points="412.05,-101.79 406.27,-110.67 416.32,-107.33 412.05,-101.79"/>
</a>
</g>
</g>
<!-- Node9 -->
<g id="Node000009" class="node">
<title>Node9</title>
<g id="a_Node000009"><a xlink:href="InterfaceQt_8cpp.html" target="_top" xlink:title=" ">
<polygon fill="white" stroke="#666666" points="233.88,-20 133.88,-20 133.88,0 233.88,0 233.88,-20"/>
<text xml:space="preserve" text-anchor="middle" x="183.88" y="-6.5" font-family="Helvetica,sans-Serif" font-size="10.00">src/InterfaceQt.cpp</text>
</a>
</g>
</g>
<!-- Node8&#45;&gt;Node9 -->
<g id="edge8_Node000008_Node000009" class="edge">
<title>Node8&#45;&gt;Node9</title>
<g id="a_edge8_Node000008_Node000009"><a xlink:title=" ">
<path fill="none" stroke="#63b8ff" d="M158.28,-46.44C164.65,-37.62 171.98,-27.47 177.16,-20.3"/>
<polygon fill="#63b8ff" stroke="#63b8ff" points="155.57,-44.21 152.55,-54.37 161.25,-48.31 155.57,-44.21"/>
</a>
</g>
</g>
<!-- Node10&#45;&gt;Node6 -->
<g id="edge11_Node000010_Node000006" class="edge">
<title>Node10&#45;&gt;Node6</title>
<g id="a_edge11_Node000010_Node000006"><a xlink:title=" ">
<path fill="none" stroke="#63b8ff" d="M325.05,-51.79C352.34,-42.1 388.75,-29.16 413.19,-20.48"/>
<polygon fill="#63b8ff" stroke="#63b8ff" points="324.03,-48.44 315.78,-55.09 326.37,-55.04 324.03,-48.44"/>
</a>
</g>
</g>
<!-- Node10&#45;&gt;Node11 -->
<g id="edge10_Node000010_Node000011" class="edge">
<title>Node10&#45;&gt;Node11</title>
<g id="a_edge10_Node000010_Node000011"><a xlink:title=" ">
<path fill="none" stroke="#63b8ff" d="M236.5,-52.94C194.73,-43.13 136.61,-29.49 98.15,-20.46"/>
<polygon fill="#63b8ff" stroke="#63b8ff" points="235.54,-56.31 246.08,-55.19 237.14,-49.49 235.54,-56.31"/>
</a>
</g>
</g>
<!-- Node12&#45;&gt;Node5 -->
<g id="edge13_Node000012_Node000005" class="edge">
<title>Node12&#45;&gt;Node5</title>
<g id="a_edge13_Node000012_Node000005"><a xlink:title=" ">
<path fill="none" stroke="#63b8ff" d="M601.3,-44.43C602.69,-36.11 604.22,-26.93 605.33,-20.3"/>
<polygon fill="#63b8ff" stroke="#63b8ff" points="597.88,-43.66 599.69,-54.1 604.79,-44.81 597.88,-43.66"/>
</a>
</g>
</g>
<!-- Node12&#45;&gt;Node6 -->
<g id="edge14_Node000012_Node000006" class="edge">
<title>Node12&#45;&gt;Node6</title>
<g id="a_edge14_Node000012_Node000006"><a xlink:title=" ">
<path fill="none" stroke="#63b8ff" d="M559.61,-51.92C531.2,-42.21 493.13,-29.2 467.61,-20.48"/>
<polygon fill="#63b8ff" stroke="#63b8ff" points="558.33,-55.18 568.92,-55.1 560.59,-48.56 558.33,-55.18"/>
</a>
</g>
</g>
<!-- Node15 -->
<g id="Node000015" class="node">
<title>Node15</title>
<g id="a_Node000015"><a xlink:href="TestsUnitaires_8cpp.html" target="_top" xlink:title=" ">
<polygon fill="white" stroke="#666666" points="1077,-76 962.75,-76 962.75,-56 1077,-56 1077,-76"/>
<text xml:space="preserve" text-anchor="middle" x="1019.88" y="-62.5" font-family="Helvetica,sans-Serif" font-size="10.00">src/TestsUnitaires.cpp</text>
</a>
</g>
</g>
<!-- Node14&#45;&gt;Node15 -->
<g id="edge18_Node000014_Node000015" class="edge">
<title>Node14&#45;&gt;Node15</title>
<g id="a_edge18_Node000014_Node000015"><a xlink:title=" ">
<path fill="none" stroke="#63b8ff" d="M929.48,-107.01C951.17,-97.41 979.37,-84.93 998.46,-76.48"/>
<polygon fill="#63b8ff" stroke="#63b8ff" points="928.24,-103.73 920.51,-110.98 931.07,-110.13 928.24,-103.73"/>
</a>
</g>
</g>
<!-- Node16 -->
<g id="Node000016" class="node">
<title>Node16</title>
<g id="a_Node000016"><a xlink:href="test__main_8cpp.html" target="_top" xlink:title=" ">
<polygon fill="white" stroke="#666666" points="944.88,-76 850.88,-76 850.88,-56 944.88,-56 944.88,-76"/>
<text xml:space="preserve" text-anchor="middle" x="897.88" y="-62.5" font-family="Helvetica,sans-Serif" font-size="10.00">src/test_main.cpp</text>
</a>
</g>
</g>
<!-- Node14&#45;&gt;Node16 -->
<g id="edge19_Node000014_Node000016" class="edge">
<title>Node14&#45;&gt;Node16</title>
<g id="a_edge19_Node000014_Node000016"><a xlink:title=" ">
<path fill="none" stroke="#63b8ff" d="M897.88,-100.13C897.88,-91.9 897.88,-82.85 897.88,-76.3"/>
<polygon fill="#63b8ff" stroke="#63b8ff" points="894.38,-100.08 897.88,-110.08 901.38,-100.08 894.38,-100.08"/>
</a>
</g>
</g>
</g>
</svg>

<g id="navigator" transform="translate(0 0)" fill="#404254">
  <rect fill="#f2f5e9" fill-opacity="0.5" stroke="#606060" stroke-width=".5" x="0" y="0" width="60" height="60"/>
  <use id="zoomplus" xlink:href="#zoomPlus" x="17" y="9" onmousedown="handleZoom(evt,'in')"/>
  <use id="zoomminus" xlink:href="#zoomMin" x="42" y="9" onmousedown="handleZoom(evt,'out')"/>
  <use id="reset" xlink:href="#resetDef" x="30" y="36" onmousedown="handleReset()"/>
   <use id="arrowup" xlink:href="#arrowUp" x="0" y="0" onmousedown="handlePan(0,-1)"/>
  <use id="arrowright" xlink:href="#arrowRight" x="0" y="0" onmousedown="handlePan(1,0)"/>
  <use id="arrowdown" xlink:href="#arrowDown" x="0" y="0" onmousedown="handlePan(0,1)"/>
  <use id="arrowleft" xlink:href="#arrowLeft" x="0" y="0" onmousedown="handlePan(-1,0)"/>
</g>
<svg viewBox="0 0 15 15" width="100%" height="30px" preserveAspectRatio="xMaxYMin meet">
 <g id="arrow_out" transform="scale(0.3 0.3)">
  <a xlink:href="Constantes_8hpp__dep__incl_org.svg" target="_base">
   <rect id="button" ry="5" rx="5" y="6" x="6" height="38" width="38"
        fill="#f2f5e9" fill-opacity="0.5" stroke="#606060" stroke-width="1.0"/>
   <path id="arrow"
     d="M 11.500037,31.436501 C 11.940474,20.09759 22.043105,11.32322 32.158766,21.979434 L 37.068811,17.246167 C 37.068811,17.246167 37.088388,32 37.088388,32 L 22.160133,31.978069 C 22.160133,31.978069 26.997745,27.140456 26.997745,27.140456 C 18.528582,18.264221 13.291696,25.230495 11.500037,31.436501 z"
     style="fill:#404040;"/>
  </a>
 </g>
</svg>

<style type='text/css'>
<![CDATA[
[data-mouse-over-selected='false'] { opacity: 0.7; }
[data-mouse-over-selected='true']  { opacity: 1.0; }
]]>
</style>
<script type="application/ecmascript"><![CDATA[
document.addEventListener('DOMContentLoaded', (event) => {
  highlightEdges();
  highlightAdjacentNodes();
});
]]></script>
</svg>
