<?xml version="1.0" encoding="UTF-8" standalone="no"?>
<!DOCTYPE svg PUBLIC "-//W3C//DTD SVG 1.1//EN"
 "http://www.w3.org/Graphics/SVG/1.1/DTD/svg11.dtd">
<!-- Generated by graphviz version 14.0.2 (20251019.1705)
 -->
<!-- Title: Graphe hiérarchique des classes Pages: 1 -->
<svg width="182pt" height="66pt"
 viewBox="0.00 0.00 182.00 66.00" xmlns="http://www.w3.org/2000/svg" xmlns:xlink="http://www.w3.org/1999/xlink">
<g id="graph0" class="graph" transform="scale(1 1) rotate(0) translate(4 62)">
<title>Graphe hiérarchique des classes</title>
<!-- Node0 -->
<g id="Node000000" class="node">
<title>Node0</title>
<g id="a_Node000000"><a xlink:href="classRegleJeu.html" target="_top" xlink:title="Classe abstraite représentant les règles du jeu.">
<polygon fill="white" stroke="#666666" points="57.25,-39 0,-39 0,-19 57.25,-19 57.25,-39"/>
<text xml:space="preserve" text-anchor="middle" x="28.62" y="-25.5" font-family="Helvetica,sans-Serif" font-size="10.00">RegleJeu</text>
</a>
</g>
</g>
<!-- Node1 -->
<g id="Node000001" class="node">
<title>Node1</title>
<g id="a_Node000001"><a xlink:href="classRegleStandard.html" target="_top" xlink:title="Implémentation des règles standard du jeu de la vie.">
<polygon fill="white" stroke="#666666" points="173.75,-58 93.25,-58 93.25,-38 173.75,-38 173.75,-58"/>
<text xml:space="preserve" text-anchor="middle" x="133.5" y="-44.5" font-family="Helvetica,sans-Serif" font-size="10.00">RegleStandard</text>
</a>
</g>
</g>
<!-- Node0&#45;&gt;Node1 -->
<g id="edge6_Node000000_Node000001" class="edge">
<title>Node0&#45;&gt;Node1</title>
<g id="a_edge6_Node000000_Node000001"><a xlink:title=" ">
<path fill="none" stroke="#63b8ff" d="M68.87,-36.25C76.72,-37.7 84.98,-39.22 92.85,-40.68"/>
<polygon fill="#63b8ff" stroke="#63b8ff" points="69.69,-32.84 59.22,-34.47 68.42,-39.72 69.69,-32.84"/>
</a>
</g>
</g>
<!-- Node2 -->
<g id="Node000002" class="node">
<title>Node2</title>
<g id="a_Node000002"><a xlink:href="classRegleTorique.html" target="_top" xlink:title="Implémentation des règles pour une grille torique (extension bonus).">
<polygon fill="white" stroke="#666666" points="170,-20 97,-20 97,0 170,0 170,-20"/>
<text xml:space="preserve" text-anchor="middle" x="133.5" y="-6.5" font-family="Helvetica,sans-Serif" font-size="10.00">RegleTorique</text>
</a>
</g>
</g>
<!-- Node0&#45;&gt;Node2 -->
<g id="edge7_Node000000_Node000002" class="edge">
<title>Node0&#45;&gt;Node2</title>
<g id="a_edge7_Node000000_Node000002"><a xlink:title=" ">
<path fill="none" stroke="#63b8ff" d="M68.92,-21.74C78.04,-20.06 87.71,-18.27 96.68,-16.62"/>
<polygon fill="#63b8ff" stroke="#63b8ff" points="68.42,-18.28 59.22,-23.53 69.69,-25.16 68.42,-18.28"/>
</a>
</g>
</g>
</g>
</svg>
