<?xml version="1.0" encoding="UTF-8" standalone="no"?>
<!DOCTYPE svg PUBLIC "-//W3C//DTD SVG 1.1//EN"
 "http://www.w3.org/Graphics/SVG/1.1/DTD/svg11.dtd">
<!-- Generated by graphviz version 14.0.2 (20251019.1705)
 -->
<!-- Title: Graphe hiérarchique des classes Pages: 1 -->
<svg width="193pt" height="104pt"
 viewBox="0.00 0.00 193.00 104.00" xmlns="http://www.w3.org/2000/svg" xmlns:xlink="http://www.w3.org/1999/xlink">
<g id="graph0" class="graph" transform="scale(1 1) rotate(0) translate(4 100)">
<title>Graphe hiérarchique des classes</title>
<!-- Node0 -->
<g id="Node000000" class="node">
<title>Node0</title>
<g id="a_Node000000"><a xlink:href="classEtatCellule.html" target="_top" xlink:title="Classe abstraite représentant l&#39;état d&#39;une cellule.">
<polygon fill="white" stroke="#666666" points="64,-58 0,-58 0,-38 64,-38 64,-58"/>
<text xml:space="preserve" text-anchor="middle" x="32" y="-44.5" font-family="Helvetica,sans-Serif" font-size="10.00">EtatCellule</text>
</a>
</g>
</g>
<!-- Node1 -->
<g id="Node000001" class="node">
<title>Node1</title>
<g id="a_Node000001"><a xlink:href="classCelluleMorte.html" target="_top" xlink:title="Classe représentant une cellule morte.">
<polygon fill="white" stroke="#666666" points="177.88,-96 107.12,-96 107.12,-76 177.88,-76 177.88,-96"/>
<text xml:space="preserve" text-anchor="middle" x="142.5" y="-82.5" font-family="Helvetica,sans-Serif" font-size="10.00">CelluleMorte</text>
</a>
</g>
</g>
<!-- Node0&#45;&gt;Node1 -->
<g id="edge1_Node000000_Node000001" class="edge">
<title>Node0&#45;&gt;Node1</title>
<g id="a_edge1_Node000000_Node000001"><a xlink:title=" ">
<path fill="none" stroke="#63b8ff" d="M73.67,-62.24C86.28,-66.66 99.93,-71.44 111.66,-75.55"/>
<polygon fill="#63b8ff" stroke="#63b8ff" points="74.96,-58.99 64.36,-58.98 72.64,-65.59 74.96,-58.99"/>
</a>
</g>
</g>
<!-- Node2 -->
<g id="Node000002" class="node">
<title>Node2</title>
<g id="a_Node000002"><a xlink:href="classCelluleObstacle.html" target="_top" xlink:title="Classe représentant une cellule obstacle (extension bonus) Les cellules obstacles ne changent jamais ...">
<polygon fill="white" stroke="#666666" points="185,-58 100,-58 100,-38 185,-38 185,-58"/>
<text xml:space="preserve" text-anchor="middle" x="142.5" y="-44.5" font-family="Helvetica,sans-Serif" font-size="10.00">CelluleObstacle</text>
</a>
</g>
</g>
<!-- Node0&#45;&gt;Node2 -->
<g id="edge2_Node000000_Node000002" class="edge">
<title>Node0&#45;&gt;Node2</title>
<g id="a_edge2_Node000000_Node000002"><a xlink:title=" ">
<path fill="none" stroke="#63b8ff" d="M75.64,-48C83.55,-48 91.8,-48 99.69,-48"/>
<polygon fill="#63b8ff" stroke="#63b8ff" points="75.9,-44.5 65.9,-48 75.9,-51.5 75.9,-44.5"/>
</a>
</g>
</g>
<!-- Node3 -->
<g id="Node000003" class="node">
<title>Node3</title>
<g id="a_Node000003"><a xlink:href="classCelluleVivante.html" target="_top" xlink:title="Classe représentant une cellule vivante.">
<polygon fill="white" stroke="#666666" points="182,-20 103,-20 103,0 182,0 182,-20"/>
<text xml:space="preserve" text-anchor="middle" x="142.5" y="-6.5" font-family="Helvetica,sans-Serif" font-size="10.00">CelluleVivante</text>
</a>
</g>
</g>
<!-- Node0&#45;&gt;Node3 -->
<g id="edge3_Node000000_Node000003" class="edge">
<title>Node0&#45;&gt;Node3</title>
<g id="a_edge3_Node000000_Node000003"><a xlink:title=" ">
<path fill="none" stroke="#63b8ff" d="M73.67,-33.76C86.28,-29.34 99.93,-24.56 111.66,-20.45"/>
<polygon fill="#63b8ff" stroke="#63b8ff" points="72.64,-30.41 64.36,-37.02 74.96,-37.01 72.64,-30.41"/>
</a>
</g>
</g>
</g>
</svg>
