<?xml version="1.0" encoding="UTF-8" standalone="no"?>
<!DOCTYPE svg PUBLIC "-//W3C//DTD SVG 1.1//EN"
 "http://www.w3.org/Graphics/SVG/1.1/DTD/svg11.dtd">
<!-- Generated by graphviz version 14.0.2 (20251019.1705)
 -->
<!-- Title: include/InterfaceSFML.hpp Pages: 1 -->
<svg width="214pt" height="84pt"
 viewBox="0.00 0.00 214.00 84.00" xmlns="http://www.w3.org/2000/svg" xmlns:xlink="http://www.w3.org/1999/xlink">
<g id="graph0" class="graph" transform="scale(1 1) rotate(0) translate(4 80)">
<title>include/InterfaceSFML.hpp</title>
<!-- Node1 -->
<g id="Node000001" class="node">
<title>Node1</title>
<g id="a_Node000001"><a xlink:title=" ">
<polygon fill="#999999" stroke="#666666" points="180.38,-76 47.38,-76 47.38,-56 180.38,-56 180.38,-76"/>
<text xml:space="preserve" text-anchor="middle" x="113.88" y="-62.5" font-family="Helvetica,sans-Serif" font-size="10.00">include/InterfaceSFML.hpp</text>
</a>
</g>
</g>
<!-- Node2 -->
<g id="Node000002" class="node">
<title>Node2</title>
<g id="a_Node000002"><a xlink:href="InterfaceSFML_8cpp.html" target="_top" xlink:title=" ">
<polygon fill="white" stroke="#666666" points="115.75,-20 0,-20 0,0 115.75,0 115.75,-20"/>
<text xml:space="preserve" text-anchor="middle" x="57.88" y="-6.5" font-family="Helvetica,sans-Serif" font-size="10.00">src/InterfaceSFML.cpp</text>
</a>
</g>
</g>
<!-- Node1&#45;&gt;Node2 -->
<g id="edge1_Node000001_Node000002" class="edge">
<title>Node1&#45;&gt;Node2</title>
<g id="a_edge1_Node000001_Node000002"><a xlink:title=" ">
<path fill="none" stroke="#63b8ff" d="M96.09,-47.85C86.62,-38.72 75.35,-27.86 67.52,-20.3"/>
<polygon fill="#63b8ff" stroke="#63b8ff" points="93.4,-50.12 103.03,-54.54 98.26,-45.08 93.4,-50.12"/>
</a>
</g>
</g>
<!-- Node3 -->
<g id="Node000003" class="node">
<title>Node3</title>
<g id="a_Node000003"><a xlink:href="main_8cpp.html" target="_top" xlink:title=" ">
<polygon fill="white" stroke="#666666" points="206,-20 133.75,-20 133.75,0 206,0 206,-20"/>
<text xml:space="preserve" text-anchor="middle" x="169.88" y="-6.5" font-family="Helvetica,sans-Serif" font-size="10.00">src/main.cpp</text>
</a>
</g>
</g>
<!-- Node1&#45;&gt;Node3 -->
<g id="edge2_Node000001_Node000003" class="edge">
<title>Node1&#45;&gt;Node3</title>
<g id="a_edge2_Node000001_Node000003"><a xlink:title=" ">
<path fill="none" stroke="#63b8ff" d="M131.66,-47.85C141.13,-38.72 152.4,-27.86 160.23,-20.3"/>
<polygon fill="#63b8ff" stroke="#63b8ff" points="129.49,-45.08 124.72,-54.54 134.35,-50.12 129.49,-45.08"/>
</a>
</g>
</g>
</g>
</svg>
