<?xml version="1.0" encoding="UTF-8" standalone="no"?>
<!DOCTYPE svg PUBLIC "-//W3C//DTD SVG 1.1//EN"
 "http://www.w3.org/Graphics/SVG/1.1/DTD/svg11.dtd">
<!-- Generated by graphviz version 14.0.2 (20251019.1705)
 -->
<!-- Title: include/JeuDeLaVie.hpp Pages: 1 -->
<svg width="376pt" height="252pt"
 viewBox="0.00 0.00 376.00 252.00" xmlns="http://www.w3.org/2000/svg" xmlns:xlink="http://www.w3.org/1999/xlink">
<g id="graph0" class="graph" transform="scale(1 1) rotate(0) translate(4 248)">
<title>include/JeuDeLaVie.hpp</title>
<!-- Node1 -->
<g id="Node000001" class="node">
<title>Node1</title>
<g id="a_Node000001"><a xlink:title=" ">
<polygon fill="#999999" stroke="#666666" points="351.32,-244 229.57,-244 229.57,-224 351.32,-224 351.32,-244"/>
<text xml:space="preserve" text-anchor="middle" x="290.45" y="-230.5" font-family="Helvetica,sans-Serif" font-size="10.00">include/JeuDeLaVie.hpp</text>
</a>
</g>
</g>
<!-- Node2 -->
<g id="Node000002" class="node">
<title>Node2</title>
<g id="a_Node000002"><a xlink:href="Grille_8hpp.html" target="_top" xlink:title=" ">
<polygon fill="white" stroke="#666666" points="215.07,-188 157.82,-188 157.82,-168 215.07,-168 215.07,-188"/>
<text xml:space="preserve" text-anchor="middle" x="186.45" y="-174.5" font-family="Helvetica,sans-Serif" font-size="10.00">Grille.hpp</text>
</a>
</g>
</g>
<!-- Node1&#45;&gt;Node2 -->
<g id="edge1_Node000001_Node000002" class="edge">
<title>Node1&#45;&gt;Node2</title>
<g id="a_edge1_Node000001_Node000002"><a xlink:title=" ">
<path fill="none" stroke="#63b8ff" d="M272.33,-223.59C256.47,-215.36 233.17,-203.26 214.83,-193.74"/>
<polygon fill="#63b8ff" stroke="#63b8ff" points="216.54,-190.68 206.05,-189.18 213.31,-196.89 216.54,-190.68"/>
</a>
</g>
</g>
<!-- Node5 -->
<g id="Node000005" class="node">
<title>Node5</title>
<g id="a_Node000005"><a xlink:title=" ">
<polygon fill="#e0e0e0" stroke="#999999" points="69.07,-20 17.82,-20 17.82,0 69.07,0 69.07,-20"/>
<text xml:space="preserve" text-anchor="middle" x="43.45" y="-6.5" font-family="Helvetica,sans-Serif" font-size="10.00">memory</text>
</a>
</g>
</g>
<!-- Node1&#45;&gt;Node5 -->
<g id="edge14_Node000001_Node000005" class="edge">
<title>Node1&#45;&gt;Node5</title>
<g id="a_edge14_Node000001_Node000005"><a xlink:title=" ">
<path fill="none" stroke="#63b8ff" d="M229.22,-230.68C162.59,-224.45 59.2,-203.1 11.45,-132 -7.38,-103.96 1.18,-88.18 11.45,-56 14.57,-46.24 20.66,-36.79 26.7,-29.08"/>
<polygon fill="#63b8ff" stroke="#63b8ff" points="29.31,-31.42 33.11,-21.53 23.97,-26.89 29.31,-31.42"/>
</a>
</g>
</g>
<!-- Node6 -->
<g id="Node000006" class="node">
<title>Node6</title>
<g id="a_Node000006"><a xlink:title=" ">
<polygon fill="#e0e0e0" stroke="#999999" points="275.45,-20 235.45,-20 235.45,0 275.45,0 275.45,-20"/>
<text xml:space="preserve" text-anchor="middle" x="255.45" y="-6.5" font-family="Helvetica,sans-Serif" font-size="10.00">string</text>
</a>
</g>
</g>
<!-- Node1&#45;&gt;Node6 -->
<g id="edge15_Node000001_Node000006" class="edge">
<title>Node1&#45;&gt;Node6</title>
<g id="a_edge15_Node000001_Node000006"><a xlink:title=" ">
<path fill="none" stroke="#63b8ff" d="M309.78,-223.54C323.35,-215.87 340.75,-203.74 350.45,-188 368.31,-158.99 373.79,-143.35 360.45,-112 344.36,-74.2 306.41,-43.7 280.83,-26.46"/>
<polygon fill="#63b8ff" stroke="#63b8ff" points="282.93,-23.66 272.64,-21.14 279.11,-29.52 282.93,-23.66"/>
</a>
</g>
</g>
<!-- Node8 -->
<g id="Node000008" class="node">
<title>Node8</title>
<g id="a_Node000008"><a xlink:title=" ">
<polygon fill="#e0e0e0" stroke="#999999" points="252.95,-76 209.95,-76 209.95,-56 252.95,-56 252.95,-76"/>
<text xml:space="preserve" text-anchor="middle" x="231.45" y="-62.5" font-family="Helvetica,sans-Serif" font-size="10.00">vector</text>
</a>
</g>
</g>
<!-- Node1&#45;&gt;Node8 -->
<g id="edge16_Node000001_Node000008" class="edge">
<title>Node1&#45;&gt;Node8</title>
<g id="a_edge16_Node000001_Node000008"><a xlink:title=" ">
<path fill="none" stroke="#63b8ff" d="M300.49,-223.61C321.89,-202.45 368,-149.93 342.45,-112 325.12,-86.28 290.3,-75.25 264.26,-70.53"/>
<polygon fill="#63b8ff" stroke="#63b8ff" points="264.92,-67.09 254.5,-69.01 263.84,-74.01 264.92,-67.09"/>
</a>
</g>
</g>
<!-- Node9 -->
<g id="Node000009" class="node">
<title>Node9</title>
<g id="a_Node000009"><a xlink:href="Constantes_8hpp.html" target="_top" xlink:title="Configuration centralisée du projet.">
<polygon fill="white" stroke="#666666" points="332.95,-132 247.95,-132 247.95,-112 332.95,-112 332.95,-132"/>
<text xml:space="preserve" text-anchor="middle" x="290.45" y="-118.5" font-family="Helvetica,sans-Serif" font-size="10.00">Constantes.hpp</text>
</a>
</g>
</g>
<!-- Node1&#45;&gt;Node9 -->
<g id="edge13_Node000001_Node000009" class="edge">
<title>Node1&#45;&gt;Node9</title>
<g id="a_edge13_Node000001_Node000009"><a xlink:title=" ">
<path fill="none" stroke="#63b8ff" d="M290.45,-223.62C290.45,-206.01 290.45,-167.59 290.45,-143.65"/>
<polygon fill="#63b8ff" stroke="#63b8ff" points="293.95,-143.87 290.45,-133.87 286.95,-143.87 293.95,-143.87"/>
</a>
</g>
</g>
<!-- Node3 -->
<g id="Node000003" class="node">
<title>Node3</title>
<g id="a_Node000003"><a xlink:href="Cellule_8hpp.html" target="_top" xlink:title=" ">
<polygon fill="white" stroke="#666666" points="97.82,-132 33.07,-132 33.07,-112 97.82,-112 97.82,-132"/>
<text xml:space="preserve" text-anchor="middle" x="65.45" y="-118.5" font-family="Helvetica,sans-Serif" font-size="10.00">Cellule.hpp</text>
</a>
</g>
</g>
<!-- Node2&#45;&gt;Node3 -->
<g id="edge2_Node000002_Node000003" class="edge">
<title>Node2&#45;&gt;Node3</title>
<g id="a_edge2_Node000002_Node000003"><a xlink:title=" ">
<path fill="none" stroke="#63b8ff" d="M165.37,-167.59C146.49,-159.17 118.53,-146.69 96.99,-137.07"/>
<polygon fill="#63b8ff" stroke="#63b8ff" points="98.63,-133.98 88.07,-133.1 95.78,-140.37 98.63,-133.98"/>
</a>
</g>
</g>
<!-- Node2&#45;&gt;Node5 -->
<g id="edge12_Node000002_Node000005" class="edge">
<title>Node2&#45;&gt;Node5</title>
<g id="a_edge12_Node000002_Node000005"><a xlink:title=" ">
<path fill="none" stroke="#63b8ff" d="M157.35,-173.14C115.21,-166.89 40.48,-153.09 24.45,-132 1.81,-102.21 19.27,-56.21 32.4,-30.35"/>
<polygon fill="#63b8ff" stroke="#63b8ff" points="35.43,-32.11 37.08,-21.65 29.26,-28.8 35.43,-32.11"/>
</a>
</g>
</g>
<!-- Node7 -->
<g id="Node000007" class="node">
<title>Node7</title>
<g id="a_Node000007"><a xlink:href="RegleJeu_8hpp.html" target="_top" xlink:title=" ">
<polygon fill="white" stroke="#666666" points="191.45,-132 115.45,-132 115.45,-112 191.45,-112 191.45,-132"/>
<text xml:space="preserve" text-anchor="middle" x="153.45" y="-118.5" font-family="Helvetica,sans-Serif" font-size="10.00">RegleJeu.hpp</text>
</a>
</g>
</g>
<!-- Node2&#45;&gt;Node7 -->
<g id="edge7_Node000002_Node000007" class="edge">
<title>Node2&#45;&gt;Node7</title>
<g id="a_edge7_Node000002_Node000007"><a xlink:title=" ">
<path fill="none" stroke="#63b8ff" d="M180.7,-167.59C176.4,-160.55 170.36,-150.67 165.06,-142"/>
<polygon fill="#63b8ff" stroke="#63b8ff" points="168.12,-140.3 159.92,-133.59 162.15,-143.95 168.12,-140.3"/>
</a>
</g>
</g>
<!-- Node2&#45;&gt;Node8 -->
<g id="edge11_Node000002_Node000008" class="edge">
<title>Node2&#45;&gt;Node8</title>
<g id="a_edge11_Node000002_Node000008"><a xlink:title=" ">
<path fill="none" stroke="#63b8ff" d="M190.29,-167.62C197.56,-149.84 213.5,-110.88 223.27,-87"/>
<polygon fill="#63b8ff" stroke="#63b8ff" points="226.5,-88.34 227.05,-77.76 220.02,-85.69 226.5,-88.34"/>
</a>
</g>
</g>
<!-- Node2&#45;&gt;Node9 -->
<g id="edge10_Node000002_Node000009" class="edge">
<title>Node2&#45;&gt;Node9</title>
<g id="a_edge10_Node000002_Node000009"><a xlink:title=" ">
<path fill="none" stroke="#63b8ff" d="M204.56,-167.59C220.42,-159.36 243.73,-147.26 262.07,-137.74"/>
<polygon fill="#63b8ff" stroke="#63b8ff" points="263.59,-140.89 270.85,-133.18 260.36,-134.68 263.59,-140.89"/>
</a>
</g>
</g>
<!-- Node4 -->
<g id="Node000004" class="node">
<title>Node4</title>
<g id="a_Node000004"><a xlink:href="EtatCellule_8hpp.html" target="_top" xlink:title=" ">
<polygon fill="white" stroke="#666666" points="153.82,-76 71.07,-76 71.07,-56 153.82,-56 153.82,-76"/>
<text xml:space="preserve" text-anchor="middle" x="112.45" y="-62.5" font-family="Helvetica,sans-Serif" font-size="10.00">EtatCellule.hpp</text>
</a>
</g>
</g>
<!-- Node3&#45;&gt;Node4 -->
<g id="edge3_Node000003_Node000004" class="edge">
<title>Node3&#45;&gt;Node4</title>
<g id="a_edge3_Node000003_Node000004"><a xlink:title=" ">
<path fill="none" stroke="#63b8ff" d="M73.64,-111.59C80.04,-104.24 89.13,-93.8 96.9,-84.87"/>
<polygon fill="#63b8ff" stroke="#63b8ff" points="99.44,-87.28 103.36,-77.44 94.16,-82.69 99.44,-87.28"/>
</a>
</g>
</g>
<!-- Node3&#45;&gt;Node5 -->
<g id="edge6_Node000003_Node000005" class="edge">
<title>Node3&#45;&gt;Node5</title>
<g id="a_edge6_Node000003_Node000005"><a xlink:title=" ">
<path fill="none" stroke="#63b8ff" d="M63.57,-111.62C60.03,-93.92 52.3,-55.24 47.51,-31.32"/>
<polygon fill="#63b8ff" stroke="#63b8ff" points="51.01,-30.96 45.62,-21.84 44.15,-32.33 51.01,-30.96"/>
</a>
</g>
</g>
<!-- Node4&#45;&gt;Node5 -->
<g id="edge4_Node000004_Node000005" class="edge">
<title>Node4&#45;&gt;Node5</title>
<g id="a_edge4_Node000004_Node000005"><a xlink:title=" ">
<path fill="none" stroke="#63b8ff" d="M100.43,-55.59C90.44,-47.77 75.99,-36.46 64.14,-27.19"/>
<polygon fill="#63b8ff" stroke="#63b8ff" points="66.55,-24.64 56.52,-21.23 62.24,-30.15 66.55,-24.64"/>
</a>
</g>
</g>
<!-- Node4&#45;&gt;Node6 -->
<g id="edge5_Node000004_Node000006" class="edge">
<title>Node4&#45;&gt;Node6</title>
<g id="a_edge5_Node000004_Node000006"><a xlink:title=" ">
<path fill="none" stroke="#63b8ff" d="M137.36,-55.59C161.58,-46.45 198.45,-32.52 224.54,-22.67"/>
<polygon fill="#63b8ff" stroke="#63b8ff" points="225.45,-26.07 233.57,-19.26 222.98,-19.52 225.45,-26.07"/>
</a>
</g>
</g>
<!-- Node7&#45;&gt;Node5 -->
<g id="edge9_Node000007_Node000005" class="edge">
<title>Node7&#45;&gt;Node5</title>
<g id="a_edge9_Node000007_Node000005"><a xlink:title=" ">
<path fill="none" stroke="#63b8ff" d="M158.44,-111.68C164.92,-98.15 174.11,-72.87 162.45,-56 144.21,-29.61 108.36,-18.68 80.75,-14.16"/>
<polygon fill="#63b8ff" stroke="#63b8ff" points="81.39,-10.71 71,-12.8 80.42,-17.65 81.39,-10.71"/>
</a>
</g>
</g>
<!-- Node7&#45;&gt;Node8 -->
<g id="edge8_Node000007_Node000008" class="edge">
<title>Node7&#45;&gt;Node8</title>
<g id="a_edge8_Node000007_Node000008"><a xlink:title=" ">
<path fill="none" stroke="#63b8ff" d="M167.04,-111.59C178.49,-103.67 195.11,-92.16 208.6,-82.82"/>
<polygon fill="#63b8ff" stroke="#63b8ff" points="210.28,-85.91 216.51,-77.34 206.3,-80.16 210.28,-85.91"/>
</a>
</g>
</g>
</g>
</svg>
