<?xml version="1.0" encoding="UTF-8" standalone="no"?>
<!DOCTYPE svg PUBLIC "-//W3C//DTD SVG 1.1//EN"
 "http://www.w3.org/Graphics/SVG/1.1/DTD/svg11.dtd">
<!-- Generated by graphviz version 14.0.2 (20251019.1705)
 -->
<!-- Title: src/JeuDeLaVie.cpp Pages: 1 -->
<svg width="388pt" height="308pt"
 viewBox="0.00 0.00 388.00 308.00" xmlns="http://www.w3.org/2000/svg" xmlns:xlink="http://www.w3.org/1999/xlink">
<g id="graph0" class="graph" transform="scale(1 1) rotate(0) translate(4 304)">
<title>src/JeuDeLaVie.cpp</title>
<!-- Node1 -->
<g id="Node000001" class="node">
<title>Node1</title>
<g id="a_Node000001"><a xlink:title=" ">
<polygon fill="#999999" stroke="#666666" points="275.86,-300 171.36,-300 171.36,-280 275.86,-280 275.86,-300"/>
<text xml:space="preserve" text-anchor="middle" x="223.61" y="-286.5" font-family="Helvetica,sans-Serif" font-size="10.00">src/JeuDeLaVie.cpp</text>
</a>
</g>
</g>
<!-- Node2 -->
<g id="Node000002" class="node">
<title>Node2</title>
<g id="a_Node000002"><a xlink:href="JeuDeLaVie_8hpp.html" target="_top" xlink:title=" ">
<polygon fill="white" stroke="#666666" points="179.61,-244 91.61,-244 91.61,-224 179.61,-224 179.61,-244"/>
<text xml:space="preserve" text-anchor="middle" x="135.61" y="-230.5" font-family="Helvetica,sans-Serif" font-size="10.00">JeuDeLaVie.hpp</text>
</a>
</g>
</g>
<!-- Node1&#45;&gt;Node2 -->
<g id="edge1_Node000001_Node000002" class="edge">
<title>Node1&#45;&gt;Node2</title>
<g id="a_edge1_Node000001_Node000002"><a xlink:title=" ">
<path fill="none" stroke="#63b8ff" d="M208.28,-279.59C195.11,-271.51 175.88,-259.71 160.5,-250.27"/>
<polygon fill="#63b8ff" stroke="#63b8ff" points="162.7,-247.52 152.35,-245.27 159.04,-253.48 162.7,-247.52"/>
</a>
</g>
</g>
<!-- Node8 -->
<g id="Node000008" class="node">
<title>Node8</title>
<g id="a_Node000008"><a xlink:href="RegleJeu_8hpp.html" target="_top" xlink:title=" ">
<polygon fill="white" stroke="#666666" points="277.61,-132 201.61,-132 201.61,-112 277.61,-112 277.61,-132"/>
<text xml:space="preserve" text-anchor="middle" x="239.61" y="-118.5" font-family="Helvetica,sans-Serif" font-size="10.00">RegleJeu.hpp</text>
</a>
</g>
</g>
<!-- Node1&#45;&gt;Node8 -->
<g id="edge18_Node000001_Node000008" class="edge">
<title>Node1&#45;&gt;Node8</title>
<g id="a_edge18_Node000001_Node000008"><a xlink:title=" ">
<path fill="none" stroke="#63b8ff" d="M224.52,-279.6C227.04,-253.46 234.17,-179.48 237.65,-143.36"/>
<polygon fill="#63b8ff" stroke="#63b8ff" points="241.09,-144.09 238.57,-133.8 234.13,-143.42 241.09,-144.09"/>
</a>
</g>
</g>
<!-- Node11 -->
<g id="Node000011" class="node">
<title>Node11</title>
<g id="a_Node000011"><a xlink:title=" ">
<polygon fill="#e0e0e0" stroke="#999999" points="309.99,-244 251.24,-244 251.24,-224 309.99,-224 309.99,-244"/>
<text xml:space="preserve" text-anchor="middle" x="280.61" y="-230.5" font-family="Helvetica,sans-Serif" font-size="10.00">stdexcept</text>
</a>
</g>
</g>
<!-- Node1&#45;&gt;Node11 -->
<g id="edge19_Node000001_Node000011" class="edge">
<title>Node1&#45;&gt;Node11</title>
<g id="a_edge19_Node000001_Node000011"><a xlink:title=" ">
<path fill="none" stroke="#63b8ff" d="M233.54,-279.59C241.55,-272.01 253.03,-261.13 262.64,-252.02"/>
<polygon fill="#63b8ff" stroke="#63b8ff" points="264.84,-254.76 269.7,-245.34 260.03,-249.68 264.84,-254.76"/>
</a>
</g>
</g>
<!-- Node3 -->
<g id="Node000003" class="node">
<title>Node3</title>
<g id="a_Node000003"><a xlink:href="Grille_8hpp.html" target="_top" xlink:title=" ">
<polygon fill="white" stroke="#666666" points="179.24,-188 121.99,-188 121.99,-168 179.24,-168 179.24,-188"/>
<text xml:space="preserve" text-anchor="middle" x="150.61" y="-174.5" font-family="Helvetica,sans-Serif" font-size="10.00">Grille.hpp</text>
</a>
</g>
</g>
<!-- Node2&#45;&gt;Node3 -->
<g id="edge2_Node000002_Node000003" class="edge">
<title>Node2&#45;&gt;Node3</title>
<g id="a_edge2_Node000002_Node000003"><a xlink:title=" ">
<path fill="none" stroke="#63b8ff" d="M138.22,-223.59C140.09,-216.86 142.68,-207.53 145.01,-199.15"/>
<polygon fill="#63b8ff" stroke="#63b8ff" points="148.32,-200.33 147.62,-189.76 141.57,-198.46 148.32,-200.33"/>
</a>
</g>
</g>
<!-- Node6 -->
<g id="Node000006" class="node">
<title>Node6</title>
<g id="a_Node000006"><a xlink:title=" ">
<polygon fill="#e0e0e0" stroke="#999999" points="241.24,-20 189.99,-20 189.99,0 241.24,0 241.24,-20"/>
<text xml:space="preserve" text-anchor="middle" x="215.61" y="-6.5" font-family="Helvetica,sans-Serif" font-size="10.00">memory</text>
</a>
</g>
</g>
<!-- Node2&#45;&gt;Node6 -->
<g id="edge15_Node000002_Node000006" class="edge">
<title>Node2&#45;&gt;Node6</title>
<g id="a_edge15_Node000002_Node000006"><a xlink:title=" ">
<path fill="none" stroke="#63b8ff" d="M100.32,-223.55C79.48,-216.53 53.72,-205.14 35.61,-188 9.35,-163.15 -10.7,-143.74 6.61,-112 40.83,-49.28 127.89,-24.99 178.19,-15.99"/>
<polygon fill="#63b8ff" stroke="#63b8ff" points="178.75,-19.44 188.04,-14.35 177.6,-12.54 178.75,-19.44"/>
</a>
</g>
</g>
<!-- Node7 -->
<g id="Node000007" class="node">
<title>Node7</title>
<g id="a_Node000007"><a xlink:title=" ">
<polygon fill="#e0e0e0" stroke="#999999" points="376.61,-20 336.61,-20 336.61,0 376.61,0 376.61,-20"/>
<text xml:space="preserve" text-anchor="middle" x="356.61" y="-6.5" font-family="Helvetica,sans-Serif" font-size="10.00">string</text>
</a>
</g>
</g>
<!-- Node2&#45;&gt;Node7 -->
<g id="edge16_Node000002_Node000007" class="edge">
<title>Node2&#45;&gt;Node7</title>
<g id="a_edge16_Node000002_Node000007"><a xlink:title=" ">
<path fill="none" stroke="#63b8ff" d="M179.77,-227.58C234.13,-218.34 324.64,-194.05 368.61,-132 389.99,-101.83 376.49,-56.29 365.84,-30.55"/>
<polygon fill="#63b8ff" stroke="#63b8ff" points="369.14,-29.35 361.89,-21.62 362.73,-32.18 369.14,-29.35"/>
</a>
</g>
</g>
<!-- Node9 -->
<g id="Node000009" class="node">
<title>Node9</title>
<g id="a_Node000009"><a xlink:title=" ">
<polygon fill="#e0e0e0" stroke="#999999" points="145.11,-76 102.11,-76 102.11,-56 145.11,-56 145.11,-76"/>
<text xml:space="preserve" text-anchor="middle" x="123.61" y="-62.5" font-family="Helvetica,sans-Serif" font-size="10.00">vector</text>
</a>
</g>
</g>
<!-- Node2&#45;&gt;Node9 -->
<g id="edge17_Node000002_Node000009" class="edge">
<title>Node2&#45;&gt;Node9</title>
<g id="a_edge17_Node000002_Node000009"><a xlink:title=" ">
<path fill="none" stroke="#63b8ff" d="M115.79,-223.67C87.01,-208.88 34.79,-177.04 13.61,-132 -2.65,-97.44 52.73,-79.96 90.73,-72.23"/>
<polygon fill="#63b8ff" stroke="#63b8ff" points="91.2,-75.7 100.38,-70.41 89.91,-68.82 91.2,-75.7"/>
</a>
</g>
</g>
<!-- Node10 -->
<g id="Node000010" class="node">
<title>Node10</title>
<g id="a_Node000010"><a xlink:href="Constantes_8hpp.html" target="_top" xlink:title="Configuration centralisée du projet.">
<polygon fill="white" stroke="#666666" points="107.11,-132 22.11,-132 22.11,-112 107.11,-112 107.11,-132"/>
<text xml:space="preserve" text-anchor="middle" x="64.61" y="-118.5" font-family="Helvetica,sans-Serif" font-size="10.00">Constantes.hpp</text>
</a>
</g>
</g>
<!-- Node2&#45;&gt;Node10 -->
<g id="edge14_Node000002_Node000010" class="edge">
<title>Node2&#45;&gt;Node10</title>
<g id="a_edge14_Node000002_Node000010"><a xlink:title=" ">
<path fill="none" stroke="#63b8ff" d="M129.56,-223.62C117.92,-205.6 92.24,-165.81 76.89,-142.02"/>
<polygon fill="#63b8ff" stroke="#63b8ff" points="79.83,-140.13 71.47,-133.63 73.95,-143.93 79.83,-140.13"/>
</a>
</g>
</g>
<!-- Node4 -->
<g id="Node000004" class="node">
<title>Node4</title>
<g id="a_Node000004"><a xlink:href="Cellule_8hpp.html" target="_top" xlink:title=" ">
<polygon fill="white" stroke="#666666" points="359.99,-132 295.24,-132 295.24,-112 359.99,-112 359.99,-132"/>
<text xml:space="preserve" text-anchor="middle" x="327.61" y="-118.5" font-family="Helvetica,sans-Serif" font-size="10.00">Cellule.hpp</text>
</a>
</g>
</g>
<!-- Node3&#45;&gt;Node4 -->
<g id="edge3_Node000003_Node000004" class="edge">
<title>Node3&#45;&gt;Node4</title>
<g id="a_edge3_Node000003_Node000004"><a xlink:title=" ">
<path fill="none" stroke="#63b8ff" d="M179.44,-168.2C208.4,-159.37 253.3,-145.67 286.09,-135.67"/>
<polygon fill="#63b8ff" stroke="#63b8ff" points="286.72,-139.14 295.26,-132.87 284.67,-132.44 286.72,-139.14"/>
</a>
</g>
</g>
<!-- Node3&#45;&gt;Node6 -->
<g id="edge13_Node000003_Node000006" class="edge">
<title>Node3&#45;&gt;Node6</title>
<g id="a_edge13_Node000003_Node000006"><a xlink:title=" ">
<path fill="none" stroke="#63b8ff" d="M154.29,-167.6C164.57,-141.35 193.75,-66.84 207.82,-30.89"/>
<polygon fill="#63b8ff" stroke="#63b8ff" points="211.03,-32.29 211.42,-21.71 204.51,-29.74 211.03,-32.29"/>
</a>
</g>
</g>
<!-- Node3&#45;&gt;Node8 -->
<g id="edge8_Node000003_Node000008" class="edge">
<title>Node3&#45;&gt;Node8</title>
<g id="a_edge8_Node000003_Node000008"><a xlink:title=" ">
<path fill="none" stroke="#63b8ff" d="M166.11,-167.59C179.43,-159.51 198.89,-147.71 214.44,-138.27"/>
<polygon fill="#63b8ff" stroke="#63b8ff" points="215.96,-141.44 222.69,-133.26 212.33,-135.46 215.96,-141.44"/>
</a>
</g>
</g>
<!-- Node3&#45;&gt;Node9 -->
<g id="edge12_Node000003_Node000009" class="edge">
<title>Node3&#45;&gt;Node9</title>
<g id="a_edge12_Node000003_Node000009"><a xlink:title=" ">
<path fill="none" stroke="#63b8ff" d="M148.31,-167.62C143.96,-149.92 134.47,-111.24 128.6,-87.32"/>
<polygon fill="#63b8ff" stroke="#63b8ff" points="132.05,-86.7 126.27,-77.82 125.25,-88.37 132.05,-86.7"/>
</a>
</g>
</g>
<!-- Node3&#45;&gt;Node10 -->
<g id="edge11_Node000003_Node000010" class="edge">
<title>Node3&#45;&gt;Node10</title>
<g id="a_edge11_Node000003_Node000010"><a xlink:title=" ">
<path fill="none" stroke="#63b8ff" d="M135.63,-167.59C122.88,-159.59 104.32,-147.93 89.37,-138.54"/>
<polygon fill="#63b8ff" stroke="#63b8ff" points="91.32,-135.64 80.99,-133.28 87.6,-141.57 91.32,-135.64"/>
</a>
</g>
</g>
<!-- Node5 -->
<g id="Node000005" class="node">
<title>Node5</title>
<g id="a_Node000005"><a xlink:href="EtatCellule_8hpp.html" target="_top" xlink:title=" ">
<polygon fill="white" stroke="#666666" points="363.99,-76 281.24,-76 281.24,-56 363.99,-56 363.99,-76"/>
<text xml:space="preserve" text-anchor="middle" x="322.61" y="-62.5" font-family="Helvetica,sans-Serif" font-size="10.00">EtatCellule.hpp</text>
</a>
</g>
</g>
<!-- Node4&#45;&gt;Node5 -->
<g id="edge4_Node000004_Node000005" class="edge">
<title>Node4&#45;&gt;Node5</title>
<g id="a_edge4_Node000004_Node000005"><a xlink:title=" ">
<path fill="none" stroke="#63b8ff" d="M326.74,-111.59C326.13,-105.01 325.29,-95.96 324.53,-87.73"/>
<polygon fill="#63b8ff" stroke="#63b8ff" points="328.02,-87.44 323.61,-77.81 321.05,-88.09 328.02,-87.44"/>
</a>
</g>
</g>
<!-- Node4&#45;&gt;Node6 -->
<g id="edge7_Node000004_Node000006" class="edge">
<title>Node4&#45;&gt;Node6</title>
<g id="a_edge7_Node000004_Node000006"><a xlink:title=" ">
<path fill="none" stroke="#63b8ff" d="M314.88,-111.55C303.4,-102.81 286.27,-89.2 272.61,-76 257.15,-61.06 241.15,-42.49 230.05,-29.03"/>
<polygon fill="#63b8ff" stroke="#63b8ff" points="232.89,-26.98 223.87,-21.43 227.46,-31.4 232.89,-26.98"/>
</a>
</g>
</g>
<!-- Node5&#45;&gt;Node6 -->
<g id="edge5_Node000005_Node000006" class="edge">
<title>Node5&#45;&gt;Node6</title>
<g id="a_edge5_Node000005_Node000006"><a xlink:title=" ">
<path fill="none" stroke="#63b8ff" d="M303.97,-55.59C287.58,-47.32 263.45,-35.14 244.55,-25.6"/>
<polygon fill="#63b8ff" stroke="#63b8ff" points="246.25,-22.54 235.74,-21.16 243.1,-28.79 246.25,-22.54"/>
</a>
</g>
</g>
<!-- Node5&#45;&gt;Node7 -->
<g id="edge6_Node000005_Node000007" class="edge">
<title>Node5&#45;&gt;Node7</title>
<g id="a_edge6_Node000005_Node000007"><a xlink:title=" ">
<path fill="none" stroke="#63b8ff" d="M328.53,-55.59C332.97,-48.55 339.19,-38.67 344.65,-30"/>
<polygon fill="#63b8ff" stroke="#63b8ff" points="347.58,-31.91 349.95,-21.58 341.66,-28.18 347.58,-31.91"/>
</a>
</g>
</g>
<!-- Node8&#45;&gt;Node6 -->
<g id="edge10_Node000008_Node000006" class="edge">
<title>Node8&#45;&gt;Node6</title>
<g id="a_edge10_Node000008_Node000006"><a xlink:title=" ">
<path fill="none" stroke="#63b8ff" d="M237.56,-111.62C233.7,-93.92 225.26,-55.24 220.04,-31.32"/>
<polygon fill="#63b8ff" stroke="#63b8ff" points="223.53,-30.86 217.97,-21.83 216.69,-32.35 223.53,-30.86"/>
</a>
</g>
</g>
<!-- Node8&#45;&gt;Node9 -->
<g id="edge9_Node000008_Node000009" class="edge">
<title>Node8&#45;&gt;Node9</title>
<g id="a_edge9_Node000008_Node000009"><a xlink:title=" ">
<path fill="none" stroke="#63b8ff" d="M219.4,-111.59C201.38,-103.21 174.74,-90.8 154.13,-81.21"/>
<polygon fill="#63b8ff" stroke="#63b8ff" points="155.89,-78.17 145.35,-77.12 152.93,-84.51 155.89,-78.17"/>
</a>
</g>
</g>
</g>
</svg>
