<?xml version="1.0" encoding="UTF-8" standalone="no"?>
<!DOCTYPE svg PUBLIC "-//W3C//DTD SVG 1.1//EN"
 "http://www.w3.org/Graphics/SVG/1.1/DTD/svg11.dtd">
<!-- Generated by graphviz version 14.0.2 (20251019.1705)
 -->
<!-- Title: include/JeuDeLaVie.hpp Pages: 1 -->
<svg width="584pt" height="140pt"
 viewBox="0.00 0.00 584.00 140.00" xmlns="http://www.w3.org/2000/svg" xmlns:xlink="http://www.w3.org/1999/xlink">
<g id="graph0" class="graph" transform="scale(1 1) rotate(0) translate(4 136)">
<title>include/JeuDeLaVie.hpp</title>
<!-- Node1 -->
<g id="Node000001" class="node">
<title>Node1</title>
<g id="a_Node000001"><a xlink:title=" ">
<polygon fill="#999999" stroke="#666666" points="357.5,-132 235.75,-132 235.75,-112 357.5,-112 357.5,-132"/>
<text xml:space="preserve" text-anchor="middle" x="296.62" y="-118.5" font-family="Helvetica,sans-Serif" font-size="10.00">include/JeuDeLaVie.hpp</text>
</a>
</g>
</g>
<!-- Node2 -->
<g id="Node000002" class="node">
<title>Node2</title>
<g id="a_Node000002"><a xlink:href="InterfaceQt_8hpp.html" target="_top" xlink:title=" ">
<polygon fill="white" stroke="#666666" points="117.25,-76 0,-76 0,-56 117.25,-56 117.25,-76"/>
<text xml:space="preserve" text-anchor="middle" x="58.62" y="-62.5" font-family="Helvetica,sans-Serif" font-size="10.00">include/InterfaceQt.hpp</text>
</a>
</g>
</g>
<!-- Node1&#45;&gt;Node2 -->
<g id="edge1_Node000001_Node000002" class="edge">
<title>Node1&#45;&gt;Node2</title>
<g id="a_edge1_Node000001_Node000002"><a xlink:title=" ">
<path fill="none" stroke="#63b8ff" d="M243.74,-109C200.49,-99.19 140.19,-85.51 100.31,-76.46"/>
<polygon fill="#63b8ff" stroke="#63b8ff" points="242.89,-112.4 253.42,-111.2 244.44,-105.57 242.89,-112.4"/>
</a>
</g>
</g>
<!-- Node4 -->
<g id="Node000004" class="node">
<title>Node4</title>
<g id="a_Node000004"><a xlink:href="InterfaceSFML_8hpp.html" target="_top" xlink:title=" ">
<polygon fill="white" stroke="#666666" points="268.12,-76 135.12,-76 135.12,-56 268.12,-56 268.12,-76"/>
<text xml:space="preserve" text-anchor="middle" x="201.62" y="-62.5" font-family="Helvetica,sans-Serif" font-size="10.00">include/InterfaceSFML.hpp</text>
</a>
</g>
</g>
<!-- Node1&#45;&gt;Node4 -->
<g id="edge3_Node000001_Node000004" class="edge">
<title>Node1&#45;&gt;Node4</title>
<g id="a_edge3_Node000001_Node000004"><a xlink:title=" ">
<path fill="none" stroke="#63b8ff" d="M270.38,-106.08C253.73,-96.62 232.69,-84.66 218.3,-76.48"/>
<polygon fill="#63b8ff" stroke="#63b8ff" points="268.34,-108.95 278.76,-110.85 271.8,-102.86 268.34,-108.95"/>
</a>
</g>
</g>
<!-- Node6 -->
<g id="Node000006" class="node">
<title>Node6</title>
<g id="a_Node000006"><a xlink:href="main_8cpp.html" target="_top" xlink:title=" ">
<polygon fill="white" stroke="#666666" points="332.75,-20 260.5,-20 260.5,0 332.75,0 332.75,-20"/>
<text xml:space="preserve" text-anchor="middle" x="296.62" y="-6.5" font-family="Helvetica,sans-Serif" font-size="10.00">src/main.cpp</text>
</a>
</g>
</g>
<!-- Node1&#45;&gt;Node6 -->
<g id="edge10_Node000001_Node000006" class="edge">
<title>Node1&#45;&gt;Node6</title>
<g id="a_edge10_Node000001_Node000006"><a xlink:title=" ">
<path fill="none" stroke="#63b8ff" d="M296.62,-100.31C296.62,-76.36 296.62,-37.95 296.62,-20.35"/>
<polygon fill="#63b8ff" stroke="#63b8ff" points="293.13,-100.11 296.63,-110.11 300.13,-100.11 293.13,-100.11"/>
</a>
</g>
</g>
<!-- Node7 -->
<g id="Node000007" class="node">
<title>Node7</title>
<g id="a_Node000007"><a xlink:href="ModeConsole_8hpp.html" target="_top" xlink:title=" ">
<polygon fill="white" stroke="#666666" points="452.88,-76 324.38,-76 324.38,-56 452.88,-56 452.88,-76"/>
<text xml:space="preserve" text-anchor="middle" x="388.62" y="-62.5" font-family="Helvetica,sans-Serif" font-size="10.00">include/ModeConsole.hpp</text>
</a>
</g>
</g>
<!-- Node1&#45;&gt;Node7 -->
<g id="edge6_Node000001_Node000007" class="edge">
<title>Node1&#45;&gt;Node7</title>
<g id="a_edge6_Node000001_Node000007"><a xlink:title=" ">
<path fill="none" stroke="#63b8ff" d="M322.5,-105.81C338.55,-96.39 358.67,-84.58 372.47,-76.48"/>
<polygon fill="#63b8ff" stroke="#63b8ff" points="320.81,-102.75 313.96,-110.83 324.35,-108.78 320.81,-102.75"/>
</a>
</g>
</g>
<!-- Node9 -->
<g id="Node000009" class="node">
<title>Node9</title>
<g id="a_Node000009"><a xlink:href="JeuDeLaVie_8cpp.html" target="_top" xlink:title=" ">
<polygon fill="white" stroke="#666666" points="575.88,-76 471.38,-76 471.38,-56 575.88,-56 575.88,-76"/>
<text xml:space="preserve" text-anchor="middle" x="523.62" y="-62.5" font-family="Helvetica,sans-Serif" font-size="10.00">src/JeuDeLaVie.cpp</text>
</a>
</g>
</g>
<!-- Node1&#45;&gt;Node9 -->
<g id="edge9_Node000001_Node000009" class="edge">
<title>Node1&#45;&gt;Node9</title>
<g id="a_edge9_Node000001_Node000009"><a xlink:title=" ">
<path fill="none" stroke="#63b8ff" d="M347.59,-108.88C388.8,-99.07 446,-85.47 483.87,-76.46"/>
<polygon fill="#63b8ff" stroke="#63b8ff" points="346.82,-105.46 337.9,-111.18 348.44,-112.27 346.82,-105.46"/>
</a>
</g>
</g>
<!-- Node3 -->
<g id="Node000003" class="node">
<title>Node3</title>
<g id="a_Node000003"><a xlink:href="InterfaceQt_8cpp.html" target="_top" xlink:title=" ">
<polygon fill="white" stroke="#666666" points="108.62,-20 8.62,-20 8.62,0 108.62,0 108.62,-20"/>
<text xml:space="preserve" text-anchor="middle" x="58.62" y="-6.5" font-family="Helvetica,sans-Serif" font-size="10.00">src/InterfaceQt.cpp</text>
</a>
</g>
</g>
<!-- Node2&#45;&gt;Node3 -->
<g id="edge2_Node000002_Node000003" class="edge">
<title>Node2&#45;&gt;Node3</title>
<g id="a_edge2_Node000002_Node000003"><a xlink:title=" ">
<path fill="none" stroke="#63b8ff" d="M58.62,-44.13C58.62,-35.9 58.62,-26.85 58.62,-20.3"/>
<polygon fill="#63b8ff" stroke="#63b8ff" points="55.13,-44.08 58.63,-54.08 62.13,-44.08 55.13,-44.08"/>
</a>
</g>
</g>
<!-- Node5 -->
<g id="Node000005" class="node">
<title>Node5</title>
<g id="a_Node000005"><a xlink:href="InterfaceSFML_8cpp.html" target="_top" xlink:title=" ">
<polygon fill="white" stroke="#666666" points="242.5,-20 126.75,-20 126.75,0 242.5,0 242.5,-20"/>
<text xml:space="preserve" text-anchor="middle" x="184.62" y="-6.5" font-family="Helvetica,sans-Serif" font-size="10.00">src/InterfaceSFML.cpp</text>
</a>
</g>
</g>
<!-- Node4&#45;&gt;Node5 -->
<g id="edge4_Node000004_Node000005" class="edge">
<title>Node4&#45;&gt;Node5</title>
<g id="a_edge4_Node000004_Node000005"><a xlink:title=" ">
<path fill="none" stroke="#63b8ff" d="M195.24,-44.71C192.6,-36.32 189.66,-27.01 187.55,-20.3"/>
<polygon fill="#63b8ff" stroke="#63b8ff" points="191.87,-45.66 198.21,-54.15 198.54,-43.56 191.87,-45.66"/>
</a>
</g>
</g>
<!-- Node4&#45;&gt;Node6 -->
<g id="edge5_Node000004_Node000006" class="edge">
<title>Node4&#45;&gt;Node6</title>
<g id="a_edge5_Node000004_Node000006"><a xlink:title=" ">
<path fill="none" stroke="#63b8ff" d="M227.87,-50.08C244.52,-40.62 265.56,-28.66 279.95,-20.48"/>
<polygon fill="#63b8ff" stroke="#63b8ff" points="226.45,-46.86 219.49,-54.85 229.91,-52.95 226.45,-46.86"/>
</a>
</g>
</g>
<!-- Node7&#45;&gt;Node6 -->
<g id="edge8_Node000007_Node000006" class="edge">
<title>Node7&#45;&gt;Node6</title>
<g id="a_edge8_Node000007_Node000006"><a xlink:title=" ">
<path fill="none" stroke="#63b8ff" d="M362.75,-49.81C346.7,-40.39 326.58,-28.58 312.78,-20.48"/>
<polygon fill="#63b8ff" stroke="#63b8ff" points="360.9,-52.78 371.29,-54.83 364.44,-46.75 360.9,-52.78"/>
</a>
</g>
</g>
<!-- Node8 -->
<g id="Node000008" class="node">
<title>Node8</title>
<g id="a_Node000008"><a xlink:href="ModeConsole_8cpp.html" target="_top" xlink:title=" ">
<polygon fill="white" stroke="#666666" points="462.25,-20 351,-20 351,0 462.25,0 462.25,-20"/>
<text xml:space="preserve" text-anchor="middle" x="406.62" y="-6.5" font-family="Helvetica,sans-Serif" font-size="10.00">src/ModeConsole.cpp</text>
</a>
</g>
</g>
<!-- Node7&#45;&gt;Node8 -->
<g id="edge7_Node000007_Node000008" class="edge">
<title>Node7&#45;&gt;Node8</title>
<g id="a_edge7_Node000007_Node000008"><a xlink:title=" ">
<path fill="none" stroke="#63b8ff" d="M395.39,-44.71C398.18,-36.32 401.29,-27.01 403.53,-20.3"/>
<polygon fill="#63b8ff" stroke="#63b8ff" points="392.08,-43.56 392.24,-54.16 398.72,-45.78 392.08,-43.56"/>
</a>
</g>
</g>
</g>
</svg>
