<?xml version="1.0" encoding="UTF-8" standalone="no"?>
<!DOCTYPE svg PUBLIC "-//W3C//DTD SVG 1.1//EN"
 "http://www.w3.org/Graphics/SVG/1.1/DTD/svg11.dtd">
<!-- Generated by graphviz version 14.0.2 (20251019.1705)
 -->
<!-- Title: src/ModeConsole.cpp Pages: 1 -->
<!--zoomable 364 -->

<svg id="main" version="1.1" xmlns="http://www.w3.org/2000/svg" xmlns:xlink="http://www.w3.org/1999/xlink" xml:space="preserve" onload="init(evt)">

<style type="text/css"><![CDATA[
.node, .edge {opacity: 0.7;}
.node.selected, .edge.selected {opacity: 1;}
.edge:hover path { stroke: red; }
.edge:hover polygon { stroke: red; fill: red; }
]]></style>

<defs>
  <circle id="rim" cx="0" cy="0" r="7"/>
  <circle id="rim2" cx="0" cy="0" r="3.5"/>
  <g id="zoomPlus">
    <use xlink:href="#rim" fill="#404040"><set attributeName="fill" to="#808080" begin="zoomplus.mouseover" end="zoomplus.mouseout"/></use>
    <path d="M-4,0h8M0,-4v8" fill="none" stroke="white" stroke-width="1.5" pointer-events="none"/>
  </g>
  <g id="zoomMin">
    <use xlink:href="#rim" fill="#404040"><set attributeName="fill" to="#808080" begin="zoomminus.mouseover" end="zoomminus.mouseout"/></use>
    <path d="M-4,0h8" fill="none" stroke="white" stroke-width="1.5" pointer-events="none"/>
  </g>
  <g id="arrowUp" transform="translate(30 24)">
    <use xlink:href="#rim"/>
    <path pointer-events="none" fill="none" stroke="white" stroke-width="1.5" d="M0,-3.0v7 M-2.5,-0.5L0,-3.0L2.5,-0.5"/>
  </g>
  <g id="arrowRight" transform="rotate(90) translate(36 -43)">
    <use xlink:href="#rim"/>
    <path pointer-events="none" fill="none" stroke="white" stroke-width="1.5" d="M0,-3.0v7 M-2.5,-0.5L0,-3.0L2.5,-0.5"/>
  </g>
  <g id="arrowDown" transform="rotate(180) translate(-30 -48)">
    <use xlink:href="#rim"/>
    <path pointer-events="none" fill="none" stroke="white" stroke-width="1.5" d="M0,-3.0v7 M-2.5,-0.5L0,-3.0L2.5,-0.5"/>
  </g>
  <g id="arrowLeft" transform="rotate(270) translate(-36 17)">
    <use xlink:href="#rim"/>
    <path pointer-events="none" fill="none" stroke="white" stroke-width="1.5" d="M0,-3.0v7 M-2.5,-0.5L0,-3.0L2.5,-0.5"/>
  </g>
  <g id="resetDef">
    <use xlink:href="#rim2" fill="#404040"><set attributeName="fill" to="#808080" begin="reset.mouseover" end="reset.mouseout"/></use>
  </g>
</defs>
<script type="application/ecmascript">
var viewWidth = 697;
var viewHeight = 364;
var sectionId = 'dynsection-0';
</script>
<script type="application/ecmascript" xlink:href="svg.min.js"/>
<svg id="graph" class="graph">
<g id="viewport">
<title>src/ModeConsole.cpp</title>
<!-- Node1 -->
<g id="Node000001" class="node">
<title>Node1</title>
<g id="a_Node000001"><a xlink:title=" ">
<polygon fill="#999999" stroke="#666666" points="536.61,-356 425.36,-356 425.36,-336 536.61,-336 536.61,-356"/>
<text xml:space="preserve" text-anchor="middle" x="480.98" y="-342.5" font-family="Helvetica,sans-Serif" font-size="10.00">src/ModeConsole.cpp</text>
</a>
</g>
</g>
<!-- Node2 -->
<g id="Node000002" class="node">
<title>Node2</title>
<g id="a_Node000002"><a xlink:href="ModeConsole_8hpp.html" target="_top" xlink:title=" ">
<polygon fill="white" stroke="#666666" points="401.36,-300 306.61,-300 306.61,-280 401.36,-280 401.36,-300"/>
<text xml:space="preserve" text-anchor="middle" x="353.98" y="-286.5" font-family="Helvetica,sans-Serif" font-size="10.00">ModeConsole.hpp</text>
</a>
</g>
</g>
<!-- Node1&#45;&gt;Node2 -->
<g id="edge1_Node000001_Node000002" class="edge">
<title>Node1&#45;&gt;Node2</title>
<g id="a_edge1_Node000001_Node000002"><a xlink:title=" ">
<path fill="none" stroke="#63b8ff" d="M458.86,-335.59C438.95,-327.13 409.43,-314.58 386.77,-304.94"/>
<polygon fill="#63b8ff" stroke="#63b8ff" points="388.24,-301.76 377.67,-301.07 385.5,-308.21 388.24,-301.76"/>
</a>
</g>
</g>
<!-- Node12 -->
<g id="Node000012" class="node">
<title>Node12</title>
<g id="a_Node000012"><a xlink:href="GestionnaireFichier_8hpp.html" target="_top" xlink:title=" ">
<polygon fill="white" stroke="#666666" points="282.36,-244 163.61,-244 163.61,-224 282.36,-224 282.36,-244"/>
<text xml:space="preserve" text-anchor="middle" x="222.98" y="-230.5" font-family="Helvetica,sans-Serif" font-size="10.00">GestionnaireFichier.hpp</text>
</a>
</g>
</g>
<!-- Node1&#45;&gt;Node12 -->
<g id="edge20_Node000001_Node000012" class="edge">
<title>Node1&#45;&gt;Node12</title>
<g id="a_edge20_Node000001_Node000012"><a xlink:title=" ">
<path fill="none" stroke="#63b8ff" d="M424.92,-338.22C387.4,-332.04 337.79,-320.6 297.98,-300 274.66,-287.93 252.53,-267.2 238.44,-252.4"/>
<polygon fill="#63b8ff" stroke="#63b8ff" points="241.14,-250.16 231.79,-245.19 235.99,-254.91 241.14,-250.16"/>
</a>
</g>
</g>
<!-- Node13 -->
<g id="Node000013" class="node">
<title>Node13</title>
<g id="a_Node000013"><a xlink:title=" ">
<polygon fill="#e0e0e0" stroke="#999999" points="472.73,-300 419.23,-300 419.23,-280 472.73,-280 472.73,-300"/>
<text xml:space="preserve" text-anchor="middle" x="445.98" y="-286.5" font-family="Helvetica,sans-Serif" font-size="10.00">iostream</text>
</a>
</g>
</g>
<!-- Node1&#45;&gt;Node13 -->
<g id="edge24_Node000001_Node000013" class="edge">
<title>Node1&#45;&gt;Node13</title>
<g id="a_edge24_Node000001_Node000013"><a xlink:title=" ">
<path fill="none" stroke="#63b8ff" d="M474.88,-335.59C470.27,-328.47 463.77,-318.45 458.11,-309.72"/>
<polygon fill="#63b8ff" stroke="#63b8ff" points="461.21,-308.06 452.83,-301.57 455.33,-311.86 461.21,-308.06"/>
</a>
</g>
</g>
<!-- Node14 -->
<g id="Node000014" class="node">
<title>Node14</title>
<g id="a_Node000014"><a xlink:title=" ">
<polygon fill="#e0e0e0" stroke="#999999" points="540.86,-300 491.11,-300 491.11,-280 540.86,-280 540.86,-300"/>
<text xml:space="preserve" text-anchor="middle" x="515.98" y="-286.5" font-family="Helvetica,sans-Serif" font-size="10.00">iomanip</text>
</a>
</g>
</g>
<!-- Node1&#45;&gt;Node14 -->
<g id="edge25_Node000001_Node000014" class="edge">
<title>Node1&#45;&gt;Node14</title>
<g id="a_edge25_Node000001_Node000014"><a xlink:title=" ">
<path fill="none" stroke="#63b8ff" d="M487.08,-335.59C491.69,-328.47 498.19,-318.45 503.85,-309.72"/>
<polygon fill="#63b8ff" stroke="#63b8ff" points="506.63,-311.86 509.13,-301.57 500.76,-308.06 506.63,-311.86"/>
</a>
</g>
</g>
<!-- Node15 -->
<g id="Node000015" class="node">
<title>Node15</title>
<g id="a_Node000015"><a xlink:title=" ">
<polygon fill="#e0e0e0" stroke="#999999" points="610.61,-300 559.36,-300 559.36,-280 610.61,-280 610.61,-300"/>
<text xml:space="preserve" text-anchor="middle" x="584.98" y="-286.5" font-family="Helvetica,sans-Serif" font-size="10.00">sstream</text>
</a>
</g>
</g>
<!-- Node1&#45;&gt;Node15 -->
<g id="edge26_Node000001_Node000015" class="edge">
<title>Node1&#45;&gt;Node15</title>
<g id="a_edge26_Node000001_Node000015"><a xlink:title=" ">
<path fill="none" stroke="#63b8ff" d="M499.1,-335.59C514.96,-327.36 538.26,-315.26 556.6,-305.74"/>
<polygon fill="#63b8ff" stroke="#63b8ff" points="558.12,-308.89 565.38,-301.18 554.89,-302.68 558.12,-308.89"/>
</a>
</g>
</g>
<!-- Node16 -->
<g id="Node000016" class="node">
<title>Node16</title>
<g id="a_Node000016"><a xlink:title=" ">
<polygon fill="#e0e0e0" stroke="#999999" points="689.48,-300 628.48,-300 628.48,-280 689.48,-280 689.48,-300"/>
<text xml:space="preserve" text-anchor="middle" x="658.98" y="-286.5" font-family="Helvetica,sans-Serif" font-size="10.00">filesystem</text>
</a>
</g>
</g>
<!-- Node1&#45;&gt;Node16 -->
<g id="edge27_Node000001_Node000016" class="edge">
<title>Node1&#45;&gt;Node16</title>
<g id="a_edge27_Node000001_Node000016"><a xlink:title=" ">
<path fill="none" stroke="#63b8ff" d="M511.99,-335.59C541.12,-326.75 584.95,-313.46 617.16,-303.69"/>
<polygon fill="#63b8ff" stroke="#63b8ff" points="618.03,-307.08 626.58,-300.83 616,-300.38 618.03,-307.08"/>
</a>
</g>
</g>
<!-- Node3 -->
<g id="Node000003" class="node">
<title>Node3</title>
<g id="a_Node000003"><a xlink:href="JeuDeLaVie_8hpp.html" target="_top" xlink:title=" ">
<polygon fill="white" stroke="#666666" points="397.98,-244 309.98,-244 309.98,-224 397.98,-224 397.98,-244"/>
<text xml:space="preserve" text-anchor="middle" x="353.98" y="-230.5" font-family="Helvetica,sans-Serif" font-size="10.00">JeuDeLaVie.hpp</text>
</a>
</g>
</g>
<!-- Node2&#45;&gt;Node3 -->
<g id="edge2_Node000002_Node000003" class="edge">
<title>Node2&#45;&gt;Node3</title>
<g id="a_edge2_Node000002_Node000003"><a xlink:title=" ">
<path fill="none" stroke="#63b8ff" d="M353.98,-279.59C353.98,-273.01 353.98,-263.96 353.98,-255.73"/>
<polygon fill="#63b8ff" stroke="#63b8ff" points="357.48,-255.81 353.98,-245.81 350.48,-255.81 357.48,-255.81"/>
</a>
</g>
</g>
<!-- Node8 -->
<g id="Node000008" class="node">
<title>Node8</title>
<g id="a_Node000008"><a xlink:title=" ">
<polygon fill="#e0e0e0" stroke="#999999" points="468.98,-20 428.98,-20 428.98,0 468.98,0 468.98,-20"/>
<text xml:space="preserve" text-anchor="middle" x="448.98" y="-6.5" font-family="Helvetica,sans-Serif" font-size="10.00">string</text>
</a>
</g>
</g>
<!-- Node2&#45;&gt;Node8 -->
<g id="edge19_Node000002_Node000008" class="edge">
<title>Node2&#45;&gt;Node8</title>
<g id="a_edge19_Node000002_Node000008"><a xlink:title=" ">
<path fill="none" stroke="#63b8ff" d="M391.55,-279.58C436.57,-265.78 505.98,-235.35 505.98,-179 505.98,-179 505.98,-179 505.98,-121 505.98,-85.35 482.09,-49.75 465.24,-29.08"/>
<polygon fill="#63b8ff" stroke="#63b8ff" points="468.02,-26.94 458.87,-21.6 462.68,-31.48 468.02,-26.94"/>
</a>
</g>
</g>
<!-- Node4 -->
<g id="Node000004" class="node">
<title>Node4</title>
<g id="a_Node000004"><a xlink:href="Grille_8hpp.html" target="_top" xlink:title=" ">
<polygon fill="white" stroke="#666666" points="240.61,-188 183.36,-188 183.36,-168 240.61,-168 240.61,-188"/>
<text xml:space="preserve" text-anchor="middle" x="211.98" y="-174.5" font-family="Helvetica,sans-Serif" font-size="10.00">Grille.hpp</text>
</a>
</g>
</g>
<!-- Node3&#45;&gt;Node4 -->
<g id="edge3_Node000003_Node000004" class="edge">
<title>Node3&#45;&gt;Node4</title>
<g id="a_edge3_Node000003_Node000004"><a xlink:title=" ">
<path fill="none" stroke="#63b8ff" d="M329.25,-223.59C306.68,-215.01 273.07,-202.23 247.61,-192.55"/>
<polygon fill="#63b8ff" stroke="#63b8ff" points="248.91,-189.3 238.32,-189.02 246.43,-195.84 248.91,-189.3"/>
</a>
</g>
</g>
<!-- Node7 -->
<g id="Node000007" class="node">
<title>Node7</title>
<g id="a_Node000007"><a xlink:title=" ">
<polygon fill="#e0e0e0" stroke="#999999" points="96.61,-20 45.36,-20 45.36,0 96.61,0 96.61,-20"/>
<text xml:space="preserve" text-anchor="middle" x="70.98" y="-6.5" font-family="Helvetica,sans-Serif" font-size="10.00">memory</text>
</a>
</g>
</g>
<!-- Node3&#45;&gt;Node7 -->
<g id="edge16_Node000003_Node000007" class="edge">
<title>Node3&#45;&gt;Node7</title>
<g id="a_edge16_Node000003_Node000007"><a xlink:title=" ">
<path fill="none" stroke="#63b8ff" d="M358.39,-223.6C362.32,-214.67 367.78,-200.75 369.98,-188 375.85,-153.98 375.34,-139.12 353.98,-112 293.48,-35.19 169.88,-16.71 108,-12.32"/>
<polygon fill="#63b8ff" stroke="#63b8ff" points="108.55,-8.85 98.35,-11.73 108.12,-15.84 108.55,-8.85"/>
</a>
</g>
</g>
<!-- Node3&#45;&gt;Node8 -->
<g id="edge17_Node000003_Node000008" class="edge">
<title>Node3&#45;&gt;Node8</title>
<g id="a_edge17_Node000003_Node000008"><a xlink:title=" ">
<path fill="none" stroke="#63b8ff" d="M367.77,-223.52C389.43,-207.63 430.36,-173.26 443.98,-132 455.15,-98.17 453.72,-56.1 451.48,-31.53"/>
<polygon fill="#63b8ff" stroke="#63b8ff" points="455,-31.49 450.46,-21.92 448.04,-32.23 455,-31.49"/>
</a>
</g>
</g>
<!-- Node10 -->
<g id="Node000010" class="node">
<title>Node10</title>
<g id="a_Node000010"><a xlink:title=" ">
<polygon fill="#e0e0e0" stroke="#999999" points="245.48,-76 202.48,-76 202.48,-56 245.48,-56 245.48,-76"/>
<text xml:space="preserve" text-anchor="middle" x="223.98" y="-62.5" font-family="Helvetica,sans-Serif" font-size="10.00">vector</text>
</a>
</g>
</g>
<!-- Node3&#45;&gt;Node10 -->
<g id="edge18_Node000003_Node000010" class="edge">
<title>Node3&#45;&gt;Node10</title>
<g id="a_edge18_Node000003_Node000010"><a xlink:title=" ">
<path fill="none" stroke="#63b8ff" d="M355.37,-223.61C358.07,-201.53 361.68,-145.65 334.98,-112 316.01,-88.09 282.31,-76.81 257.01,-71.53"/>
<polygon fill="#63b8ff" stroke="#63b8ff" points="257.66,-68.09 247.19,-69.72 256.4,-74.98 257.66,-68.09"/>
</a>
</g>
</g>
<!-- Node11 -->
<g id="Node000011" class="node">
<title>Node11</title>
<g id="a_Node000011"><a xlink:href="Constantes_8hpp.html" target="_top" xlink:title="Configuration centralisée du projet.">
<polygon fill="white" stroke="#666666" points="325.48,-132 240.48,-132 240.48,-112 325.48,-112 325.48,-132"/>
<text xml:space="preserve" text-anchor="middle" x="282.98" y="-118.5" font-family="Helvetica,sans-Serif" font-size="10.00">Constantes.hpp</text>
</a>
</g>
</g>
<!-- Node3&#45;&gt;Node11 -->
<g id="edge15_Node000003_Node000011" class="edge">
<title>Node3&#45;&gt;Node11</title>
<g id="a_edge15_Node000003_Node000011"><a xlink:title=" ">
<path fill="none" stroke="#63b8ff" d="M347.93,-223.62C336.3,-205.6 310.61,-165.81 295.26,-142.02"/>
<polygon fill="#63b8ff" stroke="#63b8ff" points="298.2,-140.13 289.84,-133.63 292.32,-143.93 298.2,-140.13"/>
</a>
</g>
</g>
<!-- Node5 -->
<g id="Node000005" class="node">
<title>Node5</title>
<g id="a_Node000005"><a xlink:href="Cellule_8hpp.html" target="_top" xlink:title=" ">
<polygon fill="white" stroke="#666666" points="90.36,-132 25.61,-132 25.61,-112 90.36,-112 90.36,-132"/>
<text xml:space="preserve" text-anchor="middle" x="57.98" y="-118.5" font-family="Helvetica,sans-Serif" font-size="10.00">Cellule.hpp</text>
</a>
</g>
</g>
<!-- Node4&#45;&gt;Node5 -->
<g id="edge4_Node000004_Node000005" class="edge">
<title>Node4&#45;&gt;Node5</title>
<g id="a_edge4_Node000004_Node000005"><a xlink:title=" ">
<path fill="none" stroke="#63b8ff" d="M185.16,-167.59C160.36,-158.9 123.25,-145.89 95.52,-136.16"/>
<polygon fill="#63b8ff" stroke="#63b8ff" points="97.04,-132.99 86.44,-132.98 94.72,-139.59 97.04,-132.99"/>
</a>
</g>
</g>
<!-- Node4&#45;&gt;Node7 -->
<g id="edge14_Node000004_Node000007" class="edge">
<title>Node4&#45;&gt;Node7</title>
<g id="a_edge14_Node000004_Node000007"><a xlink:title=" ">
<path fill="none" stroke="#63b8ff" d="M183.1,-174.65C133.97,-169.98 37.42,-157.69 16.98,-132 -8.77,-99.63 28.29,-53.04 52.63,-28.18"/>
<polygon fill="#63b8ff" stroke="#63b8ff" points="54.84,-30.92 59.51,-21.41 49.93,-25.93 54.84,-30.92"/>
</a>
</g>
</g>
<!-- Node9 -->
<g id="Node000009" class="node">
<title>Node9</title>
<g id="a_Node000009"><a xlink:href="RegleJeu_8hpp.html" target="_top" xlink:title=" ">
<polygon fill="white" stroke="#666666" points="183.98,-132 107.98,-132 107.98,-112 183.98,-112 183.98,-132"/>
<text xml:space="preserve" text-anchor="middle" x="145.98" y="-118.5" font-family="Helvetica,sans-Serif" font-size="10.00">RegleJeu.hpp</text>
</a>
</g>
</g>
<!-- Node4&#45;&gt;Node9 -->
<g id="edge9_Node000004_Node000009" class="edge">
<title>Node4&#45;&gt;Node9</title>
<g id="a_edge9_Node000004_Node000009"><a xlink:title=" ">
<path fill="none" stroke="#63b8ff" d="M200.48,-167.59C191.02,-159.85 177.38,-148.69 166.11,-139.47"/>
<polygon fill="#63b8ff" stroke="#63b8ff" points="168.47,-136.88 158.52,-133.26 164.04,-142.3 168.47,-136.88"/>
</a>
</g>
</g>
<!-- Node4&#45;&gt;Node10 -->
<g id="edge13_Node000004_Node000010" class="edge">
<title>Node4&#45;&gt;Node10</title>
<g id="a_edge13_Node000004_Node000010"><a xlink:title=" ">
<path fill="none" stroke="#63b8ff" d="M213,-167.62C214.93,-150.01 219.12,-111.59 221.73,-87.65"/>
<polygon fill="#63b8ff" stroke="#63b8ff" points="225.19,-88.18 222.8,-77.86 218.23,-87.42 225.19,-88.18"/>
</a>
</g>
</g>
<!-- Node4&#45;&gt;Node11 -->
<g id="edge12_Node000004_Node000011" class="edge">
<title>Node4&#45;&gt;Node11</title>
<g id="a_edge12_Node000004_Node000011"><a xlink:title=" ">
<path fill="none" stroke="#63b8ff" d="M224.35,-167.59C234.63,-159.77 249.5,-148.46 261.69,-139.19"/>
<polygon fill="#63b8ff" stroke="#63b8ff" points="263.71,-142.05 269.55,-133.21 259.47,-136.48 263.71,-142.05"/>
</a>
</g>
</g>
<!-- Node6 -->
<g id="Node000006" class="node">
<title>Node6</title>
<g id="a_Node000006"><a xlink:href="EtatCellule_8hpp.html" target="_top" xlink:title=" ">
<polygon fill="white" stroke="#666666" points="146.36,-76 63.61,-76 63.61,-56 146.36,-56 146.36,-76"/>
<text xml:space="preserve" text-anchor="middle" x="104.98" y="-62.5" font-family="Helvetica,sans-Serif" font-size="10.00">EtatCellule.hpp</text>
</a>
</g>
</g>
<!-- Node5&#45;&gt;Node6 -->
<g id="edge5_Node000005_Node000006" class="edge">
<title>Node5&#45;&gt;Node6</title>
<g id="a_edge5_Node000005_Node000006"><a xlink:title=" ">
<path fill="none" stroke="#63b8ff" d="M66.17,-111.59C72.57,-104.24 81.66,-93.8 89.43,-84.87"/>
<polygon fill="#63b8ff" stroke="#63b8ff" points="91.97,-87.28 95.89,-77.44 86.69,-82.69 91.97,-87.28"/>
</a>
</g>
</g>
<!-- Node5&#45;&gt;Node7 -->
<g id="edge8_Node000005_Node000007" class="edge">
<title>Node5&#45;&gt;Node7</title>
<g id="a_edge8_Node000005_Node000007"><a xlink:title=" ">
<path fill="none" stroke="#63b8ff" d="M56.3,-111.66C54.29,-98.97 51.6,-75.59 54.98,-56 56.44,-47.54 59.34,-38.55 62.27,-30.86"/>
<polygon fill="#63b8ff" stroke="#63b8ff" points="65.43,-32.38 66,-21.8 58.96,-29.72 65.43,-32.38"/>
</a>
</g>
</g>
<!-- Node6&#45;&gt;Node7 -->
<g id="edge6_Node000006_Node000007" class="edge">
<title>Node6&#45;&gt;Node7</title>
<g id="a_edge6_Node000006_Node000007"><a xlink:title=" ">
<path fill="none" stroke="#63b8ff" d="M99.06,-55.59C94.62,-48.55 88.4,-38.67 82.94,-30"/>
<polygon fill="#63b8ff" stroke="#63b8ff" points="85.93,-28.18 77.64,-21.58 80.01,-31.91 85.93,-28.18"/>
</a>
</g>
</g>
<!-- Node6&#45;&gt;Node8 -->
<g id="edge7_Node000006_Node000008" class="edge">
<title>Node6&#45;&gt;Node8</title>
<g id="a_edge7_Node000006_Node000008"><a xlink:title=" ">
<path fill="none" stroke="#63b8ff" d="M146.82,-58.43C216.63,-47.47 355.33,-25.7 417.52,-15.94"/>
<polygon fill="#63b8ff" stroke="#63b8ff" points="417.72,-19.45 427.06,-14.44 416.64,-12.53 417.72,-19.45"/>
</a>
</g>
</g>
<!-- Node9&#45;&gt;Node7 -->
<g id="edge11_Node000009_Node000007" class="edge">
<title>Node9&#45;&gt;Node7</title>
<g id="a_edge11_Node000009_Node000007"><a xlink:title=" ">
<path fill="none" stroke="#63b8ff" d="M150.68,-111.87C156.79,-98.58 165.52,-73.59 154.98,-56 144.64,-38.72 125.13,-27.7 107.52,-20.89"/>
<polygon fill="#63b8ff" stroke="#63b8ff" points="108.93,-17.67 98.33,-17.68 106.62,-24.28 108.93,-17.67"/>
</a>
</g>
</g>
<!-- Node9&#45;&gt;Node10 -->
<g id="edge10_Node000009_Node000010" class="edge">
<title>Node9&#45;&gt;Node10</title>
<g id="a_edge10_Node000009_Node000010"><a xlink:title=" ">
<path fill="none" stroke="#63b8ff" d="M159.57,-111.59C171.02,-103.67 187.64,-92.16 201.14,-82.82"/>
<polygon fill="#63b8ff" stroke="#63b8ff" points="202.81,-85.91 209.04,-77.34 198.83,-80.16 202.81,-85.91"/>
</a>
</g>
</g>
<!-- Node12&#45;&gt;Node4 -->
<g id="edge21_Node000012_Node000004" class="edge">
<title>Node12&#45;&gt;Node4</title>
<g id="a_edge21_Node000012_Node000004"><a xlink:title=" ">
<path fill="none" stroke="#63b8ff" d="M221.07,-223.59C219.71,-216.93 217.84,-207.75 216.14,-199.44"/>
<polygon fill="#63b8ff" stroke="#63b8ff" points="219.6,-198.88 214.18,-189.78 212.74,-200.28 219.6,-198.88"/>
</a>
</g>
</g>
<!-- Node12&#45;&gt;Node7 -->
<g id="edge23_Node000012_Node000007" class="edge">
<title>Node12&#45;&gt;Node7</title>
<g id="a_edge23_Node000012_Node000007"><a xlink:title=" ">
<path fill="none" stroke="#63b8ff" d="M163.46,-223.51C111.66,-211.77 39.62,-186.22 4.98,-132 -4.35,-117.39 0.92,-78.24 13.98,-56 20.97,-44.1 32.41,-34.14 43.21,-26.65"/>
<polygon fill="#63b8ff" stroke="#63b8ff" points="45.02,-29.65 51.53,-21.29 41.23,-23.76 45.02,-29.65"/>
</a>
</g>
</g>
<!-- Node12&#45;&gt;Node8 -->
<g id="edge22_Node000012_Node000008" class="edge">
<title>Node12&#45;&gt;Node8</title>
<g id="a_edge22_Node000012_Node000008"><a xlink:title=" ">
<path fill="none" stroke="#63b8ff" d="M234.06,-223.54C254.48,-205.98 299.24,-166.97 334.98,-132 371.22,-96.54 411.41,-52.77 433.06,-28.79"/>
<polygon fill="#63b8ff" stroke="#63b8ff" points="435.55,-31.25 439.64,-21.48 430.35,-26.57 435.55,-31.25"/>
</a>
</g>
</g>
</g>
</svg>

<g id="navigator" transform="translate(0 0)" fill="#404254">
  <rect fill="#f2f5e9" fill-opacity="0.5" stroke="#606060" stroke-width=".5" x="0" y="0" width="60" height="60"/>
  <use id="zoomplus" xlink:href="#zoomPlus" x="17" y="9" onmousedown="handleZoom(evt,'in')"/>
  <use id="zoomminus" xlink:href="#zoomMin" x="42" y="9" onmousedown="handleZoom(evt,'out')"/>
  <use id="reset" xlink:href="#resetDef" x="30" y="36" onmousedown="handleReset()"/>
   <use id="arrowup" xlink:href="#arrowUp" x="0" y="0" onmousedown="handlePan(0,-1)"/>
  <use id="arrowright" xlink:href="#arrowRight" x="0" y="0" onmousedown="handlePan(1,0)"/>
  <use id="arrowdown" xlink:href="#arrowDown" x="0" y="0" onmousedown="handlePan(0,1)"/>
  <use id="arrowleft" xlink:href="#arrowLeft" x="0" y="0" onmousedown="handlePan(-1,0)"/>
</g>
<svg viewBox="0 0 15 15" width="100%" height="30px" preserveAspectRatio="xMaxYMin meet">
 <g id="arrow_out" transform="scale(0.3 0.3)">
  <a xlink:href="ModeConsole_8cpp__incl_org.svg" target="_base">
   <rect id="button" ry="5" rx="5" y="6" x="6" height="38" width="38"
        fill="#f2f5e9" fill-opacity="0.5" stroke="#606060" stroke-width="1.0"/>
   <path id="arrow"
     d="M 11.500037,31.436501 C 11.940474,20.09759 22.043105,11.32322 32.158766,21.979434 L 37.068811,17.246167 C 37.068811,17.246167 37.088388,32 37.088388,32 L 22.160133,31.978069 C 22.160133,31.978069 26.997745,27.140456 26.997745,27.140456 C 18.528582,18.264221 13.291696,25.230495 11.500037,31.436501 z"
     style="fill:#404040;"/>
  </a>
 </g>
</svg>

<style type='text/css'>
<![CDATA[
[data-mouse-over-selected='false'] { opacity: 0.7; }
[data-mouse-over-selected='true']  { opacity: 1.0; }
]]>
</style>
<script type="application/ecmascript"><![CDATA[
document.addEventListener('DOMContentLoaded', (event) => {
  highlightEdges();
  highlightAdjacentNodes();
});
]]></script>
</svg>
