<?xml version="1.0" encoding="UTF-8" standalone="no"?>
<!DOCTYPE svg PUBLIC "-//W3C//DTD SVG 1.1//EN"
 "http://www.w3.org/Graphics/SVG/1.1/DTD/svg11.dtd">
<!-- Generated by graphviz version 14.0.2 (20251019.1705)
 -->
<!-- Title: include/RegleJeu.hpp Pages: 1 -->
<!--zoomable 252 -->

<svg id="main" version="1.1" xmlns="http://www.w3.org/2000/svg" xmlns:xlink="http://www.w3.org/1999/xlink" xml:space="preserve" onload="init(evt)">

<style type="text/css"><![CDATA[
.node, .edge {opacity: 0.7;}
.node.selected, .edge.selected {opacity: 1;}
.edge:hover path { stroke: red; }
.edge:hover polygon { stroke: red; fill: red; }
]]></style>

<defs>
  <circle id="rim" cx="0" cy="0" r="7"/>
  <circle id="rim2" cx="0" cy="0" r="3.5"/>
  <g id="zoomPlus">
    <use xlink:href="#rim" fill="#404040"><set attributeName="fill" to="#808080" begin="zoomplus.mouseover" end="zoomplus.mouseout"/></use>
    <path d="M-4,0h8M0,-4v8" fill="none" stroke="white" stroke-width="1.5" pointer-events="none"/>
  </g>
  <g id="zoomMin">
    <use xlink:href="#rim" fill="#404040"><set attributeName="fill" to="#808080" begin="zoomminus.mouseover" end="zoomminus.mouseout"/></use>
    <path d="M-4,0h8" fill="none" stroke="white" stroke-width="1.5" pointer-events="none"/>
  </g>
  <g id="arrowUp" transform="translate(30 24)">
    <use xlink:href="#rim"/>
    <path pointer-events="none" fill="none" stroke="white" stroke-width="1.5" d="M0,-3.0v7 M-2.5,-0.5L0,-3.0L2.5,-0.5"/>
  </g>
  <g id="arrowRight" transform="rotate(90) translate(36 -43)">
    <use xlink:href="#rim"/>
    <path pointer-events="none" fill="none" stroke="white" stroke-width="1.5" d="M0,-3.0v7 M-2.5,-0.5L0,-3.0L2.5,-0.5"/>
  </g>
  <g id="arrowDown" transform="rotate(180) translate(-30 -48)">
    <use xlink:href="#rim"/>
    <path pointer-events="none" fill="none" stroke="white" stroke-width="1.5" d="M0,-3.0v7 M-2.5,-0.5L0,-3.0L2.5,-0.5"/>
  </g>
  <g id="arrowLeft" transform="rotate(270) translate(-36 17)">
    <use xlink:href="#rim"/>
    <path pointer-events="none" fill="none" stroke="white" stroke-width="1.5" d="M0,-3.0v7 M-2.5,-0.5L0,-3.0L2.5,-0.5"/>
  </g>
  <g id="resetDef">
    <use xlink:href="#rim2" fill="#404040"><set attributeName="fill" to="#808080" begin="reset.mouseover" end="reset.mouseout"/></use>
  </g>
</defs>
<script type="application/ecmascript">
var viewWidth = 1036;
var viewHeight = 252;
var sectionId = 'dynsection-1';
</script>
<script type="application/ecmascript" xlink:href="svg.min.js"/>
<svg id="graph" class="graph">
<g id="viewport">
<title>include/RegleJeu.hpp</title>
<!-- Node1 -->
<g id="Node000001" class="node">
<title>Node1</title>
<g id="a_Node000001"><a xlink:title=" ">
<polygon fill="#999999" stroke="#666666" points="882.12,-244 772.38,-244 772.38,-224 882.12,-224 882.12,-244"/>
<text xml:space="preserve" text-anchor="middle" x="827.25" y="-230.5" font-family="Helvetica,sans-Serif" font-size="10.00">include/RegleJeu.hpp</text>
</a>
</g>
</g>
<!-- Node2 -->
<g id="Node000002" class="node">
<title>Node2</title>
<g id="a_Node000002"><a xlink:href="Grille_8hpp.html" target="_top" xlink:title=" ">
<polygon fill="white" stroke="#666666" points="681.75,-188 590.75,-188 590.75,-168 681.75,-168 681.75,-188"/>
<text xml:space="preserve" text-anchor="middle" x="636.25" y="-174.5" font-family="Helvetica,sans-Serif" font-size="10.00">include/Grille.hpp</text>
</a>
</g>
</g>
<!-- Node1&#45;&gt;Node2 -->
<g id="edge1_Node000001_Node000002" class="edge">
<title>Node1&#45;&gt;Node2</title>
<g id="a_edge1_Node000001_Node000002"><a xlink:title=" ">
<path fill="none" stroke="#63b8ff" d="M783.25,-220.56C748.69,-210.79 701.31,-197.39 669.78,-188.48"/>
<polygon fill="#63b8ff" stroke="#63b8ff" points="781.95,-223.83 792.52,-223.18 783.85,-217.09 781.95,-223.83"/>
</a>
</g>
</g>
<!-- Node6 -->
<g id="Node000006" class="node">
<title>Node6</title>
<g id="a_Node000006"><a xlink:href="main_8cpp.html" target="_top" xlink:title=" ">
<polygon fill="white" stroke="#666666" points="363.38,-20 291.12,-20 291.12,0 363.38,0 363.38,-20"/>
<text xml:space="preserve" text-anchor="middle" x="327.25" y="-6.5" font-family="Helvetica,sans-Serif" font-size="10.00">src/main.cpp</text>
</a>
</g>
</g>
<!-- Node1&#45;&gt;Node6 -->
<g id="edge25_Node000001_Node000006" class="edge">
<title>Node1&#45;&gt;Node6</title>
<g id="a_edge25_Node000001_Node000006"><a xlink:title=" ">
<path fill="none" stroke="#63b8ff" d="M760.57,-224.73C652.86,-210.23 446.92,-177.38 390.25,-132 352.54,-101.8 334.92,-42.9 329.32,-20.21"/>
<polygon fill="#63b8ff" stroke="#63b8ff" points="760.07,-228.2 770.44,-226.05 760.99,-221.26 760.07,-228.2"/>
</a>
</g>
</g>
<!-- Node13 -->
<g id="Node000013" class="node">
<title>Node13</title>
<g id="a_Node000013"><a xlink:href="JeuDeLaVie_8cpp.html" target="_top" xlink:title=" ">
<polygon fill="white" stroke="#666666" points="784.5,-76 680,-76 680,-56 784.5,-56 784.5,-76"/>
<text xml:space="preserve" text-anchor="middle" x="732.25" y="-62.5" font-family="Helvetica,sans-Serif" font-size="10.00">src/JeuDeLaVie.cpp</text>
</a>
</g>
</g>
<!-- Node1&#45;&gt;Node13 -->
<g id="edge22_Node000001_Node000013" class="edge">
<title>Node1&#45;&gt;Node13</title>
<g id="a_edge22_Node000001_Node000013"><a xlink:title=" ">
<path fill="none" stroke="#63b8ff" d="M845.55,-216.07C869.86,-191.5 907.02,-145.29 882.25,-112 870.4,-96.08 823.28,-83.68 784.97,-75.97"/>
<polygon fill="#63b8ff" stroke="#63b8ff" points="843.42,-213.26 838.69,-222.74 848.3,-218.28 843.42,-213.26"/>
</a>
</g>
</g>
<!-- Node15 -->
<g id="Node000015" class="node">
<title>Node15</title>
<g id="a_Node000015"><a xlink:href="TestsUnitaires_8cpp.html" target="_top" xlink:title=" ">
<polygon fill="white" stroke="#666666" points="1028.38,-76 914.12,-76 914.12,-56 1028.38,-56 1028.38,-76"/>
<text xml:space="preserve" text-anchor="middle" x="971.25" y="-62.5" font-family="Helvetica,sans-Serif" font-size="10.00">src/TestsUnitaires.cpp</text>
</a>
</g>
</g>
<!-- Node1&#45;&gt;Node15 -->
<g id="edge24_Node000001_Node000015" class="edge">
<title>Node1&#45;&gt;Node15</title>
<g id="a_edge24_Node000001_Node000015"><a xlink:title=" ">
<path fill="none" stroke="#63b8ff" d="M853.3,-217.47C865.34,-209.55 879.36,-199.23 890.25,-188 925.63,-151.53 955.39,-97.74 966.54,-76.31"/>
<polygon fill="#63b8ff" stroke="#63b8ff" points="851.61,-214.4 845.04,-222.71 855.36,-220.31 851.61,-214.4"/>
</a>
</g>
</g>
<!-- Node18 -->
<g id="Node000018" class="node">
<title>Node18</title>
<g id="a_Node000018"><a xlink:href="RegleJeu_8cpp.html" target="_top" xlink:title=" ">
<polygon fill="white" stroke="#666666" points="873.5,-132 781,-132 781,-112 873.5,-112 873.5,-132"/>
<text xml:space="preserve" text-anchor="middle" x="827.25" y="-118.5" font-family="Helvetica,sans-Serif" font-size="10.00">src/RegleJeu.cpp</text>
</a>
</g>
</g>
<!-- Node1&#45;&gt;Node18 -->
<g id="edge23_Node000001_Node000018" class="edge">
<title>Node1&#45;&gt;Node18</title>
<g id="a_edge23_Node000001_Node000018"><a xlink:title=" ">
<path fill="none" stroke="#63b8ff" d="M827.25,-212.31C827.25,-188.36 827.25,-149.95 827.25,-132.35"/>
<polygon fill="#63b8ff" stroke="#63b8ff" points="823.75,-212.11 827.25,-222.11 830.75,-212.11 823.75,-212.11"/>
</a>
</g>
</g>
<!-- Node3 -->
<g id="Node000003" class="node">
<title>Node3</title>
<g id="a_Node000003"><a xlink:href="GestionnaireFichier_8hpp.html" target="_top" xlink:title=" ">
<polygon fill="white" stroke="#666666" points="152.5,-76 0,-76 0,-56 152.5,-56 152.5,-76"/>
<text xml:space="preserve" text-anchor="middle" x="76.25" y="-62.5" font-family="Helvetica,sans-Serif" font-size="10.00">include/GestionnaireFichier.hpp</text>
</a>
</g>
</g>
<!-- Node2&#45;&gt;Node3 -->
<g id="edge2_Node000002_Node000003" class="edge">
<title>Node2&#45;&gt;Node3</title>
<g id="a_edge2_Node000002_Node000003"><a xlink:title=" ">
<path fill="none" stroke="#63b8ff" d="M579.2,-166.95C529.29,-158.07 454.89,-144.6 390.25,-132 293.81,-113.2 181.09,-89.43 120.39,-76.47"/>
<polygon fill="#63b8ff" stroke="#63b8ff" points="578.45,-170.37 588.91,-168.68 579.67,-163.48 578.45,-170.37"/>
</a>
</g>
</g>
<!-- Node7 -->
<g id="Node000007" class="node">
<title>Node7</title>
<g id="a_Node000007"><a xlink:href="JeuDeLaVie_8hpp.html" target="_top" xlink:title=" ">
<polygon fill="white" stroke="#666666" points="521.12,-132 399.38,-132 399.38,-112 521.12,-112 521.12,-132"/>
<text xml:space="preserve" text-anchor="middle" x="460.25" y="-118.5" font-family="Helvetica,sans-Serif" font-size="10.00">include/JeuDeLaVie.hpp</text>
</a>
</g>
</g>
<!-- Node2&#45;&gt;Node7 -->
<g id="edge6_Node000002_Node000007" class="edge">
<title>Node2&#45;&gt;Node7</title>
<g id="a_edge6_Node000002_Node000007"><a xlink:title=" ">
<path fill="none" stroke="#63b8ff" d="M594.87,-164.31C563.11,-154.56 519.95,-141.32 491.15,-132.48"/>
<polygon fill="#63b8ff" stroke="#63b8ff" points="593.56,-167.56 604.15,-167.15 595.61,-160.87 593.56,-167.56"/>
</a>
</g>
</g>
<!-- Node14 -->
<g id="Node000014" class="node">
<title>Node14</title>
<g id="a_Node000014"><a xlink:href="TestsUnitaires_8hpp.html" target="_top" xlink:title=" ">
<polygon fill="white" stroke="#666666" points="763,-132 631.5,-132 631.5,-112 763,-112 763,-132"/>
<text xml:space="preserve" text-anchor="middle" x="697.25" y="-118.5" font-family="Helvetica,sans-Serif" font-size="10.00">include/TestsUnitaires.hpp</text>
</a>
</g>
</g>
<!-- Node2&#45;&gt;Node14 -->
<g id="edge17_Node000002_Node000014" class="edge">
<title>Node2&#45;&gt;Node14</title>
<g id="a_edge17_Node000002_Node000014"><a xlink:title=" ">
<path fill="none" stroke="#63b8ff" d="M655.31,-160.13C665.69,-150.94 678.12,-139.93 686.75,-132.3"/>
<polygon fill="#63b8ff" stroke="#63b8ff" points="653.18,-157.34 648.01,-166.59 657.82,-162.58 653.18,-157.34"/>
</a>
</g>
</g>
<!-- Node17 -->
<g id="Node000017" class="node">
<title>Node17</title>
<g id="a_Node000017"><a xlink:href="Grille_8cpp.html" target="_top" xlink:title=" ">
<polygon fill="white" stroke="#666666" points="613.12,-132 539.38,-132 539.38,-112 613.12,-112 613.12,-132"/>
<text xml:space="preserve" text-anchor="middle" x="576.25" y="-118.5" font-family="Helvetica,sans-Serif" font-size="10.00">src/Grille.cpp</text>
</a>
</g>
</g>
<!-- Node2&#45;&gt;Node17 -->
<g id="edge20_Node000002_Node000017" class="edge">
<title>Node2&#45;&gt;Node17</title>
<g id="a_edge20_Node000002_Node000017"><a xlink:title=" ">
<path fill="none" stroke="#63b8ff" d="M617.5,-160.13C607.3,-150.94 595.06,-139.93 586.58,-132.3"/>
<polygon fill="#63b8ff" stroke="#63b8ff" points="614.9,-162.49 624.67,-166.58 619.58,-157.29 614.9,-162.49"/>
</a>
</g>
</g>
<!-- Node2&#45;&gt;Node18 -->
<g id="edge21_Node000002_Node000018" class="edge">
<title>Node2&#45;&gt;Node18</title>
<g id="a_edge21_Node000002_Node000018"><a xlink:title=" ">
<path fill="none" stroke="#63b8ff" d="M680.25,-164.56C714.81,-154.79 762.19,-141.39 793.72,-132.48"/>
<polygon fill="#63b8ff" stroke="#63b8ff" points="679.65,-161.09 670.98,-167.18 681.55,-167.83 679.65,-161.09"/>
</a>
</g>
</g>
<!-- Node4 -->
<g id="Node000004" class="node">
<title>Node4</title>
<g id="a_Node000004"><a xlink:href="GestionnaireFichier_8cpp.html" target="_top" xlink:title=" ">
<polygon fill="white" stroke="#666666" points="143.88,-20 8.62,-20 8.62,0 143.88,0 143.88,-20"/>
<text xml:space="preserve" text-anchor="middle" x="76.25" y="-6.5" font-family="Helvetica,sans-Serif" font-size="10.00">src/GestionnaireFichier.cpp</text>
</a>
</g>
</g>
<!-- Node3&#45;&gt;Node4 -->
<g id="edge3_Node000003_Node000004" class="edge">
<title>Node3&#45;&gt;Node4</title>
<g id="a_edge3_Node000003_Node000004"><a xlink:title=" ">
<path fill="none" stroke="#63b8ff" d="M76.25,-44.13C76.25,-35.9 76.25,-26.85 76.25,-20.3"/>
<polygon fill="#63b8ff" stroke="#63b8ff" points="72.75,-44.08 76.25,-54.08 79.75,-44.08 72.75,-44.08"/>
</a>
</g>
</g>
<!-- Node5 -->
<g id="Node000005" class="node">
<title>Node5</title>
<g id="a_Node000005"><a xlink:href="ModeConsole_8cpp.html" target="_top" xlink:title=" ">
<polygon fill="white" stroke="#666666" points="272.88,-20 161.62,-20 161.62,0 272.88,0 272.88,-20"/>
<text xml:space="preserve" text-anchor="middle" x="217.25" y="-6.5" font-family="Helvetica,sans-Serif" font-size="10.00">src/ModeConsole.cpp</text>
</a>
</g>
</g>
<!-- Node3&#45;&gt;Node5 -->
<g id="edge4_Node000003_Node000005" class="edge">
<title>Node3&#45;&gt;Node5</title>
<g id="a_edge4_Node000003_Node000005"><a xlink:title=" ">
<path fill="none" stroke="#63b8ff" d="M111.42,-51.53C136.65,-41.87 170.03,-29.08 192.5,-20.48"/>
<polygon fill="#63b8ff" stroke="#63b8ff" points="110.31,-48.21 102.22,-55.05 112.81,-54.74 110.31,-48.21"/>
</a>
</g>
</g>
<!-- Node3&#45;&gt;Node6 -->
<g id="edge5_Node000003_Node000006" class="edge">
<title>Node3&#45;&gt;Node6</title>
<g id="a_edge5_Node000003_Node000006"><a xlink:title=" ">
<path fill="none" stroke="#63b8ff" d="M131.47,-53.12C179.85,-42.71 248.79,-27.88 290.64,-18.88"/>
<polygon fill="#63b8ff" stroke="#63b8ff" points="130.78,-49.69 121.74,-55.21 132.25,-56.53 130.78,-49.69"/>
</a>
</g>
</g>
<!-- Node7&#45;&gt;Node6 -->
<g id="edge16_Node000007_Node000006" class="edge">
<title>Node7&#45;&gt;Node6</title>
<g id="a_edge16_Node000007_Node000006"><a xlink:title=" ">
<path fill="none" stroke="#63b8ff" d="M430.64,-106.32C415.96,-98.36 398.4,-87.74 384.25,-76 363.46,-58.75 343.73,-33.62 333.84,-20.22"/>
<polygon fill="#63b8ff" stroke="#63b8ff" points="428.91,-109.37 439.39,-110.93 432.17,-103.17 428.91,-109.37"/>
</a>
</g>
</g>
<!-- Node8 -->
<g id="Node000008" class="node">
<title>Node8</title>
<g id="a_Node000008"><a xlink:href="InterfaceQt_8hpp.html" target="_top" xlink:title=" ">
<polygon fill="white" stroke="#666666" points="661.88,-76 544.62,-76 544.62,-56 661.88,-56 661.88,-76"/>
<text xml:space="preserve" text-anchor="middle" x="603.25" y="-62.5" font-family="Helvetica,sans-Serif" font-size="10.00">include/InterfaceQt.hpp</text>
</a>
</g>
</g>
<!-- Node7&#45;&gt;Node8 -->
<g id="edge7_Node000007_Node000008" class="edge">
<title>Node7&#45;&gt;Node8</title>
<g id="a_edge7_Node000007_Node000008"><a xlink:title=" ">
<path fill="none" stroke="#63b8ff" d="M495.91,-107.53C521.51,-97.87 555.36,-85.08 578.15,-76.48"/>
<polygon fill="#63b8ff" stroke="#63b8ff" points="494.69,-104.25 486.57,-111.06 497.17,-110.8 494.69,-104.25"/>
</a>
</g>
</g>
<!-- Node10 -->
<g id="Node000010" class="node">
<title>Node10</title>
<g id="a_Node000010"><a xlink:href="InterfaceSFML_8hpp.html" target="_top" xlink:title=" ">
<polygon fill="white" stroke="#666666" points="526.75,-76 393.75,-76 393.75,-56 526.75,-56 526.75,-76"/>
<text xml:space="preserve" text-anchor="middle" x="460.25" y="-62.5" font-family="Helvetica,sans-Serif" font-size="10.00">include/InterfaceSFML.hpp</text>
</a>
</g>
</g>
<!-- Node7&#45;&gt;Node10 -->
<g id="edge9_Node000007_Node000010" class="edge">
<title>Node7&#45;&gt;Node10</title>
<g id="a_edge9_Node000007_Node000010"><a xlink:title=" ">
<path fill="none" stroke="#63b8ff" d="M460.25,-100.13C460.25,-91.9 460.25,-82.85 460.25,-76.3"/>
<polygon fill="#63b8ff" stroke="#63b8ff" points="456.75,-100.08 460.25,-110.08 463.75,-100.08 456.75,-100.08"/>
</a>
</g>
</g>
<!-- Node12 -->
<g id="Node000012" class="node">
<title>Node12</title>
<g id="a_Node000012"><a xlink:href="ModeConsole_8hpp.html" target="_top" xlink:title=" ">
<polygon fill="white" stroke="#666666" points="299.5,-76 171,-76 171,-56 299.5,-56 299.5,-76"/>
<text xml:space="preserve" text-anchor="middle" x="235.25" y="-62.5" font-family="Helvetica,sans-Serif" font-size="10.00">include/ModeConsole.hpp</text>
</a>
</g>
</g>
<!-- Node7&#45;&gt;Node12 -->
<g id="edge12_Node000007_Node000012" class="edge">
<title>Node7&#45;&gt;Node12</title>
<g id="a_edge12_Node000007_Node000012"><a xlink:title=" ">
<path fill="none" stroke="#63b8ff" d="M409.73,-108.88C368.88,-99.07 312.19,-85.47 274.65,-76.46"/>
<polygon fill="#63b8ff" stroke="#63b8ff" points="408.79,-112.25 419.33,-111.18 410.42,-105.44 408.79,-112.25"/>
</a>
</g>
</g>
<!-- Node7&#45;&gt;Node13 -->
<g id="edge15_Node000007_Node000013" class="edge">
<title>Node7&#45;&gt;Node13</title>
<g id="a_edge15_Node000007_Node000013"><a xlink:title=" ">
<path fill="none" stroke="#63b8ff" d="M519.12,-109.31C568.65,-99.48 638.55,-85.6 684.61,-76.46"/>
<polygon fill="#63b8ff" stroke="#63b8ff" points="518.55,-105.86 509.42,-111.24 519.91,-112.72 518.55,-105.86"/>
</a>
</g>
</g>
<!-- Node9 -->
<g id="Node000009" class="node">
<title>Node9</title>
<g id="a_Node000009"><a xlink:href="InterfaceQt_8cpp.html" target="_top" xlink:title=" ">
<polygon fill="white" stroke="#666666" points="653.25,-20 553.25,-20 553.25,0 653.25,0 653.25,-20"/>
<text xml:space="preserve" text-anchor="middle" x="603.25" y="-6.5" font-family="Helvetica,sans-Serif" font-size="10.00">src/InterfaceQt.cpp</text>
</a>
</g>
</g>
<!-- Node8&#45;&gt;Node9 -->
<g id="edge8_Node000008_Node000009" class="edge">
<title>Node8&#45;&gt;Node9</title>
<g id="a_edge8_Node000008_Node000009"><a xlink:title=" ">
<path fill="none" stroke="#63b8ff" d="M603.25,-44.13C603.25,-35.9 603.25,-26.85 603.25,-20.3"/>
<polygon fill="#63b8ff" stroke="#63b8ff" points="599.75,-44.08 603.25,-54.08 606.75,-44.08 599.75,-44.08"/>
</a>
</g>
</g>
<!-- Node10&#45;&gt;Node6 -->
<g id="edge11_Node000010_Node000006" class="edge">
<title>Node10&#45;&gt;Node6</title>
<g id="a_edge11_Node000010_Node000006"><a xlink:title=" ">
<path fill="none" stroke="#63b8ff" d="M426.44,-51.27C402.71,-41.64 371.6,-29.01 350.6,-20.48"/>
<polygon fill="#63b8ff" stroke="#63b8ff" points="425.1,-54.51 435.68,-55.02 427.73,-48.02 425.1,-54.51"/>
</a>
</g>
</g>
<!-- Node11 -->
<g id="Node000011" class="node">
<title>Node11</title>
<g id="a_Node000011"><a xlink:href="InterfaceSFML_8cpp.html" target="_top" xlink:title=" ">
<polygon fill="white" stroke="#666666" points="518.12,-20 402.38,-20 402.38,0 518.12,0 518.12,-20"/>
<text xml:space="preserve" text-anchor="middle" x="460.25" y="-6.5" font-family="Helvetica,sans-Serif" font-size="10.00">src/InterfaceSFML.cpp</text>
</a>
</g>
</g>
<!-- Node10&#45;&gt;Node11 -->
<g id="edge10_Node000010_Node000011" class="edge">
<title>Node10&#45;&gt;Node11</title>
<g id="a_edge10_Node000010_Node000011"><a xlink:title=" ">
<path fill="none" stroke="#63b8ff" d="M460.25,-44.13C460.25,-35.9 460.25,-26.85 460.25,-20.3"/>
<polygon fill="#63b8ff" stroke="#63b8ff" points="456.75,-44.08 460.25,-54.08 463.75,-44.08 456.75,-44.08"/>
</a>
</g>
</g>
<!-- Node12&#45;&gt;Node5 -->
<g id="edge13_Node000012_Node000005" class="edge">
<title>Node12&#45;&gt;Node5</title>
<g id="a_edge13_Node000012_Node000005"><a xlink:title=" ">
<path fill="none" stroke="#63b8ff" d="M228.49,-44.71C225.69,-36.32 222.59,-27.01 220.35,-20.3"/>
<polygon fill="#63b8ff" stroke="#63b8ff" points="225.15,-45.78 231.64,-54.16 231.79,-43.56 225.15,-45.78"/>
</a>
</g>
</g>
<!-- Node12&#45;&gt;Node6 -->
<g id="edge14_Node000012_Node000006" class="edge">
<title>Node12&#45;&gt;Node6</title>
<g id="a_edge14_Node000012_Node000006"><a xlink:title=" ">
<path fill="none" stroke="#63b8ff" d="M261.13,-49.81C277.18,-40.39 297.29,-28.58 311.1,-20.48"/>
<polygon fill="#63b8ff" stroke="#63b8ff" points="259.43,-46.75 252.58,-54.83 262.98,-52.78 259.43,-46.75"/>
</a>
</g>
</g>
<!-- Node14&#45;&gt;Node15 -->
<g id="edge18_Node000014_Node000015" class="edge">
<title>Node14&#45;&gt;Node15</title>
<g id="a_edge18_Node000014_Node000015"><a xlink:title=" ">
<path fill="none" stroke="#63b8ff" d="M756.55,-109.31C806.44,-99.48 876.86,-85.6 923.26,-76.46"/>
<polygon fill="#63b8ff" stroke="#63b8ff" points="755.91,-105.87 746.78,-111.24 757.26,-112.74 755.91,-105.87"/>
</a>
</g>
</g>
<!-- Node16 -->
<g id="Node000016" class="node">
<title>Node16</title>
<g id="a_Node000016"><a xlink:href="test__main_8cpp.html" target="_top" xlink:title=" ">
<polygon fill="white" stroke="#666666" points="896.25,-76 802.25,-76 802.25,-56 896.25,-56 896.25,-76"/>
<text xml:space="preserve" text-anchor="middle" x="849.25" y="-62.5" font-family="Helvetica,sans-Serif" font-size="10.00">src/test_main.cpp</text>
</a>
</g>
</g>
<!-- Node14&#45;&gt;Node16 -->
<g id="edge19_Node000014_Node000016" class="edge">
<title>Node14&#45;&gt;Node16</title>
<g id="a_edge19_Node000014_Node000016"><a xlink:title=" ">
<path fill="none" stroke="#63b8ff" d="M734.43,-107.79C761.72,-98.1 798.13,-85.16 822.57,-76.48"/>
<polygon fill="#63b8ff" stroke="#63b8ff" points="733.4,-104.44 725.15,-111.09 735.75,-111.04 733.4,-104.44"/>
</a>
</g>
</g>
</g>
</svg>

<g id="navigator" transform="translate(0 0)" fill="#404254">
  <rect fill="#f2f5e9" fill-opacity="0.5" stroke="#606060" stroke-width=".5" x="0" y="0" width="60" height="60"/>
  <use id="zoomplus" xlink:href="#zoomPlus" x="17" y="9" onmousedown="handleZoom(evt,'in')"/>
  <use id="zoomminus" xlink:href="#zoomMin" x="42" y="9" onmousedown="handleZoom(evt,'out')"/>
  <use id="reset" xlink:href="#resetDef" x="30" y="36" onmousedown="handleReset()"/>
   <use id="arrowup" xlink:href="#arrowUp" x="0" y="0" onmousedown="handlePan(0,-1)"/>
  <use id="arrowright" xlink:href="#arrowRight" x="0" y="0" onmousedown="handlePan(1,0)"/>
  <use id="arrowdown" xlink:href="#arrowDown" x="0" y="0" onmousedown="handlePan(0,1)"/>
  <use id="arrowleft" xlink:href="#arrowLeft" x="0" y="0" onmousedown="handlePan(-1,0)"/>
</g>
<svg viewBox="0 0 15 15" width="100%" height="30px" preserveAspectRatio="xMaxYMin meet">
 <g id="arrow_out" transform="scale(0.3 0.3)">
  <a xlink:href="RegleJeu_8hpp__dep__incl_org.svg" target="_base">
   <rect id="button" ry="5" rx="5" y="6" x="6" height="38" width="38"
        fill="#f2f5e9" fill-opacity="0.5" stroke="#606060" stroke-width="1.0"/>
   <path id="arrow"
     d="M 11.500037,31.436501 C 11.940474,20.09759 22.043105,11.32322 32.158766,21.979434 L 37.068811,17.246167 C 37.068811,17.246167 37.088388,32 37.088388,32 L 22.160133,31.978069 C 22.160133,31.978069 26.997745,27.140456 26.997745,27.140456 C 18.528582,18.264221 13.291696,25.230495 11.500037,31.436501 z"
     style="fill:#404040;"/>
  </a>
 </g>
</svg>

<style type='text/css'>
<![CDATA[
[data-mouse-over-selected='false'] { opacity: 0.7; }
[data-mouse-over-selected='true']  { opacity: 1.0; }
]]>
</style>
<script type="application/ecmascript"><![CDATA[
document.addEventListener('DOMContentLoaded', (event) => {
  highlightEdges();
  highlightAdjacentNodes();
});
]]></script>
</svg>
