<?xml version="1.0" encoding="UTF-8" standalone="no"?>
<!DOCTYPE svg PUBLIC "-//W3C//DTD SVG 1.1//EN"
 "http://www.w3.org/Graphics/SVG/1.1/DTD/svg11.dtd">
<!-- Generated by graphviz version 14.0.2 (20251019.1705)
 -->
<!-- Title: src/RegleJeu.cpp Pages: 1 -->
<svg width="458pt" height="252pt"
 viewBox="0.00 0.00 458.00 252.00" xmlns="http://www.w3.org/2000/svg" xmlns:xlink="http://www.w3.org/1999/xlink">

<svg id="main" version="1.1" xmlns="http://www.w3.org/2000/svg" xmlns:xlink="http://www.w3.org/1999/xlink" xml:space="preserve">

<style type="text/css"><![CDATA[
.node, .edge {opacity: 0.7;}
.node.selected, .edge.selected {opacity: 1;}
.edge:hover path { stroke: red; }
.edge:hover polygon { stroke: red; fill: red; }
]]></style>
<script type="application/ecmascript" xlink:href="svg.min.js"/>
<svg id="graph" class="graph">
<g id="graph0" class="graph" transform="scale(1 1) rotate(0) translate(4 248)">
<title>src/RegleJeu.cpp</title>
<!-- Node1 -->
<g id="Node000001" class="node">
<title>Node1</title>
<g id="a_Node000001"><a xlink:title=" ">
<polygon fill="#999999" stroke="#666666" points="352.25,-244 259.75,-244 259.75,-224 352.25,-224 352.25,-244"/>
<text xml:space="preserve" text-anchor="middle" x="306" y="-230.5" font-family="Helvetica,sans-Serif" font-size="10.00">src/RegleJeu.cpp</text>
</a>
</g>
</g>
<!-- Node2 -->
<g id="Node000002" class="node">
<title>Node2</title>
<g id="a_Node000002"><a xlink:href="RegleJeu_8hpp.html" target="_top" xlink:title=" ">
<polygon fill="white" stroke="#666666" points="76,-132 0,-132 0,-112 76,-112 76,-132"/>
<text xml:space="preserve" text-anchor="middle" x="38" y="-118.5" font-family="Helvetica,sans-Serif" font-size="10.00">RegleJeu.hpp</text>
</a>
</g>
</g>
<!-- Node1&#45;&gt;Node2 -->
<g id="edge1_Node000001_Node000002" class="edge">
<title>Node1&#45;&gt;Node2</title>
<g id="a_edge1_Node000001_Node000002"><a xlink:title=" ">
<path fill="none" stroke="#63b8ff" d="M260.06,-223.53C227.46,-215.98 183.08,-204.03 146,-188 114.75,-174.49 81.61,-153.4 60.4,-138.93"/>
<polygon fill="#63b8ff" stroke="#63b8ff" points="62.47,-136.11 52.26,-133.28 58.48,-141.86 62.47,-136.11"/>
</a>
</g>
</g>
<!-- Node5 -->
<g id="Node000005" class="node">
<title>Node5</title>
<g id="a_Node000005"><a xlink:href="Grille_8hpp.html" target="_top" xlink:title=" ">
<polygon fill="white" stroke="#666666" points="212.62,-188 155.38,-188 155.38,-168 212.62,-168 212.62,-188"/>
<text xml:space="preserve" text-anchor="middle" x="184" y="-174.5" font-family="Helvetica,sans-Serif" font-size="10.00">Grille.hpp</text>
</a>
</g>
</g>
<!-- Node1&#45;&gt;Node5 -->
<g id="edge4_Node000001_Node000005" class="edge">
<title>Node1&#45;&gt;Node5</title>
<g id="a_edge4_Node000001_Node000005"><a xlink:title=" ">
<path fill="none" stroke="#63b8ff" d="M284.75,-223.59C265.71,-215.17 237.52,-202.69 215.8,-193.07"/>
<polygon fill="#63b8ff" stroke="#63b8ff" points="217.36,-189.94 206.8,-189.09 214.53,-196.34 217.36,-189.94"/>
</a>
</g>
</g>
<!-- Node6 -->
<g id="Node000006" class="node">
<title>Node6</title>
<g id="a_Node000006"><a xlink:href="Cellule_8hpp.html" target="_top" xlink:title=" ">
<polygon fill="white" stroke="#666666" points="338.38,-132 273.62,-132 273.62,-112 338.38,-112 338.38,-132"/>
<text xml:space="preserve" text-anchor="middle" x="306" y="-118.5" font-family="Helvetica,sans-Serif" font-size="10.00">Cellule.hpp</text>
</a>
</g>
</g>
<!-- Node1&#45;&gt;Node6 -->
<g id="edge14_Node000001_Node000006" class="edge">
<title>Node1&#45;&gt;Node6</title>
<g id="a_edge14_Node000001_Node000006"><a xlink:title=" ">
<path fill="none" stroke="#63b8ff" d="M306,-223.62C306,-206.01 306,-167.59 306,-143.65"/>
<polygon fill="#63b8ff" stroke="#63b8ff" points="309.5,-143.87 306,-133.87 302.5,-143.87 309.5,-143.87"/>
</a>
</g>
</g>
<!-- Node7 -->
<g id="Node000007" class="node">
<title>Node7</title>
<g id="a_Node000007"><a xlink:href="EtatCellule_8hpp.html" target="_top" xlink:title=" ">
<polygon fill="white" stroke="#666666" points="347.38,-76 264.62,-76 264.62,-56 347.38,-56 347.38,-76"/>
<text xml:space="preserve" text-anchor="middle" x="306" y="-62.5" font-family="Helvetica,sans-Serif" font-size="10.00">EtatCellule.hpp</text>
</a>
</g>
</g>
<!-- Node1&#45;&gt;Node7 -->
<g id="edge15_Node000001_Node000007" class="edge">
<title>Node1&#45;&gt;Node7</title>
<g id="a_edge15_Node000001_Node000007"><a xlink:title=" ">
<path fill="none" stroke="#63b8ff" d="M313.56,-223.8C329.32,-203.44 362.94,-153.16 347,-112 342.9,-101.4 335.01,-91.77 327.23,-84.16"/>
<polygon fill="#63b8ff" stroke="#63b8ff" points="329.61,-81.59 319.84,-77.49 324.93,-86.79 329.61,-81.59"/>
</a>
</g>
</g>
<!-- Node10 -->
<g id="Node000010" class="node">
<title>Node10</title>
<g id="a_Node000010"><a xlink:title=" ">
<polygon fill="#e0e0e0" stroke="#999999" points="449.88,-188 394.12,-188 394.12,-168 449.88,-168 449.88,-188"/>
<text xml:space="preserve" text-anchor="middle" x="422" y="-174.5" font-family="Helvetica,sans-Serif" font-size="10.00">algorithm</text>
</a>
</g>
</g>
<!-- Node1&#45;&gt;Node10 -->
<g id="edge16_Node000001_Node000010" class="edge">
<title>Node1&#45;&gt;Node10</title>
<g id="a_edge16_Node000001_Node000010"><a xlink:title=" ">
<path fill="none" stroke="#63b8ff" d="M326.21,-223.59C344.23,-215.21 370.87,-202.8 391.48,-193.21"/>
<polygon fill="#63b8ff" stroke="#63b8ff" points="392.68,-196.51 400.26,-189.12 389.72,-190.17 392.68,-196.51"/>
</a>
</g>
</g>
<!-- Node3 -->
<g id="Node000003" class="node">
<title>Node3</title>
<g id="a_Node000003"><a xlink:title=" ">
<polygon fill="#e0e0e0" stroke="#999999" points="112.5,-76 69.5,-76 69.5,-56 112.5,-56 112.5,-76"/>
<text xml:space="preserve" text-anchor="middle" x="91" y="-62.5" font-family="Helvetica,sans-Serif" font-size="10.00">vector</text>
</a>
</g>
</g>
<!-- Node2&#45;&gt;Node3 -->
<g id="edge2_Node000002_Node000003" class="edge">
<title>Node2&#45;&gt;Node3</title>
<g id="a_edge2_Node000002_Node000003"><a xlink:title=" ">
<path fill="none" stroke="#63b8ff" d="M47.23,-111.59C54.6,-104.08 65.13,-93.35 74.02,-84.3"/>
<polygon fill="#63b8ff" stroke="#63b8ff" points="76.31,-86.97 80.81,-77.38 71.31,-82.06 76.31,-86.97"/>
</a>
</g>
</g>
<!-- Node4 -->
<g id="Node000004" class="node">
<title>Node4</title>
<g id="a_Node000004"><a xlink:title=" ">
<polygon fill="#e0e0e0" stroke="#999999" points="191.62,-20 140.38,-20 140.38,0 191.62,0 191.62,-20"/>
<text xml:space="preserve" text-anchor="middle" x="166" y="-6.5" font-family="Helvetica,sans-Serif" font-size="10.00">memory</text>
</a>
</g>
</g>
<!-- Node2&#45;&gt;Node4 -->
<g id="edge3_Node000002_Node000004" class="edge">
<title>Node2&#45;&gt;Node4</title>
<g id="a_edge3_Node000002_Node000004"><a xlink:title=" ">
<path fill="none" stroke="#63b8ff" d="M38.76,-111.83C40.36,-98.04 45.25,-71.9 60,-56 78.26,-36.31 106.54,-24.9 129.29,-18.49"/>
<polygon fill="#63b8ff" stroke="#63b8ff" points="130.01,-21.92 138.81,-16.04 128.26,-15.15 130.01,-21.92"/>
</a>
</g>
</g>
<!-- Node5&#45;&gt;Node2 -->
<g id="edge10_Node000005_Node000002" class="edge">
<title>Node5&#45;&gt;Node2</title>
<g id="a_edge10_Node000005_Node000002"><a xlink:title=" ">
<path fill="none" stroke="#63b8ff" d="M158.57,-167.59C135.26,-158.97 100.5,-146.12 74.28,-136.42"/>
<polygon fill="#63b8ff" stroke="#63b8ff" points="75.64,-133.19 65.05,-133 73.21,-139.76 75.64,-133.19"/>
</a>
</g>
</g>
<!-- Node5&#45;&gt;Node3 -->
<g id="edge12_Node000005_Node000003" class="edge">
<title>Node5&#45;&gt;Node3</title>
<g id="a_edge12_Node000005_Node000003"><a xlink:title=" ">
<path fill="none" stroke="#63b8ff" d="M169.39,-167.57C157.27,-159.24 140.13,-146.24 128,-132 116.16,-118.1 106.16,-99.86 99.56,-86.24"/>
<polygon fill="#63b8ff" stroke="#63b8ff" points="102.86,-85.05 95.48,-77.45 96.51,-88 102.86,-85.05"/>
</a>
</g>
</g>
<!-- Node5&#45;&gt;Node4 -->
<g id="edge13_Node000005_Node000004" class="edge">
<title>Node5&#45;&gt;Node4</title>
<g id="a_edge13_Node000005_Node000004"><a xlink:title=" ">
<path fill="none" stroke="#63b8ff" d="M177.46,-167.52C171.84,-158.75 164.16,-145.14 161,-132 152.66,-97.36 157.55,-55.56 161.81,-31.26"/>
<polygon fill="#63b8ff" stroke="#63b8ff" points="165.19,-32.24 163.63,-21.76 158.31,-30.93 165.19,-32.24"/>
</a>
</g>
</g>
<!-- Node5&#45;&gt;Node6 -->
<g id="edge5_Node000005_Node000006" class="edge">
<title>Node5&#45;&gt;Node6</title>
<g id="a_edge5_Node000005_Node000006"><a xlink:title=" ">
<path fill="none" stroke="#63b8ff" d="M205.25,-167.59C224.29,-159.17 252.48,-146.69 274.2,-137.07"/>
<polygon fill="#63b8ff" stroke="#63b8ff" points="275.47,-140.34 283.2,-133.09 272.64,-133.94 275.47,-140.34"/>
</a>
</g>
</g>
<!-- Node9 -->
<g id="Node000009" class="node">
<title>Node9</title>
<g id="a_Node000009"><a xlink:href="Constantes_8hpp.html" target="_top" xlink:title="Configuration centralisée du projet.">
<polygon fill="white" stroke="#666666" points="255.5,-132 170.5,-132 170.5,-112 255.5,-112 255.5,-132"/>
<text xml:space="preserve" text-anchor="middle" x="213" y="-118.5" font-family="Helvetica,sans-Serif" font-size="10.00">Constantes.hpp</text>
</a>
</g>
</g>
<!-- Node5&#45;&gt;Node9 -->
<g id="edge11_Node000005_Node000009" class="edge">
<title>Node5&#45;&gt;Node9</title>
<g id="a_edge11_Node000005_Node000009"><a xlink:title=" ">
<path fill="none" stroke="#63b8ff" d="M189.05,-167.59C192.79,-160.63 198.02,-150.89 202.64,-142.29"/>
<polygon fill="#63b8ff" stroke="#63b8ff" points="205.64,-144.1 207.29,-133.63 199.48,-140.79 205.64,-144.1"/>
</a>
</g>
</g>
<!-- Node6&#45;&gt;Node4 -->
<g id="edge9_Node000006_Node000004" class="edge">
<title>Node6&#45;&gt;Node4</title>
<g id="a_edge9_Node000006_Node000004"><a xlink:title=" ">
<path fill="none" stroke="#63b8ff" d="M294.06,-111.62C270.2,-92.87 216.34,-50.55 186.63,-27.21"/>
<polygon fill="#63b8ff" stroke="#63b8ff" points="189.12,-24.72 179.1,-21.29 184.8,-30.22 189.12,-24.72"/>
</a>
</g>
</g>
<!-- Node6&#45;&gt;Node7 -->
<g id="edge6_Node000006_Node000007" class="edge">
<title>Node6&#45;&gt;Node7</title>
<g id="a_edge6_Node000006_Node000007"><a xlink:title=" ">
<path fill="none" stroke="#63b8ff" d="M306,-111.59C306,-105.01 306,-95.96 306,-87.73"/>
<polygon fill="#63b8ff" stroke="#63b8ff" points="309.5,-87.81 306,-77.81 302.5,-87.81 309.5,-87.81"/>
</a>
</g>
</g>
<!-- Node7&#45;&gt;Node4 -->
<g id="edge7_Node000007_Node000004" class="edge">
<title>Node7&#45;&gt;Node4</title>
<g id="a_edge7_Node000007_Node000004"><a xlink:title=" ">
<path fill="none" stroke="#63b8ff" d="M281.61,-55.59C259.37,-47.01 226.23,-34.23 201.13,-24.55"/>
<polygon fill="#63b8ff" stroke="#63b8ff" points="202.58,-21.36 191.99,-21.02 200.06,-27.89 202.58,-21.36"/>
</a>
</g>
</g>
<!-- Node8 -->
<g id="Node000008" class="node">
<title>Node8</title>
<g id="a_Node000008"><a xlink:title=" ">
<polygon fill="#e0e0e0" stroke="#999999" points="326,-20 286,-20 286,0 326,0 326,-20"/>
<text xml:space="preserve" text-anchor="middle" x="306" y="-6.5" font-family="Helvetica,sans-Serif" font-size="10.00">string</text>
</a>
</g>
</g>
<!-- Node7&#45;&gt;Node8 -->
<g id="edge8_Node000007_Node000008" class="edge">
<title>Node7&#45;&gt;Node8</title>
<g id="a_edge8_Node000007_Node000008"><a xlink:title=" ">
<path fill="none" stroke="#63b8ff" d="M306,-55.59C306,-49.01 306,-39.96 306,-31.73"/>
<polygon fill="#63b8ff" stroke="#63b8ff" points="309.5,-31.81 306,-21.81 302.5,-31.81 309.5,-31.81"/>
</a>
</g>
</g>
</g>
</svg>
</svg>

<style type='text/css'>
<![CDATA[
[data-mouse-over-selected='false'] { opacity: 0.7; }
[data-mouse-over-selected='true']  { opacity: 1.0; }
]]>
</style>
<script type="application/ecmascript"><![CDATA[
document.addEventListener('DOMContentLoaded', (event) => {
  highlightEdges();
  highlightAdjacentNodes();
});
]]></script>
</svg>
