<?xml version="1.0" encoding="UTF-8" standalone="no"?>
<!DOCTYPE svg PUBLIC "-//W3C//DTD SVG 1.1//EN"
 "http://www.w3.org/Graphics/SVG/1.1/DTD/svg11.dtd">
<!-- Generated by graphviz version 14.0.2 (20251019.1705)
 -->
<!-- Title: src/TestsUnitaires.cpp Pages: 1 -->
<svg width="417pt" height="308pt"
 viewBox="0.00 0.00 417.00 308.00" xmlns="http://www.w3.org/2000/svg" xmlns:xlink="http://www.w3.org/1999/xlink">

<svg id="main" version="1.1" xmlns="http://www.w3.org/2000/svg" xmlns:xlink="http://www.w3.org/1999/xlink" xml:space="preserve">

<style type="text/css"><![CDATA[
.node, .edge {opacity: 0.7;}
.node.selected, .edge.selected {opacity: 1;}
.edge:hover path { stroke: red; }
.edge:hover polygon { stroke: red; fill: red; }
]]></style>
<script type="application/ecmascript" xlink:href="svg.min.js"/>
<svg id="graph" class="graph">
<g id="graph0" class="graph" transform="scale(1 1) rotate(0) translate(4 304)">
<title>src/TestsUnitaires.cpp</title>
<!-- Node1 -->
<g id="Node000001" class="node">
<title>Node1</title>
<g id="a_Node000001"><a xlink:title=" ">
<polygon fill="#999999" stroke="#666666" points="354.43,-300 240.18,-300 240.18,-280 354.43,-280 354.43,-300"/>
<text xml:space="preserve" text-anchor="middle" x="297.31" y="-286.5" font-family="Helvetica,sans-Serif" font-size="10.00">src/TestsUnitaires.cpp</text>
</a>
</g>
</g>
<!-- Node2 -->
<g id="Node000002" class="node">
<title>Node2</title>
<g id="a_Node000002"><a xlink:href="TestsUnitaires_8hpp.html" target="_top" xlink:title=" ">
<polygon fill="white" stroke="#666666" points="289.18,-244 191.43,-244 191.43,-224 289.18,-224 289.18,-244"/>
<text xml:space="preserve" text-anchor="middle" x="240.31" y="-230.5" font-family="Helvetica,sans-Serif" font-size="10.00">TestsUnitaires.hpp</text>
</a>
</g>
</g>
<!-- Node1&#45;&gt;Node2 -->
<g id="edge1_Node000001_Node000002" class="edge">
<title>Node1&#45;&gt;Node2</title>
<g id="a_edge1_Node000001_Node000002"><a xlink:title=" ">
<path fill="none" stroke="#63b8ff" d="M287.38,-279.59C279.37,-272.01 267.89,-261.13 258.28,-252.02"/>
<polygon fill="#63b8ff" stroke="#63b8ff" points="260.89,-249.68 251.22,-245.34 256.07,-254.76 260.89,-249.68"/>
</a>
</g>
</g>
<!-- Node5 -->
<g id="Node000005" class="node">
<title>Node5</title>
<g id="a_Node000005"><a xlink:href="EtatCellule_8hpp.html" target="_top" xlink:title=" ">
<polygon fill="white" stroke="#666666" points="123.68,-76 40.93,-76 40.93,-56 123.68,-56 123.68,-76"/>
<text xml:space="preserve" text-anchor="middle" x="82.31" y="-62.5" font-family="Helvetica,sans-Serif" font-size="10.00">EtatCellule.hpp</text>
</a>
</g>
</g>
<!-- Node1&#45;&gt;Node5 -->
<g id="edge17_Node000001_Node000005" class="edge">
<title>Node1&#45;&gt;Node5</title>
<g id="a_edge17_Node000001_Node000005"><a xlink:title=" ">
<path fill="none" stroke="#63b8ff" d="M249.18,-279.51C180.77,-263.08 58.28,-222.05 9.31,-132 -2.35,-110.57 22.1,-92.72 45.78,-81.18"/>
<polygon fill="#63b8ff" stroke="#63b8ff" points="47.09,-84.43 54.74,-77.1 44.19,-78.05 47.09,-84.43"/>
</a>
</g>
</g>
<!-- Node8 -->
<g id="Node000008" class="node">
<title>Node8</title>
<g id="a_Node000008"><a xlink:href="RegleJeu_8hpp.html" target="_top" xlink:title=" ">
<polygon fill="white" stroke="#666666" points="393.31,-132 317.31,-132 317.31,-112 393.31,-112 393.31,-132"/>
<text xml:space="preserve" text-anchor="middle" x="355.31" y="-118.5" font-family="Helvetica,sans-Serif" font-size="10.00">RegleJeu.hpp</text>
</a>
</g>
</g>
<!-- Node1&#45;&gt;Node8 -->
<g id="edge16_Node000001_Node000008" class="edge">
<title>Node1&#45;&gt;Node8</title>
<g id="a_edge16_Node000001_Node000008"><a xlink:title=" ">
<path fill="none" stroke="#63b8ff" d="M300.59,-279.6C309.76,-253.35 335.8,-178.84 348.36,-142.89"/>
<polygon fill="#63b8ff" stroke="#63b8ff" points="351.56,-144.32 351.56,-133.73 344.96,-142.01 351.56,-144.32"/>
</a>
</g>
</g>
<!-- Node11 -->
<g id="Node000011" class="node">
<title>Node11</title>
<g id="a_Node000011"><a xlink:title=" ">
<polygon fill="#e0e0e0" stroke="#999999" points="409.06,-244 355.56,-244 355.56,-224 409.06,-224 409.06,-244"/>
<text xml:space="preserve" text-anchor="middle" x="382.31" y="-230.5" font-family="Helvetica,sans-Serif" font-size="10.00">iostream</text>
</a>
</g>
</g>
<!-- Node1&#45;&gt;Node11 -->
<g id="edge18_Node000001_Node000011" class="edge">
<title>Node1&#45;&gt;Node11</title>
<g id="a_edge18_Node000001_Node000011"><a xlink:title=" ">
<path fill="none" stroke="#63b8ff" d="M312.11,-279.59C324.71,-271.59 343.06,-259.93 357.84,-250.54"/>
<polygon fill="#63b8ff" stroke="#63b8ff" points="359.54,-253.61 366.11,-245.29 355.79,-247.7 359.54,-253.61"/>
</a>
</g>
</g>
<!-- Node3 -->
<g id="Node000003" class="node">
<title>Node3</title>
<g id="a_Node000003"><a xlink:href="Grille_8hpp.html" target="_top" xlink:title=" ">
<polygon fill="white" stroke="#666666" points="250.93,-188 193.68,-188 193.68,-168 250.93,-168 250.93,-188"/>
<text xml:space="preserve" text-anchor="middle" x="222.31" y="-174.5" font-family="Helvetica,sans-Serif" font-size="10.00">Grille.hpp</text>
</a>
</g>
</g>
<!-- Node2&#45;&gt;Node3 -->
<g id="edge2_Node000002_Node000003" class="edge">
<title>Node2&#45;&gt;Node3</title>
<g id="a_edge2_Node000002_Node000003"><a xlink:title=" ">
<path fill="none" stroke="#63b8ff" d="M237.17,-223.59C234.93,-216.86 231.82,-207.53 229.02,-199.15"/>
<polygon fill="#63b8ff" stroke="#63b8ff" points="232.37,-198.11 225.88,-189.73 225.73,-200.33 232.37,-198.11"/>
</a>
</g>
</g>
<!-- Node7 -->
<g id="Node000007" class="node">
<title>Node7</title>
<g id="a_Node000007"><a xlink:title=" ">
<polygon fill="#e0e0e0" stroke="#999999" points="56.31,-20 16.31,-20 16.31,0 56.31,0 56.31,-20"/>
<text xml:space="preserve" text-anchor="middle" x="36.31" y="-6.5" font-family="Helvetica,sans-Serif" font-size="10.00">string</text>
</a>
</g>
</g>
<!-- Node2&#45;&gt;Node7 -->
<g id="edge14_Node000002_Node000007" class="edge">
<title>Node2&#45;&gt;Node7</title>
<g id="a_edge14_Node000002_Node000007"><a xlink:title=" ">
<path fill="none" stroke="#63b8ff" d="M190.96,-227.13C135.95,-217.66 49.44,-193.35 9.31,-132 -11.42,-100.32 9.08,-55.06 23.94,-29.83"/>
<polygon fill="#63b8ff" stroke="#63b8ff" points="26.73,-31.97 29.03,-21.63 20.78,-28.28 26.73,-31.97"/>
</a>
</g>
</g>
<!-- Node9 -->
<g id="Node000009" class="node">
<title>Node9</title>
<g id="a_Node000009"><a xlink:title=" ">
<polygon fill="#e0e0e0" stroke="#999999" points="310.81,-76 267.81,-76 267.81,-56 310.81,-56 310.81,-76"/>
<text xml:space="preserve" text-anchor="middle" x="289.31" y="-62.5" font-family="Helvetica,sans-Serif" font-size="10.00">vector</text>
</a>
</g>
</g>
<!-- Node2&#45;&gt;Node9 -->
<g id="edge15_Node000002_Node000009" class="edge">
<title>Node2&#45;&gt;Node9</title>
<g id="a_edge15_Node000002_Node000009"><a xlink:title=" ">
<path fill="none" stroke="#63b8ff" d="M245.12,-223.55C249.54,-214.58 256.03,-200.63 260.31,-188 272,-153.49 280.88,-111.92 285.57,-87.58"/>
<polygon fill="#63b8ff" stroke="#63b8ff" points="289.01,-88.23 287.41,-77.76 282.13,-86.94 289.01,-88.23"/>
</a>
</g>
</g>
<!-- Node4 -->
<g id="Node000004" class="node">
<title>Node4</title>
<g id="a_Node000004"><a xlink:href="Cellule_8hpp.html" target="_top" xlink:title=" ">
<polygon fill="white" stroke="#666666" points="185.68,-132 120.93,-132 120.93,-112 185.68,-112 185.68,-132"/>
<text xml:space="preserve" text-anchor="middle" x="153.31" y="-118.5" font-family="Helvetica,sans-Serif" font-size="10.00">Cellule.hpp</text>
</a>
</g>
</g>
<!-- Node3&#45;&gt;Node4 -->
<g id="edge3_Node000003_Node000004" class="edge">
<title>Node3&#45;&gt;Node4</title>
<g id="a_edge3_Node000003_Node000004"><a xlink:title=" ">
<path fill="none" stroke="#63b8ff" d="M210.29,-167.59C200.29,-159.77 185.84,-148.46 174,-139.19"/>
<polygon fill="#63b8ff" stroke="#63b8ff" points="176.41,-136.64 166.38,-133.23 172.1,-142.15 176.41,-136.64"/>
</a>
</g>
</g>
<!-- Node6 -->
<g id="Node000006" class="node">
<title>Node6</title>
<g id="a_Node000006"><a xlink:title=" ">
<polygon fill="#e0e0e0" stroke="#999999" points="213.93,-20 162.68,-20 162.68,0 213.93,0 213.93,-20"/>
<text xml:space="preserve" text-anchor="middle" x="188.31" y="-6.5" font-family="Helvetica,sans-Serif" font-size="10.00">memory</text>
</a>
</g>
</g>
<!-- Node3&#45;&gt;Node6 -->
<g id="edge13_Node000003_Node000006" class="edge">
<title>Node3&#45;&gt;Node6</title>
<g id="a_edge13_Node000003_Node000006"><a xlink:title=" ">
<path fill="none" stroke="#63b8ff" d="M220.38,-167.6C215.03,-141.46 199.88,-67.48 192.48,-31.36"/>
<polygon fill="#63b8ff" stroke="#63b8ff" points="195.95,-30.87 190.51,-21.78 189.09,-32.28 195.95,-30.87"/>
</a>
</g>
</g>
<!-- Node3&#45;&gt;Node8 -->
<g id="edge8_Node000003_Node000008" class="edge">
<title>Node3&#45;&gt;Node8</title>
<g id="a_edge8_Node000003_Node000008"><a xlink:title=" ">
<path fill="none" stroke="#63b8ff" d="M245.47,-167.59C266.51,-159.05 297.8,-146.35 321.61,-136.68"/>
<polygon fill="#63b8ff" stroke="#63b8ff" points="322.61,-140.05 330.56,-133.05 319.97,-133.57 322.61,-140.05"/>
</a>
</g>
</g>
<!-- Node3&#45;&gt;Node9 -->
<g id="edge12_Node000003_Node000009" class="edge">
<title>Node3&#45;&gt;Node9</title>
<g id="a_edge12_Node000003_Node000009"><a xlink:title=" ">
<path fill="none" stroke="#63b8ff" d="M228.02,-167.62C239,-149.6 263.23,-109.81 277.72,-86.02"/>
<polygon fill="#63b8ff" stroke="#63b8ff" points="280.61,-88.01 282.82,-77.65 274.63,-84.37 280.61,-88.01"/>
</a>
</g>
</g>
<!-- Node10 -->
<g id="Node000010" class="node">
<title>Node10</title>
<g id="a_Node000010"><a xlink:href="Constantes_8hpp.html" target="_top" xlink:title="Configuration centralisée du projet.">
<polygon fill="white" stroke="#666666" points="102.81,-132 17.81,-132 17.81,-112 102.81,-112 102.81,-132"/>
<text xml:space="preserve" text-anchor="middle" x="60.31" y="-118.5" font-family="Helvetica,sans-Serif" font-size="10.00">Constantes.hpp</text>
</a>
</g>
</g>
<!-- Node3&#45;&gt;Node10 -->
<g id="edge11_Node000003_Node000010" class="edge">
<title>Node3&#45;&gt;Node10</title>
<g id="a_edge11_Node000003_Node000010"><a xlink:title=" ">
<path fill="none" stroke="#63b8ff" d="M194.09,-167.59C167.88,-158.86 128.62,-145.77 99.4,-136.03"/>
<polygon fill="#63b8ff" stroke="#63b8ff" points="100.77,-132.8 90.18,-132.96 98.56,-139.44 100.77,-132.8"/>
</a>
</g>
</g>
<!-- Node4&#45;&gt;Node5 -->
<g id="edge4_Node000004_Node000005" class="edge">
<title>Node4&#45;&gt;Node5</title>
<g id="a_edge4_Node000004_Node000005"><a xlink:title=" ">
<path fill="none" stroke="#63b8ff" d="M140.94,-111.59C130.66,-103.77 115.79,-92.46 103.6,-83.19"/>
<polygon fill="#63b8ff" stroke="#63b8ff" points="105.82,-80.48 95.74,-77.21 101.58,-86.05 105.82,-80.48"/>
</a>
</g>
</g>
<!-- Node4&#45;&gt;Node6 -->
<g id="edge7_Node000004_Node000006" class="edge">
<title>Node4&#45;&gt;Node6</title>
<g id="a_edge7_Node000004_Node000006"><a xlink:title=" ">
<path fill="none" stroke="#63b8ff" d="M156.29,-111.62C161.92,-93.92 174.23,-55.24 181.84,-31.32"/>
<polygon fill="#63b8ff" stroke="#63b8ff" points="185.17,-32.39 184.87,-21.8 178.5,-30.27 185.17,-32.39"/>
</a>
</g>
</g>
<!-- Node5&#45;&gt;Node6 -->
<g id="edge5_Node000005_Node000006" class="edge">
<title>Node5&#45;&gt;Node6</title>
<g id="a_edge5_Node000005_Node000006"><a xlink:title=" ">
<path fill="none" stroke="#63b8ff" d="M100.77,-55.59C117.01,-47.32 140.91,-35.14 159.64,-25.6"/>
<polygon fill="#63b8ff" stroke="#63b8ff" points="161.03,-28.82 168.35,-21.17 157.85,-22.59 161.03,-28.82"/>
</a>
</g>
</g>
<!-- Node5&#45;&gt;Node7 -->
<g id="edge6_Node000005_Node000007" class="edge">
<title>Node5&#45;&gt;Node7</title>
<g id="a_edge6_Node000005_Node000007"><a xlink:title=" ">
<path fill="none" stroke="#63b8ff" d="M74.29,-55.59C68.03,-48.24 59.13,-37.8 51.53,-28.87"/>
<polygon fill="#63b8ff" stroke="#63b8ff" points="54.36,-26.79 45.21,-21.45 49.03,-31.33 54.36,-26.79"/>
</a>
</g>
</g>
<!-- Node8&#45;&gt;Node6 -->
<g id="edge10_Node000008_Node000006" class="edge">
<title>Node8&#45;&gt;Node6</title>
<g id="a_edge10_Node000008_Node000006"><a xlink:title=" ">
<path fill="none" stroke="#63b8ff" d="M352.69,-111.63C348.29,-97.57 338.11,-71.08 320.31,-56 293.35,-33.17 254.25,-21.75 225.6,-16.14"/>
<polygon fill="#63b8ff" stroke="#63b8ff" points="226.36,-12.72 215.9,-14.41 225.13,-19.61 226.36,-12.72"/>
</a>
</g>
</g>
<!-- Node8&#45;&gt;Node9 -->
<g id="edge9_Node000008_Node000009" class="edge">
<title>Node8&#45;&gt;Node9</title>
<g id="a_edge9_Node000008_Node000009"><a xlink:title=" ">
<path fill="none" stroke="#63b8ff" d="M343.81,-111.59C334.35,-103.85 320.7,-92.69 309.43,-83.47"/>
<polygon fill="#63b8ff" stroke="#63b8ff" points="311.8,-80.88 301.84,-77.26 307.37,-86.3 311.8,-80.88"/>
</a>
</g>
</g>
</g>
</svg>
</svg>

<style type='text/css'>
<![CDATA[
[data-mouse-over-selected='false'] { opacity: 0.7; }
[data-mouse-over-selected='true']  { opacity: 1.0; }
]]>
</style>
<script type="application/ecmascript"><![CDATA[
document.addEventListener('DOMContentLoaded', (event) => {
  highlightEdges();
  highlightAdjacentNodes();
});
]]></script>
</svg>
