<?xml version="1.0" encoding="UTF-8" standalone="no"?>
<!DOCTYPE svg PUBLIC "-//W3C//DTD SVG 1.1//EN"
 "http://www.w3.org/Graphics/SVG/1.1/DTD/svg11.dtd">
<!-- Generated by graphviz version 14.0.2 (20251019.1705)
 -->
<!-- Title: main Pages: 1 -->
<!--zoomable 648 -->

<svg id="main" version="1.1" xmlns="http://www.w3.org/2000/svg" xmlns:xlink="http://www.w3.org/1999/xlink" xml:space="preserve" onload="init(evt)">

<style type="text/css"><![CDATA[
.node, .edge {opacity: 0.7;}
.node.selected, .edge.selected {opacity: 1;}
.edge:hover path { stroke: red; }
.edge:hover polygon { stroke: red; fill: red; }
]]></style>

<defs>
  <circle id="rim" cx="0" cy="0" r="7"/>
  <circle id="rim2" cx="0" cy="0" r="3.5"/>
  <g id="zoomPlus">
    <use xlink:href="#rim" fill="#404040"><set attributeName="fill" to="#808080" begin="zoomplus.mouseover" end="zoomplus.mouseout"/></use>
    <path d="M-4,0h8M0,-4v8" fill="none" stroke="white" stroke-width="1.5" pointer-events="none"/>
  </g>
  <g id="zoomMin">
    <use xlink:href="#rim" fill="#404040"><set attributeName="fill" to="#808080" begin="zoomminus.mouseover" end="zoomminus.mouseout"/></use>
    <path d="M-4,0h8" fill="none" stroke="white" stroke-width="1.5" pointer-events="none"/>
  </g>
  <g id="arrowUp" transform="translate(30 24)">
    <use xlink:href="#rim"/>
    <path pointer-events="none" fill="none" stroke="white" stroke-width="1.5" d="M0,-3.0v7 M-2.5,-0.5L0,-3.0L2.5,-0.5"/>
  </g>
  <g id="arrowRight" transform="rotate(90) translate(36 -43)">
    <use xlink:href="#rim"/>
    <path pointer-events="none" fill="none" stroke="white" stroke-width="1.5" d="M0,-3.0v7 M-2.5,-0.5L0,-3.0L2.5,-0.5"/>
  </g>
  <g id="arrowDown" transform="rotate(180) translate(-30 -48)">
    <use xlink:href="#rim"/>
    <path pointer-events="none" fill="none" stroke="white" stroke-width="1.5" d="M0,-3.0v7 M-2.5,-0.5L0,-3.0L2.5,-0.5"/>
  </g>
  <g id="arrowLeft" transform="rotate(270) translate(-36 17)">
    <use xlink:href="#rim"/>
    <path pointer-events="none" fill="none" stroke="white" stroke-width="1.5" d="M0,-3.0v7 M-2.5,-0.5L0,-3.0L2.5,-0.5"/>
  </g>
  <g id="resetDef">
    <use xlink:href="#rim2" fill="#404040"><set attributeName="fill" to="#808080" begin="reset.mouseover" end="reset.mouseout"/></use>
  </g>
</defs>
<script type="application/ecmascript">
var viewWidth = 1092;
var viewHeight = 648;
var sectionId = 'dynsection-1';
</script>
<script type="application/ecmascript" xlink:href="svg.min.js"/>
<svg id="graph" class="graph">
<g id="viewport">
<title>main</title>
<!-- Node1 -->
<g id="Node000001" class="node">
<title>Node1</title>
<g id="a_Node000001"><a xlink:title="Programme principal pour exécuter les tests unitaires.">
<polygon fill="#999999" stroke="#666666" points="37,-277 0,-277 0,-257 37,-257 37,-277"/>
<text xml:space="preserve" text-anchor="middle" x="18.5" y="-263.5" font-family="Helvetica,sans-Serif" font-size="10.00">main</text>
</a>
</g>
</g>
<!-- Node2 -->
<g id="Node000002" class="node">
<title>Node2</title>
<g id="a_Node000002"><a xlink:href="classTestsUnitaires.html#a17aa4e9d0afbd2614193d2638f4b78c7" target="_top" xlink:title="Exécute tous les tests.">
<polygon fill="white" stroke="#666666" points="195.5,-283 73,-283 73,-251 195.5,-251 195.5,-283"/>
<text xml:space="preserve" text-anchor="start" x="81" y="-269.5" font-family="Helvetica,sans-Serif" font-size="10.00">TestsUnitaires::executer</text>
<text xml:space="preserve" text-anchor="middle" x="134.25" y="-257.5" font-family="Helvetica,sans-Serif" font-size="10.00">TousLesTests</text>
</a>
</g>
</g>
<!-- Node1&#45;&gt;Node2 -->
<g id="edge1_Node000001_Node000002" class="edge">
<title>Node1&#45;&gt;Node2</title>
<g id="a_edge1_Node000001_Node000002"><a xlink:title=" ">
<path fill="none" stroke="#63b8ff" d="M37.27,-267C44.13,-267 52.45,-267 61.3,-267"/>
<polygon fill="#63b8ff" stroke="#63b8ff" points="61.2,-270.5 71.2,-267 61.2,-263.5 61.2,-270.5"/>
</a>
</g>
</g>
<!-- Node3 -->
<g id="Node000003" class="node">
<title>Node3</title>
<g id="a_Node000003"><a xlink:href="classTestsUnitaires.html#acd912aefe999f1178f6c72f41bece368" target="_top" xlink:title="Teste le motif stable (bloc).">
<polygon fill="white" stroke="#666666" points="377.62,-353 248.38,-353 248.38,-333 377.62,-333 377.62,-353"/>
<text xml:space="preserve" text-anchor="middle" x="313" y="-339.5" font-family="Helvetica,sans-Serif" font-size="10.00">TestsUnitaires::testerBloc</text>
</a>
</g>
</g>
<!-- Node2&#45;&gt;Node3 -->
<g id="edge2_Node000002_Node000003" class="edge">
<title>Node2&#45;&gt;Node3</title>
<g id="a_edge2_Node000002_Node000003"><a xlink:title=" ">
<path fill="none" stroke="#63b8ff" d="M161.9,-283.33C180.83,-294.44 207.11,-308.9 231.5,-319 240.6,-322.77 250.51,-326.22 260.16,-329.26"/>
<polygon fill="#63b8ff" stroke="#63b8ff" points="258.86,-332.52 269.44,-332.07 260.89,-325.82 258.86,-332.52"/>
</a>
</g>
</g>
<!-- Node12 -->
<g id="Node000012" class="node">
<title>Node12</title>
<g id="a_Node000012"><a xlink:href="classTestsUnitaires.html#ad353b61378429174dd396ee458261aa2" target="_top" xlink:title="Teste le motif oscillateur (clignotant).">
<polygon fill="white" stroke="#666666" points="390,-201 236,-201 236,-181 390,-181 390,-201"/>
<text xml:space="preserve" text-anchor="middle" x="313" y="-187.5" font-family="Helvetica,sans-Serif" font-size="10.00">TestsUnitaires::testerClignotant</text>
</a>
</g>
</g>
<!-- Node2&#45;&gt;Node12 -->
<g id="edge13_Node000002_Node000012" class="edge">
<title>Node2&#45;&gt;Node12</title>
<g id="a_edge13_Node000002_Node000012"><a xlink:title=" ">
<path fill="none" stroke="#63b8ff" d="M161.9,-250.67C180.83,-239.56 207.11,-225.1 231.5,-215 240.6,-211.23 250.51,-207.78 260.16,-204.74"/>
<polygon fill="#63b8ff" stroke="#63b8ff" points="260.89,-208.18 269.44,-201.93 258.86,-201.48 260.89,-208.18"/>
</a>
</g>
</g>
<!-- Node13 -->
<g id="Node000013" class="node">
<title>Node13</title>
<g id="a_Node000013"><a xlink:href="classTestsUnitaires.html#ac15830bab996354ee1325bd615fedef1" target="_top" xlink:title="Teste l&#39;historique (retour en arrière).">
<polygon fill="white" stroke="#666666" points="390,-545 236,-545 236,-525 390,-525 390,-545"/>
<text xml:space="preserve" text-anchor="middle" x="313" y="-531.5" font-family="Helvetica,sans-Serif" font-size="10.00">TestsUnitaires::testerHistorique</text>
</a>
</g>
</g>
<!-- Node2&#45;&gt;Node13 -->
<g id="edge16_Node000002_Node000013" class="edge">
<title>Node2&#45;&gt;Node13</title>
<g id="a_edge16_Node000002_Node000013"><a xlink:title=" ">
<path fill="none" stroke="#63b8ff" d="M146.04,-283.36C176.9,-330.15 265.44,-464.41 298.94,-515.2"/>
<polygon fill="#63b8ff" stroke="#63b8ff" points="295.96,-517.03 304.38,-523.45 301.8,-513.18 295.96,-517.03"/>
</a>
</g>
</g>
<!-- Node19 -->
<g id="Node000019" class="node">
<title>Node19</title>
<g id="a_Node000019"><a xlink:href="classTestsUnitaires.html#ac0c01e1e24de9cb73d81593c96fa34bb" target="_top" xlink:title="Teste la grille torique.">
<polygon fill="white" stroke="#666666" points="582.62,-336 448.88,-336 448.88,-304 582.62,-304 582.62,-336"/>
<text xml:space="preserve" text-anchor="start" x="456.88" y="-322.5" font-family="Helvetica,sans-Serif" font-size="10.00">TestsUnitaires::testerMode</text>
<text xml:space="preserve" text-anchor="middle" x="515.75" y="-310.5" font-family="Helvetica,sans-Serif" font-size="10.00">Torique</text>
</a>
</g>
</g>
<!-- Node2&#45;&gt;Node19 -->
<g id="edge23_Node000002_Node000019" class="edge">
<title>Node2&#45;&gt;Node19</title>
<g id="a_edge23_Node000002_Node000019"><a xlink:title=" ">
<path fill="none" stroke="#63b8ff" d="M196,-278.95C207.75,-281.1 219.99,-283.21 231.5,-285 300.93,-295.77 380.35,-305.35 437.39,-311.75"/>
<polygon fill="#63b8ff" stroke="#63b8ff" points="436.66,-315.19 446.98,-312.82 437.43,-308.23 436.66,-315.19"/>
</a>
</g>
</g>
<!-- Node20 -->
<g id="Node000020" class="node">
<title>Node20</title>
<g id="a_Node000020"><a xlink:href="classTestsUnitaires.html#aa95eb78fac94f695d329b7cd9ac922d9" target="_top" xlink:title="Teste les motifs préprogrammés.">
<polygon fill="white" stroke="#666666" points="584.12,-96 447.38,-96 447.38,-76 584.12,-76 584.12,-96"/>
<text xml:space="preserve" text-anchor="middle" x="515.75" y="-82.5" font-family="Helvetica,sans-Serif" font-size="10.00">TestsUnitaires::testerMotifs</text>
</a>
</g>
</g>
<!-- Node2&#45;&gt;Node20 -->
<g id="edge27_Node000002_Node000020" class="edge">
<title>Node2&#45;&gt;Node20</title>
<g id="a_edge27_Node000002_Node000020"><a xlink:title=" ">
<path fill="none" stroke="#63b8ff" d="M147.46,-250.8C164.18,-229.69 196.19,-193.01 231.5,-172 296.02,-133.61 379.14,-111.03 438.62,-98.71"/>
<polygon fill="#63b8ff" stroke="#63b8ff" points="439.22,-102.16 448.33,-96.76 437.84,-95.3 439.22,-102.16"/>
</a>
</g>
</g>
<!-- Node22 -->
<g id="Node000022" class="node">
<title>Node22</title>
<g id="a_Node000022"><a xlink:href="classTestsUnitaires.html#a7783880416ef4c0f160e1d8242f0d392" target="_top" xlink:title="Teste les cellules obstacles.">
<polygon fill="white" stroke="#666666" points="592.75,-58 438.75,-58 438.75,-38 592.75,-38 592.75,-58"/>
<text xml:space="preserve" text-anchor="middle" x="515.75" y="-44.5" font-family="Helvetica,sans-Serif" font-size="10.00">TestsUnitaires::testerObstacles</text>
</a>
</g>
</g>
<!-- Node2&#45;&gt;Node22 -->
<g id="edge33_Node000002_Node000022" class="edge">
<title>Node2&#45;&gt;Node22</title>
<g id="a_edge33_Node000002_Node000022"><a xlink:title=" ">
<path fill="none" stroke="#63b8ff" d="M140.18,-250.56C150.94,-217.65 179.82,-143.68 231.5,-107 288.45,-66.57 367.09,-52.66 427.06,-48.38"/>
<polygon fill="#63b8ff" stroke="#63b8ff" points="427.14,-51.88 436.91,-47.76 426.71,-44.89 427.14,-51.88"/>
</a>
</g>
</g>
<!-- Node25 -->
<g id="Node000025" class="node">
<title>Node25</title>
<g id="a_Node000025"><a xlink:href="classTestsUnitaires.html#a6cab42600bf26df1b4c28a7978dc3bab" target="_top" xlink:title="Teste la parallélisation.">
<polygon fill="white" stroke="#666666" points="601,-172 430.5,-172 430.5,-152 601,-152 601,-172"/>
<text xml:space="preserve" text-anchor="middle" x="515.75" y="-158.5" font-family="Helvetica,sans-Serif" font-size="10.00">TestsUnitaires::testerParallelisation</text>
</a>
</g>
</g>
<!-- Node2&#45;&gt;Node25 -->
<g id="edge39_Node000002_Node000025" class="edge">
<title>Node2&#45;&gt;Node25</title>
<g id="a_edge39_Node000002_Node000025"><a xlink:title=" ">
<path fill="none" stroke="#63b8ff" d="M195.87,-260.15C249.69,-252.57 329.62,-237.6 394.5,-210 412.2,-202.47 413.04,-194.06 430.5,-186 439.03,-182.06 448.36,-178.62 457.59,-175.67"/>
<polygon fill="#63b8ff" stroke="#63b8ff" points="458.33,-179.11 466.89,-172.87 456.31,-172.4 458.33,-179.11"/>
</a>
</g>
</g>
<!-- Node26 -->
<g id="Node000026" class="node">
<title>Node26</title>
<g id="a_Node000026"><a xlink:href="classTestsUnitaires.html#aca78b84c54b4526bab6c6325e1b05e20" target="_top" xlink:title="Teste le planeur.">
<polygon fill="white" stroke="#666666" points="587.12,-286 444.38,-286 444.38,-266 587.12,-266 587.12,-286"/>
<text xml:space="preserve" text-anchor="middle" x="515.75" y="-272.5" font-family="Helvetica,sans-Serif" font-size="10.00">TestsUnitaires::testerPlaneur</text>
</a>
</g>
</g>
<!-- Node2&#45;&gt;Node26 -->
<g id="edge42_Node000002_Node000026" class="edge">
<title>Node2&#45;&gt;Node26</title>
<g id="a_edge42_Node000002_Node000026"><a xlink:title=" ">
<path fill="none" stroke="#63b8ff" d="M195.8,-268.44C259.96,-269.96 361.65,-272.37 432.92,-274.06"/>
<polygon fill="#63b8ff" stroke="#63b8ff" points="432.49,-277.55 442.57,-274.29 432.66,-270.55 432.49,-277.55"/>
</a>
</g>
</g>
<!-- Node27 -->
<g id="Node000027" class="node">
<title>Node27</title>
<g id="a_Node000027"><a xlink:href="classTestsUnitaires.html#a668b40e7c9824be78af8cfd427b4aa58" target="_top" xlink:title="Teste les règles de base.">
<polygon fill="white" stroke="#666666" points="394.5,-391 231.5,-391 231.5,-371 394.5,-371 394.5,-391"/>
<text xml:space="preserve" text-anchor="middle" x="313" y="-377.5" font-family="Helvetica,sans-Serif" font-size="10.00">TestsUnitaires::testerReglesBase</text>
</a>
</g>
</g>
<!-- Node2&#45;&gt;Node27 -->
<g id="edge45_Node000002_Node000027" class="edge">
<title>Node2&#45;&gt;Node27</title>
<g id="a_edge45_Node000002_Node000027"><a xlink:title=" ">
<path fill="none" stroke="#63b8ff" d="M146.98,-283.17C163.41,-304.6 195.34,-342 231.5,-362 234.48,-363.65 237.6,-365.16 240.81,-366.53"/>
<polygon fill="#63b8ff" stroke="#63b8ff" points="239.29,-369.7 249.88,-369.97 241.77,-363.15 239.29,-369.7"/>
</a>
</g>
</g>
<!-- Node4 -->
<g id="Node000004" class="node">
<title>Node4</title>
<g id="a_Node000004"><a xlink:href="classTestsUnitaires.html#a6430263d628fa3e1f55be64cf1aae756" target="_top" xlink:title="Crée une grille de test.">
<polygon fill="white" stroke="#666666" points="766.25,-172 637,-172 637,-152 766.25,-152 766.25,-172"/>
<text xml:space="preserve" text-anchor="middle" x="701.62" y="-158.5" font-family="Helvetica,sans-Serif" font-size="10.00">TestsUnitaires::creerGrille</text>
</a>
</g>
</g>
<!-- Node3&#45;&gt;Node4 -->
<g id="edge3_Node000003_Node000004" class="edge">
<title>Node3&#45;&gt;Node4</title>
<g id="a_edge3_Node000003_Node000004"><a xlink:title=" ">
<path fill="none" stroke="#63b8ff" d="M320.8,-332.82C336.9,-309.57 379.81,-252.41 430.5,-224 448.42,-213.96 562.59,-189.73 636.65,-174.71"/>
<polygon fill="#63b8ff" stroke="#63b8ff" points="637.13,-178.18 646.24,-172.77 635.74,-171.32 637.13,-178.18"/>
</a>
</g>
</g>
<!-- Node7 -->
<g id="Node000007" class="node">
<title>Node7</title>
<g id="a_Node000007"><a xlink:href="classTestsUnitaires.html#a1fea61fb0483bb1f7e0284d828ad347f" target="_top" xlink:title="Teste l&#39;évolution d&#39;une grille après n itérations.">
<polygon fill="white" stroke="#666666" points="590.88,-374 440.62,-374 440.62,-354 590.88,-354 590.88,-374"/>
<text xml:space="preserve" text-anchor="middle" x="515.75" y="-360.5" font-family="Helvetica,sans-Serif" font-size="10.00">TestsUnitaires::testerEvolution</text>
</a>
</g>
</g>
<!-- Node3&#45;&gt;Node7 -->
<g id="edge6_Node000003_Node000007" class="edge">
<title>Node3&#45;&gt;Node7</title>
<g id="a_edge6_Node000003_Node000007"><a xlink:title=" ">
<path fill="none" stroke="#63b8ff" d="M378.07,-349.7C394.35,-351.41 412.11,-353.26 429.28,-355.06"/>
<polygon fill="#63b8ff" stroke="#63b8ff" points="428.63,-358.51 438.94,-356.07 429.36,-351.55 428.63,-358.51"/>
</a>
</g>
</g>
<!-- Node5 -->
<g id="Node000005" class="node">
<title>Node5</title>
<g id="a_Node000005"><a xlink:href="classGrille.html#ab4c852bc2327224eac9da60841f30baa" target="_top" xlink:title="Définit l&#39;état d&#39;une cellule.">
<polygon fill="white" stroke="#666666" points="924.75,-172 806,-172 806,-152 924.75,-152 924.75,-172"/>
<text xml:space="preserve" text-anchor="middle" x="865.38" y="-158.5" font-family="Helvetica,sans-Serif" font-size="10.00">Grille::definirEtatCellule</text>
</a>
</g>
</g>
<!-- Node4&#45;&gt;Node5 -->
<g id="edge4_Node000004_Node000005" class="edge">
<title>Node4&#45;&gt;Node5</title>
<g id="a_edge4_Node000004_Node000005"><a xlink:title=" ">
<path fill="none" stroke="#63b8ff" d="M766.55,-162C775.62,-162 784.98,-162 794.16,-162"/>
<polygon fill="#63b8ff" stroke="#63b8ff" points="794.13,-165.5 804.13,-162 794.13,-158.5 794.13,-165.5"/>
</a>
</g>
</g>
<!-- Node6 -->
<g id="Node000006" class="node">
<title>Node6</title>
<g id="a_Node000006"><a xlink:href="classGrille.html#aa4c9ce36bb4f2c59a83aeb39d73fc285" target="_top" xlink:title="Vérifie si une position est valide dans la grille.">
<polygon fill="white" stroke="#666666" points="1084,-153 964.5,-153 964.5,-133 1084,-133 1084,-153"/>
<text xml:space="preserve" text-anchor="middle" x="1024.25" y="-139.5" font-family="Helvetica,sans-Serif" font-size="10.00">Grille::estPositionValide</text>
</a>
</g>
</g>
<!-- Node5&#45;&gt;Node6 -->
<g id="edge5_Node000005_Node000006" class="edge">
<title>Node5&#45;&gt;Node6</title>
<g id="a_edge5_Node000005_Node000006"><a xlink:title=" ">
<path fill="none" stroke="#63b8ff" d="M925.24,-154.87C934.26,-153.78 943.65,-152.64 952.9,-151.52"/>
<polygon fill="#63b8ff" stroke="#63b8ff" points="953.05,-155.03 962.56,-150.35 952.21,-148.08 953.05,-155.03"/>
</a>
</g>
</g>
<!-- Node8 -->
<g id="Node000008" class="node">
<title>Node8</title>
<g id="a_Node000008"><a xlink:href="classTestsUnitaires.html#af1671fe34db212a79ee1f4b2869d576e" target="_top" xlink:title="Affiche le résultat d&#39;un test.">
<polygon fill="white" stroke="#666666" points="759.88,-303 643.38,-303 643.38,-271 759.88,-271 759.88,-303"/>
<text xml:space="preserve" text-anchor="start" x="651.38" y="-289.5" font-family="Helvetica,sans-Serif" font-size="10.00">TestsUnitaires::afficher</text>
<text xml:space="preserve" text-anchor="middle" x="701.62" y="-277.5" font-family="Helvetica,sans-Serif" font-size="10.00">Resultat</text>
</a>
</g>
</g>
<!-- Node7&#45;&gt;Node8 -->
<g id="edge7_Node000007_Node000008" class="edge">
<title>Node7&#45;&gt;Node8</title>
<g id="a_edge7_Node000007_Node000008"><a xlink:title=" ">
<path fill="none" stroke="#63b8ff" d="M574.11,-353.55C583.25,-351.18 592.49,-348.35 601,-345 624.37,-335.82 648.76,-321.7 667.56,-309.7"/>
<polygon fill="#63b8ff" stroke="#63b8ff" points="669.38,-312.69 675.84,-304.3 665.55,-306.83 669.38,-312.69"/>
</a>
</g>
</g>
<!-- Node9 -->
<g id="Node000009" class="node">
<title>Node9</title>
<g id="a_Node000009"><a xlink:href="classGrille.html#a980652764fefe3f45fcc0516a6e59abb" target="_top" xlink:title="Met à jour la grille pour passer à l&#39;itération suivante.">
<polygon fill="white" stroke="#666666" points="750.5,-363 652.75,-363 652.75,-343 750.5,-343 750.5,-363"/>
<text xml:space="preserve" text-anchor="middle" x="701.62" y="-349.5" font-family="Helvetica,sans-Serif" font-size="10.00">Grille::mettreAJour</text>
</a>
</g>
</g>
<!-- Node7&#45;&gt;Node9 -->
<g id="edge8_Node000007_Node000009" class="edge">
<title>Node7&#45;&gt;Node9</title>
<g id="a_edge8_Node000007_Node000009"><a xlink:title=" ">
<path fill="none" stroke="#63b8ff" d="M591.27,-359.54C607.86,-358.55 625.22,-357.51 641.11,-356.56"/>
<polygon fill="#63b8ff" stroke="#63b8ff" points="641.1,-360.07 650.87,-355.98 640.68,-353.08 641.1,-360.07"/>
</a>
</g>
</g>
<!-- Node9&#45;&gt;Node5 -->
<g id="edge9_Node000009_Node000005" class="edge">
<title>Node9&#45;&gt;Node5</title>
<g id="a_edge9_Node000009_Node000005"><a xlink:title=" ">
<path fill="none" stroke="#63b8ff" d="M723.39,-342.56C736.66,-335.22 753.66,-324.5 766.25,-312 806.56,-271.96 839.28,-212.74 854.74,-182.06"/>
<polygon fill="#63b8ff" stroke="#63b8ff" points="857.68,-184.01 858.96,-173.49 851.4,-180.91 857.68,-184.01"/>
</a>
</g>
</g>
<!-- Node10 -->
<g id="Node000010" class="node">
<title>Node10</title>
<g id="a_Node000010"><a xlink:href="classGrille.html#aa8f57932935f9b316ccdbd0705021d6b" target="_top" xlink:title="Constructeur de la grille.">
<polygon fill="white" stroke="#666666" points="1057.75,-363 990.75,-363 990.75,-343 1057.75,-343 1057.75,-363"/>
<text xml:space="preserve" text-anchor="middle" x="1024.25" y="-349.5" font-family="Helvetica,sans-Serif" font-size="10.00">Grille::Grille</text>
</a>
</g>
</g>
<!-- Node9&#45;&gt;Node10 -->
<g id="edge10_Node000009_Node000010" class="edge">
<title>Node9&#45;&gt;Node10</title>
<g id="a_edge10_Node000009_Node000010"><a xlink:title=" ">
<path fill="none" stroke="#63b8ff" d="M750.97,-353C812.97,-353 919.58,-353 979.35,-353"/>
<polygon fill="#63b8ff" stroke="#63b8ff" points="979.14,-356.5 989.14,-353 979.14,-349.5 979.14,-356.5"/>
</a>
</g>
</g>
<!-- Node11 -->
<g id="Node000011" class="node">
<title>Node11</title>
<g id="a_Node000011"><a xlink:href="classGrille.html#a7073ca25319522d4602550da3dfb1d22" target="_top" xlink:title="Met à jour un ensemble de lignes (parallélisation optimisée).">
<polygon fill="white" stroke="#666666" points="928.5,-344 802.25,-344 802.25,-324 928.5,-324 928.5,-344"/>
<text xml:space="preserve" text-anchor="middle" x="865.38" y="-330.5" font-family="Helvetica,sans-Serif" font-size="10.00">Grille::mettreAJourLignes</text>
</a>
</g>
</g>
<!-- Node9&#45;&gt;Node11 -->
<g id="edge11_Node000009_Node000011" class="edge">
<title>Node9&#45;&gt;Node11</title>
<g id="a_edge11_Node000009_Node000011"><a xlink:title=" ">
<path fill="none" stroke="#63b8ff" d="M750.72,-347.35C763.23,-345.88 777,-344.26 790.52,-342.68"/>
<polygon fill="#63b8ff" stroke="#63b8ff" points="790.74,-346.17 800.27,-341.53 789.93,-339.22 790.74,-346.17"/>
</a>
</g>
</g>
<!-- Node11&#45;&gt;Node10 -->
<g id="edge12_Node000011_Node000010" class="edge">
<title>Node11&#45;&gt;Node10</title>
<g id="a_edge12_Node000011_Node000010"><a xlink:title=" ">
<path fill="none" stroke="#63b8ff" d="M928.83,-341.56C945.58,-343.59 963.34,-345.74 978.89,-347.63"/>
<polygon fill="#63b8ff" stroke="#63b8ff" points="978.44,-351.1 988.79,-348.83 979.28,-344.15 978.44,-351.1"/>
</a>
</g>
</g>
<!-- Node12&#45;&gt;Node4 -->
<g id="edge14_Node000012_Node000004" class="edge">
<title>Node12&#45;&gt;Node4</title>
<g id="a_edge14_Node000012_Node000004"><a xlink:title=" ">
<path fill="none" stroke="#63b8ff" d="M332.65,-180.62C355.08,-168.8 394.23,-150.18 430.5,-143 503.26,-128.6 588.94,-139.17 643.98,-149.39"/>
<polygon fill="#63b8ff" stroke="#63b8ff" points="643.27,-152.82 653.75,-151.28 644.6,-145.95 643.27,-152.82"/>
</a>
</g>
</g>
<!-- Node12&#45;&gt;Node7 -->
<g id="edge15_Node000012_Node000007" class="edge">
<title>Node12&#45;&gt;Node7</title>
<g id="a_edge15_Node000012_Node000007"><a xlink:title=" ">
<path fill="none" stroke="#63b8ff" d="M318.57,-201.23C331.61,-229.17 371.89,-307.23 430.5,-345 432.65,-346.39 434.89,-347.67 437.19,-348.86"/>
<polygon fill="#63b8ff" stroke="#63b8ff" points="435.71,-352.04 446.27,-352.9 438.56,-345.64 435.71,-352.04"/>
</a>
</g>
</g>
<!-- Node13&#45;&gt;Node8 -->
<g id="edge17_Node000013_Node000008" class="edge">
<title>Node13&#45;&gt;Node8</title>
<g id="a_edge17_Node000013_Node000008"><a xlink:title=" ">
<path fill="none" stroke="#63b8ff" d="M345.07,-524.59C411.04,-502.01 562.26,-447.53 601,-410 627.84,-383.99 613.25,-362.86 637,-334 644.39,-325.01 653.87,-316.82 663.23,-309.89"/>
<polygon fill="#63b8ff" stroke="#63b8ff" points="665.07,-312.88 671.24,-304.26 661.04,-307.15 665.07,-312.88"/>
</a>
</g>
</g>
<!-- Node14 -->
<g id="Node000014" class="node">
<title>Node14</title>
<g id="a_Node000014"><a xlink:href="classJeuDeLaVie.html#af3e2bbbe85d122db859c6049adad142a" target="_top" xlink:title="Exécute une itération du jeu.">
<polygon fill="white" stroke="#666666" points="589.75,-640 441.75,-640 441.75,-620 589.75,-620 589.75,-640"/>
<text xml:space="preserve" text-anchor="middle" x="515.75" y="-626.5" font-family="Helvetica,sans-Serif" font-size="10.00">JeuDeLaVie::executerIteration</text>
</a>
</g>
</g>
<!-- Node13&#45;&gt;Node14 -->
<g id="edge18_Node000013_Node000014" class="edge">
<title>Node13&#45;&gt;Node14</title>
<g id="a_edge18_Node000013_Node000014"><a xlink:title=" ">
<path fill="none" stroke="#63b8ff" d="M326.42,-545.28C346.83,-561.66 389.35,-593.61 430.5,-611 435.13,-612.96 439.99,-614.73 444.95,-616.33"/>
<polygon fill="#63b8ff" stroke="#63b8ff" points="443.86,-619.65 454.44,-619.13 445.84,-612.94 443.86,-619.65"/>
</a>
</g>
</g>
<!-- Node16 -->
<g id="Node000016" class="node">
<title>Node16</title>
<g id="a_Node000016"><a xlink:href="classJeuDeLaVie.html#a3f6dc54b2b1ebef7111e7aa5a2622be3" target="_top" xlink:title="Obtient la grille actuelle.">
<polygon fill="white" stroke="#666666" points="579.25,-564 452.25,-564 452.25,-544 579.25,-544 579.25,-564"/>
<text xml:space="preserve" text-anchor="middle" x="515.75" y="-550.5" font-family="Helvetica,sans-Serif" font-size="10.00">JeuDeLaVie::obtenirGrille</text>
</a>
</g>
</g>
<!-- Node13&#45;&gt;Node16 -->
<g id="edge20_Node000013_Node000016" class="edge">
<title>Node13&#45;&gt;Node16</title>
<g id="a_edge20_Node000013_Node000016"><a xlink:title=" ">
<path fill="none" stroke="#63b8ff" d="M390.47,-542.24C406.94,-543.8 424.33,-545.44 440.71,-546.99"/>
<polygon fill="#63b8ff" stroke="#63b8ff" points="440.07,-550.45 450.36,-547.91 440.73,-543.48 440.07,-550.45"/>
</a>
</g>
</g>
<!-- Node17 -->
<g id="Node000017" class="node">
<title>Node17</title>
<g id="a_Node000017"><a xlink:href="classJeuDeLaVie.html#a64c17035b0448747418084db872c72c8" target="_top" xlink:title="Obtient le numéro d&#39;itération actuel.">
<polygon fill="white" stroke="#666666" points="585.62,-526 445.88,-526 445.88,-506 585.62,-506 585.62,-526"/>
<text xml:space="preserve" text-anchor="middle" x="515.75" y="-512.5" font-family="Helvetica,sans-Serif" font-size="10.00">JeuDeLaVie::obtenirIteration</text>
</a>
</g>
</g>
<!-- Node13&#45;&gt;Node17 -->
<g id="edge21_Node000013_Node000017" class="edge">
<title>Node13&#45;&gt;Node17</title>
<g id="a_edge21_Node000013_Node000017"><a xlink:title=" ">
<path fill="none" stroke="#63b8ff" d="M390.47,-527.76C404.72,-526.41 419.65,-525 434.03,-523.64"/>
<polygon fill="#63b8ff" stroke="#63b8ff" points="434.28,-527.13 443.9,-522.71 433.62,-520.16 434.28,-527.13"/>
</a>
</g>
</g>
<!-- Node18 -->
<g id="Node000018" class="node">
<title>Node18</title>
<g id="a_Node000018"><a xlink:href="classJeuDeLaVie.html#a444c078a494f06290049293c37b8eeb2" target="_top" xlink:title="Revient à l&#39;itération précédente.">
<polygon fill="white" stroke="#666666" points="588.25,-602 443.25,-602 443.25,-582 588.25,-582 588.25,-602"/>
<text xml:space="preserve" text-anchor="middle" x="515.75" y="-588.5" font-family="Helvetica,sans-Serif" font-size="10.00">JeuDeLaVie::revenirEnArriere</text>
</a>
</g>
</g>
<!-- Node13&#45;&gt;Node18 -->
<g id="edge22_Node000013_Node000018" class="edge">
<title>Node13&#45;&gt;Node18</title>
<g id="a_edge22_Node000013_Node000018"><a xlink:title=" ">
<path fill="none" stroke="#63b8ff" d="M343.46,-545.45C366.87,-553.56 400.55,-564.76 430.5,-573 437.97,-575.06 445.85,-577.05 453.68,-578.94"/>
<polygon fill="#63b8ff" stroke="#63b8ff" points="452.65,-582.29 463.19,-581.17 454.25,-575.48 452.65,-582.29"/>
</a>
</g>
</g>
<!-- Node15 -->
<g id="Node000015" class="node">
<title>Node15</title>
<g id="a_Node000015"><a xlink:href="classJeuDeLaVie.html#a0c9dbfff7118bd6fe99b3fa99889fe96" target="_top" xlink:title="Vérifie si le jeu est terminé">
<polygon fill="white" stroke="#666666" points="763.25,-640 640,-640 640,-620 763.25,-620 763.25,-640"/>
<text xml:space="preserve" text-anchor="middle" x="701.62" y="-626.5" font-family="Helvetica,sans-Serif" font-size="10.00">JeuDeLaVie::estTermine</text>
</a>
</g>
</g>
<!-- Node14&#45;&gt;Node15 -->
<g id="edge19_Node000014_Node000015" class="edge">
<title>Node14&#45;&gt;Node15</title>
<g id="a_edge19_Node000014_Node000015"><a xlink:title=" ">
<path fill="none" stroke="#63b8ff" d="M590.21,-630C602.78,-630 615.82,-630 628.34,-630"/>
<polygon fill="#63b8ff" stroke="#63b8ff" points="628.17,-633.5 638.17,-630 628.17,-626.5 628.17,-633.5"/>
</a>
</g>
</g>
<!-- Node19&#45;&gt;Node4 -->
<g id="edge25_Node000019_Node000004" class="edge">
<title>Node19&#45;&gt;Node4</title>
<g id="a_edge25_Node000019_Node000004"><a xlink:title=" ">
<path fill="none" stroke="#63b8ff" d="M583.05,-304.85C589.39,-302.09 595.49,-298.84 601,-295 623.22,-279.53 666.41,-215.25 687.88,-182.05"/>
<polygon fill="#63b8ff" stroke="#63b8ff" points="690.76,-184.05 693.21,-173.74 684.86,-180.27 690.76,-184.05"/>
</a>
</g>
</g>
<!-- Node19&#45;&gt;Node8 -->
<g id="edge24_Node000019_Node000008" class="edge">
<title>Node19&#45;&gt;Node8</title>
<g id="a_edge24_Node000019_Node000008"><a xlink:title=" ">
<path fill="none" stroke="#63b8ff" d="M582.87,-308.13C598.85,-305.27 615.96,-302.19 632.05,-299.31"/>
<polygon fill="#63b8ff" stroke="#63b8ff" points="632.28,-302.82 641.51,-297.61 631.05,-295.93 632.28,-302.82"/>
</a>
</g>
</g>
<!-- Node19&#45;&gt;Node9 -->
<g id="edge26_Node000019_Node000009" class="edge">
<title>Node19&#45;&gt;Node9</title>
<g id="a_edge26_Node000019_Node000009"><a xlink:title=" ">
<path fill="none" stroke="#63b8ff" d="M582.87,-331.87C601.89,-335.28 622.5,-338.98 641.09,-342.32"/>
<polygon fill="#63b8ff" stroke="#63b8ff" points="640.42,-345.75 650.88,-344.07 641.66,-338.86 640.42,-345.75"/>
</a>
</g>
</g>
<!-- Node20&#45;&gt;Node4 -->
<g id="edge29_Node000020_Node000004" class="edge">
<title>Node20&#45;&gt;Node4</title>
<g id="a_edge29_Node000020_Node000004"><a xlink:title=" ">
<path fill="none" stroke="#63b8ff" d="M567.73,-96.41C579.08,-99.84 590.78,-104.29 601,-110 619.95,-120.59 618.12,-132.29 637,-143 639.77,-144.57 642.69,-146.03 645.69,-147.37"/>
<polygon fill="#63b8ff" stroke="#63b8ff" points="644.1,-150.51 654.68,-150.96 646.69,-144.01 644.1,-150.51"/>
</a>
</g>
</g>
<!-- Node20&#45;&gt;Node8 -->
<g id="edge28_Node000020_Node000008" class="edge">
<title>Node20&#45;&gt;Node8</title>
<g id="a_edge28_Node000020_Node000008"><a xlink:title=" ">
<path fill="none" stroke="#63b8ff" d="M536.31,-96.43C554.42,-106.69 581.42,-123.62 601,-143 637.53,-179.15 669.26,-230.36 686.6,-260.97"/>
<polygon fill="#63b8ff" stroke="#63b8ff" points="683.46,-262.52 691.38,-269.55 689.57,-259.12 683.46,-262.52"/>
</a>
</g>
</g>
<!-- Node21 -->
<g id="Node000021" class="node">
<title>Node21</title>
<g id="a_Node000021"><a xlink:href="classGrille.html#adfa396acb4a6ed658ce916b5dceaa690" target="_top" xlink:title="Place un motif préprogrammé sur la grille (extension bonus).">
<polygon fill="white" stroke="#666666" points="747.88,-134 655.38,-134 655.38,-114 747.88,-114 747.88,-134"/>
<text xml:space="preserve" text-anchor="middle" x="701.62" y="-120.5" font-family="Helvetica,sans-Serif" font-size="10.00">Grille::placerMotif</text>
</a>
</g>
</g>
<!-- Node20&#45;&gt;Node21 -->
<g id="edge30_Node000020_Node000021" class="edge">
<title>Node20&#45;&gt;Node21</title>
<g id="a_edge30_Node000020_Node000021"><a xlink:title=" ">
<path fill="none" stroke="#63b8ff" d="M567.48,-96.48C591.16,-101.38 619.43,-107.22 643.82,-112.26"/>
<polygon fill="#63b8ff" stroke="#63b8ff" points="643.1,-115.69 653.6,-114.28 644.52,-108.83 643.1,-115.69"/>
</a>
</g>
</g>
<!-- Node21&#45;&gt;Node5 -->
<g id="edge31_Node000021_Node000005" class="edge">
<title>Node21&#45;&gt;Node5</title>
<g id="a_edge31_Node000021_Node000005"><a xlink:title=" ">
<path fill="none" stroke="#63b8ff" d="M747.25,-134.48C766.26,-138.95 788.63,-144.21 808.7,-148.92"/>
<polygon fill="#63b8ff" stroke="#63b8ff" points="807.88,-152.32 818.42,-151.2 809.49,-145.51 807.88,-152.32"/>
</a>
</g>
</g>
<!-- Node21&#45;&gt;Node6 -->
<g id="edge32_Node000021_Node000006" class="edge">
<title>Node21&#45;&gt;Node6</title>
<g id="a_edge32_Node000021_Node000006"><a xlink:title=" ">
<path fill="none" stroke="#63b8ff" d="M748.22,-126.7C801.61,-129.87 890.63,-135.14 952.89,-138.83"/>
<polygon fill="#63b8ff" stroke="#63b8ff" points="952.49,-142.31 962.68,-139.41 952.91,-135.33 952.49,-142.31"/>
</a>
</g>
</g>
<!-- Node22&#45;&gt;Node4 -->
<g id="edge35_Node000022_Node000004" class="edge">
<title>Node22&#45;&gt;Node4</title>
<g id="a_edge35_Node000022_Node000004"><a xlink:title=" ">
<path fill="none" stroke="#63b8ff" d="M586.72,-58.31C591.83,-60.67 596.67,-63.53 601,-67 630.18,-90.36 608.64,-118.66 637,-143 638.26,-144.08 639.57,-145.1 640.94,-146.06"/>
<polygon fill="#63b8ff" stroke="#63b8ff" points="638.82,-148.88 649.24,-150.84 642.32,-142.81 638.82,-148.88"/>
</a>
</g>
</g>
<!-- Node22&#45;&gt;Node5 -->
<g id="edge36_Node000022_Node000005" class="edge">
<title>Node22&#45;&gt;Node5</title>
<g id="a_edge36_Node000022_Node000005"><a xlink:title=" ">
<path fill="none" stroke="#63b8ff" d="M588.64,-58.48C639.45,-67.3 708.5,-82.19 766.25,-105 792.97,-115.55 821.08,-132.57 840.33,-145.27"/>
<polygon fill="#63b8ff" stroke="#63b8ff" points="838.29,-148.11 848.54,-150.79 842.19,-142.31 838.29,-148.11"/>
</a>
</g>
</g>
<!-- Node22&#45;&gt;Node8 -->
<g id="edge34_Node000022_Node000008" class="edge">
<title>Node22&#45;&gt;Node8</title>
<g id="a_edge34_Node000022_Node000008"><a xlink:title=" ">
<path fill="none" stroke="#63b8ff" d="M588.47,-58.3C593,-60.68 597.25,-63.55 601,-67 640.12,-102.96 615.18,-132.56 637,-181 649.95,-209.76 669,-240.43 682.88,-261.34"/>
<polygon fill="#63b8ff" stroke="#63b8ff" points="679.89,-263.17 688.38,-269.51 685.7,-259.26 679.89,-263.17"/>
</a>
</g>
</g>
<!-- Node23 -->
<g id="Node000023" class="node">
<title>Node23</title>
<g id="a_Node000023"><a xlink:href="classCellule.html#a4e34ac281afdba1d793fbd0239022a5e" target="_top" xlink:title="Vérifie si la cellule est un obstacle.">
<polygon fill="white" stroke="#666666" points="753.88,-58 649.38,-58 649.38,-38 753.88,-38 753.88,-58"/>
<text xml:space="preserve" text-anchor="middle" x="701.62" y="-44.5" font-family="Helvetica,sans-Serif" font-size="10.00">Cellule::estObstacle</text>
</a>
</g>
</g>
<!-- Node22&#45;&gt;Node23 -->
<g id="edge37_Node000022_Node000023" class="edge">
<title>Node22&#45;&gt;Node23</title>
<g id="a_edge37_Node000022_Node000023"><a xlink:title=" ">
<path fill="none" stroke="#63b8ff" d="M593.13,-48C608,-48 623.43,-48 637.8,-48"/>
<polygon fill="#63b8ff" stroke="#63b8ff" points="637.56,-51.5 647.56,-48 637.56,-44.5 637.56,-51.5"/>
</a>
</g>
</g>
<!-- Node24 -->
<g id="Node000024" class="node">
<title>Node24</title>
<g id="a_Node000024"><a xlink:href="classCellule.html#a70d2731234961e330fe0a31486d1dec7" target="_top" xlink:title="Vérifie si la cellule est vivante.">
<polygon fill="white" stroke="#666666" points="750.88,-20 652.38,-20 652.38,0 750.88,0 750.88,-20"/>
<text xml:space="preserve" text-anchor="middle" x="701.62" y="-6.5" font-family="Helvetica,sans-Serif" font-size="10.00">Cellule::estVivante</text>
</a>
</g>
</g>
<!-- Node22&#45;&gt;Node24 -->
<g id="edge38_Node000022_Node000024" class="edge">
<title>Node22&#45;&gt;Node24</title>
<g id="a_edge38_Node000022_Node000024"><a xlink:title=" ">
<path fill="none" stroke="#63b8ff" d="M567.48,-37.52C590.24,-32.81 617.25,-27.23 640.97,-22.33"/>
<polygon fill="#63b8ff" stroke="#63b8ff" points="641.39,-25.81 650.48,-20.36 639.98,-18.96 641.39,-25.81"/>
</a>
</g>
</g>
<!-- Node25&#45;&gt;Node4 -->
<g id="edge41_Node000025_Node000004" class="edge">
<title>Node25&#45;&gt;Node4</title>
<g id="a_edge41_Node000025_Node000004"><a xlink:title=" ">
<path fill="none" stroke="#63b8ff" d="M601.42,-162C609.4,-162 617.45,-162 625.34,-162"/>
<polygon fill="#63b8ff" stroke="#63b8ff" points="625.23,-165.5 635.23,-162 625.23,-158.5 625.23,-165.5"/>
</a>
</g>
</g>
<!-- Node25&#45;&gt;Node8 -->
<g id="edge40_Node000025_Node000008" class="edge">
<title>Node25&#45;&gt;Node8</title>
<g id="a_edge40_Node000025_Node000008"><a xlink:title=" ">
<path fill="none" stroke="#63b8ff" d="M532.11,-172.44C561.69,-192.55 627.18,-237.07 667.25,-264.31"/>
<polygon fill="#63b8ff" stroke="#63b8ff" points="665.12,-267.1 675.36,-269.82 669.06,-261.31 665.12,-267.1"/>
</a>
</g>
</g>
<!-- Node26&#45;&gt;Node4 -->
<g id="edge44_Node000026_Node000004" class="edge">
<title>Node26&#45;&gt;Node4</title>
<g id="a_edge44_Node000026_Node000004"><a xlink:title=" ">
<path fill="none" stroke="#63b8ff" d="M567.7,-265.53C579.05,-262.11 590.76,-257.68 601,-252 634.77,-233.28 666.54,-201.11 684.77,-180.73"/>
<polygon fill="#63b8ff" stroke="#63b8ff" points="687.21,-183.26 691.15,-173.43 681.94,-178.65 687.21,-183.26"/>
</a>
</g>
</g>
<!-- Node26&#45;&gt;Node8 -->
<g id="edge43_Node000026_Node000008" class="edge">
<title>Node26&#45;&gt;Node8</title>
<g id="a_edge43_Node000026_Node000008"><a xlink:title=" ">
<path fill="none" stroke="#63b8ff" d="M587.58,-280.24C602.03,-281.1 617.21,-282.01 631.6,-282.87"/>
<polygon fill="#63b8ff" stroke="#63b8ff" points="631.23,-286.35 641.42,-283.46 631.65,-279.37 631.23,-286.35"/>
</a>
</g>
</g>
<!-- Node27&#45;&gt;Node4 -->
<g id="edge47_Node000027_Node000004" class="edge">
<title>Node27&#45;&gt;Node4</title>
<g id="a_edge47_Node000027_Node000004"><a xlink:title=" ">
<path fill="none" stroke="#63b8ff" d="M382.07,-370.51C386.56,-368.18 390.78,-365.37 394.5,-362 431.06,-328.88 393.92,-290.1 430.5,-257 488.22,-204.78 528.36,-244.96 601,-217 627.57,-206.77 655.79,-190.63 675.39,-178.48"/>
<polygon fill="#63b8ff" stroke="#63b8ff" points="677.2,-181.47 683.78,-173.17 673.46,-175.56 677.2,-181.47"/>
</a>
</g>
</g>
<!-- Node27&#45;&gt;Node7 -->
<g id="edge49_Node000027_Node000007" class="edge">
<title>Node27&#45;&gt;Node7</title>
<g id="a_edge49_Node000027_Node000007"><a xlink:title=" ">
<path fill="none" stroke="#63b8ff" d="M394.78,-374.16C406.06,-373.2 417.68,-372.22 429.04,-371.26"/>
<polygon fill="#63b8ff" stroke="#63b8ff" points="429.12,-374.76 438.79,-370.43 428.53,-367.79 429.12,-374.76"/>
</a>
</g>
</g>
<!-- Node27&#45;&gt;Node8 -->
<g id="edge46_Node000027_Node000008" class="edge">
<title>Node27&#45;&gt;Node8</title>
<g id="a_edge46_Node000027_Node000008"><a xlink:title=" ">
<path fill="none" stroke="#63b8ff" d="M350.86,-391.44C407.94,-405.46 519.64,-424.18 601,-383 625.11,-370.8 617.92,-353.13 637,-334 645.6,-325.38 655.87,-317.09 665.63,-309.94"/>
<polygon fill="#63b8ff" stroke="#63b8ff" points="667.4,-312.98 673.52,-304.34 663.34,-307.27 667.4,-312.98"/>
</a>
</g>
</g>
<!-- Node27&#45;&gt;Node9 -->
<g id="edge48_Node000027_Node000009" class="edge">
<title>Node27&#45;&gt;Node9</title>
<g id="a_edge48_Node000027_Node000009"><a xlink:title=" ">
<path fill="none" stroke="#63b8ff" d="M341.49,-391.5C393.28,-409.72 508.43,-442.81 601,-416 631.44,-407.18 661.5,-385.99 680.51,-370.61"/>
<polygon fill="#63b8ff" stroke="#63b8ff" points="682.55,-373.46 687.98,-364.37 678.06,-368.09 682.55,-373.46"/>
</a>
</g>
</g>
</g>
</svg>

<g id="navigator" transform="translate(0 0)" fill="#404254">
  <rect fill="#f2f5e9" fill-opacity="0.5" stroke="#606060" stroke-width=".5" x="0" y="0" width="60" height="60"/>
  <use id="zoomplus" xlink:href="#zoomPlus" x="17" y="9" onmousedown="handleZoom(evt,'in')"/>
  <use id="zoomminus" xlink:href="#zoomMin" x="42" y="9" onmousedown="handleZoom(evt,'out')"/>
  <use id="reset" xlink:href="#resetDef" x="30" y="36" onmousedown="handleReset()"/>
   <use id="arrowup" xlink:href="#arrowUp" x="0" y="0" onmousedown="handlePan(0,-1)"/>
  <use id="arrowright" xlink:href="#arrowRight" x="0" y="0" onmousedown="handlePan(1,0)"/>
  <use id="arrowdown" xlink:href="#arrowDown" x="0" y="0" onmousedown="handlePan(0,1)"/>
  <use id="arrowleft" xlink:href="#arrowLeft" x="0" y="0" onmousedown="handlePan(-1,0)"/>
</g>
<svg viewBox="0 0 15 15" width="100%" height="30px" preserveAspectRatio="xMaxYMin meet">
 <g id="arrow_out" transform="scale(0.3 0.3)">
  <a xlink:href="test__main_8cpp_ae66f6b31b5ad750f1fe042a706a4e3d4_cgraph_org.svg" target="_base">
   <rect id="button" ry="5" rx="5" y="6" x="6" height="38" width="38"
        fill="#f2f5e9" fill-opacity="0.5" stroke="#606060" stroke-width="1.0"/>
   <path id="arrow"
     d="M 11.500037,31.436501 C 11.940474,20.09759 22.043105,11.32322 32.158766,21.979434 L 37.068811,17.246167 C 37.068811,17.246167 37.088388,32 37.088388,32 L 22.160133,31.978069 C 22.160133,31.978069 26.997745,27.140456 26.997745,27.140456 C 18.528582,18.264221 13.291696,25.230495 11.500037,31.436501 z"
     style="fill:#404040;"/>
  </a>
 </g>
</svg>

<style type='text/css'>
<![CDATA[
[data-mouse-over-selected='false'] { opacity: 0.7; }
[data-mouse-over-selected='true']  { opacity: 1.0; }
]]>
</style>
<script type="application/ecmascript"><![CDATA[
document.addEventListener('DOMContentLoaded', (event) => {
  highlightEdges();
  highlightAdjacentNodes();
});
]]></script>
</svg>
